<svg xmlns="http://www.w3.org/2000/svg" xmlns:mdcr="http://sensory.com/mdcr" viewBox="0 0 2011 2012" width="2011" height="2012">
  <metadata>
    <mdcr:info xmlns:mdcr="http://sensory.com/mdcr">
      <mdcr:source format="WMF" generator="wmf2svg.js"/>
      <mdcr:bounds left="0" top="0" right="6009" bottom="4507" inch="1440"/>
      <mdcr:records count="11">
        <mdcr:record tag="MDCR-{"/>
        <mdcr:record tag="MDCR-{"/>
        <mdcr:record tag="MDCR-{"/>
        <mdcr:record tag="MDCR-}"/>
        <mdcr:record tag="MDCR-}"/>
        <mdcr:record tag="MDCR-{"/>
        <mdcr:record tag="MDCR-}"/>
        <mdcr:record tag="MDCR-{"/>
        <mdcr:record tag="MDCR-}"/>
        <mdcr:record tag="MDCR-S"/>
        <mdcr:record tag="MDCR-}"/>
      </mdcr:records>
    </mdcr:info>
  </metadata>
  <g data-mdcr="group" class="mdcr-region">
    <g data-mdcr="group" class="mdcr-region">
      
      <g data-mdcr="group" class="mdcr-region">
        <path d="M898,1921 L1357,1921 C1351.0,1894.7 1346.5,1867.9 1339,1842 C1331.5,1816.2 1322.0,1790.9 1312,1766 C1302.0,1741.2 1291.6,1716.6 1279,1693 C1266.3,1669.2 1252.8,1644.9 1236,1624 C1219.4,1603.3 1200.7,1582.5 1179,1568 C1157.4,1553.5 1131.0,1539.3 1106,1537 C1081.0,1534.7 1051.2,1541.8 1029,1554 C1006.5,1566.3 987.5,1589.5 972,1611 C956.5,1632.5 945.7,1658.0 936,1683 C926.3,1708.0 919.8,1734.8 914,1761 C908.2,1787.1 903.7,1813.4 901,1840 C898.3,1866.7 899.0,1894.0 898,1921Z" fill="#bbbbbb" stroke="#000000" stroke-width="4" fill-rule="evenodd" data-shape="0"/>
        <path d="M898,1921 L1357,1921 C1351.0,1894.7 1346.5,1867.9 1339,1842 C1331.5,1816.2 1322.0,1790.9 1312,1766 C1302.0,1741.2 1291.6,1716.6 1279,1693 C1266.3,1669.2 1252.8,1644.9 1236,1624 C1219.4,1603.3 1200.7,1582.5 1179,1568 C1157.4,1553.5 1131.0,1539.3 1106,1537 C1081.0,1534.7 1051.2,1541.8 1029,1554 C1006.5,1566.3 987.5,1589.5 972,1611 C956.5,1632.5 945.7,1658.0 936,1683 C926.3,1708.0 919.8,1734.8 914,1761 C908.2,1787.1 903.7,1813.4 901,1840 C898.3,1866.7 899.0,1894.0 898,1921" fill="none" stroke="#000000" stroke-width="4"/>
        <path d="M898,1921 L1357,1921 C1351.0,1894.7 1346.5,1867.9 1339,1842 C1331.5,1816.2 1322.0,1790.9 1312,1766 C1302.0,1741.2 1291.6,1716.6 1279,1693 C1266.3,1669.2 1252.8,1644.9 1236,1624 C1219.4,1603.3 1200.7,1582.5 1179,1568 C1157.4,1553.5 1131.0,1539.3 1106,1537 C1081.0,1534.7 1051.2,1541.8 1029,1554 C1006.5,1566.3 987.5,1589.5 972,1611 C956.5,1632.5 945.7,1658.0 936,1683 C926.3,1708.0 919.8,1734.8 914,1761 C908.2,1787.1 903.7,1813.4 901,1840 C898.3,1866.7 899.0,1894.0 898,1921" fill="none" stroke="#000000" stroke-width="4"/>
        <path d="M1266,1710 C1267.3,1698.7 1269.0,1687.3 1270,1676 C1271.0,1664.7 1272.3,1653.4 1272,1642 C1271.7,1630.4 1269.5,1618.5 1268,1607 C1266.5,1595.8 1266.1,1584.7 1263,1574 C1259.8,1563.0 1255.8,1550.9 1249,1542 C1242.4,1533.3 1232.5,1522.7 1223,1521 C1213.8,1519.3 1200.3,1524.4 1193,1531 C1185.4,1537.8 1181.5,1551.1 1179,1562 C1176.5,1573.1 1177.1,1585.5 1178,1597 C1178.8,1608.2 1181.0,1619.2 1184,1630 C1187.0,1640.9 1192.0,1651.3 1196,1662 L1266,1710Z" fill="#bbbbbb" stroke="#000000" stroke-width="4" fill-rule="evenodd" data-shape="1"/>
        <path d="M1266,1710 C1267.3,1698.7 1269.0,1687.3 1270,1676 C1271.0,1664.7 1272.3,1653.4 1272,1642 C1271.7,1630.4 1269.5,1618.5 1268,1607 C1266.5,1595.8 1266.1,1584.7 1263,1574 C1259.8,1563.0 1255.8,1550.9 1249,1542 C1242.4,1533.3 1232.5,1522.7 1223,1521 C1213.8,1519.3 1200.3,1524.4 1193,1531 C1185.4,1537.8 1181.5,1551.1 1179,1562 C1176.5,1573.1 1177.1,1585.5 1178,1597 C1178.8,1608.2 1181.0,1619.2 1184,1630 C1187.0,1640.9 1192.0,1651.3 1196,1662 L1266,1710" fill="none" stroke="#000000" stroke-width="4"/>
        <path d="M1266,1710 C1267.3,1698.7 1269.0,1687.3 1270,1676 C1271.0,1664.7 1272.3,1653.4 1272,1642 C1271.7,1630.4 1269.5,1618.5 1268,1607 C1266.5,1595.8 1266.1,1584.7 1263,1574 C1259.8,1563.0 1255.8,1550.9 1249,1542 C1242.4,1533.3 1232.5,1522.7 1223,1521 C1213.8,1519.3 1200.3,1524.4 1193,1531 C1185.4,1537.8 1181.5,1551.1 1179,1562 C1176.5,1573.1 1177.1,1585.5 1178,1597 C1178.8,1608.2 1181.0,1619.2 1184,1630 C1187.0,1640.9 1192.0,1651.3 1196,1662" fill="none" stroke="#000000" stroke-width="4"/>
        <path d="M1287,1787 C1285.5,1789.1 1284.0,1791.7 1282,1793 C1280.0,1794.3 1277.3,1795.1 1275,1795 C1272.6,1794.9 1270.0,1793.4 1268,1792 C1266.0,1790.7 1264.5,1788.9 1263,1787 C1261.4,1785.0 1259.7,1782.5 1259,1780 C1258.3,1777.5 1259.0,1774.7 1259,1772 C1259.0,1769.3 1258.3,1766.5 1259,1764 C1259.7,1761.5 1261.4,1759.0 1263,1757 C1264.5,1755.1 1265.9,1753.0 1268,1752 C1270.2,1750.9 1273.4,1751.0 1276,1751 C1278.4,1751.0 1281.0,1750.9 1283,1752 C1285.1,1753.2 1286.5,1755.9 1288,1758 C1289.5,1760.2 1291.2,1762.5 1292,1765 C1292.8,1767.5 1293.2,1770.4 1293,1773 C1292.8,1775.4 1292.0,1777.7 1291,1780 C1290.0,1782.4 1288.5,1784.8 1287,1787Z" fill="#000000" stroke="#000000" stroke-width="4" fill-rule="evenodd" data-shape="2"/>
        <path d="M1287,1787 C1285.3,1789.0 1284.0,1791.7 1282,1793 C1280.0,1794.3 1277.3,1795.1 1275,1795 C1272.6,1794.9 1270.0,1793.4 1268,1792 C1266.0,1790.7 1264.5,1788.9 1263,1787 C1261.4,1785.0 1259.7,1782.5 1259,1780 C1258.3,1777.5 1259.0,1774.7 1259,1772 C1259.0,1769.3 1258.3,1766.5 1259,1764 C1259.7,1761.5 1261.4,1759.0 1263,1757 C1264.5,1755.1 1265.9,1753.0 1268,1752 C1270.2,1750.9 1273.4,1751.0 1276,1751 C1278.4,1751.0 1281.0,1750.9 1283,1752 C1285.1,1753.2 1286.5,1755.9 1288,1758 C1289.5,1760.2 1291.2,1762.5 1292,1765 C1292.8,1767.5 1293.2,1770.4 1293,1773 C1292.8,1775.4 1292.0,1777.7 1291,1780 C1290.0,1782.4 1288.3,1784.7 1287,1787" fill="none" stroke="#000000" stroke-width="4"/>
        <path d="M1287,1787 C1285.3,1789.0 1284.0,1791.7 1282,1793 C1280.0,1794.3 1277.3,1795.1 1275,1795 C1272.6,1794.9 1270.0,1793.4 1268,1792 C1266.0,1790.7 1264.5,1788.9 1263,1787 C1261.4,1785.0 1259.7,1782.5 1259,1780 C1258.3,1777.5 1259.0,1774.7 1259,1772 C1259.0,1769.3 1258.3,1766.5 1259,1764 C1259.7,1761.5 1261.4,1759.0 1263,1757 C1264.5,1755.1 1265.9,1753.0 1268,1752 C1270.2,1750.9 1273.4,1751.0 1276,1751 C1278.4,1751.0 1281.0,1750.9 1283,1752 C1285.1,1753.2 1286.5,1755.9 1288,1758 C1289.5,1760.2 1291.2,1762.5 1292,1765 C1292.8,1767.5 1293.2,1770.4 1293,1773 C1292.8,1775.4 1292.0,1777.7 1291,1780 C1290.0,1782.4 1288.3,1784.7 1287,1787" fill="none" stroke="#000000" stroke-width="4"/>
        <path d="M899,1860 C892.7,1866.3 885.9,1872.3 880,1879 C874.2,1885.6 869.8,1893.4 864,1900 C858.1,1906.7 852.3,1914.7 845,1919 C837.9,1923.2 827.4,1928.2 821,1926 C814.7,1923.8 810.8,1913.4 807,1906 C803.0,1898.2 802.1,1887.8 798,1880 C794.0,1872.6 788.0,1866.7 783,1860 C777.0,1865.3 769.8,1869.5 765,1876 C759.9,1883.0 757.2,1892.6 754,1901 C750.9,1909.3 748.7,1917.7 746,1926" fill="none" stroke="#000000" stroke-width="4"/>
        <polyline points="1319,1919 1309,1901" fill="none" stroke="#000000" stroke-width="4"/>
        <polyline points="1319,1836 1361,1944" fill="none" stroke="#000000" stroke-width="4"/>
        <polyline points="1299,1890 1317,1974" fill="none" stroke="#000000" stroke-width="4"/>
      </g>
    </g>
    <path d="M459,553 L71,553 L69,551 L79,491 C62.3,471.3 29.3,451.0 29,432 C28.8,414.7 55.7,398.7 69,382 C69.0,381.3 68.8,380.8 69,380 C69.3,378.9 70.2,377.1 71,376 C71.6,375.2 72.7,374.7 73,374 C73.3,373.4 72.7,372.6 73,372 C73.3,371.3 74.3,370.3 75,370 C75.6,369.7 76.7,370.3 77,370 C77.3,369.7 76.7,368.3 77,368 C77.3,367.7 78.3,368.0 79,368 C79.7,368.0 80.4,367.7 81,368 C81.7,368.3 82.3,369.3 83,370 C83.7,370.7 84.3,371.3 85,372 C85.7,372.7 86.6,373.1 87,374 C87.4,375.0 86.7,376.7 87,378 C87.3,379.4 88.4,380.5 89,382 C89.7,383.8 90.7,386.2 91,388 C91.2,389.4 90.8,390.4 91,392 C91.3,394.6 92.3,398.7 93,402 C93.7,405.3 94.7,409.1 95,412 C95.2,414.2 95.0,415.5 95,418 C95.0,422.4 95.0,430.5 95,436 C95.0,440.7 95.0,445.9 95,449 C95.0,450.7 95.0,451.7 95,453 C113.7,427.7 127.9,397.5 151,377 C174.2,356.4 204.4,337.8 234,330 C263.4,322.3 296.7,330.0 328,330 C328.0,329.3 328.0,328.9 328,328 C328.0,326.2 328.3,322.6 328,320 C327.7,317.3 326.3,314.7 326,312 C325.7,309.4 326.0,306.7 326,304 C326.0,301.3 325.6,298.4 326,296 C326.4,293.8 327.6,292.2 328,290 C328.4,287.6 327.4,284.6 328,282 C328.6,279.3 331.0,276.7 332,274 C333.0,271.4 332.9,268.4 334,266 C335.0,263.8 336.7,262.2 338,260 C339.4,257.6 340.3,254.4 342,252 C343.7,249.7 346.2,247.8 348,246 C349.5,244.5 350.5,243.3 352,242 C353.7,240.6 356.0,239.3 358,238 C352.7,211.7 337.8,182.0 342,159 C345.7,138.8 364.0,123.7 375,106 C384.7,130.7 395.0,165.1 404,180 C408.5,187.4 412.7,190.0 417,195 L438,118 C451.7,127.3 472.4,131.5 479,146 C487.5,164.6 469.7,200.7 470,227 C470.3,252.0 476.6,275.1 480,300 C483.6,326.1 500.5,360.8 491,380 C482.2,397.7 451.0,402.7 431,414 L459,553Z" fill="#000000" stroke="#000000" stroke-width="1" fill-rule="evenodd" data-shape="3"/>
    <g data-mdcr="group" class="mdcr-region">
      <path d="M752,409 L798,409 C795.7,417.7 793.4,426.4 791,435 C788.7,443.4 786.6,451.6 784,460 C781.3,468.6 778.2,477.6 775,486 C771.9,494.2 768.8,502.2 765,510 C761.2,517.9 757.0,525.8 752,533 C747.0,540.2 741.7,549.3 735,553 C729.1,556.3 719.8,558.9 715,556 C709.5,552.7 707.2,539.5 706,531 C704.9,522.5 706.0,513.3 708,505 C710.0,496.7 714.4,488.9 718,481 C721.7,472.9 725.6,464.7 730,457 C734.3,449.4 740.4,442.9 744,435 C747.7,426.9 749.3,417.7 752,409Z" fill="#000000" stroke="#000000" stroke-width="4" fill-rule="evenodd" data-shape="4"/>
      <path d="M1036,409 L1092,409 C1092.0,417.3 1090.9,425.7 1092,434 C1093.2,442.4 1096.2,450.8 1099,459 C1101.8,467.2 1105.6,475.1 1109,483 C1112.3,490.8 1116.8,497.9 1119,506 C1121.2,514.2 1124.3,524.6 1122,532 C1119.7,539.1 1112.5,547.4 1106,550 C1099.8,552.5 1090.4,551.1 1084,548 C1077.3,544.7 1072.3,536.4 1067,530 C1061.6,523.4 1056.3,516.5 1052,509 C1047.6,501.5 1043.8,493.2 1041,485 C1038.2,476.9 1036.5,468.5 1035,460 C1033.5,451.5 1031.8,442.6 1032,434 C1032.2,425.6 1034.7,417.3 1036,409Z" fill="#000000" stroke="#000000" stroke-width="4" fill-rule="evenodd" data-shape="5"/>
      <path d="M710,408 C709.3,408.0 708.3,408.3 708,408 C707.7,407.7 708.4,406.6 708,406 C707.1,404.9 702.9,404.6 700,404 C696.4,403.3 691.4,403.5 688,402 C684.9,400.7 682.8,397.3 680,396 C677.4,394.8 674.7,394.7 672,394 C669.3,393.3 666.3,393.3 664,392 C661.6,390.7 660.1,387.7 658,386 C656.1,384.4 654.0,383.3 652,382 C650.0,380.7 647.6,379.8 646,378 C644.2,376.0 643.7,371.7 642,370 C640.8,368.8 639.0,369.1 638,368 C636.8,366.7 636.7,363.8 636,362 C635.4,360.5 634.6,359.5 634,358 C633.3,356.2 632.3,353.8 632,352 C631.8,350.6 632.0,349.6 632,348 C632.0,345.8 632.0,342.5 632,340 C632.0,337.9 631.4,335.4 632,334 C632.4,333.0 633.4,332.9 634,332 C634.9,330.6 635.1,327.9 636,326 C637.0,323.9 638.8,321.4 640,320 C640.7,319.1 641.1,318.6 642,318 C643.4,317.1 646.2,316.7 648,316 C649.5,315.4 650.7,314.7 652,314 L700,314 C716.0,289.7 731.0,266.1 748,241 C766.5,213.8 782.3,179.1 807,157 C831.4,135.2 865.7,125.0 895,109 L952,109 C982.3,124.7 1018.1,134.0 1043,156 C1068.2,178.2 1077.1,223.4 1102,242 C1124.2,258.7 1155.5,259.1 1181,268 C1205.1,276.4 1227.7,285.3 1251,294 C1239.0,326.0 1236.0,379.7 1215,390 C1196.4,399.1 1163.7,374.0 1138,366 L1144,408 L710,408Z" fill="#000000" stroke="#000000" stroke-width="4" fill-rule="evenodd" data-shape="6"/>
    </g>
    <g data-mdcr="group" class="mdcr-region">
      <path d="M1865,603 L1853,549 L1446,549 C1447.3,522.3 1447.3,495.6 1450,469 C1452.7,442.3 1456.3,415.3 1462,389 C1467.7,362.7 1474.1,335.9 1484,311 C1493.8,286.2 1505.4,261.3 1521,240 C1536.7,218.6 1555.5,195.3 1578,183 C1600.2,170.8 1630.0,163.7 1655,166 C1680.0,168.3 1703.7,186.7 1728,197 L1783,156 C1794.3,180.7 1810.3,204.0 1817,230 C1823.8,256.3 1815.9,286.7 1823,313 C1830.2,339.4 1849.2,362.3 1860,388 C1870.8,413.7 1880.2,440.2 1888,467 C1895.8,493.9 1900.7,521.7 1907,549 L1901,549 L1911,573 L1909,573 L1901,549 L1853,549 L1865,603Z" fill="#000000" stroke="#000000" stroke-width="4" fill-rule="evenodd" data-shape="7"/>
      <path d="M1330,490 C1324.3,496.0 1317.5,501.0 1313,508 C1308.4,515.3 1306.2,524.6 1303,533 C1299.8,541.3 1297.0,549.7 1294,558 C1297.0,549.7 1299.8,541.3 1303,533 C1306.2,524.6 1308.2,515.2 1313,508 C1317.6,501.0 1325.0,496.0 1331,490 C1336.0,496.7 1342.0,502.6 1346,510 C1350.1,517.8 1350.9,528.2 1355,536 C1359.0,543.4 1363.5,553.5 1370,556 C1376.5,558.4 1387.1,555.0 1394,551 C1401.2,546.9 1406.3,538.0 1412,531 C1417.7,524.0 1422.1,515.9 1428,509 C1433.8,502.2 1440.7,496.3 1447,490 C1441.0,496.7 1434.7,503.0 1429,510 C1423.3,517.0 1418.9,525.1 1413,532 C1407.2,538.8 1401.5,546.7 1394,551 C1386.5,555.3 1374.5,560.7 1368,558 C1361.6,555.4 1358.6,543.8 1355,536 C1351.2,527.9 1350.3,517.8 1346,510 C1341.9,502.5 1335.3,496.7 1330,490Z" fill="#000000" stroke="#000000" stroke-width="4" fill-rule="evenodd" data-shape="8"/>
    </g>
  </g>
</svg>