<svg xmlns="http://www.w3.org/2000/svg" xmlns:mdcr="http://sensory.com/mdcr" viewBox="0 0 2011 2012" width="2011" height="2012">
  <metadata>
    <mdcr:info xmlns:mdcr="http://sensory.com/mdcr">
      <mdcr:source format="WMF" generator="wmf2svg.js"/>
      <mdcr:bounds left="0" top="0" right="6009" bottom="4507" inch="1440"/>
      <mdcr:records count="11">
        <mdcr:record tag="MDCR-{"/>
        <mdcr:record tag="MDCR-{"/>
        <mdcr:record tag="MDCR-{"/>
        <mdcr:record tag="MDCR-}"/>
        <mdcr:record tag="MDCR-}"/>
        <mdcr:record tag="MDCR-{"/>
        <mdcr:record tag="MDCR-}"/>
        <mdcr:record tag="MDCR-{"/>
        <mdcr:record tag="MDCR-}"/>
        <mdcr:record tag="MDCR-S"/>
        <mdcr:record tag="MDCR-}"/>
      </mdcr:records>
    </mdcr:info>
  </metadata>
  <g data-mdcr="group" class="mdcr-region">
    <g data-mdcr="group" class="mdcr-region">
      
      <g data-mdcr="group" class="mdcr-region">
        <path d="M846,1798 L860,1784 C863.0,1790.3 867.0,1796.3 869,1803 C871.1,1809.9 871.2,1817.6 872,1825 C872.8,1832.6 874.0,1840.4 874,1848 C874.0,1855.4 873.0,1862.7 872,1870 C871.0,1877.4 871.0,1885.5 868,1892 C865.0,1898.5 859.7,1907.5 854,1909 C848.4,1910.4 838.5,1905.8 834,1901 C829.4,1896.2 830.6,1886.1 827,1880 C823.5,1874.1 816.2,1870.9 813,1865 C809.8,1858.9 807.2,1850.6 808,1844 C808.7,1837.6 815.5,1832.5 817,1826 C818.6,1819.2 815.0,1810.7 817,1804 C819.0,1797.4 825.0,1792.0 829,1786 L846,1798Z" fill="#dddddd" stroke="#000000" stroke-width="4" fill-rule="evenodd" data-shape="0"/>
        <path d="M854,1909 C847.3,1906.3 838.5,1905.8 834,1901 C829.4,1896.2 830.6,1886.1 827,1880 C823.5,1874.1 816.2,1870.9 813,1865 C809.8,1858.9 807.2,1850.6 808,1844 C808.7,1837.6 815.5,1832.5 817,1826 C818.6,1819.2 815.0,1810.7 817,1804 C819.0,1797.4 825.0,1792.0 829,1786 L846,1798 L860,1784 C863.0,1790.3 867.0,1796.3 869,1803 C871.1,1809.9 871.2,1817.6 872,1825 C872.8,1832.6 874.0,1840.4 874,1848 C874.0,1855.4 873.0,1862.7 872,1870 C871.0,1877.4 871.0,1885.5 868,1892 C865.0,1898.5 858.7,1903.3 854,1909" fill="none" stroke="#000000" stroke-width="4"/>
        <path d="M1237,1673 C1231.7,1681.1 1221.4,1693.7 1215,1693 C1208.8,1692.3 1202.3,1678.6 1199,1670 C1195.5,1661.0 1195.7,1650.1 1195,1640 C1194.3,1629.8 1194.0,1619.3 1195,1609 C1196.0,1598.6 1198.6,1588.1 1201,1578 C1203.3,1568.1 1205.2,1558.2 1209,1549 C1212.8,1539.8 1216.9,1526.9 1224,1523 C1230.3,1519.5 1242.7,1519.7 1248,1524 C1254.0,1528.8 1254.3,1543.2 1256,1553 C1257.7,1562.8 1258.2,1572.9 1258,1583 C1257.8,1593.3 1256.8,1603.8 1255,1614 C1253.2,1624.2 1250.0,1634.1 1247,1644 C1244.0,1653.8 1242.4,1664.8 1237,1673Z" fill="#dddddd" stroke="#000000" stroke-width="4" fill-rule="evenodd" data-shape="1"/>
        <path d="M1237,1673 L1215,1693 C1209.7,1685.3 1202.3,1678.6 1199,1670 C1195.5,1661.0 1195.7,1650.1 1195,1640 C1194.3,1629.8 1194.0,1619.3 1195,1609 C1196.0,1598.6 1198.6,1588.1 1201,1578 C1203.3,1568.1 1205.2,1558.2 1209,1549 C1212.8,1539.8 1216.9,1526.9 1224,1523 C1230.3,1519.5 1242.7,1519.7 1248,1524 C1254.0,1528.8 1254.3,1543.2 1256,1553 C1257.7,1562.8 1258.2,1572.9 1258,1583 C1257.8,1593.3 1256.8,1603.8 1255,1614 C1253.2,1624.2 1250.0,1634.1 1247,1644 C1244.0,1653.8 1240.3,1663.3 1237,1673" fill="none" stroke="#000000" stroke-width="4"/>
        <path d="M1184,1654 C1181.8,1663.4 1179.4,1677.6 1173,1681 C1167.0,1684.2 1154.3,1680.8 1148,1676 C1141.3,1670.9 1138.5,1659.1 1135,1650 C1131.5,1640.8 1129.2,1630.8 1127,1621 C1124.8,1611.1 1122.8,1601.0 1122,1591 C1121.2,1581.0 1121.3,1570.9 1122,1561 C1122.7,1551.2 1121.7,1539.6 1126,1532 C1130.0,1524.9 1139.6,1515.5 1146,1516 C1152.7,1516.5 1160.2,1528.9 1165,1537 C1170.0,1545.5 1172.2,1556.3 1175,1566 C1177.8,1575.6 1180.2,1585.3 1182,1595 C1183.8,1604.6 1185.7,1614.2 1186,1624 C1186.3,1633.9 1186.2,1644.4 1184,1654Z" fill="#dddddd" stroke="#000000" stroke-width="4" fill-rule="evenodd" data-shape="2"/>
        <path d="M1184,1654 C1180.3,1663.0 1179.4,1677.6 1173,1681 C1167.0,1684.2 1154.3,1680.8 1148,1676 C1141.3,1670.9 1138.5,1659.1 1135,1650 C1131.5,1640.8 1129.2,1630.8 1127,1621 C1124.8,1611.1 1122.8,1601.0 1122,1591 C1121.2,1581.0 1121.3,1570.9 1122,1561 C1122.7,1551.2 1121.7,1539.6 1126,1532 C1130.0,1524.9 1139.6,1515.5 1146,1516 C1152.7,1516.5 1160.2,1528.9 1165,1537 C1170.0,1545.5 1172.2,1556.3 1175,1566 C1177.8,1575.6 1180.2,1585.3 1182,1595 C1183.8,1604.6 1185.7,1614.2 1186,1624 C1186.3,1633.9 1184.7,1644.0 1184,1654" fill="none" stroke="#000000" stroke-width="4"/>
        <polyline points="1205,1969 1197,1957" fill="none" stroke="#000000" stroke-width="4"/>
        <path d="M1258,1821 C1250.8,1828.2 1237.6,1832.6 1227,1833 C1216.2,1833.4 1204.7,1827.3 1194,1823 C1183.1,1818.6 1172.0,1813.3 1162,1807 C1152.0,1800.7 1142.0,1793.4 1134,1785 C1126.1,1776.7 1118.5,1767.4 1114,1757 C1109.4,1746.4 1107.3,1733.7 1107,1722 C1106.7,1710.4 1107.9,1697.8 1112,1687 C1116.2,1676.1 1123.7,1665.1 1132,1657 C1140.1,1649.2 1150.3,1642.0 1161,1639 C1172.0,1635.9 1185.9,1635.9 1197,1639 C1207.9,1642.0 1218.8,1649.0 1227,1657 C1235.2,1665.0 1240.3,1676.7 1246,1687 C1251.7,1697.3 1257.3,1707.9 1261,1719 C1264.7,1730.2 1266.5,1742.3 1268,1754 C1269.5,1765.6 1271.7,1777.8 1270,1789 C1268.3,1800.1 1265.3,1813.7 1258,1821Z" fill="#dddddd" stroke="#000000" stroke-width="4" fill-rule="evenodd" data-shape="3"/>
        <path d="M1258,1821 C1247.7,1825.0 1237.6,1832.6 1227,1833 C1216.2,1833.4 1204.7,1827.3 1194,1823 C1183.1,1818.6 1172.0,1813.3 1162,1807 C1152.0,1800.7 1142.0,1793.4 1134,1785 C1126.1,1776.7 1118.5,1767.4 1114,1757 C1109.4,1746.4 1107.3,1733.7 1107,1722 C1106.7,1710.4 1107.9,1697.8 1112,1687 C1116.2,1676.1 1123.7,1665.1 1132,1657 C1140.1,1649.2 1150.3,1642.0 1161,1639 C1172.0,1635.9 1185.9,1635.9 1197,1639 C1207.9,1642.0 1218.8,1649.0 1227,1657 C1235.2,1665.0 1240.3,1676.7 1246,1687 C1251.7,1697.3 1257.3,1707.9 1261,1719 C1264.7,1730.2 1266.5,1742.3 1268,1754 C1269.5,1765.6 1271.7,1777.8 1270,1789 C1268.3,1800.1 1262.0,1810.3 1258,1821" fill="none" stroke="#000000" stroke-width="4"/>
        <path d="M850,1969 L1238,1969 C1235.7,1946.7 1235.4,1923.9 1231,1902 C1226.7,1880.2 1221.5,1857.8 1212,1838 C1202.5,1818.2 1189.8,1797.9 1174,1783 C1158.4,1768.3 1138.2,1756.2 1118,1749 C1097.6,1741.8 1073.7,1738.8 1052,1740 C1030.4,1741.2 1008.1,1747.6 988,1756 C967.8,1764.5 947.8,1776.7 931,1791 C914.1,1805.3 898.8,1823.3 887,1842 C875.2,1860.6 866.2,1881.8 860,1903 C853.8,1924.2 853.3,1947.0 850,1969Z" fill="#dddddd" stroke="#000000" stroke-width="4" fill-rule="evenodd" data-shape="4"/>
        <path d="M850,1969 L1238,1969 C1235.7,1946.7 1235.4,1923.9 1231,1902 C1226.7,1880.2 1221.5,1857.8 1212,1838 C1202.5,1818.2 1189.8,1797.9 1174,1783 C1158.4,1768.3 1138.2,1756.2 1118,1749 C1097.6,1741.8 1073.7,1738.8 1052,1740 C1030.4,1741.2 1008.1,1747.6 988,1756 C967.8,1764.5 947.8,1776.7 931,1791 C914.1,1805.3 898.8,1823.3 887,1842 C875.2,1860.6 866.2,1881.8 860,1903 C853.8,1924.2 853.3,1947.0 850,1969" fill="none" stroke="#000000" stroke-width="4"/>
        <path d="M1222,1722 L1222,1724 L1220,1726 L1218,1726 L1218,1728 L1216,1726 L1214,1724 L1214,1722 L1212,1720 L1212,1718 L1212,1714 L1212,1712 L1212,1710 L1212,1706 L1212,1704 L1214,1702 L1214,1700 L1216,1698 L1218,1698 L1220,1698 L1222,1700 L1222,1702 L1224,1704 L1224,1706 L1226,1710 L1226,1712 L1226,1714 L1224,1718 L1224,1720Z" fill="#000000" stroke="#000000" stroke-width="4" fill-rule="evenodd" data-shape="5"/>
        <path d="M1222,1722 L1222,1724 L1220,1726 L1218,1726 L1218,1728 L1216,1726 L1214,1724 L1214,1722 L1212,1720 L1212,1718 L1212,1714 L1212,1712 L1212,1710 L1212,1706 L1212,1704 L1214,1702 L1214,1700 L1216,1698 L1218,1698 L1220,1698 L1222,1700 L1222,1702 L1224,1704 L1224,1706 L1226,1710 L1226,1712 L1226,1714 L1224,1718 L1224,1720 L1222,1722" fill="none" stroke="#000000" stroke-width="4"/>
      </g>
    </g>
    <g data-mdcr="group" class="mdcr-region">
      <path d="M598,603 L586,549 L179,549 C180.3,522.3 180.3,495.6 183,469 C185.7,442.3 189.3,415.3 195,389 C200.7,362.7 207.1,335.9 217,311 C226.8,286.2 238.4,261.3 254,240 C269.7,218.6 288.5,195.3 311,183 C333.2,170.8 363.0,163.7 388,166 C413.0,168.3 436.7,186.7 461,197 L516,156 C527.3,180.7 543.3,204.0 550,230 C556.8,256.3 548.9,286.7 556,313 C563.2,339.4 582.2,362.3 593,388 C603.8,413.7 613.2,440.2 621,467 C628.8,493.9 633.7,521.7 640,549 L634,549 L644,573 L642,573 L634,549 L586,549 L598,603Z" fill="#000000" stroke="#000000" stroke-width="4" fill-rule="evenodd" data-shape="6"/>
      <path d="M63,490 C57.3,496.0 50.5,501.0 46,508 C41.4,515.3 39.2,524.6 36,533 C32.8,541.3 30.0,549.7 27,558 C30.0,549.7 32.8,541.3 36,533 C39.2,524.6 41.2,515.2 46,508 C50.6,501.0 58.0,496.0 64,490 C69.0,496.7 75.0,502.6 79,510 C83.1,517.8 83.9,528.2 88,536 C92.0,543.4 96.5,553.5 103,556 C109.5,558.4 120.1,555.0 127,551 C134.2,546.9 139.3,538.0 145,531 C150.7,524.0 155.1,515.9 161,509 C166.8,502.2 173.7,496.3 180,490 C174.0,496.7 167.7,503.0 162,510 C156.3,517.0 151.9,525.1 146,532 C140.2,538.8 134.5,546.7 127,551 C119.5,555.3 107.5,560.7 101,558 C94.6,555.4 91.6,543.8 88,536 C84.2,527.9 83.3,517.8 79,510 C74.9,502.5 68.3,496.7 63,490Z" fill="#000000" stroke="#000000" stroke-width="4" fill-rule="evenodd" data-shape="7"/>
    </g>
    <g data-mdcr="group" class="mdcr-region">
      <path d="M848,412 L894,412 C891.7,420.7 889.4,429.4 887,438 C884.7,446.4 882.6,454.6 880,463 C877.3,471.6 874.2,480.6 871,489 C867.9,497.2 864.8,505.2 861,513 C857.2,520.9 853.0,528.8 848,536 C843.0,543.2 837.7,552.3 831,556 C825.1,559.3 815.8,561.9 811,559 C805.5,555.7 803.2,542.5 802,534 C800.9,525.5 802.0,516.3 804,508 C806.0,499.7 810.4,491.9 814,484 C817.7,475.9 821.6,467.7 826,460 C830.3,452.4 836.4,445.9 840,438 C843.7,429.9 845.3,420.7 848,412Z" fill="#000000" stroke="#000000" stroke-width="4" fill-rule="evenodd" data-shape="8"/>
      <path d="M1132,412 L1188,412 C1188.0,420.3 1186.9,428.7 1188,437 C1189.2,445.4 1192.2,453.8 1195,462 C1197.8,470.2 1201.6,478.1 1205,486 C1208.3,493.8 1212.8,500.9 1215,509 C1217.2,517.2 1220.3,527.6 1218,535 C1215.7,542.1 1208.5,550.4 1202,553 C1195.8,555.5 1186.4,554.1 1180,551 C1173.3,547.7 1168.3,539.4 1163,533 C1157.6,526.4 1152.3,519.5 1148,512 C1143.6,504.5 1139.8,496.2 1137,488 C1134.2,479.9 1132.5,471.5 1131,463 C1129.5,454.5 1127.8,445.6 1128,437 C1128.2,428.6 1130.7,420.3 1132,412Z" fill="#000000" stroke="#000000" stroke-width="4" fill-rule="evenodd" data-shape="9"/>
      <path d="M806,411 C805.3,411.0 804.3,411.3 804,411 C803.7,410.7 804.4,409.6 804,409 C803.1,407.9 798.9,407.6 796,407 C792.4,406.3 787.4,406.5 784,405 C780.9,403.7 778.8,400.3 776,399 C773.4,397.8 770.7,397.7 768,397 C765.3,396.3 762.3,396.3 760,395 C757.6,393.7 756.1,390.7 754,389 C752.1,387.4 750.0,386.3 748,385 C746.0,383.7 743.6,382.8 742,381 C740.2,379.0 739.7,374.7 738,373 C736.8,371.8 735.0,372.1 734,371 C732.8,369.7 732.7,366.8 732,365 C731.4,363.5 730.6,362.5 730,361 C729.3,359.2 728.3,356.8 728,355 C727.8,353.6 728.0,352.6 728,351 C728.0,348.8 728.0,345.5 728,343 C728.0,340.9 727.4,338.4 728,337 C728.4,336.0 729.4,335.9 730,335 C730.9,333.6 731.1,330.9 732,329 C733.0,326.9 734.8,324.4 736,323 C736.7,322.1 737.1,321.6 738,321 C739.4,320.1 742.2,319.7 744,319 C745.5,318.4 746.7,317.7 748,317 L796,317 C812.0,292.7 827.0,269.1 844,244 C862.5,216.8 878.3,182.1 903,160 C927.4,138.2 961.7,128.0 991,112 L1048,112 C1078.3,127.7 1114.1,137.0 1139,159 C1164.2,181.2 1173.1,226.4 1198,245 C1220.2,261.7 1251.5,262.1 1277,271 C1301.1,279.4 1323.7,288.3 1347,297 C1335.0,329.0 1332.0,382.7 1311,393 C1292.4,402.1 1259.7,377.0 1234,369 L1240,411 L806,411Z" fill="#000000" stroke="#000000" stroke-width="4" fill-rule="evenodd" data-shape="10"/>
    </g>
    <path d="M1877,553 L1489,553 L1487,551 L1497,491 C1480.3,471.3 1447.3,451.0 1447,432 C1446.8,414.7 1473.7,398.7 1487,382 C1487.0,381.3 1486.8,380.8 1487,380 C1487.3,378.9 1488.2,377.1 1489,376 C1489.6,375.2 1490.7,374.7 1491,374 C1491.3,373.4 1490.7,372.6 1491,372 C1491.3,371.3 1492.3,370.3 1493,370 C1493.6,369.7 1494.7,370.3 1495,370 C1495.3,369.7 1494.7,368.3 1495,368 C1495.3,367.7 1496.3,368.0 1497,368 C1497.7,368.0 1498.4,367.7 1499,368 C1499.7,368.3 1500.3,369.3 1501,370 C1501.7,370.7 1502.3,371.3 1503,372 C1503.7,372.7 1504.6,373.1 1505,374 C1505.4,375.0 1504.7,376.7 1505,378 C1505.3,379.4 1506.4,380.5 1507,382 C1507.7,383.8 1508.7,386.2 1509,388 C1509.2,389.4 1508.8,390.4 1509,392 C1509.3,394.6 1510.3,398.7 1511,402 C1511.7,405.3 1512.7,409.1 1513,412 C1513.2,414.2 1513.0,415.5 1513,418 C1513.0,422.4 1513.0,430.5 1513,436 C1513.0,440.7 1513.0,445.9 1513,449 C1513.0,450.7 1513.0,451.7 1513,453 C1531.7,427.7 1545.9,397.5 1569,377 C1592.2,356.4 1622.4,337.8 1652,330 C1681.4,322.3 1714.7,330.0 1746,330 C1746.0,329.3 1746.0,328.9 1746,328 C1746.0,326.2 1746.3,322.6 1746,320 C1745.7,317.3 1744.3,314.7 1744,312 C1743.7,309.4 1744.0,306.7 1744,304 C1744.0,301.3 1743.6,298.4 1744,296 C1744.4,293.8 1745.6,292.2 1746,290 C1746.4,287.6 1745.4,284.6 1746,282 C1746.6,279.3 1749.0,276.7 1750,274 C1751.0,271.4 1750.9,268.4 1752,266 C1753.0,263.8 1754.7,262.2 1756,260 C1757.4,257.6 1758.3,254.4 1760,252 C1761.7,249.7 1764.2,247.8 1766,246 C1767.5,244.5 1768.5,243.3 1770,242 C1771.7,240.6 1774.0,239.3 1776,238 C1770.7,211.7 1755.8,182.0 1760,159 C1763.7,138.8 1782.0,123.7 1793,106 C1802.7,130.7 1813.0,165.1 1822,180 C1826.5,187.4 1830.7,190.0 1835,195 L1856,118 C1869.7,127.3 1890.4,131.5 1897,146 C1905.5,164.6 1887.7,200.7 1888,227 C1888.3,252.0 1894.6,275.1 1898,300 C1901.6,326.1 1918.5,360.8 1909,380 C1900.2,397.7 1869.0,402.7 1849,414 L1877,553Z" fill="#000000" stroke="#000000" stroke-width="1" fill-rule="evenodd" data-shape="11"/>
  </g>
</svg>