<svg xmlns="http://www.w3.org/2000/svg" xmlns:mdcr="http://sensory.com/mdcr" viewBox="0 0 2011 2012" width="2011" height="2012">
  <metadata>
    <mdcr:info xmlns:mdcr="http://sensory.com/mdcr">
      <mdcr:source format="WMF" generator="wmf2svg.js"/>
      <mdcr:bounds left="0" top="0" right="6009" bottom="4507" inch="1440"/>
      <mdcr:records count="11">
        <mdcr:record tag="MDCR-{"/>
        <mdcr:record tag="MDCR-{"/>
        <mdcr:record tag="MDCR-{"/>
        <mdcr:record tag="MDCR-}"/>
        <mdcr:record tag="MDCR-}"/>
        <mdcr:record tag="MDCR-{"/>
        <mdcr:record tag="MDCR-}"/>
        <mdcr:record tag="MDCR-{"/>
        <mdcr:record tag="MDCR-}"/>
        <mdcr:record tag="MDCR-S"/>
        <mdcr:record tag="MDCR-}"/>
      </mdcr:records>
    </mdcr:info>
  </metadata>
  <g data-mdcr="group" class="mdcr-region">
    <g data-mdcr="group" class="mdcr-region">
      
      <g data-mdcr="group" class="mdcr-region">
        <path d="M795,1622 L783,1712 C777.7,1710.3 772.0,1709.2 767,1707 C762.1,1704.8 757.9,1701.2 753,1699 C748.0,1696.8 741.7,1696.7 737,1694 C732.4,1691.3 729.0,1686.7 725,1683 C721.0,1679.3 716.0,1676.3 713,1672 C710.0,1667.7 708.0,1662.3 707,1657 C706.0,1651.6 705.8,1645.4 707,1640 C708.2,1634.7 710.4,1628.7 714,1625 C717.5,1621.4 723.0,1619.2 728,1618 C733.3,1616.8 739.3,1618.0 745,1618 C750.7,1618.0 756.3,1617.8 762,1618 C767.7,1618.2 773.4,1618.3 779,1619 C784.4,1619.7 789.7,1621.0 795,1622Z" fill="#00ff00" stroke="#000000" stroke-width="4" fill-rule="evenodd" data-shape="0"/>
        <path d="M1186,1569 L1224,1704 C1233.0,1706.7 1242.1,1711.9 1251,1712 C1259.7,1712.1 1269.1,1708.9 1277,1705 C1285.1,1701.0 1292.9,1694.8 1299,1688 C1305.2,1681.1 1310.0,1672.4 1314,1664 C1318.0,1655.7 1320.8,1646.9 1323,1638 C1325.2,1628.9 1326.9,1619.3 1327,1610 C1327.1,1600.9 1326.5,1591.5 1324,1583 C1321.5,1574.5 1318.5,1562.7 1312,1559 C1305.5,1555.3 1293.7,1558.9 1285,1561 C1276.1,1563.2 1267.4,1568.0 1259,1572 C1250.7,1576.0 1243.6,1582.5 1235,1585 C1226.3,1587.5 1215.2,1589.7 1207,1587 C1198.9,1584.3 1193.0,1575.0 1186,1569Z" fill="#00ff00" stroke="#000000" stroke-width="4" fill-rule="evenodd" data-shape="1"/>
        <path d="M1287,1634 L1283,1636 L1277,1640 L1271,1636 L1267,1634 L1263,1630 L1263,1628 L1263,1626 L1263,1622 L1263,1620 L1263,1618 L1263,1614 L1267,1612 L1271,1610 L1277,1610 L1283,1610 L1287,1612 L1289,1614 L1291,1618 L1291,1620 L1293,1622 L1291,1626 L1291,1628 L1289,1630Z" fill="#000000" stroke="#000000" stroke-width="4" fill-rule="evenodd" data-shape="2"/>
        <path d="M830,1713 C826.7,1721.3 823.9,1730.0 820,1738 C816.2,1746.0 811.3,1753.2 807,1761 C802.6,1768.9 797.8,1776.8 794,1785 C790.2,1793.1 785.7,1801.3 784,1810 C782.3,1818.7 783.0,1828.2 784,1837 C785.0,1845.6 785.0,1858.7 790,1862 C794.7,1865.1 805.8,1861.7 812,1858 C818.6,1854.0 823.1,1845.1 828,1838 C833.1,1830.8 838.0,1823.0 842,1815 C846.0,1807.0 849.0,1798.5 852,1790 C855.0,1781.5 857.5,1772.7 860,1764 C862.5,1755.4 864.3,1746.5 867,1738 C869.7,1729.5 873.0,1721.3 876,1713 L830,1713Z" fill="#00ff00" stroke="#000000" stroke-width="4" fill-rule="evenodd" data-shape="3"/>
        <path d="M1112,1713 C1111.3,1721.7 1110.2,1730.3 1110,1739 C1109.8,1747.7 1109.8,1756.5 1111,1765 C1112.2,1773.5 1114.3,1781.9 1117,1790 C1119.7,1798.2 1122.7,1806.4 1127,1814 C1131.4,1821.8 1137.2,1829.2 1143,1836 C1148.6,1842.5 1154.0,1850.7 1161,1854 C1167.5,1857.0 1176.9,1858.6 1183,1856 C1189.4,1853.3 1196.0,1844.2 1198,1837 C1200.1,1829.6 1197.1,1820.1 1195,1812 C1192.8,1803.8 1188.3,1796.0 1185,1788 C1181.7,1780.0 1177.7,1772.3 1175,1764 C1172.3,1755.6 1170.2,1746.6 1169,1738 C1167.9,1729.6 1168.3,1721.3 1168,1713 L1112,1713Z" fill="#00ff00" stroke="#000000" stroke-width="4" fill-rule="evenodd" data-shape="4"/>
        <path d="M782,1713 L1218,1713 C1213.0,1686.3 1209.8,1659.3 1203,1633 C1196.2,1606.6 1188.2,1579.7 1177,1555 C1165.9,1530.4 1152.8,1505.8 1136,1485 C1119.2,1464.1 1099.2,1441.8 1076,1430 C1053.1,1418.3 1024.1,1413.9 998,1414 C971.7,1414.1 942.2,1419.2 919,1431 C895.8,1442.8 876.0,1464.4 859,1485 C841.9,1505.7 828.3,1530.5 817,1555 C805.7,1579.5 796.8,1605.7 791,1632 C785.2,1658.4 785.0,1686.0 782,1713Z" fill="#008000" stroke="#000000" stroke-width="4" fill-rule="evenodd" data-shape="5"/>
      </g>
    </g>
    <g data-mdcr="group" class="mdcr-region">
      <path d="M598,603 L586,549 L179,549 C180.3,522.3 180.3,495.6 183,469 C185.7,442.3 189.3,415.3 195,389 C200.7,362.7 207.1,335.9 217,311 C226.8,286.2 238.4,261.3 254,240 C269.7,218.6 288.5,195.3 311,183 C333.2,170.8 363.0,163.7 388,166 C413.0,168.3 436.7,186.7 461,197 L516,156 C527.3,180.7 543.3,204.0 550,230 C556.8,256.3 548.9,286.7 556,313 C563.2,339.4 582.2,362.3 593,388 C603.8,413.7 613.2,440.2 621,467 C628.8,493.9 633.7,521.7 640,549 L634,549 L644,573 L642,573 L634,549 L586,549 L598,603Z" fill="#000000" stroke="#000000" stroke-width="4" fill-rule="evenodd" data-shape="6"/>
      <path d="M63,490 C57.3,496.0 50.5,501.0 46,508 C41.4,515.3 39.2,524.6 36,533 C32.8,541.3 30.0,549.7 27,558 C30.0,549.7 32.8,541.3 36,533 C39.2,524.6 41.2,515.2 46,508 C50.6,501.0 58.0,496.0 64,490 C69.0,496.7 75.0,502.6 79,510 C83.1,517.8 83.9,528.2 88,536 C92.0,543.4 96.5,553.5 103,556 C109.5,558.4 120.1,555.0 127,551 C134.2,546.9 139.3,538.0 145,531 C150.7,524.0 155.1,515.9 161,509 C166.8,502.2 173.7,496.3 180,490 C174.0,496.7 167.7,503.0 162,510 C156.3,517.0 151.9,525.1 146,532 C140.2,538.8 134.5,546.7 127,551 C119.5,555.3 107.5,560.7 101,558 C94.6,555.4 91.6,543.8 88,536 C84.2,527.9 83.3,517.8 79,510 C74.9,502.5 68.3,496.7 63,490Z" fill="#000000" stroke="#000000" stroke-width="4" fill-rule="evenodd" data-shape="7"/>
    </g>
    <path d="M1210,557 L822,557 L820,555 L830,495 C813.3,475.3 780.3,455.0 780,436 C779.8,418.7 806.7,402.7 820,386 C820.0,385.3 819.8,384.8 820,384 C820.3,382.9 821.2,381.1 822,380 C822.6,379.2 823.7,378.7 824,378 C824.3,377.4 823.7,376.6 824,376 C824.3,375.3 825.3,374.3 826,374 C826.6,373.7 827.7,374.3 828,374 C828.3,373.7 827.7,372.3 828,372 C828.3,371.7 829.3,372.0 830,372 C830.7,372.0 831.4,371.7 832,372 C832.7,372.3 833.3,373.3 834,374 C834.7,374.7 835.3,375.3 836,376 C836.7,376.7 837.6,377.1 838,378 C838.4,379.0 837.7,380.7 838,382 C838.3,383.4 839.4,384.5 840,386 C840.7,387.8 841.7,390.2 842,392 C842.2,393.4 841.8,394.4 842,396 C842.3,398.6 843.3,402.7 844,406 C844.7,409.3 845.7,413.1 846,416 C846.2,418.2 846.0,419.5 846,422 C846.0,426.4 846.0,434.5 846,440 C846.0,444.7 846.0,449.9 846,453 C846.0,454.7 846.0,455.7 846,457 C864.7,431.7 878.9,401.5 902,381 C925.2,360.4 955.4,341.8 985,334 C1014.4,326.3 1047.7,334.0 1079,334 C1079.0,333.3 1079.0,332.9 1079,332 C1079.0,330.2 1079.3,326.6 1079,324 C1078.7,321.3 1077.3,318.7 1077,316 C1076.7,313.4 1077.0,310.7 1077,308 C1077.0,305.3 1076.6,302.4 1077,300 C1077.4,297.8 1078.6,296.2 1079,294 C1079.4,291.6 1078.4,288.6 1079,286 C1079.6,283.3 1082.0,280.7 1083,278 C1084.0,275.4 1083.9,272.4 1085,270 C1086.0,267.8 1087.7,266.2 1089,264 C1090.4,261.6 1091.3,258.4 1093,256 C1094.7,253.7 1097.2,251.8 1099,250 C1100.5,248.5 1101.5,247.3 1103,246 C1104.7,244.6 1107.0,243.3 1109,242 C1103.7,215.7 1088.8,186.0 1093,163 C1096.7,142.8 1115.0,127.7 1126,110 C1135.7,134.7 1146.0,169.1 1155,184 C1159.5,191.4 1163.7,194.0 1168,199 L1189,122 C1202.7,131.3 1223.4,135.5 1230,150 C1238.5,168.6 1220.7,204.7 1221,231 C1221.3,256.0 1227.6,279.1 1231,304 C1234.6,330.1 1251.5,364.8 1242,384 C1233.2,401.7 1202.0,406.7 1182,418 L1210,557Z" fill="#000000" stroke="#000000" stroke-width="1" fill-rule="evenodd" data-shape="8"/>
    <g data-mdcr="group" class="mdcr-region">
      <path d="M1460,420 L1506,420 C1503.7,428.7 1501.4,437.4 1499,446 C1496.7,454.4 1494.6,462.6 1492,471 C1489.3,479.6 1486.2,488.6 1483,497 C1479.9,505.2 1476.8,513.2 1473,521 C1469.2,528.9 1465.0,536.8 1460,544 C1455.0,551.2 1449.7,560.3 1443,564 C1437.1,567.3 1427.8,569.9 1423,567 C1417.5,563.7 1415.2,550.5 1414,542 C1412.9,533.5 1414.0,524.3 1416,516 C1418.0,507.7 1422.4,499.9 1426,492 C1429.7,483.9 1433.6,475.7 1438,468 C1442.3,460.4 1448.4,453.9 1452,446 C1455.7,437.9 1457.3,428.7 1460,420Z" fill="#000000" stroke="#000000" stroke-width="4" fill-rule="evenodd" data-shape="9"/>
      <path d="M1744,420 L1800,420 C1800.0,428.3 1798.9,436.7 1800,445 C1801.2,453.4 1804.2,461.8 1807,470 C1809.8,478.2 1813.6,486.1 1817,494 C1820.3,501.8 1824.8,508.9 1827,517 C1829.2,525.2 1832.3,535.6 1830,543 C1827.7,550.1 1820.5,558.4 1814,561 C1807.8,563.5 1798.4,562.1 1792,559 C1785.3,555.7 1780.3,547.4 1775,541 C1769.6,534.4 1764.3,527.5 1760,520 C1755.6,512.5 1751.8,504.2 1749,496 C1746.2,487.9 1744.5,479.5 1743,471 C1741.5,462.5 1739.8,453.6 1740,445 C1740.2,436.6 1742.7,428.3 1744,420Z" fill="#000000" stroke="#000000" stroke-width="4" fill-rule="evenodd" data-shape="10"/>
      <path d="M1418,419 C1417.3,419.0 1416.3,419.3 1416,419 C1415.7,418.7 1416.4,417.6 1416,417 C1415.1,415.9 1410.9,415.6 1408,415 C1404.4,414.3 1399.4,414.5 1396,413 C1392.9,411.7 1390.8,408.3 1388,407 C1385.4,405.8 1382.7,405.7 1380,405 C1377.3,404.3 1374.3,404.3 1372,403 C1369.6,401.7 1368.1,398.7 1366,397 C1364.1,395.4 1362.0,394.3 1360,393 C1358.0,391.7 1355.6,390.8 1354,389 C1352.2,387.0 1351.7,382.7 1350,381 C1348.8,379.8 1347.0,380.1 1346,379 C1344.8,377.7 1344.7,374.8 1344,373 C1343.4,371.5 1342.6,370.5 1342,369 C1341.3,367.2 1340.3,364.8 1340,363 C1339.8,361.6 1340.0,360.6 1340,359 C1340.0,356.8 1340.0,353.5 1340,351 C1340.0,348.9 1339.4,346.4 1340,345 C1340.4,344.0 1341.4,343.9 1342,343 C1342.9,341.6 1343.1,338.9 1344,337 C1345.0,334.9 1346.8,332.4 1348,331 C1348.7,330.1 1349.1,329.6 1350,329 C1351.4,328.1 1354.2,327.7 1356,327 C1357.5,326.4 1358.7,325.7 1360,325 L1408,325 C1424.0,300.7 1439.0,277.1 1456,252 C1474.5,224.8 1490.3,190.1 1515,168 C1539.4,146.2 1573.7,136.0 1603,120 L1660,120 C1690.3,135.7 1726.1,145.0 1751,167 C1776.2,189.2 1785.1,234.4 1810,253 C1832.2,269.7 1863.5,270.1 1889,279 C1913.1,287.4 1935.7,296.3 1959,305 C1947.0,337.0 1944.0,390.7 1923,401 C1904.4,410.1 1871.7,385.0 1846,377 L1852,419 L1418,419Z" fill="#000000" stroke="#000000" stroke-width="4" fill-rule="evenodd" data-shape="11"/>
    </g>
  </g>
</svg>