<svg xmlns="http://www.w3.org/2000/svg" xmlns:mdcr="http://sensory.com/mdcr" viewBox="0 0 2011 2012" width="2011" height="2012">
  <metadata>
    <mdcr:info xmlns:mdcr="http://sensory.com/mdcr">
      <mdcr:source format="WMF" generator="wmf2svg.js"/>
      <mdcr:bounds left="0" top="0" right="6009" bottom="4507" inch="1440"/>
      <mdcr:records count="11">
        <mdcr:record tag="MDCR-{"/>
        <mdcr:record tag="MDCR-{"/>
        <mdcr:record tag="MDCR-{"/>
        <mdcr:record tag="MDCR-}"/>
        <mdcr:record tag="MDCR-}"/>
        <mdcr:record tag="MDCR-{"/>
        <mdcr:record tag="MDCR-}"/>
        <mdcr:record tag="MDCR-{"/>
        <mdcr:record tag="MDCR-}"/>
        <mdcr:record tag="MDCR-S"/>
        <mdcr:record tag="MDCR-}"/>
      </mdcr:records>
    </mdcr:info>
  </metadata>
  <g data-mdcr="group" class="mdcr-region">
    <g data-mdcr="group" class="mdcr-region">
      
      <g data-mdcr="group" class="mdcr-region">
        <path d="M846,1798 L860,1784 C863.0,1790.3 867.0,1796.3 869,1803 C871.1,1809.9 871.2,1817.6 872,1825 C872.8,1832.6 874.0,1840.4 874,1848 C874.0,1855.4 873.0,1862.7 872,1870 C871.0,1877.4 871.0,1885.5 868,1892 C865.0,1898.5 859.7,1907.5 854,1909 C848.4,1910.4 838.5,1905.8 834,1901 C829.4,1896.2 830.6,1886.1 827,1880 C823.5,1874.1 816.2,1870.9 813,1865 C809.8,1858.9 807.2,1850.6 808,1844 C808.7,1837.6 815.5,1832.5 817,1826 C818.6,1819.2 815.0,1810.7 817,1804 C819.0,1797.4 825.0,1792.0 829,1786 L846,1798Z" fill="#dddddd" stroke="#000000" stroke-width="4" fill-rule="evenodd" data-shape="0"/>
        <path d="M854,1909 C847.3,1906.3 838.5,1905.8 834,1901 C829.4,1896.2 830.6,1886.1 827,1880 C823.5,1874.1 816.2,1870.9 813,1865 C809.8,1858.9 807.2,1850.6 808,1844 C808.7,1837.6 815.5,1832.5 817,1826 C818.6,1819.2 815.0,1810.7 817,1804 C819.0,1797.4 825.0,1792.0 829,1786 L846,1798 L860,1784 C863.0,1790.3 867.0,1796.3 869,1803 C871.1,1809.9 871.2,1817.6 872,1825 C872.8,1832.6 874.0,1840.4 874,1848 C874.0,1855.4 873.0,1862.7 872,1870 C871.0,1877.4 871.0,1885.5 868,1892 C865.0,1898.5 858.7,1903.3 854,1909" fill="none" stroke="#000000" stroke-width="4"/>
        <path d="M1237,1673 C1231.7,1681.1 1221.4,1693.7 1215,1693 C1208.8,1692.3 1202.3,1678.6 1199,1670 C1195.5,1661.0 1195.7,1650.1 1195,1640 C1194.3,1629.8 1194.0,1619.3 1195,1609 C1196.0,1598.6 1198.6,1588.1 1201,1578 C1203.3,1568.1 1205.2,1558.2 1209,1549 C1212.8,1539.8 1216.9,1526.9 1224,1523 C1230.3,1519.5 1242.7,1519.7 1248,1524 C1254.0,1528.8 1254.3,1543.2 1256,1553 C1257.7,1562.8 1258.2,1572.9 1258,1583 C1257.8,1593.3 1256.8,1603.8 1255,1614 C1253.2,1624.2 1250.0,1634.1 1247,1644 C1244.0,1653.8 1242.4,1664.8 1237,1673Z" fill="#dddddd" stroke="#000000" stroke-width="4" fill-rule="evenodd" data-shape="1"/>
        <path d="M1237,1673 L1215,1693 C1209.7,1685.3 1202.3,1678.6 1199,1670 C1195.5,1661.0 1195.7,1650.1 1195,1640 C1194.3,1629.8 1194.0,1619.3 1195,1609 C1196.0,1598.6 1198.6,1588.1 1201,1578 C1203.3,1568.1 1205.2,1558.2 1209,1549 C1212.8,1539.8 1216.9,1526.9 1224,1523 C1230.3,1519.5 1242.7,1519.7 1248,1524 C1254.0,1528.8 1254.3,1543.2 1256,1553 C1257.7,1562.8 1258.2,1572.9 1258,1583 C1257.8,1593.3 1256.8,1603.8 1255,1614 C1253.2,1624.2 1250.0,1634.1 1247,1644 C1244.0,1653.8 1240.3,1663.3 1237,1673" fill="none" stroke="#000000" stroke-width="4"/>
        <path d="M1184,1654 C1181.8,1663.4 1179.4,1677.6 1173,1681 C1167.0,1684.2 1154.3,1680.8 1148,1676 C1141.3,1670.9 1138.5,1659.1 1135,1650 C1131.5,1640.8 1129.2,1630.8 1127,1621 C1124.8,1611.1 1122.8,1601.0 1122,1591 C1121.2,1581.0 1121.3,1570.9 1122,1561 C1122.7,1551.2 1121.7,1539.6 1126,1532 C1130.0,1524.9 1139.6,1515.5 1146,1516 C1152.7,1516.5 1160.2,1528.9 1165,1537 C1170.0,1545.5 1172.2,1556.3 1175,1566 C1177.8,1575.6 1180.2,1585.3 1182,1595 C1183.8,1604.6 1185.7,1614.2 1186,1624 C1186.3,1633.9 1186.2,1644.4 1184,1654Z" fill="#dddddd" stroke="#000000" stroke-width="4" fill-rule="evenodd" data-shape="2"/>
        <path d="M1184,1654 C1180.3,1663.0 1179.4,1677.6 1173,1681 C1167.0,1684.2 1154.3,1680.8 1148,1676 C1141.3,1670.9 1138.5,1659.1 1135,1650 C1131.5,1640.8 1129.2,1630.8 1127,1621 C1124.8,1611.1 1122.8,1601.0 1122,1591 C1121.2,1581.0 1121.3,1570.9 1122,1561 C1122.7,1551.2 1121.7,1539.6 1126,1532 C1130.0,1524.9 1139.6,1515.5 1146,1516 C1152.7,1516.5 1160.2,1528.9 1165,1537 C1170.0,1545.5 1172.2,1556.3 1175,1566 C1177.8,1575.6 1180.2,1585.3 1182,1595 C1183.8,1604.6 1185.7,1614.2 1186,1624 C1186.3,1633.9 1184.7,1644.0 1184,1654" fill="none" stroke="#000000" stroke-width="4"/>
        <polyline points="1205,1969 1197,1957" fill="none" stroke="#000000" stroke-width="4"/>
        <path d="M1258,1821 C1250.8,1828.2 1237.6,1832.6 1227,1833 C1216.2,1833.4 1204.7,1827.3 1194,1823 C1183.1,1818.6 1172.0,1813.3 1162,1807 C1152.0,1800.7 1142.0,1793.4 1134,1785 C1126.1,1776.7 1118.5,1767.4 1114,1757 C1109.4,1746.4 1107.3,1733.7 1107,1722 C1106.7,1710.4 1107.9,1697.8 1112,1687 C1116.2,1676.1 1123.7,1665.1 1132,1657 C1140.1,1649.2 1150.3,1642.0 1161,1639 C1172.0,1635.9 1185.9,1635.9 1197,1639 C1207.9,1642.0 1218.8,1649.0 1227,1657 C1235.2,1665.0 1240.3,1676.7 1246,1687 C1251.7,1697.3 1257.3,1707.9 1261,1719 C1264.7,1730.2 1266.5,1742.3 1268,1754 C1269.5,1765.6 1271.7,1777.8 1270,1789 C1268.3,1800.1 1265.3,1813.7 1258,1821Z" fill="#dddddd" stroke="#000000" stroke-width="4" fill-rule="evenodd" data-shape="3"/>
        <path d="M1258,1821 C1247.7,1825.0 1237.6,1832.6 1227,1833 C1216.2,1833.4 1204.7,1827.3 1194,1823 C1183.1,1818.6 1172.0,1813.3 1162,1807 C1152.0,1800.7 1142.0,1793.4 1134,1785 C1126.1,1776.7 1118.5,1767.4 1114,1757 C1109.4,1746.4 1107.3,1733.7 1107,1722 C1106.7,1710.4 1107.9,1697.8 1112,1687 C1116.2,1676.1 1123.7,1665.1 1132,1657 C1140.1,1649.2 1150.3,1642.0 1161,1639 C1172.0,1635.9 1185.9,1635.9 1197,1639 C1207.9,1642.0 1218.8,1649.0 1227,1657 C1235.2,1665.0 1240.3,1676.7 1246,1687 C1251.7,1697.3 1257.3,1707.9 1261,1719 C1264.7,1730.2 1266.5,1742.3 1268,1754 C1269.5,1765.6 1271.7,1777.8 1270,1789 C1268.3,1800.1 1262.0,1810.3 1258,1821" fill="none" stroke="#000000" stroke-width="4"/>
        <path d="M850,1969 L1238,1969 C1235.7,1946.7 1235.4,1923.9 1231,1902 C1226.7,1880.2 1221.5,1857.8 1212,1838 C1202.5,1818.2 1189.8,1797.9 1174,1783 C1158.4,1768.3 1138.2,1756.2 1118,1749 C1097.6,1741.8 1073.7,1738.8 1052,1740 C1030.4,1741.2 1008.1,1747.6 988,1756 C967.8,1764.5 947.8,1776.7 931,1791 C914.1,1805.3 898.8,1823.3 887,1842 C875.2,1860.6 866.2,1881.8 860,1903 C853.8,1924.2 853.3,1947.0 850,1969Z" fill="#dddddd" stroke="#000000" stroke-width="4" fill-rule="evenodd" data-shape="4"/>
        <path d="M850,1969 L1238,1969 C1235.7,1946.7 1235.4,1923.9 1231,1902 C1226.7,1880.2 1221.5,1857.8 1212,1838 C1202.5,1818.2 1189.8,1797.9 1174,1783 C1158.4,1768.3 1138.2,1756.2 1118,1749 C1097.6,1741.8 1073.7,1738.8 1052,1740 C1030.4,1741.2 1008.1,1747.6 988,1756 C967.8,1764.5 947.8,1776.7 931,1791 C914.1,1805.3 898.8,1823.3 887,1842 C875.2,1860.6 866.2,1881.8 860,1903 C853.8,1924.2 853.3,1947.0 850,1969" fill="none" stroke="#000000" stroke-width="4"/>
        <path d="M1222,1722 L1222,1724 L1220,1726 L1218,1726 L1218,1728 L1216,1726 L1214,1724 L1214,1722 L1212,1720 L1212,1718 L1212,1714 L1212,1712 L1212,1710 L1212,1706 L1212,1704 L1214,1702 L1214,1700 L1216,1698 L1218,1698 L1220,1698 L1222,1700 L1222,1702 L1224,1704 L1224,1706 L1226,1710 L1226,1712 L1226,1714 L1224,1718 L1224,1720Z" fill="#000000" stroke="#000000" stroke-width="4" fill-rule="evenodd" data-shape="5"/>
        <path d="M1222,1722 L1222,1724 L1220,1726 L1218,1726 L1218,1728 L1216,1726 L1214,1724 L1214,1722 L1212,1720 L1212,1718 L1212,1714 L1212,1712 L1212,1710 L1212,1706 L1212,1704 L1214,1702 L1214,1700 L1216,1698 L1218,1698 L1220,1698 L1222,1700 L1222,1702 L1224,1704 L1224,1706 L1226,1710 L1226,1712 L1226,1714 L1224,1718 L1224,1720 L1222,1722" fill="none" stroke="#000000" stroke-width="4"/>
      </g>
    </g>
    <g data-mdcr="group" class="mdcr-region">
      <path d="M136,401 L182,401 C179.7,409.7 177.4,418.4 175,427 C172.7,435.4 170.6,443.6 168,452 C165.3,460.6 162.2,469.6 159,478 C155.9,486.2 152.8,494.2 149,502 C145.2,509.9 141.0,517.8 136,525 C131.0,532.2 125.7,541.3 119,545 C113.1,548.3 103.8,550.9 99,548 C93.5,544.7 91.2,531.5 90,523 C88.9,514.5 90.0,505.3 92,497 C94.0,488.7 98.4,480.9 102,473 C105.7,464.9 109.6,456.7 114,449 C118.3,441.4 124.4,434.9 128,427 C131.7,418.9 133.3,409.7 136,401Z" fill="#000000" stroke="#000000" stroke-width="4" fill-rule="evenodd" data-shape="6"/>
      <path d="M420,401 L476,401 C476.0,409.3 474.9,417.7 476,426 C477.2,434.4 480.2,442.8 483,451 C485.8,459.2 489.6,467.1 493,475 C496.3,482.8 500.8,489.9 503,498 C505.2,506.2 508.3,516.6 506,524 C503.7,531.1 496.5,539.4 490,542 C483.8,544.5 474.4,543.1 468,540 C461.3,536.7 456.3,528.4 451,522 C445.6,515.4 440.3,508.5 436,501 C431.6,493.5 427.8,485.2 425,477 C422.2,468.9 420.5,460.5 419,452 C417.5,443.5 415.8,434.6 416,426 C416.2,417.6 418.7,409.3 420,401Z" fill="#000000" stroke="#000000" stroke-width="4" fill-rule="evenodd" data-shape="7"/>
      <path d="M94,400 C93.3,400.0 92.3,400.3 92,400 C91.7,399.7 92.4,398.6 92,398 C91.1,396.9 86.9,396.6 84,396 C80.4,395.3 75.4,395.5 72,394 C68.9,392.7 66.8,389.3 64,388 C61.4,386.8 58.7,386.7 56,386 C53.3,385.3 50.3,385.3 48,384 C45.6,382.7 44.1,379.7 42,378 C40.1,376.4 38.0,375.3 36,374 C34.0,372.7 31.6,371.8 30,370 C28.2,368.0 27.7,363.7 26,362 C24.8,360.8 23.0,361.1 22,360 C20.8,358.7 20.7,355.8 20,354 C19.4,352.5 18.6,351.5 18,350 C17.3,348.2 16.3,345.8 16,344 C15.8,342.6 16.0,341.6 16,340 C16.0,337.8 16.0,334.5 16,332 C16.0,329.9 15.4,327.4 16,326 C16.4,325.0 17.4,324.9 18,324 C18.9,322.6 19.1,319.9 20,318 C21.0,315.9 22.8,313.4 24,312 C24.7,311.1 25.1,310.6 26,310 C27.4,309.1 30.2,308.7 32,308 C33.5,307.4 34.7,306.7 36,306 L84,306 C100.0,281.7 115.0,258.1 132,233 C150.5,205.8 166.3,171.1 191,149 C215.4,127.2 249.7,117.0 279,101 L336,101 C366.3,116.7 402.1,126.0 427,148 C452.2,170.2 461.1,215.4 486,234 C508.2,250.7 539.5,251.1 565,260 C589.1,268.4 611.7,277.3 635,286 C623.0,318.0 620.0,371.7 599,382 C580.4,391.1 547.7,366.0 522,358 L528,400 L94,400Z" fill="#000000" stroke="#000000" stroke-width="4" fill-rule="evenodd" data-shape="8"/>
    </g>
    <g data-mdcr="group" class="mdcr-region">
      <path d="M1262,603 L1250,549 L843,549 C844.3,522.3 844.3,495.6 847,469 C849.7,442.3 853.3,415.3 859,389 C864.7,362.7 871.1,335.9 881,311 C890.8,286.2 902.4,261.3 918,240 C933.7,218.6 952.5,195.3 975,183 C997.2,170.8 1027.0,163.7 1052,166 C1077.0,168.3 1100.7,186.7 1125,197 L1180,156 C1191.3,180.7 1207.3,204.0 1214,230 C1220.8,256.3 1212.9,286.7 1220,313 C1227.2,339.4 1246.2,362.3 1257,388 C1267.8,413.7 1277.2,440.2 1285,467 C1292.8,493.9 1297.7,521.7 1304,549 L1298,549 L1308,573 L1306,573 L1298,549 L1250,549 L1262,603Z" fill="#000000" stroke="#000000" stroke-width="4" fill-rule="evenodd" data-shape="9"/>
      <path d="M727,490 C721.3,496.0 714.5,501.0 710,508 C705.4,515.3 703.2,524.6 700,533 C696.8,541.3 694.0,549.7 691,558 C694.0,549.7 696.8,541.3 700,533 C703.2,524.6 705.2,515.2 710,508 C714.6,501.0 722.0,496.0 728,490 C733.0,496.7 739.0,502.6 743,510 C747.1,517.8 747.9,528.2 752,536 C756.0,543.4 760.5,553.5 767,556 C773.5,558.4 784.1,555.0 791,551 C798.2,546.9 803.3,538.0 809,531 C814.7,524.0 819.1,515.9 825,509 C830.8,502.2 837.7,496.3 844,490 C838.0,496.7 831.7,503.0 826,510 C820.3,517.0 815.9,525.1 810,532 C804.2,538.8 798.5,546.7 791,551 C783.5,555.3 771.5,560.7 765,558 C758.6,555.4 755.6,543.8 752,536 C748.2,527.9 747.3,517.8 743,510 C738.9,502.5 732.3,496.7 727,490Z" fill="#000000" stroke="#000000" stroke-width="4" fill-rule="evenodd" data-shape="10"/>
    </g>
    <path d="M1877,553 L1489,553 L1487,551 L1497,491 C1480.3,471.3 1447.3,451.0 1447,432 C1446.8,414.7 1473.7,398.7 1487,382 C1487.0,381.3 1486.8,380.8 1487,380 C1487.3,378.9 1488.2,377.1 1489,376 C1489.6,375.2 1490.7,374.7 1491,374 C1491.3,373.4 1490.7,372.6 1491,372 C1491.3,371.3 1492.3,370.3 1493,370 C1493.6,369.7 1494.7,370.3 1495,370 C1495.3,369.7 1494.7,368.3 1495,368 C1495.3,367.7 1496.3,368.0 1497,368 C1497.7,368.0 1498.4,367.7 1499,368 C1499.7,368.3 1500.3,369.3 1501,370 C1501.7,370.7 1502.3,371.3 1503,372 C1503.7,372.7 1504.6,373.1 1505,374 C1505.4,375.0 1504.7,376.7 1505,378 C1505.3,379.4 1506.4,380.5 1507,382 C1507.7,383.8 1508.7,386.2 1509,388 C1509.2,389.4 1508.8,390.4 1509,392 C1509.3,394.6 1510.3,398.7 1511,402 C1511.7,405.3 1512.7,409.1 1513,412 C1513.2,414.2 1513.0,415.5 1513,418 C1513.0,422.4 1513.0,430.5 1513,436 C1513.0,440.7 1513.0,445.9 1513,449 C1513.0,450.7 1513.0,451.7 1513,453 C1531.7,427.7 1545.9,397.5 1569,377 C1592.2,356.4 1622.4,337.8 1652,330 C1681.4,322.3 1714.7,330.0 1746,330 C1746.0,329.3 1746.0,328.9 1746,328 C1746.0,326.2 1746.3,322.6 1746,320 C1745.7,317.3 1744.3,314.7 1744,312 C1743.7,309.4 1744.0,306.7 1744,304 C1744.0,301.3 1743.6,298.4 1744,296 C1744.4,293.8 1745.6,292.2 1746,290 C1746.4,287.6 1745.4,284.6 1746,282 C1746.6,279.3 1749.0,276.7 1750,274 C1751.0,271.4 1750.9,268.4 1752,266 C1753.0,263.8 1754.7,262.2 1756,260 C1757.4,257.6 1758.3,254.4 1760,252 C1761.7,249.7 1764.2,247.8 1766,246 C1767.5,244.5 1768.5,243.3 1770,242 C1771.7,240.6 1774.0,239.3 1776,238 C1770.7,211.7 1755.8,182.0 1760,159 C1763.7,138.8 1782.0,123.7 1793,106 C1802.7,130.7 1813.0,165.1 1822,180 C1826.5,187.4 1830.7,190.0 1835,195 L1856,118 C1869.7,127.3 1890.4,131.5 1897,146 C1905.5,164.6 1887.7,200.7 1888,227 C1888.3,252.0 1894.6,275.1 1898,300 C1901.6,326.1 1918.5,360.8 1909,380 C1900.2,397.7 1869.0,402.7 1849,414 L1877,553Z" fill="#000000" stroke="#000000" stroke-width="4" fill-rule="evenodd" data-shape="11"/>
  </g>
</svg>