<svg xmlns="http://www.w3.org/2000/svg" xmlns:mdcr="http://sensory.com/mdcr" viewBox="0 0 2011 2012" width="2011" height="2012">
  <metadata>
    <mdcr:info xmlns:mdcr="http://sensory.com/mdcr">
      <mdcr:source format="WMF" generator="wmf2svg.js"/>
      <mdcr:bounds left="0" top="0" right="6009" bottom="4507" inch="1440"/>
      <mdcr:records count="11">
        <mdcr:record tag="MDCR-{"/>
        <mdcr:record tag="MDCR-{"/>
        <mdcr:record tag="MDCR-{"/>
        <mdcr:record tag="MDCR-}"/>
        <mdcr:record tag="MDCR-}"/>
        <mdcr:record tag="MDCR-{"/>
        <mdcr:record tag="MDCR-}"/>
        <mdcr:record tag="MDCR-{"/>
        <mdcr:record tag="MDCR-}"/>
        <mdcr:record tag="MDCR-S"/>
        <mdcr:record tag="MDCR-}"/>
      </mdcr:records>
    </mdcr:info>
  </metadata>
  <g data-mdcr="group" class="mdcr-region">
    <g data-mdcr="group" class="mdcr-region">
      
      <g data-mdcr="group" class="mdcr-region">
        <path d="M795,1622 L783,1712 C777.7,1710.3 772.0,1709.2 767,1707 C762.1,1704.8 757.9,1701.2 753,1699 C748.0,1696.8 741.7,1696.7 737,1694 C732.4,1691.3 729.0,1686.7 725,1683 C721.0,1679.3 716.0,1676.3 713,1672 C710.0,1667.7 708.0,1662.3 707,1657 C706.0,1651.6 705.8,1645.4 707,1640 C708.2,1634.7 710.4,1628.7 714,1625 C717.5,1621.4 723.0,1619.2 728,1618 C733.3,1616.8 739.3,1618.0 745,1618 C750.7,1618.0 756.3,1617.8 762,1618 C767.7,1618.2 773.4,1618.3 779,1619 C784.4,1619.7 789.7,1621.0 795,1622Z" fill="#00ff00" stroke="#000000" stroke-width="4" fill-rule="evenodd" data-shape="0"/>
        <path d="M1186,1569 L1224,1704 C1233.0,1706.7 1242.1,1711.9 1251,1712 C1259.7,1712.1 1269.1,1708.9 1277,1705 C1285.1,1701.0 1292.9,1694.8 1299,1688 C1305.2,1681.1 1310.0,1672.4 1314,1664 C1318.0,1655.7 1320.8,1646.9 1323,1638 C1325.2,1628.9 1326.9,1619.3 1327,1610 C1327.1,1600.9 1326.5,1591.5 1324,1583 C1321.5,1574.5 1318.5,1562.7 1312,1559 C1305.5,1555.3 1293.7,1558.9 1285,1561 C1276.1,1563.2 1267.4,1568.0 1259,1572 C1250.7,1576.0 1243.6,1582.5 1235,1585 C1226.3,1587.5 1215.2,1589.7 1207,1587 C1198.9,1584.3 1193.0,1575.0 1186,1569Z" fill="#00ff00" stroke="#000000" stroke-width="4" fill-rule="evenodd" data-shape="1"/>
        <path d="M1287,1634 L1283,1636 L1277,1640 L1271,1636 L1267,1634 L1263,1630 L1263,1628 L1263,1626 L1263,1622 L1263,1620 L1263,1618 L1263,1614 L1267,1612 L1271,1610 L1277,1610 L1283,1610 L1287,1612 L1289,1614 L1291,1618 L1291,1620 L1293,1622 L1291,1626 L1291,1628 L1289,1630Z" fill="#000000" stroke="#000000" stroke-width="4" fill-rule="evenodd" data-shape="2"/>
        <path d="M830,1713 C826.7,1721.3 823.9,1730.0 820,1738 C816.2,1746.0 811.3,1753.2 807,1761 C802.6,1768.9 797.8,1776.8 794,1785 C790.2,1793.1 785.7,1801.3 784,1810 C782.3,1818.7 783.0,1828.2 784,1837 C785.0,1845.6 785.0,1858.7 790,1862 C794.7,1865.1 805.8,1861.7 812,1858 C818.6,1854.0 823.1,1845.1 828,1838 C833.1,1830.8 838.0,1823.0 842,1815 C846.0,1807.0 849.0,1798.5 852,1790 C855.0,1781.5 857.5,1772.7 860,1764 C862.5,1755.4 864.3,1746.5 867,1738 C869.7,1729.5 873.0,1721.3 876,1713 L830,1713Z" fill="#00ff00" stroke="#000000" stroke-width="4" fill-rule="evenodd" data-shape="3"/>
        <path d="M1112,1713 C1111.3,1721.7 1110.2,1730.3 1110,1739 C1109.8,1747.7 1109.8,1756.5 1111,1765 C1112.2,1773.5 1114.3,1781.9 1117,1790 C1119.7,1798.2 1122.7,1806.4 1127,1814 C1131.4,1821.8 1137.2,1829.2 1143,1836 C1148.6,1842.5 1154.0,1850.7 1161,1854 C1167.5,1857.0 1176.9,1858.6 1183,1856 C1189.4,1853.3 1196.0,1844.2 1198,1837 C1200.1,1829.6 1197.1,1820.1 1195,1812 C1192.8,1803.8 1188.3,1796.0 1185,1788 C1181.7,1780.0 1177.7,1772.3 1175,1764 C1172.3,1755.6 1170.2,1746.6 1169,1738 C1167.9,1729.6 1168.3,1721.3 1168,1713 L1112,1713Z" fill="#00ff00" stroke="#000000" stroke-width="4" fill-rule="evenodd" data-shape="4"/>
        <path d="M782,1713 L1218,1713 C1213.0,1686.3 1209.8,1659.3 1203,1633 C1196.2,1606.6 1188.2,1579.7 1177,1555 C1165.9,1530.4 1152.8,1505.8 1136,1485 C1119.2,1464.1 1099.2,1441.8 1076,1430 C1053.1,1418.3 1024.1,1413.9 998,1414 C971.7,1414.1 942.2,1419.2 919,1431 C895.8,1442.8 876.0,1464.4 859,1485 C841.9,1505.7 828.3,1530.5 817,1555 C805.7,1579.5 796.8,1605.7 791,1632 C785.2,1658.4 785.0,1686.0 782,1713Z" fill="#008000" stroke="#000000" stroke-width="4" fill-rule="evenodd" data-shape="5"/>
      </g>
    </g>
    <g data-mdcr="group" class="mdcr-region">
      <path d="M598,603 L586,549 L179,549 C180.3,522.3 180.3,495.6 183,469 C185.7,442.3 189.3,415.3 195,389 C200.7,362.7 207.1,335.9 217,311 C226.8,286.2 238.4,261.3 254,240 C269.7,218.6 288.5,195.3 311,183 C333.2,170.8 363.0,163.7 388,166 C413.0,168.3 436.7,186.7 461,197 L516,156 C527.3,180.7 543.3,204.0 550,230 C556.8,256.3 548.9,286.7 556,313 C563.2,339.4 582.2,362.3 593,388 C603.8,413.7 613.2,440.2 621,467 C628.8,493.9 633.7,521.7 640,549 L634,549 L644,573 L642,573 L634,549 L586,549 L598,603Z" fill="#000000" stroke="#000000" stroke-width="4" fill-rule="evenodd" data-shape="6"/>
      <path d="M63,490 C57.3,496.0 50.5,501.0 46,508 C41.4,515.3 39.2,524.6 36,533 C32.8,541.3 30.0,549.7 27,558 C30.0,549.7 32.8,541.3 36,533 C39.2,524.6 41.2,515.2 46,508 C50.6,501.0 58.0,496.0 64,490 C69.0,496.7 75.0,502.6 79,510 C83.1,517.8 83.9,528.2 88,536 C92.0,543.4 96.5,553.5 103,556 C109.5,558.4 120.1,555.0 127,551 C134.2,546.9 139.3,538.0 145,531 C150.7,524.0 155.1,515.9 161,509 C166.8,502.2 173.7,496.3 180,490 C174.0,496.7 167.7,503.0 162,510 C156.3,517.0 151.9,525.1 146,532 C140.2,538.8 134.5,546.7 127,551 C119.5,555.3 107.5,560.7 101,558 C94.6,555.4 91.6,543.8 88,536 C84.2,527.9 83.3,517.8 79,510 C74.9,502.5 68.3,496.7 63,490Z" fill="#000000" stroke="#000000" stroke-width="4" fill-rule="evenodd" data-shape="7"/>
    </g>
    <g data-mdcr="group" class="mdcr-region">
      <path d="M848,412 L894,412 C891.7,420.7 889.4,429.4 887,438 C884.7,446.4 882.6,454.6 880,463 C877.3,471.6 874.2,480.6 871,489 C867.9,497.2 864.8,505.2 861,513 C857.2,520.9 853.0,528.8 848,536 C843.0,543.2 837.7,552.3 831,556 C825.1,559.3 815.8,561.9 811,559 C805.5,555.7 803.2,542.5 802,534 C800.9,525.5 802.0,516.3 804,508 C806.0,499.7 810.4,491.9 814,484 C817.7,475.9 821.6,467.7 826,460 C830.3,452.4 836.4,445.9 840,438 C843.7,429.9 845.3,420.7 848,412Z" fill="#000000" stroke="#000000" stroke-width="4" fill-rule="evenodd" data-shape="8"/>
      <path d="M1132,412 L1188,412 C1188.0,420.3 1186.9,428.7 1188,437 C1189.2,445.4 1192.2,453.8 1195,462 C1197.8,470.2 1201.6,478.1 1205,486 C1208.3,493.8 1212.8,500.9 1215,509 C1217.2,517.2 1220.3,527.6 1218,535 C1215.7,542.1 1208.5,550.4 1202,553 C1195.8,555.5 1186.4,554.1 1180,551 C1173.3,547.7 1168.3,539.4 1163,533 C1157.6,526.4 1152.3,519.5 1148,512 C1143.6,504.5 1139.8,496.2 1137,488 C1134.2,479.9 1132.5,471.5 1131,463 C1129.5,454.5 1127.8,445.6 1128,437 C1128.2,428.6 1130.7,420.3 1132,412Z" fill="#000000" stroke="#000000" stroke-width="4" fill-rule="evenodd" data-shape="9"/>
      <path d="M806,411 C805.3,411.0 804.3,411.3 804,411 C803.7,410.7 804.4,409.6 804,409 C803.1,407.9 798.9,407.6 796,407 C792.4,406.3 787.4,406.5 784,405 C780.9,403.7 778.8,400.3 776,399 C773.4,397.8 770.7,397.7 768,397 C765.3,396.3 762.3,396.3 760,395 C757.6,393.7 756.1,390.7 754,389 C752.1,387.4 750.0,386.3 748,385 C746.0,383.7 743.6,382.8 742,381 C740.2,379.0 739.7,374.7 738,373 C736.8,371.8 735.0,372.1 734,371 C732.8,369.7 732.7,366.8 732,365 C731.4,363.5 730.6,362.5 730,361 C729.3,359.2 728.3,356.8 728,355 C727.8,353.6 728.0,352.6 728,351 C728.0,348.8 728.0,345.5 728,343 C728.0,340.9 727.4,338.4 728,337 C728.4,336.0 729.4,335.9 730,335 C730.9,333.6 731.1,330.9 732,329 C733.0,326.9 734.8,324.4 736,323 C736.7,322.1 737.1,321.6 738,321 C739.4,320.1 742.2,319.7 744,319 C745.5,318.4 746.7,317.7 748,317 L796,317 C812.0,292.7 827.0,269.1 844,244 C862.5,216.8 878.3,182.1 903,160 C927.4,138.2 961.7,128.0 991,112 L1048,112 C1078.3,127.7 1114.1,137.0 1139,159 C1164.2,181.2 1173.1,226.4 1198,245 C1220.2,261.7 1251.5,262.1 1277,271 C1301.1,279.4 1323.7,288.3 1347,297 C1335.0,329.0 1332.0,382.7 1311,393 C1292.4,402.1 1259.7,377.0 1234,369 L1240,411 L806,411Z" fill="#000000" stroke="#000000" stroke-width="4" fill-rule="evenodd" data-shape="10"/>
    </g>
    <path d="M1877,553 L1489,553 L1487,551 L1497,491 C1480.3,471.3 1447.3,451.0 1447,432 C1446.8,414.7 1473.7,398.7 1487,382 C1487.0,381.3 1486.8,380.8 1487,380 C1487.3,378.9 1488.2,377.1 1489,376 C1489.6,375.2 1490.7,374.7 1491,374 C1491.3,373.4 1490.7,372.6 1491,372 C1491.3,371.3 1492.3,370.3 1493,370 C1493.6,369.7 1494.7,370.3 1495,370 C1495.3,369.7 1494.7,368.3 1495,368 C1495.3,367.7 1496.3,368.0 1497,368 C1497.7,368.0 1498.4,367.7 1499,368 C1499.7,368.3 1500.3,369.3 1501,370 C1501.7,370.7 1502.3,371.3 1503,372 C1503.7,372.7 1504.6,373.1 1505,374 C1505.4,375.0 1504.7,376.7 1505,378 C1505.3,379.4 1506.4,380.5 1507,382 C1507.7,383.8 1508.7,386.2 1509,388 C1509.2,389.4 1508.8,390.4 1509,392 C1509.3,394.6 1510.3,398.7 1511,402 C1511.7,405.3 1512.7,409.1 1513,412 C1513.2,414.2 1513.0,415.5 1513,418 C1513.0,422.4 1513.0,430.5 1513,436 C1513.0,440.7 1513.0,445.9 1513,449 C1513.0,450.7 1513.0,451.7 1513,453 C1531.7,427.7 1545.9,397.5 1569,377 C1592.2,356.4 1622.4,337.8 1652,330 C1681.4,322.3 1714.7,330.0 1746,330 C1746.0,329.3 1746.0,328.9 1746,328 C1746.0,326.2 1746.3,322.6 1746,320 C1745.7,317.3 1744.3,314.7 1744,312 C1743.7,309.4 1744.0,306.7 1744,304 C1744.0,301.3 1743.6,298.4 1744,296 C1744.4,293.8 1745.6,292.2 1746,290 C1746.4,287.6 1745.4,284.6 1746,282 C1746.6,279.3 1749.0,276.7 1750,274 C1751.0,271.4 1750.9,268.4 1752,266 C1753.0,263.8 1754.7,262.2 1756,260 C1757.4,257.6 1758.3,254.4 1760,252 C1761.7,249.7 1764.2,247.8 1766,246 C1767.5,244.5 1768.5,243.3 1770,242 C1771.7,240.6 1774.0,239.3 1776,238 C1770.7,211.7 1755.8,182.0 1760,159 C1763.7,138.8 1782.0,123.7 1793,106 C1802.7,130.7 1813.0,165.1 1822,180 C1826.5,187.4 1830.7,190.0 1835,195 L1856,118 C1869.7,127.3 1890.4,131.5 1897,146 C1905.5,164.6 1887.7,200.7 1888,227 C1888.3,252.0 1894.6,275.1 1898,300 C1901.6,326.1 1918.5,360.8 1909,380 C1900.2,397.7 1869.0,402.7 1849,414 L1877,553Z" fill="#000000" stroke="#000000" stroke-width="1" fill-rule="evenodd" data-shape="11"/>
  </g>
</svg>