<svg xmlns="http://www.w3.org/2000/svg" xmlns:mdcr="http://sensory.com/mdcr" viewBox="0 0 2011 2012" width="2011" height="2012">
  <metadata>
    <mdcr:info xmlns:mdcr="http://sensory.com/mdcr">
      <mdcr:source format="WMF" generator="wmf2svg.js"/>
      <mdcr:bounds left="0" top="0" right="6009" bottom="4507" inch="1440"/>
      <mdcr:records count="11">
        <mdcr:record tag="MDCR-{"/>
        <mdcr:record tag="MDCR-{"/>
        <mdcr:record tag="MDCR-{"/>
        <mdcr:record tag="MDCR-}"/>
        <mdcr:record tag="MDCR-}"/>
        <mdcr:record tag="MDCR-{"/>
        <mdcr:record tag="MDCR-}"/>
        <mdcr:record tag="MDCR-{"/>
        <mdcr:record tag="MDCR-}"/>
        <mdcr:record tag="MDCR-S"/>
        <mdcr:record tag="MDCR-}"/>
      </mdcr:records>
    </mdcr:info>
  </metadata>
  <g data-mdcr="group" class="mdcr-region">
    <g data-mdcr="group" class="mdcr-region">
      
      <g data-mdcr="group" class="mdcr-region">
        <path d="M795,1622 L783,1712 C777.7,1710.3 772.0,1709.2 767,1707 C762.1,1704.8 757.9,1701.2 753,1699 C748.0,1696.8 741.7,1696.7 737,1694 C732.4,1691.3 729.0,1686.7 725,1683 C721.0,1679.3 716.0,1676.3 713,1672 C710.0,1667.7 708.0,1662.3 707,1657 C706.0,1651.6 705.8,1645.4 707,1640 C708.2,1634.7 710.4,1628.7 714,1625 C717.5,1621.4 723.0,1619.2 728,1618 C733.3,1616.8 739.3,1618.0 745,1618 C750.7,1618.0 756.3,1617.8 762,1618 C767.7,1618.2 773.4,1618.3 779,1619 C784.4,1619.7 789.7,1621.0 795,1622Z" fill="#00ff00" stroke="#000000" stroke-width="4" fill-rule="evenodd" data-shape="0"/>
        <path d="M1186,1569 L1224,1704 C1233.0,1706.7 1242.1,1711.9 1251,1712 C1259.7,1712.1 1269.1,1708.9 1277,1705 C1285.1,1701.0 1292.9,1694.8 1299,1688 C1305.2,1681.1 1310.0,1672.4 1314,1664 C1318.0,1655.7 1320.8,1646.9 1323,1638 C1325.2,1628.9 1326.9,1619.3 1327,1610 C1327.1,1600.9 1326.5,1591.5 1324,1583 C1321.5,1574.5 1318.5,1562.7 1312,1559 C1305.5,1555.3 1293.7,1558.9 1285,1561 C1276.1,1563.2 1267.4,1568.0 1259,1572 C1250.7,1576.0 1243.6,1582.5 1235,1585 C1226.3,1587.5 1215.2,1589.7 1207,1587 C1198.9,1584.3 1193.0,1575.0 1186,1569Z" fill="#00ff00" stroke="#000000" stroke-width="4" fill-rule="evenodd" data-shape="1"/>
        <path d="M1287,1634 L1283,1636 L1277,1640 L1271,1636 L1267,1634 L1263,1630 L1263,1628 L1263,1626 L1263,1622 L1263,1620 L1263,1618 L1263,1614 L1267,1612 L1271,1610 L1277,1610 L1283,1610 L1287,1612 L1289,1614 L1291,1618 L1291,1620 L1293,1622 L1291,1626 L1291,1628 L1289,1630Z" fill="#000000" stroke="#000000" stroke-width="4" fill-rule="evenodd" data-shape="2"/>
        <path d="M830,1713 C826.7,1721.3 823.9,1730.0 820,1738 C816.2,1746.0 811.3,1753.2 807,1761 C802.6,1768.9 797.8,1776.8 794,1785 C790.2,1793.1 785.7,1801.3 784,1810 C782.3,1818.7 783.0,1828.2 784,1837 C785.0,1845.6 785.0,1858.7 790,1862 C794.7,1865.1 805.8,1861.7 812,1858 C818.6,1854.0 823.1,1845.1 828,1838 C833.1,1830.8 838.0,1823.0 842,1815 C846.0,1807.0 849.0,1798.5 852,1790 C855.0,1781.5 857.5,1772.7 860,1764 C862.5,1755.4 864.3,1746.5 867,1738 C869.7,1729.5 873.0,1721.3 876,1713 L830,1713Z" fill="#00ff00" stroke="#000000" stroke-width="4" fill-rule="evenodd" data-shape="3"/>
        <path d="M1112,1713 C1111.3,1721.7 1110.2,1730.3 1110,1739 C1109.8,1747.7 1109.8,1756.5 1111,1765 C1112.2,1773.5 1114.3,1781.9 1117,1790 C1119.7,1798.2 1122.7,1806.4 1127,1814 C1131.4,1821.8 1137.2,1829.2 1143,1836 C1148.6,1842.5 1154.0,1850.7 1161,1854 C1167.5,1857.0 1176.9,1858.6 1183,1856 C1189.4,1853.3 1196.0,1844.2 1198,1837 C1200.1,1829.6 1197.1,1820.1 1195,1812 C1192.8,1803.8 1188.3,1796.0 1185,1788 C1181.7,1780.0 1177.7,1772.3 1175,1764 C1172.3,1755.6 1170.2,1746.6 1169,1738 C1167.9,1729.6 1168.3,1721.3 1168,1713 L1112,1713Z" fill="#00ff00" stroke="#000000" stroke-width="4" fill-rule="evenodd" data-shape="4"/>
        <path d="M782,1713 L1218,1713 C1213.0,1686.3 1209.8,1659.3 1203,1633 C1196.2,1606.6 1188.2,1579.7 1177,1555 C1165.9,1530.4 1152.8,1505.8 1136,1485 C1119.2,1464.1 1099.2,1441.8 1076,1430 C1053.1,1418.3 1024.1,1413.9 998,1414 C971.7,1414.1 942.2,1419.2 919,1431 C895.8,1442.8 876.0,1464.4 859,1485 C841.9,1505.7 828.3,1530.5 817,1555 C805.7,1579.5 796.8,1605.7 791,1632 C785.2,1658.4 785.0,1686.0 782,1713Z" fill="#008000" stroke="#000000" stroke-width="4" fill-rule="evenodd" data-shape="5"/>
      </g>
    </g>
    <path d="M457,553 L69,553 L67,551 L77,491 C60.3,471.3 27.3,451.0 27,432 C26.8,414.7 53.7,398.7 67,382 C67.0,381.3 66.8,380.8 67,380 C67.3,378.9 68.2,377.1 69,376 C69.6,375.2 70.7,374.7 71,374 C71.3,373.4 70.7,372.6 71,372 C71.3,371.3 72.3,370.3 73,370 C73.6,369.7 74.7,370.3 75,370 C75.3,369.7 74.7,368.3 75,368 C75.3,367.7 76.3,368.0 77,368 C77.7,368.0 78.4,367.7 79,368 C79.7,368.3 80.3,369.3 81,370 C81.7,370.7 82.3,371.3 83,372 C83.7,372.7 84.6,373.1 85,374 C85.4,375.0 84.7,376.7 85,378 C85.3,379.4 86.4,380.5 87,382 C87.7,383.8 88.7,386.2 89,388 C89.2,389.4 88.8,390.4 89,392 C89.3,394.6 90.3,398.7 91,402 C91.7,405.3 92.7,409.1 93,412 C93.2,414.2 93.0,415.5 93,418 C93.0,422.4 93.0,430.5 93,436 C93.0,440.7 93.0,445.9 93,449 C93.0,450.7 93.0,451.7 93,453 C111.7,427.7 125.9,397.5 149,377 C172.2,356.4 202.4,337.8 232,330 C261.4,322.3 294.7,330.0 326,330 C326.0,329.3 326.0,328.9 326,328 C326.0,326.2 326.3,322.6 326,320 C325.7,317.3 324.3,314.7 324,312 C323.7,309.4 324.0,306.7 324,304 C324.0,301.3 323.6,298.4 324,296 C324.4,293.8 325.6,292.2 326,290 C326.4,287.6 325.4,284.6 326,282 C326.6,279.3 329.0,276.7 330,274 C331.0,271.4 330.9,268.4 332,266 C333.0,263.8 334.7,262.2 336,260 C337.4,257.6 338.3,254.4 340,252 C341.7,249.7 344.2,247.8 346,246 C347.5,244.5 348.5,243.3 350,242 C351.7,240.6 354.0,239.3 356,238 C350.7,211.7 335.8,182.0 340,159 C343.7,138.8 362.0,123.7 373,106 C382.7,130.7 393.0,165.1 402,180 C406.5,187.4 410.7,190.0 415,195 L436,118 C449.7,127.3 470.4,131.5 477,146 C485.5,164.6 467.7,200.7 468,227 C468.3,252.0 474.6,275.1 478,300 C481.6,326.1 498.5,360.8 489,380 C480.2,397.7 449.0,402.7 429,414 L457,553Z" fill="#000000" stroke="#000000" stroke-width="1" fill-rule="evenodd" data-shape="6"/>
    <g data-mdcr="group" class="mdcr-region">
      <path d="M750,401 L796,401 C793.7,409.7 791.4,418.4 789,427 C786.7,435.4 784.6,443.6 782,452 C779.3,460.6 776.2,469.6 773,478 C769.9,486.2 766.8,494.2 763,502 C759.2,509.9 755.0,517.8 750,525 C745.0,532.2 739.7,541.3 733,545 C727.1,548.3 717.8,550.9 713,548 C707.5,544.7 705.2,531.5 704,523 C702.9,514.5 704.0,505.3 706,497 C708.0,488.7 712.4,480.9 716,473 C719.7,464.9 723.6,456.7 728,449 C732.3,441.4 738.4,434.9 742,427 C745.7,418.9 747.3,409.7 750,401Z" fill="#000000" stroke="#000000" stroke-width="4" fill-rule="evenodd" data-shape="7"/>
      <path d="M1034,401 L1090,401 C1090.0,409.3 1088.9,417.7 1090,426 C1091.2,434.4 1094.2,442.8 1097,451 C1099.8,459.2 1103.6,467.1 1107,475 C1110.3,482.8 1114.8,489.9 1117,498 C1119.2,506.2 1122.3,516.6 1120,524 C1117.7,531.1 1110.5,539.4 1104,542 C1097.8,544.5 1088.4,543.1 1082,540 C1075.3,536.7 1070.3,528.4 1065,522 C1059.6,515.4 1054.3,508.5 1050,501 C1045.6,493.5 1041.8,485.2 1039,477 C1036.2,468.9 1034.5,460.5 1033,452 C1031.5,443.5 1029.8,434.6 1030,426 C1030.2,417.6 1032.7,409.3 1034,401Z" fill="#000000" stroke="#000000" stroke-width="4" fill-rule="evenodd" data-shape="8"/>
      <path d="M708,400 C707.3,400.0 706.3,400.3 706,400 C705.7,399.7 706.4,398.6 706,398 C705.1,396.9 700.9,396.6 698,396 C694.4,395.3 689.4,395.5 686,394 C682.9,392.7 680.8,389.3 678,388 C675.4,386.8 672.7,386.7 670,386 C667.3,385.3 664.3,385.3 662,384 C659.6,382.7 658.1,379.7 656,378 C654.1,376.4 652.0,375.3 650,374 C648.0,372.7 645.6,371.8 644,370 C642.2,368.0 641.7,363.7 640,362 C638.8,360.8 637.0,361.1 636,360 C634.8,358.7 634.7,355.8 634,354 C633.4,352.5 632.6,351.5 632,350 C631.3,348.2 630.3,345.8 630,344 C629.8,342.6 630.0,341.6 630,340 C630.0,337.8 630.0,334.5 630,332 C630.0,329.9 629.4,327.4 630,326 C630.4,325.0 631.4,324.9 632,324 C632.9,322.6 633.1,319.9 634,318 C635.0,315.9 636.8,313.4 638,312 C638.7,311.1 639.1,310.6 640,310 C641.4,309.1 644.2,308.7 646,308 C647.5,307.4 648.7,306.7 650,306 L698,306 C714.0,281.7 729.0,258.1 746,233 C764.5,205.8 780.3,171.1 805,149 C829.4,127.2 863.7,117.0 893,101 L950,101 C980.3,116.7 1016.1,126.0 1041,148 C1066.2,170.2 1075.1,215.4 1100,234 C1122.2,250.7 1153.5,251.1 1179,260 C1203.1,268.4 1225.7,277.3 1249,286 C1237.0,318.0 1234.0,371.7 1213,382 C1194.4,391.1 1161.7,366.0 1136,358 L1142,400 L708,400Z" fill="#000000" stroke="#000000" stroke-width="4" fill-rule="evenodd" data-shape="9"/>
    </g>
    <g data-mdcr="group" class="mdcr-region">
      <path d="M1865,603 L1853,549 L1446,549 C1447.3,522.3 1447.3,495.6 1450,469 C1452.7,442.3 1456.3,415.3 1462,389 C1467.7,362.7 1474.1,335.9 1484,311 C1493.8,286.2 1505.4,261.3 1521,240 C1536.7,218.6 1555.5,195.3 1578,183 C1600.2,170.8 1630.0,163.7 1655,166 C1680.0,168.3 1703.7,186.7 1728,197 L1783,156 C1794.3,180.7 1810.3,204.0 1817,230 C1823.8,256.3 1815.9,286.7 1823,313 C1830.2,339.4 1849.2,362.3 1860,388 C1870.8,413.7 1880.2,440.2 1888,467 C1895.8,493.9 1900.7,521.7 1907,549 L1901,549 L1911,573 L1909,573 L1901,549 L1853,549 L1865,603Z" fill="#000000" stroke="#000000" stroke-width="4" fill-rule="evenodd" data-shape="10"/>
      <path d="M1330,490 C1324.3,496.0 1317.5,501.0 1313,508 C1308.4,515.3 1306.2,524.6 1303,533 C1299.8,541.3 1297.0,549.7 1294,558 C1297.0,549.7 1299.8,541.3 1303,533 C1306.2,524.6 1308.2,515.2 1313,508 C1317.6,501.0 1325.0,496.0 1331,490 C1336.0,496.7 1342.0,502.6 1346,510 C1350.1,517.8 1350.9,528.2 1355,536 C1359.0,543.4 1363.5,553.5 1370,556 C1376.5,558.4 1387.1,555.0 1394,551 C1401.2,546.9 1406.3,538.0 1412,531 C1417.7,524.0 1422.1,515.9 1428,509 C1433.8,502.2 1440.7,496.3 1447,490 C1441.0,496.7 1434.7,503.0 1429,510 C1423.3,517.0 1418.9,525.1 1413,532 C1407.2,538.8 1401.5,546.7 1394,551 C1386.5,555.3 1374.5,560.7 1368,558 C1361.6,555.4 1358.6,543.8 1355,536 C1351.2,527.9 1350.3,517.8 1346,510 C1341.9,502.5 1335.3,496.7 1330,490Z" fill="#000000" stroke="#000000" stroke-width="4" fill-rule="evenodd" data-shape="11"/>
    </g>
  </g>
</svg>