<svg xmlns="http://www.w3.org/2000/svg" xmlns:mdcr="http://sensory.com/mdcr" viewBox="0 0 2011 2012" width="2011" height="2012">
  <metadata>
    <mdcr:info xmlns:mdcr="http://sensory.com/mdcr">
      <mdcr:source format="WMF" generator="wmf2svg.js"/>
      <mdcr:bounds left="0" top="0" right="6009" bottom="4507" inch="1440"/>
      <mdcr:records count="11">
        <mdcr:record tag="MDCR-{"/>
        <mdcr:record tag="MDCR-{"/>
        <mdcr:record tag="MDCR-{"/>
        <mdcr:record tag="MDCR-}"/>
        <mdcr:record tag="MDCR-}"/>
        <mdcr:record tag="MDCR-{"/>
        <mdcr:record tag="MDCR-}"/>
        <mdcr:record tag="MDCR-{"/>
        <mdcr:record tag="MDCR-}"/>
        <mdcr:record tag="MDCR-S"/>
        <mdcr:record tag="MDCR-}"/>
      </mdcr:records>
    </mdcr:info>
  </metadata>
  <g data-mdcr="group" class="mdcr-region">
    <g data-mdcr="group" class="mdcr-region">
      
      <g data-mdcr="group" class="mdcr-region">
        <path d="M846,1798 L860,1784 C863.0,1790.3 867.0,1796.3 869,1803 C871.1,1809.9 871.2,1817.6 872,1825 C872.8,1832.6 874.0,1840.4 874,1848 C874.0,1855.4 873.0,1862.7 872,1870 C871.0,1877.4 871.0,1885.5 868,1892 C865.0,1898.5 859.7,1907.5 854,1909 C848.4,1910.4 838.5,1905.8 834,1901 C829.4,1896.2 830.6,1886.1 827,1880 C823.5,1874.1 816.2,1870.9 813,1865 C809.8,1858.9 807.2,1850.6 808,1844 C808.7,1837.6 815.5,1832.5 817,1826 C818.6,1819.2 815.0,1810.7 817,1804 C819.0,1797.4 825.0,1792.0 829,1786 L846,1798Z" fill="#dddddd" stroke="#000000" stroke-width="4" fill-rule="evenodd" data-shape="0"/>
        <path d="M854,1909 C847.3,1906.3 838.5,1905.8 834,1901 C829.4,1896.2 830.6,1886.1 827,1880 C823.5,1874.1 816.2,1870.9 813,1865 C809.8,1858.9 807.2,1850.6 808,1844 C808.7,1837.6 815.5,1832.5 817,1826 C818.6,1819.2 815.0,1810.7 817,1804 C819.0,1797.4 825.0,1792.0 829,1786 L846,1798 L860,1784 C863.0,1790.3 867.0,1796.3 869,1803 C871.1,1809.9 871.2,1817.6 872,1825 C872.8,1832.6 874.0,1840.4 874,1848 C874.0,1855.4 873.0,1862.7 872,1870 C871.0,1877.4 871.0,1885.5 868,1892 C865.0,1898.5 858.7,1903.3 854,1909" fill="none" stroke="#000000" stroke-width="4"/>
        <path d="M1237,1673 C1231.7,1681.1 1221.4,1693.7 1215,1693 C1208.8,1692.3 1202.3,1678.6 1199,1670 C1195.5,1661.0 1195.7,1650.1 1195,1640 C1194.3,1629.8 1194.0,1619.3 1195,1609 C1196.0,1598.6 1198.6,1588.1 1201,1578 C1203.3,1568.1 1205.2,1558.2 1209,1549 C1212.8,1539.8 1216.9,1526.9 1224,1523 C1230.3,1519.5 1242.7,1519.7 1248,1524 C1254.0,1528.8 1254.3,1543.2 1256,1553 C1257.7,1562.8 1258.2,1572.9 1258,1583 C1257.8,1593.3 1256.8,1603.8 1255,1614 C1253.2,1624.2 1250.0,1634.1 1247,1644 C1244.0,1653.8 1242.4,1664.8 1237,1673Z" fill="#dddddd" stroke="#000000" stroke-width="4" fill-rule="evenodd" data-shape="1"/>
        <path d="M1237,1673 L1215,1693 C1209.7,1685.3 1202.3,1678.6 1199,1670 C1195.5,1661.0 1195.7,1650.1 1195,1640 C1194.3,1629.8 1194.0,1619.3 1195,1609 C1196.0,1598.6 1198.6,1588.1 1201,1578 C1203.3,1568.1 1205.2,1558.2 1209,1549 C1212.8,1539.8 1216.9,1526.9 1224,1523 C1230.3,1519.5 1242.7,1519.7 1248,1524 C1254.0,1528.8 1254.3,1543.2 1256,1553 C1257.7,1562.8 1258.2,1572.9 1258,1583 C1257.8,1593.3 1256.8,1603.8 1255,1614 C1253.2,1624.2 1250.0,1634.1 1247,1644 C1244.0,1653.8 1240.3,1663.3 1237,1673" fill="none" stroke="#000000" stroke-width="4"/>
        <path d="M1184,1654 C1181.8,1663.4 1179.4,1677.6 1173,1681 C1167.0,1684.2 1154.3,1680.8 1148,1676 C1141.3,1670.9 1138.5,1659.1 1135,1650 C1131.5,1640.8 1129.2,1630.8 1127,1621 C1124.8,1611.1 1122.8,1601.0 1122,1591 C1121.2,1581.0 1121.3,1570.9 1122,1561 C1122.7,1551.2 1121.7,1539.6 1126,1532 C1130.0,1524.9 1139.6,1515.5 1146,1516 C1152.7,1516.5 1160.2,1528.9 1165,1537 C1170.0,1545.5 1172.2,1556.3 1175,1566 C1177.8,1575.6 1180.2,1585.3 1182,1595 C1183.8,1604.6 1185.7,1614.2 1186,1624 C1186.3,1633.9 1186.2,1644.4 1184,1654Z" fill="#dddddd" stroke="#000000" stroke-width="4" fill-rule="evenodd" data-shape="2"/>
        <path d="M1184,1654 C1180.3,1663.0 1179.4,1677.6 1173,1681 C1167.0,1684.2 1154.3,1680.8 1148,1676 C1141.3,1670.9 1138.5,1659.1 1135,1650 C1131.5,1640.8 1129.2,1630.8 1127,1621 C1124.8,1611.1 1122.8,1601.0 1122,1591 C1121.2,1581.0 1121.3,1570.9 1122,1561 C1122.7,1551.2 1121.7,1539.6 1126,1532 C1130.0,1524.9 1139.6,1515.5 1146,1516 C1152.7,1516.5 1160.2,1528.9 1165,1537 C1170.0,1545.5 1172.2,1556.3 1175,1566 C1177.8,1575.6 1180.2,1585.3 1182,1595 C1183.8,1604.6 1185.7,1614.2 1186,1624 C1186.3,1633.9 1184.7,1644.0 1184,1654" fill="none" stroke="#000000" stroke-width="4"/>
        <polyline points="1205,1969 1197,1957" fill="none" stroke="#000000" stroke-width="4"/>
        <path d="M1258,1821 C1250.8,1828.2 1237.6,1832.6 1227,1833 C1216.2,1833.4 1204.7,1827.3 1194,1823 C1183.1,1818.6 1172.0,1813.3 1162,1807 C1152.0,1800.7 1142.0,1793.4 1134,1785 C1126.1,1776.7 1118.5,1767.4 1114,1757 C1109.4,1746.4 1107.3,1733.7 1107,1722 C1106.7,1710.4 1107.9,1697.8 1112,1687 C1116.2,1676.1 1123.7,1665.1 1132,1657 C1140.1,1649.2 1150.3,1642.0 1161,1639 C1172.0,1635.9 1185.9,1635.9 1197,1639 C1207.9,1642.0 1218.8,1649.0 1227,1657 C1235.2,1665.0 1240.3,1676.7 1246,1687 C1251.7,1697.3 1257.3,1707.9 1261,1719 C1264.7,1730.2 1266.5,1742.3 1268,1754 C1269.5,1765.6 1271.7,1777.8 1270,1789 C1268.3,1800.1 1265.3,1813.7 1258,1821Z" fill="#dddddd" stroke="#000000" stroke-width="4" fill-rule="evenodd" data-shape="3"/>
        <path d="M1258,1821 C1247.7,1825.0 1237.6,1832.6 1227,1833 C1216.2,1833.4 1204.7,1827.3 1194,1823 C1183.1,1818.6 1172.0,1813.3 1162,1807 C1152.0,1800.7 1142.0,1793.4 1134,1785 C1126.1,1776.7 1118.5,1767.4 1114,1757 C1109.4,1746.4 1107.3,1733.7 1107,1722 C1106.7,1710.4 1107.9,1697.8 1112,1687 C1116.2,1676.1 1123.7,1665.1 1132,1657 C1140.1,1649.2 1150.3,1642.0 1161,1639 C1172.0,1635.9 1185.9,1635.9 1197,1639 C1207.9,1642.0 1218.8,1649.0 1227,1657 C1235.2,1665.0 1240.3,1676.7 1246,1687 C1251.7,1697.3 1257.3,1707.9 1261,1719 C1264.7,1730.2 1266.5,1742.3 1268,1754 C1269.5,1765.6 1271.7,1777.8 1270,1789 C1268.3,1800.1 1262.0,1810.3 1258,1821" fill="none" stroke="#000000" stroke-width="4"/>
        <path d="M850,1969 L1238,1969 C1235.7,1946.7 1235.4,1923.9 1231,1902 C1226.7,1880.2 1221.5,1857.8 1212,1838 C1202.5,1818.2 1189.8,1797.9 1174,1783 C1158.4,1768.3 1138.2,1756.2 1118,1749 C1097.6,1741.8 1073.7,1738.8 1052,1740 C1030.4,1741.2 1008.1,1747.6 988,1756 C967.8,1764.5 947.8,1776.7 931,1791 C914.1,1805.3 898.8,1823.3 887,1842 C875.2,1860.6 866.2,1881.8 860,1903 C853.8,1924.2 853.3,1947.0 850,1969Z" fill="#dddddd" stroke="#000000" stroke-width="4" fill-rule="evenodd" data-shape="4"/>
        <path d="M850,1969 L1238,1969 C1235.7,1946.7 1235.4,1923.9 1231,1902 C1226.7,1880.2 1221.5,1857.8 1212,1838 C1202.5,1818.2 1189.8,1797.9 1174,1783 C1158.4,1768.3 1138.2,1756.2 1118,1749 C1097.6,1741.8 1073.7,1738.8 1052,1740 C1030.4,1741.2 1008.1,1747.6 988,1756 C967.8,1764.5 947.8,1776.7 931,1791 C914.1,1805.3 898.8,1823.3 887,1842 C875.2,1860.6 866.2,1881.8 860,1903 C853.8,1924.2 853.3,1947.0 850,1969" fill="none" stroke="#000000" stroke-width="4"/>
        <path d="M1222,1722 L1222,1724 L1220,1726 L1218,1726 L1218,1728 L1216,1726 L1214,1724 L1214,1722 L1212,1720 L1212,1718 L1212,1714 L1212,1712 L1212,1710 L1212,1706 L1212,1704 L1214,1702 L1214,1700 L1216,1698 L1218,1698 L1220,1698 L1222,1700 L1222,1702 L1224,1704 L1224,1706 L1226,1710 L1226,1712 L1226,1714 L1224,1718 L1224,1720Z" fill="#000000" stroke="#000000" stroke-width="4" fill-rule="evenodd" data-shape="5"/>
        <path d="M1222,1722 L1222,1724 L1220,1726 L1218,1726 L1218,1728 L1216,1726 L1214,1724 L1214,1722 L1212,1720 L1212,1718 L1212,1714 L1212,1712 L1212,1710 L1212,1706 L1212,1704 L1214,1702 L1214,1700 L1216,1698 L1218,1698 L1220,1698 L1222,1700 L1222,1702 L1224,1704 L1224,1706 L1226,1710 L1226,1712 L1226,1714 L1224,1718 L1224,1720 L1222,1722" fill="none" stroke="#000000" stroke-width="4"/>
      </g>
    </g>
    <path d="M446,553 L58,553 L56,551 L66,491 C49.3,471.3 16.3,451.0 16,432 C15.8,414.7 42.7,398.7 56,382 C56.0,381.3 55.8,380.8 56,380 C56.3,378.9 57.2,377.1 58,376 C58.6,375.2 59.7,374.7 60,374 C60.3,373.4 59.7,372.6 60,372 C60.3,371.3 61.3,370.3 62,370 C62.6,369.7 63.7,370.3 64,370 C64.3,369.7 63.7,368.3 64,368 C64.3,367.7 65.3,368.0 66,368 C66.7,368.0 67.4,367.7 68,368 C68.7,368.3 69.3,369.3 70,370 C70.7,370.7 71.3,371.3 72,372 C72.7,372.7 73.6,373.1 74,374 C74.4,375.0 73.7,376.7 74,378 C74.3,379.4 75.4,380.5 76,382 C76.7,383.8 77.7,386.2 78,388 C78.2,389.4 77.8,390.4 78,392 C78.3,394.6 79.3,398.7 80,402 C80.7,405.3 81.7,409.1 82,412 C82.2,414.2 82.0,415.5 82,418 C82.0,422.4 82.0,430.5 82,436 C82.0,440.7 82.0,445.9 82,449 C82.0,450.7 82.0,451.7 82,453 C100.7,427.7 114.9,397.5 138,377 C161.2,356.4 191.4,337.8 221,330 C250.4,322.3 283.7,330.0 315,330 C315.0,329.3 315.0,328.9 315,328 C315.0,326.2 315.3,322.6 315,320 C314.7,317.3 313.3,314.7 313,312 C312.7,309.4 313.0,306.7 313,304 C313.0,301.3 312.6,298.4 313,296 C313.4,293.8 314.6,292.2 315,290 C315.4,287.6 314.4,284.6 315,282 C315.6,279.3 318.0,276.7 319,274 C320.0,271.4 319.9,268.4 321,266 C322.0,263.8 323.7,262.2 325,260 C326.4,257.6 327.3,254.4 329,252 C330.7,249.7 333.2,247.8 335,246 C336.5,244.5 337.5,243.3 339,242 C340.7,240.6 343.0,239.3 345,238 C339.7,211.7 324.8,182.0 329,159 C332.7,138.8 351.0,123.7 362,106 C371.7,130.7 382.0,165.1 391,180 C395.5,187.4 399.7,190.0 404,195 L425,118 C438.7,127.3 459.4,131.5 466,146 C474.5,164.6 456.7,200.7 457,227 C457.3,252.0 463.6,275.1 467,300 C470.6,326.1 487.5,360.8 478,380 C469.2,397.7 438.0,402.7 418,414 L446,553Z" fill="#000000" stroke="#000000" stroke-width="1" fill-rule="evenodd" data-shape="6"/>
    <g data-mdcr="group" class="mdcr-region">
      <path d="M739,401 L785,401 C782.7,409.7 780.4,418.4 778,427 C775.7,435.4 773.6,443.6 771,452 C768.3,460.6 765.2,469.6 762,478 C758.9,486.2 755.8,494.2 752,502 C748.2,509.9 744.0,517.8 739,525 C734.0,532.2 728.7,541.3 722,545 C716.1,548.3 706.8,550.9 702,548 C696.5,544.7 694.2,531.5 693,523 C691.9,514.5 693.0,505.3 695,497 C697.0,488.7 701.4,480.9 705,473 C708.7,464.9 712.6,456.7 717,449 C721.3,441.4 727.4,434.9 731,427 C734.7,418.9 736.3,409.7 739,401Z" fill="#000000" stroke="#000000" stroke-width="4" fill-rule="evenodd" data-shape="7"/>
      <path d="M1023,401 L1079,401 C1079.0,409.3 1077.9,417.7 1079,426 C1080.2,434.4 1083.2,442.8 1086,451 C1088.8,459.2 1092.6,467.1 1096,475 C1099.3,482.8 1103.8,489.9 1106,498 C1108.2,506.2 1111.3,516.6 1109,524 C1106.7,531.1 1099.5,539.4 1093,542 C1086.8,544.5 1077.4,543.1 1071,540 C1064.3,536.7 1059.3,528.4 1054,522 C1048.6,515.4 1043.3,508.5 1039,501 C1034.6,493.5 1030.8,485.2 1028,477 C1025.2,468.9 1023.5,460.5 1022,452 C1020.5,443.5 1018.8,434.6 1019,426 C1019.2,417.6 1021.7,409.3 1023,401Z" fill="#000000" stroke="#000000" stroke-width="4" fill-rule="evenodd" data-shape="8"/>
      <path d="M697,400 C696.3,400.0 695.3,400.3 695,400 C694.7,399.7 695.4,398.6 695,398 C694.1,396.9 689.9,396.6 687,396 C683.4,395.3 678.4,395.5 675,394 C671.9,392.7 669.8,389.3 667,388 C664.4,386.8 661.7,386.7 659,386 C656.3,385.3 653.3,385.3 651,384 C648.6,382.7 647.1,379.7 645,378 C643.1,376.4 641.0,375.3 639,374 C637.0,372.7 634.6,371.8 633,370 C631.2,368.0 630.7,363.7 629,362 C627.8,360.8 626.0,361.1 625,360 C623.8,358.7 623.7,355.8 623,354 C622.4,352.5 621.6,351.5 621,350 C620.3,348.2 619.3,345.8 619,344 C618.8,342.6 619.0,341.6 619,340 C619.0,337.8 619.0,334.5 619,332 C619.0,329.9 618.4,327.4 619,326 C619.4,325.0 620.4,324.9 621,324 C621.9,322.6 622.1,319.9 623,318 C624.0,315.9 625.8,313.4 627,312 C627.7,311.1 628.1,310.6 629,310 C630.4,309.1 633.2,308.7 635,308 C636.5,307.4 637.7,306.7 639,306 L687,306 C703.0,281.7 718.0,258.1 735,233 C753.5,205.8 769.3,171.1 794,149 C818.4,127.2 852.7,117.0 882,101 L939,101 C969.3,116.7 1005.1,126.0 1030,148 C1055.2,170.2 1064.1,215.4 1089,234 C1111.2,250.7 1142.5,251.1 1168,260 C1192.1,268.4 1214.7,277.3 1238,286 C1226.0,318.0 1223.0,371.7 1202,382 C1183.4,391.1 1150.7,366.0 1125,358 L1131,400 L697,400Z" fill="#000000" stroke="#000000" stroke-width="4" fill-rule="evenodd" data-shape="9"/>
    </g>
    <g data-mdcr="group" class="mdcr-region">
      <path d="M1865,603 L1853,549 L1446,549 C1447.3,522.3 1447.3,495.6 1450,469 C1452.7,442.3 1456.3,415.3 1462,389 C1467.7,362.7 1474.1,335.9 1484,311 C1493.8,286.2 1505.4,261.3 1521,240 C1536.7,218.6 1555.5,195.3 1578,183 C1600.2,170.8 1630.0,163.7 1655,166 C1680.0,168.3 1703.7,186.7 1728,197 L1783,156 C1794.3,180.7 1810.3,204.0 1817,230 C1823.8,256.3 1815.9,286.7 1823,313 C1830.2,339.4 1849.2,362.3 1860,388 C1870.8,413.7 1880.2,440.2 1888,467 C1895.8,493.9 1900.7,521.7 1907,549 L1901,549 L1911,573 L1909,573 L1901,549 L1853,549 L1865,603Z" fill="#000000" stroke="#000000" stroke-width="4" fill-rule="evenodd" data-shape="10"/>
      <path d="M1330,490 C1324.3,496.0 1317.5,501.0 1313,508 C1308.4,515.3 1306.2,524.6 1303,533 C1299.8,541.3 1297.0,549.7 1294,558 C1297.0,549.7 1299.8,541.3 1303,533 C1306.2,524.6 1308.2,515.2 1313,508 C1317.6,501.0 1325.0,496.0 1331,490 C1336.0,496.7 1342.0,502.6 1346,510 C1350.1,517.8 1350.9,528.2 1355,536 C1359.0,543.4 1363.5,553.5 1370,556 C1376.5,558.4 1387.1,555.0 1394,551 C1401.2,546.9 1406.3,538.0 1412,531 C1417.7,524.0 1422.1,515.9 1428,509 C1433.8,502.2 1440.7,496.3 1447,490 C1441.0,496.7 1434.7,503.0 1429,510 C1423.3,517.0 1418.9,525.1 1413,532 C1407.2,538.8 1401.5,546.7 1394,551 C1386.5,555.3 1374.5,560.7 1368,558 C1361.6,555.4 1358.6,543.8 1355,536 C1351.2,527.9 1350.3,517.8 1346,510 C1341.9,502.5 1335.3,496.7 1330,490Z" fill="#000000" stroke="#000000" stroke-width="4" fill-rule="evenodd" data-shape="11"/>
    </g>
  </g>
</svg>