<svg xmlns="http://www.w3.org/2000/svg" xmlns:mdcr="http://sensory.com/mdcr" viewBox="0 0 2011 2012" width="2011" height="2012">
  <metadata>
    <mdcr:info xmlns:mdcr="http://sensory.com/mdcr">
      <mdcr:source format="WMF" generator="wmf2svg.js"/>
      <mdcr:bounds left="0" top="0" right="6009" bottom="4507" inch="1440"/>
      <mdcr:records count="11">
        <mdcr:record tag="MDCR-{"/>
        <mdcr:record tag="MDCR-{"/>
        <mdcr:record tag="MDCR-{"/>
        <mdcr:record tag="MDCR-}"/>
        <mdcr:record tag="MDCR-}"/>
        <mdcr:record tag="MDCR-{"/>
        <mdcr:record tag="MDCR-}"/>
        <mdcr:record tag="MDCR-{"/>
        <mdcr:record tag="MDCR-}"/>
        <mdcr:record tag="MDCR-S"/>
        <mdcr:record tag="MDCR-}"/>
      </mdcr:records>
    </mdcr:info>
  </metadata>
  <g data-mdcr="group" class="mdcr-region">
    <g data-mdcr="group" class="mdcr-region">
      
      <g data-mdcr="group" class="mdcr-region">
        <path d="M898,1921 L1357,1921 C1351.0,1894.7 1346.5,1867.9 1339,1842 C1331.5,1816.2 1322.0,1790.9 1312,1766 C1302.0,1741.2 1291.6,1716.6 1279,1693 C1266.3,1669.2 1252.8,1644.9 1236,1624 C1219.4,1603.3 1200.7,1582.5 1179,1568 C1157.4,1553.5 1131.0,1539.3 1106,1537 C1081.0,1534.7 1051.2,1541.8 1029,1554 C1006.5,1566.3 987.5,1589.5 972,1611 C956.5,1632.5 945.7,1658.0 936,1683 C926.3,1708.0 919.8,1734.8 914,1761 C908.2,1787.1 903.7,1813.4 901,1840 C898.3,1866.7 899.0,1894.0 898,1921Z" fill="#bbbbbb" stroke="#000000" stroke-width="4" fill-rule="evenodd" data-shape="0"/>
        <path d="M898,1921 L1357,1921 C1351.0,1894.7 1346.5,1867.9 1339,1842 C1331.5,1816.2 1322.0,1790.9 1312,1766 C1302.0,1741.2 1291.6,1716.6 1279,1693 C1266.3,1669.2 1252.8,1644.9 1236,1624 C1219.4,1603.3 1200.7,1582.5 1179,1568 C1157.4,1553.5 1131.0,1539.3 1106,1537 C1081.0,1534.7 1051.2,1541.8 1029,1554 C1006.5,1566.3 987.5,1589.5 972,1611 C956.5,1632.5 945.7,1658.0 936,1683 C926.3,1708.0 919.8,1734.8 914,1761 C908.2,1787.1 903.7,1813.4 901,1840 C898.3,1866.7 899.0,1894.0 898,1921" fill="none" stroke="#000000" stroke-width="4"/>
        <path d="M898,1921 L1357,1921 C1351.0,1894.7 1346.5,1867.9 1339,1842 C1331.5,1816.2 1322.0,1790.9 1312,1766 C1302.0,1741.2 1291.6,1716.6 1279,1693 C1266.3,1669.2 1252.8,1644.9 1236,1624 C1219.4,1603.3 1200.7,1582.5 1179,1568 C1157.4,1553.5 1131.0,1539.3 1106,1537 C1081.0,1534.7 1051.2,1541.8 1029,1554 C1006.5,1566.3 987.5,1589.5 972,1611 C956.5,1632.5 945.7,1658.0 936,1683 C926.3,1708.0 919.8,1734.8 914,1761 C908.2,1787.1 903.7,1813.4 901,1840 C898.3,1866.7 899.0,1894.0 898,1921" fill="none" stroke="#000000" stroke-width="4"/>
        <path d="M1266,1710 C1267.3,1698.7 1269.0,1687.3 1270,1676 C1271.0,1664.7 1272.3,1653.4 1272,1642 C1271.7,1630.4 1269.5,1618.5 1268,1607 C1266.5,1595.8 1266.1,1584.7 1263,1574 C1259.8,1563.0 1255.8,1550.9 1249,1542 C1242.4,1533.3 1232.5,1522.7 1223,1521 C1213.8,1519.3 1200.3,1524.4 1193,1531 C1185.4,1537.8 1181.5,1551.1 1179,1562 C1176.5,1573.1 1177.1,1585.5 1178,1597 C1178.8,1608.2 1181.0,1619.2 1184,1630 C1187.0,1640.9 1192.0,1651.3 1196,1662 L1266,1710Z" fill="#bbbbbb" stroke="#000000" stroke-width="4" fill-rule="evenodd" data-shape="1"/>
        <path d="M1266,1710 C1267.3,1698.7 1269.0,1687.3 1270,1676 C1271.0,1664.7 1272.3,1653.4 1272,1642 C1271.7,1630.4 1269.5,1618.5 1268,1607 C1266.5,1595.8 1266.1,1584.7 1263,1574 C1259.8,1563.0 1255.8,1550.9 1249,1542 C1242.4,1533.3 1232.5,1522.7 1223,1521 C1213.8,1519.3 1200.3,1524.4 1193,1531 C1185.4,1537.8 1181.5,1551.1 1179,1562 C1176.5,1573.1 1177.1,1585.5 1178,1597 C1178.8,1608.2 1181.0,1619.2 1184,1630 C1187.0,1640.9 1192.0,1651.3 1196,1662 L1266,1710" fill="none" stroke="#000000" stroke-width="4"/>
        <path d="M1266,1710 C1267.3,1698.7 1269.0,1687.3 1270,1676 C1271.0,1664.7 1272.3,1653.4 1272,1642 C1271.7,1630.4 1269.5,1618.5 1268,1607 C1266.5,1595.8 1266.1,1584.7 1263,1574 C1259.8,1563.0 1255.8,1550.9 1249,1542 C1242.4,1533.3 1232.5,1522.7 1223,1521 C1213.8,1519.3 1200.3,1524.4 1193,1531 C1185.4,1537.8 1181.5,1551.1 1179,1562 C1176.5,1573.1 1177.1,1585.5 1178,1597 C1178.8,1608.2 1181.0,1619.2 1184,1630 C1187.0,1640.9 1192.0,1651.3 1196,1662" fill="none" stroke="#000000" stroke-width="4"/>
        <path d="M1287,1787 C1285.5,1789.1 1284.0,1791.7 1282,1793 C1280.0,1794.3 1277.3,1795.1 1275,1795 C1272.6,1794.9 1270.0,1793.4 1268,1792 C1266.0,1790.7 1264.5,1788.9 1263,1787 C1261.4,1785.0 1259.7,1782.5 1259,1780 C1258.3,1777.5 1259.0,1774.7 1259,1772 C1259.0,1769.3 1258.3,1766.5 1259,1764 C1259.7,1761.5 1261.4,1759.0 1263,1757 C1264.5,1755.1 1265.9,1753.0 1268,1752 C1270.2,1750.9 1273.4,1751.0 1276,1751 C1278.4,1751.0 1281.0,1750.9 1283,1752 C1285.1,1753.2 1286.5,1755.9 1288,1758 C1289.5,1760.2 1291.2,1762.5 1292,1765 C1292.8,1767.5 1293.2,1770.4 1293,1773 C1292.8,1775.4 1292.0,1777.7 1291,1780 C1290.0,1782.4 1288.5,1784.8 1287,1787Z" fill="#000000" stroke="#000000" stroke-width="4" fill-rule="evenodd" data-shape="2"/>
        <path d="M1287,1787 C1285.3,1789.0 1284.0,1791.7 1282,1793 C1280.0,1794.3 1277.3,1795.1 1275,1795 C1272.6,1794.9 1270.0,1793.4 1268,1792 C1266.0,1790.7 1264.5,1788.9 1263,1787 C1261.4,1785.0 1259.7,1782.5 1259,1780 C1258.3,1777.5 1259.0,1774.7 1259,1772 C1259.0,1769.3 1258.3,1766.5 1259,1764 C1259.7,1761.5 1261.4,1759.0 1263,1757 C1264.5,1755.1 1265.9,1753.0 1268,1752 C1270.2,1750.9 1273.4,1751.0 1276,1751 C1278.4,1751.0 1281.0,1750.9 1283,1752 C1285.1,1753.2 1286.5,1755.9 1288,1758 C1289.5,1760.2 1291.2,1762.5 1292,1765 C1292.8,1767.5 1293.2,1770.4 1293,1773 C1292.8,1775.4 1292.0,1777.7 1291,1780 C1290.0,1782.4 1288.3,1784.7 1287,1787" fill="none" stroke="#000000" stroke-width="4"/>
        <path d="M1287,1787 C1285.3,1789.0 1284.0,1791.7 1282,1793 C1280.0,1794.3 1277.3,1795.1 1275,1795 C1272.6,1794.9 1270.0,1793.4 1268,1792 C1266.0,1790.7 1264.5,1788.9 1263,1787 C1261.4,1785.0 1259.7,1782.5 1259,1780 C1258.3,1777.5 1259.0,1774.7 1259,1772 C1259.0,1769.3 1258.3,1766.5 1259,1764 C1259.7,1761.5 1261.4,1759.0 1263,1757 C1264.5,1755.1 1265.9,1753.0 1268,1752 C1270.2,1750.9 1273.4,1751.0 1276,1751 C1278.4,1751.0 1281.0,1750.9 1283,1752 C1285.1,1753.2 1286.5,1755.9 1288,1758 C1289.5,1760.2 1291.2,1762.5 1292,1765 C1292.8,1767.5 1293.2,1770.4 1293,1773 C1292.8,1775.4 1292.0,1777.7 1291,1780 C1290.0,1782.4 1288.3,1784.7 1287,1787" fill="none" stroke="#000000" stroke-width="4"/>
        <path d="M899,1860 C892.7,1866.3 885.9,1872.3 880,1879 C874.2,1885.6 869.8,1893.4 864,1900 C858.1,1906.7 852.3,1914.7 845,1919 C837.9,1923.2 827.4,1928.2 821,1926 C814.7,1923.8 810.8,1913.4 807,1906 C803.0,1898.2 802.1,1887.8 798,1880 C794.0,1872.6 788.0,1866.7 783,1860 C777.0,1865.3 769.8,1869.5 765,1876 C759.9,1883.0 757.2,1892.6 754,1901 C750.9,1909.3 748.7,1917.7 746,1926" fill="none" stroke="#000000" stroke-width="4"/>
        <polyline points="1319,1919 1309,1901" fill="none" stroke="#000000" stroke-width="4"/>
        <polyline points="1319,1836 1361,1944" fill="none" stroke="#000000" stroke-width="4"/>
        <polyline points="1299,1890 1317,1974" fill="none" stroke="#000000" stroke-width="4"/>
      </g>
    </g>
    <g data-mdcr="group" class="mdcr-region">
      <path d="M149,409 L195,409 C192.7,417.7 190.4,426.4 188,435 C185.7,443.4 183.6,451.6 181,460 C178.3,468.6 175.2,477.6 172,486 C168.9,494.2 165.8,502.2 162,510 C158.2,517.9 154.0,525.8 149,533 C144.0,540.2 138.7,549.3 132,553 C126.1,556.3 116.8,558.9 112,556 C106.5,552.7 104.2,539.5 103,531 C101.9,522.5 103.0,513.3 105,505 C107.0,496.7 111.4,488.9 115,481 C118.7,472.9 122.6,464.7 127,457 C131.3,449.4 137.4,442.9 141,435 C144.7,426.9 146.3,417.7 149,409Z" fill="#000000" stroke="#000000" stroke-width="4" fill-rule="evenodd" data-shape="3"/>
      <path d="M433,409 L489,409 C489.0,417.3 487.9,425.7 489,434 C490.2,442.4 493.2,450.8 496,459 C498.8,467.2 502.6,475.1 506,483 C509.3,490.8 513.8,497.9 516,506 C518.2,514.2 521.3,524.6 519,532 C516.7,539.1 509.5,547.4 503,550 C496.8,552.5 487.4,551.1 481,548 C474.3,544.7 469.3,536.4 464,530 C458.6,523.4 453.3,516.5 449,509 C444.6,501.5 440.8,493.2 438,485 C435.2,476.9 433.5,468.5 432,460 C430.5,451.5 428.8,442.6 429,434 C429.2,425.6 431.7,417.3 433,409Z" fill="#000000" stroke="#000000" stroke-width="4" fill-rule="evenodd" data-shape="4"/>
      <path d="M107,408 C106.3,408.0 105.3,408.3 105,408 C104.7,407.7 105.4,406.6 105,406 C104.1,404.9 99.9,404.6 97,404 C93.4,403.3 88.4,403.5 85,402 C81.9,400.7 79.8,397.3 77,396 C74.4,394.8 71.7,394.7 69,394 C66.3,393.3 63.3,393.3 61,392 C58.6,390.7 57.1,387.7 55,386 C53.1,384.4 51.0,383.3 49,382 C47.0,380.7 44.6,379.8 43,378 C41.2,376.0 40.7,371.7 39,370 C37.8,368.8 36.0,369.1 35,368 C33.8,366.7 33.7,363.8 33,362 C32.4,360.5 31.6,359.5 31,358 C30.3,356.2 29.3,353.8 29,352 C28.8,350.6 29.0,349.6 29,348 C29.0,345.8 29.0,342.5 29,340 C29.0,337.9 28.4,335.4 29,334 C29.4,333.0 30.4,332.9 31,332 C31.9,330.6 32.1,327.9 33,326 C34.0,323.9 35.8,321.4 37,320 C37.7,319.1 38.1,318.6 39,318 C40.4,317.1 43.2,316.7 45,316 C46.5,315.4 47.7,314.7 49,314 L97,314 C113.0,289.7 128.0,266.1 145,241 C163.5,213.8 179.3,179.1 204,157 C228.4,135.2 262.7,125.0 292,109 L349,109 C379.3,124.7 415.1,134.0 440,156 C465.2,178.2 474.1,223.4 499,242 C521.2,258.7 552.5,259.1 578,268 C602.1,276.4 624.7,285.3 648,294 C636.0,326.0 633.0,379.7 612,390 C593.4,399.1 560.7,374.0 535,366 L541,408 L107,408Z" fill="#000000" stroke="#000000" stroke-width="4" fill-rule="evenodd" data-shape="5"/>
    </g>
    <g data-mdcr="group" class="mdcr-region">
      <path d="M1262,603 L1250,549 L843,549 C844.3,522.3 844.3,495.6 847,469 C849.7,442.3 853.3,415.3 859,389 C864.7,362.7 871.1,335.9 881,311 C890.8,286.2 902.4,261.3 918,240 C933.7,218.6 952.5,195.3 975,183 C997.2,170.8 1027.0,163.7 1052,166 C1077.0,168.3 1100.7,186.7 1125,197 L1180,156 C1191.3,180.7 1207.3,204.0 1214,230 C1220.8,256.3 1212.9,286.7 1220,313 C1227.2,339.4 1246.2,362.3 1257,388 C1267.8,413.7 1277.2,440.2 1285,467 C1292.8,493.9 1297.7,521.7 1304,549 L1298,549 L1308,573 L1306,573 L1298,549 L1250,549 L1262,603Z" fill="#000000" stroke="#000000" stroke-width="4" fill-rule="evenodd" data-shape="6"/>
      <path d="M727,490 C721.3,496.0 714.5,501.0 710,508 C705.4,515.3 703.2,524.6 700,533 C696.8,541.3 694.0,549.7 691,558 C694.0,549.7 696.8,541.3 700,533 C703.2,524.6 705.2,515.2 710,508 C714.6,501.0 722.0,496.0 728,490 C733.0,496.7 739.0,502.6 743,510 C747.1,517.8 747.9,528.2 752,536 C756.0,543.4 760.5,553.5 767,556 C773.5,558.4 784.1,555.0 791,551 C798.2,546.9 803.3,538.0 809,531 C814.7,524.0 819.1,515.9 825,509 C830.8,502.2 837.7,496.3 844,490 C838.0,496.7 831.7,503.0 826,510 C820.3,517.0 815.9,525.1 810,532 C804.2,538.8 798.5,546.7 791,551 C783.5,555.3 771.5,560.7 765,558 C758.6,555.4 755.6,543.8 752,536 C748.2,527.9 747.3,517.8 743,510 C738.9,502.5 732.3,496.7 727,490Z" fill="#000000" stroke="#000000" stroke-width="4" fill-rule="evenodd" data-shape="7"/>
    </g>
    <path d="M1877,553 L1489,553 L1487,551 L1497,491 C1480.3,471.3 1447.3,451.0 1447,432 C1446.8,414.7 1473.7,398.7 1487,382 C1487.0,381.3 1486.8,380.8 1487,380 C1487.3,378.9 1488.2,377.1 1489,376 C1489.6,375.2 1490.7,374.7 1491,374 C1491.3,373.4 1490.7,372.6 1491,372 C1491.3,371.3 1492.3,370.3 1493,370 C1493.6,369.7 1494.7,370.3 1495,370 C1495.3,369.7 1494.7,368.3 1495,368 C1495.3,367.7 1496.3,368.0 1497,368 C1497.7,368.0 1498.4,367.7 1499,368 C1499.7,368.3 1500.3,369.3 1501,370 C1501.7,370.7 1502.3,371.3 1503,372 C1503.7,372.7 1504.6,373.1 1505,374 C1505.4,375.0 1504.7,376.7 1505,378 C1505.3,379.4 1506.4,380.5 1507,382 C1507.7,383.8 1508.7,386.2 1509,388 C1509.2,389.4 1508.8,390.4 1509,392 C1509.3,394.6 1510.3,398.7 1511,402 C1511.7,405.3 1512.7,409.1 1513,412 C1513.2,414.2 1513.0,415.5 1513,418 C1513.0,422.4 1513.0,430.5 1513,436 C1513.0,440.7 1513.0,445.9 1513,449 C1513.0,450.7 1513.0,451.7 1513,453 C1531.7,427.7 1545.9,397.5 1569,377 C1592.2,356.4 1622.4,337.8 1652,330 C1681.4,322.3 1714.7,330.0 1746,330 C1746.0,329.3 1746.0,328.9 1746,328 C1746.0,326.2 1746.3,322.6 1746,320 C1745.7,317.3 1744.3,314.7 1744,312 C1743.7,309.4 1744.0,306.7 1744,304 C1744.0,301.3 1743.6,298.4 1744,296 C1744.4,293.8 1745.6,292.2 1746,290 C1746.4,287.6 1745.4,284.6 1746,282 C1746.6,279.3 1749.0,276.7 1750,274 C1751.0,271.4 1750.9,268.4 1752,266 C1753.0,263.8 1754.7,262.2 1756,260 C1757.4,257.6 1758.3,254.4 1760,252 C1761.7,249.7 1764.2,247.8 1766,246 C1767.5,244.5 1768.5,243.3 1770,242 C1771.7,240.6 1774.0,239.3 1776,238 C1770.7,211.7 1755.8,182.0 1760,159 C1763.7,138.8 1782.0,123.7 1793,106 C1802.7,130.7 1813.0,165.1 1822,180 C1826.5,187.4 1830.7,190.0 1835,195 L1856,118 C1869.7,127.3 1890.4,131.5 1897,146 C1905.5,164.6 1887.7,200.7 1888,227 C1888.3,252.0 1894.6,275.1 1898,300 C1901.6,326.1 1918.5,360.8 1909,380 C1900.2,397.7 1869.0,402.7 1849,414 L1877,553Z" fill="#000000" stroke="#000000" stroke-width="4" fill-rule="evenodd" data-shape="8"/>
  </g>
</svg>