<svg xmlns="http://www.w3.org/2000/svg" xmlns:mdcr="http://sensory.com/mdcr" viewBox="0 0 2013 2014" width="2013" height="2014">
  <metadata>
    <mdcr:info xmlns:mdcr="http://sensory.com/mdcr">
      <mdcr:source format="WMF" generator="wmf2svg.js"/>
      <mdcr:bounds left="0" top="0" right="6015" bottom="4513" inch="1440"/>
      <mdcr:records count="8">
        <mdcr:record tag="MDCR-{"/>
        <mdcr:record tag="MDCR-{"/>
        <mdcr:record tag="MDCR-{"/>
        <mdcr:record tag="MDCR-S"/>
        <mdcr:record tag="MDCR-}"/>
        <mdcr:record tag="MDCR-}"/>
        <mdcr:record tag="MDCR-S"/>
        <mdcr:record tag="MDCR-}"/>
      </mdcr:records>
    </mdcr:info>
  </metadata>
  <g data-mdcr="group" class="mdcr-region">
    <g data-mdcr="group" class="mdcr-region">
      
      <g data-mdcr="group" class="mdcr-region">
        <path d="M870,1514 L866,1533 C861.3,1543.7 858.7,1556.0 852,1565 C845.3,1573.9 834.7,1579.7 826,1587 L812,1561 C810.0,1565.3 808.7,1569.3 806,1574 C802.5,1580.3 792.3,1587.4 792,1595 C791.7,1603.6 800.1,1617.2 808,1623 C815.8,1628.8 829.2,1631.8 839,1630 C849.2,1628.1 860.7,1619.4 868,1611 C875.3,1602.7 879.2,1590.8 883,1580 C886.9,1569.1 889.2,1557.5 891,1546 C892.8,1534.5 892.8,1522.7 894,1511 C895.2,1499.3 898.2,1487.6 898,1476 C897.8,1464.6 898.6,1446.3 893,1442 C888.8,1438.8 877.9,1440.0 874,1444 C868.8,1449.5 872.7,1467.3 872,1479 C871.3,1490.7 870.7,1502.3 870,1514Z" fill="#a0a0a4" stroke="#000000" stroke-width="4" fill-rule="evenodd" data-shape="0"/>
        <path d="M953,1701 L953,1874 C960.7,1882.7 968.0,1899.7 976,1900 C984.0,1900.3 992.7,1884.0 1001,1876 L1003,1775 L953,1701Z" fill="#a0a0a4" stroke="#000000" stroke-width="4" fill-rule="evenodd" data-shape="1"/>
        <path d="M1160,1734 L1162,1875 C1154.0,1881.3 1145.6,1894.5 1138,1894 C1130.3,1893.5 1123.3,1878.7 1116,1871 L1116,1784 L1160,1734Z" fill="#a0a0a4" stroke="#000000" stroke-width="4" fill-rule="evenodd" data-shape="2"/>
        <path d="M1187,1581 L1191,1597 L1197,1615 C1199.0,1621.7 1200.7,1628.5 1203,1635 C1205.3,1641.5 1208.0,1647.8 1211,1654 C1214.0,1660.2 1216.0,1668.7 1221,1672 C1225.8,1675.2 1236.7,1670.6 1240,1674 C1243.1,1677.2 1243.4,1686.7 1241,1691 C1238.6,1695.5 1230.1,1700.5 1225,1700 C1219.7,1699.5 1214.1,1692.2 1210,1687 C1205.7,1681.6 1202.8,1674.5 1200,1668 C1197.2,1661.5 1195.5,1654.5 1193,1648 C1190.5,1641.5 1187.7,1635.3 1185,1629 L1187,1581Z" fill="#a0a0a4" stroke="#000000" stroke-width="4" fill-rule="evenodd" data-shape="3"/>
        <path d="M972,1777 C987.0,1792.0 1013.1,1800.3 1035,1804 C1057.0,1807.7 1082.8,1805.7 1104,1799 C1124.7,1792.5 1147.5,1781.2 1161,1765 C1174.8,1748.4 1179.7,1722.2 1185,1700 C1190.3,1677.9 1193.0,1654.8 1193,1632 C1193.0,1609.1 1190.0,1585.4 1185,1563 C1180.0,1540.7 1173.7,1517.8 1163,1498 C1152.3,1478.2 1138.8,1456.3 1121,1444 C1103.4,1431.8 1077.7,1422.5 1057,1424 C1036.4,1425.5 1013.3,1438.8 997,1453 C980.5,1467.4 968.7,1489.5 959,1510 C949.3,1530.5 942.8,1553.5 939,1576 C935.2,1598.5 935.0,1622.0 936,1645 C937.0,1668.0 939.0,1691.9 945,1714 C951.0,1735.9 957.0,1762.0 972,1777Z" fill="#a0a0a4" stroke="#000000" stroke-width="4" fill-rule="evenodd" data-shape="4"/>
        <path d="M894,1557 C901.8,1570.1 914.8,1588.4 927,1590 C939.1,1591.6 956.6,1577.8 967,1567 C977.7,1555.9 984.3,1539.1 990,1524 C995.7,1508.8 998.8,1492.1 1001,1476 C1003.1,1460.1 1004.3,1443.8 1003,1428 C1001.7,1412.2 998.7,1395.7 993,1381 C987.3,1366.4 980.6,1348.3 969,1340 C957.7,1331.9 937.4,1326.8 925,1331 C912.3,1335.4 901.5,1353.4 894,1367 C886.5,1380.7 883.0,1397.3 880,1413 C877.0,1428.9 876.0,1445.8 876,1462 C876.0,1478.1 877.0,1494.2 880,1510 C883.0,1525.9 886.0,1543.6 894,1557Z" fill="#a0a0a4" stroke="#000000" stroke-width="4" fill-rule="evenodd" data-shape="5"/>
        <path d="M929,1562 C934.5,1575.5 944.1,1596.4 954,1598 C963.8,1599.5 978.8,1583.0 988,1572 C997.8,1560.3 1004.5,1543.9 1010,1529 C1015.5,1514.2 1018.2,1498.6 1021,1483 C1023.9,1467.2 1027.0,1450.9 1027,1435 C1027.0,1419.2 1024.7,1403.3 1021,1388 C1017.3,1372.6 1015.0,1351.9 1005,1343 C995.9,1334.9 976.4,1329.7 966,1334 C954.7,1338.7 947.5,1359.7 941,1374 C934.5,1388.4 930.3,1404.4 927,1420 C923.7,1435.4 922.0,1451.2 921,1467 C920.0,1482.9 919.7,1499.1 921,1515 C922.3,1530.8 923.3,1547.9 929,1562Z" fill="#a0a0a4" stroke="#000000" stroke-width="4" fill-rule="evenodd" data-shape="6"/>
        <path d="M890,1463 L892,1465 L892,1467 L894,1469 L896,1469 L898,1469 L900,1467 L900,1465 L902,1463 L904,1459 L904,1457 L904,1453 L906,1449 L904,1445 L904,1441 L904,1439 L902,1435 L900,1433 L900,1431 L898,1431 L896,1431 L894,1431 L892,1431 L892,1433 L890,1435 L888,1439 L888,1441 L888,1445 L888,1449 L888,1453 L888,1457 L888,1459Z" fill="#000000" stroke="#000000" stroke-width="4" fill-rule="evenodd" data-shape="7"/>
      </g>
    </g>
    <path d="M123,577 L139,496 L135,476 C134.3,476.7 133.7,477.3 133,478 C132.3,478.7 131.8,479.4 131,480 C129.9,480.8 128.1,481.2 127,482 C126.2,482.6 125.7,483.3 125,484 C124.3,484.7 123.7,485.7 123,486 C122.4,486.3 121.6,485.7 121,486 C120.3,486.3 119.7,487.7 119,488 C118.4,488.3 117.8,488.0 117,488 C115.7,488.0 113.2,488.5 112,488 C111.1,487.6 110.7,486.3 110,486 C109.4,485.7 108.7,486.0 108,486 C107.3,486.0 106.8,486.2 106,486 C104.9,485.7 103.0,485.0 102,484 C101.0,483.0 100.3,481.1 100,480 C99.8,479.2 100.0,478.7 100,478 C100.0,477.3 100.3,476.6 100,476 C99.7,475.3 98.4,474.9 98,474 C97.6,473.0 97.7,471.3 98,470 C98.3,468.6 99.7,467.1 100,466 C100.2,465.2 100.0,464.7 100,464 C100.0,463.3 99.7,462.6 100,462 C100.3,461.3 101.3,460.7 102,460 C102.7,459.3 103.4,458.8 104,458 C104.8,456.9 105.2,455.1 106,454 C106.6,453.2 107.3,452.7 108,452 C108.7,451.3 109.3,450.7 110,450 C90.3,444.3 63.4,446.0 51,433 C38.2,419.5 36.8,390.3 36,369 C35.2,348.0 42.7,327.0 46,306 L32,270 L63,280 L84,288 L106,280 L141,268 L123,312 L135,320 C135.7,318.7 136.4,317.5 137,316 C137.7,314.2 137.8,311.3 139,310 C140.0,308.9 142.0,309.0 143,308 C144.0,307.0 144.3,305.3 145,304 C145.7,302.7 146.4,301.1 147,300 C147.4,299.2 147.4,298.6 148,298 C148.8,297.2 150.9,296.8 152,296 C152.8,295.4 153.3,294.7 154,294 C154.7,293.3 155.3,292.7 156,292 C156.7,291.3 157.3,290.3 158,290 C158.6,289.7 159.3,290.0 160,290 C160.7,290.0 161.3,290.0 162,290 C162.7,290.0 163.2,290.0 164,290 C165.1,290.0 166.9,290.0 168,290 C168.8,290.0 169.3,290.0 170,290 C170.7,290.0 171.4,289.7 172,290 C172.7,290.3 173.3,291.3 174,292 C174.7,292.7 175.3,293.7 176,294 C176.6,294.3 177.4,293.6 178,294 C178.9,294.5 179.5,296.6 180,298 C180.5,299.3 180.5,300.7 181,302 C181.5,303.4 182.3,304.7 183,306 C183.7,307.3 184.6,308.5 185,310 C185.4,311.8 185.0,314.2 185,316 C185.0,317.5 185.0,318.7 185,320 C185.7,318.7 186.2,317.4 187,316 C188.1,314.2 189.8,311.4 191,310 C191.7,309.1 192.4,308.8 193,308 C193.8,306.9 194.3,305.3 195,304 C195.7,302.7 196.0,301.0 197,300 C198.0,299.0 199.9,298.8 201,298 C201.8,297.4 202.3,296.7 203,296 C203.7,295.3 204.3,294.7 205,294 C205.7,293.3 206.3,292.7 207,292 C207.7,291.3 208.3,290.3 209,290 C209.6,289.7 210.3,290.0 211,290 C211.7,290.0 212.4,290.0 213,290 C213.4,290.0 213.5,290.0 214,290 C215.2,290.0 218.5,290.0 220,290 C220.8,290.0 221.4,289.7 222,290 C222.7,290.3 223.3,291.3 224,292 C224.7,292.7 225.3,293.7 226,294 C226.6,294.3 227.4,293.6 228,294 C228.9,294.5 229.3,296.7 230,298 C230.7,299.3 231.3,300.7 232,302 C232.7,303.3 233.3,304.7 234,306 C234.7,307.3 235.4,308.5 236,310 C236.7,311.8 237.7,314.2 238,316 C238.2,317.4 238.0,318.7 238,320 C238.7,318.7 239.4,317.5 240,316 C240.7,314.2 241.1,311.4 242,310 C242.6,309.1 243.4,308.8 244,308 C244.8,306.9 245.2,305.3 246,304 C246.8,302.6 248.1,301.1 249,300 C249.7,299.2 250.3,298.7 251,298 C251.7,297.3 252.3,296.7 253,296 C253.7,295.3 254.3,294.7 255,294 C255.7,293.3 256.2,292.6 257,292 C258.1,291.2 259.9,290.3 261,290 C261.8,289.8 262.3,290.0 263,290 C263.7,290.0 264.3,290.0 265,290 C265.7,290.0 266.2,290.0 267,290 C268.1,290.0 269.9,290.0 271,290 C271.8,290.0 272.3,290.0 273,290 C273.7,290.0 274.4,289.7 275,290 C275.7,290.3 276.7,291.3 277,292 C277.3,292.6 276.7,293.7 277,294 C277.2,294.2 277.6,293.8 278,294 C279.0,294.4 281.0,296.6 282,298 C282.9,299.3 283.3,300.7 284,302 C284.7,303.3 285.3,304.7 286,306 C286.7,307.3 287.6,308.5 288,310 C288.4,311.8 288.0,314.2 288,316 C288.0,317.5 288.0,318.7 288,320 C288.7,318.7 289.4,317.5 290,316 C290.7,314.2 290.8,311.3 292,310 C293.0,308.9 295.0,309.0 296,308 C297.0,307.0 297.3,305.3 298,304 C298.7,302.7 299.2,301.1 300,300 C300.6,299.2 301.3,298.7 302,298 C302.7,297.3 303.3,296.7 304,296 C304.7,295.3 305.2,294.6 306,294 C307.1,293.2 309.2,292.8 310,292 C310.6,291.4 310.5,290.3 311,290 C311.5,289.7 312.3,290.0 313,290 C313.7,290.0 314.3,290.0 315,290 C315.7,290.0 316.2,290.0 317,290 C318.1,290.0 319.9,290.0 321,290 C321.8,290.0 322.3,290.0 323,290 C323.7,290.0 324.4,289.7 325,290 C325.7,290.3 326.3,291.3 327,292 C327.7,292.7 328.3,293.7 329,294 C329.6,294.3 330.4,293.6 331,294 C331.9,294.5 332.3,296.7 333,298 C333.7,299.3 334.3,300.7 335,302 C335.7,303.3 336.3,304.7 337,306 C337.7,307.3 338.6,308.5 339,310 C339.4,311.8 339.0,314.2 339,316 C339.0,317.5 339.0,318.7 339,320 C339.7,318.7 340.3,317.5 341,316 C341.9,314.2 343.0,311.4 344,310 C344.7,309.1 345.4,308.8 346,308 C346.8,306.9 347.3,305.3 348,304 C348.7,302.7 349.0,301.0 350,300 C351.0,299.0 352.9,298.8 354,298 C354.8,297.4 355.3,296.7 356,296 C356.7,295.3 357.3,294.7 358,294 C358.7,293.3 359.3,292.7 360,292 C360.7,291.3 361.3,290.3 362,290 C362.6,289.7 363.3,290.0 364,290 C364.7,290.0 365.3,290.0 366,290 C366.7,290.0 367.2,290.0 368,290 C369.1,290.0 370.9,290.0 372,290 C372.8,290.0 373.3,290.0 374,290 C374.7,290.0 375.5,289.7 376,290 C376.5,290.3 376.5,291.4 377,292 C377.5,292.7 378.3,293.7 379,294 C379.6,294.3 380.4,293.6 381,294 C381.9,294.5 382.3,296.7 383,298 C383.7,299.3 384.3,300.7 385,302 C385.7,303.3 386.3,304.7 387,306 C387.7,307.3 388.4,308.5 389,310 C389.7,311.8 390.7,314.2 391,316 C391.2,317.4 391.0,318.7 391,320 C391.7,319.3 392.3,318.7 393,318 C393.7,317.3 394.3,316.7 395,316 C395.7,315.3 396.3,314.7 397,314 C397.7,313.3 398.1,312.4 399,312 C400.0,311.6 402.0,312.4 403,312 C403.9,311.6 404.3,310.3 405,310 C405.6,309.7 406.3,310.0 407,310 C407.7,310.0 408.5,310.3 409,310 C409.5,309.7 409.5,308.3 410,308 C410.5,307.7 411.4,308.3 412,308 C412.7,307.7 413.3,306.7 414,306 C414.7,305.3 415.3,304.3 416,304 C416.6,303.7 417.3,304.0 418,304 C418.7,304.0 419.4,303.7 420,304 C420.7,304.3 421.3,305.7 422,306 C422.6,306.3 423.7,305.7 424,306 C424.3,306.3 423.7,307.7 424,308 C424.3,308.3 425.7,307.7 426,308 C426.3,308.3 425.7,309.4 426,310 C426.3,310.7 427.7,311.3 428,312 C428.3,312.6 427.7,313.4 428,314 C428.3,314.7 429.1,315.6 430,316 C431.0,316.4 432.9,316.0 434,316 C434.8,316.0 435.4,315.7 436,316 C436.7,316.3 437.3,317.3 438,318 C438.7,318.7 439.2,319.7 440,320 C440.8,320.3 442.2,319.7 443,320 C443.8,320.3 444.7,321.3 445,322 C445.3,322.6 444.7,323.5 445,324 C445.3,324.5 446.7,324.5 447,325 C447.3,325.5 447.0,326.2 447,327 C447.0,328.5 447.0,331.5 447,333 C447.0,333.8 447.3,334.7 447,335 C446.7,335.3 445.6,334.7 445,335 C444.3,335.3 443.5,336.3 443,337 C442.5,337.6 442.3,338.3 442,339 L449,363 C449.7,363.0 450.4,362.6 451,363 C451.9,363.5 452.2,365.9 453,367 C453.6,367.8 454.7,368.3 455,369 C455.3,369.6 454.7,370.4 455,371 C455.3,371.7 456.6,372.1 457,373 C457.4,374.0 457.4,376.0 457,377 C456.6,377.9 455.4,378.1 455,379 C454.6,380.0 455.4,382.0 455,383 C454.6,383.9 453.7,384.7 453,385 C452.4,385.3 451.6,384.7 451,385 C450.3,385.3 449.7,386.7 449,387 C448.4,387.3 447.7,387.0 447,387 C446.3,387.0 445.7,387.0 445,387 C444.3,387.0 443.3,386.7 443,387 C442.7,387.3 443.2,388.4 443,389 C442.8,389.7 442.5,390.7 442,391 C441.5,391.3 440.6,390.7 440,391 C439.3,391.3 438.8,392.4 438,393 C436.9,393.8 435.1,394.2 434,395 C433.2,395.6 432.9,396.6 432,397 C431.0,397.4 429.3,397.0 428,397 C426.7,397.0 425.3,396.7 424,397 C422.6,397.3 421.4,398.7 420,399 C418.7,399.3 417.3,399.0 416,399 C417.3,399.7 418.7,400.3 420,401 C421.3,401.7 422.7,402.3 424,403 C425.3,403.7 426.7,404.1 428,405 C429.4,406.0 430.9,407.9 432,409 C432.8,409.8 433.2,410.4 434,411 C435.1,411.8 436.9,412.2 438,413 C438.8,413.6 439.3,414.3 440,415 C440.7,415.7 441.5,416.3 442,417 C442.5,417.6 442.8,418.2 443,419 C443.3,420.1 442.6,422.0 443,423 C443.4,423.9 444.7,424.3 445,425 C445.3,425.6 445.0,426.2 445,427 C445.0,428.5 445.0,431.5 445,433 C445.0,433.8 445.3,434.5 445,435 C444.7,435.5 443.3,435.5 443,436 C442.7,436.5 443.3,437.7 443,438 C442.8,438.2 442.4,437.9 442,438 C441.4,438.2 440.6,439.2 440,440 C439.2,441.1 439.0,443.0 438,444 C437.0,445.0 435.3,445.3 434,446 C432.7,446.7 431.3,447.3 430,448 C428.7,448.7 427.5,449.6 426,450 C424.2,450.4 421.8,450.0 420,450 C418.5,450.0 417.3,450.0 416,450 C417.3,451.3 419.0,452.6 420,454 C420.9,455.3 421.2,456.9 422,458 C422.6,458.8 423.4,459.2 424,460 C424.8,461.1 425.3,462.7 426,464 C426.7,465.3 427.7,466.6 428,468 C428.3,469.3 428.0,470.9 428,472 C428.0,472.8 428.0,473.2 428,474 C428.0,475.1 428.0,476.7 428,478 C428.0,479.3 428.0,480.9 428,482 C428.0,482.8 428.2,483.2 428,484 C427.7,485.1 426.8,486.9 426,488 C425.4,488.8 424.3,489.3 424,490 C423.7,490.6 424.3,491.4 424,492 C423.7,492.7 422.7,493.3 422,494 C421.3,494.7 420.7,495.3 420,496 C419.3,496.7 418.8,497.4 418,498 C416.9,498.8 415.1,499.7 414,500 C413.2,500.2 412.6,499.7 412,500 C411.3,500.3 410.6,501.8 410,502 C409.6,502.1 409.4,502.0 409,502 C408.1,502.0 406.3,502.0 405,502 C403.7,502.0 402.0,502.4 401,502 C400.1,501.6 399.7,500.3 399,500 C398.4,499.7 397.3,500.3 397,500 C396.7,499.7 397.2,498.8 397,498 C396.7,496.9 395.8,495.1 395,494 C394.4,493.2 393.7,492.7 393,492 C392.3,491.3 391.4,490.9 391,490 C390.6,489.0 391.0,487.3 391,486 C391.0,484.7 391.0,483.1 391,482 C391.0,481.2 391.0,480.7 391,480 L389,486 L395,571 C395.0,573.0 395.0,575.2 395,577 C395.0,578.5 395.0,579.7 395,581 C395.0,582.3 395.4,584.0 395,585 C394.6,585.9 393.7,586.3 393,587 C392.3,587.7 391.7,588.3 391,589 C390.3,589.7 389.8,590.4 389,591 C387.9,591.8 386.4,592.7 385,593 C383.7,593.3 382.1,593.0 381,593 C380.2,593.0 379.6,593.3 379,593 C378.3,592.7 377.5,591.7 377,591 C376.5,590.4 376.4,589.8 376,589 C375.4,587.9 374.8,586.1 374,585 C373.4,584.2 372.4,583.9 372,583 C371.6,582.0 372.3,580.3 372,579 C371.7,577.6 370.7,576.3 370,575 L368,536 L362,577 C361.3,578.3 360.7,579.7 360,581 C359.3,582.3 358.7,583.7 358,585 C357.3,586.3 356.8,587.9 356,589 C355.4,589.8 354.7,590.3 354,591 C353.3,591.7 352.7,592.7 352,593 C351.4,593.3 350.6,592.7 350,593 C349.3,593.3 348.9,594.6 348,595 C347.0,595.4 344.8,595.5 344,595 C343.4,594.6 343.5,593.3 343,593 C342.5,592.7 341.6,593.3 341,593 C340.3,592.7 339.7,591.7 339,591 C338.3,590.3 337.4,589.9 337,589 C336.6,588.0 337.3,586.3 337,585 C336.7,583.6 335.3,582.4 335,581 C334.7,579.7 335.0,578.3 335,577 C335.0,575.7 335.0,574.3 335,573 L346,492 L339,478 C339.0,479.3 339.0,480.7 339,482 C339.0,483.3 339.3,484.7 339,486 C338.7,487.4 337.6,488.5 337,490 C336.3,491.8 335.7,494.2 335,496 C334.4,497.5 333.8,498.9 333,500 C332.4,500.8 331.7,501.3 331,502 C330.3,502.7 329.7,503.7 329,504 C328.4,504.3 327.6,503.7 327,504 C326.3,504.3 325.7,505.7 325,506 C324.4,506.3 323.7,506.0 323,506 C322.3,506.0 321.6,505.7 321,506 C320.3,506.3 319.7,508.0 319,508 C318.3,508.0 317.7,506.3 317,506 C316.4,505.7 315.7,506.0 315,506 C314.3,506.0 313.7,506.0 313,506 C312.3,506.0 311.5,506.3 311,506 C310.5,505.7 310.6,504.6 310,504 C309.2,503.2 307.1,502.8 306,502 C305.2,501.4 304.7,500.7 304,500 C303.3,499.3 302.7,498.7 302,498 C301.3,497.3 300.6,496.8 300,496 C299.2,494.9 298.8,493.1 298,492 C297.4,491.2 296.8,490.8 296,490 C294.9,488.9 293.0,487.4 292,486 C291.1,484.7 290.7,483.3 290,482 C289.3,480.7 288.7,479.3 288,478 C288.0,479.3 288.0,480.7 288,482 C288.0,483.3 288.3,484.7 288,486 C287.7,487.4 286.6,488.5 286,490 C285.3,491.8 284.7,494.2 284,496 C283.4,497.5 283.0,499.0 282,500 C281.0,501.0 278.8,501.2 278,502 C277.4,502.6 277.5,503.4 277,504 C276.5,504.7 275.7,505.7 275,506 C274.4,506.3 273.7,506.0 273,506 C272.3,506.0 271.6,505.7 271,506 C270.3,506.3 269.7,508.0 269,508 C268.3,508.0 267.7,506.3 267,506 C266.4,505.7 265.7,506.0 265,506 C264.3,506.0 263.7,506.0 263,506 C262.3,506.0 261.8,506.2 261,506 C259.9,505.7 258.1,504.8 257,504 C256.2,503.4 255.7,502.7 255,502 C254.3,501.3 253.7,500.7 253,500 C252.3,499.3 251.7,498.7 251,498 C250.3,497.3 249.7,496.8 249,496 C248.1,494.9 246.9,493.1 246,492 C245.3,491.2 244.6,490.8 244,490 C243.2,488.9 242.7,487.3 242,486 C241.3,484.7 240.7,483.3 240,482 C239.3,480.7 238.7,479.3 238,478 C238.0,479.3 238.3,480.7 238,482 C237.7,483.4 236.7,484.7 236,486 C235.3,487.3 234.6,488.5 234,490 C233.3,491.8 232.7,494.2 232,496 C231.4,497.5 230.8,498.9 230,500 C229.4,500.8 228.7,501.3 228,502 C227.3,502.7 226.7,503.7 226,504 C225.4,504.3 224.6,503.7 224,504 C223.3,504.3 222.7,505.7 222,506 C221.4,506.3 220.8,505.8 220,506 C218.9,506.3 217.1,508.2 216,508 C215.2,507.9 214.6,506.2 214,506 C213.6,505.9 213.4,506.0 213,506 C212.4,506.0 211.7,506.0 211,506 C210.3,506.0 209.6,506.3 209,506 C208.3,505.7 207.7,504.7 207,504 C206.3,503.3 205.7,502.7 205,502 C204.3,501.3 203.7,500.7 203,500 C202.3,499.3 201.8,498.6 201,498 C199.9,497.2 198.0,497.0 197,496 C196.0,495.0 195.8,493.1 195,492 C194.4,491.2 193.6,490.8 193,490 C192.2,488.9 191.9,487.3 191,486 C190.0,484.6 188.0,483.4 187,482 C186.1,480.7 185.7,479.3 185,478 L187,484 L183,581 L181,581 L183,581 C182.3,582.3 181.3,583.6 181,585 C180.7,586.3 181.2,587.7 181,589 C180.8,590.3 180.6,592.0 180,593 C179.5,593.9 178.7,594.3 178,595 C177.3,595.7 176.7,596.7 176,597 C175.4,597.3 174.6,596.7 174,597 C173.3,597.3 172.7,598.7 172,599 C171.4,599.3 170.7,599.0 170,599 C169.3,599.0 168.6,599.3 168,599 C167.3,598.7 166.7,597.3 166,597 C165.4,596.7 164.6,597.3 164,597 C163.3,596.7 162.6,595.8 162,595 C161.2,593.9 160.8,592.1 160,591 C159.4,590.2 158.4,589.9 158,589 C157.6,588.0 158.0,586.3 158,585 C158.0,583.7 158.0,582.3 158,581 L162,512 L148,583 C147.7,584.3 147.5,585.7 147,587 C146.5,588.4 145.3,589.6 145,591 C144.7,592.3 145.6,594.0 145,595 C144.4,596.0 142.1,596.2 141,597 C140.2,597.6 139.7,598.7 139,599 C138.4,599.3 137.6,598.7 137,599 C136.3,599.3 135.7,601.0 135,601 C134.3,601.0 133.9,599.4 133,599 C132.0,598.6 130.0,599.4 129,599 C128.1,598.6 127.7,597.7 127,597 C126.3,596.3 125.7,595.7 125,595 C124.3,594.3 123.3,593.7 123,593 C122.7,592.4 123.0,591.8 123,591 C123.0,589.9 123.0,588.3 123,587 C123.0,585.7 123.0,584.5 123,583 C123.0,581.2 123.0,579.0 123,577Z" fill="#000000" stroke="#000000" stroke-width="4" fill-rule="evenodd" data-shape="8"/>
    <path d="M671,606 L671,471 L654,384 L654,345 L611,289 L554,366 L529,301 C545.7,297.3 567.6,302.0 579,290 C595.2,273.0 588.7,222.4 596,189 C603.3,155.4 602.4,108.4 623,89 C642.1,71.0 690.3,59.5 710,71 C731.0,83.3 730.7,135.7 741,168 L765,160 L788,160 C814.7,182.3 849.3,199.1 868,227 C886.8,255.1 885.8,297.3 900,328 C913.3,356.6 932.7,380.0 949,406 L901,378 L871,497 L871,606 C871.0,606.7 871.0,607.3 871,608 C871.0,608.7 871.3,609.4 871,610 C870.7,610.7 869.5,611.3 869,612 C868.5,612.6 868.2,613.3 868,614 C867.8,614.6 868.3,615.3 868,616 C867.5,617.2 865.1,618.9 864,620 C863.2,620.8 862.9,621.6 862,622 C861.0,622.4 859.3,621.7 858,622 C856.6,622.3 855.1,623.7 854,624 C853.2,624.2 852.8,624.0 852,624 C850.9,624.0 849.3,624.3 848,624 C846.6,623.7 845.3,622.7 844,622 C842.7,621.3 841.3,620.7 840,620 C838.7,619.3 837.1,619.0 836,618 C834.8,617.0 833.9,615.1 833,614 C832.3,613.2 831.7,612.7 831,612 C830.3,611.3 829.3,610.7 829,610 C828.7,609.4 829.0,608.7 829,608 C829.0,607.3 829.0,606.7 829,606 L829,525 L720,523 L718,606 C718.0,607.3 718.0,608.9 718,610 C718.0,610.8 718.0,611.3 718,612 C718.0,612.7 718.3,613.7 718,614 C717.7,614.3 716.6,613.6 716,614 C715.0,614.7 715.2,618.7 714,620 C713.0,621.1 711.3,621.3 710,622 C708.7,622.7 707.3,623.3 706,624 C704.7,624.7 703.1,625.0 702,626 C700.8,627.0 700.5,629.3 699,630 C697.1,630.9 693.1,630.9 691,630 C689.3,629.3 688.4,627.0 687,626 C685.7,625.1 684.3,624.7 683,624 C681.7,623.3 680.0,623.0 679,622 C678.0,621.0 677.8,619.1 677,618 C676.4,617.2 675.7,616.7 675,616 C674.3,615.3 673.3,614.7 673,614 C672.7,613.4 673.2,612.8 673,612 C672.7,610.9 671.3,609.1 671,608 C670.8,607.2 671.0,606.7 671,606Z" fill="#000000" stroke="#000000" stroke-width="4" fill-rule="evenodd" data-shape="9"/>
    <path d="M1370,583 L1356,512 L1360,581 C1360.0,582.3 1360.3,583.7 1360,585 C1359.7,586.4 1358.3,587.9 1358,589 C1357.8,589.8 1358.2,590.2 1358,591 C1357.7,592.1 1356.8,593.9 1356,595 C1355.4,595.8 1354.7,596.7 1354,597 C1353.4,597.3 1352.6,596.7 1352,597 C1351.3,597.3 1350.7,598.7 1350,599 C1349.4,599.3 1348.7,599.0 1348,599 C1347.3,599.0 1346.6,599.3 1346,599 C1345.3,598.7 1344.7,597.3 1344,597 C1343.4,596.7 1342.6,597.3 1342,597 C1341.3,596.7 1340.5,595.7 1340,595 C1339.5,594.4 1339.4,593.8 1339,593 C1338.4,591.9 1337.3,590.4 1337,589 C1336.7,587.7 1337.3,586.3 1337,585 C1336.7,583.6 1335.7,582.3 1335,581 L1337,581 L1335,581 L1331,484 L1333,476 C1332.3,478.0 1332.0,480.3 1331,482 C1330.0,483.6 1328.0,484.6 1327,486 C1326.1,487.3 1325.8,488.9 1325,490 C1324.4,490.8 1323.6,491.2 1323,492 C1322.2,493.1 1322.0,495.0 1321,496 C1320.0,497.0 1318.1,497.2 1317,498 C1316.2,498.6 1315.7,499.3 1315,500 C1314.3,500.7 1313.7,501.3 1313,502 C1312.3,502.7 1311.7,503.3 1311,504 C1310.3,504.7 1309.7,505.7 1309,506 C1308.4,506.3 1307.6,506.0 1307,506 C1306.6,506.0 1306.4,506.0 1306,506 C1305.4,506.0 1304.8,505.8 1304,506 C1302.9,506.3 1301.1,508.2 1300,508 C1299.2,507.9 1298.7,506.3 1298,506 C1297.4,505.7 1296.6,506.3 1296,506 C1295.3,505.7 1294.7,504.3 1294,504 C1293.4,503.7 1292.6,504.3 1292,504 C1291.3,503.7 1290.6,502.8 1290,502 C1289.2,500.9 1288.8,499.1 1288,498 C1287.4,497.2 1286.6,496.9 1286,496 C1285.1,494.6 1284.7,491.8 1284,490 C1283.4,488.5 1282.7,487.3 1282,486 C1281.3,484.7 1280.4,483.5 1280,482 C1279.6,480.2 1280.0,478.0 1280,476 C1279.3,478.0 1278.7,480.2 1278,482 C1277.4,483.5 1276.5,484.6 1276,486 C1275.5,487.3 1275.6,489.0 1275,490 C1274.5,490.9 1273.8,491.2 1273,492 C1271.9,493.1 1270.1,494.9 1269,496 C1268.2,496.8 1267.7,497.3 1267,498 C1266.3,498.7 1265.7,499.3 1265,500 C1264.3,500.7 1263.8,501.4 1263,502 C1261.9,502.8 1260.1,503.2 1259,504 C1258.2,504.6 1257.7,505.7 1257,506 C1256.4,506.3 1255.7,506.0 1255,506 C1254.3,506.0 1253.7,506.0 1253,506 C1252.3,506.0 1251.6,505.7 1251,506 C1250.3,506.3 1249.7,508.0 1249,508 C1248.3,508.0 1247.7,506.3 1247,506 C1246.4,505.7 1245.7,506.0 1245,506 C1244.3,506.0 1243.5,506.3 1243,506 C1242.5,505.7 1242.5,504.6 1242,504 C1241.5,503.3 1240.8,502.8 1240,502 C1238.9,500.9 1237.1,499.1 1236,498 C1235.2,497.2 1234.6,496.9 1234,496 C1233.1,494.6 1232.7,491.8 1232,490 C1231.4,488.5 1230.3,487.4 1230,486 C1229.7,484.7 1230.0,483.5 1230,482 C1230.0,480.2 1230.0,478.0 1230,476 C1229.3,478.0 1228.7,480.2 1228,482 C1227.4,483.5 1226.9,484.7 1226,486 C1225.0,487.4 1223.1,488.9 1222,490 C1221.2,490.8 1220.6,491.2 1220,492 C1219.2,493.1 1218.8,494.9 1218,496 C1217.4,496.8 1216.7,497.3 1216,498 C1215.3,498.7 1214.8,499.4 1214,500 C1212.9,500.8 1210.8,501.2 1210,502 C1209.4,502.6 1209.5,503.4 1209,504 C1208.5,504.7 1207.7,505.7 1207,506 C1206.4,506.3 1205.7,506.0 1205,506 C1204.3,506.0 1203.7,506.0 1203,506 C1202.3,506.0 1201.6,505.7 1201,506 C1200.3,506.3 1199.7,508.0 1199,508 C1198.3,508.0 1197.7,506.3 1197,506 C1196.4,505.7 1195.7,506.0 1195,506 C1194.3,506.0 1193.6,506.3 1193,506 C1192.3,505.7 1191.7,504.3 1191,504 C1190.4,503.7 1189.3,504.3 1189,504 C1188.7,503.7 1189.3,502.7 1189,502 C1188.5,500.8 1186.1,499.1 1185,498 C1184.2,497.2 1183.6,496.9 1183,496 C1182.1,494.6 1181.7,491.8 1181,490 C1180.4,488.5 1179.3,487.4 1179,486 C1178.7,484.7 1179.0,483.5 1179,482 C1179.0,480.2 1179.0,478.0 1179,476 L1172,490 L1183,573 C1183.0,574.3 1183.0,575.7 1183,577 C1183.0,578.3 1183.3,579.7 1183,581 C1182.7,582.4 1181.3,583.6 1181,585 C1180.7,586.3 1181.4,588.0 1181,589 C1180.6,589.9 1179.7,590.3 1179,591 C1178.3,591.7 1177.6,592.8 1177,593 C1176.6,593.1 1176.4,592.9 1176,593 C1175.4,593.2 1174.9,594.6 1174,595 C1173.0,595.4 1171.0,595.4 1170,595 C1169.1,594.6 1168.7,593.3 1168,593 C1167.4,592.7 1166.6,593.3 1166,593 C1165.3,592.7 1164.7,591.7 1164,591 C1163.3,590.3 1162.6,589.8 1162,589 C1161.2,587.9 1160.7,586.3 1160,585 C1159.3,583.7 1158.7,582.3 1158,581 C1157.3,579.7 1156.7,578.3 1156,577 L1150,536 L1148,573 C1147.3,575.0 1146.3,577.2 1146,579 C1145.8,580.4 1146.4,582.0 1146,583 C1145.6,583.9 1144.5,584.1 1144,585 C1143.4,586.0 1143.6,588.0 1143,589 C1142.5,589.9 1141.7,590.3 1141,591 C1140.3,591.7 1139.7,592.7 1139,593 C1138.4,593.3 1137.8,593.0 1137,593 C1135.9,593.0 1134.3,593.3 1133,593 C1131.6,592.7 1130.1,591.8 1129,591 C1128.2,590.4 1127.7,589.7 1127,589 C1126.3,588.3 1125.7,587.7 1125,587 C1124.3,586.3 1123.4,585.9 1123,585 C1122.6,584.0 1123.0,582.3 1123,581 C1123.0,579.7 1123.0,578.5 1123,577 C1123.0,575.2 1123.0,573.0 1123,571 L1129,486 L1127,480 C1127.0,480.7 1127.0,481.2 1127,482 C1127.0,483.1 1127.0,484.7 1127,486 C1127.0,487.3 1127.4,489.0 1127,490 C1126.6,490.9 1125.7,491.3 1125,492 C1124.3,492.7 1123.6,493.2 1123,494 C1122.2,495.1 1121.8,496.9 1121,498 C1120.4,498.8 1119.7,499.3 1119,500 C1118.3,500.7 1117.9,501.6 1117,502 C1116.0,502.4 1114.2,502.0 1113,502 C1111.9,502.0 1110.9,502.0 1110,502 C1109.3,502.0 1108.6,502.3 1108,502 C1107.3,501.7 1106.7,500.3 1106,500 C1105.4,499.7 1104.8,500.2 1104,500 C1102.9,499.7 1101.1,498.8 1100,498 C1099.2,497.4 1098.7,496.7 1098,496 C1097.3,495.3 1096.7,494.7 1096,494 C1095.3,493.3 1094.3,492.7 1094,492 C1093.7,491.4 1094.3,490.6 1094,490 C1093.7,489.3 1092.4,488.9 1092,488 C1091.6,487.0 1092.4,485.0 1092,484 C1091.6,483.1 1090.4,482.9 1090,482 C1089.6,481.0 1090.0,479.3 1090,478 C1090.0,476.7 1090.0,475.1 1090,474 C1090.0,473.2 1089.8,472.8 1090,472 C1090.3,470.9 1091.7,469.4 1092,468 C1092.3,466.7 1091.7,465.3 1092,464 C1092.3,462.6 1093.2,461.1 1094,460 C1094.6,459.2 1095.4,458.8 1096,458 C1096.8,456.9 1097.1,455.3 1098,454 C1099.0,452.6 1100.7,451.3 1102,450 C1100.7,450.0 1099.5,450.0 1098,450 C1096.2,450.0 1093.8,450.4 1092,450 C1090.5,449.6 1089.3,448.7 1088,448 C1086.7,447.3 1085.3,446.7 1084,446 C1082.7,445.3 1081.0,445.0 1080,444 C1079.0,443.0 1078.6,441.1 1078,440 C1077.6,439.2 1077.5,438.3 1077,438 C1076.5,437.7 1075.3,438.3 1075,438 C1074.7,437.7 1075.3,436.5 1075,436 C1074.7,435.5 1073.3,435.5 1073,435 C1072.7,434.5 1073.0,433.8 1073,433 C1073.0,431.5 1073.0,428.5 1073,427 C1073.0,426.2 1072.7,425.6 1073,425 C1073.3,424.3 1074.6,423.9 1075,423 C1075.4,422.0 1074.6,420.0 1075,419 C1075.4,418.1 1076.5,417.7 1077,417 C1077.5,416.4 1077.5,415.6 1078,415 C1078.5,414.3 1079.2,413.6 1080,413 C1081.1,412.2 1082.9,411.8 1084,411 C1084.8,410.4 1085.2,409.8 1086,409 C1087.1,407.9 1088.6,406.0 1090,405 C1091.3,404.1 1092.7,403.7 1094,403 C1095.3,402.3 1096.7,401.7 1098,401 C1099.3,400.3 1100.7,399.7 1102,399 C1100.7,398.3 1099.4,397.3 1098,397 C1096.7,396.7 1095.3,397.0 1094,397 C1092.7,397.0 1091.3,397.3 1090,397 C1088.6,396.7 1087.1,395.3 1086,395 C1085.2,394.8 1084.8,395.2 1084,395 C1082.9,394.7 1081.1,393.8 1080,393 C1079.2,392.4 1078.6,391.2 1078,391 C1077.6,390.9 1077.2,391.2 1077,391 C1076.7,390.7 1077.3,389.6 1077,389 C1076.7,388.3 1075.7,387.3 1075,387 C1074.4,386.7 1073.7,387.0 1073,387 C1072.3,387.0 1071.7,387.0 1071,387 C1070.3,387.0 1069.6,387.3 1069,387 C1068.3,386.7 1067.7,385.3 1067,385 C1066.4,384.7 1065.6,385.4 1065,385 C1064.1,384.5 1063.3,382.1 1063,381 C1062.8,380.2 1063.3,379.6 1063,379 C1062.7,378.3 1061.4,377.9 1061,377 C1060.6,376.0 1060.6,374.0 1061,373 C1061.4,372.1 1062.7,371.7 1063,371 C1063.3,370.4 1062.8,369.8 1063,369 C1063.3,367.9 1064.2,366.1 1065,365 C1065.6,364.2 1066.3,363.3 1067,363 C1067.6,362.7 1068.3,363.0 1069,363 L1077,339 C1076.3,338.3 1075.7,337.7 1075,337 C1074.3,336.3 1073.7,335.3 1073,335 C1072.4,334.7 1071.4,335.4 1071,335 C1070.4,334.4 1071.0,332.3 1071,331 C1071.0,329.7 1071.0,328.1 1071,327 C1071.0,326.2 1070.7,325.5 1071,325 C1071.3,324.5 1072.4,324.5 1073,324 C1073.7,323.5 1074.3,322.7 1075,322 C1075.7,321.3 1076.5,320.7 1077,320 C1077.5,319.4 1077.5,318.3 1078,318 C1078.5,317.7 1079.4,318.3 1080,318 C1080.7,317.7 1081.3,316.3 1082,316 C1082.6,315.7 1083.2,316.0 1084,316 C1085.1,316.0 1087.0,316.4 1088,316 C1088.9,315.6 1089.7,314.7 1090,314 C1090.3,313.4 1089.7,312.6 1090,312 C1090.3,311.3 1091.7,310.7 1092,310 C1092.3,309.4 1091.7,308.3 1092,308 C1092.3,307.7 1093.7,308.3 1094,308 C1094.3,307.7 1093.7,306.3 1094,306 C1094.3,305.7 1095.4,306.3 1096,306 C1096.7,305.7 1097.3,304.3 1098,304 C1098.6,303.7 1099.3,304.0 1100,304 C1100.7,304.0 1101.4,303.7 1102,304 C1102.7,304.3 1103.3,305.3 1104,306 C1104.7,306.7 1105.3,307.7 1106,308 C1106.6,308.3 1107.4,307.7 1108,308 C1108.7,308.3 1109.4,309.8 1110,310 C1110.4,310.1 1110.6,310.0 1111,310 C1111.6,310.0 1112.4,309.7 1113,310 C1113.7,310.3 1114.1,311.6 1115,312 C1116.0,312.4 1118.0,311.6 1119,312 C1119.9,312.4 1120.3,313.3 1121,314 C1121.7,314.7 1122.3,315.3 1123,316 C1123.7,316.7 1124.3,317.3 1125,318 C1125.7,318.7 1126.3,319.3 1127,320 C1127.0,318.0 1126.6,315.8 1127,314 C1127.4,312.5 1128.3,311.3 1129,310 C1129.7,308.7 1130.3,307.3 1131,306 C1131.7,304.7 1132.3,303.3 1133,302 C1133.7,300.7 1134.3,299.3 1135,298 C1135.7,296.7 1136.2,295.1 1137,294 C1137.6,293.2 1138.3,292.3 1139,292 C1139.6,291.7 1140.4,292.3 1141,292 C1141.7,291.7 1142.4,290.2 1143,290 C1143.4,289.9 1143.6,290.0 1144,290 C1144.6,290.0 1145.2,290.0 1146,290 C1147.1,290.0 1148.9,290.0 1150,290 C1150.8,290.0 1151.3,290.0 1152,290 C1152.7,290.0 1153.3,290.0 1154,290 C1154.7,290.0 1155.4,289.7 1156,290 C1156.7,290.3 1157.3,291.3 1158,292 C1158.7,292.7 1159.3,293.3 1160,294 C1160.7,294.7 1161.3,295.3 1162,296 C1162.7,296.7 1163.2,297.4 1164,298 C1165.1,298.8 1167.0,299.0 1168,300 C1169.0,301.0 1169.3,302.7 1170,304 C1170.7,305.3 1171.2,306.9 1172,308 C1172.6,308.8 1173.3,309.2 1174,310 C1174.9,311.1 1176.2,312.5 1177,314 C1177.9,315.7 1178.3,318.0 1179,320 C1179.0,318.0 1179.0,315.8 1179,314 C1179.0,312.5 1178.7,311.3 1179,310 C1179.3,308.6 1180.3,307.3 1181,306 C1181.7,304.7 1182.3,303.3 1183,302 C1183.7,300.7 1184.1,299.3 1185,298 C1186.0,296.6 1188.5,295.2 1189,294 C1189.3,293.3 1188.7,292.3 1189,292 C1189.3,291.7 1190.4,292.3 1191,292 C1191.7,291.7 1192.3,290.3 1193,290 C1193.6,289.7 1194.3,290.0 1195,290 C1195.7,290.0 1196.2,290.0 1197,290 C1198.1,290.0 1199.9,290.0 1201,290 C1201.8,290.0 1202.3,290.0 1203,290 C1203.7,290.0 1204.3,290.0 1205,290 C1205.7,290.0 1206.4,289.7 1207,290 C1207.7,290.3 1208.5,291.3 1209,292 C1209.5,292.6 1209.4,293.4 1210,294 C1210.8,294.8 1212.9,295.2 1214,296 C1214.8,296.6 1215.3,297.3 1216,298 C1216.7,298.7 1217.4,299.2 1218,300 C1218.8,301.1 1219.3,302.7 1220,304 C1220.7,305.3 1221.0,307.0 1222,308 C1223.0,309.0 1225.0,309.0 1226,310 C1227.0,311.0 1227.4,312.5 1228,314 C1228.7,315.8 1229.3,318.0 1230,320 C1230.0,318.0 1230.0,315.8 1230,314 C1230.0,312.5 1229.7,311.3 1230,310 C1230.3,308.6 1231.3,307.3 1232,306 C1232.7,304.7 1233.3,303.3 1234,302 C1234.7,300.7 1235.1,299.3 1236,298 C1237.0,296.6 1238.9,295.1 1240,294 C1240.8,293.2 1241.5,292.7 1242,292 C1242.5,291.4 1242.5,290.3 1243,290 C1243.5,289.7 1244.3,290.0 1245,290 C1245.7,290.0 1246.2,290.0 1247,290 C1248.1,290.0 1249.9,290.0 1251,290 C1251.8,290.0 1252.3,290.0 1253,290 C1253.7,290.0 1254.3,290.0 1255,290 C1255.7,290.0 1256.4,289.7 1257,290 C1257.7,290.3 1258.2,291.4 1259,292 C1260.1,292.8 1261.9,293.2 1263,294 C1263.8,294.6 1264.3,295.3 1265,296 C1265.7,296.7 1266.3,297.3 1267,298 C1267.7,298.7 1268.2,299.2 1269,300 C1270.1,301.1 1272.0,302.6 1273,304 C1273.9,305.3 1274.4,306.9 1275,308 C1275.4,308.8 1275.6,309.2 1276,310 C1276.6,311.1 1277.4,312.5 1278,314 C1278.7,315.8 1279.3,318.0 1280,320 C1280.0,318.0 1279.6,315.8 1280,314 C1280.4,312.5 1281.3,311.3 1282,310 C1282.7,308.7 1283.3,307.3 1284,306 C1284.7,304.7 1285.3,303.3 1286,302 C1286.7,300.7 1287.3,299.3 1288,298 C1288.7,296.7 1289.2,295.1 1290,294 C1290.6,293.2 1291.3,292.3 1292,292 C1292.6,291.7 1293.4,292.3 1294,292 C1294.7,291.7 1295.3,290.3 1296,290 C1296.6,289.7 1297.2,290.0 1298,290 C1299.5,290.0 1302.5,290.0 1304,290 C1304.8,290.0 1305.4,290.0 1306,290 C1306.4,290.0 1306.6,290.0 1307,290 C1307.6,290.0 1308.4,289.7 1309,290 C1309.7,290.3 1310.3,291.3 1311,292 C1311.7,292.7 1312.3,293.3 1313,294 C1313.7,294.7 1314.3,295.3 1315,296 C1315.7,296.7 1316.2,297.4 1317,298 C1318.1,298.8 1320.0,299.0 1321,300 C1322.0,301.0 1322.3,302.7 1323,304 C1323.7,305.3 1324.2,306.9 1325,308 C1325.6,308.8 1326.2,309.2 1327,310 C1328.1,311.1 1330.0,312.4 1331,314 C1332.0,315.7 1332.3,318.0 1333,320 C1333.0,318.0 1333.0,315.8 1333,314 C1333.0,312.5 1332.7,311.3 1333,310 C1333.3,308.6 1334.3,307.3 1335,306 C1335.7,304.7 1336.3,303.3 1337,302 C1337.7,300.7 1338.5,299.4 1339,298 C1339.5,296.7 1339.4,295.0 1340,294 C1340.5,293.1 1341.3,292.3 1342,292 C1342.6,291.7 1343.4,292.3 1344,292 C1344.7,291.7 1345.3,290.3 1346,290 C1346.6,289.7 1347.3,290.0 1348,290 C1348.7,290.0 1349.2,290.0 1350,290 C1351.1,290.0 1352.9,290.0 1354,290 C1354.8,290.0 1355.3,290.0 1356,290 C1356.7,290.0 1357.3,290.0 1358,290 C1358.7,290.0 1359.4,289.7 1360,290 C1360.7,290.3 1361.3,291.3 1362,292 C1362.7,292.7 1363.3,293.3 1364,294 C1364.7,294.7 1365.2,295.4 1366,296 C1367.1,296.8 1368.9,297.2 1370,298 C1370.8,298.6 1371.5,299.1 1372,300 C1372.6,301.0 1372.5,302.7 1373,304 C1373.5,305.4 1374.0,307.0 1375,308 C1376.0,309.0 1378.0,309.0 1379,310 C1380.0,311.0 1380.4,312.5 1381,314 C1381.7,315.8 1382.3,318.0 1383,320 L1395,312 L1377,268 L1412,278 L1434,288 L1455,280 L1488,270 L1472,306 C1475.3,327.0 1482.8,348.1 1482,369 C1481.2,390.1 1479.7,418.5 1467,432 C1454.6,445.2 1427.7,444.0 1408,450 C1408.7,450.7 1409.3,451.3 1410,452 C1410.7,452.7 1411.4,453.2 1412,454 C1412.8,455.1 1413.2,456.9 1414,458 C1414.6,458.8 1415.7,459.3 1416,460 C1416.3,460.6 1415.7,461.4 1416,462 C1416.3,462.7 1417.7,463.3 1418,464 C1418.3,464.6 1417.8,465.2 1418,466 C1418.3,467.1 1419.7,468.6 1420,470 C1420.3,471.3 1420.6,473.4 1420,474 C1419.6,474.4 1418.3,473.7 1418,474 C1417.7,474.3 1418.0,475.3 1418,476 C1418.0,476.7 1418.3,477.4 1418,478 C1417.7,478.7 1416.6,479.2 1416,480 C1415.2,481.1 1414.8,482.9 1414,484 C1413.4,484.8 1412.7,485.7 1412,486 C1411.4,486.3 1410.7,486.0 1410,486 C1409.3,486.0 1408.6,485.7 1408,486 C1407.3,486.3 1406.9,487.6 1406,488 C1404.8,488.5 1402.2,488.5 1401,488 C1400.1,487.6 1399.7,486.3 1399,486 C1398.4,485.7 1397.7,486.0 1397,486 C1396.3,486.0 1395.6,486.3 1395,486 C1394.3,485.7 1393.8,484.6 1393,484 C1391.9,483.2 1390.1,482.8 1389,482 C1388.2,481.4 1387.7,480.7 1387,480 C1386.3,479.3 1385.7,478.7 1385,478 C1384.3,477.3 1383.7,476.7 1383,476 L1379,496 L1395,577 C1395.0,579.0 1395.0,581.2 1395,583 C1395.0,584.5 1395.0,585.9 1395,587 C1395.0,587.8 1395.0,588.2 1395,589 C1395.0,590.1 1395.4,592.0 1395,593 C1394.6,593.9 1393.7,594.3 1393,595 C1392.3,595.7 1391.7,596.3 1391,597 C1390.3,597.7 1389.9,598.6 1389,599 C1388.0,599.4 1386.0,598.6 1385,599 C1384.1,599.4 1383.7,601.0 1383,601 C1382.3,601.0 1381.7,599.3 1381,599 C1380.4,598.7 1379.6,599.3 1379,599 C1378.3,598.7 1377.8,597.6 1377,597 C1375.9,596.2 1373.6,596.0 1373,595 C1372.4,594.0 1373.2,592.3 1373,591 C1372.8,589.7 1372.5,588.3 1372,587 C1371.5,585.6 1370.7,584.3 1370,583Z" fill="#000000" stroke="#000000" stroke-width="4" fill-rule="evenodd" data-shape="10"/>
    <path d="M1768,606 L1768,523 L1657,525 L1657,606 C1657.0,606.7 1657.0,607.3 1657,608 C1657.0,608.7 1657.3,609.4 1657,610 C1656.7,610.7 1655.3,611.3 1655,612 C1654.7,612.6 1655.3,613.4 1655,614 C1654.7,614.7 1653.8,615.4 1653,616 C1652.1,616.7 1651.1,617.4 1650,618 C1648.8,618.7 1647.3,619.3 1646,620 C1644.7,620.7 1643.3,621.3 1642,622 C1640.7,622.7 1639.4,623.7 1638,624 C1636.7,624.3 1635.1,624.0 1634,624 C1633.2,624.0 1632.8,624.2 1632,624 C1630.9,623.7 1629.4,622.3 1628,622 C1626.7,621.7 1625.0,622.4 1624,622 C1623.1,621.6 1622.7,620.8 1622,620 C1621.1,618.9 1619.9,617.1 1619,616 C1618.3,615.2 1617.3,614.7 1617,614 C1616.7,613.4 1617.3,612.6 1617,612 C1616.7,611.3 1615.3,610.7 1615,610 C1614.7,609.4 1615.0,608.7 1615,608 C1615.0,607.3 1615.0,606.7 1615,606 L1615,497 L1586,378 C1585.3,379.3 1584.3,380.6 1584,382 C1583.7,383.3 1584.3,384.7 1584,386 C1583.7,387.4 1582.8,388.4 1582,390 C1580.9,392.2 1579.3,395.2 1578,398 C1576.6,401.1 1575.2,405.4 1574,408 C1573.3,409.7 1572.7,410.7 1572,412 C1571.3,413.3 1570.7,414.7 1570,416 C1569.3,417.3 1568.9,418.7 1568,420 C1567.0,421.4 1565.1,422.9 1564,424 C1563.2,424.8 1562.7,425.3 1562,426 C1561.3,426.7 1560.8,427.4 1560,428 C1558.9,428.8 1557.1,429.2 1556,430 C1555.2,430.6 1554.8,431.4 1554,432 C1553.1,432.7 1552.1,433.7 1551,434 C1549.8,434.4 1548.0,434.4 1547,434 C1546.1,433.6 1545.7,432.3 1545,432 C1544.4,431.7 1543.6,432.3 1543,432 C1542.3,431.7 1541.6,430.8 1541,430 C1540.2,428.9 1539.8,427.1 1539,426 C1538.4,425.2 1537.4,424.9 1537,424 C1536.6,423.0 1537.4,421.0 1537,420 C1536.6,419.1 1535.4,418.9 1535,418 C1534.6,417.0 1535.0,415.1 1535,414 C1535.0,413.2 1535.0,412.7 1535,412 C1535.0,411.3 1535.0,410.7 1535,410 C1535.0,409.3 1534.7,408.3 1535,408 C1535.3,407.7 1536.3,408.0 1537,408 C1537.7,408.0 1538.3,408.0 1539,408 C1539.7,408.0 1540.3,407.7 1541,408 C1542.2,408.5 1543.8,411.5 1545,412 C1545.7,412.3 1546.2,412.2 1547,412 C1548.1,411.7 1549.8,410.7 1551,410 C1552.1,409.4 1553.2,408.9 1554,408 C1554.9,407.0 1555.1,405.3 1556,404 C1557.0,402.6 1559.0,401.4 1560,400 C1560.9,398.7 1561.3,397.3 1562,396 C1562.7,394.7 1563.1,393.6 1564,392 C1565.4,389.4 1568.7,385.2 1570,382 C1571.1,379.3 1571.0,376.6 1572,374 C1573.0,371.3 1575.0,368.7 1576,366 C1577.0,363.4 1577.3,360.7 1578,358 C1578.7,355.3 1579.3,352.7 1580,350 L1586,333 C1596.3,298.3 1598.2,257.9 1617,229 C1635.7,200.4 1671.0,183.0 1698,160 L1721,160 L1745,168 C1755.3,135.7 1754.9,83.2 1776,71 C1795.8,59.5 1844.6,71.9 1864,90 C1884.6,109.3 1884.7,154.7 1892,188 C1899.4,221.7 1891.6,274.0 1908,291 C1919.7,303.1 1942.7,297.7 1960,301 L1934,366 L1875,289 L1832,325 L1834,345 L1834,384 L1817,471 L1817,606 C1817.0,606.7 1817.2,607.2 1817,608 C1816.7,609.1 1815.8,610.9 1815,612 C1814.4,612.8 1813.3,613.3 1813,614 C1812.7,614.6 1813.3,615.4 1813,616 C1812.7,616.7 1811.8,617.2 1811,618 C1809.9,619.1 1808.4,621.0 1807,622 C1805.7,622.9 1804.3,623.3 1803,624 C1801.7,624.7 1800.3,625.1 1799,626 C1797.6,627.0 1796.7,629.3 1795,630 C1793.1,630.8 1789.9,630.8 1788,630 C1786.3,629.3 1785.4,627.0 1784,626 C1782.7,625.1 1781.3,624.7 1780,624 C1778.7,623.3 1777.1,622.8 1776,622 C1775.2,621.4 1774.6,620.8 1774,620 C1773.2,618.9 1772.8,617.1 1772,616 C1771.4,615.2 1770.3,614.7 1770,614 C1769.7,613.4 1770.3,612.6 1770,612 C1769.7,611.3 1768.4,610.9 1768,610 C1767.6,609.0 1768.0,607.3 1768,606Z" fill="#000000" stroke="#000000" stroke-width="4" fill-rule="evenodd" data-shape="11"/>
  </g>
</svg>