<svg xmlns="http://www.w3.org/2000/svg" xmlns:mdcr="http://sensory.com/mdcr" viewBox="0 0 401 301" width="401" height="301">
  <metadata>
    <mdcr:info xmlns:mdcr="http://sensory.com/mdcr">
      <mdcr:source format="WMF" generator="wmf2svg.js"/>
      <mdcr:bounds left="0" top="0" right="6015" bottom="4515" inch="1440"/>
      <mdcr:records count="6">
        <mdcr:record tag="MDCR-{"/>
        <mdcr:record tag="MDCR-{"/>
        <mdcr:record tag="MDCR-}"/>
        <mdcr:record tag="MDCR-S"/>
        <mdcr:record tag="MDCR-}"/>
        <mdcr:record tag="MDCR-S"/>
      </mdcr:records>
    </mdcr:info>
  </metadata>
  <g data-mdcr="group" class="mdcr-region">
    <g data-mdcr="group" class="mdcr-region">
      <polygon points="207,273 206,278 213,280 215,274 207,273" fill="#aa602b" stroke="none" stroke-width="0" fill-rule="evenodd" data-shape="0"/>
      <polyline points="207,273 206,278 213,280 215,274 207,273" fill="none" stroke="#000000" stroke-width="1"/>
      <path d="M237,269 C234.2,271.3 230.5,272.8 227,274 C223.5,275.2 219.7,276.0 216,276 C212.3,276.0 208.6,274.7 205,274 C201.6,273.3 198.1,273.4 195,272 C191.7,270.5 188.2,268.0 186,265 C183.8,262.0 182.7,257.7 182,254 C181.4,250.4 181.2,246.6 182,243 C182.8,239.2 184.6,235.0 187,232 C189.3,229.1 192.8,226.8 196,225 C199.1,223.2 202.5,221.8 206,221 C209.5,220.2 213.4,219.7 217,220 C220.7,220.3 224.5,221.5 228,223 C231.5,224.5 235.2,226.5 238,229 C240.8,231.5 243.5,234.6 245,238 C246.5,241.3 247.2,245.4 247,249 C246.8,252.7 245.7,256.7 244,260 C242.3,263.3 239.9,266.7 237,269Z" fill="#00cc00" stroke="none" stroke-width="0" fill-rule="evenodd" data-shape="1"/>
      <path d="M215,238 C216.3,240.3 217.0,243.7 219,245 C221.0,246.3 224.4,245.8 227,246 C229.4,246.1 232.2,247.0 234,246 C235.9,244.9 237.9,241.4 238,239 C238.1,236.7 236.7,233.1 235,232 C233.3,230.9 230.0,231.2 228,232 C226.0,232.8 225.1,236.0 223,237 C220.8,238.1 217.7,237.7 215,238Z" fill="#00e800" stroke="none" stroke-width="0" fill-rule="evenodd" data-shape="2"/>
      <path d="M222,232 C220.5,233.4 217.4,233.8 215,234 C212.7,234.2 209.8,234.2 208,233 C206.2,231.8 203.7,228.7 204,227 C204.3,225.3 207.7,223.8 210,223 C212.4,222.1 215.6,221.4 218,222 C220.3,222.5 223.4,224.3 224,226 C224.6,227.6 223.4,230.7 222,232Z" fill="#00aa00" stroke="none" stroke-width="0" fill-rule="evenodd" data-shape="3"/>
      <path d="M218,230 C216.9,231.1 212.1,231.1 211,230 C210.0,229.0 210.0,225.0 211,224 C212.1,222.9 216.9,222.9 218,224 C219.0,225.0 219.0,229.0 218,230Z" fill="#548700" stroke="none" stroke-width="0" fill-rule="evenodd" data-shape="4"/>
      <path d="M225,228 L222,233 L213,233 L225,234 L228,229Z" fill="#89f989" stroke="none" stroke-width="0" fill-rule="evenodd" data-shape="5"/>
      <path d="M207,205 C205.7,206.7 203.0,208.3 203,210 C203.0,211.9 206.6,213.9 208,216 C209.3,217.9 210.3,219.9 211,222 C211.7,224.2 211.7,226.7 212,229 C213.0,227.7 214.7,226.6 215,225 C215.4,223.1 213.8,220.3 213,218 C212.2,215.6 211.0,213.2 210,211 C209.0,208.9 208.0,207.0 207,205Z" fill="#b55e00" stroke="none" stroke-width="0" fill-rule="evenodd" data-shape="6"/>
      <path d="M216,228 C215.3,225.3 214.8,222.6 214,220 C213.2,217.3 212.2,214.5 211,212 C209.8,209.5 208.3,207.3 207,205 C205.7,206.7 203.0,208.3 203,210 C203.0,211.9 206.6,213.9 208,216 C209.3,217.9 210.3,219.9 211,222 C211.7,224.2 211.7,226.7 212,229 L216,228" fill="none" stroke="#000000" stroke-width="1"/>
      <path d="M185,261 C188.0,262.0 190.9,263.2 194,264 C197.2,264.9 200.7,265.5 204,266 C207.1,266.5 209.9,266.8 213,267 C216.2,267.2 219.7,267.2 223,267 C226.3,266.8 229.8,266.7 233,266 C236.1,265.3 239.0,264.0 242,263 C239.3,265.3 237.0,268.2 234,270 C231.0,271.8 227.5,273.2 224,274 C220.5,274.8 216.6,275.2 213,275 C209.6,274.8 206.3,274.0 203,273 C199.6,272.0 196.0,271.0 193,269 C190.0,267.0 187.7,263.7 185,261Z" fill="#00af00" stroke="none" stroke-width="0" fill-rule="evenodd" data-shape="7"/>
    </g>
    <path d="M48,94 L49,91 C44.7,89.7 39.7,89.2 36,87 C32.4,84.8 30.0,81.0 27,78 L28,78 C26.7,74.0 24.3,70.1 24,66 C23.6,61.8 24.2,56.9 26,53 C27.8,48.9 31.5,44.9 35,42 C38.3,39.3 42.1,37.3 46,36 C50.0,34.6 54.7,34.7 59,34 L59,25 L63,26 L62,34 C65.7,35.7 69.4,37.0 73,39 C76.7,41.0 81.3,42.8 84,46 C86.7,49.2 88.2,53.8 89,58 C89.8,62.2 90.0,66.9 89,71 C88.0,75.2 85.9,79.8 83,83 C80.2,86.1 76.0,88.3 72,90 C68.0,91.7 63.2,92.3 59,93 C55.2,93.6 51.7,93.7 48,94Z" fill="#000000" stroke="#000000" stroke-width="1" fill-rule="evenodd" data-shape="8"/>
    <path d="M153,93 C149.2,92.8 145.3,92.5 142,91 C138.6,89.5 135.7,86.7 133,84 C130.3,81.3 127.5,78.4 126,75 C124.4,71.5 123.8,66.9 124,63 C124.2,59.2 125.3,55.3 127,52 C128.7,48.7 131.2,45.5 134,43 C136.8,40.5 140.5,38.5 144,37 C147.5,35.5 151.3,34.3 155,34 C158.6,33.7 162.4,34.1 166,35 C169.8,36.0 173.8,37.8 177,40 C180.1,42.1 183.0,44.9 185,48 C187.0,51.2 188.3,55.3 189,59 C189.6,62.6 189.8,66.4 189,70 C188.2,73.8 186.3,77.9 184,81 C181.9,83.9 179.1,86.2 176,88 C172.8,89.9 168.8,91.2 165,92 C161.1,92.8 156.9,93.2 153,93Z" fill="#000000" stroke="#000000" stroke-width="1" fill-rule="evenodd" data-shape="9"/>
    <path d="M248,94 L249,91 C245.0,90.3 240.5,90.9 237,89 C233.1,86.9 230.3,81.7 227,78 L228,78 C226.7,74.3 224.3,70.8 224,67 C223.6,63.1 224.4,58.5 226,55 C227.5,51.6 230.2,48.5 233,46 C235.8,43.5 239.6,41.7 243,40 C246.3,38.4 249.7,37.3 253,36 L245,27 L249,22 L255,33 C258.3,34.7 261.5,36.5 265,38 C268.8,39.6 273.6,39.8 277,42 C280.3,44.2 282.8,47.7 285,51 C287.2,54.3 289.3,58.1 290,62 C290.7,66.1 290.5,71.2 289,75 C287.5,78.8 284.2,82.5 281,85 C277.9,87.4 273.8,88.7 270,90 C266.1,91.3 261.8,92.3 258,93 C254.5,93.6 251.3,93.7 248,94Z" fill="#000000" stroke="#000000" stroke-width="1" fill-rule="evenodd" data-shape="10"/>
    <path d="M347,97 L351,93 L351,94 L353,93 C347.7,93.3 342.0,95.3 337,94 C331.9,92.7 326.2,89.1 323,85 C319.9,81.0 318.0,75.1 318,70 C318.0,64.8 319.8,58.2 323,54 C326.2,49.8 332.2,46.8 337,45 C341.2,43.4 345.7,43.7 350,43 L341,29 L342,29 C345.0,30.0 348.2,32.8 351,32 C354.6,31.0 357.6,24.1 361,20 C364.6,15.7 368.3,11.3 372,7 L372,8 L372,7 C371.7,13.0 374.0,21.4 371,25 C368.3,28.4 361.0,27.7 356,29 C355.7,29.3 355.3,29.7 355,30 C354.7,30.3 354.3,30.7 354,31 C353.7,31.3 353.4,31.6 353,32 C352.3,32.7 350.0,34.3 350,35 C350.0,35.4 350.8,35.6 351,36 C351.2,36.5 350.8,37.4 351,38 C351.2,38.7 351.8,39.3 352,40 C352.2,40.6 352.0,41.3 352,42 C352.0,42.7 351.8,43.4 352,44 C352.2,44.7 352.9,45.4 353,46 C353.1,46.4 353.0,46.7 353,47 C357.7,46.7 362.7,44.7 367,46 C371.4,47.3 376.2,51.2 379,55 C381.8,58.8 383.9,64.2 384,69 C384.1,73.9 381.8,79.9 379,84 C376.3,87.8 372.3,91.5 368,93 C363.6,94.6 358.0,93.0 353,93 L356,97 L347,97Z" fill="#000000" stroke="#000000" stroke-width="1" fill-rule="evenodd" data-shape="11"/>
  </g>
</svg>