<svg xmlns="http://www.w3.org/2000/svg" xmlns:mdcr="http://sensory.com/mdcr" viewBox="0 0 401 301" width="401" height="301">
  <metadata>
    <mdcr:info xmlns:mdcr="http://sensory.com/mdcr">
      <mdcr:source format="WMF" generator="wmf2svg.js"/>
      <mdcr:bounds left="0" top="0" right="6015" bottom="4515" inch="1440"/>
      <mdcr:records count="6">
        <mdcr:record tag="MDCR-{"/>
        <mdcr:record tag="MDCR-{"/>
        <mdcr:record tag="MDCR-}"/>
        <mdcr:record tag="MDCR-S"/>
        <mdcr:record tag="MDCR-}"/>
        <mdcr:record tag="MDCR-S"/>
      </mdcr:records>
    </mdcr:info>
  </metadata>
  <g data-mdcr="group" class="mdcr-region">
    <g data-mdcr="group" class="mdcr-region">
      <polygon points="202,268 201,273 208,275 210,269 202,268" fill="#aa602b" stroke="none" stroke-width="0" fill-rule="evenodd" data-shape="0"/>
      <polyline points="202,268 201,273 208,275 210,269 202,268" fill="none" stroke="#000000" stroke-width="1"/>
      <path d="M232,265 C229.2,267.3 225.6,268.8 222,270 C218.3,271.2 213.9,272.0 210,272 C206.3,272.0 202.6,270.9 199,270 C195.6,269.2 192.0,268.8 189,267 C185.9,265.2 183.0,262.1 181,259 C179.0,255.8 177.7,251.7 177,248 C176.4,244.4 176.2,240.6 177,237 C177.8,233.2 179.6,229.0 182,226 C184.3,223.1 187.7,220.8 191,219 C194.4,217.1 198.3,215.8 202,215 C205.6,214.2 209.4,213.7 213,214 C216.7,214.3 220.7,215.3 224,217 C227.3,218.7 230.3,221.3 233,224 C235.7,226.7 238.5,229.6 240,233 C241.6,236.5 242.2,241.1 242,245 C241.8,248.8 240.7,252.7 239,256 C237.3,259.3 234.9,262.7 232,265Z" fill="#eded72" stroke="none" stroke-width="0" fill-rule="evenodd" data-shape="1"/>
      <path d="M210,231 C211.3,233.3 212.1,236.5 214,238 C215.8,239.4 218.6,239.7 221,240 C223.6,240.4 227.0,241.2 229,240 C231.0,238.8 232.9,235.4 233,233 C233.1,230.7 231.7,227.3 230,226 C228.5,224.8 225.9,224.5 224,225 C221.9,225.6 220.3,229.0 218,230 C215.7,231.0 212.7,230.7 210,231Z" fill="#ededd6" stroke="none" stroke-width="0" fill-rule="evenodd" data-shape="2"/>
      <path d="M205,227 L205,226 C203.0,224.3 199.0,222.7 199,221 C199.0,219.3 203.0,217.7 205,216 L205,215 C207.3,215.0 209.8,214.5 212,215 C214.1,215.5 217.0,216.4 218,218 C218.9,219.5 218.9,222.5 218,224 C217.0,225.6 214.1,226.5 212,227 C209.8,227.5 207.3,227.0 205,227Z" fill="#eddd72" stroke="none" stroke-width="0" fill-rule="evenodd" data-shape="3"/>
      <path d="M204,223 L204,219 C204.3,219.0 204.7,219.1 205,219 C205.4,218.8 205.7,218.3 206,218 C206.3,217.7 206.6,217.2 207,217 C207.3,216.9 207.6,217.0 208,217 C208.6,217.0 209.4,217.0 210,217 C210.4,217.0 210.7,217.0 211,217 C211.3,217.0 211.7,216.9 212,217 C212.4,217.2 212.7,217.7 213,218 C213.3,218.3 213.6,218.8 214,219 C214.3,219.1 214.7,219.0 215,219 L215,223 C214.7,223.0 214.3,222.9 214,223 C213.6,223.2 213.3,223.7 213,224 C212.7,224.3 212.4,224.8 212,225 C211.7,225.1 211.3,225.0 211,225 C210.7,225.0 210.4,225.0 210,225 C209.4,225.0 208.6,225.0 208,225 C207.6,225.0 207.3,225.1 207,225 C206.6,224.8 206.3,224.3 206,224 C205.7,223.7 205.4,223.2 205,223 C204.7,222.9 204.3,223.0 204,223Z" fill="#d8c454" stroke="none" stroke-width="0" fill-rule="evenodd" data-shape="4"/>
      <path d="M207,228 C210.3,228.3 214.3,230.0 217,229 C219.5,228.1 221.0,225.0 223,223 C220.7,224.3 218.6,226.2 216,227 C213.3,227.9 210.0,227.7 207,228Z" fill="#ededd6" stroke="none" stroke-width="0" fill-rule="evenodd" data-shape="5"/>
      <path d="M211,204 C212.3,205.3 214.6,206.3 215,208 C215.5,209.9 213.8,212.7 213,215 C212.2,217.4 211.0,219.7 210,222 C209.3,220.7 208.0,219.5 208,218 C207.9,216.0 210.5,213.4 211,211 C211.5,208.7 211.0,206.3 211,204Z" fill="#b55e00" stroke="none" stroke-width="0" fill-rule="evenodd" data-shape="6"/>
      <path d="M207,221 C208.3,218.3 210.3,215.8 211,213 C211.7,210.2 211.0,207.0 211,204 C212.0,206.0 213.8,207.8 214,210 C214.3,212.4 213.4,216.1 212,218 C210.8,219.6 208.7,220.0 207,221" fill="none" stroke="#000000" stroke-width="1"/>
      <path d="M179,257 C182.0,258.0 184.9,259.0 188,260 C191.2,261.0 194.7,262.3 198,263 C201.1,263.6 203.9,263.8 207,264 C210.2,264.2 213.7,264.3 217,264 C220.3,263.7 223.8,262.7 227,262 C230.1,261.3 233.0,260.7 236,260 C233.0,262.3 230.1,265.1 227,267 C224.1,268.7 221.2,270.2 218,271 C214.6,271.9 210.7,272.2 207,272 C203.3,271.8 199.4,271.2 196,270 C192.7,268.8 189.8,267.1 187,265 C184.1,262.8 181.7,259.7 179,257Z" fill="#edd86b" stroke="none" stroke-width="0" fill-rule="evenodd" data-shape="7"/>
      <path d="M193,227 C190.8,227.7 188.6,229.2 187,231 C185.3,232.9 183.8,235.5 183,238 C182.2,240.5 182.0,243.3 182,246 C182.0,248.7 182.2,251.5 183,254 C183.8,256.5 185.2,259.3 187,261 C188.6,262.5 191.7,264.6 193,264 C194.5,263.3 194.5,258.6 195,256 C195.5,253.6 195.2,251.3 196,249 C196.8,246.6 198.8,244.5 200,242 C201.2,239.5 203.1,236.6 203,234 C202.9,231.6 201.7,228.1 200,227 C198.3,225.9 195.2,226.3 193,227Z" fill="#fc7772" stroke="none" stroke-width="0" fill-rule="evenodd" data-shape="8"/>
      <path d="M206,240 C204.7,242.7 202.7,245.2 202,248 C201.3,250.8 202.0,254.0 202,257 C201.3,254.7 200.1,252.3 200,250 C199.9,247.9 200.0,245.7 201,244 C202.0,242.3 204.3,241.3 206,240Z" fill="#fc7772" stroke="none" stroke-width="0" fill-rule="evenodd" data-shape="9"/>
      <polygon points="198,250 196,265 194,261 196,254 198,250" fill="#fc7772" stroke="none" stroke-width="0" fill-rule="evenodd" data-shape="10"/>
      <polygon points="200,243 196,253 198,245 200,243" fill="#fc7772" stroke="none" stroke-width="0" fill-rule="evenodd" data-shape="11"/>
      <polygon points="184,233 179,239 181,248 181,238 184,233" fill="#fc7772" stroke="none" stroke-width="0" fill-rule="evenodd" data-shape="12"/>
      <path d="M196,258 L196,257 L196,256 L197,255 L197,253 L198,252 L199,251 L199,250 L200,249 L199,251 L198,252 L198,254 L198,256 L198,257 L198,259 L199,261 L199,262 L198,262 L198,261 L197,261 L197,260 L196,259Z" fill="#fc7772" stroke="none" stroke-width="0" fill-rule="evenodd" data-shape="13"/>
      <polygon points="196,229 190,234 190,244 191,236 196,229" fill="#eded7c" stroke="none" stroke-width="0" fill-rule="evenodd" data-shape="14"/>
      <path d="M195,227 C193.0,228.3 190.7,229.3 189,231 C187.3,232.7 185.8,234.9 185,237 C184.2,238.9 184.3,241.0 184,243 C185.3,240.0 186.2,236.7 188,234 C189.8,231.3 192.7,229.3 195,227Z" fill="#eded7c" stroke="none" stroke-width="0" fill-rule="evenodd" data-shape="15"/>
    </g>
    <path d="M48,94 L49,91 C44.7,89.7 39.7,89.2 36,87 C32.4,84.8 30.0,81.0 27,78 L28,78 C26.7,74.0 24.3,70.1 24,66 C23.6,61.8 24.2,56.9 26,53 C27.8,48.9 31.5,44.9 35,42 C38.3,39.3 42.1,37.3 46,36 C50.0,34.6 54.7,34.7 59,34 L59,25 L63,26 L62,34 C65.7,35.7 69.4,37.0 73,39 C76.7,41.0 81.3,42.8 84,46 C86.7,49.2 88.2,53.8 89,58 C89.8,62.2 90.0,66.9 89,71 C88.0,75.2 85.9,79.8 83,83 C80.2,86.1 76.0,88.3 72,90 C68.0,91.7 63.2,92.3 59,93 C55.2,93.6 51.7,93.7 48,94Z" fill="#000000" stroke="#000000" stroke-width="1" fill-rule="evenodd" data-shape="16"/>
    <path d="M153,93 C149.2,92.8 145.3,92.5 142,91 C138.6,89.5 135.7,86.7 133,84 C130.3,81.3 127.5,78.4 126,75 C124.4,71.5 123.8,66.9 124,63 C124.2,59.2 125.3,55.3 127,52 C128.7,48.7 131.2,45.5 134,43 C136.8,40.5 140.5,38.5 144,37 C147.5,35.5 151.3,34.3 155,34 C158.6,33.7 162.4,34.1 166,35 C169.8,36.0 173.8,37.8 177,40 C180.1,42.1 183.0,44.9 185,48 C187.0,51.2 188.3,55.3 189,59 C189.6,62.6 189.8,66.4 189,70 C188.2,73.8 186.3,77.9 184,81 C181.9,83.9 179.1,86.2 176,88 C172.8,89.9 168.8,91.2 165,92 C161.1,92.8 156.9,93.2 153,93Z" fill="#000000" stroke="#000000" stroke-width="1" fill-rule="evenodd" data-shape="17"/>
    <path d="M248,94 L249,91 C245.0,90.3 240.5,90.9 237,89 C233.1,86.9 230.3,81.7 227,78 L228,78 C226.7,74.3 224.3,70.8 224,67 C223.6,63.1 224.4,58.5 226,55 C227.5,51.6 230.2,48.5 233,46 C235.8,43.5 239.6,41.7 243,40 C246.3,38.4 249.7,37.3 253,36 L245,27 L249,22 L255,33 C258.3,34.7 261.5,36.5 265,38 C268.8,39.6 273.6,39.8 277,42 C280.3,44.2 282.8,47.7 285,51 C287.2,54.3 289.3,58.1 290,62 C290.7,66.1 290.5,71.2 289,75 C287.5,78.8 284.2,82.5 281,85 C277.9,87.4 273.8,88.7 270,90 C266.1,91.3 261.8,92.3 258,93 C254.5,93.6 251.3,93.7 248,94Z" fill="#000000" stroke="#000000" stroke-width="1" fill-rule="evenodd" data-shape="18"/>
    <path d="M347,97 L351,93 L351,94 L353,93 C347.7,93.3 342.0,95.3 337,94 C331.9,92.7 326.2,89.1 323,85 C319.9,81.0 318.0,75.1 318,70 C318.0,64.8 319.8,58.2 323,54 C326.2,49.8 332.2,46.8 337,45 C341.2,43.4 345.7,43.7 350,43 L341,29 L342,29 C345.0,30.0 348.2,32.8 351,32 C354.6,31.0 357.6,24.1 361,20 C364.6,15.7 368.3,11.3 372,7 L372,8 L372,7 C371.7,13.0 374.0,21.4 371,25 C368.3,28.4 361.0,27.7 356,29 C355.7,29.3 355.3,29.7 355,30 C354.7,30.3 354.3,30.7 354,31 C353.7,31.3 353.4,31.6 353,32 C352.3,32.7 350.0,34.3 350,35 C350.0,35.4 350.8,35.6 351,36 C351.2,36.5 350.8,37.4 351,38 C351.2,38.7 351.8,39.3 352,40 C352.2,40.6 352.0,41.3 352,42 C352.0,42.7 351.8,43.4 352,44 C352.2,44.7 352.9,45.4 353,46 C353.1,46.4 353.0,46.7 353,47 C357.7,46.7 362.7,44.7 367,46 C371.4,47.3 376.2,51.2 379,55 C381.8,58.8 383.9,64.2 384,69 C384.1,73.9 381.8,79.9 379,84 C376.3,87.8 372.3,91.5 368,93 C363.6,94.6 358.0,93.0 353,93 L356,97 L347,97Z" fill="#000000" stroke="#000000" stroke-width="1" fill-rule="evenodd" data-shape="19"/>
  </g>
</svg>