<svg xmlns="http://www.w3.org/2000/svg" xmlns:mdcr="http://sensory.com/mdcr" viewBox="0 0 401 301" width="401" height="301">
  <metadata>
    <mdcr:info xmlns:mdcr="http://sensory.com/mdcr">
      <mdcr:source format="WMF" generator="wmf2svg.js"/>
      <mdcr:bounds left="0" top="0" right="6015" bottom="4515" inch="1440"/>
      <mdcr:records count="6">
        <mdcr:record tag="MDCR-{"/>
        <mdcr:record tag="MDCR-{"/>
        <mdcr:record tag="MDCR-}"/>
        <mdcr:record tag="MDCR-S"/>
        <mdcr:record tag="MDCR-}"/>
        <mdcr:record tag="MDCR-S"/>
      </mdcr:records>
    </mdcr:info>
  </metadata>
  <g data-mdcr="group" class="mdcr-region">
    <g data-mdcr="group" class="mdcr-region">
      <path d="M227,272 C224.2,274.3 220.5,275.7 217,277 C213.5,278.3 209.8,279.7 206,280 C202.1,280.4 197.8,279.9 194,279 C190.4,278.2 186.9,277.1 184,275 C180.9,272.8 178.0,269.3 176,266 C174.1,262.9 172.7,259.6 172,256 C171.3,252.2 171.1,247.7 172,244 C172.8,240.4 174.7,237.0 177,234 C179.4,230.9 182.7,228.0 186,226 C189.1,224.1 192.4,222.8 196,222 C199.8,221.1 204.1,220.6 208,221 C211.8,221.3 215.7,222.3 219,224 C222.3,225.7 225.3,228.3 228,231 C230.7,233.7 233.5,236.6 235,240 C236.6,243.5 237.2,248.1 237,252 C236.8,255.8 235.7,259.7 234,263 C232.3,266.3 229.9,269.7 227,272Z" fill="#00cc00" stroke="none" stroke-width="0" fill-rule="evenodd" data-shape="0"/>
      <path d="M208,251 C206.5,252.3 204.0,253.0 202,253 C200.0,253.0 197.2,252.4 196,251 C194.8,249.5 194.3,245.9 195,244 C195.7,242.2 198.1,240.5 200,240 C201.8,239.5 204.2,240.2 206,241 C207.9,241.8 210.6,243.4 211,245 C211.4,246.7 209.5,249.7 208,251Z" fill="#00aa00" stroke="none" stroke-width="0" fill-rule="evenodd" data-shape="1"/>
      <path d="M206,249 C204.8,250.2 200.2,250.2 199,249 C197.8,247.8 197.8,243.2 199,242 C200.2,240.8 204.8,240.8 206,242 C207.2,243.2 207.2,247.8 206,249Z" fill="#548700" stroke="none" stroke-width="0" fill-rule="evenodd" data-shape="2"/>
      <path d="M201,252 C203.7,252.3 206.8,253.9 209,253 C211.1,252.2 212.3,249.0 214,247 C212.3,248.3 211.0,250.2 209,251 C206.8,251.9 203.7,251.7 201,252Z" fill="#49f949" stroke="none" stroke-width="0" fill-rule="evenodd" data-shape="3"/>
      <path d="M199,246 C200.0,243.3 200.8,240.5 202,238 C203.2,235.5 204.5,233.2 206,231 C207.5,228.9 209.3,227.0 211,225 L216,230 C213.7,232.0 210.9,233.7 209,236 C207.3,238.1 206.8,241.3 205,243 C203.4,244.5 201.0,245.0 199,246Z" fill="#b55e00" stroke="none" stroke-width="0" fill-rule="evenodd" data-shape="4"/>
      <path d="M199,246 C200.0,243.3 200.8,240.5 202,238 C203.2,235.5 204.5,233.2 206,231 C207.5,228.9 209.3,227.0 211,225 L216,230 C213.7,232.0 210.9,233.7 209,236 C207.3,238.1 206.8,241.3 205,243 C203.4,244.5 201.0,245.0 199,246" fill="none" stroke="#000000" stroke-width="1"/>
      <path d="M223,240 L220,248 L212,255 L203,255 C203.7,257.3 203.4,260.8 205,262 C206.7,263.3 210.4,262.3 213,262 C215.7,261.7 218.5,261.1 221,260 C223.5,258.8 226.9,257.2 228,255 C229.1,252.9 228.8,249.5 228,247 C227.2,244.4 224.7,242.3 223,240Z" fill="#00e800" stroke="none" stroke-width="0" fill-rule="evenodd" data-shape="5"/>
      <path d="M172,256 C174.3,258.3 176.6,260.8 179,263 C181.3,265.1 183.4,267.2 186,269 C188.7,270.9 192.0,272.8 195,274 C197.7,275.1 200.3,276.0 203,276 C205.9,276.0 209.0,274.7 212,274 C215.0,273.3 218.4,272.0 221,272 C222.9,272.0 224.3,272.7 226,273 C223.0,274.3 220.0,275.8 217,277 C214.0,278.2 211.1,279.5 208,280 C204.8,280.5 201.2,280.4 198,280 C194.9,279.7 191.8,279.3 189,278 C186.1,276.7 183.2,274.3 181,272 C178.9,269.9 177.5,267.6 176,265 C174.4,262.3 173.3,259.0 172,256Z" fill="#00af00" stroke="none" stroke-width="0" fill-rule="evenodd" data-shape="6"/>
    </g>
    <path d="M48,94 L49,91 C44.7,89.7 39.7,89.2 36,87 C32.4,84.8 30.0,81.0 27,78 L28,78 C26.7,74.0 24.3,70.1 24,66 C23.6,61.8 24.2,56.9 26,53 C27.8,48.9 31.5,44.9 35,42 C38.3,39.3 42.1,37.3 46,36 C50.0,34.6 54.7,34.7 59,34 L59,25 L63,26 L62,34 C65.7,35.7 69.4,37.0 73,39 C76.7,41.0 81.3,42.8 84,46 C86.7,49.2 88.2,53.8 89,58 C89.8,62.2 90.0,66.9 89,71 C88.0,75.2 85.9,79.8 83,83 C80.2,86.1 76.0,88.3 72,90 C68.0,91.7 63.2,92.3 59,93 C55.2,93.6 51.7,93.7 48,94Z" fill="#000000" stroke="#000000" stroke-width="1" fill-rule="evenodd" data-shape="7"/>
    <path d="M153,93 C149.2,92.8 145.3,92.5 142,91 C138.6,89.5 135.7,86.7 133,84 C130.3,81.3 127.5,78.4 126,75 C124.4,71.5 123.8,66.9 124,63 C124.2,59.2 125.3,55.3 127,52 C128.7,48.7 131.2,45.5 134,43 C136.8,40.5 140.5,38.5 144,37 C147.5,35.5 151.3,34.3 155,34 C158.6,33.7 162.4,34.1 166,35 C169.8,36.0 173.8,37.8 177,40 C180.1,42.1 183.0,44.9 185,48 C187.0,51.2 188.3,55.3 189,59 C189.6,62.6 189.8,66.4 189,70 C188.2,73.8 186.3,77.9 184,81 C181.9,83.9 179.1,86.2 176,88 C172.8,89.9 168.8,91.2 165,92 C161.1,92.8 156.9,93.2 153,93Z" fill="#000000" stroke="#000000" stroke-width="1" fill-rule="evenodd" data-shape="8"/>
    <path d="M248,94 L249,91 C245.0,90.3 240.5,90.9 237,89 C233.1,86.9 230.3,81.7 227,78 L228,78 C226.7,74.3 224.3,70.8 224,67 C223.6,63.1 224.4,58.5 226,55 C227.5,51.6 230.2,48.5 233,46 C235.8,43.5 239.6,41.7 243,40 C246.3,38.4 249.7,37.3 253,36 L245,27 L249,22 L255,33 C258.3,34.7 261.5,36.5 265,38 C268.8,39.6 273.6,39.8 277,42 C280.3,44.2 282.8,47.7 285,51 C287.2,54.3 289.3,58.1 290,62 C290.7,66.1 290.5,71.2 289,75 C287.5,78.8 284.2,82.5 281,85 C277.9,87.4 273.8,88.7 270,90 C266.1,91.3 261.8,92.3 258,93 C254.5,93.6 251.3,93.7 248,94Z" fill="#000000" stroke="#000000" stroke-width="1" fill-rule="evenodd" data-shape="9"/>
    <path d="M347,97 L351,93 L351,94 L353,93 C347.7,93.3 342.0,95.3 337,94 C331.9,92.7 326.2,89.1 323,85 C319.9,81.0 318.0,75.1 318,70 C318.0,64.8 319.8,58.2 323,54 C326.2,49.8 332.2,46.8 337,45 C341.2,43.4 345.7,43.7 350,43 L341,29 L342,29 C345.0,30.0 348.2,32.8 351,32 C354.6,31.0 357.6,24.1 361,20 C364.6,15.7 368.3,11.3 372,7 L372,8 L372,7 C371.7,13.0 374.0,21.4 371,25 C368.3,28.4 361.0,27.7 356,29 C355.7,29.3 355.3,29.7 355,30 C354.7,30.3 354.3,30.7 354,31 C353.7,31.3 353.4,31.6 353,32 C352.3,32.7 350.0,34.3 350,35 C350.0,35.4 350.8,35.6 351,36 C351.2,36.5 350.8,37.4 351,38 C351.2,38.7 351.8,39.3 352,40 C352.2,40.6 352.0,41.3 352,42 C352.0,42.7 351.8,43.4 352,44 C352.2,44.7 352.9,45.4 353,46 C353.1,46.4 353.0,46.7 353,47 C357.7,46.7 362.7,44.7 367,46 C371.4,47.3 376.2,51.2 379,55 C381.8,58.8 383.9,64.2 384,69 C384.1,73.9 381.8,79.9 379,84 C376.3,87.8 372.3,91.5 368,93 C363.6,94.6 358.0,93.0 353,93 L356,97 L347,97Z" fill="#000000" stroke="#000000" stroke-width="1" fill-rule="evenodd" data-shape="10"/>
  </g>
</svg>