<svg xmlns="http://www.w3.org/2000/svg" xmlns:mdcr="http://sensory.com/mdcr" viewBox="0 0 401 301" width="401" height="301">
  <metadata>
    <mdcr:info xmlns:mdcr="http://sensory.com/mdcr">
      <mdcr:source format="WMF" generator="wmf2svg.js"/>
      <mdcr:bounds left="0" top="0" right="6015" bottom="4515" inch="1440"/>
      <mdcr:records count="5">
        <mdcr:record tag="MDCR-{"/>
        <mdcr:record tag="MDCR-{"/>
        <mdcr:record tag="MDCR-}"/>
        <mdcr:record tag="MDCR-S"/>
        <mdcr:record tag="MDCR-}"/>
      </mdcr:records>
    </mdcr:info>
  </metadata>
  <g data-mdcr="group" class="mdcr-region">
    <g data-mdcr="group" class="mdcr-region">
      <polygon points="193,271 192,276 199,278 201,272 193,271" fill="#aa602b" stroke="none" stroke-width="0" fill-rule="evenodd" data-shape="0"/>
      <polyline points="193,271 192,276 199,278 201,272 193,271" fill="none" stroke="#000000" stroke-width="1"/>
      <path d="M223,268 C220.2,270.3 216.6,271.8 213,273 C209.3,274.2 204.9,275.0 201,275 C197.3,275.0 193.6,273.9 190,273 C186.6,272.2 183.0,271.8 180,270 C176.9,268.2 174.0,265.1 172,262 C170.0,258.8 168.7,254.7 168,251 C167.4,247.4 167.2,243.6 168,240 C168.8,236.2 170.6,232.0 173,229 C175.3,226.1 178.7,223.8 182,222 C185.4,220.1 189.3,218.8 193,218 C196.6,217.2 200.4,216.7 204,217 C207.7,217.3 211.7,218.3 215,220 C218.3,221.7 221.3,224.3 224,227 C226.7,229.7 229.5,232.6 231,236 C232.6,239.5 233.2,244.1 233,248 C232.8,251.8 231.7,255.7 230,259 C228.3,262.3 225.9,265.7 223,268Z" fill="#eded72" stroke="none" stroke-width="0" fill-rule="evenodd" data-shape="1"/>
      <path d="M201,234 C202.3,236.3 203.1,239.5 205,241 C206.8,242.4 209.6,242.7 212,243 C214.6,243.4 218.0,244.2 220,243 C222.0,241.8 223.9,238.4 224,236 C224.1,233.7 222.7,230.3 221,229 C219.5,227.8 216.9,227.5 215,228 C212.9,228.6 211.3,232.0 209,233 C206.7,234.0 203.7,233.7 201,234Z" fill="#ededd6" stroke="none" stroke-width="0" fill-rule="evenodd" data-shape="2"/>
      <path d="M196,230 L196,229 C194.0,227.3 190.0,225.7 190,224 C190.0,222.3 194.0,220.7 196,219 L196,218 C198.3,218.0 200.8,217.5 203,218 C205.1,218.5 208.0,219.4 209,221 C209.9,222.5 209.9,225.5 209,227 C208.0,228.6 205.1,229.5 203,230 C200.8,230.5 198.3,230.0 196,230Z" fill="#eddd72" stroke="none" stroke-width="0" fill-rule="evenodd" data-shape="3"/>
      <path d="M195,226 L195,222 C195.3,222.0 195.7,222.1 196,222 C196.4,221.8 196.7,221.3 197,221 C197.3,220.7 197.6,220.2 198,220 C198.3,219.9 198.6,220.0 199,220 C199.6,220.0 200.4,220.0 201,220 C201.4,220.0 201.7,220.0 202,220 C202.3,220.0 202.7,219.9 203,220 C203.4,220.2 203.7,220.7 204,221 C204.3,221.3 204.6,221.8 205,222 C205.3,222.1 205.7,222.0 206,222 L206,226 C205.7,226.0 205.3,225.9 205,226 C204.6,226.2 204.3,226.7 204,227 C203.7,227.3 203.4,227.8 203,228 C202.7,228.1 202.3,228.0 202,228 C201.7,228.0 201.4,228.0 201,228 C200.4,228.0 199.6,228.0 199,228 C198.6,228.0 198.3,228.1 198,228 C197.6,227.8 197.3,227.3 197,227 C196.7,226.7 196.4,226.2 196,226 C195.7,225.9 195.3,226.0 195,226Z" fill="#d8c454" stroke="none" stroke-width="0" fill-rule="evenodd" data-shape="4"/>
      <path d="M198,231 C201.3,231.3 205.3,233.0 208,232 C210.5,231.1 212.0,228.0 214,226 C211.7,227.3 209.6,229.2 207,230 C204.3,230.9 201.0,230.7 198,231Z" fill="#ededd6" stroke="none" stroke-width="0" fill-rule="evenodd" data-shape="5"/>
      <path d="M202,207 C203.3,208.3 205.6,209.3 206,211 C206.5,212.9 204.8,215.7 204,218 C203.2,220.4 202.0,222.7 201,225 C200.3,223.7 199.0,222.5 199,221 C198.9,219.0 201.5,216.4 202,214 C202.5,211.7 202.0,209.3 202,207Z" fill="#b55e00" stroke="none" stroke-width="0" fill-rule="evenodd" data-shape="6"/>
      <path d="M198,224 C199.3,221.3 201.3,218.8 202,216 C202.7,213.2 202.0,210.0 202,207 C203.0,209.0 204.8,210.8 205,213 C205.3,215.4 204.4,219.1 203,221 C201.8,222.6 199.7,223.0 198,224" fill="none" stroke="#000000" stroke-width="1"/>
      <path d="M170,260 C173.0,261.0 175.9,262.0 179,263 C182.2,264.0 185.7,265.3 189,266 C192.1,266.6 194.9,266.8 198,267 C201.2,267.2 204.7,267.3 208,267 C211.3,266.7 214.8,265.7 218,265 C221.1,264.3 224.0,263.7 227,263 C224.0,265.3 221.1,268.1 218,270 C215.1,271.7 212.2,273.2 209,274 C205.6,274.9 201.7,275.2 198,275 C194.3,274.8 190.4,274.2 187,273 C183.7,271.8 180.8,270.1 178,268 C175.1,265.8 172.7,262.7 170,260Z" fill="#edd86b" stroke="none" stroke-width="0" fill-rule="evenodd" data-shape="7"/>
      <path d="M184,230 C181.8,230.7 179.6,232.2 178,234 C176.3,235.9 174.8,238.5 174,241 C173.2,243.5 173.0,246.3 173,249 C173.0,251.7 173.2,254.5 174,257 C174.8,259.5 176.2,262.3 178,264 C179.6,265.5 182.7,267.6 184,267 C185.5,266.3 185.5,261.6 186,259 C186.5,256.6 186.2,254.3 187,252 C187.8,249.6 189.8,247.5 191,245 C192.2,242.5 194.1,239.6 194,237 C193.9,234.6 192.7,231.1 191,230 C189.3,228.9 186.2,229.3 184,230Z" fill="#fc7772" stroke="none" stroke-width="0" fill-rule="evenodd" data-shape="8"/>
      <path d="M197,243 C195.7,245.7 193.7,248.2 193,251 C192.3,253.8 193.0,257.0 193,260 C192.3,257.7 191.1,255.3 191,253 C190.9,250.9 191.0,248.7 192,247 C193.0,245.3 195.3,244.3 197,243Z" fill="#fc7772" stroke="none" stroke-width="0" fill-rule="evenodd" data-shape="9"/>
      <polygon points="189,253 187,268 185,264 187,257 189,253" fill="#fc7772" stroke="none" stroke-width="0" fill-rule="evenodd" data-shape="10"/>
      <polygon points="191,246 187,256 189,248 191,246" fill="#fc7772" stroke="none" stroke-width="0" fill-rule="evenodd" data-shape="11"/>
      <polygon points="175,236 170,242 172,251 172,241 175,236" fill="#fc7772" stroke="none" stroke-width="0" fill-rule="evenodd" data-shape="12"/>
      <path d="M187,261 L187,260 L187,259 L188,258 L188,256 L189,255 L190,254 L190,253 L191,252 L190,254 L189,255 L189,257 L189,259 L189,260 L189,262 L190,264 L190,265 L189,265 L189,264 L188,264 L188,263 L187,262Z" fill="#fc7772" stroke="none" stroke-width="0" fill-rule="evenodd" data-shape="13"/>
      <polygon points="187,232 181,237 181,247 182,239 187,232" fill="#eded7c" stroke="none" stroke-width="0" fill-rule="evenodd" data-shape="14"/>
      <path d="M186,230 C184.0,231.3 181.7,232.3 180,234 C178.3,235.7 176.8,237.9 176,240 C175.2,241.9 175.3,244.0 175,246 C176.3,243.0 177.2,239.7 179,237 C180.8,234.3 183.7,232.3 186,230Z" fill="#eded7c" stroke="none" stroke-width="0" fill-rule="evenodd" data-shape="15"/>
    </g>
    <path d="M66,94 L65,91 C69.3,89.7 74.3,89.2 78,87 C81.6,84.8 84.0,81.0 87,78 L86,78 C87.3,74.0 89.7,70.1 90,66 C90.4,61.8 89.8,56.9 88,53 C86.2,48.9 82.5,44.9 79,42 C75.7,39.3 71.9,37.3 68,36 C64.0,34.6 59.3,34.7 55,34 L55,25 L51,26 L52,34 C48.3,35.7 44.6,37.0 41,39 C37.3,41.0 32.7,42.8 30,46 C27.3,49.2 25.8,53.8 25,58 C24.2,62.2 24.0,66.9 25,71 C26.0,75.2 28.1,79.8 31,83 C33.8,86.1 38.0,88.3 42,90 C46.0,91.7 50.8,92.3 55,93 C58.8,93.6 62.3,93.7 66,94Z" fill="#000000" stroke="#000000" stroke-width="1" fill-rule="evenodd" data-shape="16"/>
    <path d="M153,97 L157,93 L157,94 L159,93 C153.7,93.3 148.0,95.3 143,94 C137.9,92.7 132.2,89.1 129,85 C125.9,81.0 124.0,75.1 124,70 C124.0,64.8 125.8,58.2 129,54 C132.2,49.8 138.2,46.8 143,45 C147.2,43.4 151.7,43.7 156,43 L147,29 L148,29 C151.0,30.0 154.2,32.8 157,32 C160.6,31.0 163.6,24.1 167,20 C170.6,15.7 174.3,11.3 178,7 L178,8 L178,7 C177.7,13.0 180.0,21.4 177,25 C174.3,28.4 167.0,27.7 162,29 C161.7,29.3 161.3,29.7 161,30 C160.7,30.3 160.3,30.7 160,31 C159.7,31.3 159.4,31.6 159,32 C158.3,32.7 156.0,34.3 156,35 C156.0,35.4 156.8,35.6 157,36 C157.2,36.5 156.8,37.4 157,38 C157.2,38.7 157.8,39.3 158,40 C158.2,40.6 158.0,41.3 158,42 C158.0,42.7 157.8,43.4 158,44 C158.2,44.7 158.9,45.4 159,46 C159.1,46.4 159.0,46.7 159,47 C163.7,46.7 168.7,44.7 173,46 C177.4,47.3 182.2,51.2 185,55 C187.8,58.8 189.9,64.2 190,69 C190.1,73.9 187.8,79.9 185,84 C182.3,87.8 178.3,91.5 174,93 C169.6,94.6 164.0,93.0 159,93 L162,97 L153,97Z" fill="#000000" stroke="#000000" stroke-width="1" fill-rule="evenodd" data-shape="17"/>
    <path d="M266,94 L265,91 C269.0,90.3 273.5,90.9 277,89 C280.9,86.9 283.7,81.7 287,78 L286,78 C287.3,74.3 289.7,70.8 290,67 C290.4,63.1 289.6,58.5 288,55 C286.5,51.6 283.8,48.5 281,46 C278.2,43.5 274.4,41.7 271,40 C267.7,38.4 264.3,37.3 261,36 L269,27 L265,22 L259,33 C255.7,34.7 252.5,36.5 249,38 C245.2,39.6 240.4,39.8 237,42 C233.7,44.2 231.2,47.7 229,51 C226.8,54.3 224.7,58.1 224,62 C223.3,66.1 223.5,71.2 225,75 C226.5,78.8 229.8,82.5 233,85 C236.1,87.4 240.2,88.7 244,90 C247.9,91.3 252.2,92.3 256,93 C259.5,93.6 262.7,93.7 266,94Z" fill="#000000" stroke="#000000" stroke-width="1" fill-rule="evenodd" data-shape="18"/>
    <path d="M347,93 C343.2,92.8 339.3,92.5 336,91 C332.6,89.5 329.7,86.7 327,84 C324.3,81.3 321.5,78.4 320,75 C318.4,71.5 317.8,66.9 318,63 C318.2,59.2 319.3,55.3 321,52 C322.7,48.7 325.2,45.5 328,43 C330.8,40.5 334.5,38.5 338,37 C341.5,35.5 345.3,34.3 349,34 C352.6,33.7 356.4,34.1 360,35 C363.8,36.0 367.8,37.8 371,40 C374.1,42.1 377.0,44.9 379,48 C381.0,51.2 382.3,55.3 383,59 C383.6,62.6 383.8,66.4 383,70 C382.2,73.8 380.3,77.9 378,81 C375.9,83.9 373.1,86.2 370,88 C366.8,89.9 362.8,91.2 359,92 C355.1,92.8 350.9,93.2 347,93Z" fill="#000000" stroke="#000000" stroke-width="1" fill-rule="evenodd" data-shape="19"/>
  </g>
</svg>