<svg xmlns="http://www.w3.org/2000/svg" xmlns:mdcr="http://sensory.com/mdcr" viewBox="0 0 401 301" width="401" height="301">
  <metadata>
    <mdcr:info xmlns:mdcr="http://sensory.com/mdcr">
      <mdcr:source format="WMF" generator="wmf2svg.js"/>
      <mdcr:bounds left="0" top="0" right="6015" bottom="4515" inch="1440"/>
      <mdcr:records count="6">
        <mdcr:record tag="MDCR-{"/>
        <mdcr:record tag="MDCR-{"/>
        <mdcr:record tag="MDCR-}"/>
        <mdcr:record tag="MDCR-S"/>
        <mdcr:record tag="MDCR-}"/>
        <mdcr:record tag="MDCR-S"/>
      </mdcr:records>
    </mdcr:info>
  </metadata>
  <g data-mdcr="group" class="mdcr-region">
    <g data-mdcr="group" class="mdcr-region">
      <path d="M221,270 C218.2,272.3 214.5,273.7 211,275 C207.5,276.3 203.8,277.7 200,278 C196.1,278.4 191.8,277.9 188,277 C184.4,276.2 180.9,275.1 178,273 C174.9,270.8 172.0,267.3 170,264 C168.1,260.9 166.7,257.6 166,254 C165.3,250.2 165.1,245.7 166,242 C166.8,238.4 168.7,235.0 171,232 C173.4,228.9 176.7,226.0 180,224 C183.1,222.1 186.4,220.8 190,220 C193.8,219.1 198.1,218.6 202,219 C205.8,219.3 209.7,220.3 213,222 C216.3,223.7 219.3,226.3 222,229 C224.7,231.7 227.5,234.6 229,238 C230.6,241.5 231.2,246.1 231,250 C230.8,253.8 229.7,257.7 228,261 C226.3,264.3 223.9,267.7 221,270Z" fill="#00cc00" stroke="none" stroke-width="0" fill-rule="evenodd" data-shape="0"/>
      <path d="M202,249 C200.5,250.3 198.0,251.0 196,251 C194.0,251.0 191.2,250.4 190,249 C188.8,247.5 188.3,243.9 189,242 C189.7,240.2 192.1,238.5 194,238 C195.8,237.5 198.2,238.2 200,239 C201.9,239.8 204.6,241.4 205,243 C205.4,244.7 203.5,247.7 202,249Z" fill="#00aa00" stroke="none" stroke-width="0" fill-rule="evenodd" data-shape="1"/>
      <path d="M200,247 C198.8,248.2 194.2,248.2 193,247 C191.8,245.8 191.8,241.2 193,240 C194.2,238.8 198.8,238.8 200,240 C201.2,241.2 201.2,245.8 200,247Z" fill="#548700" stroke="none" stroke-width="0" fill-rule="evenodd" data-shape="2"/>
      <path d="M195,250 C197.7,250.3 200.8,251.9 203,251 C205.1,250.2 206.3,247.0 208,245 C206.3,246.3 205.0,248.2 203,249 C200.8,249.9 197.7,249.7 195,250Z" fill="#49f949" stroke="none" stroke-width="0" fill-rule="evenodd" data-shape="3"/>
      <path d="M193,244 C194.0,241.3 194.8,238.5 196,236 C197.2,233.5 198.5,231.2 200,229 C201.5,226.9 203.3,225.0 205,223 L210,228 C207.7,230.0 204.9,231.7 203,234 C201.3,236.1 200.8,239.3 199,241 C197.4,242.5 195.0,243.0 193,244Z" fill="#b55e00" stroke="none" stroke-width="0" fill-rule="evenodd" data-shape="4"/>
      <path d="M193,244 C194.0,241.3 194.8,238.5 196,236 C197.2,233.5 198.5,231.2 200,229 C201.5,226.9 203.3,225.0 205,223 L210,228 C207.7,230.0 204.9,231.7 203,234 C201.3,236.1 200.8,239.3 199,241 C197.4,242.5 195.0,243.0 193,244" fill="none" stroke="#000000" stroke-width="1"/>
      <path d="M217,238 L214,246 L206,253 L197,253 C197.7,255.3 197.4,258.8 199,260 C200.7,261.3 204.4,260.3 207,260 C209.7,259.7 212.5,259.1 215,258 C217.5,256.8 220.9,255.2 222,253 C223.1,250.9 222.8,247.5 222,245 C221.2,242.4 218.7,240.3 217,238Z" fill="#00e800" stroke="none" stroke-width="0" fill-rule="evenodd" data-shape="5"/>
      <path d="M166,254 C168.3,256.3 170.6,258.8 173,261 C175.3,263.1 177.4,265.2 180,267 C182.7,268.9 186.0,270.8 189,272 C191.7,273.1 194.3,274.0 197,274 C199.9,274.0 203.0,272.7 206,272 C209.0,271.3 212.4,270.0 215,270 C216.9,270.0 218.3,270.7 220,271 C217.0,272.3 214.0,273.8 211,275 C208.0,276.2 205.1,277.5 202,278 C198.8,278.5 195.2,278.4 192,278 C188.9,277.7 185.8,277.3 183,276 C180.1,274.7 177.2,272.3 175,270 C172.9,267.9 171.5,265.6 170,263 C168.4,260.3 167.3,257.0 166,254Z" fill="#00af00" stroke="none" stroke-width="0" fill-rule="evenodd" data-shape="6"/>
    </g>
    <path d="M66,94 L65,91 C69.3,89.7 74.3,89.2 78,87 C81.6,84.8 84.0,81.0 87,78 L86,78 C87.3,74.0 89.7,70.1 90,66 C90.4,61.8 89.8,56.9 88,53 C86.2,48.9 82.5,44.9 79,42 C75.7,39.3 71.9,37.3 68,36 C64.0,34.6 59.3,34.7 55,34 L55,25 L51,26 L52,34 C48.3,35.7 44.6,37.0 41,39 C37.3,41.0 32.7,42.8 30,46 C27.3,49.2 25.8,53.8 25,58 C24.2,62.2 24.0,66.9 25,71 C26.0,75.2 28.1,79.8 31,83 C33.8,86.1 38.0,88.3 42,90 C46.0,91.7 50.8,92.3 55,93 C58.8,93.6 62.3,93.7 66,94Z" fill="#000000" stroke="#000000" stroke-width="1" fill-rule="evenodd" data-shape="7"/>
    <path d="M153,97 L157,93 L157,94 L159,93 C153.7,93.3 148.0,95.3 143,94 C137.9,92.7 132.2,89.1 129,85 C125.9,81.0 124.0,75.1 124,70 C124.0,64.8 125.8,58.2 129,54 C132.2,49.8 138.2,46.8 143,45 C147.2,43.4 151.7,43.7 156,43 L147,29 L148,29 C151.0,30.0 154.2,32.8 157,32 C160.6,31.0 163.6,24.1 167,20 C170.6,15.7 174.3,11.3 178,7 L178,8 L178,7 C177.7,13.0 180.0,21.4 177,25 C174.3,28.4 167.0,27.7 162,29 C161.7,29.3 161.3,29.7 161,30 C160.7,30.3 160.3,30.7 160,31 C159.7,31.3 159.4,31.6 159,32 C158.3,32.7 156.0,34.3 156,35 C156.0,35.4 156.8,35.6 157,36 C157.2,36.5 156.8,37.4 157,38 C157.2,38.7 157.8,39.3 158,40 C158.2,40.6 158.0,41.3 158,42 C158.0,42.7 157.8,43.4 158,44 C158.2,44.7 158.9,45.4 159,46 C159.1,46.4 159.0,46.7 159,47 C163.7,46.7 168.7,44.7 173,46 C177.4,47.3 182.2,51.2 185,55 C187.8,58.8 189.9,64.2 190,69 C190.1,73.9 187.8,79.9 185,84 C182.3,87.8 178.3,91.5 174,93 C169.6,94.6 164.0,93.0 159,93 L162,97 L153,97Z" fill="#000000" stroke="#000000" stroke-width="1" fill-rule="evenodd" data-shape="8"/>
    <path d="M266,94 L265,91 C269.0,90.3 273.5,90.9 277,89 C280.9,86.9 283.7,81.7 287,78 L286,78 C287.3,74.3 289.7,70.8 290,67 C290.4,63.1 289.6,58.5 288,55 C286.5,51.6 283.8,48.5 281,46 C278.2,43.5 274.4,41.7 271,40 C267.7,38.4 264.3,37.3 261,36 L269,27 L265,22 L259,33 C255.7,34.7 252.5,36.5 249,38 C245.2,39.6 240.4,39.8 237,42 C233.7,44.2 231.2,47.7 229,51 C226.8,54.3 224.7,58.1 224,62 C223.3,66.1 223.5,71.2 225,75 C226.5,78.8 229.8,82.5 233,85 C236.1,87.4 240.2,88.7 244,90 C247.9,91.3 252.2,92.3 256,93 C259.5,93.6 262.7,93.7 266,94Z" fill="#000000" stroke="#000000" stroke-width="1" fill-rule="evenodd" data-shape="9"/>
    <path d="M347,93 C343.2,92.8 339.3,92.5 336,91 C332.6,89.5 329.7,86.7 327,84 C324.3,81.3 321.5,78.4 320,75 C318.4,71.5 317.8,66.9 318,63 C318.2,59.2 319.3,55.3 321,52 C322.7,48.7 325.2,45.5 328,43 C330.8,40.5 334.5,38.5 338,37 C341.5,35.5 345.3,34.3 349,34 C352.6,33.7 356.4,34.1 360,35 C363.8,36.0 367.8,37.8 371,40 C374.1,42.1 377.0,44.9 379,48 C381.0,51.2 382.3,55.3 383,59 C383.6,62.6 383.8,66.4 383,70 C382.2,73.8 380.3,77.9 378,81 C375.9,83.9 373.1,86.2 370,88 C366.8,89.9 362.8,91.2 359,92 C355.1,92.8 350.9,93.2 347,93Z" fill="#000000" stroke="#000000" stroke-width="1" fill-rule="evenodd" data-shape="10"/>
  </g>
</svg>