<svg xmlns="http://www.w3.org/2000/svg" xmlns:mdcr="http://sensory.com/mdcr" viewBox="0 0 401 301" width="401" height="301">
  <metadata>
    <mdcr:info xmlns:mdcr="http://sensory.com/mdcr">
      <mdcr:source format="WMF" generator="wmf2svg.js"/>
      <mdcr:bounds left="0" top="0" right="6015" bottom="4515" inch="1440"/>
      <mdcr:records count="5">
        <mdcr:record tag="MDCR-{"/>
        <mdcr:record tag="MDCR-{"/>
        <mdcr:record tag="MDCR-}"/>
        <mdcr:record tag="MDCR-S"/>
        <mdcr:record tag="MDCR-}"/>
      </mdcr:records>
    </mdcr:info>
  </metadata>
  <g data-mdcr="group" class="mdcr-region">
    <g data-mdcr="group" class="mdcr-region">
      <path d="M193,213 L197,210 L202,218 L208,215 C206.3,217.0 203.5,218.7 203,221 C202.5,223.4 205.1,226.5 205,229 C204.9,231.2 203.7,233.0 203,235 C202.7,232.3 202.6,229.6 202,227 C201.3,224.3 200.5,221.3 199,219 C197.5,216.7 195.0,215.0 193,213Z" fill="#a87047" stroke="none" stroke-width="0" fill-rule="evenodd" data-shape="0"/>
      <path d="M203,235 C202.7,232.3 202.8,229.6 202,227 C201.2,224.3 199.6,221.4 198,219 C196.5,216.8 194.7,215.0 193,213 L197,210 L202,218 L208,215 C206.3,217.3 203.5,219.5 203,222 C202.5,224.5 205.2,227.7 205,230 C204.9,231.9 203.7,233.3 203,235" fill="none" stroke="#000000" stroke-width="1"/>
      <path d="M224,193 C224.3,195.7 225.0,198.3 225,201 C225.0,203.7 225.0,206.7 224,209 C223.0,211.3 221.1,213.8 219,215 C217.0,216.1 213.7,216.8 212,216 C210.5,215.3 208.9,212.7 209,211 C209.2,209.0 212.3,206.9 214,205 C215.6,203.2 217.4,201.9 219,200 C220.8,197.9 222.3,195.3 224,193Z" fill="#548700" stroke="none" stroke-width="0" fill-rule="evenodd" data-shape="1"/>
      <path d="M208,215 C208.7,213.0 208.9,210.8 210,209 C211.2,207.1 213.3,205.7 215,204 C216.7,202.3 218.5,200.8 220,199 C221.5,197.2 222.7,195.0 224,193 C224.3,195.3 225.0,197.7 225,200 C225.0,202.3 224.6,204.7 224,207 C223.3,209.4 222.6,212.5 221,214 C219.5,215.4 217.1,215.8 215,216 C212.8,216.2 210.3,215.3 208,215" fill="none" stroke="#000000" stroke-width="1"/>
      <path d="M209,215 L224,193 C223.3,195.0 222.8,197.0 222,199 C221.2,201.0 220.2,203.1 219,205 C217.8,206.8 216.6,208.4 215,210 C213.3,211.8 211.0,213.3 209,215Z" fill="#3d6b00" stroke="none" stroke-width="0" fill-rule="evenodd" data-shape="2"/>
      <path d="M219,200 C216.7,202.3 213.9,204.4 212,207 C210.2,209.4 209.3,212.3 208,215 L219,200Z" fill="#669b00" stroke="none" stroke-width="0" fill-rule="evenodd" data-shape="3"/>
      <path d="M203,234 C203.0,231.3 203.5,228.6 203,226 C202.5,223.3 201.7,220.0 200,218 C198.3,216.0 195.3,215.3 193,214 C195.0,215.7 197.7,217.0 199,219 C200.3,221.0 200.4,223.6 201,226 C201.7,228.6 202.3,231.3 203,234Z" fill="#87512b" stroke="none" stroke-width="0" fill-rule="evenodd" data-shape="4"/>
      <path d="M226,275 C222.8,277.1 218.7,278.5 215,279 C211.4,279.5 207.7,277.8 204,278 C200.3,278.2 196.6,280.2 193,280 C189.3,279.8 185.1,278.9 182,277 C178.8,275.0 176.0,271.4 174,268 C172.0,264.5 170.3,259.9 170,256 C169.7,252.3 170.5,248.4 172,245 C173.7,241.4 176.8,237.4 180,235 C182.9,232.8 186.4,231.5 190,231 C193.8,230.4 198.1,232.0 202,232 C205.7,232.0 209.3,230.7 213,231 C216.9,231.3 221.7,232.0 225,234 C228.3,236.0 231.2,239.6 233,243 C234.8,246.3 235.8,250.2 236,254 C236.2,257.9 235.7,262.5 234,266 C232.3,269.5 229.2,272.8 226,275Z" fill="#ef2b23" stroke="none" stroke-width="0" fill-rule="evenodd" data-shape="5"/>
      <polygon points="203,279 200,282 209,282 206,278 203,279" fill="#a86b42" stroke="none" stroke-width="0" fill-rule="evenodd" data-shape="6"/>
      <polyline points="203,279 200,282 209,282 206,278 203,279" fill="none" stroke="#000000" stroke-width="1"/>
      <path d="M215,231 C213.1,230.8 211.2,233.3 209,234 C206.6,234.7 201.3,234.1 201,235 C200.8,235.8 204.0,238.3 206,239 C208.2,239.8 211.6,239.7 214,239 C216.3,238.3 219.9,236.4 220,235 C220.1,233.7 216.8,231.2 215,231Z" fill="#f9595b" stroke="none" stroke-width="0" fill-rule="evenodd" data-shape="7"/>
      <path d="M179,270 C179.5,268.7 184.9,268.9 188,269 C191.3,269.1 194.7,270.8 198,271 C201.3,271.2 204.8,270.7 208,270 C211.1,269.3 214.0,268.2 217,267 C220.0,265.8 223.1,264.2 226,263 C228.7,261.9 233.1,259.1 234,260 C235.0,260.9 232.6,266.4 231,269 C229.3,271.7 226.8,274.5 224,276 C221.2,277.5 217.2,278.0 214,278 C210.9,278.0 208.1,275.9 205,276 C201.7,276.1 198.4,278.8 195,279 C191.7,279.2 187.7,278.6 185,277 C182.4,275.5 178.5,271.3 179,270Z" fill="#dd0000" stroke="none" stroke-width="0" fill-rule="evenodd" data-shape="8"/>
    </g>
    <path d="M66,94 L65,91 C69.3,89.7 74.3,89.2 78,87 C81.6,84.8 84.0,81.0 87,78 L86,78 C87.3,74.0 89.7,70.1 90,66 C90.4,61.8 89.8,56.9 88,53 C86.2,48.9 82.5,44.9 79,42 C75.7,39.3 71.9,37.3 68,36 C64.0,34.6 59.3,34.7 55,34 L55,25 L51,26 L52,34 C48.3,35.7 44.6,37.0 41,39 C37.3,41.0 32.7,42.8 30,46 C27.3,49.2 25.8,53.8 25,58 C24.2,62.2 24.0,66.9 25,71 C26.0,75.2 28.1,79.8 31,83 C33.8,86.1 38.0,88.3 42,90 C46.0,91.7 50.8,92.3 55,93 C58.8,93.6 62.3,93.7 66,94Z" fill="#000000" stroke="#000000" stroke-width="1" fill-rule="evenodd" data-shape="9"/>
    <path d="M153,97 L157,93 L157,94 L159,93 C153.7,93.3 148.0,95.3 143,94 C137.9,92.7 132.2,89.1 129,85 C125.9,81.0 124.0,75.1 124,70 C124.0,64.8 125.8,58.2 129,54 C132.2,49.8 138.2,46.8 143,45 C147.2,43.4 151.7,43.7 156,43 L147,29 L148,29 C151.0,30.0 154.2,32.8 157,32 C160.6,31.0 163.6,24.1 167,20 C170.6,15.7 174.3,11.3 178,7 L178,8 L178,7 C177.7,13.0 180.0,21.4 177,25 C174.3,28.4 167.0,27.7 162,29 C161.7,29.3 161.3,29.7 161,30 C160.7,30.3 160.3,30.7 160,31 C159.7,31.3 159.4,31.6 159,32 C158.3,32.7 156.0,34.3 156,35 C156.0,35.4 156.8,35.6 157,36 C157.2,36.5 156.8,37.4 157,38 C157.2,38.7 157.8,39.3 158,40 C158.2,40.6 158.0,41.3 158,42 C158.0,42.7 157.8,43.4 158,44 C158.2,44.7 158.9,45.4 159,46 C159.1,46.4 159.0,46.7 159,47 C163.7,46.7 168.7,44.7 173,46 C177.4,47.3 182.2,51.2 185,55 C187.8,58.8 189.9,64.2 190,69 C190.1,73.9 187.8,79.9 185,84 C182.3,87.8 178.3,91.5 174,93 C169.6,94.6 164.0,93.0 159,93 L162,97 L153,97Z" fill="#000000" stroke="#000000" stroke-width="1" fill-rule="evenodd" data-shape="10"/>
    <path d="M266,94 L265,91 C269.0,90.3 273.5,90.9 277,89 C280.9,86.9 283.7,81.7 287,78 L286,78 C287.3,74.3 289.7,70.8 290,67 C290.4,63.1 289.6,58.5 288,55 C286.5,51.6 283.8,48.5 281,46 C278.2,43.5 274.4,41.7 271,40 C267.7,38.4 264.3,37.3 261,36 L269,27 L265,22 L259,33 C255.7,34.7 252.5,36.5 249,38 C245.2,39.6 240.4,39.8 237,42 C233.7,44.2 231.2,47.7 229,51 C226.8,54.3 224.7,58.1 224,62 C223.3,66.1 223.5,71.2 225,75 C226.5,78.8 229.8,82.5 233,85 C236.1,87.4 240.2,88.7 244,90 C247.9,91.3 252.2,92.3 256,93 C259.5,93.6 262.7,93.7 266,94Z" fill="#000000" stroke="#000000" stroke-width="1" fill-rule="evenodd" data-shape="11"/>
    <path d="M347,93 C343.2,92.8 339.3,92.5 336,91 C332.6,89.5 329.7,86.7 327,84 C324.3,81.3 321.5,78.4 320,75 C318.4,71.5 317.8,66.9 318,63 C318.2,59.2 319.3,55.3 321,52 C322.7,48.7 325.2,45.5 328,43 C330.8,40.5 334.5,38.5 338,37 C341.5,35.5 345.3,34.3 349,34 C352.6,33.7 356.4,34.1 360,35 C363.8,36.0 367.8,37.8 371,40 C374.1,42.1 377.0,44.9 379,48 C381.0,51.2 382.3,55.3 383,59 C383.6,62.6 383.8,66.4 383,70 C382.2,73.8 380.3,77.9 378,81 C375.9,83.9 373.1,86.2 370,88 C366.8,89.9 362.8,91.2 359,92 C355.1,92.8 350.9,93.2 347,93Z" fill="#000000" stroke="#000000" stroke-width="1" fill-rule="evenodd" data-shape="12"/>
  </g>
</svg>