<svg xmlns="http://www.w3.org/2000/svg" xmlns:mdcr="http://sensory.com/mdcr" viewBox="0 0 401 301" width="401" height="301">
  <metadata>
    <mdcr:info xmlns:mdcr="http://sensory.com/mdcr">
      <mdcr:source format="WMF" generator="wmf2svg.js"/>
      <mdcr:bounds left="0" top="0" right="6015" bottom="4515" inch="1440"/>
      <mdcr:records count="14">
        <mdcr:record tag="MDCR-{"/>
        <mdcr:record tag="MDCR-{"/>
        <mdcr:record tag="MDCR-}"/>
        <mdcr:record tag="MDCR-S"/>
        <mdcr:record tag="MDCR-{"/>
        <mdcr:record tag="MDCR-}"/>
        <mdcr:record tag="MDCR-S"/>
        <mdcr:record tag="MDCR-{"/>
        <mdcr:record tag="MDCR-}"/>
        <mdcr:record tag="MDCR-S"/>
        <mdcr:record tag="MDCR-{"/>
        <mdcr:record tag="MDCR-}"/>
        <mdcr:record tag="MDCR-S"/>
        <mdcr:record tag="MDCR-}"/>
      </mdcr:records>
    </mdcr:info>
  </metadata>
  <g data-mdcr="group" class="mdcr-region">
    <g data-mdcr="group" class="mdcr-region">
      <path d="M215,247 C214.7,249.7 215.1,253.0 214,255 C213.0,256.8 211.0,257.9 209,259 C206.7,260.3 203.6,261.0 201,262 C198.6,263.0 196.4,264.2 194,265 C191.7,265.8 189.3,266.3 187,267 L180,269 C177.0,270.0 172.8,270.2 171,272 C169.5,273.5 169.7,276.0 169,278" fill="none" stroke="#000000" stroke-width="1"/>
      <polygon points="212,243 212,248 215,248 218,242 212,243" fill="#00bbff" stroke="#000000" stroke-width="1" fill-rule="evenodd" data-shape="0"/>
      <path d="M192,228 C194.5,230.8 197.3,233.5 200,236 C202.6,238.5 204.9,241.9 208,243 C211.0,244.1 214.9,243.8 218,243 C221.2,242.2 224.2,240.1 227,238 C229.9,235.8 232.5,232.8 235,230 C237.5,227.2 240.1,224.1 242,221 C243.7,218.1 245.5,215.2 246,212 C246.6,208.6 246.2,204.3 245,201 C243.8,197.7 241.4,194.5 239,192 C236.7,189.6 233.9,187.6 231,186 C228.0,184.3 224.5,182.8 221,182 C217.5,181.2 213.5,180.6 210,181 C206.6,181.3 203.1,182.5 200,184 C196.8,185.5 193.5,187.6 191,190 C188.6,192.3 186.3,194.9 185,198 C183.6,201.2 183.0,205.4 183,209 C183.0,212.4 183.6,215.9 185,219 C186.5,222.3 189.5,225.2 192,228Z" fill="#00bbff" stroke="#000000" stroke-width="1" fill-rule="evenodd" data-shape="1"/>
    </g>
    <g data-mdcr="group" class="mdcr-region">
      <path d="M58,77 C59.0,80.3 60.0,83.7 61,87 C62.0,90.3 63.3,93.6 64,97 C64.7,100.3 65.3,103.7 65,107 C64.7,110.4 63.3,113.8 62,117 C60.7,120.2 58.2,122.8 57,126 C55.8,129.2 55.7,132.7 55,136" fill="none" stroke="#000000" stroke-width="1"/>
      <polygon points="56,74 55,78 61,79 59,73 56,74" fill="#000000" stroke="#000000" stroke-width="1" fill-rule="evenodd" data-shape="2"/>
      <path d="M35,26 C37.5,23.7 40.8,22.2 44,21 C47.2,19.8 50.7,19.2 54,19 C57.3,18.8 60.7,19.3 64,20 C67.4,20.7 71.0,21.3 74,23 C77.0,24.7 80.0,27.3 82,30 C83.9,32.6 85.3,35.8 86,39 C86.7,42.4 86.9,46.6 86,50 C85.2,53.3 83.2,56.4 81,59 C78.6,61.8 74.9,63.6 72,66 C69.2,68.3 67.0,71.5 64,73 C61.0,74.5 57.2,75.4 54,75 C50.9,74.7 47.6,72.9 45,71 C42.3,69.0 40.3,65.7 38,63 C35.7,60.3 32.8,58.0 31,55 C29.2,52.0 27.3,48.4 27,45 C26.7,41.7 27.7,38.1 29,35 C30.3,31.8 32.5,28.3 35,26Z" fill="#000000" stroke="#000000" stroke-width="1" fill-rule="evenodd" data-shape="3"/>
    </g>
    <g data-mdcr="group" class="mdcr-region">
      <path d="M199,83 C200.3,85.0 201.7,87.0 203,89 C204.3,91.0 205.4,93.1 207,95 C208.7,97.1 211.0,99.2 213,101 C214.7,102.5 216.1,104.0 218,105 C220.0,106.1 223.0,105.9 225,107 C226.9,108.0 228.8,109.3 230,111 C231.2,112.9 231.3,115.7 232,118" fill="none" stroke="#000000" stroke-width="1"/>
      <polygon points="199,79 198,83 203,84 203,80 199,79" fill="#000000" stroke="#000000" stroke-width="1" fill-rule="evenodd" data-shape="4"/>
      <path d="M175,66 C177.6,68.5 180.9,70.0 184,72 C187.2,74.0 190.5,76.9 194,78 C197.2,79.1 200.9,79.8 204,79 C207.2,78.2 210.2,75.3 213,73 C215.9,70.6 218.5,67.8 221,65 C223.5,62.2 226.8,59.4 228,56 C229.1,52.7 229.1,48.2 228,45 C227.0,41.9 224.4,39.3 222,37 C219.5,34.6 216.3,32.5 213,31 C209.6,29.5 205.7,28.3 202,28 C198.4,27.7 194.5,28.3 191,29 C187.6,29.7 184.2,30.7 181,32 C177.8,33.3 174.3,34.6 172,37 C169.6,39.5 167.6,43.6 167,47 C166.4,50.2 166.8,53.9 168,57 C169.3,60.3 172.3,63.5 175,66Z" fill="#000000" stroke="#000000" stroke-width="1" fill-rule="evenodd" data-shape="5"/>
    </g>
    <g data-mdcr="group" class="mdcr-region">
      <path d="M345,89 C344.7,91.7 345.1,95.0 344,97 C343.0,98.8 341.0,99.9 339,101 C336.7,102.3 333.6,103.0 331,104 C328.6,105.0 326.4,106.2 324,107 C321.7,107.8 319.3,108.3 317,109 L310,111 C307.0,112.0 302.8,112.2 301,114 C299.5,115.5 299.7,118.0 299,120" fill="none" stroke="#000000" stroke-width="1"/>
      <polygon points="342,85 342,90 345,90 348,84 342,85" fill="#000000" stroke="#000000" stroke-width="1" fill-rule="evenodd" data-shape="6"/>
      <path d="M322,70 C324.5,72.8 327.3,75.5 330,78 C332.6,80.5 334.9,83.9 338,85 C341.0,86.1 344.9,85.8 348,85 C351.2,84.2 354.2,82.1 357,80 C359.9,77.8 362.5,74.8 365,72 C367.5,69.2 370.1,66.1 372,63 C373.7,60.1 375.5,57.2 376,54 C376.6,50.6 376.2,46.3 375,43 C373.8,39.7 371.4,36.5 369,34 C366.7,31.6 363.9,29.6 361,28 C358.0,26.3 354.5,24.8 351,24 C347.5,23.2 343.5,22.6 340,23 C336.6,23.3 333.1,24.5 330,26 C326.8,27.5 323.5,29.6 321,32 C318.6,34.3 316.3,36.9 315,40 C313.6,43.2 313.0,47.4 313,51 C313.0,54.4 313.6,57.9 315,61 C316.5,64.3 319.5,67.2 322,70Z" fill="#000000" stroke="#000000" stroke-width="1" fill-rule="evenodd" data-shape="7"/>
    </g>
  </g>
</svg>