<svg xmlns="http://www.w3.org/2000/svg" xmlns:mdcr="http://sensory.com/mdcr" viewBox="0 0 401 301" width="401" height="301">
  <metadata>
    <mdcr:info xmlns:mdcr="http://sensory.com/mdcr">
      <mdcr:source format="WMF" generator="wmf2svg.js"/>
      <mdcr:bounds left="0" top="0" right="6015" bottom="4515" inch="1440"/>
      <mdcr:records count="11">
        <mdcr:record tag="MDCR-{"/>
        <mdcr:record tag="MDCR-{"/>
        <mdcr:record tag="MDCR-}"/>
        <mdcr:record tag="MDCR-S"/>
        <mdcr:record tag="MDCR-{"/>
        <mdcr:record tag="MDCR-}"/>
        <mdcr:record tag="MDCR-{"/>
        <mdcr:record tag="MDCR-}"/>
        <mdcr:record tag="MDCR-{"/>
        <mdcr:record tag="MDCR-}"/>
        <mdcr:record tag="MDCR-}"/>
      </mdcr:records>
    </mdcr:info>
  </metadata>
  <g data-mdcr="group" class="mdcr-region">
    <g data-mdcr="group" class="mdcr-region">
      <path d="M202,243 C200.7,245.0 199.3,247.0 198,249 C196.7,251.0 195.6,253.1 194,255 C192.3,257.1 190.0,259.2 188,261 C186.3,262.5 184.9,264.0 183,265 C181.0,266.1 178.0,265.9 176,267 C174.1,268.0 172.2,269.3 171,271 C169.8,272.9 169.7,275.7 169,278" fill="none" stroke="#000000" stroke-width="1"/>
      <polygon points="202,239 203,243 198,244 198,240 202,239" fill="#dd0000" stroke="#000000" stroke-width="1" fill-rule="evenodd" data-shape="0"/>
      <path d="M226,226 C223.4,228.5 220.1,230.0 217,232 C213.8,234.0 210.5,236.9 207,238 C203.8,239.1 200.1,239.8 197,239 C193.8,238.2 190.8,235.3 188,233 C185.1,230.6 182.5,227.8 180,225 C177.5,222.2 174.2,219.4 173,216 C171.9,212.7 171.9,208.2 173,205 C174.0,201.9 176.6,199.3 179,197 C181.5,194.6 184.7,192.5 188,191 C191.4,189.5 195.3,188.3 199,188 C202.6,187.7 206.5,188.3 210,189 C213.4,189.7 216.8,190.7 220,192 C223.2,193.3 226.7,194.6 229,197 C231.4,199.5 233.4,203.6 234,207 C234.6,210.2 234.2,213.9 233,217 C231.7,220.3 228.7,223.5 226,226Z" fill="#dd0000" stroke="#000000" stroke-width="1" fill-rule="evenodd" data-shape="1"/>
    </g>
    <g data-mdcr="group" class="mdcr-region">
      <path d="M56,77 C55.0,80.3 54.0,83.7 53,87 C52.0,90.3 50.7,93.6 50,97 C49.3,100.3 48.7,103.7 49,107 C49.3,110.4 50.7,113.8 52,117 C53.3,120.2 55.8,122.8 57,126 C58.2,129.2 58.3,132.7 59,136" fill="none" stroke="#000000" stroke-width="1"/>
      <polygon points="58,74 59,78 53,79 55,73 58,74" fill="#000000" stroke="#000000" stroke-width="1" fill-rule="evenodd" data-shape="2"/>
      <path d="M79,26 C76.5,23.7 73.2,22.2 70,21 C66.8,19.8 63.3,19.2 60,19 C56.7,18.8 53.3,19.3 50,20 C46.6,20.7 43.0,21.3 40,23 C37.0,24.7 34.0,27.3 32,30 C30.1,32.6 28.7,35.8 28,39 C27.3,42.4 27.1,46.6 28,50 C28.8,53.3 30.8,56.4 33,59 C35.4,61.8 39.1,63.6 42,66 C44.8,68.3 47.0,71.5 50,73 C53.0,74.5 56.8,75.4 60,75 C63.1,74.7 66.4,72.9 69,71 C71.7,69.0 73.7,65.7 76,63 C78.3,60.3 81.2,58.0 83,55 C84.8,52.0 86.7,48.4 87,45 C87.3,41.7 86.3,38.1 85,35 C83.7,31.8 81.5,28.3 79,26Z" fill="#000000" stroke="#000000" stroke-width="1" fill-rule="evenodd" data-shape="3"/>
    </g>
    <g data-mdcr="group" class="mdcr-region">
      <path d="M199,83 C197.7,85.0 196.3,87.0 195,89 C193.7,91.0 192.6,93.1 191,95 C189.3,97.1 187.0,99.2 185,101 C183.3,102.5 181.9,104.0 180,105 C178.0,106.1 175.0,105.9 173,107 C171.1,108.0 169.2,109.3 168,111 C166.8,112.9 166.7,115.7 166,118" fill="none" stroke="#000000" stroke-width="1"/>
      <polygon points="199,79 200,83 195,84 195,80 199,79" fill="#000000" stroke="#000000" stroke-width="1" fill-rule="evenodd" data-shape="4"/>
      <path d="M223,66 C220.4,68.5 217.1,70.0 214,72 C210.8,74.0 207.5,76.9 204,78 C200.8,79.1 197.1,79.8 194,79 C190.8,78.2 187.8,75.3 185,73 C182.1,70.6 179.5,67.8 177,65 C174.5,62.2 171.2,59.4 170,56 C168.9,52.7 168.9,48.2 170,45 C171.0,41.9 173.6,39.3 176,37 C178.5,34.6 181.7,32.5 185,31 C188.4,29.5 192.3,28.3 196,28 C199.6,27.7 203.5,28.3 207,29 C210.4,29.7 213.8,30.7 217,32 C220.2,33.3 223.7,34.6 226,37 C228.4,39.5 230.4,43.6 231,47 C231.6,50.2 231.2,53.9 230,57 C228.7,60.3 225.7,63.5 223,66Z" fill="#000000" stroke="#000000" stroke-width="1" fill-rule="evenodd" data-shape="5"/>
    </g>
    <g data-mdcr="group" class="mdcr-region">
      <path d="M330,89 C330.3,91.7 329.9,95.0 331,97 C332.0,98.8 334.0,99.9 336,101 C338.3,102.3 341.4,103.0 344,104 C346.4,105.0 348.6,106.2 351,107 C353.3,107.8 355.7,108.3 358,109 L365,111 C368.0,112.0 372.2,112.2 374,114 C375.5,115.5 375.3,118.0 376,120" fill="none" stroke="#000000" stroke-width="1"/>
      <polygon points="333,85 333,90 330,90 327,84 333,85" fill="#000000" stroke="#000000" stroke-width="1" fill-rule="evenodd" data-shape="6"/>
      <path d="M353,70 C350.5,72.8 347.7,75.5 345,78 C342.4,80.5 340.1,83.9 337,85 C334.0,86.1 330.1,85.8 327,85 C323.8,84.2 320.8,82.1 318,80 C315.1,77.8 312.5,74.8 310,72 C307.5,69.2 304.9,66.1 303,63 C301.3,60.1 299.5,57.2 299,54 C298.4,50.6 298.8,46.3 300,43 C301.2,39.7 303.6,36.5 306,34 C308.3,31.6 311.1,29.6 314,28 C317.0,26.3 320.5,24.8 324,24 C327.5,23.2 331.5,22.6 335,23 C338.4,23.3 341.9,24.5 345,26 C348.2,27.5 351.5,29.6 354,32 C356.4,34.3 358.7,36.9 360,40 C361.4,43.2 362.0,47.4 362,51 C362.0,54.4 361.4,57.9 360,61 C358.5,64.3 355.5,67.2 353,70Z" fill="#000000" stroke="#000000" stroke-width="1" fill-rule="evenodd" data-shape="7"/>
    </g>
  </g>
</svg>