<svg xmlns="http://www.w3.org/2000/svg" xmlns:mdcr="http://sensory.com/mdcr" viewBox="0 0 401 301" width="401" height="301">
  <metadata>
    <mdcr:info xmlns:mdcr="http://sensory.com/mdcr">
      <mdcr:source format="WMF" generator="wmf2svg.js"/>
      <mdcr:bounds left="0" top="0" right="6015" bottom="4515" inch="1440"/>
      <mdcr:records count="12">
        <mdcr:record tag="MDCR-{"/>
        <mdcr:record tag="MDCR-{"/>
        <mdcr:record tag="MDCR-}"/>
        <mdcr:record tag="MDCR-S"/>
        <mdcr:record tag="MDCR-{"/>
        <mdcr:record tag="MDCR-}"/>
        <mdcr:record tag="MDCR-{"/>
        <mdcr:record tag="MDCR-}"/>
        <mdcr:record tag="MDCR-{"/>
        <mdcr:record tag="MDCR-}"/>
        <mdcr:record tag="MDCR-}"/>
        <mdcr:record tag="MDCR-S"/>
      </mdcr:records>
    </mdcr:info>
  </metadata>
  <g data-mdcr="group" class="mdcr-region">
    <g data-mdcr="group" class="mdcr-region">
      <polygon points="170,221 193,221 182,197 170,221 170,221" fill="#008000" stroke="#000000" stroke-width="1" fill-rule="evenodd" data-shape="0"/>
      <polygon points="207,221 231,221 219,197 207,221 207,221" fill="#008000" stroke="#000000" stroke-width="1" fill-rule="evenodd" data-shape="1"/>
      <path d="M174,221 C172.5,222.5 174.0,227.1 174,230 C174.0,232.7 174.0,235.3 174,238 C174.0,240.9 174.0,244.0 174,247 C174.0,250.0 174.0,253.0 174,256 C174.0,259.0 172.9,263.0 174,265 C174.9,266.6 177.0,267.4 179,268 C181.5,268.7 186.5,269.5 188,268 C189.5,266.5 188.0,261.9 188,259 C188.0,256.3 188.0,253.7 188,251 C188.0,248.1 188.0,245.0 188,242 C188.0,239.0 188.0,236.0 188,233 C188.0,230.0 189.1,226.0 188,224 C187.1,222.4 185.0,221.6 183,221 C180.5,220.3 175.5,219.5 174,221Z" fill="#c0c0c0" stroke="#000000" stroke-width="1" fill-rule="evenodd" data-shape="2"/>
      <path d="M179,227 L179,245 L184,245 L184,227Z" fill="#808080" stroke="#000000" stroke-width="1" fill-rule="evenodd" data-shape="3"/>
      <path d="M212,221 C210.5,222.5 212.0,227.1 212,230 C212.0,232.7 212.0,235.3 212,238 C212.0,240.9 212.0,244.0 212,247 C212.0,250.0 212.0,253.0 212,256 C212.0,259.0 210.9,263.0 212,265 C212.9,266.6 215.0,267.4 217,268 C219.5,268.7 224.5,269.5 226,268 C227.5,266.5 226.0,261.9 226,259 C226.0,256.3 226.0,253.7 226,251 C226.0,248.1 226.0,245.0 226,242 C226.0,239.0 226.0,236.0 226,233 C226.0,230.0 227.1,226.0 226,224 C225.1,222.4 223.0,221.6 221,221 C218.5,220.3 213.5,219.5 212,221Z" fill="#c0c0c0" stroke="#000000" stroke-width="1" fill-rule="evenodd" data-shape="4"/>
      <path d="M217,227 L217,245 L222,245 L222,227Z" fill="#808080" stroke="#000000" stroke-width="1" fill-rule="evenodd" data-shape="5"/>
      <path d="M188,268 L212,268 L212,233 C210.7,234.3 209.6,236.0 208,237 C206.3,238.0 203.3,239.7 202,239 C200.7,238.3 200.7,235.0 200,233 C199.3,235.0 199.3,238.3 198,239 C196.7,239.7 193.7,238.0 192,237 C190.4,236.0 189.3,234.3 188,233 L188,268Z" fill="#a0a0a4" stroke="#000000" stroke-width="1" fill-rule="evenodd" data-shape="6"/>
      <path d="M193,268 C193.0,265.7 192.8,263.3 193,261 C193.2,258.7 193.4,256.3 194,254 C194.7,251.6 195.3,247.9 197,247 C198.5,246.2 201.7,246.9 203,248 C204.3,249.0 204.4,251.2 205,253 C205.7,255.1 206.7,257.6 207,260 C207.4,262.6 207.0,265.3 207,268 L193,268Z" fill="#808080" stroke="#000000" stroke-width="1" fill-rule="evenodd" data-shape="7"/>
    </g>
    <g data-mdcr="group" class="mdcr-region">
      <polygon points="13,118 24,82 35,82 28,118 13,118" fill="#000000" stroke="#000000" stroke-width="1" fill-rule="evenodd" data-shape="8"/>
      <polygon points="27,118 34,82 70,118 27,118" fill="#000000" stroke="#000000" stroke-width="1" fill-rule="evenodd" data-shape="9"/>
      <polygon points="70,118 30,78 57,78 70,118" fill="#000000" stroke="#000000" stroke-width="1" fill-rule="evenodd" data-shape="10"/>
      <polygon points="39,82 55,70 59,82 39,82" fill="#000000" stroke="#000000" stroke-width="1" fill-rule="evenodd" data-shape="11"/>
      <path d="M23,84 L39,28 L34,15 C35.0,14.7 36.2,13.6 37,14 C38.5,14.7 39.0,20.0 40,23 L40,21 L41,23 C41.7,20.0 41.6,15.1 43,14 C43.8,13.4 45.0,14.0 46,14 C45.3,18.0 44.2,22.0 44,26 C43.8,30.0 44.3,34.1 45,38 C45.7,41.8 46.9,45.3 48,49 C49.2,52.9 50.8,57.1 52,61 C53.1,64.7 55.9,68.9 55,72 C54.0,75.2 49.4,78.0 46,80 C42.7,82.0 38.8,83.3 35,84 C31.1,84.7 27.0,84.0 23,84Z" fill="#000000" stroke="#000000" stroke-width="1" fill-rule="evenodd" data-shape="12"/>
    </g>
    <path d="M86,66 C89.3,62.3 92.0,57.3 96,55 C99.8,52.8 105.0,53.4 109,52 C112.6,50.7 116.1,49.2 119,47 C121.8,44.8 123.7,41.7 126,39 C127.7,42.3 128.5,46.3 131,49 C133.5,51.7 137.8,52.4 141,55 C144.6,57.9 147.7,62.3 151,66 C149.0,68.7 146.1,70.7 145,74 C143.7,77.8 145.0,83.3 145,88 C145.0,92.7 145.0,97.3 145,102 C145.0,106.7 147.2,113.4 145,116 C142.9,118.4 137.2,117.7 133,118 C128.5,118.4 123.7,118.0 119,118 C114.1,118.0 108.7,118.4 104,118 C99.8,117.6 94.1,118.4 92,116 C89.8,113.4 92.0,106.7 92,102 C92.0,97.3 92.0,92.7 92,88 C92.0,83.3 93.3,77.8 92,74 C90.9,70.7 88.0,68.7 86,66Z" fill="#000000" stroke="#000000" stroke-width="1" fill-rule="evenodd" data-shape="13"/>
    <path d="M177,119 L177,110 L178,86 L170,90 L161,75 L182,67 L188,50 L175,32 L193,24 L200,42 C200.3,42.0 200.7,42.1 201,42 C201.4,41.8 201.5,41.2 202,41 C202.7,40.7 204.6,40.6 205,41 C205.2,41.2 204.8,41.8 205,42 C205.2,42.2 205.7,42.0 206,42 C206.3,42.0 206.7,42.0 207,42 C207.3,42.0 207.7,42.0 208,42 C208.3,42.0 208.7,42.0 209,42 C209.3,42.0 209.7,42.0 210,42 C210.3,42.0 210.7,41.9 211,42 C211.4,42.2 211.6,42.8 212,43 C212.3,43.1 212.7,42.9 213,43 C213.4,43.2 213.8,43.6 214,44 C214.1,44.3 213.8,44.8 214,45 C214.2,45.2 214.8,44.8 215,45 C215.2,45.2 214.8,45.7 215,46 C215.3,46.4 216.5,46.5 217,47 C217.5,47.5 217.7,48.3 218,49 C218.3,49.7 218.7,50.3 219,51 L238,39 L247,54 L223,63 L234,97 C232.7,97.7 230.5,98.1 230,99 C229.6,99.6 230.0,100.2 230,101 C230.0,102.1 230.0,103.6 230,105 C230.0,106.6 230.0,108.3 230,110 L230,119 L177,119Z" fill="#000000" stroke="#000000" stroke-width="1" fill-rule="evenodd" data-shape="14"/>
    <g data-mdcr="group" class="mdcr-region">
      <polygon points="258,118 258,85 308,85 308,118 258,118" fill="#000000" stroke="#000000" stroke-width="1" fill-rule="evenodd" data-shape="15"/>
      <polygon points="252,85 284,42 315,85 252,85" fill="#000000" stroke="#000000" stroke-width="1" fill-rule="evenodd" data-shape="16"/>
      <polygon points="306,74 298,63 298,58 306,58 306,74" fill="#000000" stroke="#000000" stroke-width="1" fill-rule="evenodd" data-shape="17"/>
    </g>
    <g data-mdcr="group" class="mdcr-region">
      <path d="M346,118 L342,118 L342,82 C344.3,84.0 346.7,88.0 349,88 C351.3,88.0 353.9,81.9 356,82 C357.8,82.1 359.3,85.3 361,87 C362.7,84.3 366.0,81.7 366,79 C366.0,76.3 362.7,73.7 361,71 L373,47 L385,71 L381,71 L381,118 L346,118Z" fill="#000000" stroke="#000000" stroke-width="1" fill-rule="evenodd" data-shape="18"/>
      <path d="M324,71 L336,47 L347,71 C345.7,74.0 343.7,76.6 343,80 C342.2,83.9 343.0,88.7 343,93 C343.0,97.3 343.2,101.8 343,106 C342.8,110.1 344.2,116.0 342,118 C339.7,120.1 331.3,120.1 329,118 C326.8,116.0 328.2,110.1 328,106 C327.8,101.8 328.0,97.3 328,93 C328.0,88.7 328.8,83.9 328,80 C327.3,76.6 325.3,74.0 324,71Z" fill="#000000" stroke="#000000" stroke-width="1" fill-rule="evenodd" data-shape="19"/>
    </g>
  </g>
</svg>