<svg xmlns="http://www.w3.org/2000/svg" xmlns:mdcr="http://sensory.com/mdcr" viewBox="0 0 401 301" width="401" height="301">
  <metadata>
    <mdcr:info xmlns:mdcr="http://sensory.com/mdcr">
      <mdcr:source format="WMF" generator="wmf2svg.js"/>
      <mdcr:bounds left="0" top="0" right="6015" bottom="4515" inch="1440"/>
      <mdcr:records count="11">
        <mdcr:record tag="MDCR-{"/>
        <mdcr:record tag="MDCR-{"/>
        <mdcr:record tag="MDCR-}"/>
        <mdcr:record tag="MDCR-S"/>
        <mdcr:record tag="MDCR-{"/>
        <mdcr:record tag="MDCR-}"/>
        <mdcr:record tag="MDCR-{"/>
        <mdcr:record tag="MDCR-}"/>
        <mdcr:record tag="MDCR-{"/>
        <mdcr:record tag="MDCR-}"/>
        <mdcr:record tag="MDCR-}"/>
      </mdcr:records>
    </mdcr:info>
  </metadata>
  <g data-mdcr="group" class="mdcr-region">
    <g data-mdcr="group" class="mdcr-region">
      <path d="M200,202 C201.2,203.2 204.8,202.4 207,202 C209.1,201.7 212.0,201.4 213,200 C214.1,198.5 213.8,194.9 213,193 C212.3,191.3 210.7,189.7 209,189 C207.1,188.2 203.5,187.9 202,189 C200.6,190.0 200.3,192.9 200,195 C199.6,197.2 198.8,200.8 200,202Z" fill="#ffbb00" stroke="none" stroke-width="0" fill-rule="evenodd" data-shape="0"/>
      <path d="M200,202 C202.3,202.0 204.8,202.4 207,202 C209.1,201.7 212.0,201.4 213,200 C214.1,198.5 213.8,194.9 213,193 C212.3,191.3 210.7,189.7 209,189 C207.1,188.2 203.5,187.9 202,189 C200.6,190.0 200.3,192.9 200,195 C199.6,197.2 200.0,199.7 200,202" fill="none" stroke="#000000" stroke-width="1"/>
      <path d="M226,215 C224.5,213.5 220.1,215.0 217,215 C213.8,215.0 210.2,215.0 207,215 C203.9,215.0 201.1,215.0 198,215 C194.8,215.0 191.2,215.0 188,215 C184.9,215.0 181.4,214.0 179,215 C176.9,215.9 174.9,217.9 174,220 C173.0,222.4 174.0,225.9 174,229 C174.0,232.2 174.0,235.8 174,239 C174.0,242.1 174.0,244.9 174,248 C174.0,251.2 174.0,254.8 174,258 C174.0,261.1 172.5,265.5 174,267 C175.5,268.5 179.9,267.0 183,267 C186.2,267.0 189.8,267.0 193,267 C196.1,267.0 198.9,267.0 202,267 C205.2,267.0 208.8,267.0 212,267 C215.1,267.0 218.6,268.0 221,267 C223.1,266.1 225.1,264.1 226,262 C227.0,259.6 226.0,256.1 226,253 C226.0,249.8 226.0,246.2 226,243 C226.0,239.9 226.0,237.1 226,234 C226.0,230.8 226.0,227.2 226,224 C226.0,220.9 227.5,216.5 226,215Z" fill="#dd0000" stroke="none" stroke-width="0" fill-rule="evenodd" data-shape="1"/>
      <path d="M226,215 C223.0,215.0 220.1,215.0 217,215 C213.8,215.0 210.2,215.0 207,215 C203.9,215.0 201.1,215.0 198,215 C194.8,215.0 191.2,215.0 188,215 C184.9,215.0 181.4,214.0 179,215 C176.9,215.9 174.9,217.9 174,220 C173.0,222.4 174.0,225.9 174,229 C174.0,232.2 174.0,235.8 174,239 C174.0,242.1 174.0,244.9 174,248 C174.0,251.2 174.0,254.8 174,258 C174.0,261.1 172.5,265.5 174,267 C175.5,268.5 179.9,267.0 183,267 C186.2,267.0 189.8,267.0 193,267 C196.1,267.0 198.9,267.0 202,267 C205.2,267.0 208.8,267.0 212,267 C215.1,267.0 218.6,268.0 221,267 C223.1,266.1 225.1,264.1 226,262 C227.0,259.6 226.0,256.1 226,253 C226.0,249.8 226.0,246.2 226,243 C226.0,239.9 226.0,237.1 226,234 C226.0,230.8 226.0,227.2 226,224 C226.0,220.9 226.0,218.0 226,215" fill="none" stroke="#000000" stroke-width="1"/>
      <path d="M194,248 C192.7,246.7 188.3,247.4 186,248 C184.1,248.5 181.9,249.4 181,251 C179.9,252.9 181.0,256.3 181,259 C181.0,261.7 179.7,265.7 181,267 C182.3,268.3 186.7,267.6 189,267 C190.9,266.5 193.1,265.6 194,264 C195.1,262.1 194.0,258.7 194,256 C194.0,253.3 195.3,249.3 194,248Z" fill="#00cc00" stroke="#000000" stroke-width="1" fill-rule="evenodd" data-shape="2"/>
      <path d="M181,223 C182.2,221.8 185.8,222.6 188,223 C190.1,223.3 193.0,223.6 194,225 C195.1,226.5 194.8,230.1 194,232 C193.3,233.7 191.7,235.3 190,236 C188.1,236.8 184.5,237.1 183,236 C181.6,235.0 181.3,232.1 181,230 C180.6,227.8 179.8,224.2 181,223Z" fill="#00bbff" stroke="none" stroke-width="0" fill-rule="evenodd" data-shape="3"/>
      <path d="M181,223 C183.3,223.0 185.8,222.6 188,223 C190.1,223.3 193.0,223.6 194,225 C195.1,226.5 194.8,230.1 194,232 C193.3,233.7 191.7,235.3 190,236 C188.1,236.8 184.5,237.1 183,236 C181.6,235.0 181.3,232.1 181,230 C180.6,227.8 181.0,225.3 181,223" fill="none" stroke="#000000" stroke-width="1"/>
      <path d="M206,223 C207.2,221.8 210.8,222.6 213,223 C215.1,223.3 218.0,223.6 219,225 C220.1,226.5 219.8,230.1 219,232 C218.3,233.7 216.7,235.3 215,236 C213.1,236.8 209.5,237.1 208,236 C206.6,235.0 206.3,232.1 206,230 C205.6,227.8 204.8,224.2 206,223Z" fill="#00bbff" stroke="none" stroke-width="0" fill-rule="evenodd" data-shape="4"/>
      <path d="M206,223 C208.3,223.0 210.8,222.6 213,223 C215.1,223.3 218.0,223.6 219,225 C220.1,226.5 219.8,230.1 219,232 C218.3,233.7 216.7,235.3 215,236 C213.1,236.8 209.5,237.1 208,236 C206.6,235.0 206.3,232.1 206,230 C205.6,227.8 206.0,225.3 206,223" fill="none" stroke="#000000" stroke-width="1"/>
      <path d="M206,249 C207.2,247.8 210.8,248.6 213,249 C215.1,249.3 218.0,249.6 219,251 C220.1,252.5 219.8,256.1 219,258 C218.3,259.7 216.7,261.3 215,262 C213.1,262.8 209.5,263.1 208,262 C206.6,261.0 206.3,258.1 206,256 C205.6,253.8 204.8,250.2 206,249Z" fill="#00bbff" stroke="none" stroke-width="0" fill-rule="evenodd" data-shape="5"/>
      <path d="M206,248 C208.3,248.0 210.8,247.6 213,248 C215.1,248.3 218.0,248.6 219,250 C220.1,251.5 219.8,255.1 219,257 C218.3,258.7 216.7,260.3 215,261 C213.1,261.8 209.5,262.1 208,261 C206.6,260.0 206.3,257.1 206,255 C205.6,252.8 206.0,250.3 206,248" fill="none" stroke="#000000" stroke-width="1"/>
      <path d="M168,215 C171.0,212.0 173.6,208.2 177,206 C180.3,203.9 184.1,202.7 188,202 C192.1,201.3 196.8,202.0 201,202 C205.1,202.0 209.1,201.3 213,202 C216.8,202.7 220.7,203.9 224,206 C227.4,208.2 230.0,212.0 233,215 L168,215Z" fill="#eeee00" stroke="none" stroke-width="0" fill-rule="evenodd" data-shape="6"/>
      <path d="M174,215 L168,215 C171.0,212.0 173.6,208.2 177,206 C180.3,203.9 184.1,202.7 188,202 C192.1,201.3 196.8,202.0 201,202 C205.1,202.0 209.1,201.3 213,202 C216.8,202.7 220.7,203.9 224,206 C227.4,208.2 230.0,212.0 233,215 L174,215" fill="none" stroke="#000000" stroke-width="1"/>
      <polyline points="187,223 187,236" fill="none" stroke="#000000" stroke-width="1"/>
      <polyline points="181,229 194,229" fill="none" stroke="#000000" stroke-width="1"/>
      <polyline points="212,223 212,236" fill="none" stroke="#000000" stroke-width="1"/>
      <polyline points="206,229 219,229" fill="none" stroke="#000000" stroke-width="1"/>
      <polyline points="212,248 212,261" fill="none" stroke="#000000" stroke-width="1"/>
      <polyline points="206,254 219,254" fill="none" stroke="#000000" stroke-width="1"/>
    </g>
    <g data-mdcr="group" class="mdcr-region">
      <polygon points="13,118 24,82 35,82 28,118 13,118" fill="#000000" stroke="#000000" stroke-width="1" fill-rule="evenodd" data-shape="7"/>
      <polygon points="27,118 34,82 70,118 27,118" fill="#000000" stroke="#000000" stroke-width="1" fill-rule="evenodd" data-shape="8"/>
      <polygon points="70,118 30,78 57,78 70,118" fill="#000000" stroke="#000000" stroke-width="1" fill-rule="evenodd" data-shape="9"/>
      <polygon points="39,82 55,70 59,82 39,82" fill="#000000" stroke="#000000" stroke-width="1" fill-rule="evenodd" data-shape="10"/>
      <path d="M23,84 L39,28 L34,15 C35.0,14.7 36.2,13.6 37,14 C38.5,14.7 39.0,20.0 40,23 L40,21 L41,23 C41.7,20.0 41.6,15.1 43,14 C43.8,13.4 45.0,14.0 46,14 C45.3,18.0 44.2,22.0 44,26 C43.8,30.0 44.3,34.1 45,38 C45.7,41.8 46.9,45.3 48,49 C49.2,52.9 50.8,57.1 52,61 C53.1,64.7 55.9,68.9 55,72 C54.0,75.2 49.4,78.0 46,80 C42.7,82.0 38.8,83.3 35,84 C31.1,84.7 27.0,84.0 23,84Z" fill="#000000" stroke="#000000" stroke-width="1" fill-rule="evenodd" data-shape="11"/>
    </g>
    <path d="M86,66 C89.3,62.3 92.0,57.3 96,55 C99.8,52.8 105.0,53.4 109,52 C112.6,50.7 116.1,49.2 119,47 C121.8,44.8 123.7,41.7 126,39 C127.7,42.3 128.5,46.3 131,49 C133.5,51.7 137.8,52.4 141,55 C144.6,57.9 147.7,62.3 151,66 C149.0,68.7 146.1,70.7 145,74 C143.7,77.8 145.0,83.3 145,88 C145.0,92.7 145.0,97.3 145,102 C145.0,106.7 147.2,113.4 145,116 C142.9,118.4 137.2,117.7 133,118 C128.5,118.4 123.7,118.0 119,118 C114.1,118.0 108.7,118.4 104,118 C99.8,117.6 94.1,118.4 92,116 C89.8,113.4 92.0,106.7 92,102 C92.0,97.3 92.0,92.7 92,88 C92.0,83.3 93.3,77.8 92,74 C90.9,70.7 88.0,68.7 86,66Z" fill="#000000" stroke="#000000" stroke-width="1" fill-rule="evenodd" data-shape="12"/>
    <path d="M177,119 L177,110 L178,86 L170,90 L161,75 L182,67 L188,50 L175,32 L193,24 L200,42 C200.3,42.0 200.7,42.1 201,42 C201.4,41.8 201.5,41.2 202,41 C202.7,40.7 204.6,40.6 205,41 C205.2,41.2 204.8,41.8 205,42 C205.2,42.2 205.7,42.0 206,42 C206.3,42.0 206.7,42.0 207,42 C207.3,42.0 207.7,42.0 208,42 C208.3,42.0 208.7,42.0 209,42 C209.3,42.0 209.7,42.0 210,42 C210.3,42.0 210.7,41.9 211,42 C211.4,42.2 211.6,42.8 212,43 C212.3,43.1 212.7,42.9 213,43 C213.4,43.2 213.8,43.6 214,44 C214.1,44.3 213.8,44.8 214,45 C214.2,45.2 214.8,44.8 215,45 C215.2,45.2 214.8,45.7 215,46 C215.3,46.4 216.5,46.5 217,47 C217.5,47.5 217.7,48.3 218,49 C218.3,49.7 218.7,50.3 219,51 L238,39 L247,54 L223,63 L234,97 C232.7,97.7 230.5,98.1 230,99 C229.6,99.6 230.0,100.2 230,101 C230.0,102.1 230.0,103.6 230,105 C230.0,106.6 230.0,108.3 230,110 L230,119 L177,119Z" fill="#000000" stroke="#000000" stroke-width="1" fill-rule="evenodd" data-shape="13"/>
    <g data-mdcr="group" class="mdcr-region">
      <polygon points="258,118 258,85 308,85 308,118 258,118" fill="#000000" stroke="#000000" stroke-width="1" fill-rule="evenodd" data-shape="14"/>
      <polygon points="252,85 284,42 315,85 252,85" fill="#000000" stroke="#000000" stroke-width="1" fill-rule="evenodd" data-shape="15"/>
      <polygon points="306,74 298,63 298,58 306,58 306,74" fill="#000000" stroke="#000000" stroke-width="1" fill-rule="evenodd" data-shape="16"/>
    </g>
    <g data-mdcr="group" class="mdcr-region">
      <path d="M346,118 L342,118 L342,82 C344.3,84.0 346.7,88.0 349,88 C351.3,88.0 353.9,81.9 356,82 C357.8,82.1 359.3,85.3 361,87 C362.7,84.3 366.0,81.7 366,79 C366.0,76.3 362.7,73.7 361,71 L373,47 L385,71 L381,71 L381,118 L346,118Z" fill="#000000" stroke="#000000" stroke-width="1" fill-rule="evenodd" data-shape="17"/>
      <path d="M324,71 L336,47 L347,71 C345.7,74.0 343.7,76.6 343,80 C342.2,83.9 343.0,88.7 343,93 C343.0,97.3 343.2,101.8 343,106 C342.8,110.1 344.2,116.0 342,118 C339.7,120.1 331.3,120.1 329,118 C326.8,116.0 328.2,110.1 328,106 C327.8,101.8 328.0,97.3 328,93 C328.0,88.7 328.8,83.9 328,80 C327.3,76.6 325.3,74.0 324,71Z" fill="#000000" stroke="#000000" stroke-width="1" fill-rule="evenodd" data-shape="18"/>
    </g>
  </g>
</svg>