<svg xmlns="http://www.w3.org/2000/svg" xmlns:mdcr="http://sensory.com/mdcr" viewBox="0 0 401 301" width="401" height="301">
  <metadata>
    <mdcr:info xmlns:mdcr="http://sensory.com/mdcr">
      <mdcr:source format="WMF" generator="wmf2svg.js"/>
      <mdcr:bounds left="0" top="0" right="6015" bottom="4515" inch="1440"/>
      <mdcr:records count="11">
        <mdcr:record tag="MDCR-{"/>
        <mdcr:record tag="MDCR-{"/>
        <mdcr:record tag="MDCR-}"/>
        <mdcr:record tag="MDCR-S"/>
        <mdcr:record tag="MDCR-{"/>
        <mdcr:record tag="MDCR-}"/>
        <mdcr:record tag="MDCR-{"/>
        <mdcr:record tag="MDCR-}"/>
        <mdcr:record tag="MDCR-{"/>
        <mdcr:record tag="MDCR-}"/>
        <mdcr:record tag="MDCR-}"/>
      </mdcr:records>
    </mdcr:info>
  </metadata>
  <g data-mdcr="group" class="mdcr-region">
    <g data-mdcr="group" class="mdcr-region">
      <path d="M173,268 L226,268 L226,259 C226.0,254.3 226.3,249.6 226,245 C225.7,240.6 224.7,236.3 224,232 C223.3,227.7 223.2,223.2 222,219 C220.8,214.8 218.9,210.9 217,207 C215.2,203.2 213.9,198.7 211,196 C208.2,193.4 203.8,191.1 200,191 C196.1,190.9 191.0,193.3 188,196 C185.0,198.7 183.8,203.2 182,207 C180.1,210.9 178.2,214.8 177,219 C175.8,223.2 175.7,227.7 175,232 C174.3,236.3 173.3,240.6 173,245 C172.7,249.6 173.0,254.3 173,259 L173,268Z" fill="#c0c0c0" stroke="#000000" stroke-width="1" fill-rule="evenodd" data-shape="0"/>
      <path d="M211,255 L229,247 C227.3,245.0 225.5,243.0 224,241 C222.5,239.0 221.5,237.0 220,235 C218.5,233.0 216.7,231.0 215,229 C213.3,227.0 211.7,225.0 210,223 C208.3,221.0 207.0,217.5 205,217 C203.0,216.5 199.0,218.3 198,220 C197.1,221.7 198.4,224.7 199,227 C199.7,229.4 201.0,231.7 202,234 C203.0,236.3 204.0,238.7 205,241 C206.0,243.3 207.0,245.7 208,248 C209.0,250.3 210.0,252.7 211,255Z" fill="#808000" stroke="#000000" stroke-width="1" fill-rule="evenodd" data-shape="1"/>
      <path d="M156,224 L165,240 L199,219 C197.3,216.7 196.1,212.7 194,212 C192.1,211.3 189.4,213.2 187,214 C184.4,214.9 181.7,216.2 179,217 C176.4,217.8 173.5,218.1 171,219 C168.6,219.8 166.4,221.2 164,222 C161.5,222.9 158.7,223.3 156,224Z" fill="#808000" stroke="#000000" stroke-width="1" fill-rule="evenodd" data-shape="2"/>
      <path d="M243,205 L234,189 L200,210 C201.3,212.3 202.0,216.0 204,217 C206.0,218.0 209.4,216.6 212,216 C214.7,215.3 217.4,214.0 220,213 C222.4,212.0 224.6,210.8 227,210 C229.5,209.1 232.4,208.8 235,208 C237.7,207.2 240.3,206.0 243,205Z" fill="#808000" stroke="#000000" stroke-width="1" fill-rule="evenodd" data-shape="3"/>
      <path d="M188,173 L170,181 C171.7,183.0 173.5,185.0 175,187 C176.5,189.0 177.5,191.0 179,193 C180.5,195.0 182.3,197.0 184,199 C185.7,201.0 187.3,203.0 189,205 C190.7,207.0 192.0,210.5 194,211 C196.0,211.5 200.0,209.7 201,208 C201.9,206.3 200.6,203.3 200,201 C199.3,198.6 198.0,196.3 197,194 C196.0,191.7 195.0,189.3 194,187 C193.0,184.7 192.0,182.3 191,180 C190.0,177.7 189.0,175.3 188,173Z" fill="#808000" stroke="#000000" stroke-width="1" fill-rule="evenodd" data-shape="4"/>
      <path d="M207,216 C206.6,217.6 203.8,219.7 202,220 C200.2,220.3 197.5,219.2 196,218 C194.5,216.8 192.8,214.6 193,213 C193.2,211.2 196.1,208.4 198,208 C199.8,207.6 202.5,208.7 204,210 C205.5,211.3 207.4,214.3 207,216Z" fill="#808080" stroke="#000000" stroke-width="1" fill-rule="evenodd" data-shape="5"/>
      <path d="M186,268 L186,250 L189,243 C189.3,243.0 189.7,243.1 190,243 C190.4,242.8 190.7,242.3 191,242 C191.3,241.7 191.6,241.2 192,241 C192.3,240.9 192.7,241.0 193,241 C193.3,241.0 193.7,241.0 194,241 C194.3,241.0 194.7,241.0 195,241 C195.3,241.0 195.7,241.0 196,241 C196.3,241.0 196.7,241.0 197,241 C197.3,241.0 197.7,241.0 198,241 C198.3,241.0 198.7,241.0 199,241 C199.3,241.0 199.7,240.9 200,241 C200.4,241.2 200.7,241.7 201,242 C201.3,242.3 201.6,242.8 202,243 C202.3,243.1 202.7,243.0 203,243 L206,250 L206,268 L186,268Z" fill="#ff0000" stroke="#000000" stroke-width="1" fill-rule="evenodd" data-shape="6"/>
    </g>
    <g data-mdcr="group" class="mdcr-region">
      <polygon points="13,118 24,82 35,82 28,118 13,118" fill="#000000" stroke="#000000" stroke-width="1" fill-rule="evenodd" data-shape="7"/>
      <polygon points="27,118 34,82 70,118 27,118" fill="#000000" stroke="#000000" stroke-width="1" fill-rule="evenodd" data-shape="8"/>
      <polygon points="70,118 30,78 57,78 70,118" fill="#000000" stroke="#000000" stroke-width="1" fill-rule="evenodd" data-shape="9"/>
      <polygon points="39,82 55,70 59,82 39,82" fill="#000000" stroke="#000000" stroke-width="1" fill-rule="evenodd" data-shape="10"/>
      <path d="M23,84 L39,28 L34,15 C35.0,14.7 36.2,13.6 37,14 C38.5,14.7 39.0,20.0 40,23 L40,21 L41,23 C41.7,20.0 41.6,15.1 43,14 C43.8,13.4 45.0,14.0 46,14 C45.3,18.0 44.2,22.0 44,26 C43.8,30.0 44.3,34.1 45,38 C45.7,41.8 46.9,45.3 48,49 C49.2,52.9 50.8,57.1 52,61 C53.1,64.7 55.9,68.9 55,72 C54.0,75.2 49.4,78.0 46,80 C42.7,82.0 38.8,83.3 35,84 C31.1,84.7 27.0,84.0 23,84Z" fill="#000000" stroke="#000000" stroke-width="1" fill-rule="evenodd" data-shape="11"/>
    </g>
    <path d="M86,66 C89.3,62.3 92.0,57.3 96,55 C99.8,52.8 105.0,53.4 109,52 C112.6,50.7 116.1,49.2 119,47 C121.8,44.8 123.7,41.7 126,39 C127.7,42.3 128.5,46.3 131,49 C133.5,51.7 137.8,52.4 141,55 C144.6,57.9 147.7,62.3 151,66 C149.0,68.7 146.1,70.7 145,74 C143.7,77.8 145.0,83.3 145,88 C145.0,92.7 145.0,97.3 145,102 C145.0,106.7 147.2,113.4 145,116 C142.9,118.4 137.2,117.7 133,118 C128.5,118.4 123.7,118.0 119,118 C114.1,118.0 108.7,118.4 104,118 C99.8,117.6 94.1,118.4 92,116 C89.8,113.4 92.0,106.7 92,102 C92.0,97.3 92.0,92.7 92,88 C92.0,83.3 93.3,77.8 92,74 C90.9,70.7 88.0,68.7 86,66Z" fill="#000000" stroke="#000000" stroke-width="1" fill-rule="evenodd" data-shape="12"/>
    <path d="M177,119 L177,110 L178,86 L170,90 L161,75 L182,67 L188,50 L175,32 L193,24 L200,42 C200.3,42.0 200.7,42.1 201,42 C201.4,41.8 201.5,41.2 202,41 C202.7,40.7 204.6,40.6 205,41 C205.2,41.2 204.8,41.8 205,42 C205.2,42.2 205.7,42.0 206,42 C206.3,42.0 206.7,42.0 207,42 C207.3,42.0 207.7,42.0 208,42 C208.3,42.0 208.7,42.0 209,42 C209.3,42.0 209.7,42.0 210,42 C210.3,42.0 210.7,41.9 211,42 C211.4,42.2 211.6,42.8 212,43 C212.3,43.1 212.7,42.9 213,43 C213.4,43.2 213.8,43.6 214,44 C214.1,44.3 213.8,44.8 214,45 C214.2,45.2 214.8,44.8 215,45 C215.2,45.2 214.8,45.7 215,46 C215.3,46.4 216.5,46.5 217,47 C217.5,47.5 217.7,48.3 218,49 C218.3,49.7 218.7,50.3 219,51 L238,39 L247,54 L223,63 L234,97 C232.7,97.7 230.5,98.1 230,99 C229.6,99.6 230.0,100.2 230,101 C230.0,102.1 230.0,103.6 230,105 C230.0,106.6 230.0,108.3 230,110 L230,119 L177,119Z" fill="#000000" stroke="#000000" stroke-width="1" fill-rule="evenodd" data-shape="13"/>
    <g data-mdcr="group" class="mdcr-region">
      <polygon points="258,118 258,85 308,85 308,118 258,118" fill="#000000" stroke="#000000" stroke-width="1" fill-rule="evenodd" data-shape="14"/>
      <polygon points="252,85 284,42 315,85 252,85" fill="#000000" stroke="#000000" stroke-width="1" fill-rule="evenodd" data-shape="15"/>
      <polygon points="306,74 298,63 298,58 306,58 306,74" fill="#000000" stroke="#000000" stroke-width="1" fill-rule="evenodd" data-shape="16"/>
    </g>
    <g data-mdcr="group" class="mdcr-region">
      <path d="M346,118 L342,118 L342,82 C344.3,84.0 346.7,88.0 349,88 C351.3,88.0 353.9,81.9 356,82 C357.8,82.1 359.3,85.3 361,87 C362.7,84.3 366.0,81.7 366,79 C366.0,76.3 362.7,73.7 361,71 L373,47 L385,71 L381,71 L381,118 L346,118Z" fill="#000000" stroke="#000000" stroke-width="1" fill-rule="evenodd" data-shape="17"/>
      <path d="M324,71 L336,47 L347,71 C345.7,74.0 343.7,76.6 343,80 C342.2,83.9 343.0,88.7 343,93 C343.0,97.3 343.2,101.8 343,106 C342.8,110.1 344.2,116.0 342,118 C339.7,120.1 331.3,120.1 329,118 C326.8,116.0 328.2,110.1 328,106 C327.8,101.8 328.0,97.3 328,93 C328.0,88.7 328.8,83.9 328,80 C327.3,76.6 325.3,74.0 324,71Z" fill="#000000" stroke="#000000" stroke-width="1" fill-rule="evenodd" data-shape="18"/>
    </g>
  </g>
</svg>