<svg xmlns="http://www.w3.org/2000/svg" xmlns:mdcr="http://sensory.com/mdcr" viewBox="0 0 401 301" width="401" height="301">
  <metadata>
    <mdcr:info xmlns:mdcr="http://sensory.com/mdcr">
      <mdcr:source format="WMF" generator="wmf2svg.js"/>
      <mdcr:bounds left="0" top="0" right="6015" bottom="4515" inch="1440"/>
      <mdcr:records count="11">
        <mdcr:record tag="MDCR-{"/>
        <mdcr:record tag="MDCR-{"/>
        <mdcr:record tag="MDCR-}"/>
        <mdcr:record tag="MDCR-S"/>
        <mdcr:record tag="MDCR-{"/>
        <mdcr:record tag="MDCR-}"/>
        <mdcr:record tag="MDCR-{"/>
        <mdcr:record tag="MDCR-}"/>
        <mdcr:record tag="MDCR-{"/>
        <mdcr:record tag="MDCR-}"/>
        <mdcr:record tag="MDCR-}"/>
      </mdcr:records>
    </mdcr:info>
  </metadata>
  <g data-mdcr="group" class="mdcr-region">
    <g data-mdcr="group" class="mdcr-region">
      <path d="M204,181 L207,163 C205.7,164.3 203.8,165.3 203,167 C202.1,168.9 202.3,171.7 202,174 C201.7,176.3 201.3,178.7 201,181 L195,164 C196.3,165.0 197.9,165.6 199,167 C200.4,168.7 201.2,171.6 202,174 C202.8,176.3 203.3,178.7 204,181Z" fill="#ffff00" stroke="#000000" stroke-width="1" fill-rule="evenodd" data-shape="0"/>
      <path d="M174,268 C176.7,268.0 179.4,268.0 182,268 C184.4,268.0 187.7,269.2 189,268 C190.3,266.8 189.5,263.4 190,261 C190.5,258.4 191.5,255.6 192,253 C192.5,250.6 192.5,248.4 193,246 C193.5,243.4 194.5,240.6 195,238 C195.5,235.6 195.7,233.3 196,231 C193.3,231.0 190.2,230.1 188,231 C185.9,231.9 184.2,233.9 183,236 C181.7,238.2 181.7,241.3 181,244 C180.3,246.7 179.8,249.4 179,252 C178.2,254.7 176.8,257.3 176,260 C175.2,262.6 174.7,265.3 174,268Z" fill="#800080" stroke="#000000" stroke-width="1" fill-rule="evenodd" data-shape="1"/>
      <path d="M216,219 L220,231 L197,233 L198,230 C197.7,231.3 196.6,233.0 197,234 C197.4,234.9 199.0,235.3 200,236 C201.0,233.7 201.4,231.0 203,229 C204.7,226.9 207.8,225.7 210,224 C212.1,222.4 214.0,220.7 216,219Z" fill="#00ff00" stroke="#000000" stroke-width="1" fill-rule="evenodd" data-shape="2"/>
      <path d="M185,231 C188.7,231.0 192.6,231.7 196,231 C199.2,230.3 202.1,228.6 205,227 C208.1,225.3 212.5,223.7 214,221 C215.4,218.4 214.6,214.3 214,211 C213.3,207.6 211.2,204.4 210,201 C208.8,197.7 208.0,194.4 207,191 C206.0,187.4 205.0,183.6 204,180 C203.0,176.6 202.0,173.3 201,170 L185,231Z" fill="#ff0000" stroke="#000000" stroke-width="1" fill-rule="evenodd" data-shape="3"/>
      <polygon points="231,268 220,231 196,231 231,268 231,268" fill="#800080" stroke="#000000" stroke-width="1" fill-rule="evenodd" data-shape="4"/>
      <polygon points="188,268 196,231 231,268 188,268 188,268" fill="#ff0000" stroke="#000000" stroke-width="1" fill-rule="evenodd" data-shape="5"/>
    </g>
    <g data-mdcr="group" class="mdcr-region">
      <polygon points="13,118 24,82 35,82 28,118 13,118" fill="#000000" stroke="#000000" stroke-width="1" fill-rule="evenodd" data-shape="6"/>
      <polygon points="27,118 34,82 70,118 27,118" fill="#000000" stroke="#000000" stroke-width="1" fill-rule="evenodd" data-shape="7"/>
      <polygon points="70,118 30,78 57,78 70,118" fill="#000000" stroke="#000000" stroke-width="1" fill-rule="evenodd" data-shape="8"/>
      <polygon points="39,82 55,70 59,82 39,82" fill="#000000" stroke="#000000" stroke-width="1" fill-rule="evenodd" data-shape="9"/>
      <path d="M23,84 L39,28 L34,15 C35.0,14.7 36.2,13.6 37,14 C38.5,14.7 39.0,20.0 40,23 L40,21 L41,23 C41.7,20.0 41.6,15.1 43,14 C43.8,13.4 45.0,14.0 46,14 C45.3,18.0 44.2,22.0 44,26 C43.8,30.0 44.3,34.1 45,38 C45.7,41.8 46.9,45.3 48,49 C49.2,52.9 50.8,57.1 52,61 C53.1,64.7 55.9,68.9 55,72 C54.0,75.2 49.4,78.0 46,80 C42.7,82.0 38.8,83.3 35,84 C31.1,84.7 27.0,84.0 23,84Z" fill="#000000" stroke="#000000" stroke-width="1" fill-rule="evenodd" data-shape="10"/>
    </g>
    <path d="M86,66 C89.3,62.3 92.0,57.3 96,55 C99.8,52.8 105.0,53.4 109,52 C112.6,50.7 116.1,49.2 119,47 C121.8,44.8 123.7,41.7 126,39 C127.7,42.3 128.5,46.3 131,49 C133.5,51.7 137.8,52.4 141,55 C144.6,57.9 147.7,62.3 151,66 C149.0,68.7 146.1,70.7 145,74 C143.7,77.8 145.0,83.3 145,88 C145.0,92.7 145.0,97.3 145,102 C145.0,106.7 147.2,113.4 145,116 C142.9,118.4 137.2,117.7 133,118 C128.5,118.4 123.7,118.0 119,118 C114.1,118.0 108.7,118.4 104,118 C99.8,117.6 94.1,118.4 92,116 C89.8,113.4 92.0,106.7 92,102 C92.0,97.3 92.0,92.7 92,88 C92.0,83.3 93.3,77.8 92,74 C90.9,70.7 88.0,68.7 86,66Z" fill="#000000" stroke="#000000" stroke-width="1" fill-rule="evenodd" data-shape="11"/>
    <path d="M177,119 L177,110 L178,86 L170,90 L161,75 L182,67 L188,50 L175,32 L193,24 L200,42 C200.3,42.0 200.7,42.1 201,42 C201.4,41.8 201.5,41.2 202,41 C202.7,40.7 204.6,40.6 205,41 C205.2,41.2 204.8,41.8 205,42 C205.2,42.2 205.7,42.0 206,42 C206.3,42.0 206.7,42.0 207,42 C207.3,42.0 207.7,42.0 208,42 C208.3,42.0 208.7,42.0 209,42 C209.3,42.0 209.7,42.0 210,42 C210.3,42.0 210.7,41.9 211,42 C211.4,42.2 211.6,42.8 212,43 C212.3,43.1 212.7,42.9 213,43 C213.4,43.2 213.8,43.6 214,44 C214.1,44.3 213.8,44.8 214,45 C214.2,45.2 214.8,44.8 215,45 C215.2,45.2 214.8,45.7 215,46 C215.3,46.4 216.5,46.5 217,47 C217.5,47.5 217.7,48.3 218,49 C218.3,49.7 218.7,50.3 219,51 L238,39 L247,54 L223,63 L234,97 C232.7,97.7 230.5,98.1 230,99 C229.6,99.6 230.0,100.2 230,101 C230.0,102.1 230.0,103.6 230,105 C230.0,106.6 230.0,108.3 230,110 L230,119 L177,119Z" fill="#000000" stroke="#000000" stroke-width="1" fill-rule="evenodd" data-shape="12"/>
    <g data-mdcr="group" class="mdcr-region">
      <polygon points="258,118 258,85 308,85 308,118 258,118" fill="#000000" stroke="#000000" stroke-width="1" fill-rule="evenodd" data-shape="13"/>
      <polygon points="252,85 284,42 315,85 252,85" fill="#000000" stroke="#000000" stroke-width="1" fill-rule="evenodd" data-shape="14"/>
      <polygon points="306,74 298,63 298,58 306,58 306,74" fill="#000000" stroke="#000000" stroke-width="1" fill-rule="evenodd" data-shape="15"/>
    </g>
    <g data-mdcr="group" class="mdcr-region">
      <path d="M346,118 L342,118 L342,82 C344.3,84.0 346.7,88.0 349,88 C351.3,88.0 353.9,81.9 356,82 C357.8,82.1 359.3,85.3 361,87 C362.7,84.3 366.0,81.7 366,79 C366.0,76.3 362.7,73.7 361,71 L373,47 L385,71 L381,71 L381,118 L346,118Z" fill="#000000" stroke="#000000" stroke-width="1" fill-rule="evenodd" data-shape="16"/>
      <path d="M324,71 L336,47 L347,71 C345.7,74.0 343.7,76.6 343,80 C342.2,83.9 343.0,88.7 343,93 C343.0,97.3 343.2,101.8 343,106 C342.8,110.1 344.2,116.0 342,118 C339.7,120.1 331.3,120.1 329,118 C326.8,116.0 328.2,110.1 328,106 C327.8,101.8 328.0,97.3 328,93 C328.0,88.7 328.8,83.9 328,80 C327.3,76.6 325.3,74.0 324,71Z" fill="#000000" stroke="#000000" stroke-width="1" fill-rule="evenodd" data-shape="17"/>
    </g>
  </g>
</svg>