<svg xmlns="http://www.w3.org/2000/svg" xmlns:mdcr="http://sensory.com/mdcr" viewBox="0 0 401 301" width="401" height="301">
  <metadata>
    <mdcr:info xmlns:mdcr="http://sensory.com/mdcr">
      <mdcr:source format="WMF" generator="wmf2svg.js"/>
      <mdcr:bounds left="0" top="0" right="6015" bottom="4515" inch="1440"/>
      <mdcr:records count="11">
        <mdcr:record tag="MDCR-{"/>
        <mdcr:record tag="MDCR-{"/>
        <mdcr:record tag="MDCR-}"/>
        <mdcr:record tag="MDCR-S"/>
        <mdcr:record tag="MDCR-{"/>
        <mdcr:record tag="MDCR-}"/>
        <mdcr:record tag="MDCR-{"/>
        <mdcr:record tag="MDCR-}"/>
        <mdcr:record tag="MDCR-{"/>
        <mdcr:record tag="MDCR-}"/>
        <mdcr:record tag="MDCR-}"/>
      </mdcr:records>
    </mdcr:info>
  </metadata>
  <g data-mdcr="group" class="mdcr-region">
    <g data-mdcr="group" class="mdcr-region">
      <path d="M223,268 L170,268 L170,259 C170.0,254.3 169.7,249.6 170,245 C170.3,240.6 171.3,236.3 172,232 C172.7,227.7 172.8,223.2 174,219 C175.2,214.8 177.1,210.9 179,207 C180.8,203.2 182.0,198.7 185,196 C188.0,193.3 193.1,190.9 197,191 C200.8,191.1 205.2,193.4 208,196 C210.9,198.7 212.2,203.2 214,207 C215.9,210.9 217.8,214.8 219,219 C220.2,223.2 220.3,227.7 221,232 C221.7,236.3 222.7,240.6 223,245 C223.3,249.6 223.0,254.3 223,259 L223,268Z" fill="#c0c0c0" stroke="#000000" stroke-width="1" fill-rule="evenodd" data-shape="0"/>
      <path d="M185,255 L167,247 C168.7,245.0 170.5,243.0 172,241 C173.5,239.0 174.5,237.0 176,235 C177.5,233.0 179.3,231.0 181,229 C182.7,227.0 184.3,225.0 186,223 C187.7,221.0 189.0,217.5 191,217 C193.0,216.5 197.0,218.3 198,220 C198.9,221.7 197.6,224.7 197,227 C196.3,229.4 195.0,231.7 194,234 C193.0,236.3 192.0,238.7 191,241 C190.0,243.3 189.0,245.7 188,248 C187.0,250.3 186.0,252.7 185,255Z" fill="#808000" stroke="#000000" stroke-width="1" fill-rule="evenodd" data-shape="1"/>
      <path d="M240,224 L231,240 L197,219 C198.7,216.7 199.9,212.7 202,212 C203.9,211.3 206.6,213.2 209,214 C211.6,214.9 214.3,216.2 217,217 C219.6,217.8 222.5,218.1 225,219 C227.4,219.8 229.6,221.2 232,222 C234.5,222.9 237.3,223.3 240,224Z" fill="#808000" stroke="#000000" stroke-width="1" fill-rule="evenodd" data-shape="2"/>
      <path d="M153,205 L162,189 L196,210 C194.7,212.3 194.0,216.0 192,217 C190.0,218.0 186.6,216.6 184,216 C181.3,215.3 178.6,214.0 176,213 C173.6,212.0 171.4,210.8 169,210 C166.5,209.1 163.6,208.8 161,208 C158.3,207.2 155.7,206.0 153,205Z" fill="#808000" stroke="#000000" stroke-width="1" fill-rule="evenodd" data-shape="3"/>
      <path d="M208,173 L226,181 C224.3,183.0 222.5,185.0 221,187 C219.5,189.0 218.5,191.0 217,193 C215.5,195.0 213.7,197.0 212,199 C210.3,201.0 208.7,203.0 207,205 C205.3,207.0 204.0,210.5 202,211 C200.0,211.5 196.0,209.7 195,208 C194.1,206.3 195.4,203.3 196,201 C196.7,198.6 198.0,196.3 199,194 C200.0,191.7 201.0,189.3 202,187 C203.0,184.7 204.0,182.3 205,180 C206.0,177.7 207.0,175.3 208,173Z" fill="#808000" stroke="#000000" stroke-width="1" fill-rule="evenodd" data-shape="4"/>
      <path d="M189,216 C189.4,217.6 192.2,219.7 194,220 C195.8,220.3 198.5,219.2 200,218 C201.5,216.8 203.2,214.6 203,213 C202.8,211.2 199.9,208.4 198,208 C196.2,207.6 193.5,208.7 192,210 C190.5,211.3 188.6,214.3 189,216Z" fill="#808080" stroke="#000000" stroke-width="1" fill-rule="evenodd" data-shape="5"/>
      <path d="M210,268 L210,250 L207,243 C206.7,243.0 206.3,243.1 206,243 C205.6,242.8 205.3,242.3 205,242 C204.7,241.7 204.4,241.2 204,241 C203.7,240.9 203.3,241.0 203,241 C202.7,241.0 202.3,241.0 202,241 C201.7,241.0 201.3,241.0 201,241 C200.7,241.0 200.3,241.0 200,241 C199.7,241.0 199.3,241.0 199,241 C198.7,241.0 198.3,241.0 198,241 C197.7,241.0 197.3,241.0 197,241 C196.7,241.0 196.3,240.9 196,241 C195.6,241.2 195.3,241.7 195,242 C194.7,242.3 194.4,242.8 194,243 C193.7,243.1 193.3,243.0 193,243 L190,250 L190,268 L210,268Z" fill="#ff0000" stroke="#000000" stroke-width="1" fill-rule="evenodd" data-shape="6"/>
    </g>
    <g data-mdcr="group" class="mdcr-region">
      <path d="M52,118 L56,118 L56,82 C53.7,84.0 51.3,88.0 49,88 C46.7,88.0 44.1,81.9 42,82 C40.2,82.1 38.7,85.3 37,87 C35.3,84.3 32.0,81.7 32,79 C32.0,76.3 35.3,73.7 37,71 L25,47 L13,71 L17,71 L17,118 L52,118Z" fill="#000000" stroke="#000000" stroke-width="1" fill-rule="evenodd" data-shape="7"/>
      <path d="M74,71 L62,47 L51,71 C52.3,74.0 54.3,76.6 55,80 C55.8,83.9 55.0,88.7 55,93 C55.0,97.3 54.8,101.8 55,106 C55.2,110.1 53.8,116.0 56,118 C58.3,120.1 66.7,120.1 69,118 C71.2,116.0 69.8,110.1 70,106 C70.2,101.8 70.0,97.3 70,93 C70.0,88.7 69.2,83.9 70,80 C70.7,76.6 72.7,74.0 74,71Z" fill="#000000" stroke="#000000" stroke-width="1" fill-rule="evenodd" data-shape="8"/>
    </g>
    <g data-mdcr="group" class="mdcr-region">
      <polygon points="140,118 140,85 90,85 90,118 140,118" fill="#000000" stroke="#000000" stroke-width="1" fill-rule="evenodd" data-shape="9"/>
      <polygon points="146,85 114,42 83,85 146,85" fill="#000000" stroke="#000000" stroke-width="1" fill-rule="evenodd" data-shape="10"/>
      <polygon points="92,74 100,63 100,58 92,58 92,74" fill="#000000" stroke="#000000" stroke-width="1" fill-rule="evenodd" data-shape="11"/>
    </g>
    <path d="M221,119 L221,110 L220,86 L228,90 L237,75 L216,67 L210,50 L223,32 L205,24 L198,42 C197.7,42.0 197.3,42.1 197,42 C196.6,41.8 196.5,41.2 196,41 C195.3,40.7 193.4,40.6 193,41 C192.8,41.2 193.2,41.8 193,42 C192.8,42.2 192.3,42.0 192,42 C191.7,42.0 191.3,42.0 191,42 C190.7,42.0 190.3,42.0 190,42 C189.7,42.0 189.3,42.0 189,42 C188.7,42.0 188.3,42.0 188,42 C187.7,42.0 187.3,41.9 187,42 C186.6,42.2 186.4,42.8 186,43 C185.7,43.1 185.3,42.9 185,43 C184.6,43.2 184.2,43.6 184,44 C183.9,44.3 184.2,44.8 184,45 C183.8,45.2 183.2,44.8 183,45 C182.8,45.2 183.2,45.7 183,46 C182.7,46.4 181.5,46.5 181,47 C180.5,47.5 180.3,48.3 180,49 C179.7,49.7 179.3,50.3 179,51 L160,39 L151,54 L175,63 L164,97 C165.3,97.7 167.5,98.1 168,99 C168.4,99.6 168.0,100.2 168,101 C168.0,102.1 168.0,103.6 168,105 C168.0,106.6 168.0,108.3 168,110 L168,119 L221,119Z" fill="#000000" stroke="#000000" stroke-width="1" fill-rule="evenodd" data-shape="12"/>
    <path d="M312,66 C308.7,62.3 306.0,57.3 302,55 C298.2,52.8 293.0,53.4 289,52 C285.4,50.7 281.9,49.2 279,47 C276.2,44.8 274.3,41.7 272,39 C270.3,42.3 269.5,46.3 267,49 C264.5,51.7 260.2,52.4 257,55 C253.4,57.9 250.3,62.3 247,66 C249.0,68.7 251.9,70.7 253,74 C254.3,77.8 253.0,83.3 253,88 C253.0,92.7 253.0,97.3 253,102 C253.0,106.7 250.8,113.4 253,116 C255.1,118.4 260.8,117.6 265,118 C269.7,118.4 275.1,118.0 280,118 C284.7,118.0 289.5,118.4 294,118 C298.2,117.7 303.9,118.4 306,116 C308.2,113.4 306.0,106.7 306,102 C306.0,97.3 306.0,92.7 306,88 C306.0,83.3 304.7,77.8 306,74 C307.1,70.7 310.0,68.7 312,66Z" fill="#000000" stroke="#000000" stroke-width="1" fill-rule="evenodd" data-shape="13"/>
    <g data-mdcr="group" class="mdcr-region">
      <polygon points="385,118 374,82 363,82 370,118 385,118" fill="#000000" stroke="#000000" stroke-width="1" fill-rule="evenodd" data-shape="14"/>
      <polygon points="371,118 364,82 328,118 371,118" fill="#000000" stroke="#000000" stroke-width="1" fill-rule="evenodd" data-shape="15"/>
      <polygon points="328,118 368,78 341,78 328,118" fill="#000000" stroke="#000000" stroke-width="1" fill-rule="evenodd" data-shape="16"/>
      <polygon points="359,82 343,70 339,82 359,82" fill="#000000" stroke="#000000" stroke-width="1" fill-rule="evenodd" data-shape="17"/>
      <path d="M375,84 L359,28 L364,15 C363.0,14.7 361.8,13.6 361,14 C359.5,14.7 359.0,20.0 358,23 L358,21 L357,23 C356.3,20.0 356.4,15.1 355,14 C354.2,13.4 353.0,14.0 352,14 C352.7,18.0 353.8,22.0 354,26 C354.2,30.0 353.7,34.1 353,38 C352.3,41.8 351.1,45.3 350,49 C348.8,52.9 347.2,57.1 346,61 C344.9,64.7 342.1,68.9 343,72 C344.0,75.2 348.6,78.0 352,80 C355.3,82.0 359.2,83.3 363,84 C366.9,84.7 371.0,84.0 375,84Z" fill="#000000" stroke="#000000" stroke-width="1" fill-rule="evenodd" data-shape="18"/>
    </g>
  </g>
</svg>