<svg xmlns="http://www.w3.org/2000/svg" xmlns:mdcr="http://sensory.com/mdcr" viewBox="0 0 401 301" width="401" height="301">
  <metadata>
    <mdcr:info xmlns:mdcr="http://sensory.com/mdcr">
      <mdcr:source format="WMF" generator="wmf2svg.js"/>
      <mdcr:bounds left="0" top="0" right="6015" bottom="4515" inch="1440"/>
      <mdcr:records count="10">
        <mdcr:record tag="MDCR-{"/>
        <mdcr:record tag="MDCR-{"/>
        <mdcr:record tag="MDCR-}"/>
        <mdcr:record tag="MDCR-{"/>
        <mdcr:record tag="MDCR-}"/>
        <mdcr:record tag="MDCR-{"/>
        <mdcr:record tag="MDCR-}"/>
        <mdcr:record tag="MDCR-{"/>
        <mdcr:record tag="MDCR-}"/>
        <mdcr:record tag="MDCR-}"/>
      </mdcr:records>
    </mdcr:info>
  </metadata>
  <g data-mdcr="group" class="mdcr-region">
    <g data-mdcr="group" class="mdcr-region">
      <path d="M195,179 L192,161 C193.3,162.3 195.2,163.3 196,165 C196.9,166.9 196.7,169.7 197,172 C197.3,174.3 197.7,176.7 198,179 L204,162 C202.7,163.0 201.1,163.6 200,165 C198.6,166.7 197.8,169.6 197,172 C196.2,174.3 195.7,176.7 195,179Z" fill="#ffff00" stroke="#000000" stroke-width="1" fill-rule="evenodd" data-shape="0"/>
      <path d="M225,266 C222.3,266.0 219.6,266.0 217,266 C214.6,266.0 211.3,267.2 210,266 C208.7,264.8 209.5,261.4 209,259 C208.5,256.4 207.5,253.6 207,251 C206.5,248.6 206.5,246.4 206,244 C205.5,241.4 204.5,238.6 204,236 C203.5,233.6 203.3,231.3 203,229 C205.7,229.0 208.8,228.1 211,229 C213.1,229.9 214.8,231.9 216,234 C217.3,236.2 217.3,239.3 218,242 C218.7,244.7 219.2,247.4 220,250 C220.8,252.7 222.2,255.3 223,258 C223.8,260.6 224.3,263.3 225,266Z" fill="#800080" stroke="#000000" stroke-width="1" fill-rule="evenodd" data-shape="1"/>
      <path d="M183,217 L179,229 L202,231 L201,228 C201.3,229.3 202.4,231.0 202,232 C201.6,232.9 200.0,233.3 199,234 C198.0,231.7 197.6,229.0 196,227 C194.3,224.9 191.2,223.7 189,222 C186.9,220.4 185.0,218.7 183,217Z" fill="#00ff00" stroke="#000000" stroke-width="1" fill-rule="evenodd" data-shape="2"/>
      <path d="M214,229 C210.3,229.0 206.4,229.7 203,229 C199.8,228.3 196.9,226.6 194,225 C190.9,223.3 186.5,221.7 185,219 C183.6,216.4 184.4,212.3 185,209 C185.7,205.6 187.8,202.4 189,199 C190.2,195.7 191.0,192.4 192,189 C193.0,185.4 194.0,181.6 195,178 C196.0,174.6 197.0,171.3 198,168 L214,229Z" fill="#ff0000" stroke="#000000" stroke-width="1" fill-rule="evenodd" data-shape="3"/>
      <polygon points="168,266 179,229 203,229 168,266 168,266" fill="#800080" stroke="#000000" stroke-width="1" fill-rule="evenodd" data-shape="4"/>
      <polygon points="211,266 203,229 168,266 211,266 211,266" fill="#ff0000" stroke="#000000" stroke-width="1" fill-rule="evenodd" data-shape="5"/>
    </g>
    <g data-mdcr="group" class="mdcr-region">
      <path d="M52,118 L56,118 L56,82 C53.7,84.0 51.3,88.0 49,88 C46.7,88.0 44.1,81.9 42,82 C40.2,82.1 38.7,85.3 37,87 C35.3,84.3 32.0,81.7 32,79 C32.0,76.3 35.3,73.7 37,71 L25,47 L13,71 L17,71 L17,118 L52,118Z" fill="#000000" stroke="#000000" stroke-width="1" fill-rule="evenodd" data-shape="6"/>
      <path d="M74,71 L62,47 L51,71 C52.3,74.0 54.3,76.6 55,80 C55.8,83.9 55.0,88.7 55,93 C55.0,97.3 54.8,101.8 55,106 C55.2,110.1 53.8,116.0 56,118 C58.3,120.1 66.7,120.1 69,118 C71.2,116.0 69.8,110.1 70,106 C70.2,101.8 70.0,97.3 70,93 C70.0,88.7 69.2,83.9 70,80 C70.7,76.6 72.7,74.0 74,71Z" fill="#000000" stroke="#000000" stroke-width="1" fill-rule="evenodd" data-shape="7"/>
    </g>
    <g data-mdcr="group" class="mdcr-region">
      <polygon points="140,118 140,85 90,85 90,118 140,118" fill="#000000" stroke="#000000" stroke-width="1" fill-rule="evenodd" data-shape="8"/>
      <polygon points="146,85 114,42 83,85 146,85" fill="#000000" stroke="#000000" stroke-width="1" fill-rule="evenodd" data-shape="9"/>
      <polygon points="92,74 100,63 100,58 92,58 92,74" fill="#000000" stroke="#000000" stroke-width="1" fill-rule="evenodd" data-shape="10"/>
    </g>
    <path d="M221,119 L221,110 L220,86 L228,90 L237,75 L216,67 L210,50 L223,32 L205,24 L198,42 C197.7,42.0 197.3,42.1 197,42 C196.6,41.8 196.5,41.2 196,41 C195.3,40.7 193.4,40.6 193,41 C192.8,41.2 193.2,41.8 193,42 C192.8,42.2 192.3,42.0 192,42 C191.7,42.0 191.3,42.0 191,42 C190.7,42.0 190.3,42.0 190,42 C189.7,42.0 189.3,42.0 189,42 C188.7,42.0 188.3,42.0 188,42 C187.7,42.0 187.3,41.9 187,42 C186.6,42.2 186.4,42.8 186,43 C185.7,43.1 185.3,42.9 185,43 C184.6,43.2 184.2,43.6 184,44 C183.9,44.3 184.2,44.8 184,45 C183.8,45.2 183.2,44.8 183,45 C182.8,45.2 183.2,45.7 183,46 C182.7,46.4 181.5,46.5 181,47 C180.5,47.5 180.3,48.3 180,49 C179.7,49.7 179.3,50.3 179,51 L160,39 L151,54 L175,63 L164,97 C165.3,97.7 167.5,98.1 168,99 C168.4,99.6 168.0,100.2 168,101 C168.0,102.1 168.0,103.6 168,105 C168.0,106.6 168.0,108.3 168,110 L168,119 L221,119Z" fill="#000000" stroke="#000000" stroke-width="1" fill-rule="evenodd" data-shape="11"/>
    <path d="M312,66 C308.7,62.3 306.0,57.3 302,55 C298.2,52.8 293.0,53.4 289,52 C285.4,50.7 281.9,49.2 279,47 C276.2,44.8 274.3,41.7 272,39 C270.3,42.3 269.5,46.3 267,49 C264.5,51.7 260.2,52.4 257,55 C253.4,57.9 250.3,62.3 247,66 C249.0,68.7 251.9,70.7 253,74 C254.3,77.8 253.0,83.3 253,88 C253.0,92.7 253.0,97.3 253,102 C253.0,106.7 250.8,113.4 253,116 C255.1,118.4 260.8,117.6 265,118 C269.7,118.4 275.1,118.0 280,118 C284.7,118.0 289.5,118.4 294,118 C298.2,117.7 303.9,118.4 306,116 C308.2,113.4 306.0,106.7 306,102 C306.0,97.3 306.0,92.7 306,88 C306.0,83.3 304.7,77.8 306,74 C307.1,70.7 310.0,68.7 312,66Z" fill="#000000" stroke="#000000" stroke-width="1" fill-rule="evenodd" data-shape="12"/>
    <g data-mdcr="group" class="mdcr-region">
      <polygon points="385,118 374,82 363,82 370,118 385,118" fill="#000000" stroke="#000000" stroke-width="1" fill-rule="evenodd" data-shape="13"/>
      <polygon points="371,118 364,82 328,118 371,118" fill="#000000" stroke="#000000" stroke-width="1" fill-rule="evenodd" data-shape="14"/>
      <polygon points="328,118 368,78 341,78 328,118" fill="#000000" stroke="#000000" stroke-width="1" fill-rule="evenodd" data-shape="15"/>
      <polygon points="359,82 343,70 339,82 359,82" fill="#000000" stroke="#000000" stroke-width="1" fill-rule="evenodd" data-shape="16"/>
      <path d="M375,84 L359,28 L364,15 C363.0,14.7 361.8,13.6 361,14 C359.5,14.7 359.0,20.0 358,23 L358,21 L357,23 C356.3,20.0 356.4,15.1 355,14 C354.2,13.4 353.0,14.0 352,14 C352.7,18.0 353.8,22.0 354,26 C354.2,30.0 353.7,34.1 353,38 C352.3,41.8 351.1,45.3 350,49 C348.8,52.9 347.2,57.1 346,61 C344.9,64.7 342.1,68.9 343,72 C344.0,75.2 348.6,78.0 352,80 C355.3,82.0 359.2,83.3 363,84 C366.9,84.7 371.0,84.0 375,84Z" fill="#000000" stroke="#000000" stroke-width="1" fill-rule="evenodd" data-shape="17"/>
    </g>
  </g>
</svg>