<svg xmlns="http://www.w3.org/2000/svg" xmlns:mdcr="http://sensory.com/mdcr" viewBox="0 0 401 301" width="401" height="301">
  <metadata>
    <mdcr:info xmlns:mdcr="http://sensory.com/mdcr">
      <mdcr:source format="WMF" generator="wmf2svg.js"/>
      <mdcr:bounds left="0" top="0" right="6015" bottom="4515" inch="1440"/>
      <mdcr:records count="11">
        <mdcr:record tag="MDCR-{"/>
        <mdcr:record tag="MDCR-{"/>
        <mdcr:record tag="MDCR-}"/>
        <mdcr:record tag="MDCR-{"/>
        <mdcr:record tag="MDCR-}"/>
        <mdcr:record tag="MDCR-{"/>
        <mdcr:record tag="MDCR-}"/>
        <mdcr:record tag="MDCR-{"/>
        <mdcr:record tag="MDCR-}"/>
        <mdcr:record tag="MDCR-S"/>
        <mdcr:record tag="MDCR-}"/>
      </mdcr:records>
    </mdcr:info>
  </metadata>
  <g data-mdcr="group" class="mdcr-region">
    <g data-mdcr="group" class="mdcr-region">
      <path d="M221,235 C219.5,233.5 215.0,235.0 212,235 C209.0,235.0 206.0,235.0 203,235 C200.0,235.0 197.0,235.0 194,235 C191.0,235.0 188.1,235.0 185,235 C181.8,235.0 177.4,233.8 175,235 C173.1,235.9 171.7,237.9 171,240 C170.1,242.4 171.0,246.0 171,249 C171.0,252.0 171.0,255.0 171,258 C171.0,261.0 169.5,265.5 171,267 C172.5,268.5 177.0,267.0 180,267 C183.0,267.0 186.0,267.0 189,267 C192.0,267.0 195.0,267.0 198,267 C201.0,267.0 203.9,267.0 207,267 C210.2,267.0 214.6,268.2 217,267 C218.9,266.1 220.3,264.1 221,262 C221.9,259.6 221.0,256.0 221,253 C221.0,250.0 221.0,247.0 221,244 C221.0,241.0 222.5,236.5 221,235Z" fill="#808000" stroke="#000000" stroke-width="1" fill-rule="evenodd" data-shape="0"/>
      <path d="M214,243 C212.7,241.7 208.3,242.4 206,243 C204.1,243.5 201.9,244.4 201,246 C199.9,248.0 201.0,252.1 201,255 C201.0,257.7 200.1,260.9 201,263 C201.7,264.7 203.3,266.3 205,267 C207.1,267.9 211.5,268.3 213,267 C214.5,265.7 213.8,261.7 214,259 C214.2,256.3 214.0,253.7 214,251 C214.0,248.3 215.3,244.3 214,243Z" fill="#0000ff" stroke="#000000" stroke-width="1" fill-rule="evenodd" data-shape="1"/>
      <path d="M196,244 C194.7,242.7 189.3,242.7 188,244 C186.8,245.2 187.2,249.1 188,251 C188.7,252.7 190.6,254.9 192,255 C193.3,255.1 195.3,253.5 196,252 C196.9,250.1 197.3,245.3 196,244Z" fill="#ffff00" stroke="#000000" stroke-width="1" fill-rule="evenodd" data-shape="2"/>
      <path d="M183,244 C181.7,242.7 176.3,242.7 175,244 C173.8,245.2 174.2,249.1 175,251 C175.7,252.7 177.6,254.9 179,255 C180.3,255.1 182.3,253.5 183,252 C183.9,250.1 184.3,245.3 183,244Z" fill="#ffff00" stroke="#000000" stroke-width="1" fill-rule="evenodd" data-shape="3"/>
      <polygon points="227,235 164,235 195,192 227,235 227,235" fill="#ff0000" stroke="#000000" stroke-width="1" fill-rule="evenodd" data-shape="4"/>
      <path d="M173,224 C173.0,221.0 172.8,217.8 173,215 C173.2,212.5 173.7,210.3 174,208 L181,210 C180.0,212.3 179.3,214.7 178,217 C176.6,219.4 174.7,221.7 173,224Z" fill="#808000" stroke="#000000" stroke-width="1" fill-rule="evenodd" data-shape="5"/>
      <path d="M202,227 C200.5,228.5 195.3,227.9 193,227 C191.2,226.3 189.6,224.7 189,223 C188.3,220.9 188.6,216.8 190,215 C191.3,213.2 195.0,211.5 197,212 C199.0,212.5 201.1,215.6 202,218 C202.9,220.6 203.5,225.5 202,227Z" fill="#808000" stroke="#000000" stroke-width="1" fill-rule="evenodd" data-shape="6"/>
      <polyline points="204,218 196,211 186,218" fill="none" stroke="#000000" stroke-width="1"/>
      <path d="M198,217 L193,217 L193,222 L198,222Z" fill="#ffff00" stroke="#000000" stroke-width="1" fill-rule="evenodd" data-shape="7"/>
    </g>
    <g data-mdcr="group" class="mdcr-region">
      <path d="M52,118 L56,118 L56,82 C53.7,84.0 51.3,88.0 49,88 C46.7,88.0 44.1,81.9 42,82 C40.2,82.1 38.7,85.3 37,87 C35.3,84.3 32.0,81.7 32,79 C32.0,76.3 35.3,73.7 37,71 L25,47 L13,71 L17,71 L17,118 L52,118Z" fill="#000000" stroke="#000000" stroke-width="1" fill-rule="evenodd" data-shape="8"/>
      <path d="M74,71 L62,47 L51,71 C52.3,74.0 54.3,76.6 55,80 C55.8,83.9 55.0,88.7 55,93 C55.0,97.3 54.8,101.8 55,106 C55.2,110.1 53.8,116.0 56,118 C58.3,120.1 66.7,120.1 69,118 C71.2,116.0 69.8,110.1 70,106 C70.2,101.8 70.0,97.3 70,93 C70.0,88.7 69.2,83.9 70,80 C70.7,76.6 72.7,74.0 74,71Z" fill="#000000" stroke="#000000" stroke-width="1" fill-rule="evenodd" data-shape="9"/>
    </g>
    <g data-mdcr="group" class="mdcr-region">
      <polygon points="140,118 140,85 90,85 90,118 140,118" fill="#000000" stroke="#000000" stroke-width="1" fill-rule="evenodd" data-shape="10"/>
      <polygon points="146,85 114,42 83,85 146,85" fill="#000000" stroke="#000000" stroke-width="1" fill-rule="evenodd" data-shape="11"/>
      <polygon points="92,74 100,63 100,58 92,58 92,74" fill="#000000" stroke="#000000" stroke-width="1" fill-rule="evenodd" data-shape="12"/>
    </g>
    <path d="M221,119 L221,110 L220,86 L228,90 L237,75 L216,67 L210,50 L223,32 L205,24 L198,42 C197.7,42.0 197.3,42.1 197,42 C196.6,41.8 196.5,41.2 196,41 C195.3,40.7 193.4,40.6 193,41 C192.8,41.2 193.2,41.8 193,42 C192.8,42.2 192.3,42.0 192,42 C191.7,42.0 191.3,42.0 191,42 C190.7,42.0 190.3,42.0 190,42 C189.7,42.0 189.3,42.0 189,42 C188.7,42.0 188.3,42.0 188,42 C187.7,42.0 187.3,41.9 187,42 C186.6,42.2 186.4,42.8 186,43 C185.7,43.1 185.3,42.9 185,43 C184.6,43.2 184.2,43.6 184,44 C183.9,44.3 184.2,44.8 184,45 C183.8,45.2 183.2,44.8 183,45 C182.8,45.2 183.2,45.7 183,46 C182.7,46.4 181.5,46.5 181,47 C180.5,47.5 180.3,48.3 180,49 C179.7,49.7 179.3,50.3 179,51 L160,39 L151,54 L175,63 L164,97 C165.3,97.7 167.5,98.1 168,99 C168.4,99.6 168.0,100.2 168,101 C168.0,102.1 168.0,103.6 168,105 C168.0,106.6 168.0,108.3 168,110 L168,119 L221,119Z" fill="#000000" stroke="#000000" stroke-width="1" fill-rule="evenodd" data-shape="13"/>
    <path d="M312,66 C308.7,62.3 306.0,57.3 302,55 C298.2,52.8 293.0,53.4 289,52 C285.4,50.7 281.9,49.2 279,47 C276.2,44.8 274.3,41.7 272,39 C270.3,42.3 269.5,46.3 267,49 C264.5,51.7 260.2,52.4 257,55 C253.4,57.9 250.3,62.3 247,66 C249.0,68.7 251.9,70.7 253,74 C254.3,77.8 253.0,83.3 253,88 C253.0,92.7 253.0,97.3 253,102 C253.0,106.7 250.8,113.4 253,116 C255.1,118.4 260.8,117.6 265,118 C269.7,118.4 275.1,118.0 280,118 C284.7,118.0 289.5,118.4 294,118 C298.2,117.7 303.9,118.4 306,116 C308.2,113.4 306.0,106.7 306,102 C306.0,97.3 306.0,92.7 306,88 C306.0,83.3 304.7,77.8 306,74 C307.1,70.7 310.0,68.7 312,66Z" fill="#000000" stroke="#000000" stroke-width="1" fill-rule="evenodd" data-shape="14"/>
    <g data-mdcr="group" class="mdcr-region">
      <polygon points="385,118 374,82 363,82 370,118 385,118" fill="#000000" stroke="#000000" stroke-width="1" fill-rule="evenodd" data-shape="15"/>
      <polygon points="371,118 364,82 328,118 371,118" fill="#000000" stroke="#000000" stroke-width="1" fill-rule="evenodd" data-shape="16"/>
      <polygon points="328,118 368,78 341,78 328,118" fill="#000000" stroke="#000000" stroke-width="1" fill-rule="evenodd" data-shape="17"/>
      <polygon points="359,82 343,70 339,82 359,82" fill="#000000" stroke="#000000" stroke-width="1" fill-rule="evenodd" data-shape="18"/>
      <path d="M375,84 L359,28 L364,15 C363.0,14.7 361.8,13.6 361,14 C359.5,14.7 359.0,20.0 358,23 L358,21 L357,23 C356.3,20.0 356.4,15.1 355,14 C354.2,13.4 353.0,14.0 352,14 C352.7,18.0 353.8,22.0 354,26 C354.2,30.0 353.7,34.1 353,38 C352.3,41.8 351.1,45.3 350,49 C348.8,52.9 347.2,57.1 346,61 C344.9,64.7 342.1,68.9 343,72 C344.0,75.2 348.6,78.0 352,80 C355.3,82.0 359.2,83.3 363,84 C366.9,84.7 371.0,84.0 375,84Z" fill="#000000" stroke="#000000" stroke-width="1" fill-rule="evenodd" data-shape="19"/>
    </g>
  </g>
</svg>