<svg xmlns="http://www.w3.org/2000/svg" xmlns:mdcr="http://sensory.com/mdcr" viewBox="0 0 401 301" width="401" height="301">
  <metadata>
    <mdcr:info xmlns:mdcr="http://sensory.com/mdcr">
      <mdcr:source format="WMF" generator="wmf2svg.js"/>
      <mdcr:bounds left="0" top="0" right="6015" bottom="4515" inch="1440"/>
      <mdcr:records count="10">
        <mdcr:record tag="MDCR-{"/>
        <mdcr:record tag="MDCR-{"/>
        <mdcr:record tag="MDCR-}"/>
        <mdcr:record tag="MDCR-{"/>
        <mdcr:record tag="MDCR-}"/>
        <mdcr:record tag="MDCR-{"/>
        <mdcr:record tag="MDCR-}"/>
        <mdcr:record tag="MDCR-{"/>
        <mdcr:record tag="MDCR-}"/>
        <mdcr:record tag="MDCR-}"/>
      </mdcr:records>
    </mdcr:info>
  </metadata>
  <g data-mdcr="group" class="mdcr-region">
    <g data-mdcr="group" class="mdcr-region">
      <path d="M191,205 C189.8,206.2 186.2,205.4 184,205 C181.9,204.7 179.0,204.4 178,203 C176.9,201.5 177.2,197.9 178,196 C178.7,194.3 180.3,192.7 182,192 C183.9,191.2 187.5,190.9 189,192 C190.4,193.0 190.7,195.9 191,198 C191.4,200.2 192.2,203.8 191,205Z" fill="#ffbb00" stroke="none" stroke-width="0" fill-rule="evenodd" data-shape="0"/>
      <path d="M191,205 C188.7,205.0 186.2,205.4 184,205 C181.9,204.7 179.0,204.4 178,203 C176.9,201.5 177.2,197.9 178,196 C178.7,194.3 180.3,192.7 182,192 C183.9,191.2 187.5,190.9 189,192 C190.4,193.0 190.7,195.9 191,198 C191.4,200.2 191.0,202.7 191,205" fill="none" stroke="#000000" stroke-width="1"/>
      <path d="M165,218 C166.5,216.5 170.9,218.0 174,218 C177.2,218.0 180.8,218.0 184,218 C187.1,218.0 189.9,218.0 193,218 C196.2,218.0 199.8,218.0 203,218 C206.1,218.0 209.6,217.0 212,218 C214.1,218.9 216.1,220.9 217,223 C218.0,225.4 217.0,228.9 217,232 C217.0,235.2 217.0,238.8 217,242 C217.0,245.1 217.0,247.9 217,251 C217.0,254.2 217.0,257.8 217,261 C217.0,264.1 218.5,268.5 217,270 C215.5,271.5 211.1,270.0 208,270 C204.8,270.0 201.2,270.0 198,270 C194.9,270.0 192.1,270.0 189,270 C185.8,270.0 182.2,270.0 179,270 C175.9,270.0 172.4,271.0 170,270 C167.9,269.1 165.9,267.1 165,265 C164.0,262.6 165.0,259.1 165,256 C165.0,252.8 165.0,249.2 165,246 C165.0,242.9 165.0,240.1 165,237 C165.0,233.8 165.0,230.2 165,227 C165.0,223.9 163.5,219.5 165,218Z" fill="#dd0000" stroke="none" stroke-width="0" fill-rule="evenodd" data-shape="1"/>
      <path d="M165,218 C168.0,218.0 170.9,218.0 174,218 C177.2,218.0 180.8,218.0 184,218 C187.1,218.0 189.9,218.0 193,218 C196.2,218.0 199.8,218.0 203,218 C206.1,218.0 209.6,217.0 212,218 C214.1,218.9 216.1,220.9 217,223 C218.0,225.4 217.0,228.9 217,232 C217.0,235.2 217.0,238.8 217,242 C217.0,245.1 217.0,247.9 217,251 C217.0,254.2 217.0,257.8 217,261 C217.0,264.1 218.5,268.5 217,270 C215.5,271.5 211.1,270.0 208,270 C204.8,270.0 201.2,270.0 198,270 C194.9,270.0 192.1,270.0 189,270 C185.8,270.0 182.2,270.0 179,270 C175.9,270.0 172.4,271.0 170,270 C167.9,269.1 165.9,267.1 165,265 C164.0,262.6 165.0,259.1 165,256 C165.0,252.8 165.0,249.2 165,246 C165.0,242.9 165.0,240.1 165,237 C165.0,233.8 165.0,230.2 165,227 C165.0,223.9 165.0,221.0 165,218" fill="none" stroke="#000000" stroke-width="1"/>
      <path d="M197,251 C198.3,249.7 202.7,250.4 205,251 C206.9,251.5 209.1,252.4 210,254 C211.1,255.9 210.0,259.3 210,262 C210.0,264.7 211.3,268.7 210,270 C208.7,271.3 204.3,270.6 202,270 C200.1,269.5 197.9,268.6 197,267 C195.9,265.1 197.0,261.7 197,259 C197.0,256.3 195.7,252.3 197,251Z" fill="#00cc00" stroke="#000000" stroke-width="1" fill-rule="evenodd" data-shape="2"/>
      <path d="M210,226 C208.8,224.8 205.2,225.6 203,226 C200.9,226.3 198.0,226.6 197,228 C195.9,229.5 196.2,233.1 197,235 C197.7,236.7 199.3,238.3 201,239 C202.9,239.8 206.5,240.1 208,239 C209.4,238.0 209.7,235.1 210,233 C210.4,230.8 211.2,227.2 210,226Z" fill="#00bbff" stroke="none" stroke-width="0" fill-rule="evenodd" data-shape="3"/>
      <path d="M210,226 C207.7,226.0 205.2,225.6 203,226 C200.9,226.3 198.0,226.6 197,228 C195.9,229.5 196.2,233.1 197,235 C197.7,236.7 199.3,238.3 201,239 C202.9,239.8 206.5,240.1 208,239 C209.4,238.0 209.7,235.1 210,233 C210.4,230.8 210.0,228.3 210,226" fill="none" stroke="#000000" stroke-width="1"/>
      <path d="M185,226 C183.8,224.8 180.2,225.6 178,226 C175.9,226.3 173.0,226.6 172,228 C170.9,229.5 171.2,233.1 172,235 C172.7,236.7 174.3,238.3 176,239 C177.9,239.8 181.5,240.1 183,239 C184.4,238.0 184.7,235.1 185,233 C185.4,230.8 186.2,227.2 185,226Z" fill="#00bbff" stroke="none" stroke-width="0" fill-rule="evenodd" data-shape="4"/>
      <path d="M185,226 C182.7,226.0 180.2,225.6 178,226 C175.9,226.3 173.0,226.6 172,228 C170.9,229.5 171.2,233.1 172,235 C172.7,236.7 174.3,238.3 176,239 C177.9,239.8 181.5,240.1 183,239 C184.4,238.0 184.7,235.1 185,233 C185.4,230.8 185.0,228.3 185,226" fill="none" stroke="#000000" stroke-width="1"/>
      <path d="M185,252 C183.8,250.8 180.2,251.6 178,252 C175.9,252.3 173.0,252.6 172,254 C170.9,255.5 171.2,259.1 172,261 C172.7,262.7 174.3,264.3 176,265 C177.9,265.8 181.5,266.1 183,265 C184.4,264.0 184.7,261.1 185,259 C185.4,256.8 186.2,253.2 185,252Z" fill="#00bbff" stroke="none" stroke-width="0" fill-rule="evenodd" data-shape="5"/>
      <path d="M185,251 C182.7,251.0 180.2,250.6 178,251 C175.9,251.3 173.0,251.6 172,253 C170.9,254.5 171.2,258.1 172,260 C172.7,261.7 174.3,263.3 176,264 C177.9,264.8 181.5,265.1 183,264 C184.4,263.0 184.7,260.1 185,258 C185.4,255.8 185.0,253.3 185,251" fill="none" stroke="#000000" stroke-width="1"/>
      <path d="M223,218 C220.0,215.0 217.4,211.2 214,209 C210.7,206.9 206.8,205.7 203,205 C199.1,204.3 195.1,205.0 191,205 C186.8,205.0 182.1,204.3 178,205 C174.1,205.7 170.3,206.9 167,209 C163.6,211.2 161.0,215.0 158,218 L223,218Z" fill="#eeee00" stroke="none" stroke-width="0" fill-rule="evenodd" data-shape="6"/>
      <path d="M217,218 L223,218 C220.0,215.0 217.4,211.2 214,209 C210.7,206.9 206.8,205.7 203,205 C199.1,204.3 195.1,205.0 191,205 C186.8,205.0 182.1,204.3 178,205 C174.1,205.7 170.3,206.9 167,209 C163.6,211.2 161.0,215.0 158,218 L217,218" fill="none" stroke="#000000" stroke-width="1"/>
      <polyline points="204,226 204,239" fill="none" stroke="#000000" stroke-width="1"/>
      <polyline points="210,232 197,232" fill="none" stroke="#000000" stroke-width="1"/>
      <polyline points="179,226 179,239" fill="none" stroke="#000000" stroke-width="1"/>
      <polyline points="185,232 172,232" fill="none" stroke="#000000" stroke-width="1"/>
      <polyline points="179,251 179,264" fill="none" stroke="#000000" stroke-width="1"/>
      <polyline points="185,257 172,257" fill="none" stroke="#000000" stroke-width="1"/>
    </g>
    <g data-mdcr="group" class="mdcr-region">
      <path d="M52,118 L56,118 L56,82 C53.7,84.0 51.3,88.0 49,88 C46.7,88.0 44.1,81.9 42,82 C40.2,82.1 38.7,85.3 37,87 C35.3,84.3 32.0,81.7 32,79 C32.0,76.3 35.3,73.7 37,71 L25,47 L13,71 L17,71 L17,118 L52,118Z" fill="#000000" stroke="#000000" stroke-width="1" fill-rule="evenodd" data-shape="7"/>
      <path d="M74,71 L62,47 L51,71 C52.3,74.0 54.3,76.6 55,80 C55.8,83.9 55.0,88.7 55,93 C55.0,97.3 54.8,101.8 55,106 C55.2,110.1 53.8,116.0 56,118 C58.3,120.1 66.7,120.1 69,118 C71.2,116.0 69.8,110.1 70,106 C70.2,101.8 70.0,97.3 70,93 C70.0,88.7 69.2,83.9 70,80 C70.7,76.6 72.7,74.0 74,71Z" fill="#000000" stroke="#000000" stroke-width="1" fill-rule="evenodd" data-shape="8"/>
    </g>
    <g data-mdcr="group" class="mdcr-region">
      <polygon points="140,118 140,85 90,85 90,118 140,118" fill="#000000" stroke="#000000" stroke-width="1" fill-rule="evenodd" data-shape="9"/>
      <polygon points="146,85 114,42 83,85 146,85" fill="#000000" stroke="#000000" stroke-width="1" fill-rule="evenodd" data-shape="10"/>
      <polygon points="92,74 100,63 100,58 92,58 92,74" fill="#000000" stroke="#000000" stroke-width="1" fill-rule="evenodd" data-shape="11"/>
    </g>
    <path d="M221,119 L221,110 L220,86 L228,90 L237,75 L216,67 L210,50 L223,32 L205,24 L198,42 C197.7,42.0 197.3,42.1 197,42 C196.6,41.8 196.5,41.2 196,41 C195.3,40.7 193.4,40.6 193,41 C192.8,41.2 193.2,41.8 193,42 C192.8,42.2 192.3,42.0 192,42 C191.7,42.0 191.3,42.0 191,42 C190.7,42.0 190.3,42.0 190,42 C189.7,42.0 189.3,42.0 189,42 C188.7,42.0 188.3,42.0 188,42 C187.7,42.0 187.3,41.9 187,42 C186.6,42.2 186.4,42.8 186,43 C185.7,43.1 185.3,42.9 185,43 C184.6,43.2 184.2,43.6 184,44 C183.9,44.3 184.2,44.8 184,45 C183.8,45.2 183.2,44.8 183,45 C182.8,45.2 183.2,45.7 183,46 C182.7,46.4 181.5,46.5 181,47 C180.5,47.5 180.3,48.3 180,49 C179.7,49.7 179.3,50.3 179,51 L160,39 L151,54 L175,63 L164,97 C165.3,97.7 167.5,98.1 168,99 C168.4,99.6 168.0,100.2 168,101 C168.0,102.1 168.0,103.6 168,105 C168.0,106.6 168.0,108.3 168,110 L168,119 L221,119Z" fill="#000000" stroke="#000000" stroke-width="1" fill-rule="evenodd" data-shape="12"/>
    <path d="M312,66 C308.7,62.3 306.0,57.3 302,55 C298.2,52.8 293.0,53.4 289,52 C285.4,50.7 281.9,49.2 279,47 C276.2,44.8 274.3,41.7 272,39 C270.3,42.3 269.5,46.3 267,49 C264.5,51.7 260.2,52.4 257,55 C253.4,57.9 250.3,62.3 247,66 C249.0,68.7 251.9,70.7 253,74 C254.3,77.8 253.0,83.3 253,88 C253.0,92.7 253.0,97.3 253,102 C253.0,106.7 250.8,113.4 253,116 C255.1,118.4 260.8,117.6 265,118 C269.7,118.4 275.1,118.0 280,118 C284.7,118.0 289.5,118.4 294,118 C298.2,117.7 303.9,118.4 306,116 C308.2,113.4 306.0,106.7 306,102 C306.0,97.3 306.0,92.7 306,88 C306.0,83.3 304.7,77.8 306,74 C307.1,70.7 310.0,68.7 312,66Z" fill="#000000" stroke="#000000" stroke-width="1" fill-rule="evenodd" data-shape="13"/>
    <g data-mdcr="group" class="mdcr-region">
      <polygon points="385,118 374,82 363,82 370,118 385,118" fill="#000000" stroke="#000000" stroke-width="1" fill-rule="evenodd" data-shape="14"/>
      <polygon points="371,118 364,82 328,118 371,118" fill="#000000" stroke="#000000" stroke-width="1" fill-rule="evenodd" data-shape="15"/>
      <polygon points="328,118 368,78 341,78 328,118" fill="#000000" stroke="#000000" stroke-width="1" fill-rule="evenodd" data-shape="16"/>
      <polygon points="359,82 343,70 339,82 359,82" fill="#000000" stroke="#000000" stroke-width="1" fill-rule="evenodd" data-shape="17"/>
      <path d="M375,84 L359,28 L364,15 C363.0,14.7 361.8,13.6 361,14 C359.5,14.7 359.0,20.0 358,23 L358,21 L357,23 C356.3,20.0 356.4,15.1 355,14 C354.2,13.4 353.0,14.0 352,14 C352.7,18.0 353.8,22.0 354,26 C354.2,30.0 353.7,34.1 353,38 C352.3,41.8 351.1,45.3 350,49 C348.8,52.9 347.2,57.1 346,61 C344.9,64.7 342.1,68.9 343,72 C344.0,75.2 348.6,78.0 352,80 C355.3,82.0 359.2,83.3 363,84 C366.9,84.7 371.0,84.0 375,84Z" fill="#000000" stroke="#000000" stroke-width="1" fill-rule="evenodd" data-shape="18"/>
    </g>
  </g>
</svg>