<svg xmlns="http://www.w3.org/2000/svg" xmlns:mdcr="http://sensory.com/mdcr" viewBox="0 0 400 301" width="400" height="301">
  <metadata>
    <mdcr:info xmlns:mdcr="http://sensory.com/mdcr">
      <mdcr:source format="WMF" generator="wmf2svg.js"/>
      <mdcr:bounds left="0" top="0" right="6000" bottom="4515" inch="1440"/>
      <mdcr:records count="4">
        <mdcr:record tag="MDCR-{"/>
        <mdcr:record tag="MDCR-S"/>
        <mdcr:record tag="MDCR-}"/>
        <mdcr:record tag="MDCR-S"/>
      </mdcr:records>
    </mdcr:info>
  </metadata>
  <g data-mdcr="group" class="mdcr-region">
    <polygon points="226,282 251,251 242,212 205,195 169,212 160,251 185,282 226,282" fill="#7fff00" stroke="#00ff00" stroke-width="1" fill-rule="evenodd" data-shape="0"/>
    <polygon points="29,103 4,78 4,43 29,18 66,18 91,43 91,78 66,103 29,103" fill="#ffff00" stroke="#ffff00" stroke-width="1" fill-rule="evenodd" data-shape="1"/>
    <polygon points="127,102 103,62 127,23 174,23 197,62 174,102 127,102" fill="#ff0000" stroke="#ff0000" stroke-width="1" fill-rule="evenodd" data-shape="2"/>
    <polygon points="229,102 204,71 213,32 250,15 286,32 295,71 270,102 229,102" fill="#7fff00" stroke="#00ff00" stroke-width="1" fill-rule="evenodd" data-shape="3"/>
    <polygon points="363,102 386,85 395,58 386,32 363,15 333,15 310,32 301,58 310,85 333,102 363,102" fill="#0000ff" stroke="#0000ff" stroke-width="1" fill-rule="evenodd" data-shape="4"/>
  </g>
</svg>