<svg xmlns="http://www.w3.org/2000/svg" xmlns:mdcr="http://sensory.com/mdcr" viewBox="0 0 400 301" width="400" height="301">
  <metadata>
    <mdcr:info xmlns:mdcr="http://sensory.com/mdcr">
      <mdcr:source format="WMF" generator="wmf2svg.js"/>
      <mdcr:bounds left="0" top="0" right="6000" bottom="4515" inch="1440"/>
      <mdcr:records count="2">
        <mdcr:record tag="MDCR-{"/>
        <mdcr:record tag="MDCR-}"/>
      </mdcr:records>
    </mdcr:info>
  </metadata>
  <g data-mdcr="group" class="mdcr-region">
    <polygon points="220,274 218,261 217,260 217,259 217,257 217,256 217,256 218,255 218,254 218,253 219,252 220,251 220,251 220,250 221,250 222,250 223,249 224,249 238,251 239,251 240,251 240,251 241,251 242,250 242,250 242,250 242,250 242,249 242,249 242,249 242,249 241,248 241,247 240,247 239,246 231,240 230,239 229,238 229,237 229,236 228,235 228,235 228,234 227,233 227,232 227,231 228,230 228,229 228,228 229,227 229,226 229,225 240,212 241,211 242,210 242,209 243,208 243,208 243,207 243,207 243,207 243,207 242,207 242,207 241,207 241,207 240,207 239,207 238,207 229,211 229,212 228,212 227,212 226,212 226,212 225,211 224,211 223,210 223,209 222,208 222,207 222,207 221,206 221,205 221,203 221,202 222,181 222,180 222,179 222,179 222,178 222,177 222,177 221,176 221,176 221,176 221,176 220,176 220,177 220,178 220,178 220,179 219,180 214,193 213,193 213,194 212,195 212,196 211,196 210,197 210,197 210,198 209,198 208,197 207,197 207,197 206,196 205,195 204,194 204,194 194,179 193,178 193,177 192,176 192,176 191,175 191,175 191,175 191,175 191,175 191,176 191,177 191,177 191,178 191,179 191,180 191,181 193,194 194,195 194,197 194,198 194,199 194,200 193,200 193,201 193,202 192,203 191,204 191,205 191,205 190,205 189,206 188,206 187,206 173,204 172,204 171,204 171,204 170,204 169,205 169,205 169,205 169,205 169,206 169,206 169,207 169,207 170,207 170,208 171,208 172,209 181,215 181,216 182,217 182,218 182,219 183,220 183,221 183,221 184,222 184,223 184,224 183,225 183,226 183,228 182,228 182,229 182,230 171,243 170,244 169,245 169,246 168,247 168,247 168,248 168,248 168,249 168,249 169,249 169,249 170,249 170,249 171,249 172,249 173,249 182,244 182,244 183,243 184,243 185,243 185,244 186,244 187,245 188,245 188,246 189,247 189,248 189,249 190,249 190,250 190,252 190,253 189,274 189,275 189,276 189,277 189,277 189,278 189,279 190,279 190,279 190,279 191,279 191,279 191,278 191,278 191,277 191,277 192,275 197,263 198,262 198,261 199,260 199,259 200,259 201,258 201,258 201,258 202,258 203,258 204,258 204,258 205,259 206,260 207,261 207,262 217,277 218,277 218,278 219,279 220,279 220,280 220,280 220,280 220,280 220,280 220,279 220,279 220,278 220,277 220,277 220,276 220,274" fill="#ffff00" stroke="#ffff00" stroke-width="1" fill-rule="evenodd" data-shape="0"/>
    <polygon points="74,112 72,101 71,97 71,94 70,91 71,87 71,85 72,82 72,80 73,77 74,75 76,73 78,72 80,71 81,69 84,69 87,68 89,68 90,68 91,68 92,68 92,68 93,68 93,68 94,68 94,68 94,68 94,68 94,68 93,67 93,67 92,67 92,67 91,66 90,66 82,64 80,63 78,62 75,60 73,59 72,57 71,54 70,52 69,50 68,47 68,45 68,42 68,38 68,36 69,32 70,30 72,26 72,25 72,24 72,23 73,22 73,22 73,21 73,21 73,20 73,20 73,20 73,20 73,20 72,21 72,22 72,22 72,23 71,24 65,32 63,35 61,37 59,38 57,40 55,41 54,42 52,42 49,42 47,41 45,40 44,39 42,38 40,35 39,33 37,31 36,27 36,25 36,24 35,24 35,23 34,22 34,22 34,21 34,21 34,21 33,21 33,22 33,22 34,23 34,24 34,24 34,25 34,26 36,38 37,41 38,45 38,48 38,51 37,53 36,56 36,59 35,61 34,63 32,65 30,66 28,67 27,69 24,69 22,70 19,70 18,70 17,70 17,70 16,70 15,70 15,70 14,70 14,70 14,70 14,70 14,71 15,71 15,71 16,71 16,71 17,72 18,72 26,74 28,75 30,76 33,78 35,80 36,81 37,84 38,86 39,88 40,91 40,94 41,97 40,100 40,102 39,106 38,108 37,112 36,113 36,115 36,115 35,116 35,116 35,117 35,118 35,118 35,118 35,118 35,118 36,118 36,117 36,117 36,116 36,115 37,115 43,106 45,103 47,101 49,100 51,98 53,97 54,96 56,96 59,96 61,97 63,98 64,100 66,101 68,103 69,105 71,108 72,111 72,113 73,114 73,115 73,115 74,116 74,116 74,117 74,117 74,117 75,117 75,116 75,116 75,115 74,115 74,114 74,113 74,112" fill="#ff0000" stroke="#ff0000" stroke-width="1" fill-rule="evenodd" data-shape="1"/>
    <polygon points="173,109 173,109 173,105 174,102 174,99 176,97 177,94 178,93 179,91 180,90 181,89 182,88 183,88 184,88 185,89 185,89 186,90 187,90 187,90 187,91 188,92 188,93 189,93 189,93 189,94 190,95 190,95 190,95 190,96 190,96 190,95 190,95 190,95 190,94 190,94 190,93 190,93 189,92 189,90 189,90 189,90 187,87 187,83 187,80 186,78 186,75 186,72 186,71 186,69 187,67 187,66 188,65 188,65 189,64 190,64 190,64 191,64 192,64 193,64 194,64 194,65 195,65 195,65 196,65 196,66 196,66 197,66 197,66 197,66 197,66 197,65 197,65 196,65 196,64 195,64 195,63 194,63 194,63 194,62 194,62 191,60 188,58 187,56 185,54 184,52 182,51 181,49 181,47 180,45 180,45 180,44 180,43 181,42 181,42 181,41 182,41 182,40 183,39 183,39 184,39 185,38 186,38 187,37 187,37 187,37 187,37 188,37 188,36 188,36 188,36 188,36 188,36 187,36 187,36 187,36 187,36 186,36 186,36 185,36 184,36 184,36 180,36 178,36 175,36 174,36 172,36 170,35 168,34 167,33 167,33 166,32 166,32 165,31 165,30 165,30 165,29 165,28 165,27 165,27 165,26 165,25 166,24 166,23 167,22 167,21 167,21 167,21 167,20 167,20 167,20 167,19 167,19 167,19 167,19 167,19 167,20 167,20 167,21 166,21 165,21 165,22 164,23 164,23 161,23 160,27 158,29 155,30 154,31 152,32 150,33 149,33 147,33 147,32 146,31 145,31 145,30 144,30 144,29 144,28 144,27 143,26 143,25 143,24 143,23 143,23 143,22 143,21 143,21 143,21 143,21 143,21 143,21 143,21 143,21 142,21 142,22 142,23 142,24 142,24 142,25 141,26 141,26 141,30 140,33 140,36 139,39 137,41 136,42 135,44 134,45 133,46 132,47 131,47 130,47 129,46 129,46 128,46 127,45 127,45 127,44 126,43 126,42 125,42 125,42 125,41 124,40 124,40 124,40 124,40 124,40 124,40 124,40 124,40 124,41 124,42 124,42 124,42 125,44 125,45 125,45 125,45 127,48 127,52 127,55 128,57 128,60 128,63 128,65 128,66 127,68 127,69 126,70 126,71 125,71 124,71 124,71 123,71 122,71 121,71 120,71 120,71 119,70 119,70 118,70 118,69 118,69 117,69 117,69 117,69 117,70 117,70 117,70 118,70 118,71 119,71 119,72 120,72 120,72 120,73 120,73 123,75 126,77 127,79 129,81 131,83 132,84 133,87 133,88 134,90 134,90 134,91 134,92 133,93 133,93 133,94 132,94 132,95 131,96 131,96 130,96 129,97 128,98 127,98 127,98 127,98 127,98 126,99 126,99 126,99 126,99 126,99 126,99 127,99 127,99 127,99 127,99 128,99 129,99 129,99 130,99 130,99 134,99 136,99 139,99 140,99 142,99 144,100 146,101 147,102 148,103 148,104 149,104 149,105 149,105 149,106 149,107 149,108 149,108 149,109 149,111 148,111 148,112 147,113 147,114 147,114 147,114 147,115 147,115 147,116 147,116 147,116 147,116 147,116 147,116 147,115 147,115 147,114 148,114 149,114 149,113 150,112 150,112 153,112 154,108 156,106 159,105 160,104 162,103 164,102 165,102 167,102 167,103 168,103 168,104 169,105 169,105 170,105 170,106 170,107 171,108 171,109 171,110 171,111 171,112 171,112 171,113 171,114 171,114 171,114 171,114 171,114 171,114 171,114 171,114 172,114 172,113 172,113 172,112 172,111 172,110 173,109" fill="#0000ff" stroke="#0000ff" stroke-width="1" fill-rule="evenodd" data-shape="2"/>
    <polygon points="266,115 264,102 263,101 263,100 263,98 263,97 263,97 264,96 264,95 264,94 265,93 266,92 266,92 266,91 267,91 268,91 269,90 270,90 284,92 285,92 286,92 286,92 287,92 288,91 288,91 288,91 288,91 288,90 288,90 288,90 288,90 287,89 287,88 286,88 285,87 277,81 276,80 275,79 275,78 275,77 274,76 274,76 274,75 273,74 273,73 273,72 274,71 274,70 274,69 275,68 275,67 275,66 286,53 287,52 288,51 288,50 289,49 289,49 289,48 289,48 289,48 289,48 288,48 288,48 287,48 287,48 286,48 285,48 284,48 275,52 275,53 274,53 273,53 272,53 272,53 271,52 270,52 269,51 269,50 268,49 268,48 268,48 267,47 267,46 267,44 267,43 268,22 268,21 268,20 268,20 268,19 268,18 268,18 267,17 267,17 267,17 267,17 266,17 266,18 266,19 266,19 266,20 265,21 260,34 259,34 259,35 258,36 258,37 257,37 256,38 256,38 256,39 255,39 254,38 253,38 253,38 252,37 251,36 250,35 250,35 240,20 239,19 239,18 238,17 238,17 237,16 237,16 237,16 237,16 237,16 237,17 237,18 237,18 237,19 237,20 237,21 237,22 239,35 240,36 240,38 240,39 240,40 240,41 239,41 239,42 239,43 238,44 237,45 237,46 237,46 236,46 235,47 234,47 233,47 219,45 218,45 217,45 217,45 216,45 215,46 215,46 215,46 215,46 215,47 215,47 215,48 215,48 216,48 216,49 217,49 218,50 227,56 227,57 228,58 228,59 228,60 229,61 229,62 229,62 230,63 230,64 230,65 229,66 229,67 229,69 228,69 228,70 228,71 217,84 216,85 215,86 215,87 214,88 214,88 214,89 214,89 214,90 214,90 215,90 215,90 216,90 216,90 217,90 218,90 219,90 228,85 228,85 229,84 230,84 231,84 231,85 232,85 233,86 234,86 234,87 235,88 235,89 235,90 236,90 236,91 236,93 236,94 235,115 235,116 235,117 235,118 235,118 235,119 235,120 236,120 236,120 236,120 237,120 237,120 237,119 237,119 237,118 237,118 238,116 243,104 244,103 244,102 245,101 245,100 246,100 247,99 247,99 247,99 248,99 249,99 250,99 250,99 251,100 252,101 253,102 253,103 263,118 264,118 264,119 265,120 266,120 266,121 266,121 266,121 266,121 266,121 266,120 266,120 266,119 266,118 266,118 266,117 266,115" fill="#ffff00" stroke="#ffff00" stroke-width="1" fill-rule="evenodd" data-shape="3"/>
    <polygon points="363,114 362,103 362,100 362,97 362,94 362,91 362,89 363,87 364,85 365,83 367,81 368,80 370,80 371,79 374,79 376,79 378,79 380,80 380,80 381,80 381,80 382,80 383,80 383,80 384,80 384,80 384,80 384,80 384,80 384,80 383,79 383,78 382,78 381,77 381,76 375,72 372,70 371,68 370,66 368,64 367,62 366,59 366,57 366,55 366,52 366,50 366,47 367,45 368,43 370,41 371,38 373,37 373,37 373,36 374,35 375,34 375,34 375,33 375,33 376,32 376,32 375,32 375,32 375,32 374,32 374,32 373,33 372,33 371,34 365,37 363,38 361,39 359,40 357,40 355,40 354,39 352,38 350,37 349,36 347,34 346,31 345,30 345,27 345,24 345,21 345,17 345,17 345,16 345,16 345,14 345,14 345,13 345,13 345,12 344,12 344,12 344,12 344,13 344,14 343,14 343,15 343,16 343,17 340,27 339,30 339,33 337,35 336,37 336,39 334,41 332,42 330,43 329,44 328,44 326,44 324,43 322,42 320,41 319,39 316,37 316,37 316,37 315,36 315,35 314,35 314,35 313,34 313,34 313,34 313,35 313,35 313,35 313,36 313,37 314,37 314,38 315,39 319,47 320,51 321,53 322,56 322,59 323,61 323,64 322,66 322,68 321,71 320,73 319,74 318,76 316,78 314,79 312,80 310,80 310,80 309,80 308,80 308,81 307,81 307,81 306,82 306,82 306,82 306,82 306,83 307,83 307,83 308,83 309,83 309,83 310,83 317,84 319,84 321,85 324,86 326,87 327,88 328,90 329,92 330,94 331,96 332,98 332,101 332,103 332,106 331,109 330,112 329,115 329,115 329,116 328,117 328,117 328,118 328,119 328,119 328,120 328,120 328,120 328,120 329,120 329,119 329,119 330,118 330,117 331,116 336,109 337,107 339,104 341,103 343,102 345,101 346,101 348,100 350,101 352,101 354,102 354,103 356,104 357,107 359,109 360,111 361,115 361,115 362,116 362,116 362,117 362,118 362,118 362,118 362,119 363,119 363,119 363,118 363,118 363,117 363,116 363,116 363,115 363,114" fill="#7fff00" stroke="#00ff00" stroke-width="1" fill-rule="evenodd" data-shape="4"/>
  </g>
</svg>