<svg xmlns="http://www.w3.org/2000/svg" xmlns:mdcr="http://sensory.com/mdcr" viewBox="0 0 400 301" width="400" height="301">
  <metadata>
    <mdcr:info xmlns:mdcr="http://sensory.com/mdcr">
      <mdcr:source format="WMF" generator="wmf2svg.js"/>
      <mdcr:bounds left="0" top="0" right="6000" bottom="4515" inch="1440"/>
      <mdcr:records count="12">
        <mdcr:record tag="MDCR-{"/>
        <mdcr:record tag="MDCR-{"/>
        <mdcr:record tag="MDCR-S"/>
        <mdcr:record tag="MDCR-}"/>
        <mdcr:record tag="MDCR-{"/>
        <mdcr:record tag="MDCR-}"/>
        <mdcr:record tag="MDCR-{"/>
        <mdcr:record tag="MDCR-}"/>
        <mdcr:record tag="MDCR-{"/>
        <mdcr:record tag="MDCR-}"/>
        <mdcr:record tag="MDCR-}"/>
        <mdcr:record tag="MDCR-S"/>
      </mdcr:records>
    </mdcr:info>
  </metadata>
  <g data-mdcr="group" class="mdcr-region">
    <g data-mdcr="group" class="mdcr-region">
      <path d="M220,276 L139,276 C140.3,271.7 141.0,267.1 143,263 C145.0,258.8 148.3,255.0 151,251 C153.7,247.0 155.8,242.4 159,239 C162.1,235.7 166.0,233.0 170,231 C174.0,229.0 178.6,227.2 183,227 C187.3,226.8 191.9,228.4 196,230 C200.2,231.7 204.8,233.8 208,237 C211.2,240.2 213.3,244.8 215,249 C216.6,253.1 217.2,257.6 218,262 C218.9,266.6 219.3,271.3 220,276Z" fill="#bbbbbb" stroke="#000000" stroke-width="1" fill-rule="evenodd" data-shape="0"/>
      <path d="M220,276 L139,276 C140.3,271.7 141.0,267.1 143,263 C145.0,258.8 148.3,255.0 151,251 C153.7,247.0 155.8,242.4 159,239 C162.1,235.7 166.0,233.0 170,231 C174.0,229.0 178.6,227.2 183,227 C187.3,226.8 191.9,228.4 196,230 C200.2,231.7 204.8,233.8 208,237 C211.2,240.2 213.3,244.8 215,249 C216.6,253.1 217.2,257.6 218,262 C218.9,266.6 219.3,271.3 220,276" fill="none" stroke="#000000" stroke-width="1"/>
      <path d="M220,276 L139,276 C140.3,271.7 141.0,267.1 143,263 C145.0,258.8 148.3,255.0 151,251 C153.7,247.0 155.8,242.4 159,239 C162.1,235.7 166.0,233.0 170,231 C174.0,229.0 178.6,227.2 183,227 C187.3,226.8 191.9,228.4 196,230 C200.2,231.7 204.8,233.8 208,237 C211.2,240.2 213.3,244.8 215,249 C216.6,253.1 217.2,257.6 218,262 C218.9,266.6 219.3,271.3 220,276" fill="none" stroke="#000000" stroke-width="1"/>
      <path d="M154,249 C153.7,246.3 153.0,243.6 153,241 C153.0,238.6 153.4,236.3 154,234 C154.7,231.6 155.3,228.5 157,227 C158.7,225.5 161.8,224.7 164,225 C166.2,225.3 169.0,227.1 170,229 C171.1,231.0 170.7,234.6 170,237 C169.3,239.3 167.3,241.0 166,243 L154,249Z" fill="#bbbbbb" stroke="#000000" stroke-width="1" fill-rule="evenodd" data-shape="1"/>
      <path d="M154,249 C153.7,246.3 153.0,243.6 153,241 C153.0,238.6 153.4,236.3 154,234 C154.7,231.6 155.3,228.5 157,227 C158.7,225.5 161.8,224.7 164,225 C166.2,225.3 169.0,227.1 170,229 C171.1,231.0 170.7,234.6 170,237 C169.3,239.3 167.3,241.0 166,243 L154,249" fill="none" stroke="#000000" stroke-width="1"/>
      <path d="M154,249 C153.7,246.3 153.0,243.6 153,241 C153.0,238.6 153.4,236.3 154,234 C154.7,231.6 155.3,228.5 157,227 C158.7,225.5 161.8,224.7 164,225 C166.2,225.3 169.0,227.1 170,229 C171.1,231.0 170.7,234.6 170,237 C169.3,239.3 167.3,241.0 166,243" fill="none" stroke="#000000" stroke-width="1"/>
      <path d="M151,259 C151.7,259.7 155.8,258.8 156,258 C156.3,257.2 152.8,253.7 152,254 C151.2,254.2 150.3,258.3 151,259Z" fill="#000000" stroke="#000000" stroke-width="1" fill-rule="evenodd" data-shape="2"/>
      <path d="M151,259 L156,258 L152,254 L151,259" fill="none" stroke="#000000" stroke-width="1"/>
      <path d="M151,259 L156,258 L152,254 L151,259" fill="none" stroke="#000000" stroke-width="1"/>
      <path d="M219,268 C221.0,269.7 222.9,271.5 225,273 C227.2,274.5 230.0,277.4 232,277 C234.0,276.6 235.1,272.1 237,271 C238.5,270.1 240.6,269.4 242,270 C243.8,270.8 244.7,274.7 246,277" fill="none" stroke="#000000" stroke-width="1"/>
      <polyline points="146,276 148,273" fill="none" stroke="#000000" stroke-width="1"/>
      <polyline points="145,264 138,278" fill="none" stroke="#000000" stroke-width="1"/>
      <polyline points="150,272 146,283" fill="none" stroke="#000000" stroke-width="1"/>
    </g>
    <g data-mdcr="group" class="mdcr-region">
      <path d="M28,75 C26.7,75.3 24.3,73.4 23,72 C21.6,70.5 19.9,67.9 20,66 C20.1,64.2 21.7,61.8 23,61 C24.1,60.4 25.8,60.8 27,61 C28.1,61.2 29.3,61.2 30,62 C31.1,63.4 31.5,67.7 31,70 C30.6,71.9 29.3,74.7 28,75Z" fill="#dddddd" stroke="#000000" stroke-width="1" fill-rule="evenodd" data-shape="3"/>
      <path d="M28,75 C26.3,74.0 24.3,73.4 23,72 C21.6,70.5 19.9,67.9 20,66 C20.1,64.2 21.7,61.8 23,61 C24.1,60.4 25.8,60.8 27,61 C28.1,61.2 29.3,61.2 30,62 C31.1,63.4 31.5,67.7 31,70 C30.6,71.9 29.0,73.3 28,75" fill="none" stroke="#000000" stroke-width="1"/>
      <path d="M95,43 C93.7,44.4 90.3,45.7 89,45 C87.6,44.2 87.0,40.3 87,38 C87.0,35.7 88.1,33.2 89,31 C89.8,28.9 90.6,25.4 92,25 C93.3,24.6 96.1,26.4 97,28 C98.1,29.9 97.4,33.4 97,36 C96.7,38.4 96.4,41.5 95,43Z" fill="#dddddd" stroke="#000000" stroke-width="1" fill-rule="evenodd" data-shape="4"/>
      <path d="M95,43 L89,45 C88.3,42.7 87.0,40.3 87,38 C87.0,35.7 88.1,33.2 89,31 C89.8,28.9 91.0,27.0 92,25 C93.7,26.0 96.1,26.4 97,28 C98.1,29.9 97.4,33.4 97,36 C96.7,38.4 95.7,40.7 95,43" fill="none" stroke="#000000" stroke-width="1"/>
      <path d="M86,42 C85.2,43.6 82.4,45.3 81,45 C79.4,44.6 78.0,41.2 77,39 C76.0,36.8 75.0,34.3 75,32 C75.0,29.7 75.6,25.8 77,25 C78.3,24.3 81.7,25.6 83,27 C84.4,28.5 84.5,31.6 85,34 C85.5,36.6 86.9,40.1 86,42Z" fill="#dddddd" stroke="#000000" stroke-width="1" fill-rule="evenodd" data-shape="5"/>
      <path d="M86,42 C84.3,43.0 82.4,45.3 81,45 C79.4,44.6 78.0,41.2 77,39 C76.0,36.8 75.0,34.3 75,32 C75.0,29.7 76.3,27.3 77,25 C79.0,25.7 81.7,25.6 83,27 C84.4,28.5 84.5,31.6 85,34 C85.5,36.6 85.7,39.3 86,42" fill="none" stroke="#000000" stroke-width="1"/>
      <polyline points="89,81 87,79" fill="none" stroke="#000000" stroke-width="1"/>
      <path d="M98,63 C96.3,64.3 93.3,65.1 91,65 C88.6,64.9 86.4,63.0 84,62 C81.4,61.0 78.0,60.6 76,59 C74.1,57.5 72.4,55.2 72,53 C71.6,50.6 72.6,47.0 74,45 C75.3,43.1 77.7,41.8 80,41 C82.4,40.1 85.5,39.6 88,40 C90.5,40.3 93.2,41.4 95,43 C96.9,44.7 98.0,47.5 99,50 C100.0,52.5 101.3,55.7 101,58 C100.7,59.9 99.5,61.8 98,63Z" fill="#dddddd" stroke="#000000" stroke-width="1" fill-rule="evenodd" data-shape="6"/>
      <path d="M98,63 C95.7,63.7 93.3,65.1 91,65 C88.6,64.9 86.4,63.0 84,62 C81.4,61.0 78.0,60.6 76,59 C74.1,57.5 72.4,55.2 72,53 C71.6,50.6 72.6,47.0 74,45 C75.3,43.1 77.7,41.8 80,41 C82.4,40.1 85.5,39.6 88,40 C90.5,40.3 93.2,41.4 95,43 C96.9,44.7 98.0,47.5 99,50 C100.0,52.5 101.3,55.7 101,58 C100.7,59.9 99.0,61.3 98,63" fill="none" stroke="#000000" stroke-width="1"/>
      <path d="M28,82 L95,82 C94.3,78.3 94.2,74.4 93,71 C91.8,67.7 90.3,64.5 88,62 C85.7,59.5 82.3,57.5 79,56 C75.6,54.5 71.7,53.3 68,53 C64.4,52.7 60.6,53.5 57,54 C53.6,54.5 50.1,54.6 47,56 C43.7,57.5 40.7,60.3 38,63 C35.3,65.7 32.7,68.8 31,72 C29.4,75.1 29.0,78.7 28,82Z" fill="#dddddd" stroke="#000000" stroke-width="1" fill-rule="evenodd" data-shape="7"/>
      <path d="M28,82 L95,82 C94.3,78.3 94.2,74.4 93,71 C91.8,67.7 90.3,64.5 88,62 C85.7,59.5 82.3,57.5 79,56 C75.6,54.5 71.7,53.3 68,53 C64.4,52.7 60.6,53.5 57,54 C53.6,54.5 50.1,54.6 47,56 C43.7,57.5 40.7,60.3 38,63 C35.3,65.7 32.7,68.8 31,72 C29.4,75.1 29.0,78.7 28,82" fill="none" stroke="#000000" stroke-width="1"/>
      <path d="M92,50 L92,51 L91,51 L90,50 L90,49 L90,48 L90,47 L91,47 L92,47 L92,48 L93,48 L93,49 L93,50Z" fill="#000000" stroke="#000000" stroke-width="1" fill-rule="evenodd" data-shape="8"/>
      <path d="M92,50 L92,51 L91,51 L90,50 L90,49 L90,48 L90,47 L91,47 L92,47 L92,48 L93,48 L93,49 L93,50 L92,50" fill="none" stroke="#000000" stroke-width="1"/>
    </g>
    <g data-mdcr="group" class="mdcr-region">
      <path d="M155,53 L153,64 C150.7,63.3 148.2,62.9 146,62 C143.9,61.2 140.8,60.6 140,59 C139.2,57.5 139.8,54.2 141,53 C142.3,51.7 145.7,52.0 148,52 C150.3,52.0 152.7,52.7 155,53Z" fill="#00ff00" stroke="#000000" stroke-width="1" fill-rule="evenodd" data-shape="9"/>
      <path d="M220,46 L227,63 C229.7,63.0 232.6,63.7 235,63 C237.3,62.3 239.4,60.8 241,59 C242.7,57.1 244.7,54.4 245,52 C245.3,49.7 244.5,46.2 243,45 C241.5,43.9 238.4,44.7 236,45 C233.4,45.3 230.7,46.8 228,47 C225.3,47.2 222.7,46.3 220,46Z" fill="#00ff00" stroke="#000000" stroke-width="1" fill-rule="evenodd" data-shape="10"/>
      <path d="M238,55 L237,55 L237,56 L236,55 L235,55 L234,54 L234,53 L235,52 L236,52 L237,52 L238,52 L238,53 L239,53 L239,54 L238,54Z" fill="#000000" stroke="#000000" stroke-width="1" fill-rule="evenodd" data-shape="11"/>
      <path d="M160,63 C158.7,65.3 157.4,67.8 156,70 C154.7,72.1 152.2,73.9 152,76 C151.8,78.2 154.0,80.7 155,83 C157.0,81.3 159.5,80.1 161,78 C162.6,75.8 162.8,72.5 164,70 C165.2,67.5 166.7,65.3 168,63 L160,63Z" fill="#00ff00" stroke="#000000" stroke-width="1" fill-rule="evenodd" data-shape="12"/>
      <path d="M209,64 C209.0,66.7 208.2,69.5 209,72 C209.8,74.6 212.0,77.2 214,79 C216.0,80.8 218.7,81.7 221,83 C222.3,81.3 224.9,79.9 225,78 C225.2,75.9 221.8,73.4 221,71 C220.2,68.7 220.3,66.3 220,64 L209,64Z" fill="#00ff00" stroke="#000000" stroke-width="1" fill-rule="evenodd" data-shape="13"/>
      <path d="M152,64 L228,64 C226.7,59.7 225.9,55.0 224,51 C222.2,47.0 219.7,43.2 217,40 C214.4,36.9 211.3,34.2 208,32 C204.7,29.8 201.0,27.9 197,27 C192.7,26.1 187.4,26.1 183,27 C178.8,27.8 174.6,29.7 171,32 C167.3,34.3 163.9,37.7 161,41 C158.3,44.1 155.5,47.3 154,51 C152.4,54.9 152.7,59.7 152,64Z" fill="#008000" stroke="#000000" stroke-width="1" fill-rule="evenodd" data-shape="14"/>
    </g>
    <g data-mdcr="group" class="mdcr-region">
      <path d="M296,77 L377,77 C375.7,72.7 375.0,68.1 373,64 C371.0,59.8 367.7,56.0 365,52 C362.3,48.0 360.2,43.4 357,40 C353.9,36.7 350.0,34.0 346,32 C342.0,30.0 337.4,28.2 333,28 C328.7,27.8 324.1,29.4 320,31 C315.8,32.7 311.2,34.8 308,38 C304.8,41.2 302.7,45.8 301,50 C299.4,54.1 298.8,58.6 298,63 C297.1,67.6 296.7,72.3 296,77Z" fill="#bbbbbb" stroke="#000000" stroke-width="1" fill-rule="evenodd" data-shape="15"/>
      <path d="M296,77 L377,77 C375.7,72.7 375.0,68.1 373,64 C371.0,59.8 367.7,56.0 365,52 C362.3,48.0 360.2,43.4 357,40 C353.9,36.7 350.0,34.0 346,32 C342.0,30.0 337.4,28.2 333,28 C328.7,27.8 324.1,29.4 320,31 C315.8,32.7 311.2,34.8 308,38 C304.8,41.2 302.7,45.8 301,50 C299.4,54.1 298.8,58.6 298,63 C297.1,67.6 296.7,72.3 296,77" fill="none" stroke="#000000" stroke-width="1"/>
      <path d="M296,77 L377,77 C375.7,72.7 375.0,68.1 373,64 C371.0,59.8 367.7,56.0 365,52 C362.3,48.0 360.2,43.4 357,40 C353.9,36.7 350.0,34.0 346,32 C342.0,30.0 337.4,28.2 333,28 C328.7,27.8 324.1,29.4 320,31 C315.8,32.7 311.2,34.8 308,38 C304.8,41.2 302.7,45.8 301,50 C299.4,54.1 298.8,58.6 298,63 C297.1,67.6 296.7,72.3 296,77" fill="none" stroke="#000000" stroke-width="1"/>
      <path d="M362,50 C362.3,47.3 363.0,44.6 363,42 C363.0,39.6 362.6,37.3 362,35 C361.3,32.6 360.7,29.5 359,28 C357.3,26.5 354.2,25.7 352,26 C349.8,26.3 347.0,28.1 346,30 C344.9,32.0 345.3,35.6 346,38 C346.7,40.3 348.7,42.0 350,44 L362,50Z" fill="#bbbbbb" stroke="#000000" stroke-width="1" fill-rule="evenodd" data-shape="16"/>
      <path d="M362,50 C362.3,47.3 363.0,44.6 363,42 C363.0,39.6 362.6,37.3 362,35 C361.3,32.6 360.7,29.5 359,28 C357.3,26.5 354.2,25.7 352,26 C349.8,26.3 347.0,28.1 346,30 C344.9,32.0 345.3,35.6 346,38 C346.7,40.3 348.7,42.0 350,44 L362,50" fill="none" stroke="#000000" stroke-width="1"/>
      <path d="M362,50 C362.3,47.3 363.0,44.6 363,42 C363.0,39.6 362.6,37.3 362,35 C361.3,32.6 360.7,29.5 359,28 C357.3,26.5 354.2,25.7 352,26 C349.8,26.3 347.0,28.1 346,30 C344.9,32.0 345.3,35.6 346,38 C346.7,40.3 348.7,42.0 350,44" fill="none" stroke="#000000" stroke-width="1"/>
      <path d="M365,60 C364.3,60.7 360.2,59.8 360,59 C359.7,58.2 363.2,54.7 364,55 C364.8,55.2 365.7,59.3 365,60Z" fill="#000000" stroke="#000000" stroke-width="1" fill-rule="evenodd" data-shape="17"/>
      <path d="M365,60 L360,59 L364,55 L365,60" fill="none" stroke="#000000" stroke-width="1"/>
      <path d="M365,60 L360,59 L364,55 L365,60" fill="none" stroke="#000000" stroke-width="1"/>
      <path d="M297,69 C295.0,70.7 293.1,72.5 291,74 C288.8,75.5 286.0,78.4 284,78 C282.0,77.6 280.9,73.1 279,72 C277.5,71.1 275.4,70.4 274,71 C272.2,71.8 271.3,75.7 270,78" fill="none" stroke="#000000" stroke-width="1"/>
      <polyline points="370,77 368,74" fill="none" stroke="#000000" stroke-width="1"/>
      <polyline points="371,65 378,79" fill="none" stroke="#000000" stroke-width="1"/>
      <polyline points="366,73 370,84" fill="none" stroke="#000000" stroke-width="1"/>
    </g>
  </g>
</svg>