<svg xmlns="http://www.w3.org/2000/svg" xmlns:mdcr="http://sensory.com/mdcr" viewBox="0 0 400 301" width="400" height="301">
  <metadata>
    <mdcr:info xmlns:mdcr="http://sensory.com/mdcr">
      <mdcr:source format="WMF" generator="wmf2svg.js"/>
      <mdcr:bounds left="0" top="0" right="6000" bottom="4515" inch="1440"/>
      <mdcr:records count="15">
        <mdcr:record tag="MDCR-{"/>
        <mdcr:record tag="MDCR-{"/>
        <mdcr:record tag="MDCR-S"/>
        <mdcr:record tag="MDCR-}"/>
        <mdcr:record tag="MDCR-S"/>
        <mdcr:record tag="MDCR-{"/>
        <mdcr:record tag="MDCR-}"/>
        <mdcr:record tag="MDCR-{"/>
        <mdcr:record tag="MDCR-}"/>
        <mdcr:record tag="MDCR-{"/>
        <mdcr:record tag="MDCR-}"/>
        <mdcr:record tag="MDCR-{"/>
        <mdcr:record tag="MDCR-}"/>
        <mdcr:record tag="MDCR-}"/>
        <mdcr:record tag="MDCR-S"/>
      </mdcr:records>
    </mdcr:info>
  </metadata>
  <g data-mdcr="group" class="mdcr-region">
    <g data-mdcr="group" class="mdcr-region">
      <path d="M225,216 C225.9,216.1 226.5,220.6 227,223 C227.5,225.6 227.1,228.8 228,231 C228.8,233.0 230.3,235.0 232,236 C233.7,237.0 236.9,237.4 238,237 C238.5,236.8 238.6,236.0 239,236 C239.8,236.1 242.4,239.7 242,241 C241.6,242.4 238.1,243.7 236,244 C234.0,244.3 231.8,244.0 230,243 C228.0,241.9 226.2,239.2 225,237 C223.9,234.9 223.5,232.4 223,230 C222.5,227.4 221.6,224.4 222,222 C222.4,219.8 224.2,215.9 225,216Z" fill="#a0a0a4" stroke="#000000" stroke-width="1" fill-rule="evenodd" data-shape="0"/>
      <path d="M211,255 L211,280 C209.3,281.3 207.7,284.0 206,284 C204.3,284.0 202.7,281.3 201,280 L201,266 L211,255Z" fill="#a0a0a4" stroke="#000000" stroke-width="1" fill-rule="evenodd" data-shape="1"/>
      <path d="M170,259 L170,279 C170.0,279.3 169.8,279.8 170,280 C170.2,280.2 170.8,279.8 171,280 C171.2,280.2 170.8,280.8 171,281 C171.2,281.2 171.7,281.0 172,281 C172.3,281.0 172.7,280.9 173,281 C173.4,281.2 173.6,281.8 174,282 C174.3,282.1 174.7,282.1 175,282 C175.4,281.8 175.6,281.2 176,281 C176.3,280.9 176.7,281.0 177,281 C177.3,281.0 177.7,281.1 178,281 C178.4,280.8 178.8,280.4 179,280 C179.1,279.7 179.0,279.3 179,279 C179.0,278.7 179.0,278.3 179,278 L179,267 L170,259Z" fill="#a0a0a4" stroke="#000000" stroke-width="1" fill-rule="evenodd" data-shape="2"/>
      <path d="M167,237 C166.0,239.0 165.1,241.0 164,243 C162.8,245.0 161.7,247.7 160,249 C158.6,250.2 156.7,250.3 155,251 C156.3,251.7 157.6,253.1 159,253 C160.6,252.8 162.6,250.5 164,249 C165.3,247.5 166.0,245.7 167,244 L167,237Z" fill="#a0a0a4" stroke="#000000" stroke-width="1" fill-rule="evenodd" data-shape="3"/>
      <path d="M207,266 C204.8,267.9 201.1,268.3 198,269 C194.8,269.7 191.2,270.2 188,270 C184.9,269.8 181.8,269.2 179,268 C176.1,266.8 173.0,265.2 171,263 C169.0,260.8 168.0,257.8 167,255 C166.0,252.1 165.2,249.0 165,246 C164.8,243.0 165.3,239.9 166,237 C166.7,234.2 167.5,231.5 169,229 C170.7,226.2 173.7,223.3 176,221 C178.0,219.0 179.6,217.0 182,216 C184.6,214.9 188.0,214.8 191,215 C194.0,215.2 197.4,215.6 200,217 C202.7,218.5 205.1,221.5 207,224 C208.7,226.2 209.9,228.5 211,231 C212.2,233.8 213.5,237.0 214,240 C214.5,243.0 214.5,246.0 214,249 C213.5,252.0 212.2,255.1 211,258 C209.8,260.8 209.1,264.2 207,266Z" fill="#a0a0a4" stroke="#000000" stroke-width="1" fill-rule="evenodd" data-shape="4"/>
      <path d="M222,233 C220.7,234.7 218.9,236.5 217,237 C215.2,237.5 212.9,237.0 211,236 C208.8,234.9 206.5,232.2 205,230 C203.6,227.9 202.7,225.5 202,223 C201.3,220.5 200.8,217.6 201,215 C201.2,212.6 201.9,210.1 203,208 C204.2,205.8 206.0,203.3 208,202 C210.0,200.7 212.8,199.7 215,200 C217.2,200.3 219.3,202.3 221,204 C222.7,205.7 224.2,207.7 225,210 C225.9,212.4 226.0,215.3 226,218 C226.0,220.7 225.7,223.5 225,226 C224.3,228.5 223.4,231.1 222,233Z" fill="#a0a0a4" stroke="#000000" stroke-width="1" fill-rule="evenodd" data-shape="5"/>
      <path d="M215,234 C214.0,235.9 212.5,238.5 211,239 C209.8,239.4 208.3,238.8 207,238 C205.2,236.9 203.3,234.2 202,232 C200.7,229.8 199.8,227.4 199,225 C198.1,222.5 197.1,219.6 197,217 C196.9,214.6 197.4,212.3 198,210 C198.7,207.6 199.4,204.5 201,203 C202.5,201.6 205.3,200.6 207,201 C208.6,201.4 209.7,203.5 211,205 C212.4,206.7 214.0,208.8 215,211 C216.1,213.4 216.7,216.3 217,219 C217.3,221.6 217.4,224.4 217,227 C216.7,229.4 216.1,232.0 215,234Z" fill="#a0a0a4" stroke="#000000" stroke-width="1" fill-rule="evenodd" data-shape="6"/>
      <path d="M224,220 L223,220 L223,221 L222,221 L221,221 L221,220 L220,219 L220,218 L220,217 L220,216 L221,216 L221,215 L222,215 L223,215 L224,216 L224,217 L224,218 L224,219Z" fill="#000000" stroke="#000000" stroke-width="1" fill-rule="evenodd" data-shape="7"/>
    </g>
    <g data-mdcr="group" class="mdcr-region">
      <path d="M91,57 L94,60 C92.0,61.0 90.1,62.8 88,63 C85.8,63.2 83.0,62.2 81,61 C79.0,59.8 77.2,58.1 76,56 C74.7,53.8 74.3,50.7 74,48 C73.7,45.4 73.2,42.2 74,40 C74.7,38.0 76.7,36.7 78,35 C78.3,37.7 78.5,40.4 79,43 C79.5,45.4 80.0,47.7 81,50 C82.0,52.4 83.2,56.5 85,57 C86.6,57.5 89.0,55.0 91,54 L91,57Z" fill="#a0a0a4" stroke="#000000" stroke-width="1" fill-rule="evenodd" data-shape="8"/>
      <path d="M64,74 L64,99 C64.0,99.3 64.1,99.7 64,100 C63.8,100.4 63.3,100.7 63,101 C62.7,101.3 62.4,101.8 62,102 C61.7,102.1 61.3,102.0 61,102 C60.7,102.0 60.2,101.8 60,102 C59.8,102.2 60.2,102.8 60,103 C59.8,103.2 59.3,103.0 59,103 C58.7,103.0 58.3,103.1 58,103 C57.6,102.8 57.4,102.2 57,102 C56.7,101.9 56.3,102.1 56,102 C55.6,101.8 55.4,101.2 55,101 C54.7,100.9 54.2,101.2 54,101 C53.8,100.8 54.0,100.3 54,100 C54.0,99.7 54.0,99.3 54,99 L54,85 L64,74Z" fill="#a0a0a4" stroke="#000000" stroke-width="1" fill-rule="evenodd" data-shape="9"/>
      <path d="M24,78 L24,98 C24.0,98.3 24.0,98.7 24,99 C24.0,99.3 23.8,99.8 24,100 C24.2,100.2 24.7,100.0 25,100 C25.3,100.0 25.7,99.9 26,100 C26.4,100.2 26.6,100.8 27,101 C27.3,101.1 27.7,101.0 28,101 C28.3,101.0 28.8,101.2 29,101 C29.2,100.8 28.8,100.2 29,100 C29.2,99.8 29.7,100.0 30,100 C30.3,100.0 30.7,100.0 31,100 C31.3,100.0 31.8,100.2 32,100 C32.2,99.8 31.8,99.2 32,99 C32.2,98.8 32.8,99.2 33,99 C33.2,98.8 33.0,98.3 33,98 C33.0,97.7 33.0,97.3 33,97 L33,86 L24,78Z" fill="#a0a0a4" stroke="#000000" stroke-width="1" fill-rule="evenodd" data-shape="10"/>
      <path d="M19,56 C18.0,58.7 17.4,61.8 16,64 C14.7,66.0 12.0,67.3 11,69 C10.3,70.3 10.3,71.7 10,73 C12.0,72.0 14.4,71.5 16,70 C17.8,68.3 18.7,65.3 20,63 L19,56Z" fill="#a0a0a4" stroke="#000000" stroke-width="1" fill-rule="evenodd" data-shape="11"/>
      <path d="M60,85 C57.7,86.8 54.0,87.3 51,88 C48.0,88.7 45.1,89.1 42,89 C38.7,88.9 34.9,88.3 32,87 C29.3,85.8 27.0,84.1 25,82 C22.9,79.8 21.0,76.9 20,74 C19.0,71.2 19.0,68.0 19,65 C19.0,62.0 19.2,58.9 20,56 C20.8,52.9 22.4,49.7 24,47 C25.5,44.4 27.0,42.0 29,40 C31.0,38.0 33.4,36.0 36,35 C38.7,34.0 42.0,33.7 45,34 C48.0,34.3 51.4,35.6 54,37 C56.3,38.3 58.2,40.0 60,42 C61.9,44.2 63.7,47.2 65,50 C66.3,52.8 67.5,55.9 68,59 C68.5,62.2 68.6,65.9 68,69 C67.5,71.9 66.3,74.4 65,77 C63.6,79.7 62.3,83.2 60,85Z" fill="#a0a0a4" stroke="#000000" stroke-width="1" fill-rule="evenodd" data-shape="12"/>
      <path d="M75,52 C73.9,53.6 72.6,55.5 71,56 C69.3,56.5 66.9,55.9 65,55 C62.9,54.0 60.5,52.1 59,50 C57.4,47.8 56.7,44.7 56,42 C55.4,39.4 54.8,36.6 55,34 C55.2,31.6 56.1,29.2 57,27 C57.8,24.9 58.5,22.3 60,21 C61.5,19.7 63.9,18.9 66,19 C68.3,19.1 71.2,20.4 73,22 C74.9,23.7 76.0,26.5 77,29 C78.0,31.5 78.8,34.3 79,37 C79.2,39.7 78.7,42.5 78,45 C77.3,47.5 76.3,50.1 75,52Z" fill="#a0a0a4" stroke="#000000" stroke-width="1" fill-rule="evenodd" data-shape="13"/>
      <path d="M67,53 C66.0,54.9 64.6,57.6 63,58 C61.5,58.4 59.6,57.0 58,56 C56.2,54.8 54.3,53.0 53,51 C51.6,49.0 50.7,46.4 50,44 C49.4,41.7 49.2,39.4 49,37 C48.8,34.4 48.3,31.4 49,29 C49.7,26.7 51.3,24.5 53,23 C54.6,21.5 57.3,19.6 59,20 C60.6,20.4 61.7,23.2 63,25 C64.4,26.9 66.0,28.8 67,31 C68.0,33.2 68.7,35.6 69,38 C69.4,40.6 69.4,43.4 69,46 C68.7,48.4 68.1,51.0 67,53Z" fill="#a0a0a4" stroke="#000000" stroke-width="1" fill-rule="evenodd" data-shape="14"/>
      <path d="M76,39 L76,40 L75,40 L74,39 L74,38 L74,37 L74,36 L74,35 L74,34 L75,34 L76,34 L76,35 L77,35 L77,36 L77,37 L77,38Z" fill="#000000" stroke="#000000" stroke-width="1" fill-rule="evenodd" data-shape="15"/>
    </g>
    <g data-mdcr="group" class="mdcr-region">
      <path d="M135,89 C135.0,89.3 135.2,89.8 135,90 C134.8,90.2 134.2,89.8 134,90 C133.8,90.2 134.1,90.7 134,91 C133.8,91.4 133.4,91.8 133,92 C132.7,92.1 132.3,92.0 132,92 C131.7,92.0 131.2,92.2 131,92 C130.8,91.8 131.2,91.2 131,91 C130.8,90.8 130.2,91.2 130,91 C129.8,90.8 130.0,90.3 130,90 C130.0,89.7 130.0,89.3 130,89 L131,76 L136,76 L135,89Z" fill="#999999" stroke="none" stroke-width="0" fill-rule="evenodd" data-shape="16"/>
      <path d="M135,89 C135.0,89.3 135.2,89.8 135,90 C134.8,90.2 134.2,89.8 134,90 C133.8,90.2 134.1,90.7 134,91 C133.8,91.4 133.4,91.8 133,92 C132.7,92.1 132.3,92.0 132,92 C131.7,92.0 131.2,92.2 131,92 C130.8,91.8 131.2,91.2 131,91 C130.8,90.8 130.2,91.2 130,91 C129.8,90.8 130.0,90.3 130,90 C130.0,89.7 130.0,89.3 130,89 L131,76 L136,76 L135,89" fill="none" stroke="#000000" stroke-width="1"/>
      <path d="M128,89 C128.0,89.3 128.2,89.8 128,90 C127.8,90.2 127.2,89.8 127,90 C126.8,90.2 127.1,90.7 127,91 C126.8,91.4 126.4,91.8 126,92 C125.7,92.1 125.3,92.0 125,92 C124.7,92.0 124.2,92.2 124,92 C123.8,91.8 124.2,91.2 124,91 C123.8,90.8 123.2,91.2 123,91 C122.8,90.8 123.0,90.3 123,90 C123.0,89.7 123.0,89.3 123,89 C123.0,88.7 123.0,88.3 123,88 L127,74 L132,75 L128,89Z" fill="#999999" stroke="none" stroke-width="0" fill-rule="evenodd" data-shape="17"/>
      <path d="M128,89 C128.0,89.3 128.2,89.8 128,90 C127.8,90.2 127.2,89.8 127,90 C126.8,90.2 127.1,90.7 127,91 C126.8,91.4 126.4,91.8 126,92 C125.7,92.1 125.3,92.0 125,92 C124.7,92.0 124.2,92.2 124,92 C123.8,91.8 124.2,91.2 124,91 C123.8,90.8 123.2,91.2 123,91 C122.8,90.8 123.0,90.3 123,90 C123.0,89.7 123.0,89.3 123,89 C123.0,88.7 123.0,88.3 123,88 L127,74 L132,75 L128,89" fill="none" stroke="#000000" stroke-width="1"/>
      <path d="M170,89 C170.0,89.3 170.1,89.7 170,90 C169.8,90.4 169.4,90.8 169,91 C168.7,91.1 168.2,90.8 168,91 C167.8,91.2 168.2,91.8 168,92 C167.8,92.2 167.3,92.0 167,92 C166.7,92.0 166.2,92.2 166,92 C165.8,91.8 166.2,91.2 166,91 C165.8,90.8 165.2,91.2 165,91 C164.8,90.8 165.0,90.3 165,90 C165.0,89.7 165.0,89.3 165,89 L168,74 L173,74 L170,89Z" fill="#999999" stroke="none" stroke-width="0" fill-rule="evenodd" data-shape="18"/>
      <path d="M170,89 C170.0,89.3 170.1,89.7 170,90 C169.8,90.4 169.4,90.8 169,91 C168.7,91.1 168.2,90.8 168,91 C167.8,91.2 168.2,91.8 168,92 C167.8,92.2 167.3,92.0 167,92 C166.7,92.0 166.2,92.2 166,92 C165.8,91.8 166.2,91.2 166,91 C165.8,90.8 165.2,91.2 165,91 C164.8,90.8 165.0,90.3 165,90 C165.0,89.7 165.0,89.3 165,89 L168,74 L173,74 L170,89" fill="none" stroke="#000000" stroke-width="1"/>
      <path d="M179,88 C179.0,88.3 179.1,88.7 179,89 C178.8,89.4 178.3,89.7 178,90 C177.7,90.3 177.4,90.8 177,91 C176.7,91.1 176.3,91.1 176,91 C175.6,90.8 175.4,90.2 175,90 C174.7,89.9 174.2,90.2 174,90 C173.8,89.8 174.0,89.3 174,89 C174.0,88.7 174.0,88.3 174,88 L172,73 L177,73 L179,88Z" fill="#999999" stroke="none" stroke-width="0" fill-rule="evenodd" data-shape="19"/>
      <path d="M179,88 C179.0,88.3 179.1,88.7 179,89 C178.8,89.4 178.3,89.7 178,90 C177.7,90.3 177.4,90.8 177,91 C176.7,91.1 176.3,91.1 176,91 C175.6,90.8 175.4,90.2 175,90 C174.7,89.9 174.2,90.2 174,90 C173.8,89.8 174.0,89.3 174,89 C174.0,88.7 174.0,88.3 174,88 L172,73 L177,73 L179,88" fill="none" stroke="#000000" stroke-width="1"/>
      <path d="M186,56 C186.3,56.0 186.8,55.8 187,56 C187.2,56.2 186.8,56.8 187,57 C187.2,57.2 187.7,57.0 188,57 C188.3,57.0 188.7,57.0 189,57 C189.3,57.0 189.8,56.8 190,57 C190.2,57.2 190.2,57.8 190,58 C189.8,58.2 189.2,57.8 189,58 C188.8,58.2 189.2,58.8 189,59 C188.8,59.2 188.3,59.0 188,59 L190,61 C188.0,61.0 185.5,61.8 184,61 C182.6,60.3 181.5,58.6 181,57 C180.4,55.3 181.0,53.0 181,51 C182.7,51.7 185.3,51.9 186,53 C186.5,53.8 186.0,55.0 186,56Z" fill="#777777" stroke="none" stroke-width="0" fill-rule="evenodd" data-shape="20"/>
      <path d="M180,53 C181.7,53.0 184.0,52.3 185,53 C185.8,53.6 185.7,55.0 186,56 C186.3,56.0 186.8,55.8 187,56 C187.2,56.2 186.8,56.8 187,57 C187.2,57.2 187.7,57.0 188,57 C188.3,57.0 188.7,57.0 189,57 C189.3,57.0 189.8,56.8 190,57 C190.2,57.2 190.2,57.8 190,58 C189.8,58.2 189.2,57.8 189,58 C188.8,58.2 189.2,58.8 189,59 C188.8,59.2 188.3,59.0 188,59 L190,61 C187.7,60.7 184.7,61.3 183,60 C181.3,58.7 181.0,55.3 180,53" fill="none" stroke="#000000" stroke-width="1"/>
      <path d="M136,53 C136.0,52.7 136.0,52.3 136,52 C136.0,51.7 135.9,51.3 136,51 C136.2,50.6 136.6,50.2 137,50 C137.3,49.9 137.8,50.2 138,50 C138.2,49.8 137.8,49.2 138,49 C138.2,48.8 138.7,49.0 139,49 C139.3,49.0 139.8,49.2 140,49 C140.2,48.8 139.8,48.2 140,48 C140.2,47.8 140.7,48.0 141,48 C141.3,48.0 141.7,48.0 142,48 C142.3,48.0 142.7,48.0 143,48 C143.3,48.0 143.8,47.8 144,48 C144.2,48.2 143.8,48.8 144,49 C144.2,49.2 144.8,48.8 145,49 C145.2,49.2 144.8,49.8 145,50 C145.2,50.2 145.8,49.8 146,50 C146.2,50.2 146.0,50.7 146,51 C146.0,51.3 146.0,51.7 146,52 C146.0,52.3 146.0,52.7 146,53 C146.0,52.7 145.9,52.3 146,52 C146.2,51.6 146.7,51.3 147,51 C147.3,50.7 147.7,50.3 148,50 C148.3,49.7 148.6,49.2 149,49 C149.3,48.9 149.8,49.2 150,49 C150.2,48.8 149.8,48.2 150,48 C150.2,47.8 150.7,48.0 151,48 C151.3,48.0 151.7,48.0 152,48 C152.3,48.0 152.7,47.9 153,48 C153.4,48.2 153.8,48.6 154,49 C154.1,49.3 153.8,49.8 154,50 C154.2,50.2 154.8,49.8 155,50 C155.2,50.2 154.9,50.7 155,51 C155.2,51.4 155.8,51.6 156,52 C156.1,52.3 156.0,52.7 156,53 C156.0,52.7 156.0,52.3 156,52 C156.0,51.7 155.9,51.3 156,51 C156.2,50.6 156.6,50.2 157,50 C157.3,49.9 157.8,50.2 158,50 C158.2,49.8 157.8,49.2 158,49 C158.2,48.8 158.7,49.1 159,49 C159.4,48.8 159.6,48.2 160,48 C160.3,47.9 160.7,48.0 161,48 C161.3,48.0 161.7,48.0 162,48 C162.3,48.0 162.7,48.0 163,48 C163.3,48.0 163.8,47.8 164,48 C164.2,48.2 163.8,48.8 164,49 C164.2,49.2 164.8,48.8 165,49 C165.2,49.2 164.8,49.8 165,50 C165.2,50.2 165.8,49.8 166,50 C166.2,50.2 166.0,50.7 166,51 C166.0,51.3 166.0,51.7 166,52 C166.0,52.3 166.0,52.7 166,53 C166.0,52.7 165.9,52.3 166,52 C166.2,51.6 166.7,51.3 167,51 C167.3,50.7 167.7,50.3 168,50 C168.3,49.7 168.6,49.2 169,49 C169.3,48.9 169.8,49.2 170,49 C170.2,48.8 169.8,48.2 170,48 C170.2,47.8 170.7,48.0 171,48 C171.3,48.0 171.7,48.0 172,48 C172.3,48.0 172.7,48.0 173,48 C173.3,48.0 173.8,47.8 174,48 C174.2,48.2 173.8,48.8 174,49 C174.2,49.2 174.8,48.8 175,49 C175.2,49.2 175.0,49.7 175,50 C175.0,50.3 175.0,50.7 175,51 C175.0,51.3 175.0,51.7 175,52 C175.0,52.3 175.0,52.7 175,53 C175.3,52.7 175.6,52.2 176,52 C176.3,51.9 176.8,52.2 177,52 C177.2,51.8 176.8,51.2 177,51 C177.2,50.8 177.7,51.0 178,51 C178.3,51.0 178.7,51.0 179,51 C179.3,51.0 179.7,51.0 180,51 C180.3,51.0 180.7,51.0 181,51 C181.3,51.0 181.7,50.9 182,51 C182.4,51.2 182.8,51.6 183,52 C183.1,52.3 183.0,52.7 183,53 C183.0,53.3 183.0,53.7 183,54 C183.0,54.3 183.2,54.8 183,55 C182.8,55.2 182.2,54.8 182,55 C181.8,55.2 182.2,55.8 182,56 C181.8,56.2 181.3,56.0 181,56 C181.3,56.0 181.8,55.8 182,56 C182.2,56.2 181.8,56.8 182,57 C182.2,57.2 182.7,56.9 183,57 C183.4,57.2 183.6,57.8 184,58 C184.3,58.1 184.7,57.9 185,58 C185.4,58.2 185.8,58.6 186,59 C186.1,59.3 185.8,59.8 186,60 C186.2,60.2 186.8,59.8 187,60 C187.2,60.2 187.0,60.7 187,61 C187.0,61.3 187.1,61.7 187,62 C186.8,62.4 186.4,62.8 186,63 C185.7,63.1 185.2,62.8 185,63 C184.8,63.2 185.2,63.8 185,64 C184.8,64.2 184.3,64.0 184,64 C183.7,64.0 183.3,64.0 183,64 C182.7,64.0 182.3,64.0 182,64 C181.7,64.0 181.3,64.0 181,64 C182.7,66.0 185.7,67.8 186,70 C186.3,72.2 184.8,76.1 183,77 C181.2,77.9 177.7,75.7 175,75 C175.0,75.3 175.0,75.7 175,76 C175.0,76.3 175.0,76.7 175,77 C175.0,77.3 175.0,77.7 175,78 C175.0,78.3 175.2,78.8 175,79 C174.8,79.2 174.2,78.8 174,79 C173.8,79.2 174.2,79.8 174,80 C173.8,80.2 173.3,80.0 173,80 C172.7,80.0 172.3,80.0 172,80 C171.7,80.0 171.2,80.2 171,80 C170.8,79.8 171.2,79.2 171,79 C170.8,78.8 170.3,79.0 170,79 C169.7,79.0 169.3,79.1 169,79 C168.6,78.8 168.2,78.4 168,78 C167.9,77.7 168.2,77.2 168,77 C167.8,76.8 167.3,77.1 167,77 C166.6,76.8 166.2,76.4 166,76 C165.9,75.7 166.0,75.3 166,75 C166.0,75.3 166.0,75.7 166,76 C166.0,76.3 166.1,76.7 166,77 C165.8,77.4 165.2,77.6 165,78 C164.9,78.3 165.2,78.8 165,79 C164.8,79.2 164.3,79.0 164,79 C163.7,79.0 163.2,78.8 163,79 C162.8,79.2 163.2,79.8 163,80 C162.8,80.2 162.3,80.0 162,80 C161.7,80.0 161.3,80.1 161,80 C160.6,79.8 160.4,79.2 160,79 C159.7,78.9 159.3,79.0 159,79 C158.7,79.0 158.2,79.2 158,79 C157.8,78.8 158.2,78.2 158,78 C157.8,77.8 157.2,78.2 157,78 C156.8,77.8 157.2,77.2 157,77 C156.8,76.8 156.2,77.2 156,77 C155.8,76.8 156.0,76.3 156,76 C156.0,75.7 156.0,75.3 156,75 C156.0,75.3 156.1,75.7 156,76 C155.8,76.4 155.3,76.7 155,77 C154.7,77.3 154.2,77.6 154,78 C153.9,78.3 154.2,78.8 154,79 C153.8,79.2 153.3,78.9 153,79 C152.6,79.2 152.4,79.8 152,80 C151.7,80.1 151.2,80.2 151,80 C150.8,79.8 151.2,79.2 151,79 C150.8,78.8 150.3,79.0 150,79 C149.7,79.0 149.3,79.1 149,79 C148.6,78.8 148.2,78.4 148,78 C147.9,77.7 148.2,77.2 148,77 C147.8,76.8 147.3,77.1 147,77 C146.6,76.8 146.2,76.4 146,76 C145.9,75.7 146.0,75.3 146,75 C146.0,75.3 146.0,75.7 146,76 C146.0,76.3 146.1,76.7 146,77 C145.8,77.4 145.2,77.6 145,78 C144.9,78.3 145.2,78.8 145,79 C144.8,79.2 144.3,78.9 144,79 C143.6,79.2 143.4,79.8 143,80 C142.7,80.1 142.3,80.0 142,80 C141.7,80.0 141.3,80.1 141,80 C140.6,79.8 140.4,79.2 140,79 C139.7,78.9 139.3,79.0 139,79 C138.7,79.0 138.2,79.2 138,79 C137.8,78.8 138.1,78.3 138,78 C137.8,77.6 137.4,77.2 137,77 C136.7,76.9 136.2,77.2 136,77 C135.8,76.8 136.0,76.3 136,76 C136.0,75.7 136.0,75.3 136,75 C136.0,75.3 136.2,75.8 136,76 C135.8,76.2 135.2,75.8 135,76 C134.8,76.2 135.1,76.7 135,77 C134.8,77.4 134.3,77.7 134,78 C133.7,78.3 133.4,78.8 133,79 C132.7,79.1 132.3,79.0 132,79 C131.7,79.0 131.2,78.8 131,79 C130.8,79.2 131.2,79.8 131,80 C130.8,80.2 130.3,80.0 130,80 C129.7,80.0 129.3,80.0 129,80 C128.7,80.0 128.2,80.2 128,80 C127.8,79.8 128.2,79.2 128,79 C127.8,78.8 127.2,79.2 127,79 C126.8,78.8 127.1,78.3 127,78 C126.8,77.6 126.2,77.4 126,77 C125.9,76.7 126.0,76.3 126,76 C126.0,75.7 126.0,75.3 126,75 C125.7,75.3 125.4,75.8 125,76 C124.7,76.1 124.2,75.8 124,76 C123.8,76.2 124.2,76.8 124,77 C123.8,77.2 123.3,77.0 123,77 C122.7,77.0 122.3,77.0 122,77 C121.7,77.0 121.3,77.0 121,77 C120.7,77.0 120.3,77.1 120,77 C119.6,76.8 119.2,76.4 119,76 C118.9,75.7 119.0,75.3 119,75 C119.0,74.7 119.0,74.3 119,74 C119.0,73.7 118.8,73.2 119,73 C119.2,72.8 119.8,73.2 120,73 C120.2,72.8 119.9,72.3 120,72 C120.2,71.6 120.7,71.3 121,71 C120.7,71.0 120.3,71.1 120,71 C119.6,70.8 119.4,70.2 119,70 C118.7,69.9 118.3,70.0 118,70 C117.7,70.0 117.2,70.2 117,70 C116.8,69.8 117.2,69.2 117,69 C116.8,68.8 116.2,69.2 116,69 C115.8,68.8 116.2,68.2 116,68 C115.8,67.8 115.2,68.2 115,68 C114.8,67.8 115.0,67.3 115,67 C115.0,66.7 115.0,66.3 115,66 C115.0,65.7 114.8,65.2 115,65 C115.2,64.8 115.8,65.2 116,65 C116.2,64.8 115.8,64.2 116,64 C116.2,63.8 116.7,64.0 117,64 C117.3,64.0 117.7,64.0 118,64 C118.3,64.0 118.7,64.0 119,64 C119.3,64.0 119.7,64.0 120,64 C120.3,64.0 120.7,64.0 121,64 C120.7,64.0 120.3,64.0 120,64 C119.7,64.0 119.3,64.1 119,64 C118.6,63.8 118.4,63.2 118,63 C117.7,62.9 117.2,63.2 117,63 C116.8,62.8 117.2,62.2 117,62 C116.8,61.8 116.3,62.1 116,62 C115.6,61.8 115.2,61.4 115,61 C114.9,60.7 115.0,60.3 115,60 C115.0,59.7 115.0,59.3 115,59 C115.0,58.7 114.8,58.2 115,58 C115.2,57.8 115.8,58.2 116,58 C116.2,57.8 115.8,57.2 116,57 C116.2,56.8 116.7,57.0 117,57 C117.3,57.0 117.7,57.0 118,57 C118.3,57.0 118.7,57.1 119,57 C119.4,56.8 119.6,56.2 120,56 C120.3,55.9 120.7,56.0 121,56 C123.0,54.7 124.7,52.6 127,52 C129.6,51.4 133.0,52.7 136,53Z" fill="#777777" stroke="none" stroke-width="0" fill-rule="evenodd" data-shape="21"/>
      <path d="M126,53 C126.3,52.7 126.8,52.4 127,52 C127.1,51.7 127.0,51.3 127,51 C127.0,50.7 126.8,50.2 127,50 C127.2,49.8 127.8,50.2 128,50 C128.2,49.8 127.8,49.2 128,49 C128.2,48.8 128.7,49.1 129,49 C129.4,48.8 129.6,48.2 130,48 C130.3,47.9 130.7,48.0 131,48 C131.3,48.0 131.7,48.0 132,48 C132.3,48.0 132.7,47.9 133,48 C133.4,48.2 133.7,48.7 134,49 C134.3,49.3 134.8,49.6 135,50 C135.1,50.3 134.9,50.7 135,51 C135.2,51.4 135.8,51.6 136,52 C136.1,52.3 136.0,52.7 136,53 C136.0,52.7 136.0,52.3 136,52 C136.0,51.7 135.9,51.3 136,51 C136.2,50.6 136.6,50.2 137,50 C137.3,49.9 137.8,50.2 138,50 C138.2,49.8 137.8,49.2 138,49 C138.2,48.8 138.7,49.0 139,49 C139.3,49.0 139.8,49.2 140,49 C140.2,48.8 139.8,48.2 140,48 C140.2,47.8 140.7,48.0 141,48 C141.3,48.0 141.7,48.0 142,48 C142.3,48.0 142.7,48.0 143,48 C143.3,48.0 143.8,47.8 144,48 C144.2,48.2 143.8,48.8 144,49 C144.2,49.2 144.8,48.8 145,49 C145.2,49.2 144.8,49.8 145,50 C145.2,50.2 145.8,49.8 146,50 C146.2,50.2 146.0,50.7 146,51 C146.0,51.3 146.0,51.7 146,52 C146.0,52.3 146.0,52.7 146,53 C146.0,52.7 145.9,52.3 146,52 C146.2,51.6 146.7,51.3 147,51 C147.3,50.7 147.7,50.3 148,50 C148.3,49.7 148.6,49.2 149,49 C149.3,48.9 149.8,49.2 150,49 C150.2,48.8 149.8,48.2 150,48 C150.2,47.8 150.7,48.0 151,48 C151.3,48.0 151.7,48.0 152,48 C152.3,48.0 152.7,47.9 153,48 C153.4,48.2 153.8,48.6 154,49 C154.1,49.3 153.8,49.8 154,50 C154.2,50.2 154.8,49.8 155,50 C155.2,50.2 154.9,50.7 155,51 C155.2,51.4 155.8,51.6 156,52 C156.1,52.3 156.0,52.7 156,53 C156.0,52.7 156.0,52.3 156,52 C156.0,51.7 155.9,51.3 156,51 C156.2,50.6 156.6,50.2 157,50 C157.3,49.9 157.8,50.2 158,50 C158.2,49.8 157.8,49.2 158,49 C158.2,48.8 158.7,49.1 159,49 C159.4,48.8 159.6,48.2 160,48 C160.3,47.9 160.7,48.0 161,48 C161.3,48.0 161.7,48.0 162,48 C162.3,48.0 162.7,48.0 163,48 C163.3,48.0 163.8,47.8 164,48 C164.2,48.2 163.8,48.8 164,49 C164.2,49.2 164.8,48.8 165,49 C165.2,49.2 164.8,49.8 165,50 C165.2,50.2 165.8,49.8 166,50 C166.2,50.2 166.0,50.7 166,51 C166.0,51.3 166.0,51.7 166,52 C166.0,52.3 166.0,52.7 166,53 C166.0,52.7 165.9,52.3 166,52 C166.2,51.6 166.7,51.3 167,51 C167.3,50.7 167.7,50.3 168,50 C168.3,49.7 168.6,49.2 169,49 C169.3,48.9 169.8,49.2 170,49 C170.2,48.8 169.8,48.2 170,48 C170.2,47.8 170.7,48.0 171,48 C171.3,48.0 171.7,48.0 172,48 C172.3,48.0 172.7,48.0 173,48 C173.3,48.0 173.8,47.8 174,48 C174.2,48.2 173.8,48.8 174,49 C174.2,49.2 174.8,48.8 175,49 C175.2,49.2 175.0,49.7 175,50 C175.0,50.3 175.0,50.7 175,51 C175.0,51.3 175.0,51.7 175,52 C175.0,52.3 175.0,52.7 175,53 C175.3,52.7 175.6,52.2 176,52 C176.3,51.9 176.8,52.2 177,52 C177.2,51.8 176.8,51.2 177,51 C177.2,50.8 177.7,51.0 178,51 C178.3,51.0 178.7,51.0 179,51 C179.3,51.0 179.7,51.0 180,51 C180.3,51.0 180.7,51.0 181,51 C181.3,51.0 181.7,50.9 182,51 C182.4,51.2 182.8,51.6 183,52 C183.1,52.3 183.0,52.7 183,53 C183.0,53.3 183.0,53.7 183,54 C183.0,54.3 183.2,54.8 183,55 C182.8,55.2 182.2,54.8 182,55 C181.8,55.2 182.2,55.8 182,56 C181.8,56.2 181.3,56.0 181,56 C181.3,56.0 181.8,55.8 182,56 C182.2,56.2 181.8,56.8 182,57 C182.2,57.2 182.7,56.9 183,57 C183.4,57.2 183.6,57.8 184,58 C184.3,58.1 184.7,57.9 185,58 C185.4,58.2 185.8,58.6 186,59 C186.1,59.3 185.8,59.8 186,60 C186.2,60.2 186.8,59.8 187,60 C187.2,60.2 187.0,60.7 187,61 C187.0,61.3 187.1,61.7 187,62 C186.8,62.4 186.4,62.8 186,63 C185.7,63.1 185.2,62.8 185,63 C184.8,63.2 185.2,63.8 185,64 C184.8,64.2 184.3,64.0 184,64 C183.7,64.0 183.3,64.0 183,64 C182.7,64.0 182.3,64.0 182,64 C181.7,64.0 181.3,64.0 181,64 C182.7,66.0 185.7,67.8 186,70 C186.3,72.2 184.8,76.1 183,77 C181.2,77.9 177.7,75.7 175,75 C175.0,75.3 175.0,75.7 175,76 C175.0,76.3 175.0,76.7 175,77 C175.0,77.3 175.0,77.7 175,78 C175.0,78.3 175.2,78.8 175,79 C174.8,79.2 174.2,78.8 174,79 C173.8,79.2 174.2,79.8 174,80 C173.8,80.2 173.3,80.0 173,80 C172.7,80.0 172.3,80.0 172,80 C171.7,80.0 171.2,80.2 171,80 C170.8,79.8 171.2,79.2 171,79 C170.8,78.8 170.3,79.0 170,79 C169.7,79.0 169.3,79.1 169,79 C168.6,78.8 168.2,78.4 168,78 C167.9,77.7 168.2,77.2 168,77 C167.8,76.8 167.3,77.1 167,77 C166.6,76.8 166.2,76.4 166,76 C165.9,75.7 166.0,75.3 166,75 C166.0,75.3 166.0,75.7 166,76 C166.0,76.3 166.1,76.7 166,77 C165.8,77.4 165.2,77.6 165,78 C164.9,78.3 165.2,78.8 165,79 C164.8,79.2 164.3,79.0 164,79 C163.7,79.0 163.2,78.8 163,79 C162.8,79.2 163.2,79.8 163,80 C162.8,80.2 162.3,80.0 162,80 C161.7,80.0 161.3,80.1 161,80 C160.6,79.8 160.4,79.2 160,79 C159.7,78.9 159.3,79.0 159,79 C158.7,79.0 158.2,79.2 158,79 C157.8,78.8 158.2,78.2 158,78 C157.8,77.8 157.2,78.2 157,78 C156.8,77.8 157.2,77.2 157,77 C156.8,76.8 156.2,77.2 156,77 C155.8,76.8 156.0,76.3 156,76 C156.0,75.7 156.0,75.3 156,75 C156.0,75.3 156.1,75.7 156,76 C155.8,76.4 155.3,76.7 155,77 C154.7,77.3 154.2,77.6 154,78 C153.9,78.3 154.2,78.8 154,79 C153.8,79.2 153.3,78.9 153,79 C152.6,79.2 152.4,79.8 152,80 C151.7,80.1 151.2,80.2 151,80 C150.8,79.8 151.2,79.2 151,79 C150.8,78.8 150.3,79.0 150,79 C149.7,79.0 149.3,79.1 149,79 C148.6,78.8 148.2,78.4 148,78 C147.9,77.7 148.2,77.2 148,77 C147.8,76.8 147.3,77.1 147,77 C146.6,76.8 146.2,76.4 146,76 C145.9,75.7 146.0,75.3 146,75 C146.0,75.3 146.0,75.7 146,76 C146.0,76.3 146.1,76.7 146,77 C145.8,77.4 145.2,77.6 145,78 C144.9,78.3 145.2,78.8 145,79 C144.8,79.2 144.3,78.9 144,79 C143.6,79.2 143.4,79.8 143,80 C142.7,80.1 142.3,80.0 142,80 C141.7,80.0 141.3,80.1 141,80 C140.6,79.8 140.4,79.2 140,79 C139.7,78.9 139.3,79.0 139,79 C138.7,79.0 138.2,79.2 138,79 C137.8,78.8 138.1,78.3 138,78 C137.8,77.6 137.4,77.2 137,77 C136.7,76.9 136.2,77.2 136,77 C135.8,76.8 136.0,76.3 136,76 C136.0,75.7 136.0,75.3 136,75 C136.0,75.3 136.2,75.8 136,76 C135.8,76.2 135.2,75.8 135,76 C134.8,76.2 135.1,76.7 135,77 C134.8,77.4 134.3,77.7 134,78 C133.7,78.3 133.4,78.8 133,79 C132.7,79.1 132.3,79.0 132,79 C131.7,79.0 131.2,78.8 131,79 C130.8,79.2 131.2,79.8 131,80 C130.8,80.2 130.3,80.0 130,80 C129.7,80.0 129.3,80.0 129,80 C128.7,80.0 128.2,80.2 128,80 C127.8,79.8 128.2,79.2 128,79 C127.8,78.8 127.2,79.2 127,79 C126.8,78.8 127.1,78.3 127,78 C126.8,77.6 126.2,77.4 126,77 C125.9,76.7 126.0,76.3 126,76 C126.0,75.7 126.0,75.3 126,75 C125.7,75.3 125.4,75.8 125,76 C124.7,76.1 124.2,75.8 124,76 C123.8,76.2 124.2,76.8 124,77 C123.8,77.2 123.3,77.0 123,77 C122.7,77.0 122.3,77.0 122,77 C121.7,77.0 121.3,77.0 121,77 C120.7,77.0 120.3,77.1 120,77 C119.6,76.8 119.2,76.4 119,76 C118.9,75.7 119.0,75.3 119,75 C119.0,74.7 119.0,74.3 119,74 C119.0,73.7 118.8,73.2 119,73 C119.2,72.8 119.8,73.2 120,73 C120.2,72.8 119.9,72.3 120,72 C120.2,71.6 120.7,71.3 121,71 C120.7,71.0 120.3,71.1 120,71 C119.6,70.8 119.4,70.2 119,70 C118.7,69.9 118.3,70.0 118,70 C117.7,70.0 117.2,70.2 117,70 C116.8,69.8 117.2,69.2 117,69 C116.8,68.8 116.2,69.2 116,69 C115.8,68.8 116.2,68.2 116,68 C115.8,67.8 115.2,68.2 115,68 C114.8,67.8 115.0,67.3 115,67 C115.0,66.7 115.0,66.3 115,66 C115.0,65.7 114.8,65.2 115,65 C115.2,64.8 115.8,65.2 116,65 C116.2,64.8 115.8,64.2 116,64 C116.2,63.8 116.7,64.0 117,64 C117.3,64.0 117.7,64.0 118,64 C118.3,64.0 118.7,64.0 119,64 C119.3,64.0 119.7,64.0 120,64 C120.3,64.0 120.7,64.0 121,64 C120.7,64.0 120.3,64.0 120,64 C119.7,64.0 119.3,64.1 119,64 C118.6,63.8 118.4,63.2 118,63 C117.7,62.9 117.2,63.2 117,63 C116.8,62.8 117.2,62.2 117,62 C116.8,61.8 116.3,62.1 116,62 C115.6,61.8 115.2,61.4 115,61 C114.9,60.7 115.0,60.3 115,60 C115.0,59.7 115.0,59.3 115,59 C115.0,58.7 114.8,58.2 115,58 C115.2,57.8 115.8,58.2 116,58 C116.2,57.8 115.8,57.2 116,57 C116.2,56.8 116.7,57.0 117,57 C117.3,57.0 117.7,57.0 118,57 C118.3,57.0 118.7,57.1 119,57 C119.4,56.8 119.6,56.2 120,56 C120.3,55.9 120.7,56.0 121,56 C120.7,56.0 120.2,56.2 120,56 C119.8,55.8 120.2,55.2 120,55 C119.8,54.8 119.2,55.2 119,55 C118.8,54.8 119.0,54.3 119,54 C119.0,53.7 119.0,53.3 119,53 C119.0,52.7 119.0,52.3 119,52 C119.0,51.7 118.8,51.2 119,51 C119.2,50.8 119.7,51.0 120,51 C120.3,51.0 120.7,51.0 121,51 C121.3,51.0 121.7,51.0 122,51 C122.3,51.0 122.7,51.0 123,51 C123.3,51.0 123.7,50.9 124,51 C124.4,51.2 124.7,51.7 125,52 C125.3,52.3 125.7,52.7 126,53" fill="none" stroke="#000000" stroke-width="1"/>
      <path d="M122,67 C120.5,68.6 118.1,70.7 116,71 C114.1,71.3 111.6,70.3 110,69 C108.3,67.7 106.4,65.2 106,63 C105.6,60.6 107.0,57.3 108,55 C108.8,53.1 109.5,50.9 111,50 C112.7,49.0 116.0,49.2 118,50 C120.0,50.8 121.8,53.0 123,55 C124.2,57.0 125.3,59.9 125,62 C124.8,63.9 123.4,65.6 122,67Z" fill="#eeeebb" stroke="none" stroke-width="0" fill-rule="evenodd" data-shape="22"/>
      <path d="M122,67 C120.0,68.3 118.1,70.7 116,71 C114.1,71.3 111.6,70.3 110,69 C108.3,67.7 106.4,65.2 106,63 C105.6,60.6 107.0,57.3 108,55 C108.8,53.1 109.5,50.9 111,50 C112.7,49.0 116.0,49.2 118,50 C120.0,50.8 121.8,53.0 123,55 C124.2,57.0 125.3,59.9 125,62 C124.8,63.9 123.0,65.3 122,67" fill="none" stroke="#000000" stroke-width="1"/>
      <path d="M113,58 L113,59 L112,59 L111,59 L111,58 L111,57 L111,56 L112,56 L113,56 L114,57 L114,58Z" fill="#000000" stroke="none" stroke-width="0" fill-rule="evenodd" data-shape="23"/>
      <path d="M113,58 L113,59 L112,59 L111,59 L111,58 L111,57 L111,56 L112,56 L113,56 L114,57 L114,58 L113,58" fill="none" stroke="#000000" stroke-width="1"/>
      <path d="M120,58 L120,59 L119,59 L118,59 L118,58 L118,57 L118,56 L119,56 L120,56 L121,57 L121,58Z" fill="#000000" stroke="none" stroke-width="0" fill-rule="evenodd" data-shape="24"/>
      <path d="M120,58 L120,59 L119,59 L118,59 L118,58 L118,57 L118,56 L119,56 L120,56 L121,57 L121,58 L120,58" fill="none" stroke="#000000" stroke-width="1"/>
      <polygon points="116,47 127,45 122,53 116,47 116,47" fill="#eeeebb" stroke="none" stroke-width="0" fill-rule="evenodd" data-shape="25"/>
      <polyline points="116,47 127,45 122,53 116,47 116,47" fill="none" stroke="#000000" stroke-width="1"/>
      <polygon points="116,47 105,45 109,53 116,47 116,47" fill="#eeeebb" stroke="none" stroke-width="0" fill-rule="evenodd" data-shape="26"/>
      <polyline points="116,47 105,45 109,53 116,47 116,47" fill="none" stroke="#000000" stroke-width="1"/>
      <path d="M116,48 C117.7,48.0 120.0,47.1 121,48 C122.1,49.0 121.7,52.0 122,54 L116,54 L109,54 C109.7,52.0 109.7,48.9 111,48 C112.2,47.2 114.3,48.0 116,48Z" fill="#777777" stroke="none" stroke-width="0" fill-rule="evenodd" data-shape="27"/>
      <path d="M111,48 C111.0,47.7 110.8,47.2 111,47 C111.2,46.8 111.8,47.2 112,47 C112.2,46.8 111.8,46.2 112,46 C112.2,45.8 112.7,46.0 113,46 C113.3,46.0 113.7,46.0 114,46 C114.3,46.0 114.8,45.8 115,46 C115.2,46.2 114.8,46.8 115,47 C115.2,47.2 115.8,46.8 116,47 C116.2,47.2 116.0,47.7 116,48 C117.7,48.0 120.0,47.1 121,48 C122.1,49.0 121.7,52.0 122,54 L116,54 C113.7,54.0 109.8,55.1 109,54 C108.3,53.0 110.3,50.0 111,48" fill="none" stroke="#000000" stroke-width="1"/>
      <path d="M119,68 C117.9,68.9 113.8,68.9 113,68 C112.3,67.1 112.9,63.9 114,63 C115.1,62.1 119.2,62.1 120,63 C120.7,63.9 120.1,67.1 119,68Z" fill="#dd0000" stroke="none" stroke-width="0" fill-rule="evenodd" data-shape="28"/>
      <path d="M119,68 L113,68 C113.3,66.3 112.9,63.9 114,63 C115.1,62.1 118.0,63.0 120,63 L119,68" fill="none" stroke="#000000" stroke-width="1"/>
    </g>
    <g data-mdcr="group" class="mdcr-region">
      <path d="M216,35 C215.1,35.1 214.5,39.6 214,42 C213.5,44.6 213.9,47.8 213,50 C212.2,52.0 210.7,54.0 209,55 C207.3,56.0 204.1,56.4 203,56 C202.5,55.8 202.4,55.0 202,55 C201.2,55.1 198.6,58.7 199,60 C199.4,61.4 202.9,62.7 205,63 C207.0,63.3 209.2,63.0 211,62 C213.0,60.9 214.8,58.2 216,56 C217.1,53.9 217.5,51.4 218,49 C218.5,46.4 219.4,43.4 219,41 C218.6,38.8 216.8,34.9 216,35Z" fill="#a0a0a4" stroke="#000000" stroke-width="1" fill-rule="evenodd" data-shape="29"/>
      <path d="M230,74 L230,99 C231.7,100.3 233.3,103.0 235,103 C236.7,103.0 238.3,100.3 240,99 L240,85 L230,74Z" fill="#a0a0a4" stroke="#000000" stroke-width="1" fill-rule="evenodd" data-shape="30"/>
      <path d="M271,78 L271,98 C271.0,98.3 271.2,98.8 271,99 C270.8,99.2 270.2,98.8 270,99 C269.8,99.2 270.2,99.8 270,100 C269.8,100.2 269.3,100.0 269,100 C268.7,100.0 268.3,99.9 268,100 C267.6,100.2 267.4,100.8 267,101 C266.7,101.1 266.3,101.1 266,101 C265.6,100.8 265.4,100.2 265,100 C264.7,99.9 264.3,100.0 264,100 C263.7,100.0 263.3,100.1 263,100 C262.6,99.8 262.2,99.4 262,99 C261.9,98.7 262.0,98.3 262,98 C262.0,97.7 262.0,97.3 262,97 L262,86 L271,78Z" fill="#a0a0a4" stroke="#000000" stroke-width="1" fill-rule="evenodd" data-shape="31"/>
      <path d="M274,56 C275.0,58.0 275.9,60.0 277,62 C278.2,64.0 279.3,66.7 281,68 C282.4,69.2 284.3,69.3 286,70 C284.7,70.7 283.4,72.1 282,72 C280.4,71.8 278.4,69.5 277,68 C275.7,66.5 275.0,64.7 274,63 L274,56Z" fill="#a0a0a4" stroke="#000000" stroke-width="1" fill-rule="evenodd" data-shape="32"/>
      <path d="M234,85 C236.2,86.9 239.9,87.3 243,88 C246.2,88.7 249.8,89.2 253,89 C256.1,88.8 259.2,88.2 262,87 C264.9,85.8 268.0,84.2 270,82 C272.0,79.8 273.0,76.8 274,74 C275.0,71.1 275.8,68.0 276,65 C276.2,62.0 275.7,58.9 275,56 C274.3,53.2 273.5,50.5 272,48 C270.3,45.2 267.3,42.3 265,40 C263.0,38.0 261.4,36.0 259,35 C256.4,33.9 253.0,33.8 250,34 C247.0,34.2 243.6,34.6 241,36 C238.3,37.5 235.9,40.5 234,43 C232.3,45.2 231.1,47.5 230,50 C228.8,52.8 227.5,56.0 227,59 C226.5,62.0 226.5,65.0 227,68 C227.5,71.0 228.8,74.1 230,77 C231.2,79.8 231.9,83.2 234,85Z" fill="#a0a0a4" stroke="#000000" stroke-width="1" fill-rule="evenodd" data-shape="33"/>
      <path d="M219,52 C220.3,53.7 222.1,55.5 224,56 C225.8,56.5 228.1,56.0 230,55 C232.2,53.9 234.5,51.2 236,49 C237.4,46.9 238.3,44.5 239,42 C239.7,39.5 240.2,36.6 240,34 C239.8,31.6 239.1,29.1 238,27 C236.8,24.8 235.0,22.3 233,21 C231.0,19.7 228.2,18.7 226,19 C223.8,19.3 221.7,21.3 220,23 C218.3,24.7 216.8,26.7 216,29 C215.1,31.4 215.0,34.3 215,37 C215.0,39.7 215.3,42.5 216,45 C216.7,47.5 217.6,50.1 219,52Z" fill="#a0a0a4" stroke="#000000" stroke-width="1" fill-rule="evenodd" data-shape="34"/>
      <path d="M226,53 C227.0,54.9 228.5,57.5 230,58 C231.2,58.4 232.7,57.8 234,57 C235.8,55.9 237.7,53.2 239,51 C240.3,48.8 241.2,46.4 242,44 C242.9,41.5 243.9,38.6 244,36 C244.1,33.6 243.6,31.3 243,29 C242.3,26.6 241.6,23.5 240,22 C238.5,20.6 235.7,19.6 234,20 C232.4,20.4 231.3,22.5 230,24 C228.6,25.7 227.0,27.8 226,30 C224.9,32.4 224.3,35.3 224,38 C223.7,40.6 223.6,43.4 224,46 C224.3,48.4 224.9,51.0 226,53Z" fill="#a0a0a4" stroke="#000000" stroke-width="1" fill-rule="evenodd" data-shape="35"/>
      <path d="M217,39 L218,39 L218,40 L219,40 L220,40 L220,39 L221,38 L221,37 L221,36 L221,35 L220,35 L220,34 L219,34 L218,34 L217,35 L217,36 L217,37 L217,38Z" fill="#000000" stroke="#000000" stroke-width="1" fill-rule="evenodd" data-shape="36"/>
    </g>
    <g data-mdcr="group" class="mdcr-region">
      <path d="M351,93 C351.0,93.3 351.0,93.7 351,94 C351.0,94.3 350.8,94.8 351,95 C351.2,95.2 351.7,94.9 352,95 C352.4,95.2 352.6,95.8 353,96 C353.3,96.1 353.7,96.1 354,96 C354.4,95.8 354.6,95.2 355,95 C355.3,94.9 355.8,95.2 356,95 C356.2,94.8 356.0,94.3 356,94 C356.0,93.7 356.0,93.3 356,93 L355,80 L350,80 L351,93Z" fill="#999999" stroke="none" stroke-width="0" fill-rule="evenodd" data-shape="37"/>
      <path d="M351,93 C351.0,93.3 351.0,93.7 351,94 C351.0,94.3 350.8,94.8 351,95 C351.2,95.2 351.7,94.9 352,95 C352.4,95.2 352.6,95.8 353,96 C353.3,96.1 353.7,96.1 354,96 C354.4,95.8 354.6,95.2 355,95 C355.3,94.9 355.8,95.2 356,95 C356.2,94.8 356.0,94.3 356,94 C356.0,93.7 356.0,93.3 356,93 L355,80 L350,80 L351,93" fill="none" stroke="#000000" stroke-width="1"/>
      <path d="M358,93 C358.0,93.3 357.9,93.7 358,94 C358.2,94.4 358.8,94.6 359,95 C359.1,95.3 358.8,95.8 359,96 C359.2,96.2 359.7,96.0 360,96 C360.3,96.0 360.7,96.1 361,96 C361.4,95.8 361.6,95.2 362,95 C362.3,94.9 362.8,95.2 363,95 C363.2,94.8 363.0,94.3 363,94 C363.0,93.7 363.0,93.3 363,93 C363.0,92.7 363.0,92.3 363,92 L359,78 L354,79 L358,93Z" fill="#999999" stroke="none" stroke-width="0" fill-rule="evenodd" data-shape="38"/>
      <path d="M358,93 C358.0,93.3 357.9,93.7 358,94 C358.2,94.4 358.8,94.6 359,95 C359.1,95.3 358.8,95.8 359,96 C359.2,96.2 359.7,96.0 360,96 C360.3,96.0 360.7,96.1 361,96 C361.4,95.8 361.6,95.2 362,95 C362.3,94.9 362.8,95.2 363,95 C363.2,94.8 363.0,94.3 363,94 C363.0,93.7 363.0,93.3 363,93 C363.0,92.7 363.0,92.3 363,92 L359,78 L354,79 L358,93" fill="none" stroke="#000000" stroke-width="1"/>
      <path d="M315,93 C315.0,93.3 315.0,93.7 315,94 C315.0,94.3 314.8,94.8 315,95 C315.2,95.2 315.7,95.0 316,95 C316.3,95.0 316.8,94.8 317,95 C317.2,95.2 316.8,95.8 317,96 C317.2,96.2 317.7,96.1 318,96 C318.4,95.8 318.7,95.3 319,95 C319.3,94.7 319.8,94.4 320,94 C320.1,93.7 320.0,93.3 320,93 L317,78 L312,78 L315,93Z" fill="#999999" stroke="none" stroke-width="0" fill-rule="evenodd" data-shape="39"/>
      <path d="M315,93 C315.0,93.3 315.0,93.7 315,94 C315.0,94.3 314.8,94.8 315,95 C315.2,95.2 315.7,95.0 316,95 C316.3,95.0 316.8,94.8 317,95 C317.2,95.2 316.8,95.8 317,96 C317.2,96.2 317.7,96.1 318,96 C318.4,95.8 318.7,95.3 319,95 C319.3,94.7 319.8,94.4 320,94 C320.1,93.7 320.0,93.3 320,93 L317,78 L312,78 L315,93" fill="none" stroke="#000000" stroke-width="1"/>
      <path d="M308,92 C308.0,92.3 308.0,92.7 308,93 C308.0,93.3 307.8,93.8 308,94 C308.2,94.2 308.8,93.8 309,94 C309.2,94.2 308.8,94.8 309,95 C309.2,95.2 309.7,95.0 310,95 C310.3,95.0 310.7,95.1 311,95 C311.4,94.8 311.6,94.2 312,94 C312.3,93.9 312.8,94.2 313,94 C313.2,93.8 313.0,93.3 313,93 C313.0,92.7 313.0,92.3 313,92 L315,77 L310,77 L308,92Z" fill="#999999" stroke="none" stroke-width="0" fill-rule="evenodd" data-shape="40"/>
      <path d="M308,92 C308.0,92.3 308.0,92.7 308,93 C308.0,93.3 307.8,93.8 308,94 C308.2,94.2 308.8,93.8 309,94 C309.2,94.2 308.8,94.8 309,95 C309.2,95.2 309.7,95.0 310,95 C310.3,95.0 310.7,95.1 311,95 C311.4,94.8 311.6,94.2 312,94 C312.3,93.9 312.8,94.2 313,94 C313.2,93.8 313.0,93.3 313,93 C313.0,92.7 313.0,92.3 313,92 L315,77 L310,77 L308,92" fill="none" stroke="#000000" stroke-width="1"/>
      <path d="M300,60 C299.7,60.0 299.3,59.9 299,60 C298.6,60.2 298.4,60.8 298,61 C297.7,61.1 297.3,61.0 297,61 C296.7,61.0 296.2,60.8 296,61 C295.8,61.2 296.0,61.7 296,62 C296.0,62.3 295.8,62.8 296,63 C296.2,63.2 296.7,63.0 297,63 C297.3,63.0 297.7,63.0 298,63 L298,67 C299.7,65.7 301.7,64.7 303,63 C304.4,61.1 305.0,58.3 306,56 C304.3,56.3 302.0,56.1 301,57 C300.2,57.7 300.3,59.0 300,60Z" fill="#777777" stroke="none" stroke-width="0" fill-rule="evenodd" data-shape="41"/>
      <path d="M306,57 C304.7,57.0 303.0,56.5 302,57 C301.0,57.5 300.7,59.0 300,60 C299.7,60.0 299.3,59.9 299,60 C298.6,60.2 298.4,60.8 298,61 C297.7,61.1 297.3,61.0 297,61 C296.7,61.0 296.2,60.8 296,61 C295.8,61.2 296.0,61.7 296,62 C296.0,62.3 295.8,62.8 296,63 C296.2,63.2 296.7,63.0 297,63 C297.3,63.0 297.7,63.0 298,63 L298,67 C299.7,65.7 301.7,64.6 303,63 C304.4,61.3 305.0,59.0 306,57" fill="none" stroke="#000000" stroke-width="1"/>
      <path d="M360,57 C360.0,56.7 360.0,56.3 360,56 C360.0,55.7 360.0,55.3 360,55 C360.0,54.7 360.2,54.2 360,54 C359.8,53.8 359.2,54.2 359,54 C358.8,53.8 359.2,53.2 359,53 C358.8,52.8 358.3,53.0 358,53 C357.7,53.0 357.2,53.2 357,53 C356.8,52.8 357.2,52.2 357,52 C356.8,51.8 356.3,52.0 356,52 C355.7,52.0 355.3,52.0 355,52 C354.7,52.0 354.3,52.0 354,52 C353.7,52.0 353.2,51.8 353,52 C352.8,52.2 353.2,52.8 353,53 C352.8,53.2 352.2,52.8 352,53 C351.8,53.2 352.2,53.8 352,54 C351.8,54.2 351.2,53.8 351,54 C350.8,54.2 351.0,54.7 351,55 C351.0,55.3 351.0,55.7 351,56 C351.0,56.3 351.0,56.7 351,57 C350.7,56.7 350.2,56.4 350,56 C349.9,55.7 350.1,55.3 350,55 C349.8,54.6 349.4,54.2 349,54 C348.7,53.9 348.2,54.2 348,54 C347.8,53.8 348.2,53.2 348,53 C347.8,52.8 347.3,53.1 347,53 C346.6,52.8 346.4,52.2 346,52 C345.7,51.9 345.3,52.0 345,52 C344.7,52.0 344.3,52.0 344,52 C343.7,52.0 343.3,52.0 343,52 C342.7,52.0 342.2,51.8 342,52 C341.8,52.2 342.1,52.7 342,53 C341.8,53.4 341.3,53.7 341,54 C340.7,54.3 340.2,54.6 340,55 C339.9,55.3 340.0,55.7 340,56 C340.0,56.3 340.0,56.7 340,57 C340.0,56.7 340.1,56.3 340,56 C339.8,55.6 339.2,55.4 339,55 C338.9,54.7 339.2,54.2 339,54 C338.8,53.8 338.3,54.1 338,54 C337.6,53.8 337.4,53.2 337,53 C336.7,52.9 336.2,53.2 336,53 C335.8,52.8 336.2,52.2 336,52 C335.8,51.8 335.3,52.0 335,52 C334.7,52.0 334.3,52.0 334,52 C333.7,52.0 333.2,51.8 333,52 C332.8,52.2 333.2,52.8 333,53 C332.8,53.2 332.3,52.9 332,53 C331.6,53.2 331.2,53.6 331,54 C330.9,54.3 331.0,54.7 331,55 C331.0,55.3 331.0,55.7 331,56 C331.0,56.3 331.0,56.7 331,57 C330.7,56.7 330.3,56.3 330,56 C329.7,55.7 329.2,55.4 329,55 C328.9,54.7 329.2,54.2 329,54 C328.8,53.8 328.3,54.1 328,54 C327.6,53.8 327.3,53.3 327,53 C326.7,52.7 326.4,52.2 326,52 C325.7,51.9 325.3,52.0 325,52 C324.7,52.0 324.3,52.0 324,52 C323.7,52.0 323.3,52.0 323,52 C322.7,52.0 322.2,51.8 322,52 C321.8,52.2 322.2,52.8 322,53 C321.8,53.2 321.2,52.8 321,53 C320.8,53.2 321.1,53.7 321,54 C320.8,54.4 320.2,54.6 320,55 C319.9,55.3 320.0,55.7 320,56 C320.0,56.3 320.0,56.7 320,57 C319.7,56.7 319.2,56.4 319,56 C318.9,55.7 319.0,55.3 319,55 C319.0,54.7 319.2,54.2 319,54 C318.8,53.8 318.3,54.0 318,54 C317.7,54.0 317.2,54.2 317,54 C316.8,53.8 317.2,53.2 317,53 C316.8,52.8 316.2,53.2 316,53 C315.8,52.8 316.2,52.2 316,52 C315.8,51.8 315.3,52.0 315,52 C314.7,52.0 314.3,52.0 314,52 C313.7,52.0 313.3,52.0 313,52 C312.7,52.0 312.3,51.9 312,52 C311.6,52.2 311.2,52.6 311,53 C310.9,53.3 311.1,53.7 311,54 C310.8,54.4 310.2,54.6 310,55 C309.9,55.3 310.0,55.7 310,56 C310.0,56.3 310.0,56.7 310,57 C310.0,56.7 310.2,56.2 310,56 C309.8,55.8 309.3,56.1 309,56 C308.6,55.8 308.4,55.2 308,55 C307.7,54.9 307.3,55.0 307,55 C306.7,55.0 306.3,55.0 306,55 C305.7,55.0 305.3,55.0 305,55 C304.7,55.0 304.3,54.9 304,55 C303.6,55.2 303.2,55.6 303,56 C302.9,56.3 303.0,56.7 303,57 C303.0,57.3 303.0,57.7 303,58 C303.0,58.3 302.8,58.8 303,59 C303.2,59.2 303.8,58.8 304,59 C304.2,59.2 303.8,59.8 304,60 C304.2,60.2 304.7,60.0 305,60 C304.7,60.0 304.3,59.9 304,60 C303.6,60.2 303.4,60.8 303,61 C302.7,61.1 302.3,60.9 302,61 C301.6,61.2 301.4,61.8 301,62 C300.7,62.1 300.2,61.8 300,62 C299.8,62.2 300.2,62.8 300,63 C299.8,63.2 299.2,62.8 299,63 C298.8,63.2 299.0,63.7 299,64 C299.0,64.3 299.0,64.7 299,65 C299.0,65.3 299.0,65.7 299,66 C299.0,66.3 298.8,66.8 299,67 C299.2,67.2 299.7,66.9 300,67 C300.4,67.2 300.6,67.8 301,68 C301.3,68.1 301.7,68.0 302,68 C302.3,68.0 302.7,68.0 303,68 C303.3,68.0 303.7,68.0 304,68 C304.3,68.0 304.7,68.0 305,68 C304.7,68.0 304.3,68.0 304,68 C303.7,68.0 303.3,68.0 303,68 C302.7,68.0 302.2,67.8 302,68 C301.8,68.2 302.2,68.8 302,69 C301.8,69.2 301.2,68.8 301,69 C300.8,69.2 301.2,69.8 301,70 C300.8,70.2 300.3,69.9 300,70 C299.6,70.2 299.2,70.6 299,71 C298.9,71.3 299.0,71.7 299,72 C299.0,72.3 299.0,72.7 299,73 C299.0,73.3 298.8,73.8 299,74 C299.2,74.2 299.7,73.9 300,74 C300.4,74.2 300.6,74.8 301,75 C301.3,75.1 301.7,75.0 302,75 C302.3,75.0 302.7,75.0 303,75 C303.3,75.0 303.7,75.0 304,75 C304.3,75.0 304.7,75.0 305,75 C304.7,75.3 304.2,75.6 304,76 C303.9,76.3 304.2,76.8 304,77 C303.8,77.2 303.2,76.8 303,77 C302.8,77.2 303.0,77.7 303,78 C303.0,78.3 303.2,78.8 303,79 C302.8,79.2 302.2,78.8 302,79 C301.8,79.2 301.8,79.8 302,80 C302.2,80.2 302.8,79.8 303,80 C303.2,80.2 303.0,80.7 303,81 C303.0,81.3 302.8,81.8 303,82 C303.2,82.2 303.7,81.9 304,82 C304.4,82.2 304.6,82.8 305,83 C305.3,83.1 305.7,83.0 306,83 C306.3,83.0 306.7,83.0 307,83 C307.3,83.0 307.7,83.0 308,83 C308.3,83.0 308.8,83.2 309,83 C309.2,82.8 308.8,82.2 309,82 C309.2,81.8 309.8,82.2 310,82 C310.2,81.8 310.0,81.3 310,81 C310.0,80.7 310.0,80.3 310,80 C310.0,79.7 310.0,79.3 310,79 C310.0,79.3 310.0,79.7 310,80 C310.0,80.3 309.8,80.8 310,81 C310.2,81.2 310.8,80.8 311,81 C311.2,81.2 311.0,81.7 311,82 C311.0,82.3 310.8,82.8 311,83 C311.2,83.2 311.8,82.8 312,83 C312.2,83.2 311.8,83.8 312,84 C312.2,84.2 312.7,84.0 313,84 C313.3,84.0 313.7,84.1 314,84 C314.4,83.8 314.6,83.2 315,83 C315.3,82.9 315.7,83.0 316,83 C316.3,83.0 316.8,83.2 317,83 C317.2,82.8 316.8,82.2 317,82 C317.2,81.8 317.7,82.1 318,82 C318.4,81.8 318.8,81.4 319,81 C319.1,80.7 318.9,80.3 319,80 C319.2,79.6 319.7,79.3 320,79 C320.0,79.3 320.0,79.7 320,80 C320.0,80.3 319.8,80.8 320,81 C320.2,81.2 320.8,80.8 321,81 C321.2,81.2 321.0,81.7 321,82 C321.0,82.3 320.8,82.8 321,83 C321.2,83.2 321.7,83.0 322,83 C322.3,83.0 322.8,82.8 323,83 C323.2,83.2 322.8,83.8 323,84 C323.2,84.2 323.7,84.0 324,84 C324.3,84.0 324.7,84.1 325,84 C325.4,83.8 325.6,83.2 326,83 C326.3,82.9 326.7,83.1 327,83 C327.4,82.8 327.6,82.2 328,82 C328.3,81.9 328.8,82.2 329,82 C329.2,81.8 328.9,81.3 329,81 C329.2,80.6 329.7,80.3 330,80 C330.3,79.7 330.7,79.3 331,79 C331.0,79.3 331.0,79.7 331,80 C331.0,80.3 331.0,80.7 331,81 C331.0,81.3 330.9,81.7 331,82 C331.2,82.4 331.6,82.8 332,83 C332.3,83.1 332.8,82.8 333,83 C333.2,83.2 332.8,83.8 333,84 C333.2,84.2 333.7,84.0 334,84 C334.3,84.0 334.7,84.0 335,84 C335.3,84.0 335.8,84.2 336,84 C336.2,83.8 335.8,83.2 336,83 C336.2,82.8 336.7,83.1 337,83 C337.4,82.8 337.7,82.3 338,82 C338.3,81.7 338.7,81.3 339,81 C339.3,80.7 339.8,80.4 340,80 C340.1,79.7 340.0,79.3 340,79 C340.0,79.3 340.0,79.7 340,80 C340.0,80.3 339.8,80.8 340,81 C340.2,81.2 340.8,80.8 341,81 C341.2,81.2 340.9,81.7 341,82 C341.2,82.4 341.6,82.8 342,83 C342.3,83.1 342.8,82.8 343,83 C343.2,83.2 342.8,83.8 343,84 C343.2,84.2 343.7,84.0 344,84 C344.3,84.0 344.7,84.0 345,84 C345.3,84.0 345.8,84.2 346,84 C346.2,83.8 345.8,83.2 346,83 C346.2,82.8 346.7,83.0 347,83 C347.3,83.0 347.8,83.2 348,83 C348.2,82.8 347.8,82.2 348,82 C348.2,81.8 348.8,82.2 349,82 C349.2,81.8 348.8,81.2 349,81 C349.2,80.8 349.8,81.2 350,81 C350.2,80.8 349.9,80.3 350,80 C350.2,79.6 350.7,79.3 351,79 C351.0,79.3 351.0,79.7 351,80 C351.0,80.3 350.8,80.8 351,81 C351.2,81.2 351.8,80.8 352,81 C352.2,81.2 351.9,81.7 352,82 C352.2,82.4 352.6,82.8 353,83 C353.3,83.1 353.7,83.0 354,83 C354.3,83.0 354.7,82.9 355,83 C355.4,83.2 355.6,83.8 356,84 C356.3,84.1 356.7,84.0 357,84 C357.3,84.0 357.7,84.0 358,84 C358.3,84.0 358.8,84.2 359,84 C359.2,83.8 358.8,83.2 359,83 C359.2,82.8 359.8,83.2 360,83 C360.2,82.8 360.0,82.3 360,82 C360.0,81.7 360.0,81.3 360,81 C360.0,80.7 360.0,80.3 360,80 C360.0,79.7 360.0,79.3 360,79 C362.7,78.7 366.4,79.3 368,78 C369.3,77.0 370.2,74.6 370,73 C369.7,71.3 367.3,69.7 366,68 C366.3,68.0 366.7,68.0 367,68 C367.3,68.0 367.8,68.2 368,68 C368.2,67.8 367.8,67.2 368,67 C368.2,66.8 368.7,67.1 369,67 C369.4,66.8 369.6,66.2 370,66 C370.3,65.9 370.8,66.2 371,66 C371.2,65.8 370.8,65.2 371,65 C371.2,64.8 371.8,65.2 372,65 C372.2,64.8 372.0,64.3 372,64 C372.0,63.7 372.1,63.3 372,63 C371.8,62.6 371.3,62.3 371,62 C370.7,61.7 370.4,61.2 370,61 C369.5,60.8 368.5,61.2 368,61 C367.6,60.8 367.4,60.2 367,60 C366.7,59.9 366.3,60.0 366,60 C366.3,60.0 366.8,60.2 367,60 C367.2,59.8 366.8,59.2 367,59 C367.2,58.8 367.8,59.2 368,59 C368.2,58.8 368.0,58.3 368,58 C368.0,57.7 368.0,57.3 368,57 C368.0,56.7 368.1,56.3 368,56 C367.8,55.6 367.4,55.2 367,55 C366.7,54.9 366.3,55.0 366,55 C365.7,55.0 365.3,55.0 365,55 C364.7,55.0 364.3,55.0 364,55 C363.7,55.0 363.3,55.0 363,55 C362.7,55.0 362.2,54.8 362,55 C361.8,55.2 362.2,55.8 362,56 C361.8,56.2 361.3,55.9 361,56 C360.6,56.2 360.3,56.7 360,57Z" fill="#777777" stroke="none" stroke-width="0" fill-rule="evenodd" data-shape="42"/>
      <path d="M360,57 C360.0,56.7 360.0,56.3 360,56 C360.0,55.7 360.0,55.3 360,55 C360.0,54.7 360.2,54.2 360,54 C359.8,53.8 359.2,54.2 359,54 C358.8,53.8 359.2,53.2 359,53 C358.8,52.8 358.3,53.0 358,53 C357.7,53.0 357.2,53.2 357,53 C356.8,52.8 357.2,52.2 357,52 C356.8,51.8 356.3,52.0 356,52 C355.7,52.0 355.3,52.0 355,52 C354.7,52.0 354.3,52.0 354,52 C353.7,52.0 353.2,51.8 353,52 C352.8,52.2 353.2,52.8 353,53 C352.8,53.2 352.2,52.8 352,53 C351.8,53.2 352.2,53.8 352,54 C351.8,54.2 351.2,53.8 351,54 C350.8,54.2 351.0,54.7 351,55 C351.0,55.3 351.0,55.7 351,56 C351.0,56.3 351.0,56.7 351,57 C350.7,56.7 350.2,56.4 350,56 C349.9,55.7 350.1,55.3 350,55 C349.8,54.6 349.4,54.2 349,54 C348.7,53.9 348.2,54.2 348,54 C347.8,53.8 348.2,53.2 348,53 C347.8,52.8 347.3,53.1 347,53 C346.6,52.8 346.4,52.2 346,52 C345.7,51.9 345.3,52.0 345,52 C344.7,52.0 344.3,52.0 344,52 C343.7,52.0 343.3,52.0 343,52 C342.7,52.0 342.2,51.8 342,52 C341.8,52.2 342.1,52.7 342,53 C341.8,53.4 341.3,53.7 341,54 C340.7,54.3 340.2,54.6 340,55 C339.9,55.3 340.0,55.7 340,56 C340.0,56.3 340.0,56.7 340,57 C340.0,56.7 340.1,56.3 340,56 C339.8,55.6 339.2,55.4 339,55 C338.9,54.7 339.2,54.2 339,54 C338.8,53.8 338.3,54.1 338,54 C337.6,53.8 337.4,53.2 337,53 C336.7,52.9 336.2,53.2 336,53 C335.8,52.8 336.2,52.2 336,52 C335.8,51.8 335.3,52.0 335,52 C334.7,52.0 334.3,52.0 334,52 C333.7,52.0 333.2,51.8 333,52 C332.8,52.2 333.2,52.8 333,53 C332.8,53.2 332.3,52.9 332,53 C331.6,53.2 331.2,53.6 331,54 C330.9,54.3 331.0,54.7 331,55 C331.0,55.3 331.0,55.7 331,56 C331.0,56.3 331.0,56.7 331,57 C330.7,56.7 330.3,56.3 330,56 C329.7,55.7 329.2,55.4 329,55 C328.9,54.7 329.2,54.2 329,54 C328.8,53.8 328.3,54.1 328,54 C327.6,53.8 327.3,53.3 327,53 C326.7,52.7 326.4,52.2 326,52 C325.7,51.9 325.3,52.0 325,52 C324.7,52.0 324.3,52.0 324,52 C323.7,52.0 323.3,52.0 323,52 C322.7,52.0 322.2,51.8 322,52 C321.8,52.2 322.2,52.8 322,53 C321.8,53.2 321.2,52.8 321,53 C320.8,53.2 321.1,53.7 321,54 C320.8,54.4 320.2,54.6 320,55 C319.9,55.3 320.0,55.7 320,56 C320.0,56.3 320.0,56.7 320,57 C319.7,56.7 319.2,56.4 319,56 C318.9,55.7 319.0,55.3 319,55 C319.0,54.7 319.2,54.2 319,54 C318.8,53.8 318.3,54.0 318,54 C317.7,54.0 317.2,54.2 317,54 C316.8,53.8 317.2,53.2 317,53 C316.8,52.8 316.2,53.2 316,53 C315.8,52.8 316.2,52.2 316,52 C315.8,51.8 315.3,52.0 315,52 C314.7,52.0 314.3,52.0 314,52 C313.7,52.0 313.3,52.0 313,52 C312.7,52.0 312.3,51.9 312,52 C311.6,52.2 311.2,52.6 311,53 C310.9,53.3 311.1,53.7 311,54 C310.8,54.4 310.2,54.6 310,55 C309.9,55.3 310.0,55.7 310,56 C310.0,56.3 310.0,56.7 310,57 C310.0,56.7 310.2,56.2 310,56 C309.8,55.8 309.3,56.1 309,56 C308.6,55.8 308.4,55.2 308,55 C307.7,54.9 307.3,55.0 307,55 C306.7,55.0 306.3,55.0 306,55 C305.7,55.0 305.3,55.0 305,55 C304.7,55.0 304.3,54.9 304,55 C303.6,55.2 303.2,55.6 303,56 C302.9,56.3 303.0,56.7 303,57 C303.0,57.3 303.0,57.7 303,58 C303.0,58.3 302.8,58.8 303,59 C303.2,59.2 303.8,58.8 304,59 C304.2,59.2 303.8,59.8 304,60 C304.2,60.2 304.7,60.0 305,60 C304.7,60.0 304.3,59.9 304,60 C303.6,60.2 303.4,60.8 303,61 C302.7,61.1 302.3,60.9 302,61 C301.6,61.2 301.4,61.8 301,62 C300.7,62.1 300.2,61.8 300,62 C299.8,62.2 300.2,62.8 300,63 C299.8,63.2 299.2,62.8 299,63 C298.8,63.2 299.0,63.7 299,64 C299.0,64.3 299.0,64.7 299,65 C299.0,65.3 299.0,65.7 299,66 C299.0,66.3 298.8,66.8 299,67 C299.2,67.2 299.7,66.9 300,67 C300.4,67.2 300.6,67.8 301,68 C301.3,68.1 301.7,68.0 302,68 C302.3,68.0 302.7,68.0 303,68 C303.3,68.0 303.7,68.0 304,68 C304.3,68.0 304.7,68.0 305,68 C304.7,68.0 304.3,68.0 304,68 C303.7,68.0 303.3,68.0 303,68 C302.7,68.0 302.2,67.8 302,68 C301.8,68.2 302.2,68.8 302,69 C301.8,69.2 301.2,68.8 301,69 C300.8,69.2 301.2,69.8 301,70 C300.8,70.2 300.3,69.9 300,70 C299.6,70.2 299.2,70.6 299,71 C298.9,71.3 299.0,71.7 299,72 C299.0,72.3 299.0,72.7 299,73 C299.0,73.3 298.8,73.8 299,74 C299.2,74.2 299.7,73.9 300,74 C300.4,74.2 300.6,74.8 301,75 C301.3,75.1 301.7,75.0 302,75 C302.3,75.0 302.7,75.0 303,75 C303.3,75.0 303.7,75.0 304,75 C304.3,75.0 304.7,75.0 305,75 C304.7,75.3 304.2,75.6 304,76 C303.9,76.3 304.2,76.8 304,77 C303.8,77.2 303.2,76.8 303,77 C302.8,77.2 303.0,77.7 303,78 C303.0,78.3 303.2,78.8 303,79 C302.8,79.2 302.2,78.8 302,79 C301.8,79.2 301.8,79.8 302,80 C302.2,80.2 302.8,79.8 303,80 C303.2,80.2 303.0,80.7 303,81 C303.0,81.3 302.8,81.8 303,82 C303.2,82.2 303.7,81.9 304,82 C304.4,82.2 304.6,82.8 305,83 C305.3,83.1 305.7,83.0 306,83 C306.3,83.0 306.7,83.0 307,83 C307.3,83.0 307.7,83.0 308,83 C308.3,83.0 308.8,83.2 309,83 C309.2,82.8 308.8,82.2 309,82 C309.2,81.8 309.8,82.2 310,82 C310.2,81.8 310.0,81.3 310,81 C310.0,80.7 310.0,80.3 310,80 C310.0,79.7 310.0,79.3 310,79 C310.0,79.3 310.0,79.7 310,80 C310.0,80.3 309.8,80.8 310,81 C310.2,81.2 310.8,80.8 311,81 C311.2,81.2 311.0,81.7 311,82 C311.0,82.3 310.8,82.8 311,83 C311.2,83.2 311.8,82.8 312,83 C312.2,83.2 311.8,83.8 312,84 C312.2,84.2 312.7,84.0 313,84 C313.3,84.0 313.7,84.1 314,84 C314.4,83.8 314.6,83.2 315,83 C315.3,82.9 315.7,83.0 316,83 C316.3,83.0 316.8,83.2 317,83 C317.2,82.8 316.8,82.2 317,82 C317.2,81.8 317.7,82.1 318,82 C318.4,81.8 318.8,81.4 319,81 C319.1,80.7 318.9,80.3 319,80 C319.2,79.6 319.7,79.3 320,79 C320.0,79.3 320.0,79.7 320,80 C320.0,80.3 319.8,80.8 320,81 C320.2,81.2 320.8,80.8 321,81 C321.2,81.2 321.0,81.7 321,82 C321.0,82.3 320.8,82.8 321,83 C321.2,83.2 321.7,83.0 322,83 C322.3,83.0 322.8,82.8 323,83 C323.2,83.2 322.8,83.8 323,84 C323.2,84.2 323.7,84.0 324,84 C324.3,84.0 324.7,84.1 325,84 C325.4,83.8 325.6,83.2 326,83 C326.3,82.9 326.7,83.1 327,83 C327.4,82.8 327.6,82.2 328,82 C328.3,81.9 328.8,82.2 329,82 C329.2,81.8 328.9,81.3 329,81 C329.2,80.6 329.7,80.3 330,80 C330.3,79.7 330.7,79.3 331,79 C331.0,79.3 331.0,79.7 331,80 C331.0,80.3 331.0,80.7 331,81 C331.0,81.3 330.9,81.7 331,82 C331.2,82.4 331.6,82.8 332,83 C332.3,83.1 332.8,82.8 333,83 C333.2,83.2 332.8,83.8 333,84 C333.2,84.2 333.7,84.0 334,84 C334.3,84.0 334.7,84.0 335,84 C335.3,84.0 335.8,84.2 336,84 C336.2,83.8 335.8,83.2 336,83 C336.2,82.8 336.7,83.1 337,83 C337.4,82.8 337.7,82.3 338,82 C338.3,81.7 338.7,81.3 339,81 C339.3,80.7 339.8,80.4 340,80 C340.1,79.7 340.0,79.3 340,79 C340.0,79.3 340.0,79.7 340,80 C340.0,80.3 339.8,80.8 340,81 C340.2,81.2 340.8,80.8 341,81 C341.2,81.2 340.9,81.7 341,82 C341.2,82.4 341.6,82.8 342,83 C342.3,83.1 342.8,82.8 343,83 C343.2,83.2 342.8,83.8 343,84 C343.2,84.2 343.7,84.0 344,84 C344.3,84.0 344.7,84.0 345,84 C345.3,84.0 345.8,84.2 346,84 C346.2,83.8 345.8,83.2 346,83 C346.2,82.8 346.7,83.0 347,83 C347.3,83.0 347.8,83.2 348,83 C348.2,82.8 347.8,82.2 348,82 C348.2,81.8 348.8,82.2 349,82 C349.2,81.8 348.8,81.2 349,81 C349.2,80.8 349.8,81.2 350,81 C350.2,80.8 349.9,80.3 350,80 C350.2,79.6 350.7,79.3 351,79 C351.0,79.3 351.0,79.7 351,80 C351.0,80.3 350.8,80.8 351,81 C351.2,81.2 351.8,80.8 352,81 C352.2,81.2 351.9,81.7 352,82 C352.2,82.4 352.6,82.8 353,83 C353.3,83.1 353.7,83.0 354,83 C354.3,83.0 354.7,82.9 355,83 C355.4,83.2 355.6,83.8 356,84 C356.3,84.1 356.7,84.0 357,84 C357.3,84.0 357.7,84.0 358,84 C358.3,84.0 358.8,84.2 359,84 C359.2,83.8 358.8,83.2 359,83 C359.2,82.8 359.8,83.2 360,83 C360.2,82.8 360.0,82.3 360,82 C360.0,81.7 360.0,81.3 360,81 C360.0,80.7 360.0,80.3 360,80 C360.0,79.7 360.0,79.3 360,79 C362.7,78.7 366.4,79.3 368,78 C369.3,77.0 370.2,74.6 370,73 C369.7,71.3 367.3,69.7 366,68 C366.3,68.0 366.7,68.0 367,68 C367.3,68.0 367.8,68.2 368,68 C368.2,67.8 367.8,67.2 368,67 C368.2,66.8 368.7,67.1 369,67 C369.4,66.8 369.6,66.2 370,66 C370.3,65.9 370.8,66.2 371,66 C371.2,65.8 370.8,65.2 371,65 C371.2,64.8 371.8,65.2 372,65 C372.2,64.8 372.0,64.3 372,64 C372.0,63.7 372.1,63.3 372,63 C371.8,62.6 371.3,62.3 371,62 C370.7,61.7 370.4,61.2 370,61 C369.5,60.8 368.5,61.2 368,61 C367.6,60.8 367.4,60.2 367,60 C366.7,59.9 366.3,60.0 366,60 C366.3,60.0 366.8,60.2 367,60 C367.2,59.8 366.8,59.2 367,59 C367.2,58.8 367.8,59.2 368,59 C368.2,58.8 368.0,58.3 368,58 C368.0,57.7 368.0,57.3 368,57 C368.0,56.7 368.1,56.3 368,56 C367.8,55.6 367.4,55.2 367,55 C366.7,54.9 366.3,55.0 366,55 C365.7,55.0 365.3,55.0 365,55 C364.7,55.0 364.3,55.0 364,55 C363.7,55.0 363.3,55.0 363,55 C362.7,55.0 362.2,54.8 362,55 C361.8,55.2 362.2,55.8 362,56 C361.8,56.2 361.3,55.9 361,56 C360.6,56.2 360.3,56.7 360,57" fill="none" stroke="#000000" stroke-width="1"/>
      <path d="M363,71 C364.3,72.8 366.8,74.7 369,75 C371.2,75.3 374.2,74.3 376,73 C377.8,71.7 379.5,69.2 380,67 C380.5,64.8 379.8,62.2 379,60 C378.2,57.8 376.8,55.0 375,54 C373.4,53.1 370.8,53.5 369,54 C367.2,54.5 365.3,55.5 364,57 C362.5,58.7 361.1,61.6 361,64 C360.9,66.3 361.7,69.2 363,71Z" fill="#eeeebb" stroke="none" stroke-width="0" fill-rule="evenodd" data-shape="43"/>
      <path d="M363,71 C365.0,72.3 366.8,74.7 369,75 C371.2,75.3 374.2,74.3 376,73 C377.8,71.7 379.5,69.2 380,67 C380.5,64.8 379.8,62.2 379,60 C378.2,57.8 376.8,55.0 375,54 C373.4,53.1 370.8,53.5 369,54 C367.2,54.5 365.3,55.5 364,57 C362.5,58.7 361.1,61.6 361,64 C360.9,66.3 362.3,68.7 363,71" fill="none" stroke="#000000" stroke-width="1"/>
      <path d="M373,62 L373,63 L374,63 L375,62 L375,61 L375,60 L374,60 L373,60 L373,61Z" fill="#000000" stroke="none" stroke-width="0" fill-rule="evenodd" data-shape="44"/>
      <path d="M373,62 L373,63 L374,63 L375,62 L375,61 L375,60 L374,60 L373,60 L373,61 L373,62" fill="none" stroke="#000000" stroke-width="1"/>
      <path d="M366,62 L366,63 L367,63 L368,63 L368,62 L369,62 L369,61 L368,60 L367,60 L366,60 L366,61Z" fill="#000000" stroke="none" stroke-width="0" fill-rule="evenodd" data-shape="45"/>
      <path d="M366,62 L366,63 L367,63 L368,63 L368,62 L369,62 L369,61 L368,60 L367,60 L366,60 L366,61 L366,62" fill="none" stroke="#000000" stroke-width="1"/>
      <polygon points="370,51 359,49 363,57 370,51 370,51" fill="#eeeebb" stroke="none" stroke-width="0" fill-rule="evenodd" data-shape="46"/>
      <polyline points="370,51 359,49 363,57 370,51 370,51" fill="none" stroke="#000000" stroke-width="1"/>
      <polygon points="370,51 381,49 376,57 370,51 370,51" fill="#eeeebb" stroke="none" stroke-width="0" fill-rule="evenodd" data-shape="47"/>
      <polyline points="370,51 381,49 376,57 370,51 370,51" fill="none" stroke="#000000" stroke-width="1"/>
      <path d="M374,52 C372.8,51.5 371.4,52.0 370,52 C368.4,52.0 366.0,51.1 365,52 C363.9,53.0 363.2,56.9 364,58 C364.7,59.0 367.4,58.8 369,59 C370.4,59.1 371.6,59.4 373,59 C374.6,58.5 377.9,57.2 378,56 C378.1,54.8 375.5,52.6 374,52Z" fill="#777777" stroke="none" stroke-width="0" fill-rule="evenodd" data-shape="48"/>
      <path d="M374,52 C372.7,52.0 371.4,52.0 370,52 C368.4,52.0 366.0,51.1 365,52 C363.9,53.0 363.2,56.9 364,58 C364.7,59.0 367.4,58.8 369,59 C370.4,59.1 371.6,59.4 373,59 C374.6,58.5 376.3,57.0 378,56 L374,52" fill="none" stroke="#000000" stroke-width="1"/>
      <path d="M367,72 C367.8,72.9 371.9,72.9 373,72 C374.1,71.1 374.7,67.9 374,67 C373.2,66.1 369.1,66.1 368,67 C366.9,67.9 366.3,71.1 367,72Z" fill="#dd0000" stroke="none" stroke-width="0" fill-rule="evenodd" data-shape="49"/>
      <path d="M367,72 C369.0,72.0 371.9,72.9 373,72 C374.1,71.1 373.7,68.7 374,67 C372.0,67.0 369.1,66.1 368,67 C366.9,67.9 367.3,70.3 367,72" fill="none" stroke="#000000" stroke-width="1"/>
    </g>
  </g>
</svg>