<svg xmlns="http://www.w3.org/2000/svg" xmlns:mdcr="http://sensory.com/mdcr" viewBox="0 0 400 301" width="400" height="301">
  <metadata>
    <mdcr:info xmlns:mdcr="http://sensory.com/mdcr">
      <mdcr:source format="WMF" generator="wmf2svg.js"/>
      <mdcr:bounds left="0" top="0" right="6000" bottom="4515" inch="1440"/>
      <mdcr:records count="15">
        <mdcr:record tag="MDCR-{"/>
        <mdcr:record tag="MDCR-{"/>
        <mdcr:record tag="MDCR-S"/>
        <mdcr:record tag="MDCR-}"/>
        <mdcr:record tag="MDCR-{"/>
        <mdcr:record tag="MDCR-}"/>
        <mdcr:record tag="MDCR-{"/>
        <mdcr:record tag="MDCR-}"/>
        <mdcr:record tag="MDCR-{"/>
        <mdcr:record tag="MDCR-}"/>
        <mdcr:record tag="MDCR-{"/>
        <mdcr:record tag="MDCR-}"/>
        <mdcr:record tag="MDCR-S"/>
        <mdcr:record tag="MDCR-}"/>
        <mdcr:record tag="MDCR-S"/>
      </mdcr:records>
    </mdcr:info>
  </metadata>
  <g data-mdcr="group" class="mdcr-region">
    <g data-mdcr="group" class="mdcr-region">
      <path d="M236,267 C233.2,269.3 229.5,270.7 226,272 C222.5,273.3 218.8,274.7 215,275 C211.1,275.4 206.8,274.9 203,274 C199.4,273.2 195.9,272.1 193,270 C189.9,267.8 187.0,264.3 185,261 C183.1,257.9 181.7,254.6 181,251 C180.3,247.2 180.1,242.7 181,239 C181.8,235.4 183.7,232.0 186,229 C188.4,225.9 191.7,223.0 195,221 C198.1,219.1 201.4,217.8 205,217 C208.8,216.1 213.1,215.6 217,216 C220.8,216.3 224.7,217.3 228,219 C231.3,220.7 234.3,223.3 237,226 C239.7,228.7 242.5,231.6 244,235 C245.6,238.5 246.2,243.1 246,247 C245.8,250.8 244.7,254.7 243,258 C241.3,261.3 238.9,264.7 236,267Z" fill="#00cc00" stroke="none" stroke-width="0" fill-rule="evenodd" data-shape="0"/>
      <path d="M217,246 C215.5,247.3 213.0,248.0 211,248 C209.0,248.0 206.2,247.4 205,246 C203.8,244.5 203.3,240.9 204,239 C204.7,237.2 207.1,235.5 209,235 C210.8,234.5 213.2,235.2 215,236 C216.9,236.8 219.6,238.4 220,240 C220.4,241.7 218.5,244.7 217,246Z" fill="#00aa00" stroke="none" stroke-width="0" fill-rule="evenodd" data-shape="1"/>
      <path d="M215,244 C213.8,245.2 209.2,245.2 208,244 C206.8,242.8 206.8,238.2 208,237 C209.2,235.8 213.8,235.8 215,237 C216.2,238.2 216.2,242.8 215,244Z" fill="#548700" stroke="none" stroke-width="0" fill-rule="evenodd" data-shape="2"/>
      <path d="M210,247 C212.7,247.3 215.8,248.9 218,248 C220.1,247.2 221.3,244.0 223,242 C221.3,243.3 220.0,245.2 218,246 C215.8,246.9 212.7,246.7 210,247Z" fill="#49f949" stroke="none" stroke-width="0" fill-rule="evenodd" data-shape="3"/>
      <path d="M208,241 C209.0,238.3 209.8,235.5 211,233 C212.2,230.5 213.5,228.2 215,226 C216.5,223.9 218.3,222.0 220,220 L225,225 C222.7,227.0 219.9,228.7 218,231 C216.3,233.1 215.8,236.3 214,238 C212.4,239.5 210.0,240.0 208,241Z" fill="#b55e00" stroke="none" stroke-width="0" fill-rule="evenodd" data-shape="4"/>
      <path d="M208,241 C209.0,238.3 209.8,235.5 211,233 C212.2,230.5 213.5,228.2 215,226 C216.5,223.9 218.3,222.0 220,220 L225,225 C222.7,227.0 219.9,228.7 218,231 C216.3,233.1 215.8,236.3 214,238 C212.4,239.5 210.0,240.0 208,241" fill="none" stroke="#000000" stroke-width="1"/>
      <path d="M226,235 L223,243 L215,250 L206,250 C206.7,252.3 206.4,255.8 208,257 C209.7,258.3 213.4,257.3 216,257 C218.7,256.7 221.5,256.1 224,255 C226.5,253.8 229.9,252.2 231,250 C232.1,247.9 231.8,244.5 231,242 C230.2,239.4 227.7,237.3 226,235Z" fill="#00e800" stroke="none" stroke-width="0" fill-rule="evenodd" data-shape="5"/>
      <path d="M181,251 C183.3,253.3 185.6,255.8 188,258 C190.3,260.1 192.4,262.2 195,264 C197.7,265.9 201.0,267.8 204,269 C206.7,270.1 209.3,271.0 212,271 C214.9,271.0 218.0,269.7 221,269 C224.0,268.3 227.4,267.0 230,267 C231.9,267.0 233.3,267.7 235,268 C232.0,269.3 229.0,270.8 226,272 C223.0,273.2 220.1,274.5 217,275 C213.8,275.5 210.2,275.4 207,275 C203.9,274.7 200.8,274.3 198,273 C195.1,271.7 192.2,269.3 190,267 C187.9,264.9 186.5,262.6 185,260 C183.4,257.3 182.3,254.0 181,251Z" fill="#00af00" stroke="none" stroke-width="0" fill-rule="evenodd" data-shape="6"/>
    </g>
    <g data-mdcr="group" class="mdcr-region">
      <polygon points="44,86 43,91 50,93 52,87 44,86" fill="#aa602b" stroke="none" stroke-width="0" fill-rule="evenodd" data-shape="7"/>
      <polyline points="44,86 43,91 50,93 52,87 44,86" fill="none" stroke="#000000" stroke-width="1"/>
      <path d="M74,83 C71.2,85.3 67.6,86.8 64,88 C60.3,89.2 55.9,90.0 52,90 C48.3,90.0 44.6,88.9 41,88 C37.6,87.2 34.0,86.8 31,85 C27.9,83.2 25.0,80.1 23,77 C21.0,73.8 19.7,69.7 19,66 C18.4,62.4 18.2,58.6 19,55 C19.8,51.2 21.6,47.0 24,44 C26.3,41.1 29.7,38.8 33,37 C36.4,35.1 40.3,33.8 44,33 C47.6,32.2 51.4,31.7 55,32 C58.7,32.3 62.7,33.3 66,35 C69.3,36.7 72.3,39.3 75,42 C77.7,44.7 80.5,47.6 82,51 C83.6,54.5 84.2,59.1 84,63 C83.8,66.8 82.7,70.7 81,74 C79.3,77.3 76.9,80.7 74,83Z" fill="#eded72" stroke="none" stroke-width="0" fill-rule="evenodd" data-shape="8"/>
      <path d="M52,49 C53.3,51.3 54.1,54.5 56,56 C57.8,57.4 60.6,57.7 63,58 C65.6,58.4 69.0,59.2 71,58 C73.0,56.8 74.9,53.4 75,51 C75.1,48.7 73.7,45.3 72,44 C70.5,42.8 67.9,42.5 66,43 C63.9,43.6 62.3,47.0 60,48 C57.7,49.0 54.7,48.7 52,49Z" fill="#ededd6" stroke="none" stroke-width="0" fill-rule="evenodd" data-shape="9"/>
      <path d="M47,45 L47,44 C45.0,42.3 41.0,40.7 41,39 C41.0,37.3 45.0,35.7 47,34 L47,33 C49.3,33.0 51.8,32.5 54,33 C56.1,33.5 59.0,34.4 60,36 C60.9,37.5 60.9,40.5 60,42 C59.0,43.6 56.1,44.5 54,45 C51.8,45.5 49.3,45.0 47,45Z" fill="#eddd72" stroke="none" stroke-width="0" fill-rule="evenodd" data-shape="10"/>
      <path d="M46,41 L46,37 C46.3,37.0 46.7,37.1 47,37 C47.4,36.8 47.7,36.3 48,36 C48.3,35.7 48.6,35.2 49,35 C49.3,34.9 49.6,35.0 50,35 C50.6,35.0 51.4,35.0 52,35 C52.4,35.0 52.7,35.0 53,35 C53.3,35.0 53.7,34.9 54,35 C54.4,35.2 54.7,35.7 55,36 C55.3,36.3 55.6,36.8 56,37 C56.3,37.1 56.7,37.0 57,37 L57,41 C56.7,41.0 56.3,40.9 56,41 C55.6,41.2 55.3,41.7 55,42 C54.7,42.3 54.4,42.8 54,43 C53.7,43.1 53.3,43.0 53,43 C52.7,43.0 52.4,43.0 52,43 C51.4,43.0 50.6,43.0 50,43 C49.6,43.0 49.3,43.1 49,43 C48.6,42.8 48.3,42.3 48,42 C47.7,41.7 47.4,41.2 47,41 C46.7,40.9 46.3,41.0 46,41Z" fill="#d8c454" stroke="none" stroke-width="0" fill-rule="evenodd" data-shape="11"/>
      <path d="M49,46 C52.3,46.3 56.3,48.0 59,47 C61.5,46.1 63.0,43.0 65,41 C62.7,42.3 60.6,44.2 58,45 C55.3,45.9 52.0,45.7 49,46Z" fill="#ededd6" stroke="none" stroke-width="0" fill-rule="evenodd" data-shape="12"/>
      <path d="M53,22 C54.3,23.3 56.6,24.3 57,26 C57.5,27.9 55.8,30.7 55,33 C54.2,35.4 53.0,37.7 52,40 C51.3,38.7 50.0,37.5 50,36 C49.9,34.0 52.5,31.4 53,29 C53.5,26.7 53.0,24.3 53,22Z" fill="#b55e00" stroke="none" stroke-width="0" fill-rule="evenodd" data-shape="13"/>
      <path d="M49,39 C50.3,36.3 52.3,33.8 53,31 C53.7,28.2 53.0,25.0 53,22 C54.0,24.0 55.8,25.8 56,28 C56.3,30.4 55.4,34.1 54,36 C52.8,37.6 50.7,38.0 49,39" fill="none" stroke="#000000" stroke-width="1"/>
      <path d="M21,75 C24.0,76.0 26.9,77.0 30,78 C33.2,79.0 36.7,80.3 40,81 C43.1,81.6 45.9,81.8 49,82 C52.2,82.2 55.7,82.3 59,82 C62.3,81.7 65.8,80.7 69,80 C72.1,79.3 75.0,78.7 78,78 C75.0,80.3 72.1,83.1 69,85 C66.1,86.7 63.2,88.2 60,89 C56.6,89.9 52.7,90.2 49,90 C45.3,89.8 41.4,89.2 38,88 C34.7,86.8 31.8,85.1 29,83 C26.1,80.8 23.7,77.7 21,75Z" fill="#edd86b" stroke="none" stroke-width="0" fill-rule="evenodd" data-shape="14"/>
      <path d="M35,45 C32.8,45.7 30.6,47.2 29,49 C27.3,50.9 25.8,53.5 25,56 C24.2,58.5 24.0,61.3 24,64 C24.0,66.7 24.2,69.5 25,72 C25.8,74.5 27.2,77.3 29,79 C30.6,80.5 33.7,82.6 35,82 C36.5,81.3 36.5,76.6 37,74 C37.5,71.6 37.2,69.3 38,67 C38.8,64.6 40.8,62.5 42,60 C43.2,57.5 45.1,54.6 45,52 C44.9,49.6 43.7,46.1 42,45 C40.3,43.9 37.2,44.3 35,45Z" fill="#fc7772" stroke="none" stroke-width="0" fill-rule="evenodd" data-shape="15"/>
      <path d="M48,58 C46.7,60.7 44.7,63.2 44,66 C43.3,68.8 44.0,72.0 44,75 C43.3,72.7 42.1,70.3 42,68 C41.9,65.9 42.0,63.7 43,62 C44.0,60.3 46.3,59.3 48,58Z" fill="#fc7772" stroke="none" stroke-width="0" fill-rule="evenodd" data-shape="16"/>
      <polygon points="40,68 38,83 36,79 38,72 40,68" fill="#fc7772" stroke="none" stroke-width="0" fill-rule="evenodd" data-shape="17"/>
      <polygon points="42,61 38,71 40,63 42,61" fill="#fc7772" stroke="none" stroke-width="0" fill-rule="evenodd" data-shape="18"/>
      <polygon points="26,51 21,57 23,66 23,56 26,51" fill="#fc7772" stroke="none" stroke-width="0" fill-rule="evenodd" data-shape="19"/>
      <path d="M38,76 L38,75 L38,74 L39,73 L39,71 L40,70 L41,69 L41,68 L42,67 L41,69 L40,70 L40,72 L40,74 L40,75 L40,77 L41,79 L41,80 L40,80 L40,79 L39,79 L39,78 L38,77Z" fill="#fc7772" stroke="none" stroke-width="0" fill-rule="evenodd" data-shape="20"/>
      <polygon points="38,47 32,52 32,62 33,54 38,47" fill="#eded7c" stroke="none" stroke-width="0" fill-rule="evenodd" data-shape="21"/>
      <path d="M37,45 C35.0,46.3 32.7,47.3 31,49 C29.3,50.7 27.8,52.9 27,55 C26.2,56.9 26.3,59.0 26,61 C27.3,58.0 28.2,54.7 30,52 C31.8,49.3 34.7,47.3 37,45Z" fill="#eded7c" stroke="none" stroke-width="0" fill-rule="evenodd" data-shape="22"/>
    </g>
    <g data-mdcr="group" class="mdcr-region">
      <path d="M127,86 C129.8,88.3 133.5,89.7 137,91 C140.5,92.3 144.2,93.7 148,94 C151.9,94.4 156.2,93.9 160,93 C163.6,92.2 167.1,91.1 170,89 C173.1,86.8 176.0,83.3 178,80 C179.9,76.9 181.3,73.6 182,70 C182.7,66.2 182.9,61.7 182,58 C181.2,54.4 179.3,51.0 177,48 C174.6,44.9 171.3,42.0 168,40 C164.9,38.1 161.6,36.8 158,36 C154.2,35.1 149.9,34.6 146,35 C142.2,35.3 138.3,36.3 135,38 C131.7,39.7 128.7,42.3 126,45 C123.3,47.7 120.5,50.6 119,54 C117.4,57.5 116.8,62.1 117,66 C117.2,69.8 118.3,73.7 120,77 C121.7,80.3 124.1,83.7 127,86Z" fill="#00cc00" stroke="none" stroke-width="0" fill-rule="evenodd" data-shape="23"/>
      <path d="M146,65 C147.5,66.3 150.0,67.0 152,67 C154.0,67.0 156.8,66.4 158,65 C159.2,63.5 159.7,59.9 159,58 C158.3,56.2 155.9,54.5 154,54 C152.2,53.5 149.8,54.2 148,55 C146.1,55.8 143.4,57.4 143,59 C142.6,60.7 144.5,63.7 146,65Z" fill="#00aa00" stroke="none" stroke-width="0" fill-rule="evenodd" data-shape="24"/>
      <path d="M148,63 C149.2,64.2 153.8,64.2 155,63 C156.2,61.8 156.2,57.2 155,56 C153.8,54.8 149.2,54.8 148,56 C146.8,57.2 146.8,61.8 148,63Z" fill="#548700" stroke="none" stroke-width="0" fill-rule="evenodd" data-shape="25"/>
      <path d="M153,66 C150.3,66.3 147.2,67.9 145,67 C142.9,66.2 141.7,63.0 140,61 C141.7,62.3 143.0,64.2 145,65 C147.2,65.9 150.3,65.7 153,66Z" fill="#49f949" stroke="none" stroke-width="0" fill-rule="evenodd" data-shape="26"/>
      <path d="M155,60 C154.0,57.3 153.2,54.5 152,52 C150.8,49.5 149.5,47.2 148,45 C146.5,42.9 144.7,41.0 143,39 L138,44 C140.3,46.0 143.1,47.7 145,50 C146.7,52.1 147.2,55.3 149,57 C150.6,58.5 153.0,59.0 155,60Z" fill="#b55e00" stroke="none" stroke-width="0" fill-rule="evenodd" data-shape="27"/>
      <path d="M155,60 C154.0,57.3 153.2,54.5 152,52 C150.8,49.5 149.5,47.2 148,45 C146.5,42.9 144.7,41.0 143,39 L138,44 C140.3,46.0 143.1,47.7 145,50 C146.7,52.1 147.2,55.3 149,57 C150.6,58.5 153.0,59.0 155,60" fill="none" stroke="#000000" stroke-width="1"/>
      <path d="M137,54 L140,62 L148,69 L157,69 C156.3,71.3 156.6,74.8 155,76 C153.3,77.3 149.6,76.3 147,76 C144.3,75.7 141.5,75.1 139,74 C136.5,72.8 133.1,71.2 132,69 C130.9,66.9 131.2,63.5 132,61 C132.8,58.4 135.3,56.3 137,54Z" fill="#00e800" stroke="none" stroke-width="0" fill-rule="evenodd" data-shape="28"/>
      <path d="M182,70 C179.7,72.3 177.4,74.8 175,77 C172.7,79.1 170.6,81.2 168,83 C165.3,84.9 162.0,86.8 159,88 C156.3,89.1 153.7,90.0 151,90 C148.1,90.0 145.0,88.7 142,88 C139.0,87.3 135.6,86.0 133,86 C131.1,86.0 129.7,86.7 128,87 C131.0,88.3 134.0,89.8 137,91 C140.0,92.2 142.9,93.5 146,94 C149.2,94.5 152.8,94.4 156,94 C159.1,93.7 162.2,93.3 165,92 C167.9,90.7 170.8,88.3 173,86 C175.1,83.9 176.5,81.6 178,79 C179.6,76.3 180.7,73.0 182,70Z" fill="#00af00" stroke="none" stroke-width="0" fill-rule="evenodd" data-shape="29"/>
    </g>
    <g data-mdcr="group" class="mdcr-region">
      <polygon points="255,90 256,95 249,97 247,91 255,90" fill="#aa602b" stroke="none" stroke-width="0" fill-rule="evenodd" data-shape="30"/>
      <polyline points="255,90 256,95 249,97 247,91 255,90" fill="none" stroke="#000000" stroke-width="1"/>
      <path d="M225,86 C227.8,88.3 231.5,89.8 235,91 C238.5,92.2 242.3,93.0 246,93 C249.7,93.0 253.4,91.7 257,91 C260.4,90.3 263.9,90.4 267,89 C270.3,87.5 273.8,85.0 276,82 C278.2,79.0 279.3,74.7 280,71 C280.6,67.4 280.8,63.6 280,60 C279.2,56.2 277.4,52.0 275,49 C272.7,46.1 269.2,43.8 266,42 C262.9,40.2 259.5,38.8 256,38 C252.5,37.2 248.6,36.7 245,37 C241.3,37.3 237.5,38.5 234,40 C230.5,41.5 226.8,43.5 224,46 C221.2,48.5 218.5,51.6 217,55 C215.5,58.3 214.8,62.4 215,66 C215.2,69.7 216.3,73.7 218,77 C219.7,80.3 222.1,83.7 225,86Z" fill="#00cc00" stroke="none" stroke-width="0" fill-rule="evenodd" data-shape="31"/>
      <path d="M247,55 C245.7,57.3 245.0,60.7 243,62 C241.0,63.3 237.6,62.8 235,63 C232.6,63.1 229.8,64.0 228,63 C226.1,61.9 224.1,58.4 224,56 C223.9,53.7 225.3,50.1 227,49 C228.7,47.9 232.0,48.2 234,49 C236.0,49.8 236.9,53.0 239,54 C241.2,55.1 244.3,54.7 247,55Z" fill="#00e800" stroke="none" stroke-width="0" fill-rule="evenodd" data-shape="32"/>
      <path d="M240,49 C241.5,50.4 244.6,50.8 247,51 C249.3,51.2 252.2,51.2 254,50 C255.8,48.8 258.3,45.7 258,44 C257.7,42.3 254.3,40.8 252,40 C249.6,39.1 246.4,38.4 244,39 C241.7,39.5 238.6,41.3 238,43 C237.4,44.6 238.6,47.7 240,49Z" fill="#00aa00" stroke="none" stroke-width="0" fill-rule="evenodd" data-shape="33"/>
      <path d="M244,47 C245.1,48.1 249.9,48.1 251,47 C252.0,46.0 252.0,42.0 251,41 C249.9,39.9 245.1,39.9 244,41 C243.0,42.0 243.0,46.0 244,47Z" fill="#548700" stroke="none" stroke-width="0" fill-rule="evenodd" data-shape="34"/>
      <path d="M249,50 C246.0,50.3 242.6,51.8 240,51 C237.6,50.3 236.0,47.7 234,46 C236.0,47.3 237.7,49.3 240,50 C242.6,50.8 246.0,50.0 249,50Z" fill="#89f989" stroke="none" stroke-width="0" fill-rule="evenodd" data-shape="35"/>
      <path d="M255,22 C256.3,23.7 259.0,25.3 259,27 C259.0,28.9 255.4,30.9 254,33 C252.7,34.9 251.7,36.9 251,39 C250.3,41.2 250.3,43.7 250,46 C249.0,44.7 247.3,43.6 247,42 C246.6,40.1 248.2,37.3 249,35 C249.8,32.6 251.0,30.2 252,28 C253.0,25.9 254.0,24.0 255,22Z" fill="#b55e00" stroke="none" stroke-width="0" fill-rule="evenodd" data-shape="36"/>
      <path d="M246,45 C246.7,42.3 247.2,39.6 248,37 C248.8,34.3 249.8,31.5 251,29 C252.2,26.5 253.7,24.3 255,22 C256.3,23.7 259.0,25.3 259,27 C259.0,28.9 255.4,30.9 254,33 C252.7,34.9 251.7,36.9 251,39 C250.3,41.2 250.3,43.7 250,46 L246,45" fill="none" stroke="#000000" stroke-width="1"/>
      <path d="M277,78 C274.0,79.0 271.1,80.2 268,81 C264.8,81.9 261.3,82.5 258,83 C254.9,83.5 252.1,83.8 249,84 C245.8,84.2 242.3,84.2 239,84 C235.7,83.8 232.2,83.7 229,83 C225.9,82.3 223.0,81.0 220,80 C222.7,82.3 225.0,85.2 228,87 C231.0,88.8 234.5,90.2 238,91 C241.5,91.8 245.4,92.2 249,92 C252.4,91.8 255.7,91.0 259,90 C262.4,89.0 266.0,88.0 269,86 C272.0,84.0 274.3,80.7 277,78Z" fill="#00af00" stroke="none" stroke-width="0" fill-rule="evenodd" data-shape="37"/>
    </g>
    <g data-mdcr="group" class="mdcr-region">
      <path d="M364,28 L360,25 L355,33 L349,30 C350.7,32.0 353.5,33.7 354,36 C354.5,38.4 351.9,41.5 352,44 C352.1,46.2 353.3,48.0 354,50 C354.3,47.3 354.4,44.6 355,42 C355.7,39.3 356.5,36.3 358,34 C359.5,31.7 362.0,30.0 364,28Z" fill="#a87047" stroke="none" stroke-width="0" fill-rule="evenodd" data-shape="38"/>
      <path d="M354,50 C354.3,47.3 354.2,44.6 355,42 C355.8,39.3 357.4,36.4 359,34 C360.5,31.8 362.3,30.0 364,28 L360,25 L355,33 L349,30 C350.7,32.3 353.5,34.5 354,37 C354.5,39.5 351.8,42.7 352,45 C352.1,46.9 353.3,48.3 354,50" fill="none" stroke="#000000" stroke-width="1"/>
      <path d="M333,8 C332.7,10.7 332.0,13.3 332,16 C332.0,18.7 332.0,21.7 333,24 C334.0,26.3 335.9,28.8 338,30 C340.0,31.1 343.3,31.8 345,31 C346.5,30.3 348.1,27.7 348,26 C347.8,24.0 344.7,21.9 343,20 C341.4,18.2 339.6,16.9 338,15 C336.2,12.9 334.7,10.3 333,8Z" fill="#548700" stroke="none" stroke-width="0" fill-rule="evenodd" data-shape="39"/>
      <path d="M349,30 C348.3,28.0 348.1,25.8 347,24 C345.8,22.1 343.7,20.7 342,19 C340.3,17.3 338.5,15.8 337,14 C335.5,12.2 334.3,10.0 333,8 C332.7,10.3 332.0,12.7 332,15 C332.0,17.3 332.4,19.7 333,22 C333.7,24.4 334.4,27.5 336,29 C337.5,30.4 339.9,30.8 342,31 C344.2,31.2 346.7,30.3 349,30" fill="none" stroke="#000000" stroke-width="1"/>
      <path d="M348,30 L333,8 C333.7,10.0 334.2,12.0 335,14 C335.8,16.0 336.8,18.1 338,20 C339.2,21.8 340.4,23.4 342,25 C343.7,26.8 346.0,28.3 348,30Z" fill="#3d6b00" stroke="none" stroke-width="0" fill-rule="evenodd" data-shape="40"/>
      <path d="M338,15 C340.3,17.3 343.1,19.4 345,22 C346.8,24.4 347.7,27.3 349,30 L338,15Z" fill="#669b00" stroke="none" stroke-width="0" fill-rule="evenodd" data-shape="41"/>
      <path d="M354,49 C354.0,46.3 353.5,43.6 354,41 C354.5,38.3 355.3,35.0 357,33 C358.7,31.0 361.7,30.3 364,29 C362.0,30.7 359.3,32.0 358,34 C356.7,36.0 356.6,38.6 356,41 C355.3,43.6 354.7,46.3 354,49Z" fill="#87512b" stroke="none" stroke-width="0" fill-rule="evenodd" data-shape="42"/>
      <path d="M331,90 C334.2,92.1 338.3,93.5 342,94 C345.6,94.5 349.3,92.8 353,93 C356.7,93.2 360.4,95.2 364,95 C367.7,94.8 371.9,93.9 375,92 C378.2,90.0 381.0,86.4 383,83 C385.0,79.5 386.7,74.9 387,71 C387.3,67.3 386.5,63.4 385,60 C383.3,56.4 380.2,52.4 377,50 C374.1,47.8 370.6,46.5 367,46 C363.2,45.4 358.9,47.0 355,47 C351.3,47.0 347.7,45.7 344,46 C340.1,46.3 335.3,47.0 332,49 C328.7,51.0 325.8,54.6 324,58 C322.2,61.3 321.2,65.2 321,69 C320.8,72.9 321.3,77.5 323,81 C324.7,84.5 327.8,87.8 331,90Z" fill="#ef2b23" stroke="none" stroke-width="0" fill-rule="evenodd" data-shape="43"/>
      <polygon points="354,94 357,97 348,97 351,93 354,94" fill="#a86b42" stroke="none" stroke-width="0" fill-rule="evenodd" data-shape="44"/>
      <polyline points="354,94 357,97 348,97 351,93 354,94" fill="none" stroke="#000000" stroke-width="1"/>
      <path d="M342,46 C343.9,45.8 345.8,48.3 348,49 C350.4,49.7 355.7,49.1 356,50 C356.2,50.8 353.0,53.3 351,54 C348.8,54.8 345.4,54.7 343,54 C340.7,53.3 337.1,51.4 337,50 C336.9,48.7 340.2,46.2 342,46Z" fill="#f9595b" stroke="none" stroke-width="0" fill-rule="evenodd" data-shape="45"/>
      <path d="M378,85 C377.5,83.7 372.1,83.9 369,84 C365.7,84.1 362.3,85.8 359,86 C355.7,86.2 352.2,85.7 349,85 C345.9,84.3 343.0,83.2 340,82 C337.0,80.8 333.9,79.2 331,78 C328.3,76.9 323.9,74.1 323,75 C322.0,75.9 324.4,81.4 326,84 C327.7,86.7 330.2,89.5 333,91 C335.8,92.5 339.8,93.0 343,93 C346.1,93.0 348.9,90.9 352,91 C355.3,91.1 358.6,93.8 362,94 C365.3,94.2 369.3,93.6 372,92 C374.6,90.5 378.5,86.3 378,85Z" fill="#dd0000" stroke="none" stroke-width="0" fill-rule="evenodd" data-shape="46"/>
    </g>
  </g>
</svg>