<svg xmlns="http://www.w3.org/2000/svg" xmlns:mdcr="http://sensory.com/mdcr" viewBox="0 0 400 301" width="400" height="301">
  <metadata>
    <mdcr:info xmlns:mdcr="http://sensory.com/mdcr">
      <mdcr:source format="WMF" generator="wmf2svg.js"/>
      <mdcr:bounds left="0" top="0" right="6000" bottom="4515" inch="1440"/>
      <mdcr:records count="14">
        <mdcr:record tag="MDCR-{"/>
        <mdcr:record tag="MDCR-{"/>
        <mdcr:record tag="MDCR-S"/>
        <mdcr:record tag="MDCR-}"/>
        <mdcr:record tag="MDCR-{"/>
        <mdcr:record tag="MDCR-}"/>
        <mdcr:record tag="MDCR-{"/>
        <mdcr:record tag="MDCR-}"/>
        <mdcr:record tag="MDCR-S"/>
        <mdcr:record tag="MDCR-{"/>
        <mdcr:record tag="MDCR-}"/>
        <mdcr:record tag="MDCR-{"/>
        <mdcr:record tag="MDCR-}"/>
        <mdcr:record tag="MDCR-}"/>
      </mdcr:records>
    </mdcr:info>
  </metadata>
  <g data-mdcr="group" class="mdcr-region">
    <g data-mdcr="group" class="mdcr-region">
      <path d="M200,207 L204,204 L209,212 L215,209 C213.3,211.0 210.5,212.7 210,215 C209.5,217.4 212.1,220.5 212,223 C211.9,225.2 210.7,227.0 210,229 C209.7,226.3 209.6,223.6 209,221 C208.3,218.3 207.5,215.3 206,213 C204.5,210.7 202.0,209.0 200,207Z" fill="#a87047" stroke="none" stroke-width="0" fill-rule="evenodd" data-shape="0"/>
      <path d="M210,229 C209.7,226.3 209.8,223.6 209,221 C208.2,218.3 206.6,215.4 205,213 C203.5,210.8 201.7,209.0 200,207 L204,204 L209,212 L215,209 C213.3,211.3 210.5,213.5 210,216 C209.5,218.5 212.2,221.7 212,224 C211.9,225.9 210.7,227.3 210,229" fill="none" stroke="#000000" stroke-width="1"/>
      <path d="M231,187 C231.3,189.7 232.0,192.3 232,195 C232.0,197.7 232.0,200.7 231,203 C230.0,205.3 228.1,207.8 226,209 C224.0,210.1 220.7,210.8 219,210 C217.5,209.3 215.9,206.7 216,205 C216.2,203.0 219.3,200.9 221,199 C222.6,197.2 224.4,195.9 226,194 C227.8,191.9 229.3,189.3 231,187Z" fill="#548700" stroke="none" stroke-width="0" fill-rule="evenodd" data-shape="1"/>
      <path d="M215,209 C215.7,207.0 215.9,204.8 217,203 C218.2,201.1 220.3,199.7 222,198 C223.7,196.3 225.5,194.8 227,193 C228.5,191.2 229.7,189.0 231,187 C231.3,189.3 232.0,191.7 232,194 C232.0,196.3 231.6,198.7 231,201 C230.3,203.4 229.6,206.5 228,208 C226.5,209.4 224.1,209.8 222,210 C219.8,210.2 217.3,209.3 215,209" fill="none" stroke="#000000" stroke-width="1"/>
      <path d="M216,209 L231,187 C230.3,189.0 229.8,191.0 229,193 C228.2,195.0 227.2,197.1 226,199 C224.8,200.8 223.6,202.4 222,204 C220.3,205.8 218.0,207.3 216,209Z" fill="#3d6b00" stroke="none" stroke-width="0" fill-rule="evenodd" data-shape="2"/>
      <path d="M226,194 C223.7,196.3 220.9,198.4 219,201 C217.2,203.4 216.3,206.3 215,209 L226,194Z" fill="#669b00" stroke="none" stroke-width="0" fill-rule="evenodd" data-shape="3"/>
      <path d="M210,228 C210.0,225.3 210.5,222.6 210,220 C209.5,217.3 208.7,214.0 207,212 C205.3,210.0 202.3,209.3 200,208 C202.0,209.7 204.7,211.0 206,213 C207.3,215.0 207.4,217.6 208,220 C208.7,222.6 209.3,225.3 210,228Z" fill="#87512b" stroke="none" stroke-width="0" fill-rule="evenodd" data-shape="4"/>
      <path d="M233,269 C229.8,271.1 225.7,272.5 222,273 C218.4,273.5 214.7,271.8 211,272 C207.3,272.2 203.6,274.2 200,274 C196.3,273.8 192.1,272.9 189,271 C185.8,269.0 183.0,265.4 181,262 C179.0,258.5 177.3,253.9 177,250 C176.7,246.3 177.5,242.4 179,239 C180.7,235.4 183.8,231.4 187,229 C189.9,226.8 193.4,225.5 197,225 C200.8,224.4 205.1,226.0 209,226 C212.7,226.0 216.3,224.7 220,225 C223.9,225.3 228.7,226.0 232,228 C235.3,230.0 238.2,233.6 240,237 C241.8,240.3 242.8,244.2 243,248 C243.2,251.9 242.7,256.5 241,260 C239.3,263.5 236.2,266.8 233,269Z" fill="#ef2b23" stroke="none" stroke-width="0" fill-rule="evenodd" data-shape="5"/>
      <polygon points="210,273 207,276 216,276 213,272 210,273" fill="#a86b42" stroke="none" stroke-width="0" fill-rule="evenodd" data-shape="6"/>
      <polyline points="210,273 207,276 216,276 213,272 210,273" fill="none" stroke="#000000" stroke-width="1"/>
      <path d="M222,225 C220.1,224.8 218.2,227.3 216,228 C213.6,228.7 208.3,228.1 208,229 C207.8,229.8 211.0,232.3 213,233 C215.2,233.8 218.6,233.7 221,233 C223.3,232.3 226.9,230.4 227,229 C227.1,227.7 223.8,225.2 222,225Z" fill="#f9595b" stroke="none" stroke-width="0" fill-rule="evenodd" data-shape="7"/>
      <path d="M186,264 C186.5,262.7 191.9,262.9 195,263 C198.3,263.1 201.7,264.8 205,265 C208.3,265.2 211.8,264.7 215,264 C218.1,263.3 221.0,262.2 224,261 C227.0,259.8 230.1,258.2 233,257 C235.7,255.9 240.1,253.1 241,254 C242.0,254.9 239.6,260.4 238,263 C236.3,265.7 233.8,268.5 231,270 C228.2,271.5 224.2,272.0 221,272 C217.9,272.0 215.1,269.9 212,270 C208.7,270.1 205.4,272.8 202,273 C198.7,273.2 194.7,272.6 192,271 C189.4,269.5 185.5,265.3 186,264Z" fill="#dd0000" stroke="none" stroke-width="0" fill-rule="evenodd" data-shape="8"/>
    </g>
    <g data-mdcr="group" class="mdcr-region">
      <path d="M74,84 C71.2,86.3 67.5,87.7 64,89 C60.5,90.3 56.8,91.7 53,92 C49.1,92.4 44.8,91.9 41,91 C37.4,90.2 33.9,89.1 31,87 C27.9,84.8 25.0,81.3 23,78 C21.1,74.9 19.7,71.6 19,68 C18.3,64.2 18.1,59.7 19,56 C19.8,52.4 21.7,49.0 24,46 C26.4,42.9 29.7,40.0 33,38 C36.1,36.1 39.4,34.8 43,34 C46.8,33.1 51.1,32.6 55,33 C58.8,33.3 62.7,34.3 66,36 C69.3,37.7 72.3,40.3 75,43 C77.7,45.7 80.5,48.6 82,52 C83.6,55.5 84.2,60.1 84,64 C83.8,67.8 82.7,71.7 81,75 C79.3,78.3 76.9,81.7 74,84Z" fill="#00cc00" stroke="none" stroke-width="0" fill-rule="evenodd" data-shape="9"/>
      <path d="M55,63 C53.5,64.3 51.0,65.0 49,65 C47.0,65.0 44.2,64.4 43,63 C41.8,61.5 41.3,57.9 42,56 C42.7,54.2 45.1,52.5 47,52 C48.8,51.5 51.2,52.2 53,53 C54.9,53.8 57.6,55.4 58,57 C58.4,58.7 56.5,61.7 55,63Z" fill="#00aa00" stroke="none" stroke-width="0" fill-rule="evenodd" data-shape="10"/>
      <path d="M53,61 C51.8,62.2 47.2,62.2 46,61 C44.8,59.8 44.8,55.2 46,54 C47.2,52.8 51.8,52.8 53,54 C54.2,55.2 54.2,59.8 53,61Z" fill="#548700" stroke="none" stroke-width="0" fill-rule="evenodd" data-shape="11"/>
      <path d="M48,64 C50.7,64.3 53.8,65.9 56,65 C58.1,64.2 59.3,61.0 61,59 C59.3,60.3 58.0,62.2 56,63 C53.8,63.9 50.7,63.7 48,64Z" fill="#49f949" stroke="none" stroke-width="0" fill-rule="evenodd" data-shape="12"/>
      <path d="M46,58 C47.0,55.3 47.8,52.5 49,50 C50.2,47.5 51.5,45.2 53,43 C54.5,40.9 56.3,39.0 58,37 L63,42 C60.7,44.0 57.9,45.7 56,48 C54.3,50.1 53.8,53.3 52,55 C50.4,56.5 48.0,57.0 46,58Z" fill="#b55e00" stroke="none" stroke-width="0" fill-rule="evenodd" data-shape="13"/>
      <path d="M46,58 C47.0,55.3 47.8,52.5 49,50 C50.2,47.5 51.5,45.2 53,43 C54.5,40.9 56.3,39.0 58,37 L63,42 C60.7,44.0 57.9,45.7 56,48 C54.3,50.1 53.8,53.3 52,55 C50.4,56.5 48.0,57.0 46,58" fill="none" stroke="#000000" stroke-width="1"/>
      <path d="M64,52 L61,60 L53,67 L44,67 C44.7,69.3 44.4,72.8 46,74 C47.7,75.3 51.4,74.3 54,74 C56.7,73.7 59.5,73.1 62,72 C64.5,70.8 67.9,69.2 69,67 C70.1,64.9 69.8,61.5 69,59 C68.2,56.4 65.7,54.3 64,52Z" fill="#00e800" stroke="none" stroke-width="0" fill-rule="evenodd" data-shape="14"/>
      <path d="M19,68 C21.3,70.3 23.6,72.8 26,75 C28.3,77.1 30.4,79.2 33,81 C35.7,82.9 39.0,84.8 42,86 C44.7,87.1 47.3,88.0 50,88 C52.9,88.0 56.0,86.7 59,86 C62.0,85.3 65.4,84.0 68,84 C69.9,84.0 71.3,84.7 73,85 C70.0,86.3 67.0,87.8 64,89 C61.0,90.2 58.1,91.5 55,92 C51.8,92.5 48.2,92.4 45,92 C41.9,91.7 38.8,91.3 36,90 C33.1,88.7 30.2,86.3 28,84 C25.9,81.9 24.5,79.6 23,77 C21.4,74.3 20.3,71.0 19,68Z" fill="#00af00" stroke="none" stroke-width="0" fill-rule="evenodd" data-shape="15"/>
    </g>
    <g data-mdcr="group" class="mdcr-region">
      <path d="M148,28 L152,25 L157,33 L163,30 C161.3,32.0 158.5,33.7 158,36 C157.5,38.4 160.1,41.5 160,44 C159.9,46.2 158.7,48.0 158,50 C157.7,47.3 157.6,44.6 157,42 C156.3,39.3 155.5,36.3 154,34 C152.5,31.7 150.0,30.0 148,28Z" fill="#a87047" stroke="none" stroke-width="0" fill-rule="evenodd" data-shape="16"/>
      <path d="M158,50 C157.7,47.3 157.8,44.6 157,42 C156.2,39.3 154.6,36.4 153,34 C151.5,31.8 149.7,30.0 148,28 L152,25 L157,33 L163,30 C161.3,32.3 158.5,34.5 158,37 C157.5,39.5 160.2,42.7 160,45 C159.9,46.9 158.7,48.3 158,50" fill="none" stroke="#000000" stroke-width="1"/>
      <path d="M179,8 C179.3,10.7 180.0,13.3 180,16 C180.0,18.7 180.0,21.7 179,24 C178.0,26.3 176.1,28.8 174,30 C172.0,31.1 168.7,31.8 167,31 C165.5,30.3 163.9,27.7 164,26 C164.2,24.0 167.3,21.9 169,20 C170.6,18.2 172.4,16.9 174,15 C175.8,12.9 177.3,10.3 179,8Z" fill="#548700" stroke="none" stroke-width="0" fill-rule="evenodd" data-shape="17"/>
      <path d="M163,30 C163.7,28.0 163.9,25.8 165,24 C166.2,22.1 168.3,20.7 170,19 C171.7,17.3 173.5,15.8 175,14 C176.5,12.2 177.7,10.0 179,8 C179.3,10.3 180.0,12.7 180,15 C180.0,17.3 179.6,19.7 179,22 C178.3,24.4 177.6,27.5 176,29 C174.5,30.4 172.1,30.8 170,31 C167.8,31.2 165.3,30.3 163,30" fill="none" stroke="#000000" stroke-width="1"/>
      <path d="M164,30 L179,8 C178.3,10.0 177.8,12.0 177,14 C176.2,16.0 175.2,18.1 174,20 C172.8,21.8 171.6,23.4 170,25 C168.3,26.8 166.0,28.3 164,30Z" fill="#3d6b00" stroke="none" stroke-width="0" fill-rule="evenodd" data-shape="18"/>
      <path d="M174,15 C171.7,17.3 168.9,19.4 167,22 C165.2,24.4 164.3,27.3 163,30 L174,15Z" fill="#669b00" stroke="none" stroke-width="0" fill-rule="evenodd" data-shape="19"/>
      <path d="M158,49 C158.0,46.3 158.5,43.6 158,41 C157.5,38.3 156.7,35.0 155,33 C153.3,31.0 150.3,30.3 148,29 C150.0,30.7 152.7,32.0 154,34 C155.3,36.0 155.4,38.6 156,41 C156.7,43.6 157.3,46.3 158,49Z" fill="#87512b" stroke="none" stroke-width="0" fill-rule="evenodd" data-shape="20"/>
      <path d="M181,90 C177.8,92.1 173.7,93.5 170,94 C166.4,94.5 162.7,92.8 159,93 C155.3,93.2 151.6,95.2 148,95 C144.3,94.8 140.1,93.9 137,92 C133.8,90.0 131.0,86.4 129,83 C127.0,79.5 125.3,74.9 125,71 C124.7,67.3 125.5,63.4 127,60 C128.7,56.4 131.8,52.4 135,50 C137.9,47.8 141.4,46.5 145,46 C148.8,45.4 153.1,47.0 157,47 C160.7,47.0 164.3,45.7 168,46 C171.9,46.3 176.7,47.0 180,49 C183.3,51.0 186.2,54.6 188,58 C189.8,61.3 190.8,65.2 191,69 C191.2,72.9 190.7,77.5 189,81 C187.3,84.5 184.2,87.8 181,90Z" fill="#ef2b23" stroke="none" stroke-width="0" fill-rule="evenodd" data-shape="21"/>
      <polygon points="158,94 155,97 164,97 161,93 158,94" fill="#a86b42" stroke="none" stroke-width="0" fill-rule="evenodd" data-shape="22"/>
      <polyline points="158,94 155,97 164,97 161,93 158,94" fill="none" stroke="#000000" stroke-width="1"/>
      <path d="M170,46 C168.1,45.8 166.2,48.3 164,49 C161.6,49.7 156.3,49.1 156,50 C155.8,50.8 159.0,53.3 161,54 C163.2,54.8 166.6,54.7 169,54 C171.3,53.3 174.9,51.4 175,50 C175.1,48.7 171.8,46.2 170,46Z" fill="#f9595b" stroke="none" stroke-width="0" fill-rule="evenodd" data-shape="23"/>
      <path d="M134,85 C134.5,83.7 139.9,83.9 143,84 C146.3,84.1 149.7,85.8 153,86 C156.3,86.2 159.8,85.7 163,85 C166.1,84.3 169.0,83.2 172,82 C175.0,80.8 178.1,79.2 181,78 C183.7,76.9 188.1,74.1 189,75 C190.0,75.9 187.6,81.4 186,84 C184.3,86.7 181.8,89.5 179,91 C176.2,92.5 172.2,93.0 169,93 C165.9,93.0 163.1,90.9 160,91 C156.7,91.1 153.4,93.8 150,94 C146.7,94.2 142.7,93.6 140,92 C137.4,90.5 133.5,86.3 134,85Z" fill="#dd0000" stroke="none" stroke-width="0" fill-rule="evenodd" data-shape="24"/>
    </g>
    <g data-mdcr="group" class="mdcr-region">
      <polygon points="257,90 256,95 263,97 265,91 257,90" fill="#aa602b" stroke="none" stroke-width="0" fill-rule="evenodd" data-shape="25"/>
      <polyline points="257,90 256,95 263,97 265,91 257,90" fill="none" stroke="#000000" stroke-width="1"/>
      <path d="M287,86 C284.2,88.3 280.5,89.8 277,91 C273.5,92.2 269.7,93.0 266,93 C262.3,93.0 258.6,91.7 255,91 C251.6,90.3 248.1,90.4 245,89 C241.7,87.5 238.2,85.0 236,82 C233.8,79.0 232.7,74.7 232,71 C231.4,67.4 231.2,63.6 232,60 C232.8,56.2 234.6,52.0 237,49 C239.3,46.1 242.8,43.8 246,42 C249.1,40.2 252.5,38.8 256,38 C259.5,37.2 263.4,36.7 267,37 C270.7,37.3 274.5,38.5 278,40 C281.5,41.5 285.2,43.5 288,46 C290.8,48.5 293.5,51.6 295,55 C296.5,58.3 297.2,62.4 297,66 C296.8,69.7 295.7,73.7 294,77 C292.3,80.3 289.9,83.7 287,86Z" fill="#00cc00" stroke="none" stroke-width="0" fill-rule="evenodd" data-shape="26"/>
      <path d="M265,55 C266.3,57.3 267.0,60.7 269,62 C271.0,63.3 274.4,62.8 277,63 C279.4,63.1 282.2,64.0 284,63 C285.9,61.9 287.9,58.4 288,56 C288.1,53.7 286.7,50.1 285,49 C283.3,47.9 280.0,48.2 278,49 C276.0,49.8 275.1,53.0 273,54 C270.8,55.1 267.7,54.7 265,55Z" fill="#00e800" stroke="none" stroke-width="0" fill-rule="evenodd" data-shape="27"/>
      <path d="M272,49 C270.5,50.4 267.4,50.8 265,51 C262.7,51.2 259.8,51.2 258,50 C256.2,48.8 253.7,45.7 254,44 C254.3,42.3 257.7,40.8 260,40 C262.4,39.1 265.6,38.4 268,39 C270.3,39.5 273.4,41.3 274,43 C274.6,44.6 273.4,47.7 272,49Z" fill="#00aa00" stroke="none" stroke-width="0" fill-rule="evenodd" data-shape="28"/>
      <path d="M268,47 C266.9,48.1 262.1,48.1 261,47 C260.0,46.0 260.0,42.0 261,41 C262.1,39.9 266.9,39.9 268,41 C269.0,42.0 269.0,46.0 268,47Z" fill="#548700" stroke="none" stroke-width="0" fill-rule="evenodd" data-shape="29"/>
      <path d="M263,50 C266.0,50.3 269.4,51.8 272,51 C274.4,50.3 276.0,47.7 278,46 C276.0,47.3 274.3,49.3 272,50 C269.4,50.8 266.0,50.0 263,50Z" fill="#89f989" stroke="none" stroke-width="0" fill-rule="evenodd" data-shape="30"/>
      <path d="M257,22 C255.7,23.7 253.0,25.3 253,27 C253.0,28.9 256.6,30.9 258,33 C259.3,34.9 260.3,36.9 261,39 C261.7,41.2 261.7,43.7 262,46 C263.0,44.7 264.7,43.6 265,42 C265.4,40.1 263.8,37.3 263,35 C262.2,32.6 261.0,30.2 260,28 C259.0,25.9 258.0,24.0 257,22Z" fill="#b55e00" stroke="none" stroke-width="0" fill-rule="evenodd" data-shape="31"/>
      <path d="M266,45 C265.3,42.3 264.8,39.6 264,37 C263.2,34.3 262.2,31.5 261,29 C259.8,26.5 258.3,24.3 257,22 C255.7,23.7 253.0,25.3 253,27 C253.0,28.9 256.6,30.9 258,33 C259.3,34.9 260.3,36.9 261,39 C261.7,41.2 261.7,43.7 262,46 L266,45" fill="none" stroke="#000000" stroke-width="1"/>
      <path d="M235,78 C238.0,79.0 240.9,80.2 244,81 C247.2,81.9 250.7,82.5 254,83 C257.1,83.5 259.9,83.8 263,84 C266.2,84.2 269.7,84.2 273,84 C276.3,83.8 279.8,83.7 283,83 C286.1,82.3 289.0,81.0 292,80 C289.3,82.3 287.0,85.2 284,87 C281.0,88.8 277.5,90.2 274,91 C270.5,91.8 266.6,92.2 263,92 C259.6,91.8 256.3,91.0 253,90 C249.6,89.0 246.0,88.0 243,86 C240.0,84.0 237.7,80.7 235,78Z" fill="#00af00" stroke="none" stroke-width="0" fill-rule="evenodd" data-shape="32"/>
    </g>
    <g data-mdcr="group" class="mdcr-region">
      <polygon points="347,86 346,91 353,93 355,87 347,86" fill="#aa602b" stroke="none" stroke-width="0" fill-rule="evenodd" data-shape="33"/>
      <polyline points="347,86 346,91 353,93 355,87 347,86" fill="none" stroke="#000000" stroke-width="1"/>
      <path d="M377,83 C374.2,85.3 370.6,86.8 367,88 C363.3,89.2 358.9,90.0 355,90 C351.3,90.0 347.6,88.9 344,88 C340.6,87.2 337.0,86.8 334,85 C330.9,83.2 328.0,80.1 326,77 C324.0,73.8 322.7,69.7 322,66 C321.4,62.4 321.2,58.6 322,55 C322.8,51.2 324.6,47.0 327,44 C329.3,41.1 332.7,38.8 336,37 C339.4,35.1 343.3,33.8 347,33 C350.6,32.2 354.4,31.7 358,32 C361.7,32.3 365.7,33.3 369,35 C372.3,36.7 375.3,39.3 378,42 C380.7,44.7 383.5,47.6 385,51 C386.6,54.5 387.2,59.1 387,63 C386.8,66.8 385.7,70.7 384,74 C382.3,77.3 379.9,80.7 377,83Z" fill="#eded72" stroke="none" stroke-width="0" fill-rule="evenodd" data-shape="34"/>
      <path d="M355,49 C356.3,51.3 357.1,54.5 359,56 C360.8,57.4 363.6,57.7 366,58 C368.6,58.4 372.0,59.2 374,58 C376.0,56.8 377.9,53.4 378,51 C378.1,48.7 376.7,45.3 375,44 C373.5,42.8 370.9,42.5 369,43 C366.9,43.6 365.3,47.0 363,48 C360.7,49.0 357.7,48.7 355,49Z" fill="#ededd6" stroke="none" stroke-width="0" fill-rule="evenodd" data-shape="35"/>
      <path d="M350,45 L350,44 C348.0,42.3 344.0,40.7 344,39 C344.0,37.3 348.0,35.7 350,34 L350,33 C352.3,33.0 354.8,32.5 357,33 C359.1,33.5 362.0,34.4 363,36 C363.9,37.5 363.9,40.5 363,42 C362.0,43.6 359.1,44.5 357,45 C354.8,45.5 352.3,45.0 350,45Z" fill="#eddd72" stroke="none" stroke-width="0" fill-rule="evenodd" data-shape="36"/>
      <path d="M349,41 L349,37 C349.3,37.0 349.7,37.1 350,37 C350.4,36.8 350.7,36.3 351,36 C351.3,35.7 351.6,35.2 352,35 C352.3,34.9 352.6,35.0 353,35 C353.6,35.0 354.4,35.0 355,35 C355.4,35.0 355.7,35.0 356,35 C356.3,35.0 356.7,34.9 357,35 C357.4,35.2 357.7,35.7 358,36 C358.3,36.3 358.6,36.8 359,37 C359.3,37.1 359.7,37.0 360,37 L360,41 C359.7,41.0 359.3,40.9 359,41 C358.6,41.2 358.3,41.7 358,42 C357.7,42.3 357.4,42.8 357,43 C356.7,43.1 356.3,43.0 356,43 C355.7,43.0 355.4,43.0 355,43 C354.4,43.0 353.6,43.0 353,43 C352.6,43.0 352.3,43.1 352,43 C351.6,42.8 351.3,42.3 351,42 C350.7,41.7 350.4,41.2 350,41 C349.7,40.9 349.3,41.0 349,41Z" fill="#d8c454" stroke="none" stroke-width="0" fill-rule="evenodd" data-shape="37"/>
      <path d="M352,46 C355.3,46.3 359.3,48.0 362,47 C364.5,46.1 366.0,43.0 368,41 C365.7,42.3 363.6,44.2 361,45 C358.3,45.9 355.0,45.7 352,46Z" fill="#ededd6" stroke="none" stroke-width="0" fill-rule="evenodd" data-shape="38"/>
      <path d="M356,22 C357.3,23.3 359.6,24.3 360,26 C360.5,27.9 358.8,30.7 358,33 C357.2,35.4 356.0,37.7 355,40 C354.3,38.7 353.0,37.5 353,36 C352.9,34.0 355.5,31.4 356,29 C356.5,26.7 356.0,24.3 356,22Z" fill="#b55e00" stroke="none" stroke-width="0" fill-rule="evenodd" data-shape="39"/>
      <path d="M352,39 C353.3,36.3 355.3,33.8 356,31 C356.7,28.2 356.0,25.0 356,22 C357.0,24.0 358.8,25.8 359,28 C359.3,30.4 358.4,34.1 357,36 C355.8,37.6 353.7,38.0 352,39" fill="none" stroke="#000000" stroke-width="1"/>
      <path d="M324,75 C327.0,76.0 329.9,77.0 333,78 C336.2,79.0 339.7,80.3 343,81 C346.1,81.6 348.9,81.8 352,82 C355.2,82.2 358.7,82.3 362,82 C365.3,81.7 368.8,80.7 372,80 C375.1,79.3 378.0,78.7 381,78 C378.0,80.3 375.1,83.1 372,85 C369.1,86.7 366.2,88.2 363,89 C359.6,89.9 355.7,90.2 352,90 C348.3,89.8 344.4,89.2 341,88 C337.7,86.8 334.8,85.1 332,83 C329.1,80.8 326.7,77.7 324,75Z" fill="#edd86b" stroke="none" stroke-width="0" fill-rule="evenodd" data-shape="40"/>
      <path d="M338,45 C335.8,45.7 333.6,47.2 332,49 C330.3,50.9 328.8,53.5 328,56 C327.2,58.5 327.0,61.3 327,64 C327.0,66.7 327.2,69.5 328,72 C328.8,74.5 330.2,77.3 332,79 C333.6,80.5 336.7,82.6 338,82 C339.5,81.3 339.5,76.6 340,74 C340.5,71.6 340.2,69.3 341,67 C341.8,64.6 343.8,62.5 345,60 C346.2,57.5 348.1,54.6 348,52 C347.9,49.6 346.7,46.1 345,45 C343.3,43.9 340.2,44.3 338,45Z" fill="#fc7772" stroke="none" stroke-width="0" fill-rule="evenodd" data-shape="41"/>
      <path d="M351,58 C349.7,60.7 347.7,63.2 347,66 C346.3,68.8 347.0,72.0 347,75 C346.3,72.7 345.1,70.3 345,68 C344.9,65.9 345.0,63.7 346,62 C347.0,60.3 349.3,59.3 351,58Z" fill="#fc7772" stroke="none" stroke-width="0" fill-rule="evenodd" data-shape="42"/>
      <polygon points="343,68 341,83 339,79 341,72 343,68" fill="#fc7772" stroke="none" stroke-width="0" fill-rule="evenodd" data-shape="43"/>
      <polygon points="345,61 341,71 343,63 345,61" fill="#fc7772" stroke="none" stroke-width="0" fill-rule="evenodd" data-shape="44"/>
      <polygon points="329,51 324,57 326,66 326,56 329,51" fill="#fc7772" stroke="none" stroke-width="0" fill-rule="evenodd" data-shape="45"/>
      <path d="M341,76 L341,75 L341,74 L342,73 L342,71 L343,70 L344,69 L344,68 L345,67 L344,69 L343,70 L343,72 L343,74 L343,75 L343,77 L344,79 L344,80 L343,80 L343,79 L342,79 L342,78 L341,77Z" fill="#fc7772" stroke="none" stroke-width="0" fill-rule="evenodd" data-shape="46"/>
      <polygon points="341,47 335,52 335,62 336,54 341,47" fill="#eded7c" stroke="none" stroke-width="0" fill-rule="evenodd" data-shape="47"/>
      <path d="M340,45 C338.0,46.3 335.7,47.3 334,49 C332.3,50.7 330.8,52.9 330,55 C329.2,56.9 329.3,59.0 329,61 C330.3,58.0 331.2,54.7 333,52 C334.8,49.3 337.7,47.3 340,45Z" fill="#eded7c" stroke="none" stroke-width="0" fill-rule="evenodd" data-shape="48"/>
    </g>
  </g>
</svg>