<svg xmlns="http://www.w3.org/2000/svg" xmlns:mdcr="http://sensory.com/mdcr" viewBox="0 0 401 301" width="401" height="301">
  <metadata>
    <mdcr:info xmlns:mdcr="http://sensory.com/mdcr">
      <mdcr:source format="WMF" generator="wmf2svg.js"/>
      <mdcr:bounds left="0" top="0" right="6015" bottom="4515" inch="1440"/>
      <mdcr:records count="16">
        <mdcr:record tag="MDCR-{"/>
        <mdcr:record tag="MDCR-S"/>
        <mdcr:record tag="MDCR-{"/>
        <mdcr:record tag="MDCR-}"/>
        <mdcr:record tag="MDCR-{"/>
        <mdcr:record tag="MDCR-}"/>
        <mdcr:record tag="MDCR-{"/>
        <mdcr:record tag="MDCR-}"/>
        <mdcr:record tag="MDCR-{"/>
        <mdcr:record tag="MDCR-}"/>
        <mdcr:record tag="MDCR-{"/>
        <mdcr:record tag="MDCR-}"/>
        <mdcr:record tag="MDCR-{"/>
        <mdcr:record tag="MDCR-}"/>
        <mdcr:record tag="MDCR-}"/>
        <mdcr:record tag="MDCR-S"/>
      </mdcr:records>
    </mdcr:info>
  </metadata>
  <g data-mdcr="group" class="mdcr-region">
    <path d="M219,210 L233,209 L232,223 L245,213 L245,195 L255,190 L251,197 L251,214 C248.3,216.7 245.9,219.6 243,222 C240.2,224.3 235.7,225.1 234,228 C232.1,231.2 233.3,236.7 233,241 L241,254 L242,272 L254,273 L237,276 L233,253 L225,245 L201,254 L194,239 L185,238 L196,233 L203,246 L222,238 L223,230 L201,204 L189,204 L203,199 L223,223 L219,210Z" fill="#000000" stroke="none" stroke-width="0" fill-rule="evenodd" data-shape="0"/>
    <g data-mdcr="group" class="mdcr-region">
      <path d="M45,19 L42,34 C45.0,32.3 48.0,30.7 51,29 C54.0,27.3 56.8,24.8 60,24 C63.1,23.2 66.7,24.0 70,24 C66.3,25.7 62.5,27.0 59,29 C55.5,31.0 51.7,33.2 49,36 C46.4,38.6 44.2,41.6 43,45 C41.8,48.6 40.3,54.2 42,57 C43.7,59.8 50.5,59.3 53,62 C55.5,64.7 54.6,70.5 57,73 C59.3,75.4 63.7,75.7 67,77 L52,82 C51.0,78.7 50.5,75.0 49,72 C47.5,69.0 45.3,66.3 43,64 C40.7,61.7 37.7,60.0 35,58 C32.7,62.3 28.5,66.5 28,71 C27.5,75.5 30.7,80.3 32,85 L17,87 C19.7,84.3 24.3,82.3 25,79 C25.8,75.4 19.4,69.9 20,66 C20.6,62.3 26.2,59.8 28,56 C29.9,52.1 30.0,47.3 31,43 C27.3,46.3 24.3,51.7 20,53 C15.7,54.4 10.0,51.7 5,51 C8.7,49.7 12.5,48.7 16,47 C19.5,45.3 23.2,43.5 26,41 C28.8,38.5 31.8,35.4 33,32 C34.1,28.7 31.1,23.2 33,21 C34.9,18.7 41.0,19.7 45,19Z" fill="#ff00ff" stroke="none" stroke-width="0" fill-rule="evenodd" data-shape="1"/>
    </g>
    <g data-mdcr="group" class="mdcr-region">
      <path d="M91,71 L89,61 L108,60 L105,72 C108.3,68.7 114.4,65.9 115,62 C115.7,57.9 107.5,52.0 108,48 C108.5,44.5 113.3,42.0 116,39 C117.0,44.0 118.3,49.2 119,54 C119.6,58.5 121.7,63.3 120,67 C118.0,71.2 108.2,72.7 106,77 C104.0,80.9 103.8,87.4 106,91 C108.4,95.0 116.0,96.3 121,99 L108,110 L114,116 L100,112 L110,99 C105.7,98.3 100.2,95.4 97,97 C93.9,98.5 91.0,104.1 91,108 C91.0,112.4 96.3,117.3 99,122 L82,123 L91,118 C88.3,113.7 83.0,109.1 83,105 C83.0,101.2 88.7,98.0 90,94 C91.3,90.0 92.2,85.0 91,81 C89.7,76.7 85.2,72.8 82,69 C78.8,65.2 75.3,61.7 72,58 C76.7,54.7 83.0,52.1 86,48 C88.7,44.3 88.7,39.3 90,35 L100,44 L81,57 L91,71Z" fill="#ff00ff" stroke="none" stroke-width="0" fill-rule="evenodd" data-shape="2"/>
    </g>
    <g data-mdcr="group" class="mdcr-region">
      <path d="M160,27 L174,26 L173,40 L186,30 L186,12 L196,7 L192,14 L192,31 C189.3,33.7 186.9,36.6 184,39 C181.2,41.3 176.7,42.1 175,45 C173.1,48.2 174.3,53.7 174,58 L182,71 L183,89 L195,90 L178,93 L174,70 L166,62 L142,71 L135,56 L126,55 L137,50 L144,63 L163,55 L164,47 L142,21 L130,21 L144,16 L164,40 L160,27Z" fill="#ff00ff" stroke="none" stroke-width="0" fill-rule="evenodd" data-shape="3"/>
    </g>
    <g data-mdcr="group" class="mdcr-region">
      <path d="M224,63 L234,64 L232,76 C236.0,74.0 241.5,73.2 244,70 C246.6,66.7 244.2,58.5 247,56 C249.7,53.7 255.7,55.3 260,55 C256.3,57.7 251.7,59.5 249,63 C246.3,66.5 246.7,72.4 244,76 C241.2,79.8 233.7,81.1 232,85 C230.4,88.6 230.8,94.6 233,98 C235.4,101.8 242.3,103.3 247,106 L233,108 C233.0,114.3 232.3,121.0 233,127 C233.7,132.6 235.7,137.7 237,143 C233.7,140.3 228.3,138.5 227,135 C225.7,131.3 230.2,125.6 230,121 C229.8,116.6 227.3,112.3 226,108 C223.3,112.7 221.9,119.7 218,122 C214.4,124.1 207.5,120.1 204,122 C200.6,123.9 199.3,129.3 197,133 L197,116 C203.0,117.3 211.0,121.8 215,120 C218.3,118.5 219.0,112.7 221,109 L206,110 C210.7,106.3 217.2,103.7 220,99 C222.8,94.4 224.5,86.8 223,82 C221.5,77.2 215.8,72.7 211,70 C206.1,67.3 199.7,67.3 194,66 C200.0,65.3 206.6,62.4 212,64 C217.6,65.6 222.0,72.0 227,76 L224,63Z" fill="#ff00ff" stroke="none" stroke-width="0" fill-rule="evenodd" data-shape="4"/>
    </g>
    <g data-mdcr="group" class="mdcr-region">
      <path d="M287,32 C286.3,36.3 285.8,40.6 285,45 C284.2,49.6 283.3,54.5 282,59 C280.7,63.5 279.4,68.3 277,72 C274.7,75.6 271.0,78.0 268,81 C272.0,79.7 277.2,79.6 280,77 C282.9,74.3 283.3,69.0 285,65 C286.7,61.0 288.3,57.0 290,53 C293.7,56.3 298.8,58.9 301,63 C303.2,67.2 301.3,73.8 303,78 C304.5,81.6 306.7,85.3 310,87 C313.8,89.0 320.0,87.7 325,88 C320.3,86.7 313.6,87.0 311,84 C308.5,81.2 310.3,75.2 309,71 C307.7,66.6 305.3,62.2 303,58 C300.7,53.8 296.2,50.4 295,46 C293.9,41.7 295.7,36.7 296,32 C299.3,35.3 303.5,38.1 306,42 C308.5,45.8 308.1,52.2 311,55 C313.6,57.6 318.3,57.7 322,59 C319.3,55.7 316.2,52.7 314,49 C311.8,45.3 311.5,40.6 309,37 C306.3,33.2 299.6,31.1 298,27 C296.4,23.0 298.7,17.7 299,13 L285,13 C286.0,17.0 289.4,22.3 288,25 C286.6,27.6 279.7,26.7 277,29 C274.5,31.2 274.2,35.5 272,38 C269.8,40.5 266.7,42.0 264,44 C268.0,42.3 272.2,41.0 276,39 C279.8,37.0 283.3,34.3 287,32Z" fill="#ff00ff" stroke="none" stroke-width="0" fill-rule="evenodd" data-shape="5"/>
    </g>
    <g data-mdcr="group" class="mdcr-region">
      <path d="M359,47 L373,46 L370,62 L387,60 L375,52 L384,43 C383.0,45.7 380.2,48.4 381,51 C382.3,54.9 392.3,58.3 398,62 L372,68 L387,90 L375,91 C375.7,95.7 377.3,100.4 377,105 C376.7,109.7 373.3,114.3 373,119 C372.7,123.6 374.3,128.3 375,133 C372.3,128.7 367.7,124.6 367,120 C366.3,115.3 370.8,110.0 371,105 C371.2,100.0 369.0,95.0 368,90 C366.3,94.7 363.8,99.2 363,104 C362.2,108.8 364.5,114.5 363,119 C361.5,123.5 357.0,127.0 354,131 C355.3,126.7 357.5,122.5 358,118 C358.5,113.5 356.3,108.5 357,104 C357.7,99.5 360.3,95.3 362,91 L349,92 L361,68 L344,72 C346.0,75.0 350.4,78.1 350,81 C349.6,84.2 343.3,87.0 340,90 C341.7,86.3 345.3,82.6 345,79 C344.7,75.3 340.3,71.7 338,68 C344.3,66.3 353.6,66.9 357,63 C360.1,59.5 358.3,52.3 359,47Z" fill="#ff00ff" stroke="none" stroke-width="0" fill-rule="evenodd" data-shape="6"/>
      <polygon points="382,19 382,19 399,30 399,30 399,30" fill="#ff00ff" stroke="none" stroke-width="0" fill-rule="evenodd" data-shape="7"/>
      <polygon points="398,30 398,30 372,36 372,36 372,36" fill="#ff00ff" stroke="none" stroke-width="0" fill-rule="evenodd" data-shape="8"/>
    </g>
  </g>
</svg>