<svg xmlns="http://www.w3.org/2000/svg" xmlns:mdcr="http://sensory.com/mdcr" viewBox="0 0 401 301" width="401" height="301">
  <metadata>
    <mdcr:info xmlns:mdcr="http://sensory.com/mdcr">
      <mdcr:source format="WMF" generator="wmf2svg.js"/>
      <mdcr:bounds left="0" top="0" right="6015" bottom="4515" inch="1440"/>
      <mdcr:records count="16">
        <mdcr:record tag="MDCR-{"/>
        <mdcr:record tag="MDCR-S"/>
        <mdcr:record tag="MDCR-{"/>
        <mdcr:record tag="MDCR-}"/>
        <mdcr:record tag="MDCR-{"/>
        <mdcr:record tag="MDCR-}"/>
        <mdcr:record tag="MDCR-{"/>
        <mdcr:record tag="MDCR-}"/>
        <mdcr:record tag="MDCR-{"/>
        <mdcr:record tag="MDCR-}"/>
        <mdcr:record tag="MDCR-{"/>
        <mdcr:record tag="MDCR-}"/>
        <mdcr:record tag="MDCR-{"/>
        <mdcr:record tag="MDCR-}"/>
        <mdcr:record tag="MDCR-}"/>
        <mdcr:record tag="MDCR-S"/>
      </mdcr:records>
    </mdcr:info>
  </metadata>
  <g data-mdcr="group" class="mdcr-region">
    <path d="M206,215 L192,214 L193,228 L180,218 L180,200 L170,195 L174,202 L174,219 C176.7,221.7 179.1,224.6 182,227 C184.8,229.3 189.3,230.1 191,233 C192.9,236.2 191.7,241.7 192,246 L184,259 L183,277 L171,278 L188,281 L192,258 L200,250 L224,259 L231,244 L240,243 L229,238 L222,251 L203,243 L202,235 L224,209 L236,209 L222,204 L202,228 L206,215Z" fill="#000000" stroke="none" stroke-width="0" fill-rule="evenodd" data-shape="0"/>
    <g data-mdcr="group" class="mdcr-region">
      <path d="M45,19 L42,34 C45.0,32.3 48.0,30.7 51,29 C54.0,27.3 56.8,24.8 60,24 C63.1,23.2 66.7,24.0 70,24 C66.3,25.7 62.5,27.0 59,29 C55.5,31.0 51.7,33.2 49,36 C46.4,38.6 44.2,41.6 43,45 C41.8,48.6 40.3,54.2 42,57 C43.7,59.8 50.5,59.3 53,62 C55.5,64.7 54.6,70.5 57,73 C59.3,75.4 63.7,75.7 67,77 L52,82 C51.0,78.7 50.5,75.0 49,72 C47.5,69.0 45.3,66.3 43,64 C40.7,61.7 37.7,60.0 35,58 C32.7,62.3 28.5,66.5 28,71 C27.5,75.5 30.7,80.3 32,85 L17,87 C19.7,84.3 24.3,82.3 25,79 C25.8,75.4 19.4,69.9 20,66 C20.6,62.3 26.2,59.8 28,56 C29.9,52.1 30.0,47.3 31,43 C27.3,46.3 24.3,51.7 20,53 C15.7,54.4 10.0,51.7 5,51 C8.7,49.7 12.5,48.7 16,47 C19.5,45.3 23.2,43.5 26,41 C28.8,38.5 31.8,35.4 33,32 C34.1,28.7 31.1,23.2 33,21 C34.9,18.7 41.0,19.7 45,19Z" fill="#ff00ff" stroke="none" stroke-width="0" fill-rule="evenodd" data-shape="1"/>
    </g>
    <g data-mdcr="group" class="mdcr-region">
      <path d="M110,32 C110.7,36.3 111.2,40.6 112,45 C112.8,49.6 113.7,54.5 115,59 C116.3,63.5 117.6,68.3 120,72 C122.3,75.6 126.0,78.0 129,81 C125.0,79.7 119.8,79.6 117,77 C114.1,74.3 113.7,69.0 112,65 C110.3,61.0 108.7,57.0 107,53 C103.3,56.3 98.2,58.9 96,63 C93.8,67.2 95.7,73.8 94,78 C92.5,81.6 90.3,85.3 87,87 C83.2,89.0 77.0,87.7 72,88 C76.7,86.7 83.4,87.0 86,84 C88.5,81.2 86.7,75.2 88,71 C89.3,66.6 91.7,62.2 94,58 C96.3,53.8 100.8,50.4 102,46 C103.1,41.7 101.3,36.7 101,32 C97.7,35.3 93.5,38.1 91,42 C88.5,45.8 88.9,52.2 86,55 C83.4,57.6 78.7,57.7 75,59 C77.7,55.7 80.8,52.7 83,49 C85.2,45.3 85.5,40.6 88,37 C90.7,33.2 97.4,31.1 99,27 C100.6,23.0 98.3,17.7 98,13 L112,13 C111.0,17.0 107.6,22.3 109,25 C110.4,27.6 117.3,26.7 120,29 C122.5,31.2 122.8,35.5 125,38 C127.2,40.5 130.3,42.0 133,44 C129.0,42.3 124.8,41.0 121,39 C117.2,37.0 113.7,34.3 110,32Z" fill="#ff00ff" stroke="none" stroke-width="0" fill-rule="evenodd" data-shape="2"/>
    </g>
    <g data-mdcr="group" class="mdcr-region">
      <path d="M173,63 L163,64 L165,76 C161.0,74.0 155.5,73.2 153,70 C150.4,66.7 152.8,58.5 150,56 C147.3,53.7 141.3,55.3 137,55 C140.7,57.7 145.3,59.5 148,63 C150.7,66.5 150.3,72.4 153,76 C155.8,79.8 163.3,81.1 165,85 C166.6,88.6 166.2,94.6 164,98 C161.6,101.8 154.7,103.3 150,106 L164,108 C164.0,114.3 164.7,121.0 164,127 C163.3,132.6 161.3,137.7 160,143 C163.3,140.3 168.7,138.5 170,135 C171.3,131.3 166.8,125.6 167,121 C167.2,116.6 169.7,112.3 171,108 C173.7,112.7 175.1,119.7 179,122 C182.6,124.1 189.5,120.1 193,122 C196.4,123.9 197.7,129.3 200,133 L200,116 C194.0,117.3 186.0,121.8 182,120 C178.7,118.5 178.0,112.7 176,109 L191,110 C186.3,106.3 179.8,103.7 177,99 C174.2,94.4 172.5,86.8 174,82 C175.5,77.2 181.2,72.7 186,70 C190.9,67.3 197.3,67.3 203,66 C197.0,65.3 190.4,62.4 185,64 C179.4,65.6 175.0,72.0 170,76 L173,63Z" fill="#ff00ff" stroke="none" stroke-width="0" fill-rule="evenodd" data-shape="3"/>
    </g>
    <g data-mdcr="group" class="mdcr-region">
      <path d="M237,27 L223,26 L224,40 L211,30 L211,12 L201,7 L205,14 L205,31 C207.7,33.7 210.1,36.6 213,39 C215.8,41.3 220.3,42.1 222,45 C223.9,48.2 222.7,53.7 223,58 L215,71 L214,89 L202,90 L219,93 L223,70 L231,62 L255,71 L262,56 L271,55 L260,50 L253,63 L234,55 L233,47 L255,21 L267,21 L253,16 L233,40 L237,27Z" fill="#ff00ff" stroke="none" stroke-width="0" fill-rule="evenodd" data-shape="4"/>
    </g>
    <g data-mdcr="group" class="mdcr-region">
      <path d="M306,71 L308,61 L289,60 L292,72 C288.7,68.7 282.6,65.9 282,62 C281.3,57.9 289.5,52.0 289,48 C288.5,44.5 283.7,42.0 281,39 C280.0,44.0 278.7,49.2 278,54 C277.4,58.5 275.3,63.3 277,67 C279.0,71.2 288.8,72.7 291,77 C293.0,80.9 293.2,87.4 291,91 C288.6,95.0 281.0,96.3 276,99 L289,110 L283,116 L297,112 L287,99 C291.3,98.3 296.8,95.4 300,97 C303.1,98.5 306.0,104.1 306,108 C306.0,112.4 300.7,117.3 298,122 L315,123 L306,118 C308.7,113.7 314.0,109.1 314,105 C314.0,101.2 308.3,98.0 307,94 C305.7,90.0 304.8,85.0 306,81 C307.3,76.7 311.8,72.8 315,69 C318.2,65.2 321.7,61.7 325,58 C320.3,54.7 314.0,52.1 311,48 C308.3,44.3 308.3,39.3 307,35 L297,44 L316,57 L306,71Z" fill="#ff00ff" stroke="none" stroke-width="0" fill-rule="evenodd" data-shape="5"/>
    </g>
    <g data-mdcr="group" class="mdcr-region">
      <path d="M359,47 L373,46 L370,62 L387,60 L375,52 L384,43 C383.0,45.7 380.2,48.4 381,51 C382.3,54.9 392.3,58.3 398,62 L372,68 L387,90 L375,91 C375.7,95.7 377.3,100.4 377,105 C376.7,109.7 373.3,114.3 373,119 C372.7,123.6 374.3,128.3 375,133 C372.3,128.7 367.7,124.6 367,120 C366.3,115.3 370.8,110.0 371,105 C371.2,100.0 369.0,95.0 368,90 C366.3,94.7 363.8,99.2 363,104 C362.2,108.8 364.5,114.5 363,119 C361.5,123.5 357.0,127.0 354,131 C355.3,126.7 357.5,122.5 358,118 C358.5,113.5 356.3,108.5 357,104 C357.7,99.5 360.3,95.3 362,91 L349,92 L361,68 L344,72 C346.0,75.0 350.4,78.1 350,81 C349.6,84.2 343.3,87.0 340,90 C341.7,86.3 345.3,82.6 345,79 C344.7,75.3 340.3,71.7 338,68 C344.3,66.3 353.6,66.9 357,63 C360.1,59.5 358.3,52.3 359,47Z" fill="#ff00ff" stroke="none" stroke-width="0" fill-rule="evenodd" data-shape="6"/>
    </g>
  </g>
</svg>