<svg xmlns="http://www.w3.org/2000/svg" xmlns:mdcr="http://sensory.com/mdcr" viewBox="0 0 401 301" width="401" height="301">
  <metadata>
    <mdcr:info xmlns:mdcr="http://sensory.com/mdcr">
      <mdcr:source format="WMF" generator="wmf2svg.js"/>
      <mdcr:bounds left="0" top="0" right="6015" bottom="4515" inch="1440"/>
      <mdcr:records count="16">
        <mdcr:record tag="MDCR-{"/>
        <mdcr:record tag="MDCR-{"/>
        <mdcr:record tag="MDCR-S"/>
        <mdcr:record tag="MDCR-}"/>
        <mdcr:record tag="MDCR-S"/>
        <mdcr:record tag="MDCR-{"/>
        <mdcr:record tag="MDCR-}"/>
        <mdcr:record tag="MDCR-{"/>
        <mdcr:record tag="MDCR-}"/>
        <mdcr:record tag="MDCR-{"/>
        <mdcr:record tag="MDCR-}"/>
        <mdcr:record tag="MDCR-{"/>
        <mdcr:record tag="MDCR-}"/>
        <mdcr:record tag="MDCR-{"/>
        <mdcr:record tag="MDCR-}"/>
        <mdcr:record tag="MDCR-}"/>
      </mdcr:records>
    </mdcr:info>
  </metadata>
  <g data-mdcr="group" class="mdcr-region">
    <g data-mdcr="group" class="mdcr-region">
      <polygon points="218,283 169,283 169,275 169,271 169,267 169,263 170,259 170,255 171,251 171,246 171,245 172,243 172,241 173,239 173,236 174,235 175,233 176,231 176,229 177,226 178,225 179,222 180,221 181,219 182,218 183,217 184,216 185,216 186,216 186,215 187,215 187,215 188,214 189,214 190,213 191,213 191,213 192,213 193,213 193,213 194,213 195,213 196,213 196,213 197,213 198,214 199,214 200,215 200,215 201,215 201,216 202,216 203,216 204,217 205,218 206,219 207,221 208,222 209,225 210,226 211,229 211,231 212,233 213,235 213,236 214,239 215,241 215,243 216,245 216,246 216,251 217,255 217,259 218,263 218,267 218,271 218,275 218,283 218,283" fill="#c0c0c0" stroke="#000000" stroke-width="1" fill-rule="evenodd" data-shape="0"/>
      <polygon points="182,271 165,264 186,237 194,240 182,271 182,271" fill="#808000" stroke="#000000" stroke-width="1" fill-rule="evenodd" data-shape="1"/>
      <polygon points="233,244 225,258 194,240 198,233 233,244 233,244" fill="#808000" stroke="#000000" stroke-width="1" fill-rule="evenodd" data-shape="2"/>
      <polygon points="153,225 161,211 192,229 188,237 153,225 153,225" fill="#808000" stroke="#000000" stroke-width="1" fill-rule="evenodd" data-shape="3"/>
      <polygon points="202,198 219,205 198,232 190,229 202,198 202,198" fill="#808000" stroke="#000000" stroke-width="1" fill-rule="evenodd" data-shape="4"/>
      <polygon points="186,237 187,237 187,237 187,237 188,238 188,238 189,239 189,239 189,239 190,240 191,240 191,240 192,240 193,240 193,240 194,240 195,240 196,239 196,239 196,239 196,238 197,238 197,238 198,237 198,237 199,237 199,236 199,236 199,235 199,234 199,234 199,233 199,233 198,232 198,232 198,232 197,231 197,231 196,230 196,230 196,230 195,229 195,229 194,229 193,229 192,229 192,229 191,229 190,229 189,230 189,230 189,230 189,231 188,231 188,231 187,232 187,232 187,232 186,233 186,233 186,234 186,235 186,235 186,236 186,237 186,237" fill="#808080" stroke="#000000" stroke-width="1" fill-rule="evenodd" data-shape="5"/>
      <polygon points="205,283 205,267 205,266 205,265 205,264 204,263 204,263 203,262 203,261 203,261 202,261 201,260 200,260 199,259 198,259 198,259 197,259 196,259 195,259 194,259 194,259 193,259 192,260 191,260 190,261 189,261 189,261 189,262 188,263 188,263 188,264 187,265 187,266 187,267 187,283 205,283 205,283" fill="#ff0000" stroke="#000000" stroke-width="1" fill-rule="evenodd" data-shape="6"/>
    </g>
    <g data-mdcr="group" class="mdcr-region">
      <polygon points="45,47 58,47 58,34 45,34 45,47 45,47" fill="#ffbb00" stroke="none" stroke-width="0" fill-rule="evenodd" data-shape="7"/>
      <polyline points="45,47 58,47 58,34 45,34 45,47 45,47" fill="none" stroke="#000000" stroke-width="1"/>
      <polygon points="72,60 18,60 18,112 72,112 72,60 72,60" fill="#dd0000" stroke="none" stroke-width="0" fill-rule="evenodd" data-shape="8"/>
      <polyline points="72,60 18,60 18,112 72,112 72,60 72,60" fill="none" stroke="#000000" stroke-width="1"/>
      <polygon points="38,93 25,93 25,112 38,112 38,93 38,93" fill="#00cc00" stroke="none" stroke-width="0" fill-rule="evenodd" data-shape="9"/>
      <polyline points="38,93 25,93 25,112 38,112 38,93 38,93" fill="none" stroke="#000000" stroke-width="1"/>
      <polygon points="25,67 38,67 38,80 25,80 25,67 25,67" fill="#00bbff" stroke="none" stroke-width="0" fill-rule="evenodd" data-shape="10"/>
      <polyline points="25,67 38,67 38,80 25,80 25,67 25,67" fill="none" stroke="#000000" stroke-width="1"/>
      <polygon points="52,67 65,67 65,80 52,80 52,67 52,67" fill="#00bbff" stroke="none" stroke-width="0" fill-rule="evenodd" data-shape="11"/>
      <polyline points="52,67 65,67 65,80 52,80 52,67 52,67" fill="none" stroke="#000000" stroke-width="1"/>
      <polygon points="52,93 65,93 65,106 52,106 52,93 52,93" fill="#00bbff" stroke="none" stroke-width="0" fill-rule="evenodd" data-shape="12"/>
      <polyline points="12,60 19,60" fill="none" stroke="#000000" stroke-width="1"/>
      <polygon points="19,60 12,60 25,47 66,47 79,60 19,60 19,60" fill="#eeee00" stroke="none" stroke-width="0" fill-rule="evenodd" data-shape="13"/>
      <polyline points="19,60 12,60 25,47 66,47 79,60 19,60" fill="none" stroke="#000000" stroke-width="1"/>
      <polyline points="31,67 31,80" fill="none" stroke="#000000" stroke-width="1"/>
      <polyline points="25,73 38,73" fill="none" stroke="#000000" stroke-width="1"/>
      <polyline points="58,67 58,80" fill="none" stroke="#000000" stroke-width="1"/>
      <polyline points="52,73 65,73" fill="none" stroke="#000000" stroke-width="1"/>
      <polyline points="58,93 58,106" fill="none" stroke="#000000" stroke-width="1"/>
      <polyline points="52,100 65,100" fill="none" stroke="#000000" stroke-width="1"/>
      <rect x="52" y="93" width="14" height="14" fill="none" stroke="#000000" stroke-width="1"/>
    </g>
    <g data-mdcr="group" class="mdcr-region">
      <polygon points="123,36 126,20 123,20 120,36 114,21 117,20 123,36 123,36 123,36" fill="#ffff00" stroke="#000000" stroke-width="1" fill-rule="evenodd" data-shape="14"/>
      <polygon points="91,113 106,113 113,80 102,80 91,113 91,113" fill="#800080" stroke="#000000" stroke-width="1" fill-rule="evenodd" data-shape="15"/>
      <polygon points="106,113 113,79 150,113 106,113 106,113" fill="#ff0000" stroke="#000000" stroke-width="1" fill-rule="evenodd" data-shape="16"/>
      <polygon points="150,113 139,80 113,80 150,113 150,113" fill="#800080" stroke="#000000" stroke-width="1" fill-rule="evenodd" data-shape="17"/>
      <polygon points="119,79 135,67 139,79 119,79 119,79" fill="#00ff00" stroke="#000000" stroke-width="1" fill-rule="evenodd" data-shape="18"/>
      <polygon points="102,80 120,80 135,69 120,26 102,80 102,80" fill="#ff0000" stroke="#000000" stroke-width="1" fill-rule="evenodd" data-shape="19"/>
    </g>
    <g data-mdcr="group" class="mdcr-region">
      <polygon points="163,65 187,65 175,41 163,65 163,65" fill="#008000" stroke="#000000" stroke-width="1" fill-rule="evenodd" data-shape="20"/>
      <polygon points="203,65 228,65 215,41 203,65 203,65" fill="#008000" stroke="#000000" stroke-width="1" fill-rule="evenodd" data-shape="21"/>
      <polygon points="168,64 168,110 183,110 183,64 168,64 168,64 168,64" fill="#c0c0c0" stroke="#000000" stroke-width="1" fill-rule="evenodd" data-shape="22"/>
      <polygon points="173,71 173,88 178,88 178,71 173,71 173,71" fill="#808080" stroke="#000000" stroke-width="1" fill-rule="evenodd" data-shape="23"/>
      <polygon points="208,64 208,110 223,110 223,64 208,64 208,64 208,64" fill="#c0c0c0" stroke="#000000" stroke-width="1" fill-rule="evenodd" data-shape="24"/>
      <polygon points="213,71 213,88 218,88 218,71 213,71 213,71" fill="#808080" stroke="#000000" stroke-width="1" fill-rule="evenodd" data-shape="25"/>
      <polygon points="183,112 208,112 208,77 203,77 203,83 198,83 198,77 193,77 193,83 188,83 188,77 183,77 183,112 183,112 183,112" fill="#a0a0a4" stroke="#000000" stroke-width="1" fill-rule="evenodd" data-shape="26"/>
      <polygon points="188,111 188,109 188,108 188,107 188,106 188,105 188,104 189,103 189,101 189,100 189,99 189,98 189,97 190,96 190,96 190,95 190,95 191,94 191,94 191,93 192,92 192,92 192,91 193,91 193,91 193,90 194,90 194,90 195,89 195,89 195,89 196,89 196,89 196,89 196,89 196,89 196,89 197,90 197,90 198,90 198,91 198,91 199,91 199,92 199,92 200,93 200,94 200,94 201,95 201,95 201,96 201,96 202,97 202,98 202,99 202,100 202,101 203,103 203,104 203,105 203,106 203,107 203,108 203,109 203,111 188,111" fill="#808080" stroke="#000000" stroke-width="1" fill-rule="evenodd" data-shape="27"/>
    </g>
    <g data-mdcr="group" class="mdcr-region">
      <polygon points="255,114 304,114 304,106 304,102 304,98 304,94 303,90 303,86 302,82 302,77 302,76 301,74 301,72 300,70 300,67 299,66 298,64 297,62 297,60 296,57 295,56 294,53 293,52 292,50 291,49 290,48 289,47 288,47 287,47 287,46 286,46 286,46 285,45 284,45 283,44 282,44 282,44 281,44 280,44 280,44 279,44 278,44 277,44 277,44 276,44 275,45 274,45 273,46 273,46 272,46 272,47 271,47 270,47 269,48 268,49 267,50 266,52 265,53 264,56 263,57 262,60 262,62 261,64 260,66 260,67 259,70 258,72 258,74 257,76 257,77 257,82 256,86 256,90 255,94 255,98 255,102 255,106 255,114 255,114" fill="#c0c0c0" stroke="#000000" stroke-width="1" fill-rule="evenodd" data-shape="28"/>
      <polygon points="291,102 308,95 287,68 279,71 291,102 291,102" fill="#808000" stroke="#000000" stroke-width="1" fill-rule="evenodd" data-shape="29"/>
      <polygon points="240,75 248,89 279,71 275,64 240,75 240,75" fill="#808000" stroke="#000000" stroke-width="1" fill-rule="evenodd" data-shape="30"/>
      <polygon points="320,56 312,42 281,60 285,68 320,56 320,56" fill="#808000" stroke="#000000" stroke-width="1" fill-rule="evenodd" data-shape="31"/>
      <polygon points="271,29 254,36 275,63 283,60 271,29 271,29" fill="#808000" stroke="#000000" stroke-width="1" fill-rule="evenodd" data-shape="32"/>
      <polygon points="287,68 286,68 286,68 286,68 285,69 285,69 284,70 284,70 284,70 283,71 282,71 282,71 281,71 280,71 280,71 279,71 278,71 277,70 277,70 277,70 277,69 276,69 276,69 275,68 275,68 274,68 274,67 274,67 274,66 274,65 274,65 274,64 274,64 275,63 275,63 275,63 276,62 276,62 277,61 277,61 277,61 278,60 278,60 279,60 280,60 281,60 281,60 282,60 283,60 284,61 284,61 284,61 284,62 285,62 285,62 286,63 286,63 286,63 287,64 287,64 287,65 287,66 287,66 287,67 287,68 287,68" fill="#808080" stroke="#000000" stroke-width="1" fill-rule="evenodd" data-shape="33"/>
      <polygon points="268,114 268,98 268,97 268,96 268,95 269,94 269,94 270,93 270,92 270,92 271,92 272,91 273,91 274,90 275,90 275,90 276,90 277,90 278,90 279,90 279,90 280,90 281,91 282,91 283,92 284,92 284,92 284,93 285,94 285,94 285,95 286,96 286,97 286,98 286,114 268,114 268,114" fill="#ff0000" stroke="#000000" stroke-width="1" fill-rule="evenodd" data-shape="34"/>
    </g>
    <g data-mdcr="group" class="mdcr-region">
      <polygon points="336,81 388,81 388,113 336,113 336,81 336,81" fill="#808000" stroke="#000000" stroke-width="1" fill-rule="evenodd" data-shape="35"/>
      <polygon points="343,90 356,90 356,113 343,113 343,90 343,90" fill="#0000ff" stroke="#000000" stroke-width="1" fill-rule="evenodd" data-shape="36"/>
      <polygon points="362,90 370,90 370,101 362,101 362,90 362,90" fill="#ffff00" stroke="#000000" stroke-width="1" fill-rule="evenodd" data-shape="37"/>
      <polygon points="375,90 383,90 383,101 375,101 375,90 375,90" fill="#ffff00" stroke="#000000" stroke-width="1" fill-rule="evenodd" data-shape="38"/>
      <polygon points="330,81 395,81 363,39 330,81 330,81" fill="#ff0000" stroke="#000000" stroke-width="1" fill-rule="evenodd" data-shape="39"/>
      <polygon points="386,70 386,54 378,54 378,59 386,70 386,70" fill="#808000" stroke="#000000" stroke-width="1" fill-rule="evenodd" data-shape="40"/>
      <polygon points="356,73 369,73 369,62 363,57 356,62 356,73 356,73" fill="#808000" stroke="#000000" stroke-width="1" fill-rule="evenodd" data-shape="41"/>
      <polyline points="354,64 363,57 372,64" fill="none" stroke="#000000" stroke-width="1"/>
      <polygon points="360,64 365,64 365,69 360,69 360,64 360,64" fill="#ffff00" stroke="#000000" stroke-width="1" fill-rule="evenodd" data-shape="42"/>
    </g>
  </g>
</svg>