<svg xmlns="http://www.w3.org/2000/svg" xmlns:mdcr="http://sensory.com/mdcr" viewBox="0 0 401 301" width="401" height="301">
  <metadata>
    <mdcr:info xmlns:mdcr="http://sensory.com/mdcr">
      <mdcr:source format="WMF" generator="wmf2svg.js"/>
      <mdcr:bounds left="0" top="0" right="6015" bottom="4515" inch="1440"/>
      <mdcr:records count="17">
        <mdcr:record tag="MDCR-{"/>
        <mdcr:record tag="MDCR-{"/>
        <mdcr:record tag="MDCR-S"/>
        <mdcr:record tag="MDCR-}"/>
        <mdcr:record tag="MDCR-S"/>
        <mdcr:record tag="MDCR-{"/>
        <mdcr:record tag="MDCR-}:"/>
        <mdcr:record tag="MDCR-{"/>
        <mdcr:record tag="MDCR-}"/>
        <mdcr:record tag="MDCR-{"/>
        <mdcr:record tag="MDCR-{"/>
        <mdcr:record tag="MDCR-}"/>
        <mdcr:record tag="MDCR-}"/>
        <mdcr:record tag="MDCR-{"/>
        <mdcr:record tag="MDCR-S"/>
        <mdcr:record tag="MDCR-}"/>
        <mdcr:record tag="MDCR-}"/>
      </mdcr:records>
    </mdcr:info>
  </metadata>
  <g data-mdcr="group" class="mdcr-region">
    <g data-mdcr="group" class="mdcr-region">
      <polygon points="226,245 227,227 227,226 227,225 227,225 227,225 227,224 226,224 226,224 226,224 226,224 225,224 225,224 225,225 225,225 225,226 225,226 224,227 224,244 226,245" fill="#000000" stroke="#000000" stroke-width="1" fill-rule="evenodd" data-shape="0"/>
      <polygon points="224,243 224,226 224,226 224,225 224,224 224,224 223,224 223,223 223,223 223,223 222,223 222,223 222,223 222,224 222,224 222,225 221,226 221,227 222,244 224,243" fill="#000000" stroke="#000000" stroke-width="1" fill-rule="evenodd" data-shape="1"/>
      <polygon points="226,236 230,228 230,227 230,226 230,225 230,225 230,224 229,224 229,224 229,224 229,224 228,224 228,224 228,225 227,225 227,225 227,226 227,226 226,236" fill="#000000" stroke="#000000" stroke-width="1" fill-rule="evenodd" data-shape="2"/>
      <polygon points="230,275 231,276 231,276 232,277 232,277 233,277 233,278 234,278 234,278 235,278 236,278 237,277 237,277 238,277 238,276 239,276 239,275 240,273 241,271 241,269 241,268 241,265 241,263 240,262 239,260 239,259 238,259 238,258 237,258 237,257 236,257 235,257 234,257 234,257 233,257 233,257 232,258 232,258 231,259 231,259 230,260 229,262 229,263 228,265 228,268 228,269 229,271 229,273 230,275" fill="#000000" stroke="#000000" stroke-width="1" fill-rule="evenodd" data-shape="3"/>
      <polygon points="182,276 182,277 183,277 184,278 184,278 185,278 185,279 186,279 186,279 187,279 188,279 189,278 189,278 190,278 190,277 191,277 191,276 192,274 193,272 193,270 193,268 193,266 193,264 192,263 191,261 191,260 190,260 190,259 189,259 189,258 188,258 187,258 186,258 186,258 185,258 185,258 184,259 184,259 183,260 182,260 182,261 181,263 181,264 180,266 180,268 180,270 181,272 181,274 182,276" fill="#000000" stroke="#000000" stroke-width="1" fill-rule="evenodd" data-shape="4"/>
      <polygon points="248,266 243,267 242,266 241,265 241,264 240,263 240,262 239,262 238,261 238,261 237,260 237,260 236,260 236,259 235,259 235,259 234,259 233,259 233,260 232,260 232,260 231,260 231,261 230,261 230,262 229,262 229,262 228,263 228,263 227,264 227,265 226,266 226,267 225,267 196,267 195,266 194,265 194,264 193,263 192,263 192,262 191,262 190,261 190,261 189,261 188,260 188,260 187,260 186,260 186,260 185,261 185,261 184,261 184,261 183,262 182,262 182,262 181,263 181,263 180,264 180,264 180,265 179,265 179,266 179,267 179,267 178,268 166,267 165,266 165,265 165,264 165,262 165,260 166,259 166,257 167,255 167,253 168,252 169,250 170,249 171,248 172,247 173,246 175,246 191,242 193,236 195,241 226,242 227,233 228,234 229,234 230,235 232,236 233,236 234,237 235,237 236,238 237,238 238,239 239,239 239,240 240,241 241,241 242,242 243,243 244,243 245,244 245,245 246,246 246,247 247,248 247,249 247,251 248,252 248,254 248,256 248,258 248,260 248,262 248,264 248,266" fill="#000000" stroke="#000000" stroke-width="1" fill-rule="evenodd" data-shape="5"/>
      <polygon points="193,236 197,221 198,222 194,241 193,236" fill="#000000" stroke="#000000" stroke-width="1" fill-rule="evenodd" data-shape="6"/>
      <polygon points="166,259 163,259 163,267 166,267 166,259" fill="#000000" stroke="#000000" stroke-width="1" fill-rule="evenodd" data-shape="7"/>
      <polygon points="250,257 246,257 246,266 250,266 250,257" fill="#000000" stroke="none" stroke-width="0" fill-rule="evenodd" data-shape="8"/>
      <polygon points="226,245 227,227 227,226 227,225 227,225 227,225 227,224 226,224 226,224 226,224 226,224 225,224 225,224 225,225 225,225 225,226 225,226 224,227 224,244 226,245" fill="#ffba00" stroke="#000000" stroke-width="1" fill-rule="evenodd" data-shape="9"/>
      <polygon points="224,243 224,226 224,226 224,225 224,224 224,224 223,224 223,223 223,223 223,223 222,223 222,223 222,223 222,224 222,224 222,225 221,226 221,227 222,244 224,243" fill="#ffba00" stroke="#000000" stroke-width="1" fill-rule="evenodd" data-shape="10"/>
      <polygon points="226,236 230,228 230,227 230,226 230,225 230,225 230,224 229,224 229,224 229,224 229,224 228,224 228,224 228,225 227,225 227,225 227,226 227,226 226,236" fill="#ffba00" stroke="#000000" stroke-width="1" fill-rule="evenodd" data-shape="11"/>
      <polygon points="230,275 231,276 231,276 232,277 232,277 233,277 233,278 234,278 234,278 235,278 236,278 237,277 237,277 238,277 238,276 239,276 239,275 240,273 241,271 241,269 241,268 241,265 241,263 240,262 239,260 239,259 238,259 238,258 237,258 237,257 236,257 235,257 234,257 234,257 233,257 233,257 232,258 232,258 231,259 231,259 230,260 229,262 229,263 228,265 228,268 228,269 229,271 229,273 230,275" fill="#333333" stroke="#000000" stroke-width="1" fill-rule="evenodd" data-shape="12"/>
      <polygon points="232,271 232,272 233,272 233,272 233,272 233,273 234,273 234,273 234,273 234,273 235,273 235,273 235,272 236,272 236,272 236,272 236,271 237,270 237,270 237,268 237,267 237,266 237,265 237,264 236,263 236,263 236,263 236,263 235,262 235,262 235,262 234,262 234,262 234,262 234,262 233,262 233,262 233,263 233,263 232,263 232,263 232,264 231,265 231,266 231,267 231,268 231,270 232,270 232,271" fill="#eded00" stroke="#000000" stroke-width="1" fill-rule="evenodd" data-shape="13"/>
      <polygon points="182,276 182,277 183,277 184,278 184,278 185,278 185,279 186,279 186,279 187,279 188,279 189,278 189,278 190,278 190,277 191,277 191,276 192,274 193,272 193,270 193,268 193,266 193,264 192,263 191,261 191,260 190,260 190,259 189,259 189,258 188,258 187,258 186,258 186,258 185,258 185,258 184,259 184,259 183,260 182,260 182,261 181,263 181,264 180,266 180,268 180,270 181,272 181,274 182,276" fill="#333333" stroke="#000000" stroke-width="1" fill-rule="evenodd" data-shape="14"/>
      <polygon points="184,271 184,272 185,272 185,272 185,272 185,273 186,273 186,273 186,273 186,273 187,273 187,273 187,272 188,272 188,272 188,272 188,271 189,271 189,270 189,269 189,268 189,267 189,266 189,265 188,264 188,264 188,264 188,264 187,263 187,263 187,263 186,263 186,263 186,263 186,263 185,263 185,263 185,264 185,264 184,264 184,264 184,265 183,266 183,267 183,268 183,269 183,270 184,271 184,271" fill="#eded00" stroke="#000000" stroke-width="1" fill-rule="evenodd" data-shape="15"/>
      <polygon points="248,266 243,267 242,266 241,265 241,264 240,263 240,262 239,262 238,261 238,261 237,260 237,260 236,260 236,259 235,259 235,259 234,259 233,259 233,260 232,260 232,260 231,260 231,261 230,261 230,262 229,262 229,262 228,263 228,263 227,264 227,265 226,266 226,267 225,267 196,267 195,266 194,265 194,264 193,263 192,263 192,262 191,262 190,261 190,261 189,261 188,260 188,260 187,260 186,260 186,260 185,261 185,261 184,261 184,261 183,262 182,262 182,262 181,263 181,263 180,264 180,264 180,265 179,265 179,266 179,267 179,267 178,268 166,267 165,266 165,265 165,264 165,262 165,260 166,259 166,257 167,255 167,253 168,252 169,250 170,249 171,248 172,247 173,246 175,246 191,242 193,236 195,241 226,242 227,233 228,234 229,234 230,235 232,236 233,236 234,237 235,237 236,238 237,238 238,239 239,239 239,240 240,241 241,241 242,242 243,243 244,243 245,244 245,245 246,246 246,247 247,248 247,249 247,251 248,252 248,254 248,256 248,258 248,260 248,262 248,264 248,266" fill="#dd0000" stroke="#000000" stroke-width="1" fill-rule="evenodd" data-shape="16"/>
      <polygon points="193,236 197,221 198,222 194,241 193,236" fill="#bababa" stroke="#000000" stroke-width="1" fill-rule="evenodd" data-shape="17"/>
      <polygon points="168,257 168,257 168,257 169,258 169,258 169,258 169,258 169,258 169,259 170,259 170,259 170,259 170,259 171,259 171,258 171,258 172,258 172,257 172,257 173,256 173,255 173,254 173,253 173,252 173,251 173,251 173,250 173,250 173,250 172,250 172,249 172,249 172,249 172,249 172,249 171,249 171,249 170,249 170,249 170,249 170,250 169,250 169,251 169,252 168,253 168,254 168,255 168,255 168,257" fill="#bababa" stroke="#000000" stroke-width="1" fill-rule="evenodd" data-shape="18"/>
      <polygon points="197,242 196,267 197,242" fill="#bababa" stroke="#000000" stroke-width="1" fill-rule="evenodd" data-shape="19"/>
      <polygon points="211,242 211,267 211,242" fill="#bababa" stroke="#000000" stroke-width="1" fill-rule="evenodd" data-shape="20"/>
      <polygon points="210,251 207,251 207,253 210,253 210,251" fill="#bababa" stroke="#000000" stroke-width="1" fill-rule="evenodd" data-shape="21"/>
      <polygon points="166,259 163,259 163,267 166,267 166,259" fill="#bababa" stroke="#000000" stroke-width="1" fill-rule="evenodd" data-shape="22"/>
      <polygon points="250,257 246,257 246,266 250,266 250,257" fill="#bababa" stroke="none" stroke-width="0" fill-rule="evenodd" data-shape="23"/>
    </g>
    <g data-mdcr="group" class="mdcr-region">
      <polygon points="274,48 274,48 274,48 274,48 274,48 274,48 274,48 275,48 275,48 275,47 276,47 276,47 277,47 277,47 278,47 279,47 279,47 280,47 281,47 282,47 282,48 283,48 284,48 285,48 286,49 287,49 288,50 289,50 290,51 291,52 292,53 293,54 294,55 294,52 293,51 292,50 291,50 290,49 290,48 289,48 288,48 287,47 286,47 286,46 285,46 284,46 283,46 283,45 282,45 281,45 280,45 280,45 279,45 279,45 278,45 278,45 277,45 276,45 276,45 275,45 275,45 274,45 274,45 273,45 273,46 272,46 274,48" fill="#000000" stroke="#000000" stroke-width="1" fill-rule="evenodd" data-shape="24"/>
      <polygon points="267,79 267,79 268,80 269,80 269,81 270,81 271,82 271,82 272,83 273,83 274,83 274,83 275,83 276,84 277,84 277,84 278,84 279,84 280,84 280,84 281,83 282,83 283,83 283,83 284,83 285,82 286,82 286,81 287,81 288,80 288,80 289,79 289,79 291,77 292,76 292,74 293,72 294,71 294,69 294,67 294,66 294,63 294,62 294,60 293,58 292,57 292,55 291,54 289,52 289,52 288,51 288,50 287,50 286,49 286,49 285,49 284,48 283,48 283,48 282,47 281,47 280,47 280,47 279,47 278,47 277,47 277,47 276,47 275,47 274,47 274,48 273,48 272,48 271,49 271,49 270,49 269,50 269,50 268,51 267,52 267,52 266,54 265,55 264,57 263,58 263,60 262,62 262,63 262,66 262,67 262,69 263,71 263,72 264,74 265,76 266,77 267,79" fill="#000000" stroke="#000000" stroke-width="1" fill-rule="evenodd" data-shape="25"/>
      <polygon points="269,75 269,76 270,77 270,77 271,77 272,78 272,78 273,79 273,79 274,79 274,79 275,79 276,80 276,80 277,80 277,80 278,80 279,80 279,80 280,80 281,80 281,79 282,79 282,79 283,79 284,79 284,78 285,78 285,77 286,77 286,77 287,76 287,75 288,74 289,73 290,72 290,71 291,69 291,68 291,66 291,65 291,63 291,62 291,61 290,59 290,58 289,57 288,55 287,54 287,54 286,53 286,53 285,52 285,52 284,52 284,51 283,51 282,51 282,51 281,50 281,50 280,50 279,50 279,50 278,50 277,50 277,50 276,50 276,50 275,50 274,51 274,51 273,51 273,51 272,52 272,52 271,52 270,53 270,53 269,54 269,54 268,55 267,57 267,58 266,59 266,61 265,62 265,63 265,65 265,66 265,68 266,69 266,71 267,72 267,73 268,74 269,75" fill="#000000" stroke="#000000" stroke-width="1" fill-rule="evenodd" data-shape="26"/>
      <polygon points="281,51 278,80 281,51" fill="#000000" stroke="#000000" stroke-width="1" fill-rule="evenodd" data-shape="27"/>
      <polygon points="292,67 266,62 292,67" fill="#000000" stroke="#000000" stroke-width="1" fill-rule="evenodd" data-shape="28"/>
      <polygon points="272,52 287,76 272,52" fill="#000000" stroke="#000000" stroke-width="1" fill-rule="evenodd" data-shape="29"/>
      <polygon points="289,56 268,74 289,56" fill="#000000" stroke="#000000" stroke-width="1" fill-rule="evenodd" data-shape="30"/>
      <polygon points="277,50 283,79 277,50" fill="#000000" stroke="#000000" stroke-width="1" fill-rule="evenodd" data-shape="31"/>
      <polygon points="291,71 269,56 291,71" fill="#000000" stroke="#000000" stroke-width="1" fill-rule="evenodd" data-shape="32"/>
      <polygon points="291,61 266,68 291,61" fill="#000000" stroke="#000000" stroke-width="1" fill-rule="evenodd" data-shape="33"/>
      <polygon points="285,53 272,78 285,53" fill="#000000" stroke="#000000" stroke-width="1" fill-rule="evenodd" data-shape="34"/>
      <polygon points="278,66 278,66 279,67 279,67 280,67 280,67 281,67 281,66 281,66 282,66 282,65 282,65 282,64 282,63 282,63 282,62 281,62 281,61 281,61 280,61 280,61 279,61 279,61 278,61 278,62 278,62 277,63 277,63 277,64 277,65 277,65 278,66 278,66" fill="#000000" stroke="#000000" stroke-width="1" fill-rule="evenodd" data-shape="35"/>
      <polygon points="278,65 262,31 264,30 280,64 280,64 280,65 280,65 280,66 279,66 279,66 278,65 278,65" fill="#000000" stroke="#000000" stroke-width="1" fill-rule="evenodd" data-shape="36"/>
      <polygon points="219,80 219,80 220,81 221,81 221,82 222,82 223,83 223,83 224,84 225,84 225,84 226,84 227,84 228,85 229,85 229,85 230,85 231,85 232,85 232,85 233,84 234,84 235,84 235,84 236,84 237,83 237,83 238,82 239,82 240,81 240,81 241,80 241,80 243,78 244,77 244,75 245,73 246,72 246,70 246,68 246,66 246,65 246,63 246,61 245,59 244,58 244,56 243,55 241,53 241,53 240,52 240,51 239,51 238,50 237,50 237,50 236,49 235,49 235,49 234,48 233,48 232,48 232,48 231,48 230,48 229,48 229,48 228,48 227,48 226,48 225,49 225,49 224,49 223,50 223,50 222,50 221,51 221,51 220,52 219,53 219,53 218,55 217,56 216,58 215,59 215,61 214,63 214,65 214,66 214,68 214,70 215,72 215,73 216,75 217,77 218,78 219,80" fill="#000000" stroke="#000000" stroke-width="1" fill-rule="evenodd" data-shape="37"/>
      <polygon points="221,76 221,77 222,78 223,78 223,78 223,79 224,79 225,80 225,80 226,80 226,80 227,80 228,81 228,81 229,81 230,81 230,81 231,81 231,81 232,81 233,81 233,80 234,80 234,80 235,80 236,80 236,79 237,79 237,78 238,78 238,78 239,77 239,76 240,75 241,74 242,73 242,72 243,70 243,69 243,67 243,66 243,64 243,63 243,62 242,60 242,59 241,58 240,56 239,55 239,55 238,54 238,54 237,53 237,53 236,53 236,52 235,52 234,52 234,52 233,51 233,51 232,51 231,51 231,51 230,51 230,51 229,51 228,51 228,51 227,51 226,52 226,52 225,52 225,52 224,53 223,53 223,53 223,54 222,54 221,55 221,55 220,56 219,58 219,59 218,60 218,62 217,63 217,64 217,66 217,67 217,69 218,70 218,72 219,73 219,74 220,75 221,76" fill="#000000" stroke="#000000" stroke-width="1" fill-rule="evenodd" data-shape="38"/>
      <polygon points="233,53 230,82 233,53" fill="#000000" stroke="#000000" stroke-width="1" fill-rule="evenodd" data-shape="39"/>
      <polygon points="243,69 217,64 243,69" fill="#000000" stroke="#000000" stroke-width="1" fill-rule="evenodd" data-shape="40"/>
      <polygon points="224,54 239,78 224,54" fill="#000000" stroke="#000000" stroke-width="1" fill-rule="evenodd" data-shape="41"/>
      <polygon points="241,57 220,75 241,57" fill="#000000" stroke="#000000" stroke-width="1" fill-rule="evenodd" data-shape="42"/>
      <polygon points="228,52 234,81 228,52" fill="#000000" stroke="#000000" stroke-width="1" fill-rule="evenodd" data-shape="43"/>
      <polygon points="242,73 220,58 242,73" fill="#000000" stroke="#000000" stroke-width="1" fill-rule="evenodd" data-shape="44"/>
      <polygon points="243,62 218,69 243,62" fill="#000000" stroke="#000000" stroke-width="1" fill-rule="evenodd" data-shape="45"/>
      <polygon points="237,54 224,79 237,54" fill="#000000" stroke="#000000" stroke-width="1" fill-rule="evenodd" data-shape="46"/>
      <polygon points="230,68 230,68 231,69 231,69 232,69 232,69 233,69 233,68 233,68 234,68 234,67 234,67 234,66 234,65 234,65 234,64 233,64 233,63 233,63 232,63 232,63 231,63 231,63 230,63 230,64 230,64 229,65 229,65 229,66 229,67 229,67 230,68 230,68" fill="#000000" stroke="#000000" stroke-width="1" fill-rule="evenodd" data-shape="47"/>
      <polygon points="230,65 240,40 243,41 231,66 230,65" fill="#000000" stroke="#000000" stroke-width="1" fill-rule="evenodd" data-shape="48"/>
      <polygon points="271,48 240,49 241,46 270,46 271,48" fill="#000000" stroke="#000000" stroke-width="1" fill-rule="evenodd" data-shape="49"/>
      <polygon points="269,28 261,33 261,34 260,34 260,35 260,35 260,35 261,36 261,36 261,37 262,37 262,38 263,38 263,39 264,39 264,39 264,40 265,40 262,42 262,41 261,41 261,40 260,39 260,39 260,39 259,38 259,38 258,37 258,37 258,37 257,36 257,35 257,34 257,33 257,32 270,25 271,25 271,26 271,27 271,28 271,29 272,30 272,31 273,32 271,32 271,32 270,32 270,31 270,31 269,31 269,30 269,29 269,28" fill="#000000" stroke="#000000" stroke-width="1" fill-rule="evenodd" data-shape="50"/>
      <polygon points="264,32 263,29 265,28 266,31 264,32" fill="#000000" stroke="#000000" stroke-width="1" fill-rule="evenodd" data-shape="51"/>
      <polygon points="249,43 233,39 234,33 234,33 235,33 235,33 235,33 236,34 236,34 237,34 237,35 238,36 239,36 240,37 241,38 243,38 244,39 246,39 249,40 249,43" fill="#000000" stroke="none" stroke-width="0" fill-rule="evenodd" data-shape="52"/>
      <polygon points="274,48 274,48 274,48 274,48 274,48 274,48 274,48 275,48 275,48 275,47 276,47 276,47 277,47 277,47 278,47 279,47 279,47 280,47 281,47 282,47 282,48 283,48 284,48 285,48 286,49 287,49 288,50 289,50 290,51 291,52 292,53 293,54 294,55 294,52 293,51 292,50 291,50 290,49 290,48 289,48 288,48 287,47 286,47 286,46 285,46 284,46 283,46 283,45 282,45 281,45 280,45 280,45 279,45 279,45 278,45 278,45 277,45 276,45 276,45 275,45 275,45 274,45 274,45 273,45 273,46 272,46 274,48" fill="#eded00" stroke="#000000" stroke-width="1" fill-rule="evenodd" data-shape="53"/>
      <polygon points="267,79 267,79 268,80 269,80 269,81 270,81 271,82 271,82 272,83 273,83 274,83 274,83 275,83 276,84 277,84 277,84 278,84 279,84 280,84 280,84 281,83 282,83 283,83 283,83 284,83 285,82 286,82 286,81 287,81 288,80 288,80 289,79 289,79 291,77 292,76 292,74 293,72 294,71 294,69 294,67 294,66 294,63 294,62 294,60 293,58 292,57 292,55 291,54 289,52 289,52 288,51 288,50 287,50 286,49 286,49 285,49 284,48 283,48 283,48 282,47 281,47 280,47 280,47 279,47 278,47 277,47 277,47 276,47 275,47 274,47 274,48 273,48 272,48 271,49 271,49 270,49 269,50 269,50 268,51 267,52 267,52 266,54 265,55 264,57 263,58 263,60 262,62 262,63 262,66 262,67 262,69 263,71 263,72 264,74 265,76 266,77 267,79" fill="#545454" stroke="#000000" stroke-width="1" fill-rule="evenodd" data-shape="54"/>
      <polygon points="269,75 269,76 270,77 270,77 271,77 272,78 272,78 273,79 273,79 274,79 274,79 275,79 276,80 276,80 277,80 277,80 278,80 279,80 279,80 280,80 281,80 281,79 282,79 282,79 283,79 284,79 284,78 285,78 285,77 286,77 286,77 287,76 287,75 288,74 289,73 290,72 290,71 291,69 291,68 291,66 291,65 291,63 291,62 291,61 290,59 290,58 289,57 288,55 287,54 287,54 286,53 286,53 285,52 285,52 284,52 284,51 283,51 282,51 282,51 281,50 281,50 280,50 279,50 279,50 278,50 277,50 277,50 276,50 276,50 275,50 274,51 274,51 273,51 273,51 272,52 272,52 271,52 270,53 270,53 269,54 269,54 268,55 267,57 267,58 266,59 266,61 265,62 265,63 265,65 265,66 265,68 266,69 266,71 267,72 267,73 268,74 269,75" fill="#ffffff" stroke="#000000" stroke-width="1" fill-rule="evenodd" data-shape="55"/>
      <polygon points="281,51 278,80 281,51" fill="#545454" stroke="#000000" stroke-width="1" fill-rule="evenodd" data-shape="56"/>
      <polygon points="292,67 266,62 292,67" fill="#545454" stroke="#000000" stroke-width="1" fill-rule="evenodd" data-shape="57"/>
      <polygon points="272,52 287,76 272,52" fill="#545454" stroke="#000000" stroke-width="1" fill-rule="evenodd" data-shape="58"/>
      <polygon points="289,56 268,74 289,56" fill="#545454" stroke="#000000" stroke-width="1" fill-rule="evenodd" data-shape="59"/>
      <polygon points="277,50 283,79 277,50" fill="#545454" stroke="#000000" stroke-width="1" fill-rule="evenodd" data-shape="60"/>
      <polygon points="291,71 269,56 291,71" fill="#545454" stroke="#000000" stroke-width="1" fill-rule="evenodd" data-shape="61"/>
      <polygon points="291,61 266,68 291,61" fill="#545454" stroke="#000000" stroke-width="1" fill-rule="evenodd" data-shape="62"/>
      <polygon points="285,53 272,78 285,53" fill="#545454" stroke="#000000" stroke-width="1" fill-rule="evenodd" data-shape="63"/>
      <polygon points="278,66 278,66 279,67 279,67 280,67 280,67 281,67 281,66 281,66 282,66 282,65 282,65 282,64 282,63 282,63 282,62 281,62 281,61 281,61 280,61 280,61 279,61 279,61 278,61 278,62 278,62 277,63 277,63 277,64 277,65 277,65 278,66 278,66" fill="#545454" stroke="#000000" stroke-width="1" fill-rule="evenodd" data-shape="64"/>
      <polygon points="278,65 262,31 264,30 280,64 280,64 280,65 280,65 280,66 279,66 279,66 278,65 278,65" fill="#eded00" stroke="#000000" stroke-width="1" fill-rule="evenodd" data-shape="65"/>
      <polygon points="219,80 219,80 220,81 221,81 221,82 222,82 223,83 223,83 224,84 225,84 225,84 226,84 227,84 228,85 229,85 229,85 230,85 231,85 232,85 232,85 233,84 234,84 235,84 235,84 236,84 237,83 237,83 238,82 239,82 240,81 240,81 241,80 241,80 243,78 244,77 244,75 245,73 246,72 246,70 246,68 246,66 246,65 246,63 246,61 245,59 244,58 244,56 243,55 241,53 241,53 240,52 240,51 239,51 238,50 237,50 237,50 236,49 235,49 235,49 234,48 233,48 232,48 232,48 231,48 230,48 229,48 229,48 228,48 227,48 226,48 225,49 225,49 224,49 223,50 223,50 222,50 221,51 221,51 220,52 219,53 219,53 218,55 217,56 216,58 215,59 215,61 214,63 214,65 214,66 214,68 214,70 215,72 215,73 216,75 217,77 218,78 219,80" fill="#545454" stroke="#000000" stroke-width="1" fill-rule="evenodd" data-shape="66"/>
      <polygon points="221,76 221,77 222,78 223,78 223,78 223,79 224,79 225,80 225,80 226,80 226,80 227,80 228,81 228,81 229,81 230,81 230,81 231,81 231,81 232,81 233,81 233,80 234,80 234,80 235,80 236,80 236,79 237,79 237,78 238,78 238,78 239,77 239,76 240,75 241,74 242,73 242,72 243,70 243,69 243,67 243,66 243,64 243,63 243,62 242,60 242,59 241,58 240,56 239,55 239,55 238,54 238,54 237,53 237,53 236,53 236,52 235,52 234,52 234,52 233,51 233,51 232,51 231,51 231,51 230,51 230,51 229,51 228,51 228,51 227,51 226,52 226,52 225,52 225,52 224,53 223,53 223,53 223,54 222,54 221,55 221,55 220,56 219,58 219,59 218,60 218,62 217,63 217,64 217,66 217,67 217,69 218,70 218,72 219,73 219,74 220,75 221,76" fill="#ffffff" stroke="#000000" stroke-width="1" fill-rule="evenodd" data-shape="67"/>
      <polygon points="233,53 230,82 233,53" fill="#545454" stroke="#000000" stroke-width="1" fill-rule="evenodd" data-shape="68"/>
      <polygon points="243,69 217,64 243,69" fill="#545454" stroke="#000000" stroke-width="1" fill-rule="evenodd" data-shape="69"/>
      <polygon points="224,54 239,78 224,54" fill="#545454" stroke="#000000" stroke-width="1" fill-rule="evenodd" data-shape="70"/>
      <polygon points="241,57 220,75 241,57" fill="#545454" stroke="#000000" stroke-width="1" fill-rule="evenodd" data-shape="71"/>
      <polygon points="228,52 234,81 228,52" fill="#545454" stroke="#000000" stroke-width="1" fill-rule="evenodd" data-shape="72"/>
      <polygon points="242,73 220,58 242,73" fill="#545454" stroke="#000000" stroke-width="1" fill-rule="evenodd" data-shape="73"/>
      <polygon points="243,62 218,69 243,62" fill="#545454" stroke="#000000" stroke-width="1" fill-rule="evenodd" data-shape="74"/>
      <polygon points="237,54 224,79 237,54" fill="#545454" stroke="#000000" stroke-width="1" fill-rule="evenodd" data-shape="75"/>
      <polygon points="230,68 230,68 231,69 231,69 232,69 232,69 233,69 233,68 233,68 234,68 234,67 234,67 234,66 234,65 234,65 234,64 233,64 233,63 233,63 232,63 232,63 231,63 231,63 230,63 230,64 230,64 229,65 229,65 229,66 229,67 229,67 230,68 230,68" fill="#545454" stroke="#000000" stroke-width="1" fill-rule="evenodd" data-shape="76"/>
      <polygon points="230,65 240,40 243,41 231,66 230,65" fill="#eded00" stroke="#000000" stroke-width="1" fill-rule="evenodd" data-shape="77"/>
      <polygon points="271,48 240,49 241,46 270,46 271,48" fill="#eded00" stroke="#000000" stroke-width="1" fill-rule="evenodd" data-shape="78"/>
      <polygon points="269,28 261,33 261,34 260,34 260,35 260,35 260,35 261,36 261,36 261,37 262,37 262,38 263,38 263,39 264,39 264,39 264,40 265,40 262,42 262,41 261,41 261,40 260,39 260,39 260,39 259,38 259,38 258,37 258,37 258,37 257,36 257,35 257,34 257,33 257,32 270,25 271,25 271,26 271,27 271,28 271,29 272,30 272,31 273,32 271,32 271,32 270,32 270,31 270,31 269,31 269,30 269,29 269,28" fill="#dd0000" stroke="#000000" stroke-width="1" fill-rule="evenodd" data-shape="79"/>
      <polygon points="264,32 263,29 265,28 266,31 264,32" fill="#999999" stroke="#000000" stroke-width="1" fill-rule="evenodd" data-shape="80"/>
      <polygon points="249,43 233,39 234,33 234,33 235,33 235,33 235,33 236,34 236,34 237,34 237,35 238,36 239,36 240,37 241,38 243,38 244,39 246,39 249,40 249,43" fill="#ba7c4c" stroke="none" stroke-width="0" fill-rule="evenodd" data-shape="81"/>
      <g data-mdcr="group" class="mdcr-region">
        <polygon points="171,54 172,36 172,35 172,34 172,34 172,34 172,33 171,33 171,33 171,33 171,33 170,33 170,33 170,34 170,34 170,35 170,35 169,36 169,53 171,54" fill="#000000" stroke="#000000" stroke-width="1" fill-rule="evenodd" data-shape="82"/>
        <polygon points="169,52 169,35 169,35 169,34 169,33 169,33 168,33 168,32 168,32 168,32 167,32 167,32 167,32 167,33 167,33 167,34 166,35 166,36 167,53 169,52" fill="#000000" stroke="#000000" stroke-width="1" fill-rule="evenodd" data-shape="83"/>
        <polygon points="171,45 175,37 175,36 175,35 175,34 175,34 175,33 174,33 174,33 174,33 174,33 173,33 173,33 173,34 172,34 172,34 172,35 172,35 171,45" fill="#000000" stroke="#000000" stroke-width="1" fill-rule="evenodd" data-shape="84"/>
        <polygon points="175,84 176,85 176,85 177,86 177,86 178,86 178,87 179,87 179,87 180,87 181,87 182,86 182,86 183,86 183,85 184,85 184,84 185,82 186,80 186,78 186,77 186,74 186,72 185,71 184,69 184,68 183,68 183,67 182,67 182,66 181,66 180,66 179,66 179,66 178,66 178,66 177,67 177,67 176,68 176,68 175,69 174,71 174,72 173,74 173,77 173,78 174,80 174,82 175,84" fill="#000000" stroke="#000000" stroke-width="1" fill-rule="evenodd" data-shape="85"/>
        <polygon points="127,85 127,86 128,86 129,87 129,87 130,87 130,88 131,88 131,88 132,88 133,88 134,87 134,87 135,87 135,86 136,86 136,85 137,83 138,81 138,79 138,77 138,75 138,73 137,72 136,70 136,69 135,69 135,68 134,68 134,67 133,67 132,67 131,67 131,67 130,67 130,67 129,68 129,68 128,69 127,69 127,70 126,72 126,73 125,75 125,77 125,79 126,81 126,83 127,85" fill="#000000" stroke="#000000" stroke-width="1" fill-rule="evenodd" data-shape="86"/>
        <polygon points="193,75 188,76 187,75 186,74 186,73 185,72 185,71 184,71 183,70 183,70 182,69 182,69 181,69 181,68 180,68 180,68 179,68 178,68 178,69 177,69 177,69 176,69 176,70 175,70 175,71 174,71 174,71 173,72 173,72 172,73 172,74 171,75 171,76 170,76 141,76 140,75 139,74 139,73 138,72 137,72 137,71 136,71 135,70 135,70 134,70 133,69 133,69 132,69 131,69 131,69 130,70 130,70 129,70 129,70 128,71 127,71 127,71 126,72 126,72 125,73 125,73 125,74 124,74 124,75 124,76 124,76 123,77 111,76 110,75 110,74 110,73 110,71 110,69 111,68 111,66 112,64 112,62 113,61 114,59 115,58 116,57 117,56 118,55 120,55 136,51 138,45 140,50 171,51 172,42 173,43 174,43 175,44 177,45 178,45 179,46 180,46 181,47 182,47 183,48 184,48 184,49 185,50 186,50 187,51 188,52 189,52 190,53 190,54 191,55 191,56 192,57 192,58 192,60 193,61 193,63 193,65 193,67 193,69 193,71 193,73 193,75" fill="#000000" stroke="#000000" stroke-width="1" fill-rule="evenodd" data-shape="87"/>
        <polygon points="138,45 142,30 143,31 139,50 138,45" fill="#000000" stroke="#000000" stroke-width="1" fill-rule="evenodd" data-shape="88"/>
        <polygon points="111,68 108,68 108,76 111,76 111,68" fill="#000000" stroke="#000000" stroke-width="1" fill-rule="evenodd" data-shape="89"/>
        <polygon points="195,66 191,66 191,75 195,75 195,66" fill="#000000" stroke="none" stroke-width="0" fill-rule="evenodd" data-shape="90"/>
        <polygon points="171,54 172,36 172,35 172,34 172,34 172,34 172,33 171,33 171,33 171,33 171,33 170,33 170,33 170,34 170,34 170,35 170,35 169,36 169,53 171,54" fill="#ffba00" stroke="#000000" stroke-width="1" fill-rule="evenodd" data-shape="91"/>
        <polygon points="169,52 169,35 169,35 169,34 169,33 169,33 168,33 168,32 168,32 168,32 167,32 167,32 167,32 167,33 167,33 167,34 166,35 166,36 167,53 169,52" fill="#ffba00" stroke="#000000" stroke-width="1" fill-rule="evenodd" data-shape="92"/>
        <polygon points="171,45 175,37 175,36 175,35 175,34 175,34 175,33 174,33 174,33 174,33 174,33 173,33 173,33 173,34 172,34 172,34 172,35 172,35 171,45" fill="#ffba00" stroke="#000000" stroke-width="1" fill-rule="evenodd" data-shape="93"/>
        <polygon points="175,84 176,85 176,85 177,86 177,86 178,86 178,87 179,87 179,87 180,87 181,87 182,86 182,86 183,86 183,85 184,85 184,84 185,82 186,80 186,78 186,77 186,74 186,72 185,71 184,69 184,68 183,68 183,67 182,67 182,66 181,66 180,66 179,66 179,66 178,66 178,66 177,67 177,67 176,68 176,68 175,69 174,71 174,72 173,74 173,77 173,78 174,80 174,82 175,84" fill="#333333" stroke="#000000" stroke-width="1" fill-rule="evenodd" data-shape="94"/>
        <polygon points="177,80 177,81 178,81 178,81 178,81 178,82 179,82 179,82 179,82 179,82 180,82 180,82 180,81 181,81 181,81 181,81 181,80 182,79 182,79 182,77 182,76 182,75 182,74 182,73 181,72 181,72 181,72 181,72 180,71 180,71 180,71 179,71 179,71 179,71 179,71 178,71 178,71 178,72 178,72 177,72 177,72 177,73 176,74 176,75 176,76 176,77 176,79 177,79 177,80" fill="#eded00" stroke="#000000" stroke-width="1" fill-rule="evenodd" data-shape="95"/>
        <polygon points="127,85 127,86 128,86 129,87 129,87 130,87 130,88 131,88 131,88 132,88 133,88 134,87 134,87 135,87 135,86 136,86 136,85 137,83 138,81 138,79 138,77 138,75 138,73 137,72 136,70 136,69 135,69 135,68 134,68 134,67 133,67 132,67 131,67 131,67 130,67 130,67 129,68 129,68 128,69 127,69 127,70 126,72 126,73 125,75 125,77 125,79 126,81 126,83 127,85" fill="#333333" stroke="#000000" stroke-width="1" fill-rule="evenodd" data-shape="96"/>
        <polygon points="129,80 129,81 130,81 130,81 130,81 130,82 131,82 131,82 131,82 131,82 132,82 132,82 132,81 133,81 133,81 133,81 133,80 134,80 134,79 134,78 134,77 134,76 134,75 134,74 133,73 133,73 133,73 133,73 132,72 132,72 132,72 131,72 131,72 131,72 131,72 130,72 130,72 130,73 130,73 129,73 129,73 129,74 128,75 128,76 128,77 128,78 128,79 129,80 129,80" fill="#eded00" stroke="#000000" stroke-width="1" fill-rule="evenodd" data-shape="97"/>
        <polygon points="193,75 188,76 187,75 186,74 186,73 185,72 185,71 184,71 183,70 183,70 182,69 182,69 181,69 181,68 180,68 180,68 179,68 178,68 178,69 177,69 177,69 176,69 176,70 175,70 175,71 174,71 174,71 173,72 173,72 172,73 172,74 171,75 171,76 170,76 141,76 140,75 139,74 139,73 138,72 137,72 137,71 136,71 135,70 135,70 134,70 133,69 133,69 132,69 131,69 131,69 130,70 130,70 129,70 129,70 128,71 127,71 127,71 126,72 126,72 125,73 125,73 125,74 124,74 124,75 124,76 124,76 123,77 111,76 110,75 110,74 110,73 110,71 110,69 111,68 111,66 112,64 112,62 113,61 114,59 115,58 116,57 117,56 118,55 120,55 136,51 138,45 140,50 171,51 172,42 173,43 174,43 175,44 177,45 178,45 179,46 180,46 181,47 182,47 183,48 184,48 184,49 185,50 186,50 187,51 188,52 189,52 190,53 190,54 191,55 191,56 192,57 192,58 192,60 193,61 193,63 193,65 193,67 193,69 193,71 193,73 193,75" fill="#dd0000" stroke="#000000" stroke-width="1" fill-rule="evenodd" data-shape="98"/>
        <polygon points="138,45 142,30 143,31 139,50 138,45" fill="#bababa" stroke="#000000" stroke-width="1" fill-rule="evenodd" data-shape="99"/>
        <polygon points="113,66 113,66 113,66 114,67 114,67 114,67 114,67 114,67 114,68 115,68 115,68 115,68 115,68 116,68 116,67 116,67 117,67 117,66 117,66 118,65 118,64 118,63 118,62 118,61 118,60 118,60 118,59 118,59 118,59 117,59 117,58 117,58 117,58 117,58 117,58 116,58 116,58 115,58 115,58 115,58 115,59 114,59 114,60 114,61 113,62 113,63 113,64 113,64 113,66" fill="#bababa" stroke="#000000" stroke-width="1" fill-rule="evenodd" data-shape="100"/>
        <polygon points="142,51 141,76 142,51" fill="#bababa" stroke="#000000" stroke-width="1" fill-rule="evenodd" data-shape="101"/>
        <polygon points="156,51 156,76 156,51" fill="#bababa" stroke="#000000" stroke-width="1" fill-rule="evenodd" data-shape="102"/>
        <polygon points="155,60 152,60 152,62 155,62 155,60" fill="#bababa" stroke="#000000" stroke-width="1" fill-rule="evenodd" data-shape="103"/>
        <polygon points="111,68 108,68 108,76 111,76 111,68" fill="#bababa" stroke="#000000" stroke-width="1" fill-rule="evenodd" data-shape="104"/>
        <polygon points="195,66 191,66 191,75 195,75 195,66" fill="#bababa" stroke="none" stroke-width="0" fill-rule="evenodd" data-shape="105"/>
      </g>
      <g data-mdcr="group" class="mdcr-region">
        <polygon points="29,85 29,86 30,86 30,86 30,87 30,87 31,87 31,87 31,87 31,87 31,87 31,87 32,87 32,86 32,86 33,86 33,85 33,84 34,84 34,83 34,81 34,80 34,79 33,79 33,78 33,77 32,77 32,77 32,76 31,76 31,76 31,76 31,76 31,76 31,76 30,76 30,76 30,77 30,77 29,77 29,78 29,79 28,79 28,80 28,81 28,83 28,84 29,84 29,85 29,85 29,85" fill="#ffffff" stroke="none" stroke-width="0" fill-rule="evenodd" data-shape="106"/>
        <polyline points="29,85 29,86 30,86 30,86 30,87 30,87 31,87 31,87 31,87 31,87 31,87 31,87 32,87 32,86 32,86 33,86 33,85 33,84 34,84 34,83 34,81 34,80 34,79 33,79 33,78 33,77 32,77 32,77 32,76 31,76 31,76 31,76 31,76 31,76 31,76 30,76 30,76 30,77 30,77 29,77 29,78 29,79 28,79 28,80 28,81 28,83 28,84 29,84 29,85 29,85" fill="none" stroke="#ffffff" stroke-width="1"/>
        <g data-mdcr="group" class="mdcr-region">
          <polygon points="84,78 84,53 77,46 76,11 76,11 75,10 74,10 74,10 72,10 70,10 69,9 67,9 65,9 62,9 61,9 58,9 56,9 54,9 51,9 49,9 46,9 43,9 41,9 39,9 36,9 35,10 32,10 30,10 28,10 27,11 25,11 24,11 23,11 22,11 21,11 21,12 22,51 22,51 22,52 23,53 23,53 23,53 23,53 23,54 24,54 24,55 25,56 25,58 25,61 25,63 25,67 25,72 25,78 25,77 26,76 26,76 27,76 27,75 27,74 27,74 27,73 28,73 28,72 28,72 29,71 29,71 30,71 30,71 31,71 31,71 31,71 31,71 32,71 32,71 33,71 33,71 34,72 34,72 35,73 35,74 35,75 36,76 36,76 37,77 38,78 66,78 66,77 66,77 66,76 66,76 67,75 67,75 67,74 68,74 68,73 68,72 69,72 69,72 70,71 70,71 70,71 70,71 71,71 71,71 72,71 72,71 73,71 73,71 74,71 74,71 74,72 74,73 75,73 75,74 76,75 77,76 77,77 78,78 84,78 84,78 84,78" fill="#dd0000" stroke="none" stroke-width="0" fill-rule="evenodd" data-shape="107"/>
          <polygon points="76,35 69,34 69,47 76,47 76,35 76,35 76,35" fill="#dd0000" stroke="none" stroke-width="0" fill-rule="evenodd" data-shape="108"/>
          <polygon points="37,46 37,34 27,34 27,46 37,46 37,46 37,46" fill="#dd0000" stroke="none" stroke-width="0" fill-rule="evenodd" data-shape="109"/>
          <polygon points="53,34 42,34 42,46 53,46 53,34 53,34 53,34" fill="#dd0000" stroke="none" stroke-width="0" fill-rule="evenodd" data-shape="110"/>
          <polygon points="67,46 56,46 56,34 67,34 67,46 67,46 67,46" fill="#dd0000" stroke="none" stroke-width="0" fill-rule="evenodd" data-shape="111"/>
          <polygon points="75,17 75,29 66,29 66,17 75,17 75,17 75,17" fill="#dd0000" stroke="none" stroke-width="0" fill-rule="evenodd" data-shape="112"/>
          <polygon points="64,17 55,17 55,29 64,29 64,17 64,17 64,17" fill="#dd0000" stroke="none" stroke-width="0" fill-rule="evenodd" data-shape="113"/>
          <polygon points="52,17 52,29 43,29 43,17 52,17 52,17 52,17" fill="#dd0000" stroke="none" stroke-width="0" fill-rule="evenodd" data-shape="114"/>
          <polygon points="29,17 23,17 23,29 29,29 29,17 29,17 29,17" fill="#dd0000" stroke="none" stroke-width="0" fill-rule="evenodd" data-shape="115"/>
          <polygon points="41,17 41,29 32,29 32,17 41,17 41,17 41,17" fill="#dd0000" stroke="none" stroke-width="0" fill-rule="evenodd" data-shape="116"/>
        </g>
        <polygon points="37,46 37,34 27,34 27,46 37,46 37,46 37,46" fill="#000000" stroke="none" stroke-width="0" fill-rule="evenodd" data-shape="117"/>
        <polygon points="53,34 42,34 42,46 53,46 53,34 53,34 53,34" fill="#000000" stroke="none" stroke-width="0" fill-rule="evenodd" data-shape="118"/>
        <polygon points="66,46 55,46 55,34 66,34 66,46 66,46 66,46" fill="#000000" stroke="none" stroke-width="0" fill-rule="evenodd" data-shape="119"/>
        <polygon points="74,17 74,29 65,29 65,17 74,17 74,17 74,17" fill="#000000" stroke="none" stroke-width="0" fill-rule="evenodd" data-shape="120"/>
        <polygon points="64,17 55,17 55,29 64,29 64,17 64,17 64,17" fill="#000000" stroke="none" stroke-width="0" fill-rule="evenodd" data-shape="121"/>
        <polygon points="53,17 53,29 44,29 44,17 53,17 53,17 53,17" fill="#000000" stroke="none" stroke-width="0" fill-rule="evenodd" data-shape="122"/>
        <polygon points="30,17 24,17 24,29 30,29 30,17 30,17 30,17" fill="#000000" stroke="none" stroke-width="0" fill-rule="evenodd" data-shape="123"/>
        <polygon points="85,57 83,57 83,63 85,63 85,57 85,57 85,57" fill="#545454" stroke="none" stroke-width="0" fill-rule="evenodd" data-shape="124"/>
        <polyline points="85,57 83,57 83,63 85,63 85,57 85,57" fill="none" stroke="#ffffff" stroke-width="1"/>
        <polygon points="85,57 83,57 83,63 85,63 85,57 85,57 85,57" fill="#000000" stroke="none" stroke-width="0" fill-rule="evenodd" data-shape="125"/>
        <polyline points="85,57 83,57 83,63 85,63 85,57" fill="none" stroke="#ffffff" stroke-width="1"/>
        <polyline points="69,73 69,35 76,35 76,75" fill="none" stroke="#ffffff" stroke-width="1"/>
        <polygon points="68,57 26,57 26,63 68,63 68,57 68,57 68,57" fill="#bababa" stroke="#ffffff" stroke-width="1" fill-rule="evenodd" data-shape="126"/>
        <polygon points="76,36 76,47 71,47 71,36 76,36 76,36" fill="#000000" stroke="none" stroke-width="0" fill-rule="evenodd" data-shape="127"/>
        <polygon points="42,29 42,17 32,17 32,29 42,29 42,29 42,29" fill="#000000" stroke="none" stroke-width="0" fill-rule="evenodd" data-shape="128"/>
        <ellipse cx="32" cy="82" rx="5" ry="9" fill="#000000" stroke="#000000" stroke-width="1" data-shape="129"/>
        <ellipse cx="72" cy="82" rx="5" ry="9" fill="#000000" stroke="#000000" stroke-width="1" data-shape="130"/>
      </g>
      <g data-mdcr="group" class="mdcr-region">
        <polygon points="333,56 332,38 332,37 332,36 332,36 332,36 332,35 333,35 333,35 333,35 333,35 334,35 334,35 334,36 334,36 334,37 334,37 335,38 335,55 333,56" fill="#000000" stroke="#000000" stroke-width="1" fill-rule="evenodd" data-shape="131"/>
        <polygon points="335,54 335,37 335,37 335,36 335,35 335,35 336,35 336,34 336,34 336,34 337,34 337,34 337,34 337,35 337,35 337,36 338,37 338,38 337,55 335,54" fill="#000000" stroke="#000000" stroke-width="1" fill-rule="evenodd" data-shape="132"/>
        <polygon points="333,47 329,39 329,38 329,37 329,36 329,36 329,35 330,35 330,35 330,35 330,35 331,35 331,35 331,36 332,36 332,36 332,37 332,37 333,47" fill="#000000" stroke="#000000" stroke-width="1" fill-rule="evenodd" data-shape="133"/>
        <polygon points="329,86 328,87 328,87 327,88 327,88 326,88 326,89 325,89 325,89 324,89 323,89 322,88 322,88 321,88 321,87 320,87 320,86 319,84 318,82 318,80 318,79 318,76 318,74 319,73 320,71 320,70 321,70 321,69 322,69 322,68 323,68 324,68 325,68 325,68 326,68 326,68 327,69 327,69 328,70 328,70 329,71 330,73 330,74 331,76 331,79 331,80 330,82 330,84 329,86" fill="#000000" stroke="#000000" stroke-width="1" fill-rule="evenodd" data-shape="134"/>
        <polygon points="377,87 377,88 376,88 375,89 375,89 374,89 374,90 373,90 373,90 372,90 371,90 370,89 370,89 369,89 369,88 368,88 368,87 367,85 366,83 366,81 366,79 366,77 366,75 367,74 368,72 368,71 369,71 369,70 370,70 370,69 371,69 372,69 373,69 373,69 374,69 374,69 375,70 375,70 376,71 377,71 377,72 378,74 378,75 379,77 379,79 379,81 378,83 378,85 377,87" fill="#000000" stroke="#000000" stroke-width="1" fill-rule="evenodd" data-shape="135"/>
        <polygon points="311,77 316,78 317,77 318,76 318,75 319,74 319,73 320,73 321,72 321,72 322,71 322,71 323,71 323,70 324,70 324,70 325,70 326,70 326,71 327,71 327,71 328,71 328,72 329,72 329,73 330,73 330,73 331,74 331,74 332,75 332,76 333,77 333,78 334,78 363,78 364,77 365,76 365,75 366,74 367,74 367,73 368,73 369,72 369,72 370,72 371,71 371,71 372,71 373,71 373,71 374,72 374,72 375,72 375,72 376,73 377,73 377,73 378,74 378,74 379,75 379,75 379,76 380,76 380,77 380,78 380,78 381,79 393,78 394,77 394,76 394,75 394,73 394,71 393,70 393,68 392,66 392,64 391,63 390,61 389,60 388,59 387,58 386,57 384,57 368,53 366,47 364,52 333,53 332,44 331,45 330,45 329,46 327,47 326,47 325,48 324,48 323,49 322,49 321,50 320,50 320,51 319,52 318,52 317,53 316,54 315,54 314,55 314,56 313,57 313,58 312,59 312,60 312,62 311,63 311,65 311,67 311,69 311,71 311,73 311,75 311,77" fill="#000000" stroke="#000000" stroke-width="1" fill-rule="evenodd" data-shape="136"/>
        <polygon points="366,47 362,32 361,33 365,52 366,47" fill="#000000" stroke="#000000" stroke-width="1" fill-rule="evenodd" data-shape="137"/>
        <polygon points="393,70 396,70 396,78 393,78 393,70" fill="#000000" stroke="#000000" stroke-width="1" fill-rule="evenodd" data-shape="138"/>
        <polygon points="309,68 313,68 313,77 309,77 309,68" fill="#000000" stroke="none" stroke-width="0" fill-rule="evenodd" data-shape="139"/>
        <polygon points="333,56 332,38 332,37 332,36 332,36 332,36 332,35 333,35 333,35 333,35 333,35 334,35 334,35 334,36 334,36 334,37 334,37 335,38 335,55 333,56" fill="#ffba00" stroke="#000000" stroke-width="1" fill-rule="evenodd" data-shape="140"/>
        <polygon points="335,54 335,37 335,37 335,36 335,35 335,35 336,35 336,34 336,34 336,34 337,34 337,34 337,34 337,35 337,35 337,36 338,37 338,38 337,55 335,54" fill="#ffba00" stroke="#000000" stroke-width="1" fill-rule="evenodd" data-shape="141"/>
        <polygon points="333,47 329,39 329,38 329,37 329,36 329,36 329,35 330,35 330,35 330,35 330,35 331,35 331,35 331,36 332,36 332,36 332,37 332,37 333,47" fill="#ffba00" stroke="#000000" stroke-width="1" fill-rule="evenodd" data-shape="142"/>
        <polygon points="329,86 328,87 328,87 327,88 327,88 326,88 326,89 325,89 325,89 324,89 323,89 322,88 322,88 321,88 321,87 320,87 320,86 319,84 318,82 318,80 318,79 318,76 318,74 319,73 320,71 320,70 321,70 321,69 322,69 322,68 323,68 324,68 325,68 325,68 326,68 326,68 327,69 327,69 328,70 328,70 329,71 330,73 330,74 331,76 331,79 331,80 330,82 330,84 329,86" fill="#333333" stroke="#000000" stroke-width="1" fill-rule="evenodd" data-shape="143"/>
        <polygon points="327,82 327,83 326,83 326,83 326,83 326,84 325,84 325,84 325,84 325,84 324,84 324,84 324,83 323,83 323,83 323,83 323,82 322,81 322,81 322,79 322,78 322,77 322,76 322,75 323,74 323,74 323,74 323,74 324,73 324,73 324,73 325,73 325,73 325,73 325,73 326,73 326,73 326,74 326,74 327,74 327,74 327,75 328,76 328,77 328,78 328,79 328,81 327,81 327,82" fill="#eded00" stroke="#000000" stroke-width="1" fill-rule="evenodd" data-shape="144"/>
        <polygon points="377,87 377,88 376,88 375,89 375,89 374,89 374,90 373,90 373,90 372,90 371,90 370,89 370,89 369,89 369,88 368,88 368,87 367,85 366,83 366,81 366,79 366,77 366,75 367,74 368,72 368,71 369,71 369,70 370,70 370,69 371,69 372,69 373,69 373,69 374,69 374,69 375,70 375,70 376,71 377,71 377,72 378,74 378,75 379,77 379,79 379,81 378,83 378,85 377,87" fill="#333333" stroke="#000000" stroke-width="1" fill-rule="evenodd" data-shape="145"/>
        <polygon points="375,82 375,83 374,83 374,83 374,83 374,84 373,84 373,84 373,84 373,84 372,84 372,84 372,83 371,83 371,83 371,83 371,82 370,82 370,81 370,80 370,79 370,78 370,77 370,76 371,75 371,75 371,75 371,75 372,74 372,74 372,74 373,74 373,74 373,74 373,74 374,74 374,74 374,75 374,75 375,75 375,75 375,76 376,77 376,78 376,79 376,80 376,81 375,82 375,82" fill="#eded00" stroke="#000000" stroke-width="1" fill-rule="evenodd" data-shape="146"/>
        <polygon points="311,77 316,78 317,77 318,76 318,75 319,74 319,73 320,73 321,72 321,72 322,71 322,71 323,71 323,70 324,70 324,70 325,70 326,70 326,71 327,71 327,71 328,71 328,72 329,72 329,73 330,73 330,73 331,74 331,74 332,75 332,76 333,77 333,78 334,78 363,78 364,77 365,76 365,75 366,74 367,74 367,73 368,73 369,72 369,72 370,72 371,71 371,71 372,71 373,71 373,71 374,72 374,72 375,72 375,72 376,73 377,73 377,73 378,74 378,74 379,75 379,75 379,76 380,76 380,77 380,78 380,78 381,79 393,78 394,77 394,76 394,75 394,73 394,71 393,70 393,68 392,66 392,64 391,63 390,61 389,60 388,59 387,58 386,57 384,57 368,53 366,47 364,52 333,53 332,44 331,45 330,45 329,46 327,47 326,47 325,48 324,48 323,49 322,49 321,50 320,50 320,51 319,52 318,52 317,53 316,54 315,54 314,55 314,56 313,57 313,58 312,59 312,60 312,62 311,63 311,65 311,67 311,69 311,71 311,73 311,75 311,77" fill="#dd0000" stroke="#000000" stroke-width="1" fill-rule="evenodd" data-shape="147"/>
        <polygon points="366,47 362,32 361,33 365,52 366,47" fill="#bababa" stroke="#000000" stroke-width="1" fill-rule="evenodd" data-shape="148"/>
        <polygon points="391,68 391,68 391,68 390,69 390,69 390,69 390,69 390,69 390,70 389,70 389,70 389,70 389,70 388,70 388,69 388,69 387,69 387,68 387,68 386,67 386,66 386,65 386,64 386,63 386,62 386,62 386,61 386,61 386,61 387,61 387,60 387,60 387,60 387,60 387,60 388,60 388,60 389,60 389,60 389,60 389,61 390,61 390,62 390,63 391,64 391,65 391,66 391,66 391,68" fill="#bababa" stroke="#000000" stroke-width="1" fill-rule="evenodd" data-shape="149"/>
        <polygon points="362,53 363,78 362,53" fill="#bababa" stroke="#000000" stroke-width="1" fill-rule="evenodd" data-shape="150"/>
        <polygon points="348,53 348,78 348,53" fill="#bababa" stroke="#000000" stroke-width="1" fill-rule="evenodd" data-shape="151"/>
        <polygon points="349,62 352,62 352,64 349,64 349,62" fill="#bababa" stroke="#000000" stroke-width="1" fill-rule="evenodd" data-shape="152"/>
        <polygon points="393,70 396,70 396,78 393,78 393,70" fill="#bababa" stroke="#000000" stroke-width="1" fill-rule="evenodd" data-shape="153"/>
        <polygon points="309,68 313,68 313,77 309,77 309,68" fill="#bababa" stroke="none" stroke-width="0" fill-rule="evenodd" data-shape="154"/>
      </g>
    </g>
  </g>
</svg>