<svg xmlns="http://www.w3.org/2000/svg" xmlns:mdcr="http://sensory.com/mdcr" viewBox="0 0 401 301" width="401" height="301">
  <metadata>
    <mdcr:info xmlns:mdcr="http://sensory.com/mdcr">
      <mdcr:source format="WMF" generator="wmf2svg.js"/>
      <mdcr:bounds left="0" top="0" right="6015" bottom="4515" inch="1440"/>
      <mdcr:records count="18">
        <mdcr:record tag="MDCR-{"/>
        <mdcr:record tag="MDCR-{"/>
        <mdcr:record tag="MDCR-S"/>
        <mdcr:record tag="MDCR-}"/>
        <mdcr:record tag="MDCR-S"/>
        <mdcr:record tag="MDCR-{"/>
        <mdcr:record tag="MDCR-}:"/>
        <mdcr:record tag="MDCR-{"/>
        <mdcr:record tag="MDCR-}"/>
        <mdcr:record tag="MDCR-{"/>
        <mdcr:record tag="MDCR-{"/>
        <mdcr:record tag="MDCR-}"/>
        <mdcr:record tag="MDCR-}"/>
        <mdcr:record tag="MDCR-{"/>
        <mdcr:record tag="MDCR-S"/>
        <mdcr:record tag="MDCR-}"/>
        <mdcr:record tag="MDCR-}"/>
        <mdcr:record tag="MDCR-S"/>
      </mdcr:records>
    </mdcr:info>
  </metadata>
  <g data-mdcr="group" class="mdcr-region">
    <g data-mdcr="group" class="mdcr-region">
      <polygon points="189,248 188,230 188,229 188,228 188,228 188,228 188,227 189,227 189,227 189,227 189,227 190,227 190,227 190,228 190,228 190,229 190,229 191,230 191,247 189,248" fill="#000000" stroke="#000000" stroke-width="1" fill-rule="evenodd" data-shape="0"/>
      <polygon points="191,246 191,229 191,229 191,228 191,227 191,227 192,227 192,226 192,226 192,226 193,226 193,226 193,226 193,227 193,227 193,228 194,229 194,230 193,247 191,246" fill="#000000" stroke="#000000" stroke-width="1" fill-rule="evenodd" data-shape="1"/>
      <polygon points="189,239 185,231 185,230 185,229 185,228 185,228 185,227 186,227 186,227 186,227 186,227 187,227 187,227 187,228 188,228 188,228 188,229 188,229 189,239" fill="#000000" stroke="#000000" stroke-width="1" fill-rule="evenodd" data-shape="2"/>
      <polygon points="185,278 184,279 184,279 183,280 183,280 182,280 182,281 181,281 181,281 180,281 179,281 178,280 178,280 177,280 177,279 176,279 176,278 175,276 174,274 174,272 174,271 174,268 174,266 175,265 176,263 176,262 177,262 177,261 178,261 178,260 179,260 180,260 181,260 181,260 182,260 182,260 183,261 183,261 184,262 184,262 185,263 186,265 186,266 187,268 187,271 187,272 186,274 186,276 185,278" fill="#000000" stroke="#000000" stroke-width="1" fill-rule="evenodd" data-shape="3"/>
      <polygon points="233,279 233,280 232,280 231,281 231,281 230,281 230,282 229,282 229,282 228,282 227,282 226,281 226,281 225,281 225,280 224,280 224,279 223,277 222,275 222,273 222,271 222,269 222,267 223,266 224,264 224,263 225,263 225,262 226,262 226,261 227,261 228,261 229,261 229,261 230,261 230,261 231,262 231,262 232,263 233,263 233,264 234,266 234,267 235,269 235,271 235,273 234,275 234,277 233,279" fill="#000000" stroke="#000000" stroke-width="1" fill-rule="evenodd" data-shape="4"/>
      <polygon points="167,269 172,270 173,269 174,268 174,267 175,266 175,265 176,265 177,264 177,264 178,263 178,263 179,263 179,262 180,262 180,262 181,262 182,262 182,263 183,263 183,263 184,263 184,264 185,264 185,265 186,265 186,265 187,266 187,266 188,267 188,268 189,269 189,270 190,270 219,270 220,269 221,268 221,267 222,266 223,266 223,265 224,265 225,264 225,264 226,264 227,263 227,263 228,263 229,263 229,263 230,264 230,264 231,264 231,264 232,265 233,265 233,265 234,266 234,266 235,267 235,267 235,268 236,268 236,269 236,270 236,270 237,271 249,270 250,269 250,268 250,267 250,265 250,263 249,262 249,260 248,258 248,256 247,255 246,253 245,252 244,251 243,250 242,249 240,249 224,245 222,239 220,244 189,245 188,236 187,237 186,237 185,238 183,239 182,239 181,240 180,240 179,241 178,241 177,242 176,242 176,243 175,244 174,244 173,245 172,246 171,246 170,247 170,248 169,249 169,250 168,251 168,252 168,254 167,255 167,257 167,259 167,261 167,263 167,265 167,267 167,269" fill="#000000" stroke="#000000" stroke-width="1" fill-rule="evenodd" data-shape="5"/>
      <polygon points="222,239 218,224 217,225 221,244 222,239" fill="#000000" stroke="#000000" stroke-width="1" fill-rule="evenodd" data-shape="6"/>
      <polygon points="249,262 252,262 252,270 249,270 249,262" fill="#000000" stroke="#000000" stroke-width="1" fill-rule="evenodd" data-shape="7"/>
      <polygon points="165,260 169,260 169,269 165,269 165,260" fill="#000000" stroke="none" stroke-width="0" fill-rule="evenodd" data-shape="8"/>
      <polygon points="189,248 188,230 188,229 188,228 188,228 188,228 188,227 189,227 189,227 189,227 189,227 190,227 190,227 190,228 190,228 190,229 190,229 191,230 191,247 189,248" fill="#ffba00" stroke="#000000" stroke-width="1" fill-rule="evenodd" data-shape="9"/>
      <polygon points="191,246 191,229 191,229 191,228 191,227 191,227 192,227 192,226 192,226 192,226 193,226 193,226 193,226 193,227 193,227 193,228 194,229 194,230 193,247 191,246" fill="#ffba00" stroke="#000000" stroke-width="1" fill-rule="evenodd" data-shape="10"/>
      <polygon points="189,239 185,231 185,230 185,229 185,228 185,228 185,227 186,227 186,227 186,227 186,227 187,227 187,227 187,228 188,228 188,228 188,229 188,229 189,239" fill="#ffba00" stroke="#000000" stroke-width="1" fill-rule="evenodd" data-shape="11"/>
      <polygon points="185,278 184,279 184,279 183,280 183,280 182,280 182,281 181,281 181,281 180,281 179,281 178,280 178,280 177,280 177,279 176,279 176,278 175,276 174,274 174,272 174,271 174,268 174,266 175,265 176,263 176,262 177,262 177,261 178,261 178,260 179,260 180,260 181,260 181,260 182,260 182,260 183,261 183,261 184,262 184,262 185,263 186,265 186,266 187,268 187,271 187,272 186,274 186,276 185,278" fill="#333333" stroke="#000000" stroke-width="1" fill-rule="evenodd" data-shape="12"/>
      <polygon points="183,274 183,275 182,275 182,275 182,275 182,276 181,276 181,276 181,276 181,276 180,276 180,276 180,275 179,275 179,275 179,275 179,274 178,273 178,273 178,271 178,270 178,269 178,268 178,267 179,266 179,266 179,266 179,266 180,265 180,265 180,265 181,265 181,265 181,265 181,265 182,265 182,265 182,266 182,266 183,266 183,266 183,267 184,268 184,269 184,270 184,271 184,273 183,273 183,274" fill="#eded00" stroke="#000000" stroke-width="1" fill-rule="evenodd" data-shape="13"/>
      <polygon points="233,279 233,280 232,280 231,281 231,281 230,281 230,282 229,282 229,282 228,282 227,282 226,281 226,281 225,281 225,280 224,280 224,279 223,277 222,275 222,273 222,271 222,269 222,267 223,266 224,264 224,263 225,263 225,262 226,262 226,261 227,261 228,261 229,261 229,261 230,261 230,261 231,262 231,262 232,263 233,263 233,264 234,266 234,267 235,269 235,271 235,273 234,275 234,277 233,279" fill="#333333" stroke="#000000" stroke-width="1" fill-rule="evenodd" data-shape="14"/>
      <polygon points="231,274 231,275 230,275 230,275 230,275 230,276 229,276 229,276 229,276 229,276 228,276 228,276 228,275 227,275 227,275 227,275 227,274 226,274 226,273 226,272 226,271 226,270 226,269 226,268 227,267 227,267 227,267 227,267 228,266 228,266 228,266 229,266 229,266 229,266 229,266 230,266 230,266 230,267 230,267 231,267 231,267 231,268 232,269 232,270 232,271 232,272 232,273 231,274 231,274" fill="#eded00" stroke="#000000" stroke-width="1" fill-rule="evenodd" data-shape="15"/>
      <polygon points="167,269 172,270 173,269 174,268 174,267 175,266 175,265 176,265 177,264 177,264 178,263 178,263 179,263 179,262 180,262 180,262 181,262 182,262 182,263 183,263 183,263 184,263 184,264 185,264 185,265 186,265 186,265 187,266 187,266 188,267 188,268 189,269 189,270 190,270 219,270 220,269 221,268 221,267 222,266 223,266 223,265 224,265 225,264 225,264 226,264 227,263 227,263 228,263 229,263 229,263 230,264 230,264 231,264 231,264 232,265 233,265 233,265 234,266 234,266 235,267 235,267 235,268 236,268 236,269 236,270 236,270 237,271 249,270 250,269 250,268 250,267 250,265 250,263 249,262 249,260 248,258 248,256 247,255 246,253 245,252 244,251 243,250 242,249 240,249 224,245 222,239 220,244 189,245 188,236 187,237 186,237 185,238 183,239 182,239 181,240 180,240 179,241 178,241 177,242 176,242 176,243 175,244 174,244 173,245 172,246 171,246 170,247 170,248 169,249 169,250 168,251 168,252 168,254 167,255 167,257 167,259 167,261 167,263 167,265 167,267 167,269" fill="#dd0000" stroke="#000000" stroke-width="1" fill-rule="evenodd" data-shape="16"/>
      <polygon points="222,239 218,224 217,225 221,244 222,239" fill="#bababa" stroke="#000000" stroke-width="1" fill-rule="evenodd" data-shape="17"/>
      <polygon points="247,260 247,260 247,260 246,261 246,261 246,261 246,261 246,261 246,262 245,262 245,262 245,262 245,262 244,262 244,261 244,261 243,261 243,260 243,260 242,259 242,258 242,257 242,256 242,255 242,254 242,254 242,253 242,253 242,253 243,253 243,252 243,252 243,252 243,252 243,252 244,252 244,252 245,252 245,252 245,252 245,253 246,253 246,254 246,255 247,256 247,257 247,258 247,258 247,260" fill="#bababa" stroke="#000000" stroke-width="1" fill-rule="evenodd" data-shape="18"/>
      <polygon points="218,245 219,270 218,245" fill="#bababa" stroke="#000000" stroke-width="1" fill-rule="evenodd" data-shape="19"/>
      <polygon points="204,245 204,270 204,245" fill="#bababa" stroke="#000000" stroke-width="1" fill-rule="evenodd" data-shape="20"/>
      <polygon points="205,254 208,254 208,256 205,256 205,254" fill="#bababa" stroke="#000000" stroke-width="1" fill-rule="evenodd" data-shape="21"/>
      <polygon points="249,262 252,262 252,270 249,270 249,262" fill="#bababa" stroke="#000000" stroke-width="1" fill-rule="evenodd" data-shape="22"/>
      <polygon points="165,260 169,260 169,269 165,269 165,260" fill="#bababa" stroke="none" stroke-width="0" fill-rule="evenodd" data-shape="23"/>
    </g>
    <g data-mdcr="group" class="mdcr-region">
      <polygon points="274,48 274,48 274,48 274,48 274,48 274,48 274,48 275,48 275,48 275,47 276,47 276,47 277,47 277,47 278,47 279,47 279,47 280,47 281,47 282,47 282,48 283,48 284,48 285,48 286,49 287,49 288,50 289,50 290,51 291,52 292,53 293,54 294,55 294,52 293,51 292,50 291,50 290,49 290,48 289,48 288,48 287,47 286,47 286,46 285,46 284,46 283,46 283,45 282,45 281,45 280,45 280,45 279,45 279,45 278,45 278,45 277,45 276,45 276,45 275,45 275,45 274,45 274,45 273,45 273,46 272,46 274,48" fill="#000000" stroke="#000000" stroke-width="1" fill-rule="evenodd" data-shape="24"/>
      <polygon points="267,79 267,79 268,80 269,80 269,81 270,81 271,82 271,82 272,83 273,83 274,83 274,83 275,83 276,84 277,84 277,84 278,84 279,84 280,84 280,84 281,83 282,83 283,83 283,83 284,83 285,82 286,82 286,81 287,81 288,80 288,80 289,79 289,79 291,77 292,76 292,74 293,72 294,71 294,69 294,67 294,66 294,63 294,62 294,60 293,58 292,57 292,55 291,54 289,52 289,52 288,51 288,50 287,50 286,49 286,49 285,49 284,48 283,48 283,48 282,47 281,47 280,47 280,47 279,47 278,47 277,47 277,47 276,47 275,47 274,47 274,48 273,48 272,48 271,49 271,49 270,49 269,50 269,50 268,51 267,52 267,52 266,54 265,55 264,57 263,58 263,60 262,62 262,63 262,66 262,67 262,69 263,71 263,72 264,74 265,76 266,77 267,79" fill="#000000" stroke="#000000" stroke-width="1" fill-rule="evenodd" data-shape="25"/>
      <polygon points="269,75 269,76 270,77 270,77 271,77 272,78 272,78 273,79 273,79 274,79 274,79 275,79 276,80 276,80 277,80 277,80 278,80 279,80 279,80 280,80 281,80 281,79 282,79 282,79 283,79 284,79 284,78 285,78 285,77 286,77 286,77 287,76 287,75 288,74 289,73 290,72 290,71 291,69 291,68 291,66 291,65 291,63 291,62 291,61 290,59 290,58 289,57 288,55 287,54 287,54 286,53 286,53 285,52 285,52 284,52 284,51 283,51 282,51 282,51 281,50 281,50 280,50 279,50 279,50 278,50 277,50 277,50 276,50 276,50 275,50 274,51 274,51 273,51 273,51 272,52 272,52 271,52 270,53 270,53 269,54 269,54 268,55 267,57 267,58 266,59 266,61 265,62 265,63 265,65 265,66 265,68 266,69 266,71 267,72 267,73 268,74 269,75" fill="#000000" stroke="#000000" stroke-width="1" fill-rule="evenodd" data-shape="26"/>
      <polygon points="281,51 278,80 281,51" fill="#000000" stroke="#000000" stroke-width="1" fill-rule="evenodd" data-shape="27"/>
      <polygon points="292,67 266,62 292,67" fill="#000000" stroke="#000000" stroke-width="1" fill-rule="evenodd" data-shape="28"/>
      <polygon points="272,52 287,76 272,52" fill="#000000" stroke="#000000" stroke-width="1" fill-rule="evenodd" data-shape="29"/>
      <polygon points="289,56 268,74 289,56" fill="#000000" stroke="#000000" stroke-width="1" fill-rule="evenodd" data-shape="30"/>
      <polygon points="277,50 283,79 277,50" fill="#000000" stroke="#000000" stroke-width="1" fill-rule="evenodd" data-shape="31"/>
      <polygon points="291,71 269,56 291,71" fill="#000000" stroke="#000000" stroke-width="1" fill-rule="evenodd" data-shape="32"/>
      <polygon points="291,61 266,68 291,61" fill="#000000" stroke="#000000" stroke-width="1" fill-rule="evenodd" data-shape="33"/>
      <polygon points="285,53 272,78 285,53" fill="#000000" stroke="#000000" stroke-width="1" fill-rule="evenodd" data-shape="34"/>
      <polygon points="278,66 278,66 279,67 279,67 280,67 280,67 281,67 281,66 281,66 282,66 282,65 282,65 282,64 282,63 282,63 282,62 281,62 281,61 281,61 280,61 280,61 279,61 279,61 278,61 278,62 278,62 277,63 277,63 277,64 277,65 277,65 278,66 278,66" fill="#000000" stroke="#000000" stroke-width="1" fill-rule="evenodd" data-shape="35"/>
      <polygon points="278,65 262,31 264,30 280,64 280,64 280,65 280,65 280,66 279,66 279,66 278,65 278,65" fill="#000000" stroke="#000000" stroke-width="1" fill-rule="evenodd" data-shape="36"/>
      <polygon points="219,80 219,80 220,81 221,81 221,82 222,82 223,83 223,83 224,84 225,84 225,84 226,84 227,84 228,85 229,85 229,85 230,85 231,85 232,85 232,85 233,84 234,84 235,84 235,84 236,84 237,83 237,83 238,82 239,82 240,81 240,81 241,80 241,80 243,78 244,77 244,75 245,73 246,72 246,70 246,68 246,66 246,65 246,63 246,61 245,59 244,58 244,56 243,55 241,53 241,53 240,52 240,51 239,51 238,50 237,50 237,50 236,49 235,49 235,49 234,48 233,48 232,48 232,48 231,48 230,48 229,48 229,48 228,48 227,48 226,48 225,49 225,49 224,49 223,50 223,50 222,50 221,51 221,51 220,52 219,53 219,53 218,55 217,56 216,58 215,59 215,61 214,63 214,65 214,66 214,68 214,70 215,72 215,73 216,75 217,77 218,78 219,80" fill="#000000" stroke="#000000" stroke-width="1" fill-rule="evenodd" data-shape="37"/>
      <polygon points="221,76 221,77 222,78 223,78 223,78 223,79 224,79 225,80 225,80 226,80 226,80 227,80 228,81 228,81 229,81 230,81 230,81 231,81 231,81 232,81 233,81 233,80 234,80 234,80 235,80 236,80 236,79 237,79 237,78 238,78 238,78 239,77 239,76 240,75 241,74 242,73 242,72 243,70 243,69 243,67 243,66 243,64 243,63 243,62 242,60 242,59 241,58 240,56 239,55 239,55 238,54 238,54 237,53 237,53 236,53 236,52 235,52 234,52 234,52 233,51 233,51 232,51 231,51 231,51 230,51 230,51 229,51 228,51 228,51 227,51 226,52 226,52 225,52 225,52 224,53 223,53 223,53 223,54 222,54 221,55 221,55 220,56 219,58 219,59 218,60 218,62 217,63 217,64 217,66 217,67 217,69 218,70 218,72 219,73 219,74 220,75 221,76" fill="#000000" stroke="#000000" stroke-width="1" fill-rule="evenodd" data-shape="38"/>
      <polygon points="233,53 230,82 233,53" fill="#000000" stroke="#000000" stroke-width="1" fill-rule="evenodd" data-shape="39"/>
      <polygon points="243,69 217,64 243,69" fill="#000000" stroke="#000000" stroke-width="1" fill-rule="evenodd" data-shape="40"/>
      <polygon points="224,54 239,78 224,54" fill="#000000" stroke="#000000" stroke-width="1" fill-rule="evenodd" data-shape="41"/>
      <polygon points="241,57 220,75 241,57" fill="#000000" stroke="#000000" stroke-width="1" fill-rule="evenodd" data-shape="42"/>
      <polygon points="228,52 234,81 228,52" fill="#000000" stroke="#000000" stroke-width="1" fill-rule="evenodd" data-shape="43"/>
      <polygon points="242,73 220,58 242,73" fill="#000000" stroke="#000000" stroke-width="1" fill-rule="evenodd" data-shape="44"/>
      <polygon points="243,62 218,69 243,62" fill="#000000" stroke="#000000" stroke-width="1" fill-rule="evenodd" data-shape="45"/>
      <polygon points="237,54 224,79 237,54" fill="#000000" stroke="#000000" stroke-width="1" fill-rule="evenodd" data-shape="46"/>
      <polygon points="230,68 230,68 231,69 231,69 232,69 232,69 233,69 233,68 233,68 234,68 234,67 234,67 234,66 234,65 234,65 234,64 233,64 233,63 233,63 232,63 232,63 231,63 231,63 230,63 230,64 230,64 229,65 229,65 229,66 229,67 229,67 230,68 230,68" fill="#000000" stroke="#000000" stroke-width="1" fill-rule="evenodd" data-shape="47"/>
      <polygon points="230,65 240,40 243,41 231,66 230,65" fill="#000000" stroke="#000000" stroke-width="1" fill-rule="evenodd" data-shape="48"/>
      <polygon points="271,48 240,49 241,46 270,46 271,48" fill="#000000" stroke="#000000" stroke-width="1" fill-rule="evenodd" data-shape="49"/>
      <polygon points="269,28 261,33 261,34 260,34 260,35 260,35 260,35 261,36 261,36 261,37 262,37 262,38 263,38 263,39 264,39 264,39 264,40 265,40 262,42 262,41 261,41 261,40 260,39 260,39 260,39 259,38 259,38 258,37 258,37 258,37 257,36 257,35 257,34 257,33 257,32 270,25 271,25 271,26 271,27 271,28 271,29 272,30 272,31 273,32 271,32 271,32 270,32 270,31 270,31 269,31 269,30 269,29 269,28" fill="#000000" stroke="#000000" stroke-width="1" fill-rule="evenodd" data-shape="50"/>
      <polygon points="264,32 263,29 265,28 266,31 264,32" fill="#000000" stroke="#000000" stroke-width="1" fill-rule="evenodd" data-shape="51"/>
      <polygon points="249,43 233,39 234,33 234,33 235,33 235,33 235,33 236,34 236,34 237,34 237,35 238,36 239,36 240,37 241,38 243,38 244,39 246,39 249,40 249,43" fill="#000000" stroke="none" stroke-width="0" fill-rule="evenodd" data-shape="52"/>
      <polygon points="274,48 274,48 274,48 274,48 274,48 274,48 274,48 275,48 275,48 275,47 276,47 276,47 277,47 277,47 278,47 279,47 279,47 280,47 281,47 282,47 282,48 283,48 284,48 285,48 286,49 287,49 288,50 289,50 290,51 291,52 292,53 293,54 294,55 294,52 293,51 292,50 291,50 290,49 290,48 289,48 288,48 287,47 286,47 286,46 285,46 284,46 283,46 283,45 282,45 281,45 280,45 280,45 279,45 279,45 278,45 278,45 277,45 276,45 276,45 275,45 275,45 274,45 274,45 273,45 273,46 272,46 274,48" fill="#eded00" stroke="#000000" stroke-width="1" fill-rule="evenodd" data-shape="53"/>
      <polygon points="267,79 267,79 268,80 269,80 269,81 270,81 271,82 271,82 272,83 273,83 274,83 274,83 275,83 276,84 277,84 277,84 278,84 279,84 280,84 280,84 281,83 282,83 283,83 283,83 284,83 285,82 286,82 286,81 287,81 288,80 288,80 289,79 289,79 291,77 292,76 292,74 293,72 294,71 294,69 294,67 294,66 294,63 294,62 294,60 293,58 292,57 292,55 291,54 289,52 289,52 288,51 288,50 287,50 286,49 286,49 285,49 284,48 283,48 283,48 282,47 281,47 280,47 280,47 279,47 278,47 277,47 277,47 276,47 275,47 274,47 274,48 273,48 272,48 271,49 271,49 270,49 269,50 269,50 268,51 267,52 267,52 266,54 265,55 264,57 263,58 263,60 262,62 262,63 262,66 262,67 262,69 263,71 263,72 264,74 265,76 266,77 267,79" fill="#545454" stroke="#000000" stroke-width="1" fill-rule="evenodd" data-shape="54"/>
      <polygon points="269,75 269,76 270,77 270,77 271,77 272,78 272,78 273,79 273,79 274,79 274,79 275,79 276,80 276,80 277,80 277,80 278,80 279,80 279,80 280,80 281,80 281,79 282,79 282,79 283,79 284,79 284,78 285,78 285,77 286,77 286,77 287,76 287,75 288,74 289,73 290,72 290,71 291,69 291,68 291,66 291,65 291,63 291,62 291,61 290,59 290,58 289,57 288,55 287,54 287,54 286,53 286,53 285,52 285,52 284,52 284,51 283,51 282,51 282,51 281,50 281,50 280,50 279,50 279,50 278,50 277,50 277,50 276,50 276,50 275,50 274,51 274,51 273,51 273,51 272,52 272,52 271,52 270,53 270,53 269,54 269,54 268,55 267,57 267,58 266,59 266,61 265,62 265,63 265,65 265,66 265,68 266,69 266,71 267,72 267,73 268,74 269,75" fill="#ffffff" stroke="#000000" stroke-width="1" fill-rule="evenodd" data-shape="55"/>
      <polygon points="281,51 278,80 281,51" fill="#545454" stroke="#000000" stroke-width="1" fill-rule="evenodd" data-shape="56"/>
      <polygon points="292,67 266,62 292,67" fill="#545454" stroke="#000000" stroke-width="1" fill-rule="evenodd" data-shape="57"/>
      <polygon points="272,52 287,76 272,52" fill="#545454" stroke="#000000" stroke-width="1" fill-rule="evenodd" data-shape="58"/>
      <polygon points="289,56 268,74 289,56" fill="#545454" stroke="#000000" stroke-width="1" fill-rule="evenodd" data-shape="59"/>
      <polygon points="277,50 283,79 277,50" fill="#545454" stroke="#000000" stroke-width="1" fill-rule="evenodd" data-shape="60"/>
      <polygon points="291,71 269,56 291,71" fill="#545454" stroke="#000000" stroke-width="1" fill-rule="evenodd" data-shape="61"/>
      <polygon points="291,61 266,68 291,61" fill="#545454" stroke="#000000" stroke-width="1" fill-rule="evenodd" data-shape="62"/>
      <polygon points="285,53 272,78 285,53" fill="#545454" stroke="#000000" stroke-width="1" fill-rule="evenodd" data-shape="63"/>
      <polygon points="278,66 278,66 279,67 279,67 280,67 280,67 281,67 281,66 281,66 282,66 282,65 282,65 282,64 282,63 282,63 282,62 281,62 281,61 281,61 280,61 280,61 279,61 279,61 278,61 278,62 278,62 277,63 277,63 277,64 277,65 277,65 278,66 278,66" fill="#545454" stroke="#000000" stroke-width="1" fill-rule="evenodd" data-shape="64"/>
      <polygon points="278,65 262,31 264,30 280,64 280,64 280,65 280,65 280,66 279,66 279,66 278,65 278,65" fill="#eded00" stroke="#000000" stroke-width="1" fill-rule="evenodd" data-shape="65"/>
      <polygon points="219,80 219,80 220,81 221,81 221,82 222,82 223,83 223,83 224,84 225,84 225,84 226,84 227,84 228,85 229,85 229,85 230,85 231,85 232,85 232,85 233,84 234,84 235,84 235,84 236,84 237,83 237,83 238,82 239,82 240,81 240,81 241,80 241,80 243,78 244,77 244,75 245,73 246,72 246,70 246,68 246,66 246,65 246,63 246,61 245,59 244,58 244,56 243,55 241,53 241,53 240,52 240,51 239,51 238,50 237,50 237,50 236,49 235,49 235,49 234,48 233,48 232,48 232,48 231,48 230,48 229,48 229,48 228,48 227,48 226,48 225,49 225,49 224,49 223,50 223,50 222,50 221,51 221,51 220,52 219,53 219,53 218,55 217,56 216,58 215,59 215,61 214,63 214,65 214,66 214,68 214,70 215,72 215,73 216,75 217,77 218,78 219,80" fill="#545454" stroke="#000000" stroke-width="1" fill-rule="evenodd" data-shape="66"/>
      <polygon points="221,76 221,77 222,78 223,78 223,78 223,79 224,79 225,80 225,80 226,80 226,80 227,80 228,81 228,81 229,81 230,81 230,81 231,81 231,81 232,81 233,81 233,80 234,80 234,80 235,80 236,80 236,79 237,79 237,78 238,78 238,78 239,77 239,76 240,75 241,74 242,73 242,72 243,70 243,69 243,67 243,66 243,64 243,63 243,62 242,60 242,59 241,58 240,56 239,55 239,55 238,54 238,54 237,53 237,53 236,53 236,52 235,52 234,52 234,52 233,51 233,51 232,51 231,51 231,51 230,51 230,51 229,51 228,51 228,51 227,51 226,52 226,52 225,52 225,52 224,53 223,53 223,53 223,54 222,54 221,55 221,55 220,56 219,58 219,59 218,60 218,62 217,63 217,64 217,66 217,67 217,69 218,70 218,72 219,73 219,74 220,75 221,76" fill="#ffffff" stroke="#000000" stroke-width="1" fill-rule="evenodd" data-shape="67"/>
      <polygon points="233,53 230,82 233,53" fill="#545454" stroke="#000000" stroke-width="1" fill-rule="evenodd" data-shape="68"/>
      <polygon points="243,69 217,64 243,69" fill="#545454" stroke="#000000" stroke-width="1" fill-rule="evenodd" data-shape="69"/>
      <polygon points="224,54 239,78 224,54" fill="#545454" stroke="#000000" stroke-width="1" fill-rule="evenodd" data-shape="70"/>
      <polygon points="241,57 220,75 241,57" fill="#545454" stroke="#000000" stroke-width="1" fill-rule="evenodd" data-shape="71"/>
      <polygon points="228,52 234,81 228,52" fill="#545454" stroke="#000000" stroke-width="1" fill-rule="evenodd" data-shape="72"/>
      <polygon points="242,73 220,58 242,73" fill="#545454" stroke="#000000" stroke-width="1" fill-rule="evenodd" data-shape="73"/>
      <polygon points="243,62 218,69 243,62" fill="#545454" stroke="#000000" stroke-width="1" fill-rule="evenodd" data-shape="74"/>
      <polygon points="237,54 224,79 237,54" fill="#545454" stroke="#000000" stroke-width="1" fill-rule="evenodd" data-shape="75"/>
      <polygon points="230,68 230,68 231,69 231,69 232,69 232,69 233,69 233,68 233,68 234,68 234,67 234,67 234,66 234,65 234,65 234,64 233,64 233,63 233,63 232,63 232,63 231,63 231,63 230,63 230,64 230,64 229,65 229,65 229,66 229,67 229,67 230,68 230,68" fill="#545454" stroke="#000000" stroke-width="1" fill-rule="evenodd" data-shape="76"/>
      <polygon points="230,65 240,40 243,41 231,66 230,65" fill="#eded00" stroke="#000000" stroke-width="1" fill-rule="evenodd" data-shape="77"/>
      <polygon points="271,48 240,49 241,46 270,46 271,48" fill="#eded00" stroke="#000000" stroke-width="1" fill-rule="evenodd" data-shape="78"/>
      <polygon points="269,28 261,33 261,34 260,34 260,35 260,35 260,35 261,36 261,36 261,37 262,37 262,38 263,38 263,39 264,39 264,39 264,40 265,40 262,42 262,41 261,41 261,40 260,39 260,39 260,39 259,38 259,38 258,37 258,37 258,37 257,36 257,35 257,34 257,33 257,32 270,25 271,25 271,26 271,27 271,28 271,29 272,30 272,31 273,32 271,32 271,32 270,32 270,31 270,31 269,31 269,30 269,29 269,28" fill="#dd0000" stroke="#000000" stroke-width="1" fill-rule="evenodd" data-shape="79"/>
      <polygon points="264,32 263,29 265,28 266,31 264,32" fill="#999999" stroke="#000000" stroke-width="1" fill-rule="evenodd" data-shape="80"/>
      <polygon points="249,43 233,39 234,33 234,33 235,33 235,33 235,33 236,34 236,34 237,34 237,35 238,36 239,36 240,37 241,38 243,38 244,39 246,39 249,40 249,43" fill="#ba7c4c" stroke="none" stroke-width="0" fill-rule="evenodd" data-shape="81"/>
      <g data-mdcr="group" class="mdcr-region">
        <polygon points="171,54 172,36 172,35 172,34 172,34 172,34 172,33 171,33 171,33 171,33 171,33 170,33 170,33 170,34 170,34 170,35 170,35 169,36 169,53 171,54" fill="#000000" stroke="#000000" stroke-width="1" fill-rule="evenodd" data-shape="82"/>
        <polygon points="169,52 169,35 169,35 169,34 169,33 169,33 168,33 168,32 168,32 168,32 167,32 167,32 167,32 167,33 167,33 167,34 166,35 166,36 167,53 169,52" fill="#000000" stroke="#000000" stroke-width="1" fill-rule="evenodd" data-shape="83"/>
        <polygon points="171,45 175,37 175,36 175,35 175,34 175,34 175,33 174,33 174,33 174,33 174,33 173,33 173,33 173,34 172,34 172,34 172,35 172,35 171,45" fill="#000000" stroke="#000000" stroke-width="1" fill-rule="evenodd" data-shape="84"/>
        <polygon points="175,84 176,85 176,85 177,86 177,86 178,86 178,87 179,87 179,87 180,87 181,87 182,86 182,86 183,86 183,85 184,85 184,84 185,82 186,80 186,78 186,77 186,74 186,72 185,71 184,69 184,68 183,68 183,67 182,67 182,66 181,66 180,66 179,66 179,66 178,66 178,66 177,67 177,67 176,68 176,68 175,69 174,71 174,72 173,74 173,77 173,78 174,80 174,82 175,84" fill="#000000" stroke="#000000" stroke-width="1" fill-rule="evenodd" data-shape="85"/>
        <polygon points="127,85 127,86 128,86 129,87 129,87 130,87 130,88 131,88 131,88 132,88 133,88 134,87 134,87 135,87 135,86 136,86 136,85 137,83 138,81 138,79 138,77 138,75 138,73 137,72 136,70 136,69 135,69 135,68 134,68 134,67 133,67 132,67 131,67 131,67 130,67 130,67 129,68 129,68 128,69 127,69 127,70 126,72 126,73 125,75 125,77 125,79 126,81 126,83 127,85" fill="#000000" stroke="#000000" stroke-width="1" fill-rule="evenodd" data-shape="86"/>
        <polygon points="193,75 188,76 187,75 186,74 186,73 185,72 185,71 184,71 183,70 183,70 182,69 182,69 181,69 181,68 180,68 180,68 179,68 178,68 178,69 177,69 177,69 176,69 176,70 175,70 175,71 174,71 174,71 173,72 173,72 172,73 172,74 171,75 171,76 170,76 141,76 140,75 139,74 139,73 138,72 137,72 137,71 136,71 135,70 135,70 134,70 133,69 133,69 132,69 131,69 131,69 130,70 130,70 129,70 129,70 128,71 127,71 127,71 126,72 126,72 125,73 125,73 125,74 124,74 124,75 124,76 124,76 123,77 111,76 110,75 110,74 110,73 110,71 110,69 111,68 111,66 112,64 112,62 113,61 114,59 115,58 116,57 117,56 118,55 120,55 136,51 138,45 140,50 171,51 172,42 173,43 174,43 175,44 177,45 178,45 179,46 180,46 181,47 182,47 183,48 184,48 184,49 185,50 186,50 187,51 188,52 189,52 190,53 190,54 191,55 191,56 192,57 192,58 192,60 193,61 193,63 193,65 193,67 193,69 193,71 193,73 193,75" fill="#000000" stroke="#000000" stroke-width="1" fill-rule="evenodd" data-shape="87"/>
        <polygon points="138,45 142,30 143,31 139,50 138,45" fill="#000000" stroke="#000000" stroke-width="1" fill-rule="evenodd" data-shape="88"/>
        <polygon points="111,68 108,68 108,76 111,76 111,68" fill="#000000" stroke="#000000" stroke-width="1" fill-rule="evenodd" data-shape="89"/>
        <polygon points="195,66 191,66 191,75 195,75 195,66" fill="#000000" stroke="none" stroke-width="0" fill-rule="evenodd" data-shape="90"/>
        <polygon points="171,54 172,36 172,35 172,34 172,34 172,34 172,33 171,33 171,33 171,33 171,33 170,33 170,33 170,34 170,34 170,35 170,35 169,36 169,53 171,54" fill="#ffba00" stroke="#000000" stroke-width="1" fill-rule="evenodd" data-shape="91"/>
        <polygon points="169,52 169,35 169,35 169,34 169,33 169,33 168,33 168,32 168,32 168,32 167,32 167,32 167,32 167,33 167,33 167,34 166,35 166,36 167,53 169,52" fill="#ffba00" stroke="#000000" stroke-width="1" fill-rule="evenodd" data-shape="92"/>
        <polygon points="171,45 175,37 175,36 175,35 175,34 175,34 175,33 174,33 174,33 174,33 174,33 173,33 173,33 173,34 172,34 172,34 172,35 172,35 171,45" fill="#ffba00" stroke="#000000" stroke-width="1" fill-rule="evenodd" data-shape="93"/>
        <polygon points="175,84 176,85 176,85 177,86 177,86 178,86 178,87 179,87 179,87 180,87 181,87 182,86 182,86 183,86 183,85 184,85 184,84 185,82 186,80 186,78 186,77 186,74 186,72 185,71 184,69 184,68 183,68 183,67 182,67 182,66 181,66 180,66 179,66 179,66 178,66 178,66 177,67 177,67 176,68 176,68 175,69 174,71 174,72 173,74 173,77 173,78 174,80 174,82 175,84" fill="#333333" stroke="#000000" stroke-width="1" fill-rule="evenodd" data-shape="94"/>
        <polygon points="177,80 177,81 178,81 178,81 178,81 178,82 179,82 179,82 179,82 179,82 180,82 180,82 180,81 181,81 181,81 181,81 181,80 182,79 182,79 182,77 182,76 182,75 182,74 182,73 181,72 181,72 181,72 181,72 180,71 180,71 180,71 179,71 179,71 179,71 179,71 178,71 178,71 178,72 178,72 177,72 177,72 177,73 176,74 176,75 176,76 176,77 176,79 177,79 177,80" fill="#eded00" stroke="#000000" stroke-width="1" fill-rule="evenodd" data-shape="95"/>
        <polygon points="127,85 127,86 128,86 129,87 129,87 130,87 130,88 131,88 131,88 132,88 133,88 134,87 134,87 135,87 135,86 136,86 136,85 137,83 138,81 138,79 138,77 138,75 138,73 137,72 136,70 136,69 135,69 135,68 134,68 134,67 133,67 132,67 131,67 131,67 130,67 130,67 129,68 129,68 128,69 127,69 127,70 126,72 126,73 125,75 125,77 125,79 126,81 126,83 127,85" fill="#333333" stroke="#000000" stroke-width="1" fill-rule="evenodd" data-shape="96"/>
        <polygon points="129,80 129,81 130,81 130,81 130,81 130,82 131,82 131,82 131,82 131,82 132,82 132,82 132,81 133,81 133,81 133,81 133,80 134,80 134,79 134,78 134,77 134,76 134,75 134,74 133,73 133,73 133,73 133,73 132,72 132,72 132,72 131,72 131,72 131,72 131,72 130,72 130,72 130,73 130,73 129,73 129,73 129,74 128,75 128,76 128,77 128,78 128,79 129,80 129,80" fill="#eded00" stroke="#000000" stroke-width="1" fill-rule="evenodd" data-shape="97"/>
        <polygon points="193,75 188,76 187,75 186,74 186,73 185,72 185,71 184,71 183,70 183,70 182,69 182,69 181,69 181,68 180,68 180,68 179,68 178,68 178,69 177,69 177,69 176,69 176,70 175,70 175,71 174,71 174,71 173,72 173,72 172,73 172,74 171,75 171,76 170,76 141,76 140,75 139,74 139,73 138,72 137,72 137,71 136,71 135,70 135,70 134,70 133,69 133,69 132,69 131,69 131,69 130,70 130,70 129,70 129,70 128,71 127,71 127,71 126,72 126,72 125,73 125,73 125,74 124,74 124,75 124,76 124,76 123,77 111,76 110,75 110,74 110,73 110,71 110,69 111,68 111,66 112,64 112,62 113,61 114,59 115,58 116,57 117,56 118,55 120,55 136,51 138,45 140,50 171,51 172,42 173,43 174,43 175,44 177,45 178,45 179,46 180,46 181,47 182,47 183,48 184,48 184,49 185,50 186,50 187,51 188,52 189,52 190,53 190,54 191,55 191,56 192,57 192,58 192,60 193,61 193,63 193,65 193,67 193,69 193,71 193,73 193,75" fill="#dd0000" stroke="#000000" stroke-width="1" fill-rule="evenodd" data-shape="98"/>
        <polygon points="138,45 142,30 143,31 139,50 138,45" fill="#bababa" stroke="#000000" stroke-width="1" fill-rule="evenodd" data-shape="99"/>
        <polygon points="113,66 113,66 113,66 114,67 114,67 114,67 114,67 114,67 114,68 115,68 115,68 115,68 115,68 116,68 116,67 116,67 117,67 117,66 117,66 118,65 118,64 118,63 118,62 118,61 118,60 118,60 118,59 118,59 118,59 117,59 117,58 117,58 117,58 117,58 117,58 116,58 116,58 115,58 115,58 115,58 115,59 114,59 114,60 114,61 113,62 113,63 113,64 113,64 113,66" fill="#bababa" stroke="#000000" stroke-width="1" fill-rule="evenodd" data-shape="100"/>
        <polygon points="142,51 141,76 142,51" fill="#bababa" stroke="#000000" stroke-width="1" fill-rule="evenodd" data-shape="101"/>
        <polygon points="156,51 156,76 156,51" fill="#bababa" stroke="#000000" stroke-width="1" fill-rule="evenodd" data-shape="102"/>
        <polygon points="155,60 152,60 152,62 155,62 155,60" fill="#bababa" stroke="#000000" stroke-width="1" fill-rule="evenodd" data-shape="103"/>
        <polygon points="111,68 108,68 108,76 111,76 111,68" fill="#bababa" stroke="#000000" stroke-width="1" fill-rule="evenodd" data-shape="104"/>
        <polygon points="195,66 191,66 191,75 195,75 195,66" fill="#bababa" stroke="none" stroke-width="0" fill-rule="evenodd" data-shape="105"/>
      </g>
      <g data-mdcr="group" class="mdcr-region">
        <polygon points="29,85 29,86 30,86 30,86 30,87 30,87 31,87 31,87 31,87 31,87 31,87 31,87 32,87 32,86 32,86 33,86 33,85 33,84 34,84 34,83 34,81 34,80 34,79 33,79 33,78 33,77 32,77 32,77 32,76 31,76 31,76 31,76 31,76 31,76 31,76 30,76 30,76 30,77 30,77 29,77 29,78 29,79 28,79 28,80 28,81 28,83 28,84 29,84 29,85 29,85 29,85" fill="#ffffff" stroke="none" stroke-width="0" fill-rule="evenodd" data-shape="106"/>
        <polyline points="29,85 29,86 30,86 30,86 30,87 30,87 31,87 31,87 31,87 31,87 31,87 31,87 32,87 32,86 32,86 33,86 33,85 33,84 34,84 34,83 34,81 34,80 34,79 33,79 33,78 33,77 32,77 32,77 32,76 31,76 31,76 31,76 31,76 31,76 31,76 30,76 30,76 30,77 30,77 29,77 29,78 29,79 28,79 28,80 28,81 28,83 28,84 29,84 29,85 29,85" fill="none" stroke="#ffffff" stroke-width="1"/>
        <g data-mdcr="group" class="mdcr-region">
          <polygon points="84,78 84,53 77,46 76,11 76,11 75,10 74,10 74,10 72,10 70,10 69,9 67,9 65,9 62,9 61,9 58,9 56,9 54,9 51,9 49,9 46,9 43,9 41,9 39,9 36,9 35,10 32,10 30,10 28,10 27,11 25,11 24,11 23,11 22,11 21,11 21,12 22,51 22,51 22,52 23,53 23,53 23,53 23,53 23,54 24,54 24,55 25,56 25,58 25,61 25,63 25,67 25,72 25,78 25,77 26,76 26,76 27,76 27,75 27,74 27,74 27,73 28,73 28,72 28,72 29,71 29,71 30,71 30,71 31,71 31,71 31,71 31,71 32,71 32,71 33,71 33,71 34,72 34,72 35,73 35,74 35,75 36,76 36,76 37,77 38,78 66,78 66,77 66,77 66,76 66,76 67,75 67,75 67,74 68,74 68,73 68,72 69,72 69,72 70,71 70,71 70,71 70,71 71,71 71,71 72,71 72,71 73,71 73,71 74,71 74,71 74,72 74,73 75,73 75,74 76,75 77,76 77,77 78,78 84,78 84,78 84,78" fill="#dd0000" stroke="none" stroke-width="0" fill-rule="evenodd" data-shape="107"/>
          <polygon points="76,35 69,34 69,47 76,47 76,35 76,35 76,35" fill="#dd0000" stroke="none" stroke-width="0" fill-rule="evenodd" data-shape="108"/>
          <polygon points="37,46 37,34 27,34 27,46 37,46 37,46 37,46" fill="#dd0000" stroke="none" stroke-width="0" fill-rule="evenodd" data-shape="109"/>
          <polygon points="53,34 42,34 42,46 53,46 53,34 53,34 53,34" fill="#dd0000" stroke="none" stroke-width="0" fill-rule="evenodd" data-shape="110"/>
          <polygon points="67,46 56,46 56,34 67,34 67,46 67,46 67,46" fill="#dd0000" stroke="none" stroke-width="0" fill-rule="evenodd" data-shape="111"/>
          <polygon points="75,17 75,29 66,29 66,17 75,17 75,17 75,17" fill="#dd0000" stroke="none" stroke-width="0" fill-rule="evenodd" data-shape="112"/>
          <polygon points="64,17 55,17 55,29 64,29 64,17 64,17 64,17" fill="#dd0000" stroke="none" stroke-width="0" fill-rule="evenodd" data-shape="113"/>
          <polygon points="52,17 52,29 43,29 43,17 52,17 52,17 52,17" fill="#dd0000" stroke="none" stroke-width="0" fill-rule="evenodd" data-shape="114"/>
          <polygon points="29,17 23,17 23,29 29,29 29,17 29,17 29,17" fill="#dd0000" stroke="none" stroke-width="0" fill-rule="evenodd" data-shape="115"/>
          <polygon points="41,17 41,29 32,29 32,17 41,17 41,17 41,17" fill="#dd0000" stroke="none" stroke-width="0" fill-rule="evenodd" data-shape="116"/>
        </g>
        <polygon points="37,46 37,34 27,34 27,46 37,46 37,46 37,46" fill="#000000" stroke="none" stroke-width="0" fill-rule="evenodd" data-shape="117"/>
        <polygon points="53,34 42,34 42,46 53,46 53,34 53,34 53,34" fill="#000000" stroke="none" stroke-width="0" fill-rule="evenodd" data-shape="118"/>
        <polygon points="66,46 55,46 55,34 66,34 66,46 66,46 66,46" fill="#000000" stroke="none" stroke-width="0" fill-rule="evenodd" data-shape="119"/>
        <polygon points="74,17 74,29 65,29 65,17 74,17 74,17 74,17" fill="#000000" stroke="none" stroke-width="0" fill-rule="evenodd" data-shape="120"/>
        <polygon points="64,17 55,17 55,29 64,29 64,17 64,17 64,17" fill="#000000" stroke="none" stroke-width="0" fill-rule="evenodd" data-shape="121"/>
        <polygon points="53,17 53,29 44,29 44,17 53,17 53,17 53,17" fill="#000000" stroke="none" stroke-width="0" fill-rule="evenodd" data-shape="122"/>
        <polygon points="30,17 24,17 24,29 30,29 30,17 30,17 30,17" fill="#000000" stroke="none" stroke-width="0" fill-rule="evenodd" data-shape="123"/>
        <polygon points="85,57 83,57 83,63 85,63 85,57 85,57 85,57" fill="#545454" stroke="none" stroke-width="0" fill-rule="evenodd" data-shape="124"/>
        <polyline points="85,57 83,57 83,63 85,63 85,57 85,57" fill="none" stroke="#ffffff" stroke-width="1"/>
        <polygon points="85,57 83,57 83,63 85,63 85,57 85,57 85,57" fill="#000000" stroke="none" stroke-width="0" fill-rule="evenodd" data-shape="125"/>
        <polyline points="85,57 83,57 83,63 85,63 85,57" fill="none" stroke="#ffffff" stroke-width="1"/>
        <polyline points="69,73 69,35 76,35 76,75" fill="none" stroke="#ffffff" stroke-width="1"/>
        <polygon points="68,57 26,57 26,63 68,63 68,57 68,57 68,57" fill="#bababa" stroke="#ffffff" stroke-width="1" fill-rule="evenodd" data-shape="126"/>
        <polygon points="76,36 76,47 71,47 71,36 76,36 76,36" fill="#000000" stroke="none" stroke-width="0" fill-rule="evenodd" data-shape="127"/>
        <polygon points="42,29 42,17 32,17 32,29 42,29 42,29 42,29" fill="#000000" stroke="none" stroke-width="0" fill-rule="evenodd" data-shape="128"/>
        <ellipse cx="32" cy="82" rx="5" ry="9" fill="#000000" stroke="#000000" stroke-width="1" data-shape="129"/>
        <ellipse cx="72" cy="82" rx="5" ry="9" fill="#000000" stroke="#000000" stroke-width="1" data-shape="130"/>
      </g>
      <g data-mdcr="group" class="mdcr-region">
        <polygon points="333,56 332,38 332,37 332,36 332,36 332,36 332,35 333,35 333,35 333,35 333,35 334,35 334,35 334,36 334,36 334,37 334,37 335,38 335,55 333,56" fill="#000000" stroke="#000000" stroke-width="1" fill-rule="evenodd" data-shape="131"/>
        <polygon points="335,54 335,37 335,37 335,36 335,35 335,35 336,35 336,34 336,34 336,34 337,34 337,34 337,34 337,35 337,35 337,36 338,37 338,38 337,55 335,54" fill="#000000" stroke="#000000" stroke-width="1" fill-rule="evenodd" data-shape="132"/>
        <polygon points="333,47 329,39 329,38 329,37 329,36 329,36 329,35 330,35 330,35 330,35 330,35 331,35 331,35 331,36 332,36 332,36 332,37 332,37 333,47" fill="#000000" stroke="#000000" stroke-width="1" fill-rule="evenodd" data-shape="133"/>
        <polygon points="329,86 328,87 328,87 327,88 327,88 326,88 326,89 325,89 325,89 324,89 323,89 322,88 322,88 321,88 321,87 320,87 320,86 319,84 318,82 318,80 318,79 318,76 318,74 319,73 320,71 320,70 321,70 321,69 322,69 322,68 323,68 324,68 325,68 325,68 326,68 326,68 327,69 327,69 328,70 328,70 329,71 330,73 330,74 331,76 331,79 331,80 330,82 330,84 329,86" fill="#000000" stroke="#000000" stroke-width="1" fill-rule="evenodd" data-shape="134"/>
        <polygon points="377,87 377,88 376,88 375,89 375,89 374,89 374,90 373,90 373,90 372,90 371,90 370,89 370,89 369,89 369,88 368,88 368,87 367,85 366,83 366,81 366,79 366,77 366,75 367,74 368,72 368,71 369,71 369,70 370,70 370,69 371,69 372,69 373,69 373,69 374,69 374,69 375,70 375,70 376,71 377,71 377,72 378,74 378,75 379,77 379,79 379,81 378,83 378,85 377,87" fill="#000000" stroke="#000000" stroke-width="1" fill-rule="evenodd" data-shape="135"/>
        <polygon points="311,77 316,78 317,77 318,76 318,75 319,74 319,73 320,73 321,72 321,72 322,71 322,71 323,71 323,70 324,70 324,70 325,70 326,70 326,71 327,71 327,71 328,71 328,72 329,72 329,73 330,73 330,73 331,74 331,74 332,75 332,76 333,77 333,78 334,78 363,78 364,77 365,76 365,75 366,74 367,74 367,73 368,73 369,72 369,72 370,72 371,71 371,71 372,71 373,71 373,71 374,72 374,72 375,72 375,72 376,73 377,73 377,73 378,74 378,74 379,75 379,75 379,76 380,76 380,77 380,78 380,78 381,79 393,78 394,77 394,76 394,75 394,73 394,71 393,70 393,68 392,66 392,64 391,63 390,61 389,60 388,59 387,58 386,57 384,57 368,53 366,47 364,52 333,53 332,44 331,45 330,45 329,46 327,47 326,47 325,48 324,48 323,49 322,49 321,50 320,50 320,51 319,52 318,52 317,53 316,54 315,54 314,55 314,56 313,57 313,58 312,59 312,60 312,62 311,63 311,65 311,67 311,69 311,71 311,73 311,75 311,77" fill="#000000" stroke="#000000" stroke-width="1" fill-rule="evenodd" data-shape="136"/>
        <polygon points="366,47 362,32 361,33 365,52 366,47" fill="#000000" stroke="#000000" stroke-width="1" fill-rule="evenodd" data-shape="137"/>
        <polygon points="393,70 396,70 396,78 393,78 393,70" fill="#000000" stroke="#000000" stroke-width="1" fill-rule="evenodd" data-shape="138"/>
        <polygon points="309,68 313,68 313,77 309,77 309,68" fill="#000000" stroke="none" stroke-width="0" fill-rule="evenodd" data-shape="139"/>
        <polygon points="333,56 332,38 332,37 332,36 332,36 332,36 332,35 333,35 333,35 333,35 333,35 334,35 334,35 334,36 334,36 334,37 334,37 335,38 335,55 333,56" fill="#ffba00" stroke="#000000" stroke-width="1" fill-rule="evenodd" data-shape="140"/>
        <polygon points="335,54 335,37 335,37 335,36 335,35 335,35 336,35 336,34 336,34 336,34 337,34 337,34 337,34 337,35 337,35 337,36 338,37 338,38 337,55 335,54" fill="#ffba00" stroke="#000000" stroke-width="1" fill-rule="evenodd" data-shape="141"/>
        <polygon points="333,47 329,39 329,38 329,37 329,36 329,36 329,35 330,35 330,35 330,35 330,35 331,35 331,35 331,36 332,36 332,36 332,37 332,37 333,47" fill="#ffba00" stroke="#000000" stroke-width="1" fill-rule="evenodd" data-shape="142"/>
        <polygon points="329,86 328,87 328,87 327,88 327,88 326,88 326,89 325,89 325,89 324,89 323,89 322,88 322,88 321,88 321,87 320,87 320,86 319,84 318,82 318,80 318,79 318,76 318,74 319,73 320,71 320,70 321,70 321,69 322,69 322,68 323,68 324,68 325,68 325,68 326,68 326,68 327,69 327,69 328,70 328,70 329,71 330,73 330,74 331,76 331,79 331,80 330,82 330,84 329,86" fill="#333333" stroke="#000000" stroke-width="1" fill-rule="evenodd" data-shape="143"/>
        <polygon points="327,82 327,83 326,83 326,83 326,83 326,84 325,84 325,84 325,84 325,84 324,84 324,84 324,83 323,83 323,83 323,83 323,82 322,81 322,81 322,79 322,78 322,77 322,76 322,75 323,74 323,74 323,74 323,74 324,73 324,73 324,73 325,73 325,73 325,73 325,73 326,73 326,73 326,74 326,74 327,74 327,74 327,75 328,76 328,77 328,78 328,79 328,81 327,81 327,82" fill="#eded00" stroke="#000000" stroke-width="1" fill-rule="evenodd" data-shape="144"/>
        <polygon points="377,87 377,88 376,88 375,89 375,89 374,89 374,90 373,90 373,90 372,90 371,90 370,89 370,89 369,89 369,88 368,88 368,87 367,85 366,83 366,81 366,79 366,77 366,75 367,74 368,72 368,71 369,71 369,70 370,70 370,69 371,69 372,69 373,69 373,69 374,69 374,69 375,70 375,70 376,71 377,71 377,72 378,74 378,75 379,77 379,79 379,81 378,83 378,85 377,87" fill="#333333" stroke="#000000" stroke-width="1" fill-rule="evenodd" data-shape="145"/>
        <polygon points="375,82 375,83 374,83 374,83 374,83 374,84 373,84 373,84 373,84 373,84 372,84 372,84 372,83 371,83 371,83 371,83 371,82 370,82 370,81 370,80 370,79 370,78 370,77 370,76 371,75 371,75 371,75 371,75 372,74 372,74 372,74 373,74 373,74 373,74 373,74 374,74 374,74 374,75 374,75 375,75 375,75 375,76 376,77 376,78 376,79 376,80 376,81 375,82 375,82" fill="#eded00" stroke="#000000" stroke-width="1" fill-rule="evenodd" data-shape="146"/>
        <polygon points="311,77 316,78 317,77 318,76 318,75 319,74 319,73 320,73 321,72 321,72 322,71 322,71 323,71 323,70 324,70 324,70 325,70 326,70 326,71 327,71 327,71 328,71 328,72 329,72 329,73 330,73 330,73 331,74 331,74 332,75 332,76 333,77 333,78 334,78 363,78 364,77 365,76 365,75 366,74 367,74 367,73 368,73 369,72 369,72 370,72 371,71 371,71 372,71 373,71 373,71 374,72 374,72 375,72 375,72 376,73 377,73 377,73 378,74 378,74 379,75 379,75 379,76 380,76 380,77 380,78 380,78 381,79 393,78 394,77 394,76 394,75 394,73 394,71 393,70 393,68 392,66 392,64 391,63 390,61 389,60 388,59 387,58 386,57 384,57 368,53 366,47 364,52 333,53 332,44 331,45 330,45 329,46 327,47 326,47 325,48 324,48 323,49 322,49 321,50 320,50 320,51 319,52 318,52 317,53 316,54 315,54 314,55 314,56 313,57 313,58 312,59 312,60 312,62 311,63 311,65 311,67 311,69 311,71 311,73 311,75 311,77" fill="#dd0000" stroke="#000000" stroke-width="1" fill-rule="evenodd" data-shape="147"/>
        <polygon points="366,47 362,32 361,33 365,52 366,47" fill="#bababa" stroke="#000000" stroke-width="1" fill-rule="evenodd" data-shape="148"/>
        <polygon points="391,68 391,68 391,68 390,69 390,69 390,69 390,69 390,69 390,70 389,70 389,70 389,70 389,70 388,70 388,69 388,69 387,69 387,68 387,68 386,67 386,66 386,65 386,64 386,63 386,62 386,62 386,61 386,61 386,61 387,61 387,60 387,60 387,60 387,60 387,60 388,60 388,60 389,60 389,60 389,60 389,61 390,61 390,62 390,63 391,64 391,65 391,66 391,66 391,68" fill="#bababa" stroke="#000000" stroke-width="1" fill-rule="evenodd" data-shape="149"/>
        <polygon points="362,53 363,78 362,53" fill="#bababa" stroke="#000000" stroke-width="1" fill-rule="evenodd" data-shape="150"/>
        <polygon points="348,53 348,78 348,53" fill="#bababa" stroke="#000000" stroke-width="1" fill-rule="evenodd" data-shape="151"/>
        <polygon points="349,62 352,62 352,64 349,64 349,62" fill="#bababa" stroke="#000000" stroke-width="1" fill-rule="evenodd" data-shape="152"/>
        <polygon points="393,70 396,70 396,78 393,78 393,70" fill="#bababa" stroke="#000000" stroke-width="1" fill-rule="evenodd" data-shape="153"/>
        <polygon points="309,68 313,68 313,77 309,77 309,68" fill="#bababa" stroke="none" stroke-width="0" fill-rule="evenodd" data-shape="154"/>
      </g>
    </g>
  </g>
</svg>