<svg xmlns="http://www.w3.org/2000/svg" xmlns:mdcr="http://sensory.com/mdcr" viewBox="0 0 401 301" width="401" height="301">
  <metadata>
    <mdcr:info xmlns:mdcr="http://sensory.com/mdcr">
      <mdcr:source format="WMF" generator="wmf2svg.js"/>
      <mdcr:bounds left="0" top="0" right="6015" bottom="4515" inch="1440"/>
      <mdcr:records count="18">
        <mdcr:record tag="MDCR-{"/>
        <mdcr:record tag="MDCR-{"/>
        <mdcr:record tag="MDCR-S"/>
        <mdcr:record tag="MDCR-}:"/>
        <mdcr:record tag="MDCR-S"/>
        <mdcr:record tag="MDCR-{"/>
        <mdcr:record tag="MDCR-}:"/>
        <mdcr:record tag="MDCR-{"/>
        <mdcr:record tag="MDCR-}"/>
        <mdcr:record tag="MDCR-{"/>
        <mdcr:record tag="MDCR-{"/>
        <mdcr:record tag="MDCR-}"/>
        <mdcr:record tag="MDCR-}"/>
        <mdcr:record tag="MDCR-{"/>
        <mdcr:record tag="MDCR-S"/>
        <mdcr:record tag="MDCR-}:"/>
        <mdcr:record tag="MDCR-}"/>
        <mdcr:record tag="MDCR-S"/>
      </mdcr:records>
    </mdcr:info>
  </metadata>
  <g data-mdcr="group" class="mdcr-region">
    <g data-mdcr="group" class="mdcr-region">
      <polygon points="220,247 220,247 220,247 220,247 220,247 220,247 220,247 221,247 221,247 221,246 222,246 222,246 223,246 223,246 224,246 225,246 225,246 226,246 227,246 228,246 228,247 229,247 230,247 231,247 232,248 233,248 234,249 235,249 236,250 237,251 238,252 239,253 240,254 240,251 239,250 238,249 237,249 236,248 236,247 235,247 234,247 233,246 232,246 232,245 231,245 230,245 229,245 229,244 228,244 227,244 226,244 226,244 225,244 225,244 224,244 224,244 223,244 222,244 222,244 221,244 221,244 220,244 220,244 219,244 219,245 218,245 220,247" fill="#000000" stroke="#000000" stroke-width="1" fill-rule="evenodd" data-shape="0"/>
      <polygon points="213,278 213,278 214,279 215,279 215,280 216,280 217,281 217,281 218,282 219,282 220,282 220,282 221,282 222,283 223,283 223,283 224,283 225,283 226,283 226,283 227,282 228,282 229,282 229,282 230,282 231,281 232,281 232,280 233,280 234,279 234,279 235,278 235,278 237,276 238,275 238,273 239,271 240,270 240,268 240,266 240,265 240,262 240,261 240,259 239,257 238,256 238,254 237,253 235,251 235,251 234,250 234,249 233,249 232,248 232,248 231,248 230,247 229,247 229,247 228,246 227,246 226,246 226,246 225,246 224,246 223,246 223,246 222,246 221,246 220,246 220,247 219,247 218,247 217,248 217,248 216,248 215,249 215,249 214,250 213,251 213,251 212,253 211,254 210,256 209,257 209,259 208,261 208,262 208,265 208,266 208,268 209,270 209,271 210,273 211,275 212,276 213,278" fill="#000000" stroke="#000000" stroke-width="1" fill-rule="evenodd" data-shape="1"/>
      <polygon points="216,274 216,275 217,276 217,276 218,276 219,277 219,277 220,278 220,278 221,278 221,278 222,278 223,279 223,279 224,279 224,279 225,279 226,279 226,279 227,279 228,279 228,278 229,278 229,278 230,278 231,278 231,277 232,277 232,276 233,276 233,276 234,275 234,274 235,273 236,272 237,271 237,270 238,268 238,267 238,265 238,264 238,262 238,261 238,260 237,258 237,257 236,256 235,254 234,253 234,253 233,252 233,252 232,251 232,251 231,251 231,250 230,250 229,250 229,250 228,249 228,249 227,249 226,249 226,249 225,249 224,249 224,249 223,249 223,249 222,249 221,250 221,250 220,250 220,250 219,251 219,251 218,251 217,252 217,252 216,253 216,253 215,254 214,256 214,257 213,258 213,260 212,261 212,262 212,264 212,265 212,267 213,268 213,270 214,271 214,272 215,273 216,274" fill="#000000" stroke="#000000" stroke-width="1" fill-rule="evenodd" data-shape="2"/>
      <polygon points="226,250 223,279 226,250" fill="#000000" stroke="#000000" stroke-width="1" fill-rule="evenodd" data-shape="3"/>
      <polygon points="238,266 212,261 238,266" fill="#000000" stroke="#000000" stroke-width="1" fill-rule="evenodd" data-shape="4"/>
      <polygon points="218,251 233,275 218,251" fill="#000000" stroke="#000000" stroke-width="1" fill-rule="evenodd" data-shape="5"/>
      <polygon points="235,255 214,273 235,255" fill="#000000" stroke="#000000" stroke-width="1" fill-rule="evenodd" data-shape="6"/>
      <polygon points="223,249 229,278 223,249" fill="#000000" stroke="#000000" stroke-width="1" fill-rule="evenodd" data-shape="7"/>
      <polygon points="237,270 215,255 237,270" fill="#000000" stroke="#000000" stroke-width="1" fill-rule="evenodd" data-shape="8"/>
      <polygon points="236,260 211,267 236,260" fill="#000000" stroke="#000000" stroke-width="1" fill-rule="evenodd" data-shape="9"/>
      <polygon points="231,252 218,277 231,252" fill="#000000" stroke="#000000" stroke-width="1" fill-rule="evenodd" data-shape="10"/>
      <polygon points="223,265 223,265 224,266 224,266 225,266 225,266 226,266 226,265 226,265 227,265 227,264 227,264 227,263 227,262 227,262 227,261 226,261 226,260 226,260 225,260 225,260 224,260 224,260 223,260 223,261 223,261 222,262 222,262 222,263 222,264 222,264 223,265 223,265" fill="#000000" stroke="#000000" stroke-width="1" fill-rule="evenodd" data-shape="11"/>
      <polygon points="224,264 208,230 210,229 226,263 226,263 226,264 226,264 226,265 225,265 225,265 224,264 224,264" fill="#000000" stroke="#000000" stroke-width="1" fill-rule="evenodd" data-shape="12"/>
      <polygon points="165,279 165,279 166,280 167,280 167,281 168,281 169,282 169,282 170,283 171,283 171,283 172,283 173,283 174,284 175,284 175,284 176,284 177,284 178,284 178,284 179,283 180,283 181,283 181,283 182,283 183,282 183,282 184,281 185,281 186,280 186,280 187,279 187,279 189,277 190,276 190,274 191,272 192,271 192,269 192,267 192,265 192,264 192,262 192,260 191,258 190,257 190,255 189,254 187,252 187,252 186,251 186,250 185,250 184,249 183,249 183,249 182,248 181,248 181,248 180,247 179,247 178,247 178,247 177,247 176,247 175,247 175,247 174,247 173,247 172,247 171,248 171,248 170,248 169,249 169,249 168,249 167,250 167,250 166,251 165,252 165,252 164,254 163,255 162,257 161,258 161,260 160,262 160,264 160,265 160,267 160,269 161,271 161,272 162,274 163,276 164,277 165,279" fill="#000000" stroke="#000000" stroke-width="1" fill-rule="evenodd" data-shape="13"/>
      <polygon points="167,275 167,276 168,277 169,277 169,277 169,278 170,278 171,279 171,279 172,279 172,279 173,279 174,280 174,280 175,280 176,280 176,280 177,280 177,280 178,280 179,280 179,279 180,279 180,279 181,279 182,279 182,278 183,278 183,277 184,277 184,277 185,276 185,275 186,274 187,273 188,272 188,271 189,269 189,268 189,266 189,265 189,263 189,262 189,261 188,259 188,258 187,257 186,255 185,254 185,254 184,253 184,253 183,252 183,252 182,252 182,251 181,251 180,251 180,251 179,250 179,250 178,250 177,250 177,250 176,250 176,250 175,250 174,250 174,250 173,250 172,251 172,251 171,251 171,251 170,252 169,252 169,252 169,253 168,253 167,254 167,254 166,255 165,257 165,258 164,259 164,261 163,262 163,263 163,265 163,266 163,268 164,269 164,271 165,272 165,273 166,274 167,275" fill="#000000" stroke="#000000" stroke-width="1" fill-rule="evenodd" data-shape="14"/>
      <polygon points="178,252 175,281 178,252" fill="#000000" stroke="#000000" stroke-width="1" fill-rule="evenodd" data-shape="15"/>
      <polygon points="190,268 164,263 190,268" fill="#000000" stroke="#000000" stroke-width="1" fill-rule="evenodd" data-shape="16"/>
      <polygon points="169,253 184,277 169,253" fill="#000000" stroke="#000000" stroke-width="1" fill-rule="evenodd" data-shape="17"/>
      <polygon points="186,256 165,274 186,256" fill="#000000" stroke="#000000" stroke-width="1" fill-rule="evenodd" data-shape="18"/>
      <polygon points="174,251 180,280 174,251" fill="#000000" stroke="#000000" stroke-width="1" fill-rule="evenodd" data-shape="19"/>
      <polygon points="188,272 166,257 188,272" fill="#000000" stroke="#000000" stroke-width="1" fill-rule="evenodd" data-shape="20"/>
      <polygon points="188,261 163,268 188,261" fill="#000000" stroke="#000000" stroke-width="1" fill-rule="evenodd" data-shape="21"/>
      <polygon points="182,253 169,278 182,253" fill="#000000" stroke="#000000" stroke-width="1" fill-rule="evenodd" data-shape="22"/>
      <polygon points="175,267 175,267 176,268 176,268 177,268 177,268 178,268 178,267 178,267 179,267 179,266 179,266 179,265 179,264 179,264 179,263 178,263 178,262 178,262 177,262 177,262 176,262 176,262 175,262 175,263 175,263 174,264 174,264 174,265 174,266 174,266 175,267 175,267" fill="#000000" stroke="#000000" stroke-width="1" fill-rule="evenodd" data-shape="23"/>
      <polygon points="175,264 185,239 188,240 176,265 175,264" fill="#000000" stroke="#000000" stroke-width="1" fill-rule="evenodd" data-shape="24"/>
      <polygon points="216,247 185,248 186,245 215,245 216,247" fill="#000000" stroke="#000000" stroke-width="1" fill-rule="evenodd" data-shape="25"/>
      <polygon points="215,227 207,232 207,233 206,233 206,234 206,234 206,234 207,235 207,235 207,236 208,236 208,237 209,237 209,238 210,238 210,238 210,239 211,239 208,241 208,240 207,240 207,239 206,238 206,238 206,238 205,237 205,237 204,236 204,236 204,236 203,235 203,234 203,233 203,232 203,231 216,224 217,224 217,225 217,226 217,227 217,228 218,229 218,230 219,231 217,231 217,231 216,231 216,230 216,230 215,230 215,229 215,228 215,227" fill="#000000" stroke="#000000" stroke-width="1" fill-rule="evenodd" data-shape="26"/>
      <polygon points="209,231 208,228 210,227 211,230 209,231" fill="#000000" stroke="#000000" stroke-width="1" fill-rule="evenodd" data-shape="27"/>
      <polygon points="196,242 180,238 181,232 181,232 182,232 182,232 182,232 183,233 183,233 184,233 184,234 185,235 186,235 187,236 188,237 190,237 191,238 193,238 196,239 196,242" fill="#000000" stroke="none" stroke-width="0" fill-rule="evenodd" data-shape="28"/>
      <polygon points="220,247 220,247 220,247 220,247 220,247 220,247 220,247 221,247 221,247 221,246 222,246 222,246 223,246 223,246 224,246 225,246 225,246 226,246 227,246 228,246 228,247 229,247 230,247 231,247 232,248 233,248 234,249 235,249 236,250 237,251 238,252 239,253 240,254 240,251 239,250 238,249 237,249 236,248 236,247 235,247 234,247 233,246 232,246 232,245 231,245 230,245 229,245 229,244 228,244 227,244 226,244 226,244 225,244 225,244 224,244 224,244 223,244 222,244 222,244 221,244 221,244 220,244 220,244 219,244 219,245 218,245 220,247" fill="#eded00" stroke="#000000" stroke-width="1" fill-rule="evenodd" data-shape="29"/>
      <polygon points="213,278 213,278 214,279 215,279 215,280 216,280 217,281 217,281 218,282 219,282 220,282 220,282 221,282 222,283 223,283 223,283 224,283 225,283 226,283 226,283 227,282 228,282 229,282 229,282 230,282 231,281 232,281 232,280 233,280 234,279 234,279 235,278 235,278 237,276 238,275 238,273 239,271 240,270 240,268 240,266 240,265 240,262 240,261 240,259 239,257 238,256 238,254 237,253 235,251 235,251 234,250 234,249 233,249 232,248 232,248 231,248 230,247 229,247 229,247 228,246 227,246 226,246 226,246 225,246 224,246 223,246 223,246 222,246 221,246 220,246 220,247 219,247 218,247 217,248 217,248 216,248 215,249 215,249 214,250 213,251 213,251 212,253 211,254 210,256 209,257 209,259 208,261 208,262 208,265 208,266 208,268 209,270 209,271 210,273 211,275 212,276 213,278" fill="#545454" stroke="#000000" stroke-width="1" fill-rule="evenodd" data-shape="30"/>
      <polygon points="216,274 216,275 217,276 217,276 218,276 219,277 219,277 220,278 220,278 221,278 221,278 222,278 223,279 223,279 224,279 224,279 225,279 226,279 226,279 227,279 228,279 228,278 229,278 229,278 230,278 231,278 231,277 232,277 232,276 233,276 233,276 234,275 234,274 235,273 236,272 237,271 237,270 238,268 238,267 238,265 238,264 238,262 238,261 238,260 237,258 237,257 236,256 235,254 234,253 234,253 233,252 233,252 232,251 232,251 231,251 231,250 230,250 229,250 229,250 228,249 228,249 227,249 226,249 226,249 225,249 224,249 224,249 223,249 223,249 222,249 221,250 221,250 220,250 220,250 219,251 219,251 218,251 217,252 217,252 216,253 216,253 215,254 214,256 214,257 213,258 213,260 212,261 212,262 212,264 212,265 212,267 213,268 213,270 214,271 214,272 215,273 216,274" fill="#ffffff" stroke="#000000" stroke-width="1" fill-rule="evenodd" data-shape="31"/>
      <polygon points="226,250 223,279 226,250" fill="#545454" stroke="#000000" stroke-width="1" fill-rule="evenodd" data-shape="32"/>
      <polygon points="238,266 212,261 238,266" fill="#545454" stroke="#000000" stroke-width="1" fill-rule="evenodd" data-shape="33"/>
      <polygon points="218,251 233,275 218,251" fill="#545454" stroke="#000000" stroke-width="1" fill-rule="evenodd" data-shape="34"/>
      <polygon points="235,255 214,273 235,255" fill="#545454" stroke="#000000" stroke-width="1" fill-rule="evenodd" data-shape="35"/>
      <polygon points="223,249 229,278 223,249" fill="#545454" stroke="#000000" stroke-width="1" fill-rule="evenodd" data-shape="36"/>
      <polygon points="237,270 215,255 237,270" fill="#545454" stroke="#000000" stroke-width="1" fill-rule="evenodd" data-shape="37"/>
      <polygon points="236,260 211,267 236,260" fill="#545454" stroke="#000000" stroke-width="1" fill-rule="evenodd" data-shape="38"/>
      <polygon points="231,252 218,277 231,252" fill="#545454" stroke="#000000" stroke-width="1" fill-rule="evenodd" data-shape="39"/>
      <polygon points="223,265 223,265 224,266 224,266 225,266 225,266 226,266 226,265 226,265 227,265 227,264 227,264 227,263 227,262 227,262 227,261 226,261 226,260 226,260 225,260 225,260 224,260 224,260 223,260 223,261 223,261 222,262 222,262 222,263 222,264 222,264 223,265 223,265" fill="#545454" stroke="#000000" stroke-width="1" fill-rule="evenodd" data-shape="40"/>
      <polygon points="224,264 208,230 210,229 226,263 226,263 226,264 226,264 226,265 225,265 225,265 224,264 224,264" fill="#eded00" stroke="#000000" stroke-width="1" fill-rule="evenodd" data-shape="41"/>
      <polygon points="165,279 165,279 166,280 167,280 167,281 168,281 169,282 169,282 170,283 171,283 171,283 172,283 173,283 174,284 175,284 175,284 176,284 177,284 178,284 178,284 179,283 180,283 181,283 181,283 182,283 183,282 183,282 184,281 185,281 186,280 186,280 187,279 187,279 189,277 190,276 190,274 191,272 192,271 192,269 192,267 192,265 192,264 192,262 192,260 191,258 190,257 190,255 189,254 187,252 187,252 186,251 186,250 185,250 184,249 183,249 183,249 182,248 181,248 181,248 180,247 179,247 178,247 178,247 177,247 176,247 175,247 175,247 174,247 173,247 172,247 171,248 171,248 170,248 169,249 169,249 168,249 167,250 167,250 166,251 165,252 165,252 164,254 163,255 162,257 161,258 161,260 160,262 160,264 160,265 160,267 160,269 161,271 161,272 162,274 163,276 164,277 165,279" fill="#545454" stroke="#000000" stroke-width="1" fill-rule="evenodd" data-shape="42"/>
      <polygon points="167,275 167,276 168,277 169,277 169,277 169,278 170,278 171,279 171,279 172,279 172,279 173,279 174,280 174,280 175,280 176,280 176,280 177,280 177,280 178,280 179,280 179,279 180,279 180,279 181,279 182,279 182,278 183,278 183,277 184,277 184,277 185,276 185,275 186,274 187,273 188,272 188,271 189,269 189,268 189,266 189,265 189,263 189,262 189,261 188,259 188,258 187,257 186,255 185,254 185,254 184,253 184,253 183,252 183,252 182,252 182,251 181,251 180,251 180,251 179,250 179,250 178,250 177,250 177,250 176,250 176,250 175,250 174,250 174,250 173,250 172,251 172,251 171,251 171,251 170,252 169,252 169,252 169,253 168,253 167,254 167,254 166,255 165,257 165,258 164,259 164,261 163,262 163,263 163,265 163,266 163,268 164,269 164,271 165,272 165,273 166,274 167,275" fill="#ffffff" stroke="#000000" stroke-width="1" fill-rule="evenodd" data-shape="43"/>
      <polygon points="178,252 175,281 178,252" fill="#545454" stroke="#000000" stroke-width="1" fill-rule="evenodd" data-shape="44"/>
      <polygon points="190,268 164,263 190,268" fill="#545454" stroke="#000000" stroke-width="1" fill-rule="evenodd" data-shape="45"/>
      <polygon points="169,253 184,277 169,253" fill="#545454" stroke="#000000" stroke-width="1" fill-rule="evenodd" data-shape="46"/>
      <polygon points="186,256 165,274 186,256" fill="#545454" stroke="#000000" stroke-width="1" fill-rule="evenodd" data-shape="47"/>
      <polygon points="174,251 180,280 174,251" fill="#545454" stroke="#000000" stroke-width="1" fill-rule="evenodd" data-shape="48"/>
      <polygon points="188,272 166,257 188,272" fill="#545454" stroke="#000000" stroke-width="1" fill-rule="evenodd" data-shape="49"/>
      <polygon points="188,261 163,268 188,261" fill="#545454" stroke="#000000" stroke-width="1" fill-rule="evenodd" data-shape="50"/>
      <polygon points="182,253 169,278 182,253" fill="#545454" stroke="#000000" stroke-width="1" fill-rule="evenodd" data-shape="51"/>
      <polygon points="175,267 175,267 176,268 176,268 177,268 177,268 178,268 178,267 178,267 179,267 179,266 179,266 179,265 179,264 179,264 179,263 178,263 178,262 178,262 177,262 177,262 176,262 176,262 175,262 175,263 175,263 174,264 174,264 174,265 174,266 174,266 175,267 175,267" fill="#545454" stroke="#000000" stroke-width="1" fill-rule="evenodd" data-shape="52"/>
      <polygon points="175,264 185,239 188,240 176,265 175,264" fill="#eded00" stroke="#000000" stroke-width="1" fill-rule="evenodd" data-shape="53"/>
      <polygon points="216,247 185,248 186,245 215,245 216,247" fill="#eded00" stroke="#000000" stroke-width="1" fill-rule="evenodd" data-shape="54"/>
      <polygon points="215,227 207,232 207,233 206,233 206,234 206,234 206,234 207,235 207,235 207,236 208,236 208,237 209,237 209,238 210,238 210,238 210,239 211,239 208,241 208,240 207,240 207,239 206,238 206,238 206,238 205,237 205,237 204,236 204,236 204,236 203,235 203,234 203,233 203,232 203,231 216,224 217,224 217,225 217,226 217,227 217,228 218,229 218,230 219,231 217,231 217,231 216,231 216,230 216,230 215,230 215,229 215,228 215,227" fill="#dd0000" stroke="#000000" stroke-width="1" fill-rule="evenodd" data-shape="55"/>
      <polygon points="209,231 208,228 210,227 211,230 209,231" fill="#999999" stroke="#000000" stroke-width="1" fill-rule="evenodd" data-shape="56"/>
      <polygon points="196,242 180,238 181,232 181,232 182,232 182,232 182,232 183,233 183,233 184,233 184,234 185,235 186,235 187,236 188,237 190,237 191,238 193,238 196,239 196,242" fill="#ba7c4c" stroke="none" stroke-width="0" fill-rule="evenodd" data-shape="57"/>
      <g data-mdcr="group" class="mdcr-region">
        <polygon points="41,48 41,48 41,48 41,48 41,48 41,48 41,48 40,48 40,48 40,47 39,47 39,47 38,47 38,47 37,47 36,47 36,47 35,47 34,47 33,47 33,48 32,48 31,48 30,48 29,49 28,49 27,50 26,50 25,51 24,52 23,53 22,54 21,55 21,52 22,51 23,50 24,50 25,49 25,48 26,48 27,48 28,47 29,47 29,46 30,46 31,46 32,46 32,45 33,45 34,45 35,45 35,45 36,45 36,45 37,45 37,45 38,45 39,45 39,45 40,45 40,45 41,45 41,45 42,45 42,46 43,46 41,48" fill="#000000" stroke="#000000" stroke-width="1" fill-rule="evenodd" data-shape="58"/>
        <polygon points="48,79 48,79 47,80 46,80 46,81 45,81 44,82 44,82 43,83 42,83 41,83 41,83 40,83 39,84 38,84 38,84 37,84 36,84 35,84 35,84 34,83 33,83 32,83 32,83 31,83 30,82 29,82 29,81 28,81 27,80 27,80 26,79 26,79 24,77 23,76 23,74 22,72 21,71 21,69 21,67 21,66 21,63 21,62 21,60 22,58 23,57 23,55 24,54 26,52 26,52 27,51 27,50 28,50 29,49 29,49 30,49 31,48 32,48 32,48 33,47 34,47 35,47 35,47 36,47 37,47 38,47 38,47 39,47 40,47 41,47 41,48 42,48 43,48 44,49 44,49 45,49 46,50 46,50 47,51 48,52 48,52 49,54 50,55 51,57 52,58 52,60 53,62 53,63 53,66 53,67 53,69 52,71 52,72 51,74 50,76 49,77 48,79" fill="#000000" stroke="#000000" stroke-width="1" fill-rule="evenodd" data-shape="59"/>
        <polygon points="45,75 45,76 44,77 44,77 43,77 42,78 42,78 41,79 41,79 40,79 40,79 39,79 38,80 38,80 37,80 37,80 36,80 35,80 35,80 34,80 33,80 33,79 32,79 32,79 31,79 30,79 30,78 29,78 29,77 28,77 28,77 27,76 27,75 26,74 25,73 24,72 24,71 23,69 23,68 23,66 23,65 23,63 23,62 23,61 24,59 24,58 25,57 26,55 27,54 27,54 28,53 28,53 29,52 29,52 30,52 30,51 31,51 32,51 32,51 33,50 33,50 34,50 35,50 35,50 36,50 37,50 37,50 38,50 38,50 39,50 40,51 40,51 41,51 41,51 42,52 42,52 43,52 44,53 44,53 45,54 45,54 46,55 47,57 47,58 48,59 48,61 49,62 49,63 49,65 49,66 49,68 48,69 48,71 47,72 47,73 46,74 45,75" fill="#000000" stroke="#000000" stroke-width="1" fill-rule="evenodd" data-shape="60"/>
        <polygon points="35,51 38,80 35,51" fill="#000000" stroke="#000000" stroke-width="1" fill-rule="evenodd" data-shape="61"/>
        <polygon points="23,67 49,62 23,67" fill="#000000" stroke="#000000" stroke-width="1" fill-rule="evenodd" data-shape="62"/>
        <polygon points="43,52 28,76 43,52" fill="#000000" stroke="#000000" stroke-width="1" fill-rule="evenodd" data-shape="63"/>
        <polygon points="26,56 47,74 26,56" fill="#000000" stroke="#000000" stroke-width="1" fill-rule="evenodd" data-shape="64"/>
        <polygon points="38,50 32,79 38,50" fill="#000000" stroke="#000000" stroke-width="1" fill-rule="evenodd" data-shape="65"/>
        <polygon points="24,71 46,56 24,71" fill="#000000" stroke="#000000" stroke-width="1" fill-rule="evenodd" data-shape="66"/>
        <polygon points="25,61 50,68 25,61" fill="#000000" stroke="#000000" stroke-width="1" fill-rule="evenodd" data-shape="67"/>
        <polygon points="30,53 43,78 30,53" fill="#000000" stroke="#000000" stroke-width="1" fill-rule="evenodd" data-shape="68"/>
        <polygon points="38,66 38,66 37,67 37,67 36,67 36,67 35,67 35,66 35,66 34,66 34,65 34,65 34,64 34,63 34,63 34,62 35,62 35,61 35,61 36,61 36,61 37,61 37,61 38,61 38,62 38,62 39,63 39,63 39,64 39,65 39,65 38,66 38,66" fill="#000000" stroke="#000000" stroke-width="1" fill-rule="evenodd" data-shape="69"/>
        <polygon points="37,65 53,31 51,30 35,64 35,64 35,65 35,65 35,66 36,66 36,66 37,65 37,65" fill="#000000" stroke="#000000" stroke-width="1" fill-rule="evenodd" data-shape="70"/>
        <polygon points="96,80 96,80 95,81 94,81 94,82 93,82 92,83 92,83 91,84 90,84 90,84 89,84 88,84 87,85 86,85 86,85 85,85 84,85 83,85 83,85 82,84 81,84 80,84 80,84 79,84 78,83 78,83 77,82 76,82 75,81 75,81 74,80 74,80 72,78 71,77 71,75 70,73 69,72 69,70 69,68 69,66 69,65 69,63 69,61 70,59 71,58 71,56 72,55 74,53 74,53 75,52 75,51 76,51 77,50 78,50 78,50 79,49 80,49 80,49 81,48 82,48 83,48 83,48 84,48 85,48 86,48 86,48 87,48 88,48 89,48 90,49 90,49 91,49 92,50 92,50 93,50 94,51 94,51 95,52 96,53 96,53 97,55 98,56 99,58 100,59 100,61 101,63 101,65 101,66 101,68 101,70 100,72 100,73 99,75 98,77 97,78 96,80" fill="#000000" stroke="#000000" stroke-width="1" fill-rule="evenodd" data-shape="71"/>
        <polygon points="94,76 94,77 93,78 92,78 92,78 92,79 91,79 90,80 90,80 89,80 89,80 88,80 87,81 87,81 86,81 85,81 85,81 84,81 84,81 83,81 82,81 82,80 81,80 81,80 80,80 79,80 79,79 78,79 78,78 77,78 77,78 76,77 76,76 75,75 74,74 73,73 73,72 72,70 72,69 72,67 72,66 72,64 72,63 72,62 73,60 73,59 74,58 75,56 76,55 76,55 77,54 77,54 78,53 78,53 79,53 79,52 80,52 81,52 81,52 82,51 82,51 83,51 84,51 84,51 85,51 85,51 86,51 87,51 87,51 88,51 89,52 89,52 90,52 90,52 91,53 92,53 92,53 92,54 93,54 94,55 94,55 95,56 96,58 96,59 97,60 97,62 98,63 98,64 98,66 98,67 98,69 97,70 97,72 96,73 96,74 95,75 94,76" fill="#000000" stroke="#000000" stroke-width="1" fill-rule="evenodd" data-shape="72"/>
        <polygon points="83,53 86,82 83,53" fill="#000000" stroke="#000000" stroke-width="1" fill-rule="evenodd" data-shape="73"/>
        <polygon points="71,69 97,64 71,69" fill="#000000" stroke="#000000" stroke-width="1" fill-rule="evenodd" data-shape="74"/>
        <polygon points="92,54 77,78 92,54" fill="#000000" stroke="#000000" stroke-width="1" fill-rule="evenodd" data-shape="75"/>
        <polygon points="75,57 96,75 75,57" fill="#000000" stroke="#000000" stroke-width="1" fill-rule="evenodd" data-shape="76"/>
        <polygon points="87,52 81,81 87,52" fill="#000000" stroke="#000000" stroke-width="1" fill-rule="evenodd" data-shape="77"/>
        <polygon points="73,73 95,58 73,73" fill="#000000" stroke="#000000" stroke-width="1" fill-rule="evenodd" data-shape="78"/>
        <polygon points="73,62 98,69 73,62" fill="#000000" stroke="#000000" stroke-width="1" fill-rule="evenodd" data-shape="79"/>
        <polygon points="79,54 92,79 79,54" fill="#000000" stroke="#000000" stroke-width="1" fill-rule="evenodd" data-shape="80"/>
        <polygon points="86,68 86,68 85,69 85,69 84,69 84,69 83,69 83,68 83,68 82,68 82,67 82,67 82,66 82,65 82,65 82,64 83,64 83,63 83,63 84,63 84,63 85,63 85,63 86,63 86,64 86,64 87,65 87,65 87,66 87,67 87,67 86,68 86,68" fill="#000000" stroke="#000000" stroke-width="1" fill-rule="evenodd" data-shape="81"/>
        <polygon points="86,65 76,40 73,41 85,66 86,65" fill="#000000" stroke="#000000" stroke-width="1" fill-rule="evenodd" data-shape="82"/>
        <polygon points="45,48 76,49 75,46 46,46 45,48" fill="#000000" stroke="#000000" stroke-width="1" fill-rule="evenodd" data-shape="83"/>
        <polygon points="46,28 54,33 54,34 55,34 55,35 55,35 55,35 54,36 54,36 54,37 53,37 53,38 52,38 52,39 51,39 51,39 51,40 50,40 53,42 53,41 54,41 54,40 55,39 55,39 55,39 56,38 56,38 57,37 57,37 57,37 58,36 58,35 58,34 58,33 58,32 45,25 44,25 44,26 44,27 44,28 44,29 43,30 43,31 42,32 44,32 44,32 45,32 45,31 45,31 46,31 46,30 46,29 46,28" fill="#000000" stroke="#000000" stroke-width="1" fill-rule="evenodd" data-shape="84"/>
        <polygon points="52,32 53,29 51,28 50,31 52,32" fill="#000000" stroke="#000000" stroke-width="1" fill-rule="evenodd" data-shape="85"/>
        <polygon points="65,43 81,39 80,33 80,33 79,33 79,33 79,33 78,34 78,34 77,34 77,35 76,36 75,36 74,37 73,38 71,38 70,39 68,39 65,40 65,43" fill="#000000" stroke="none" stroke-width="0" fill-rule="evenodd" data-shape="86"/>
        <polygon points="41,48 41,48 41,48 41,48 41,48 41,48 41,48 40,48 40,48 40,47 39,47 39,47 38,47 38,47 37,47 36,47 36,47 35,47 34,47 33,47 33,48 32,48 31,48 30,48 29,49 28,49 27,50 26,50 25,51 24,52 23,53 22,54 21,55 21,52 22,51 23,50 24,50 25,49 25,48 26,48 27,48 28,47 29,47 29,46 30,46 31,46 32,46 32,45 33,45 34,45 35,45 35,45 36,45 36,45 37,45 37,45 38,45 39,45 39,45 40,45 40,45 41,45 41,45 42,45 42,46 43,46 41,48" fill="#eded00" stroke="#000000" stroke-width="1" fill-rule="evenodd" data-shape="87"/>
        <polygon points="48,79 48,79 47,80 46,80 46,81 45,81 44,82 44,82 43,83 42,83 41,83 41,83 40,83 39,84 38,84 38,84 37,84 36,84 35,84 35,84 34,83 33,83 32,83 32,83 31,83 30,82 29,82 29,81 28,81 27,80 27,80 26,79 26,79 24,77 23,76 23,74 22,72 21,71 21,69 21,67 21,66 21,63 21,62 21,60 22,58 23,57 23,55 24,54 26,52 26,52 27,51 27,50 28,50 29,49 29,49 30,49 31,48 32,48 32,48 33,47 34,47 35,47 35,47 36,47 37,47 38,47 38,47 39,47 40,47 41,47 41,48 42,48 43,48 44,49 44,49 45,49 46,50 46,50 47,51 48,52 48,52 49,54 50,55 51,57 52,58 52,60 53,62 53,63 53,66 53,67 53,69 52,71 52,72 51,74 50,76 49,77 48,79" fill="#545454" stroke="#000000" stroke-width="1" fill-rule="evenodd" data-shape="88"/>
        <polygon points="45,75 45,76 44,77 44,77 43,77 42,78 42,78 41,79 41,79 40,79 40,79 39,79 38,80 38,80 37,80 37,80 36,80 35,80 35,80 34,80 33,80 33,79 32,79 32,79 31,79 30,79 30,78 29,78 29,77 28,77 28,77 27,76 27,75 26,74 25,73 24,72 24,71 23,69 23,68 23,66 23,65 23,63 23,62 23,61 24,59 24,58 25,57 26,55 27,54 27,54 28,53 28,53 29,52 29,52 30,52 30,51 31,51 32,51 32,51 33,50 33,50 34,50 35,50 35,50 36,50 37,50 37,50 38,50 38,50 39,50 40,51 40,51 41,51 41,51 42,52 42,52 43,52 44,53 44,53 45,54 45,54 46,55 47,57 47,58 48,59 48,61 49,62 49,63 49,65 49,66 49,68 48,69 48,71 47,72 47,73 46,74 45,75" fill="#ffffff" stroke="#000000" stroke-width="1" fill-rule="evenodd" data-shape="89"/>
        <polygon points="35,51 38,80 35,51" fill="#545454" stroke="#000000" stroke-width="1" fill-rule="evenodd" data-shape="90"/>
        <polygon points="23,67 49,62 23,67" fill="#545454" stroke="#000000" stroke-width="1" fill-rule="evenodd" data-shape="91"/>
        <polygon points="43,52 28,76 43,52" fill="#545454" stroke="#000000" stroke-width="1" fill-rule="evenodd" data-shape="92"/>
        <polygon points="26,56 47,74 26,56" fill="#545454" stroke="#000000" stroke-width="1" fill-rule="evenodd" data-shape="93"/>
        <polygon points="38,50 32,79 38,50" fill="#545454" stroke="#000000" stroke-width="1" fill-rule="evenodd" data-shape="94"/>
        <polygon points="24,71 46,56 24,71" fill="#545454" stroke="#000000" stroke-width="1" fill-rule="evenodd" data-shape="95"/>
        <polygon points="25,61 50,68 25,61" fill="#545454" stroke="#000000" stroke-width="1" fill-rule="evenodd" data-shape="96"/>
        <polygon points="30,53 43,78 30,53" fill="#545454" stroke="#000000" stroke-width="1" fill-rule="evenodd" data-shape="97"/>
        <polygon points="38,66 38,66 37,67 37,67 36,67 36,67 35,67 35,66 35,66 34,66 34,65 34,65 34,64 34,63 34,63 34,62 35,62 35,61 35,61 36,61 36,61 37,61 37,61 38,61 38,62 38,62 39,63 39,63 39,64 39,65 39,65 38,66 38,66" fill="#545454" stroke="#000000" stroke-width="1" fill-rule="evenodd" data-shape="98"/>
        <polygon points="37,65 53,31 51,30 35,64 35,64 35,65 35,65 35,66 36,66 36,66 37,65 37,65" fill="#eded00" stroke="#000000" stroke-width="1" fill-rule="evenodd" data-shape="99"/>
        <polygon points="96,80 96,80 95,81 94,81 94,82 93,82 92,83 92,83 91,84 90,84 90,84 89,84 88,84 87,85 86,85 86,85 85,85 84,85 83,85 83,85 82,84 81,84 80,84 80,84 79,84 78,83 78,83 77,82 76,82 75,81 75,81 74,80 74,80 72,78 71,77 71,75 70,73 69,72 69,70 69,68 69,66 69,65 69,63 69,61 70,59 71,58 71,56 72,55 74,53 74,53 75,52 75,51 76,51 77,50 78,50 78,50 79,49 80,49 80,49 81,48 82,48 83,48 83,48 84,48 85,48 86,48 86,48 87,48 88,48 89,48 90,49 90,49 91,49 92,50 92,50 93,50 94,51 94,51 95,52 96,53 96,53 97,55 98,56 99,58 100,59 100,61 101,63 101,65 101,66 101,68 101,70 100,72 100,73 99,75 98,77 97,78 96,80" fill="#545454" stroke="#000000" stroke-width="1" fill-rule="evenodd" data-shape="100"/>
        <polygon points="94,76 94,77 93,78 92,78 92,78 92,79 91,79 90,80 90,80 89,80 89,80 88,80 87,81 87,81 86,81 85,81 85,81 84,81 84,81 83,81 82,81 82,80 81,80 81,80 80,80 79,80 79,79 78,79 78,78 77,78 77,78 76,77 76,76 75,75 74,74 73,73 73,72 72,70 72,69 72,67 72,66 72,64 72,63 72,62 73,60 73,59 74,58 75,56 76,55 76,55 77,54 77,54 78,53 78,53 79,53 79,52 80,52 81,52 81,52 82,51 82,51 83,51 84,51 84,51 85,51 85,51 86,51 87,51 87,51 88,51 89,52 89,52 90,52 90,52 91,53 92,53 92,53 92,54 93,54 94,55 94,55 95,56 96,58 96,59 97,60 97,62 98,63 98,64 98,66 98,67 98,69 97,70 97,72 96,73 96,74 95,75 94,76" fill="#ffffff" stroke="#000000" stroke-width="1" fill-rule="evenodd" data-shape="101"/>
        <polygon points="83,53 86,82 83,53" fill="#545454" stroke="#000000" stroke-width="1" fill-rule="evenodd" data-shape="102"/>
        <polygon points="71,69 97,64 71,69" fill="#545454" stroke="#000000" stroke-width="1" fill-rule="evenodd" data-shape="103"/>
        <polygon points="92,54 77,78 92,54" fill="#545454" stroke="#000000" stroke-width="1" fill-rule="evenodd" data-shape="104"/>
        <polygon points="75,57 96,75 75,57" fill="#545454" stroke="#000000" stroke-width="1" fill-rule="evenodd" data-shape="105"/>
        <polygon points="87,52 81,81 87,52" fill="#545454" stroke="#000000" stroke-width="1" fill-rule="evenodd" data-shape="106"/>
        <polygon points="73,73 95,58 73,73" fill="#545454" stroke="#000000" stroke-width="1" fill-rule="evenodd" data-shape="107"/>
        <polygon points="73,62 98,69 73,62" fill="#545454" stroke="#000000" stroke-width="1" fill-rule="evenodd" data-shape="108"/>
        <polygon points="79,54 92,79 79,54" fill="#545454" stroke="#000000" stroke-width="1" fill-rule="evenodd" data-shape="109"/>
        <polygon points="86,68 86,68 85,69 85,69 84,69 84,69 83,69 83,68 83,68 82,68 82,67 82,67 82,66 82,65 82,65 82,64 83,64 83,63 83,63 84,63 84,63 85,63 85,63 86,63 86,64 86,64 87,65 87,65 87,66 87,67 87,67 86,68 86,68" fill="#545454" stroke="#000000" stroke-width="1" fill-rule="evenodd" data-shape="110"/>
        <polygon points="86,65 76,40 73,41 85,66 86,65" fill="#eded00" stroke="#000000" stroke-width="1" fill-rule="evenodd" data-shape="111"/>
        <polygon points="45,48 76,49 75,46 46,46 45,48" fill="#eded00" stroke="#000000" stroke-width="1" fill-rule="evenodd" data-shape="112"/>
        <polygon points="46,28 54,33 54,34 55,34 55,35 55,35 55,35 54,36 54,36 54,37 53,37 53,38 52,38 52,39 51,39 51,39 51,40 50,40 53,42 53,41 54,41 54,40 55,39 55,39 55,39 56,38 56,38 57,37 57,37 57,37 58,36 58,35 58,34 58,33 58,32 45,25 44,25 44,26 44,27 44,28 44,29 43,30 43,31 42,32 44,32 44,32 45,32 45,31 45,31 46,31 46,30 46,29 46,28" fill="#dd0000" stroke="#000000" stroke-width="1" fill-rule="evenodd" data-shape="113"/>
        <polygon points="52,32 53,29 51,28 50,31 52,32" fill="#999999" stroke="#000000" stroke-width="1" fill-rule="evenodd" data-shape="114"/>
        <polygon points="65,43 81,39 80,33 80,33 79,33 79,33 79,33 78,34 78,34 77,34 77,35 76,36 75,36 74,37 73,38 71,38 70,39 68,39 65,40 65,43" fill="#ba7c4c" stroke="none" stroke-width="0" fill-rule="evenodd" data-shape="115"/>
        <g data-mdcr="group" class="mdcr-region">
          <polygon points="148,54 147,36 147,35 147,34 147,34 147,34 147,33 148,33 148,33 148,33 148,33 149,33 149,33 149,34 149,34 149,35 149,35 150,36 150,53 148,54" fill="#000000" stroke="#000000" stroke-width="1" fill-rule="evenodd" data-shape="116"/>
          <polygon points="150,52 150,35 150,35 150,34 150,33 150,33 151,33 151,32 151,32 151,32 152,32 152,32 152,32 152,33 152,33 152,34 153,35 153,36 152,53 150,52" fill="#000000" stroke="#000000" stroke-width="1" fill-rule="evenodd" data-shape="117"/>
          <polygon points="147,45 143,37 143,36 143,35 143,34 143,34 143,33 144,33 144,33 144,33 144,33 145,33 145,33 145,34 146,34 146,34 146,35 146,35 147,45" fill="#000000" stroke="#000000" stroke-width="1" fill-rule="evenodd" data-shape="118"/>
          <polygon points="145,84 144,85 144,85 143,86 143,86 142,86 142,87 141,87 141,87 140,87 139,87 138,86 138,86 137,86 137,85 136,85 136,84 135,82 134,80 134,78 134,77 134,74 134,72 135,71 136,69 136,68 137,68 137,67 138,67 138,66 139,66 140,66 141,66 141,66 142,66 142,66 143,67 143,67 144,68 144,68 145,69 146,71 146,72 147,74 147,77 147,78 146,80 146,82 145,84" fill="#000000" stroke="#000000" stroke-width="1" fill-rule="evenodd" data-shape="119"/>
          <polygon points="192,85 192,86 191,86 190,87 190,87 189,87 189,88 188,88 188,88 187,88 186,88 185,87 185,87 184,87 184,86 183,86 183,85 182,83 181,81 181,79 181,77 181,75 181,73 182,72 183,70 183,69 184,69 184,68 185,68 185,67 186,67 187,67 188,67 188,67 189,67 189,67 190,68 190,68 191,69 192,69 192,70 193,72 193,73 194,75 194,77 194,79 193,81 193,83 192,85" fill="#000000" stroke="#000000" stroke-width="1" fill-rule="evenodd" data-shape="120"/>
          <polygon points="126,75 131,76 132,75 133,74 133,73 134,72 134,71 135,71 136,70 136,70 137,69 137,69 138,69 138,68 139,68 139,68 140,68 141,68 141,69 142,69 142,69 143,69 143,70 144,70 144,71 145,71 145,71 146,72 146,72 147,73 147,74 148,75 148,76 149,76 178,76 179,75 180,74 180,73 181,72 182,72 182,71 183,71 184,70 184,70 185,70 186,69 186,69 187,69 188,69 188,69 189,70 189,70 190,70 190,70 191,71 192,71 192,71 193,72 193,72 194,73 194,73 194,74 195,74 195,75 195,76 195,76 196,77 208,76 209,75 209,74 209,73 209,71 209,69 208,68 208,66 207,64 207,62 206,61 205,59 204,58 203,57 202,56 201,55 199,55 183,51 181,45 179,50 148,51 147,42 146,43 145,43 144,44 142,45 141,45 140,46 139,46 138,47 137,47 136,48 135,48 135,49 134,50 133,50 132,51 131,52 130,52 129,53 129,54 128,55 128,56 127,57 127,58 127,60 126,61 126,63 126,65 126,67 126,69 126,71 126,73 126,75" fill="#000000" stroke="#000000" stroke-width="1" fill-rule="evenodd" data-shape="121"/>
          <polygon points="181,45 177,30 176,31 180,50 181,45" fill="#000000" stroke="#000000" stroke-width="1" fill-rule="evenodd" data-shape="122"/>
          <polygon points="208,68 211,68 211,76 208,76 208,68" fill="#000000" stroke="#000000" stroke-width="1" fill-rule="evenodd" data-shape="123"/>
          <polygon points="123,66 127,66 127,75 123,75 123,66" fill="#000000" stroke="none" stroke-width="0" fill-rule="evenodd" data-shape="124"/>
          <polygon points="148,54 147,36 147,35 147,34 147,34 147,34 147,33 148,33 148,33 148,33 148,33 149,33 149,33 149,34 149,34 149,35 149,35 150,36 150,53 148,54" fill="#ffba00" stroke="#000000" stroke-width="1" fill-rule="evenodd" data-shape="125"/>
          <polygon points="150,52 150,35 150,35 150,34 150,33 150,33 151,33 151,32 151,32 151,32 152,32 152,32 152,32 152,33 152,33 152,34 153,35 153,36 152,53 150,52" fill="#ffba00" stroke="#000000" stroke-width="1" fill-rule="evenodd" data-shape="126"/>
          <polygon points="147,45 143,37 143,36 143,35 143,34 143,34 143,33 144,33 144,33 144,33 144,33 145,33 145,33 145,34 146,34 146,34 146,35 146,35 147,45" fill="#ffba00" stroke="#000000" stroke-width="1" fill-rule="evenodd" data-shape="127"/>
          <polygon points="145,84 144,85 144,85 143,86 143,86 142,86 142,87 141,87 141,87 140,87 139,87 138,86 138,86 137,86 137,85 136,85 136,84 135,82 134,80 134,78 134,77 134,74 134,72 135,71 136,69 136,68 137,68 137,67 138,67 138,66 139,66 140,66 141,66 141,66 142,66 142,66 143,67 143,67 144,68 144,68 145,69 146,71 146,72 147,74 147,77 147,78 146,80 146,82 145,84" fill="#333333" stroke="#000000" stroke-width="1" fill-rule="evenodd" data-shape="128"/>
          <polygon points="141,80 141,81 140,81 140,81 140,81 140,82 139,82 139,82 139,82 139,82 138,82 138,82 138,81 137,81 137,81 137,81 137,80 136,79 136,79 136,77 136,76 136,75 136,74 136,73 137,72 137,72 137,72 137,72 138,71 138,71 138,71 139,71 139,71 139,71 139,71 140,71 140,71 140,72 140,72 141,72 141,72 141,73 142,74 142,75 142,76 142,77 142,79 141,79 141,80" fill="#eded00" stroke="#000000" stroke-width="1" fill-rule="evenodd" data-shape="129"/>
          <polygon points="192,85 192,86 191,86 190,87 190,87 189,87 189,88 188,88 188,88 187,88 186,88 185,87 185,87 184,87 184,86 183,86 183,85 182,83 181,81 181,79 181,77 181,75 181,73 182,72 183,70 183,69 184,69 184,68 185,68 185,67 186,67 187,67 188,67 188,67 189,67 189,67 190,68 190,68 191,69 192,69 192,70 193,72 193,73 194,75 194,77 194,79 193,81 193,83 192,85" fill="#333333" stroke="#000000" stroke-width="1" fill-rule="evenodd" data-shape="130"/>
          <polygon points="189,80 189,81 188,81 188,81 188,81 188,82 187,82 187,82 187,82 187,82 186,82 186,82 186,81 185,81 185,81 185,81 185,80 184,80 184,79 184,78 184,77 184,76 184,75 184,74 185,73 185,73 185,73 185,73 186,72 186,72 186,72 187,72 187,72 187,72 187,72 188,72 188,72 188,73 188,73 189,73 189,73 189,74 190,75 190,76 190,77 190,78 190,79 189,80 189,80" fill="#eded00" stroke="#000000" stroke-width="1" fill-rule="evenodd" data-shape="131"/>
          <polygon points="126,75 131,76 132,75 133,74 133,73 134,72 134,71 135,71 136,70 136,70 137,69 137,69 138,69 138,68 139,68 139,68 140,68 141,68 141,69 142,69 142,69 143,69 143,70 144,70 144,71 145,71 145,71 146,72 146,72 147,73 147,74 148,75 148,76 149,76 178,76 179,75 180,74 180,73 181,72 182,72 182,71 183,71 184,70 184,70 185,70 186,69 186,69 187,69 188,69 188,69 189,70 189,70 190,70 190,70 191,71 192,71 192,71 193,72 193,72 194,73 194,73 194,74 195,74 195,75 195,76 195,76 196,77 208,76 209,75 209,74 209,73 209,71 209,69 208,68 208,66 207,64 207,62 206,61 205,59 204,58 203,57 202,56 201,55 199,55 183,51 181,45 179,50 148,51 147,42 146,43 145,43 144,44 142,45 141,45 140,46 139,46 138,47 137,47 136,48 135,48 135,49 134,50 133,50 132,51 131,52 130,52 129,53 129,54 128,55 128,56 127,57 127,58 127,60 126,61 126,63 126,65 126,67 126,69 126,71 126,73 126,75" fill="#dd0000" stroke="#000000" stroke-width="1" fill-rule="evenodd" data-shape="132"/>
          <polygon points="181,45 177,30 176,31 180,50 181,45" fill="#bababa" stroke="#000000" stroke-width="1" fill-rule="evenodd" data-shape="133"/>
          <polygon points="206,66 206,66 206,66 205,67 205,67 205,67 205,67 205,67 205,68 204,68 204,68 204,68 204,68 203,68 203,67 203,67 202,67 202,66 202,66 201,65 201,64 201,63 201,62 201,61 201,60 201,60 201,59 201,59 201,59 202,59 202,58 202,58 202,58 202,58 202,58 203,58 203,58 204,58 204,58 204,58 204,59 205,59 205,60 205,61 206,62 206,63 206,64 206,64 206,66" fill="#bababa" stroke="#000000" stroke-width="1" fill-rule="evenodd" data-shape="134"/>
          <polygon points="177,51 178,76 177,51" fill="#bababa" stroke="#000000" stroke-width="1" fill-rule="evenodd" data-shape="135"/>
          <polygon points="162,51 162,76 162,51" fill="#bababa" stroke="#000000" stroke-width="1" fill-rule="evenodd" data-shape="136"/>
          <polygon points="163,60 166,60 166,62 163,62 163,60" fill="#bababa" stroke="#000000" stroke-width="1" fill-rule="evenodd" data-shape="137"/>
          <polygon points="208,68 211,68 211,76 208,76 208,68" fill="#bababa" stroke="#000000" stroke-width="1" fill-rule="evenodd" data-shape="138"/>
          <polygon points="123,66 127,66 127,75 123,75 123,66" fill="#bababa" stroke="none" stroke-width="0" fill-rule="evenodd" data-shape="139"/>
        </g>
        <g data-mdcr="group" class="mdcr-region">
          <polygon points="288,85 288,86 287,86 287,86 287,87 287,87 286,87 286,87 286,87 286,87 286,87 286,87 285,87 285,86 285,86 284,86 284,85 284,84 283,84 283,83 283,81 283,80 283,79 284,79 284,78 284,77 285,77 285,77 285,76 286,76 286,76 286,76 286,76 286,76 286,76 287,76 287,76 287,77 287,77 288,77 288,78 288,79 289,79 289,80 289,81 289,83 289,84 288,84 288,85 288,85 288,85" fill="#ffffff" stroke="none" stroke-width="0" fill-rule="evenodd" data-shape="140"/>
          <polyline points="288,85 288,86 287,86 287,86 287,87 287,87 286,87 286,87 286,87 286,87 286,87 286,87 285,87 285,86 285,86 284,86 284,85 284,84 283,84 283,83 283,81 283,80 283,79 284,79 284,78 284,77 285,77 285,77 285,76 286,76 286,76 286,76 286,76 286,76 286,76 287,76 287,76 287,77 287,77 288,77 288,78 288,79 289,79 289,80 289,81 289,83 289,84 288,84 288,85 288,85" fill="none" stroke="#ffffff" stroke-width="1"/>
          <g data-mdcr="group" class="mdcr-region">
            <polygon points="234,78 234,53 241,46 242,11 242,11 243,10 244,10 244,10 246,10 248,10 249,9 251,9 253,9 256,9 257,9 260,9 262,9 264,9 267,9 269,9 272,9 275,9 277,9 279,9 282,9 283,10 286,10 288,10 290,10 291,11 293,11 294,11 295,11 296,11 297,11 297,12 296,51 296,51 296,52 295,53 295,53 295,53 295,53 295,54 294,54 294,55 293,56 293,58 293,61 293,63 293,67 293,72 293,78 293,77 292,76 292,76 291,76 291,75 291,74 291,74 291,73 290,73 290,72 290,72 289,71 289,71 288,71 288,71 287,71 287,71 287,71 287,71 286,71 286,71 285,71 285,71 284,72 284,72 283,73 283,74 283,75 282,76 282,76 281,77 280,78 252,78 252,77 252,77 252,76 252,76 251,75 251,75 251,74 250,74 250,73 250,72 249,72 249,72 248,71 248,71 248,71 248,71 247,71 247,71 246,71 246,71 245,71 245,71 244,71 244,71 244,72 244,73 243,73 243,74 242,75 241,76 241,77 240,78 234,78 234,78 234,78" fill="#dd0000" stroke="none" stroke-width="0" fill-rule="evenodd" data-shape="141"/>
            <polygon points="242,35 249,34 249,47 242,47 242,35 242,35 242,35" fill="#dd0000" stroke="none" stroke-width="0" fill-rule="evenodd" data-shape="142"/>
            <polygon points="280,46 280,34 290,34 290,46 280,46 280,46 280,46" fill="#dd0000" stroke="none" stroke-width="0" fill-rule="evenodd" data-shape="143"/>
            <polygon points="266,34 277,34 277,46 266,46 266,34 266,34 266,34" fill="#dd0000" stroke="none" stroke-width="0" fill-rule="evenodd" data-shape="144"/>
            <polygon points="252,46 263,46 263,34 252,34 252,46 252,46 252,46" fill="#dd0000" stroke="none" stroke-width="0" fill-rule="evenodd" data-shape="145"/>
            <polygon points="243,17 243,29 252,29 252,17 243,17 243,17 243,17" fill="#dd0000" stroke="none" stroke-width="0" fill-rule="evenodd" data-shape="146"/>
            <polygon points="255,17 264,17 264,29 255,29 255,17 255,17 255,17" fill="#dd0000" stroke="none" stroke-width="0" fill-rule="evenodd" data-shape="147"/>
            <polygon points="266,17 266,29 275,29 275,17 266,17 266,17 266,17" fill="#dd0000" stroke="none" stroke-width="0" fill-rule="evenodd" data-shape="148"/>
            <polygon points="288,17 294,17 294,29 288,29 288,17 288,17 288,17" fill="#dd0000" stroke="none" stroke-width="0" fill-rule="evenodd" data-shape="149"/>
            <polygon points="277,17 277,29 286,29 286,17 277,17 277,17 277,17" fill="#dd0000" stroke="none" stroke-width="0" fill-rule="evenodd" data-shape="150"/>
          </g>
          <polygon points="280,46 280,34 290,34 290,46 280,46 280,46 280,46" fill="#000000" stroke="none" stroke-width="0" fill-rule="evenodd" data-shape="151"/>
          <polygon points="266,34 277,34 277,46 266,46 266,34 266,34 266,34" fill="#000000" stroke="none" stroke-width="0" fill-rule="evenodd" data-shape="152"/>
          <polygon points="253,46 264,46 264,34 253,34 253,46 253,46 253,46" fill="#000000" stroke="none" stroke-width="0" fill-rule="evenodd" data-shape="153"/>
          <polygon points="244,17 244,29 253,29 253,17 244,17 244,17 244,17" fill="#000000" stroke="none" stroke-width="0" fill-rule="evenodd" data-shape="154"/>
          <polygon points="255,17 264,17 264,29 255,29 255,17 255,17 255,17" fill="#000000" stroke="none" stroke-width="0" fill-rule="evenodd" data-shape="155"/>
          <polygon points="265,17 265,29 274,29 274,17 265,17 265,17 265,17" fill="#000000" stroke="none" stroke-width="0" fill-rule="evenodd" data-shape="156"/>
          <polygon points="287,17 293,17 293,29 287,29 287,17 287,17 287,17" fill="#000000" stroke="none" stroke-width="0" fill-rule="evenodd" data-shape="157"/>
          <polygon points="233,57 235,57 235,63 233,63 233,57 233,57 233,57" fill="#545454" stroke="none" stroke-width="0" fill-rule="evenodd" data-shape="158"/>
          <polyline points="233,57 235,57 235,63 233,63 233,57 233,57" fill="none" stroke="#ffffff" stroke-width="1"/>
          <polygon points="233,57 235,57 235,63 233,63 233,57 233,57 233,57" fill="#000000" stroke="none" stroke-width="0" fill-rule="evenodd" data-shape="159"/>
          <polyline points="233,57 235,57 235,63 233,63 233,57" fill="none" stroke="#ffffff" stroke-width="1"/>
          <polyline points="249,73 249,35 242,35 242,75" fill="none" stroke="#ffffff" stroke-width="1"/>
          <polygon points="249,57 291,57 291,63 249,63 249,57 249,57 249,57" fill="#bababa" stroke="#ffffff" stroke-width="1" fill-rule="evenodd" data-shape="160"/>
          <polygon points="243,36 243,47 248,47 248,36 243,36 243,36" fill="#000000" stroke="none" stroke-width="0" fill-rule="evenodd" data-shape="161"/>
          <polygon points="275,29 275,17 285,17 285,29 275,29 275,29 275,29" fill="#000000" stroke="none" stroke-width="0" fill-rule="evenodd" data-shape="162"/>
          <ellipse cx="288" cy="82" rx="5" ry="9" fill="#000000" stroke="#000000" stroke-width="1" data-shape="163"/>
          <ellipse cx="247" cy="82" rx="5" ry="9" fill="#000000" stroke="#000000" stroke-width="1" data-shape="164"/>
        </g>
        <g data-mdcr="group" class="mdcr-region">
          <polygon points="366,55 366,55 366,55 366,55 366,55 366,55 366,55 367,55 367,55 367,54 368,54 368,54 369,54 369,54 370,54 371,54 371,54 372,54 373,54 374,54 374,55 375,55 376,55 377,55 378,56 379,56 380,57 381,57 382,58 383,59 384,60 385,61 386,62 386,59 385,58 384,57 383,57 382,56 382,55 381,55 380,55 379,54 378,54 378,53 377,53 376,53 375,53 375,52 374,52 373,52 372,52 372,52 371,52 371,52 370,52 370,52 369,52 368,52 368,52 367,52 367,52 366,52 366,52 365,52 365,53 364,53 366,55" fill="#000000" stroke="#000000" stroke-width="1" fill-rule="evenodd" data-shape="165"/>
          <polygon points="359,86 359,86 360,87 361,87 361,88 362,88 363,89 363,89 364,90 365,90 366,90 366,90 367,90 368,91 369,91 369,91 370,91 371,91 372,91 372,91 373,90 374,90 375,90 375,90 376,90 377,89 378,89 378,88 379,88 380,87 380,87 381,86 381,86 383,84 384,83 384,81 385,79 386,78 386,76 386,74 386,73 386,70 386,69 386,67 385,65 384,64 384,62 383,61 381,59 381,59 380,58 380,57 379,57 378,56 378,56 377,56 376,55 375,55 375,55 374,54 373,54 372,54 372,54 371,54 370,54 369,54 369,54 368,54 367,54 366,54 366,55 365,55 364,55 363,56 363,56 362,56 361,57 361,57 360,58 359,59 359,59 358,61 357,62 356,64 355,65 355,67 354,69 354,70 354,73 354,74 354,76 355,78 355,79 356,81 357,83 358,84 359,86" fill="#000000" stroke="#000000" stroke-width="1" fill-rule="evenodd" data-shape="166"/>
          <polygon points="362,82 362,83 363,84 363,84 364,84 365,85 365,85 366,86 366,86 367,86 367,86 368,86 369,87 369,87 370,87 370,87 371,87 372,87 372,87 373,87 374,87 374,86 375,86 375,86 376,86 377,86 377,85 378,85 378,84 379,84 379,84 380,83 380,82 381,81 382,80 383,79 383,78 384,76 384,75 384,73 384,72 384,70 384,69 384,68 383,66 383,65 382,64 381,62 380,61 380,61 379,60 379,60 378,59 378,59 377,59 377,58 376,58 375,58 375,58 374,57 374,57 373,57 372,57 372,57 371,57 370,57 370,57 369,57 369,57 368,57 367,58 367,58 366,58 366,58 365,59 365,59 364,59 363,60 363,60 362,61 362,61 361,62 360,64 360,65 359,66 359,68 358,69 358,70 358,72 358,73 358,75 359,76 359,78 360,79 360,80 361,81 362,82" fill="#000000" stroke="#000000" stroke-width="1" fill-rule="evenodd" data-shape="167"/>
          <polygon points="372,58 369,87 372,58" fill="#000000" stroke="#000000" stroke-width="1" fill-rule="evenodd" data-shape="168"/>
          <polygon points="384,74 358,69 384,74" fill="#000000" stroke="#000000" stroke-width="1" fill-rule="evenodd" data-shape="169"/>
          <polygon points="364,59 379,83 364,59" fill="#000000" stroke="#000000" stroke-width="1" fill-rule="evenodd" data-shape="170"/>
          <polygon points="381,63 360,81 381,63" fill="#000000" stroke="#000000" stroke-width="1" fill-rule="evenodd" data-shape="171"/>
          <polygon points="369,57 375,86 369,57" fill="#000000" stroke="#000000" stroke-width="1" fill-rule="evenodd" data-shape="172"/>
          <polygon points="383,78 361,63 383,78" fill="#000000" stroke="#000000" stroke-width="1" fill-rule="evenodd" data-shape="173"/>
          <polygon points="382,68 357,75 382,68" fill="#000000" stroke="#000000" stroke-width="1" fill-rule="evenodd" data-shape="174"/>
          <polygon points="377,60 364,85 377,60" fill="#000000" stroke="#000000" stroke-width="1" fill-rule="evenodd" data-shape="175"/>
          <polygon points="369,73 369,73 370,74 370,74 371,74 371,74 372,74 372,73 372,73 373,73 373,72 373,72 373,71 373,70 373,70 373,69 372,69 372,68 372,68 371,68 371,68 370,68 370,68 369,68 369,69 369,69 368,70 368,70 368,71 368,72 368,72 369,73 369,73" fill="#000000" stroke="#000000" stroke-width="1" fill-rule="evenodd" data-shape="176"/>
          <polygon points="370,72 354,38 356,37 372,71 372,71 372,72 372,72 372,73 371,73 371,73 370,72 370,72" fill="#000000" stroke="#000000" stroke-width="1" fill-rule="evenodd" data-shape="177"/>
          <polygon points="311,87 311,87 312,88 313,88 313,89 314,89 315,90 315,90 316,91 317,91 317,91 318,91 319,91 320,92 321,92 321,92 322,92 323,92 324,92 324,92 325,91 326,91 327,91 327,91 328,91 329,90 329,90 330,89 331,89 332,88 332,88 333,87 333,87 335,85 336,84 336,82 337,80 338,79 338,77 338,75 338,73 338,72 338,70 338,68 337,66 336,65 336,63 335,62 333,60 333,60 332,59 332,58 331,58 330,57 329,57 329,57 328,56 327,56 327,56 326,55 325,55 324,55 324,55 323,55 322,55 321,55 321,55 320,55 319,55 318,55 317,56 317,56 316,56 315,57 315,57 314,57 313,58 313,58 312,59 311,60 311,60 310,62 309,63 308,65 307,66 307,68 306,70 306,72 306,73 306,75 306,77 307,79 307,80 308,82 309,84 310,85 311,87" fill="#000000" stroke="#000000" stroke-width="1" fill-rule="evenodd" data-shape="178"/>
          <polygon points="313,83 313,84 314,85 315,85 315,85 315,86 316,86 317,87 317,87 318,87 318,87 319,87 320,88 320,88 321,88 322,88 322,88 323,88 323,88 324,88 325,88 325,87 326,87 326,87 327,87 328,87 328,86 329,86 329,85 330,85 330,85 331,84 331,83 332,82 333,81 334,80 334,79 335,77 335,76 335,74 335,73 335,71 335,70 335,69 334,67 334,66 333,65 332,63 331,62 331,62 330,61 330,61 329,60 329,60 328,60 328,59 327,59 326,59 326,59 325,58 325,58 324,58 323,58 323,58 322,58 322,58 321,58 320,58 320,58 319,58 318,59 318,59 317,59 317,59 316,60 315,60 315,60 315,61 314,61 313,62 313,62 312,63 311,65 311,66 310,67 310,69 309,70 309,71 309,73 309,74 309,76 310,77 310,79 311,80 311,81 312,82 313,83" fill="#000000" stroke="#000000" stroke-width="1" fill-rule="evenodd" data-shape="179"/>
          <polygon points="324,60 321,89 324,60" fill="#000000" stroke="#000000" stroke-width="1" fill-rule="evenodd" data-shape="180"/>
          <polygon points="336,76 310,71 336,76" fill="#000000" stroke="#000000" stroke-width="1" fill-rule="evenodd" data-shape="181"/>
          <polygon points="315,61 330,85 315,61" fill="#000000" stroke="#000000" stroke-width="1" fill-rule="evenodd" data-shape="182"/>
          <polygon points="332,64 311,82 332,64" fill="#000000" stroke="#000000" stroke-width="1" fill-rule="evenodd" data-shape="183"/>
          <polygon points="320,59 326,88 320,59" fill="#000000" stroke="#000000" stroke-width="1" fill-rule="evenodd" data-shape="184"/>
          <polygon points="334,80 312,65 334,80" fill="#000000" stroke="#000000" stroke-width="1" fill-rule="evenodd" data-shape="185"/>
          <polygon points="334,69 309,76 334,69" fill="#000000" stroke="#000000" stroke-width="1" fill-rule="evenodd" data-shape="186"/>
          <polygon points="328,61 315,86 328,61" fill="#000000" stroke="#000000" stroke-width="1" fill-rule="evenodd" data-shape="187"/>
          <polygon points="321,75 321,75 322,76 322,76 323,76 323,76 324,76 324,75 324,75 325,75 325,74 325,74 325,73 325,72 325,72 325,71 324,71 324,70 324,70 323,70 323,70 322,70 322,70 321,70 321,71 321,71 320,72 320,72 320,73 320,74 320,74 321,75 321,75" fill="#000000" stroke="#000000" stroke-width="1" fill-rule="evenodd" data-shape="188"/>
          <polygon points="321,72 331,47 334,48 322,73 321,72" fill="#000000" stroke="#000000" stroke-width="1" fill-rule="evenodd" data-shape="189"/>
          <polygon points="362,55 331,56 332,53 361,53 362,55" fill="#000000" stroke="#000000" stroke-width="1" fill-rule="evenodd" data-shape="190"/>
          <polygon points="361,35 353,40 353,41 352,41 352,42 352,42 352,42 353,43 353,43 353,44 354,44 354,45 355,45 355,46 356,46 356,46 356,47 357,47 354,49 354,48 353,48 353,47 352,46 352,46 352,46 351,45 351,45 350,44 350,44 350,44 349,43 349,42 349,41 349,40 349,39 362,32 363,32 363,33 363,34 363,35 363,36 364,37 364,38 365,39 363,39 363,39 362,39 362,38 362,38 361,38 361,37 361,36 361,35" fill="#000000" stroke="#000000" stroke-width="1" fill-rule="evenodd" data-shape="191"/>
          <polygon points="355,39 354,36 356,35 357,38 355,39" fill="#000000" stroke="#000000" stroke-width="1" fill-rule="evenodd" data-shape="192"/>
          <polygon points="342,50 326,46 327,40 327,40 328,40 328,40 328,40 329,41 329,41 330,41 330,42 331,43 332,43 333,44 334,45 336,45 337,46 339,46 342,47 342,50" fill="#000000" stroke="none" stroke-width="0" fill-rule="evenodd" data-shape="193"/>
          <polygon points="366,55 366,55 366,55 366,55 366,55 366,55 366,55 367,55 367,55 367,54 368,54 368,54 369,54 369,54 370,54 371,54 371,54 372,54 373,54 374,54 374,55 375,55 376,55 377,55 378,56 379,56 380,57 381,57 382,58 383,59 384,60 385,61 386,62 386,59 385,58 384,57 383,57 382,56 382,55 381,55 380,55 379,54 378,54 378,53 377,53 376,53 375,53 375,52 374,52 373,52 372,52 372,52 371,52 371,52 370,52 370,52 369,52 368,52 368,52 367,52 367,52 366,52 366,52 365,52 365,53 364,53 366,55" fill="#eded00" stroke="#000000" stroke-width="1" fill-rule="evenodd" data-shape="194"/>
          <polygon points="359,86 359,86 360,87 361,87 361,88 362,88 363,89 363,89 364,90 365,90 366,90 366,90 367,90 368,91 369,91 369,91 370,91 371,91 372,91 372,91 373,90 374,90 375,90 375,90 376,90 377,89 378,89 378,88 379,88 380,87 380,87 381,86 381,86 383,84 384,83 384,81 385,79 386,78 386,76 386,74 386,73 386,70 386,69 386,67 385,65 384,64 384,62 383,61 381,59 381,59 380,58 380,57 379,57 378,56 378,56 377,56 376,55 375,55 375,55 374,54 373,54 372,54 372,54 371,54 370,54 369,54 369,54 368,54 367,54 366,54 366,55 365,55 364,55 363,56 363,56 362,56 361,57 361,57 360,58 359,59 359,59 358,61 357,62 356,64 355,65 355,67 354,69 354,70 354,73 354,74 354,76 355,78 355,79 356,81 357,83 358,84 359,86" fill="#545454" stroke="#000000" stroke-width="1" fill-rule="evenodd" data-shape="195"/>
          <polygon points="362,82 362,83 363,84 363,84 364,84 365,85 365,85 366,86 366,86 367,86 367,86 368,86 369,87 369,87 370,87 370,87 371,87 372,87 372,87 373,87 374,87 374,86 375,86 375,86 376,86 377,86 377,85 378,85 378,84 379,84 379,84 380,83 380,82 381,81 382,80 383,79 383,78 384,76 384,75 384,73 384,72 384,70 384,69 384,68 383,66 383,65 382,64 381,62 380,61 380,61 379,60 379,60 378,59 378,59 377,59 377,58 376,58 375,58 375,58 374,57 374,57 373,57 372,57 372,57 371,57 370,57 370,57 369,57 369,57 368,57 367,58 367,58 366,58 366,58 365,59 365,59 364,59 363,60 363,60 362,61 362,61 361,62 360,64 360,65 359,66 359,68 358,69 358,70 358,72 358,73 358,75 359,76 359,78 360,79 360,80 361,81 362,82" fill="#ffffff" stroke="#000000" stroke-width="1" fill-rule="evenodd" data-shape="196"/>
          <polygon points="372,58 369,87 372,58" fill="#545454" stroke="#000000" stroke-width="1" fill-rule="evenodd" data-shape="197"/>
          <polygon points="384,74 358,69 384,74" fill="#545454" stroke="#000000" stroke-width="1" fill-rule="evenodd" data-shape="198"/>
          <polygon points="364,59 379,83 364,59" fill="#545454" stroke="#000000" stroke-width="1" fill-rule="evenodd" data-shape="199"/>
          <polygon points="381,63 360,81 381,63" fill="#545454" stroke="#000000" stroke-width="1" fill-rule="evenodd" data-shape="200"/>
          <polygon points="369,57 375,86 369,57" fill="#545454" stroke="#000000" stroke-width="1" fill-rule="evenodd" data-shape="201"/>
          <polygon points="383,78 361,63 383,78" fill="#545454" stroke="#000000" stroke-width="1" fill-rule="evenodd" data-shape="202"/>
          <polygon points="382,68 357,75 382,68" fill="#545454" stroke="#000000" stroke-width="1" fill-rule="evenodd" data-shape="203"/>
          <polygon points="377,60 364,85 377,60" fill="#545454" stroke="#000000" stroke-width="1" fill-rule="evenodd" data-shape="204"/>
          <polygon points="369,73 369,73 370,74 370,74 371,74 371,74 372,74 372,73 372,73 373,73 373,72 373,72 373,71 373,70 373,70 373,69 372,69 372,68 372,68 371,68 371,68 370,68 370,68 369,68 369,69 369,69 368,70 368,70 368,71 368,72 368,72 369,73 369,73" fill="#545454" stroke="#000000" stroke-width="1" fill-rule="evenodd" data-shape="205"/>
          <polygon points="370,72 354,38 356,37 372,71 372,71 372,72 372,72 372,73 371,73 371,73 370,72 370,72" fill="#eded00" stroke="#000000" stroke-width="1" fill-rule="evenodd" data-shape="206"/>
          <polygon points="311,87 311,87 312,88 313,88 313,89 314,89 315,90 315,90 316,91 317,91 317,91 318,91 319,91 320,92 321,92 321,92 322,92 323,92 324,92 324,92 325,91 326,91 327,91 327,91 328,91 329,90 329,90 330,89 331,89 332,88 332,88 333,87 333,87 335,85 336,84 336,82 337,80 338,79 338,77 338,75 338,73 338,72 338,70 338,68 337,66 336,65 336,63 335,62 333,60 333,60 332,59 332,58 331,58 330,57 329,57 329,57 328,56 327,56 327,56 326,55 325,55 324,55 324,55 323,55 322,55 321,55 321,55 320,55 319,55 318,55 317,56 317,56 316,56 315,57 315,57 314,57 313,58 313,58 312,59 311,60 311,60 310,62 309,63 308,65 307,66 307,68 306,70 306,72 306,73 306,75 306,77 307,79 307,80 308,82 309,84 310,85 311,87" fill="#545454" stroke="#000000" stroke-width="1" fill-rule="evenodd" data-shape="207"/>
          <polygon points="313,83 313,84 314,85 315,85 315,85 315,86 316,86 317,87 317,87 318,87 318,87 319,87 320,88 320,88 321,88 322,88 322,88 323,88 323,88 324,88 325,88 325,87 326,87 326,87 327,87 328,87 328,86 329,86 329,85 330,85 330,85 331,84 331,83 332,82 333,81 334,80 334,79 335,77 335,76 335,74 335,73 335,71 335,70 335,69 334,67 334,66 333,65 332,63 331,62 331,62 330,61 330,61 329,60 329,60 328,60 328,59 327,59 326,59 326,59 325,58 325,58 324,58 323,58 323,58 322,58 322,58 321,58 320,58 320,58 319,58 318,59 318,59 317,59 317,59 316,60 315,60 315,60 315,61 314,61 313,62 313,62 312,63 311,65 311,66 310,67 310,69 309,70 309,71 309,73 309,74 309,76 310,77 310,79 311,80 311,81 312,82 313,83" fill="#ffffff" stroke="#000000" stroke-width="1" fill-rule="evenodd" data-shape="208"/>
          <polygon points="324,60 321,89 324,60" fill="#545454" stroke="#000000" stroke-width="1" fill-rule="evenodd" data-shape="209"/>
          <polygon points="336,76 310,71 336,76" fill="#545454" stroke="#000000" stroke-width="1" fill-rule="evenodd" data-shape="210"/>
          <polygon points="315,61 330,85 315,61" fill="#545454" stroke="#000000" stroke-width="1" fill-rule="evenodd" data-shape="211"/>
          <polygon points="332,64 311,82 332,64" fill="#545454" stroke="#000000" stroke-width="1" fill-rule="evenodd" data-shape="212"/>
          <polygon points="320,59 326,88 320,59" fill="#545454" stroke="#000000" stroke-width="1" fill-rule="evenodd" data-shape="213"/>
          <polygon points="334,80 312,65 334,80" fill="#545454" stroke="#000000" stroke-width="1" fill-rule="evenodd" data-shape="214"/>
          <polygon points="334,69 309,76 334,69" fill="#545454" stroke="#000000" stroke-width="1" fill-rule="evenodd" data-shape="215"/>
          <polygon points="328,61 315,86 328,61" fill="#545454" stroke="#000000" stroke-width="1" fill-rule="evenodd" data-shape="216"/>
          <polygon points="321,75 321,75 322,76 322,76 323,76 323,76 324,76 324,75 324,75 325,75 325,74 325,74 325,73 325,72 325,72 325,71 324,71 324,70 324,70 323,70 323,70 322,70 322,70 321,70 321,71 321,71 320,72 320,72 320,73 320,74 320,74 321,75 321,75" fill="#545454" stroke="#000000" stroke-width="1" fill-rule="evenodd" data-shape="217"/>
          <polygon points="321,72 331,47 334,48 322,73 321,72" fill="#eded00" stroke="#000000" stroke-width="1" fill-rule="evenodd" data-shape="218"/>
          <polygon points="362,55 331,56 332,53 361,53 362,55" fill="#eded00" stroke="#000000" stroke-width="1" fill-rule="evenodd" data-shape="219"/>
          <polygon points="361,35 353,40 353,41 352,41 352,42 352,42 352,42 353,43 353,43 353,44 354,44 354,45 355,45 355,46 356,46 356,46 356,47 357,47 354,49 354,48 353,48 353,47 352,46 352,46 352,46 351,45 351,45 350,44 350,44 350,44 349,43 349,42 349,41 349,40 349,39 362,32 363,32 363,33 363,34 363,35 363,36 364,37 364,38 365,39 363,39 363,39 362,39 362,38 362,38 361,38 361,37 361,36 361,35" fill="#dd0000" stroke="#000000" stroke-width="1" fill-rule="evenodd" data-shape="220"/>
          <polygon points="355,39 354,36 356,35 357,38 355,39" fill="#999999" stroke="#000000" stroke-width="1" fill-rule="evenodd" data-shape="221"/>
          <polygon points="342,50 326,46 327,40 327,40 328,40 328,40 328,40 329,41 329,41 330,41 330,42 331,43 332,43 333,44 334,45 336,45 337,46 339,46 342,47 342,50" fill="#ba7c4c" stroke="none" stroke-width="0" fill-rule="evenodd" data-shape="222"/>
        </g>
      </g>
    </g>
  </g>
</svg>