<svg xmlns="http://www.w3.org/2000/svg" xmlns:mdcr="http://sensory.com/mdcr" viewBox="0 0 401 301" width="401" height="301">
  <metadata>
    <mdcr:info xmlns:mdcr="http://sensory.com/mdcr">
      <mdcr:source format="WMF" generator="wmf2svg.js"/>
      <mdcr:bounds left="0" top="0" right="6015" bottom="4515" inch="1440"/>
      <mdcr:records count="20">
        <mdcr:record tag="MDCR-{"/>
        <mdcr:record tag="MDCR-{"/>
        <mdcr:record tag="MDCR-S"/>
        <mdcr:record tag="MDCR-}"/>
        <mdcr:record tag="MDCR-{"/>
        <mdcr:record tag="MDCR-{"/>
        <mdcr:record tag="MDCR-}"/>
        <mdcr:record tag="MDCR-}"/>
        <mdcr:record tag="MDCR-{"/>
        <mdcr:record tag="MDCR-}"/>
        <mdcr:record tag="MDCR-{"/>
        <mdcr:record tag="MDCR-}:"/>
        <mdcr:record tag="MDCR-{"/>
        <mdcr:record tag="MDCR-{"/>
        <mdcr:record tag="MDCR-}"/>
        <mdcr:record tag="MDCR-S"/>
        <mdcr:record tag="MDCR-}"/>
        <mdcr:record tag="MDCR-S"/>
        <mdcr:record tag="MDCR-}"/>
        <mdcr:record tag="MDCR-S"/>
      </mdcr:records>
    </mdcr:info>
  </metadata>
  <g data-mdcr="group" class="mdcr-region">
    <g data-mdcr="group" class="mdcr-region">
      <polygon points="228,248 229,230 229,229 229,228 229,228 229,228 229,227 228,227 228,227 228,227 228,227 227,227 227,227 227,228 227,228 227,229 227,229 226,230 226,247 228,248" fill="#000000" stroke="#000000" stroke-width="1" fill-rule="evenodd" data-shape="0"/>
      <polygon points="226,246 226,229 226,229 226,228 226,227 226,227 225,227 225,226 225,226 225,226 224,226 224,226 224,226 224,227 224,227 224,228 223,229 223,230 224,247 226,246" fill="#000000" stroke="#000000" stroke-width="1" fill-rule="evenodd" data-shape="1"/>
      <polygon points="228,239 232,231 232,230 232,229 232,228 232,228 232,227 231,227 231,227 231,227 231,227 230,227 230,227 230,228 229,228 229,228 229,229 229,229 228,239" fill="#000000" stroke="#000000" stroke-width="1" fill-rule="evenodd" data-shape="2"/>
      <polygon points="232,278 233,279 233,279 234,280 234,280 235,280 235,281 236,281 236,281 237,281 238,281 239,280 239,280 240,280 240,279 241,279 241,278 242,276 243,274 243,272 243,271 243,268 243,266 242,265 241,263 241,262 240,262 240,261 239,261 239,260 238,260 237,260 236,260 236,260 235,260 235,260 234,261 234,261 233,262 233,262 232,263 231,265 231,266 230,268 230,271 230,272 231,274 231,276 232,278" fill="#000000" stroke="#000000" stroke-width="1" fill-rule="evenodd" data-shape="3"/>
      <polygon points="184,279 184,280 185,280 186,281 186,281 187,281 187,282 188,282 188,282 189,282 190,282 191,281 191,281 192,281 192,280 193,280 193,279 194,277 195,275 195,273 195,271 195,269 195,267 194,266 193,264 193,263 192,263 192,262 191,262 191,261 190,261 189,261 188,261 188,261 187,261 187,261 186,262 186,262 185,263 184,263 184,264 183,266 183,267 182,269 182,271 182,273 183,275 183,277 184,279" fill="#000000" stroke="#000000" stroke-width="1" fill-rule="evenodd" data-shape="4"/>
      <polygon points="250,269 245,270 244,269 243,268 243,267 242,266 242,265 241,265 240,264 240,264 239,263 239,263 238,263 238,262 237,262 237,262 236,262 235,262 235,263 234,263 234,263 233,263 233,264 232,264 232,265 231,265 231,265 230,266 230,266 229,267 229,268 228,269 228,270 227,270 198,270 197,269 196,268 196,267 195,266 194,266 194,265 193,265 192,264 192,264 191,264 190,263 190,263 189,263 188,263 188,263 187,264 187,264 186,264 186,264 185,265 184,265 184,265 183,266 183,266 182,267 182,267 182,268 181,268 181,269 181,270 181,270 180,271 168,270 167,269 167,268 167,267 167,265 167,263 168,262 168,260 169,258 169,256 170,255 171,253 172,252 173,251 174,250 175,249 177,249 193,245 195,239 197,244 228,245 229,236 230,237 231,237 232,238 234,239 235,239 236,240 237,240 238,241 239,241 240,242 241,242 241,243 242,244 243,244 244,245 245,246 246,246 247,247 247,248 248,249 248,250 249,251 249,252 249,254 250,255 250,257 250,259 250,261 250,263 250,265 250,267 250,269" fill="#000000" stroke="#000000" stroke-width="1" fill-rule="evenodd" data-shape="5"/>
      <polygon points="195,239 199,224 200,225 196,244 195,239" fill="#000000" stroke="#000000" stroke-width="1" fill-rule="evenodd" data-shape="6"/>
      <polygon points="168,262 165,262 165,270 168,270 168,262" fill="#000000" stroke="#000000" stroke-width="1" fill-rule="evenodd" data-shape="7"/>
      <polygon points="252,260 248,260 248,269 252,269 252,260" fill="#000000" stroke="none" stroke-width="0" fill-rule="evenodd" data-shape="8"/>
      <polygon points="228,248 229,230 229,229 229,228 229,228 229,228 229,227 228,227 228,227 228,227 228,227 227,227 227,227 227,228 227,228 227,229 227,229 226,230 226,247 228,248" fill="#ffba00" stroke="#000000" stroke-width="1" fill-rule="evenodd" data-shape="9"/>
      <polygon points="226,246 226,229 226,229 226,228 226,227 226,227 225,227 225,226 225,226 225,226 224,226 224,226 224,226 224,227 224,227 224,228 223,229 223,230 224,247 226,246" fill="#ffba00" stroke="#000000" stroke-width="1" fill-rule="evenodd" data-shape="10"/>
      <polygon points="228,239 232,231 232,230 232,229 232,228 232,228 232,227 231,227 231,227 231,227 231,227 230,227 230,227 230,228 229,228 229,228 229,229 229,229 228,239" fill="#ffba00" stroke="#000000" stroke-width="1" fill-rule="evenodd" data-shape="11"/>
      <polygon points="232,278 233,279 233,279 234,280 234,280 235,280 235,281 236,281 236,281 237,281 238,281 239,280 239,280 240,280 240,279 241,279 241,278 242,276 243,274 243,272 243,271 243,268 243,266 242,265 241,263 241,262 240,262 240,261 239,261 239,260 238,260 237,260 236,260 236,260 235,260 235,260 234,261 234,261 233,262 233,262 232,263 231,265 231,266 230,268 230,271 230,272 231,274 231,276 232,278" fill="#333333" stroke="#000000" stroke-width="1" fill-rule="evenodd" data-shape="12"/>
      <polygon points="234,274 234,275 235,275 235,275 235,275 235,276 236,276 236,276 236,276 236,276 237,276 237,276 237,275 238,275 238,275 238,275 238,274 239,273 239,273 239,271 239,270 239,269 239,268 239,267 238,266 238,266 238,266 238,266 237,265 237,265 237,265 236,265 236,265 236,265 236,265 235,265 235,265 235,266 235,266 234,266 234,266 234,267 233,268 233,269 233,270 233,271 233,273 234,273 234,274" fill="#eded00" stroke="#000000" stroke-width="1" fill-rule="evenodd" data-shape="13"/>
      <polygon points="184,279 184,280 185,280 186,281 186,281 187,281 187,282 188,282 188,282 189,282 190,282 191,281 191,281 192,281 192,280 193,280 193,279 194,277 195,275 195,273 195,271 195,269 195,267 194,266 193,264 193,263 192,263 192,262 191,262 191,261 190,261 189,261 188,261 188,261 187,261 187,261 186,262 186,262 185,263 184,263 184,264 183,266 183,267 182,269 182,271 182,273 183,275 183,277 184,279" fill="#333333" stroke="#000000" stroke-width="1" fill-rule="evenodd" data-shape="14"/>
      <polygon points="186,274 186,275 187,275 187,275 187,275 187,276 188,276 188,276 188,276 188,276 189,276 189,276 189,275 190,275 190,275 190,275 190,274 191,274 191,273 191,272 191,271 191,270 191,269 191,268 190,267 190,267 190,267 190,267 189,266 189,266 189,266 188,266 188,266 188,266 188,266 187,266 187,266 187,267 187,267 186,267 186,267 186,268 185,269 185,270 185,271 185,272 185,273 186,274 186,274" fill="#eded00" stroke="#000000" stroke-width="1" fill-rule="evenodd" data-shape="15"/>
      <polygon points="250,269 245,270 244,269 243,268 243,267 242,266 242,265 241,265 240,264 240,264 239,263 239,263 238,263 238,262 237,262 237,262 236,262 235,262 235,263 234,263 234,263 233,263 233,264 232,264 232,265 231,265 231,265 230,266 230,266 229,267 229,268 228,269 228,270 227,270 198,270 197,269 196,268 196,267 195,266 194,266 194,265 193,265 192,264 192,264 191,264 190,263 190,263 189,263 188,263 188,263 187,264 187,264 186,264 186,264 185,265 184,265 184,265 183,266 183,266 182,267 182,267 182,268 181,268 181,269 181,270 181,270 180,271 168,270 167,269 167,268 167,267 167,265 167,263 168,262 168,260 169,258 169,256 170,255 171,253 172,252 173,251 174,250 175,249 177,249 193,245 195,239 197,244 228,245 229,236 230,237 231,237 232,238 234,239 235,239 236,240 237,240 238,241 239,241 240,242 241,242 241,243 242,244 243,244 244,245 245,246 246,246 247,247 247,248 248,249 248,250 249,251 249,252 249,254 250,255 250,257 250,259 250,261 250,263 250,265 250,267 250,269" fill="#dd0000" stroke="#000000" stroke-width="1" fill-rule="evenodd" data-shape="16"/>
      <polygon points="195,239 199,224 200,225 196,244 195,239" fill="#bababa" stroke="#000000" stroke-width="1" fill-rule="evenodd" data-shape="17"/>
      <polygon points="170,260 170,260 170,260 171,261 171,261 171,261 171,261 171,261 171,262 172,262 172,262 172,262 172,262 173,262 173,261 173,261 174,261 174,260 174,260 175,259 175,258 175,257 175,256 175,255 175,254 175,254 175,253 175,253 175,253 174,253 174,252 174,252 174,252 174,252 174,252 173,252 173,252 172,252 172,252 172,252 172,253 171,253 171,254 171,255 170,256 170,257 170,258 170,258 170,260" fill="#bababa" stroke="#000000" stroke-width="1" fill-rule="evenodd" data-shape="18"/>
      <polygon points="199,245 198,270 199,245" fill="#bababa" stroke="#000000" stroke-width="1" fill-rule="evenodd" data-shape="19"/>
      <polygon points="213,245 213,270 213,245" fill="#bababa" stroke="#000000" stroke-width="1" fill-rule="evenodd" data-shape="20"/>
      <polygon points="212,254 209,254 209,256 212,256 212,254" fill="#bababa" stroke="#000000" stroke-width="1" fill-rule="evenodd" data-shape="21"/>
      <polygon points="168,262 165,262 165,270 168,270 168,262" fill="#bababa" stroke="#000000" stroke-width="1" fill-rule="evenodd" data-shape="22"/>
      <polygon points="252,260 248,260 248,269 252,269 252,260" fill="#bababa" stroke="none" stroke-width="0" fill-rule="evenodd" data-shape="23"/>
    </g>
    <g data-mdcr="group" class="mdcr-region">
      <polygon points="76,85 76,86 75,86 75,86 75,87 75,87 74,87 74,87 74,87 74,87 74,87 74,87 73,87 73,86 73,86 72,86 72,85 72,84 71,84 71,83 71,81 71,80 71,79 72,79 72,78 72,77 73,77 73,77 73,76 74,76 74,76 74,76 74,76 74,76 74,76 75,76 75,76 75,77 75,77 76,77 76,78 76,79 77,79 77,80 77,81 77,83 77,84 76,84 76,85 76,85 76,85" fill="#ffffff" stroke="none" stroke-width="0" fill-rule="evenodd" data-shape="24"/>
      <polyline points="76,85 76,86 75,86 75,86 75,87 75,87 74,87 74,87 74,87 74,87 74,87 74,87 73,87 73,86 73,86 72,86 72,85 72,84 71,84 71,83 71,81 71,80 71,79 72,79 72,78 72,77 73,77 73,77 73,76 74,76 74,76 74,76 74,76 74,76 74,76 75,76 75,76 75,77 75,77 76,77 76,78 76,79 77,79 77,80 77,81 77,83 77,84 76,84 76,85 76,85" fill="none" stroke="#ffffff" stroke-width="1"/>
      <g data-mdcr="group" class="mdcr-region">
        <polygon points="22,78 22,53 29,46 30,11 30,11 31,10 32,10 32,10 34,10 36,10 37,9 39,9 41,9 44,9 45,9 48,9 50,9 52,9 55,9 57,9 60,9 63,9 65,9 67,9 70,9 71,10 74,10 76,10 78,10 79,11 81,11 82,11 83,11 84,11 85,11 85,12 84,51 84,51 84,52 83,53 83,53 83,53 83,53 83,54 82,54 82,55 81,56 81,58 81,61 81,63 81,67 81,72 81,78 81,77 80,76 80,76 79,76 79,75 79,74 79,74 79,73 78,73 78,72 78,72 77,71 77,71 76,71 76,71 75,71 75,71 75,71 75,71 74,71 74,71 73,71 73,71 72,72 72,72 71,73 71,74 71,75 70,76 70,76 69,77 68,78 40,78 40,77 40,77 40,76 40,76 39,75 39,75 39,74 38,74 38,73 38,72 37,72 37,72 36,71 36,71 36,71 36,71 35,71 35,71 34,71 34,71 33,71 33,71 32,71 32,71 32,72 32,73 31,73 31,74 30,75 29,76 29,77 28,78 22,78 22,78 22,78" fill="#dd0000" stroke="none" stroke-width="0" fill-rule="evenodd" data-shape="25"/>
        <polygon points="30,35 37,34 37,47 30,47 30,35 30,35 30,35" fill="#dd0000" stroke="none" stroke-width="0" fill-rule="evenodd" data-shape="26"/>
        <polygon points="68,46 68,34 78,34 78,46 68,46 68,46 68,46" fill="#dd0000" stroke="none" stroke-width="0" fill-rule="evenodd" data-shape="27"/>
        <polygon points="54,34 65,34 65,46 54,46 54,34 54,34 54,34" fill="#dd0000" stroke="none" stroke-width="0" fill-rule="evenodd" data-shape="28"/>
        <polygon points="40,46 51,46 51,34 40,34 40,46 40,46 40,46" fill="#dd0000" stroke="none" stroke-width="0" fill-rule="evenodd" data-shape="29"/>
        <polygon points="31,17 31,29 40,29 40,17 31,17 31,17 31,17" fill="#dd0000" stroke="none" stroke-width="0" fill-rule="evenodd" data-shape="30"/>
        <polygon points="43,17 52,17 52,29 43,29 43,17 43,17 43,17" fill="#dd0000" stroke="none" stroke-width="0" fill-rule="evenodd" data-shape="31"/>
        <polygon points="54,17 54,29 63,29 63,17 54,17 54,17 54,17" fill="#dd0000" stroke="none" stroke-width="0" fill-rule="evenodd" data-shape="32"/>
        <polygon points="76,17 82,17 82,29 76,29 76,17 76,17 76,17" fill="#dd0000" stroke="none" stroke-width="0" fill-rule="evenodd" data-shape="33"/>
        <polygon points="65,17 65,29 74,29 74,17 65,17 65,17 65,17" fill="#dd0000" stroke="none" stroke-width="0" fill-rule="evenodd" data-shape="34"/>
      </g>
      <polygon points="68,46 68,34 78,34 78,46 68,46 68,46 68,46" fill="#000000" stroke="none" stroke-width="0" fill-rule="evenodd" data-shape="35"/>
      <polygon points="54,34 65,34 65,46 54,46 54,34 54,34 54,34" fill="#000000" stroke="none" stroke-width="0" fill-rule="evenodd" data-shape="36"/>
      <polygon points="41,46 52,46 52,34 41,34 41,46 41,46 41,46" fill="#000000" stroke="none" stroke-width="0" fill-rule="evenodd" data-shape="37"/>
      <polygon points="32,17 32,29 41,29 41,17 32,17 32,17 32,17" fill="#000000" stroke="none" stroke-width="0" fill-rule="evenodd" data-shape="38"/>
      <polygon points="43,17 52,17 52,29 43,29 43,17 43,17 43,17" fill="#000000" stroke="none" stroke-width="0" fill-rule="evenodd" data-shape="39"/>
      <polygon points="53,17 53,29 62,29 62,17 53,17 53,17 53,17" fill="#000000" stroke="none" stroke-width="0" fill-rule="evenodd" data-shape="40"/>
      <polygon points="75,17 81,17 81,29 75,29 75,17 75,17 75,17" fill="#000000" stroke="none" stroke-width="0" fill-rule="evenodd" data-shape="41"/>
      <polygon points="21,57 23,57 23,63 21,63 21,57 21,57 21,57" fill="#545454" stroke="none" stroke-width="0" fill-rule="evenodd" data-shape="42"/>
      <polyline points="21,57 23,57 23,63 21,63 21,57 21,57" fill="none" stroke="#ffffff" stroke-width="1"/>
      <polygon points="21,57 23,57 23,63 21,63 21,57 21,57 21,57" fill="#000000" stroke="none" stroke-width="0" fill-rule="evenodd" data-shape="43"/>
      <polyline points="21,57 23,57 23,63 21,63 21,57" fill="none" stroke="#ffffff" stroke-width="1"/>
      <polyline points="37,73 37,35 30,35 30,75" fill="none" stroke="#ffffff" stroke-width="1"/>
      <polygon points="37,57 79,57 79,63 37,63 37,57 37,57 37,57" fill="#bababa" stroke="#ffffff" stroke-width="1" fill-rule="evenodd" data-shape="44"/>
      <polygon points="31,36 31,47 36,47 36,36 31,36 31,36" fill="#000000" stroke="none" stroke-width="0" fill-rule="evenodd" data-shape="45"/>
      <polygon points="63,29 63,17 73,17 73,29 63,29 63,29 63,29" fill="#000000" stroke="none" stroke-width="0" fill-rule="evenodd" data-shape="46"/>
      <ellipse cx="76" cy="82" rx="5" ry="9" fill="#000000" stroke="#000000" stroke-width="1" data-shape="47"/>
      <ellipse cx="35" cy="82" rx="5" ry="9" fill="#000000" stroke="#000000" stroke-width="1" data-shape="48"/>
    </g>
    <g data-mdcr="group" class="mdcr-region">
      <polygon points="171,54 172,36 172,35 172,34 172,34 172,34 172,33 171,33 171,33 171,33 171,33 170,33 170,33 170,34 170,34 170,35 170,35 169,36 169,53 171,54" fill="#000000" stroke="#000000" stroke-width="1" fill-rule="evenodd" data-shape="49"/>
      <polygon points="169,52 169,35 169,35 169,34 169,33 169,33 168,33 168,32 168,32 168,32 167,32 167,32 167,32 167,33 167,33 167,34 166,35 166,36 167,53 169,52" fill="#000000" stroke="#000000" stroke-width="1" fill-rule="evenodd" data-shape="50"/>
      <polygon points="171,45 175,37 175,36 175,35 175,34 175,34 175,33 174,33 174,33 174,33 174,33 173,33 173,33 173,34 172,34 172,34 172,35 172,35 171,45" fill="#000000" stroke="#000000" stroke-width="1" fill-rule="evenodd" data-shape="51"/>
      <polygon points="175,84 176,85 176,85 177,86 177,86 178,86 178,87 179,87 179,87 180,87 181,87 182,86 182,86 183,86 183,85 184,85 184,84 185,82 186,80 186,78 186,77 186,74 186,72 185,71 184,69 184,68 183,68 183,67 182,67 182,66 181,66 180,66 179,66 179,66 178,66 178,66 177,67 177,67 176,68 176,68 175,69 174,71 174,72 173,74 173,77 173,78 174,80 174,82 175,84" fill="#000000" stroke="#000000" stroke-width="1" fill-rule="evenodd" data-shape="52"/>
      <polygon points="127,85 127,86 128,86 129,87 129,87 130,87 130,88 131,88 131,88 132,88 133,88 134,87 134,87 135,87 135,86 136,86 136,85 137,83 138,81 138,79 138,77 138,75 138,73 137,72 136,70 136,69 135,69 135,68 134,68 134,67 133,67 132,67 131,67 131,67 130,67 130,67 129,68 129,68 128,69 127,69 127,70 126,72 126,73 125,75 125,77 125,79 126,81 126,83 127,85" fill="#000000" stroke="#000000" stroke-width="1" fill-rule="evenodd" data-shape="53"/>
      <polygon points="193,75 188,76 187,75 186,74 186,73 185,72 185,71 184,71 183,70 183,70 182,69 182,69 181,69 181,68 180,68 180,68 179,68 178,68 178,69 177,69 177,69 176,69 176,70 175,70 175,71 174,71 174,71 173,72 173,72 172,73 172,74 171,75 171,76 170,76 141,76 140,75 139,74 139,73 138,72 137,72 137,71 136,71 135,70 135,70 134,70 133,69 133,69 132,69 131,69 131,69 130,70 130,70 129,70 129,70 128,71 127,71 127,71 126,72 126,72 125,73 125,73 125,74 124,74 124,75 124,76 124,76 123,77 111,76 110,75 110,74 110,73 110,71 110,69 111,68 111,66 112,64 112,62 113,61 114,59 115,58 116,57 117,56 118,55 120,55 136,51 138,45 140,50 171,51 172,42 173,43 174,43 175,44 177,45 178,45 179,46 180,46 181,47 182,47 183,48 184,48 184,49 185,50 186,50 187,51 188,52 189,52 190,53 190,54 191,55 191,56 192,57 192,58 192,60 193,61 193,63 193,65 193,67 193,69 193,71 193,73 193,75" fill="#000000" stroke="#000000" stroke-width="1" fill-rule="evenodd" data-shape="54"/>
      <polygon points="138,45 142,30 143,31 139,50 138,45" fill="#000000" stroke="#000000" stroke-width="1" fill-rule="evenodd" data-shape="55"/>
      <polygon points="111,68 108,68 108,76 111,76 111,68" fill="#000000" stroke="#000000" stroke-width="1" fill-rule="evenodd" data-shape="56"/>
      <polygon points="195,66 191,66 191,75 195,75 195,66" fill="#000000" stroke="none" stroke-width="0" fill-rule="evenodd" data-shape="57"/>
      <polygon points="171,54 172,36 172,35 172,34 172,34 172,34 172,33 171,33 171,33 171,33 171,33 170,33 170,33 170,34 170,34 170,35 170,35 169,36 169,53 171,54" fill="#ffba00" stroke="#000000" stroke-width="1" fill-rule="evenodd" data-shape="58"/>
      <polygon points="169,52 169,35 169,35 169,34 169,33 169,33 168,33 168,32 168,32 168,32 167,32 167,32 167,32 167,33 167,33 167,34 166,35 166,36 167,53 169,52" fill="#ffba00" stroke="#000000" stroke-width="1" fill-rule="evenodd" data-shape="59"/>
      <polygon points="171,45 175,37 175,36 175,35 175,34 175,34 175,33 174,33 174,33 174,33 174,33 173,33 173,33 173,34 172,34 172,34 172,35 172,35 171,45" fill="#ffba00" stroke="#000000" stroke-width="1" fill-rule="evenodd" data-shape="60"/>
      <polygon points="175,84 176,85 176,85 177,86 177,86 178,86 178,87 179,87 179,87 180,87 181,87 182,86 182,86 183,86 183,85 184,85 184,84 185,82 186,80 186,78 186,77 186,74 186,72 185,71 184,69 184,68 183,68 183,67 182,67 182,66 181,66 180,66 179,66 179,66 178,66 178,66 177,67 177,67 176,68 176,68 175,69 174,71 174,72 173,74 173,77 173,78 174,80 174,82 175,84" fill="#333333" stroke="#000000" stroke-width="1" fill-rule="evenodd" data-shape="61"/>
      <polygon points="177,80 177,81 178,81 178,81 178,81 178,82 179,82 179,82 179,82 179,82 180,82 180,82 180,81 181,81 181,81 181,81 181,80 182,79 182,79 182,77 182,76 182,75 182,74 182,73 181,72 181,72 181,72 181,72 180,71 180,71 180,71 179,71 179,71 179,71 179,71 178,71 178,71 178,72 178,72 177,72 177,72 177,73 176,74 176,75 176,76 176,77 176,79 177,79 177,80" fill="#eded00" stroke="#000000" stroke-width="1" fill-rule="evenodd" data-shape="62"/>
      <polygon points="127,85 127,86 128,86 129,87 129,87 130,87 130,88 131,88 131,88 132,88 133,88 134,87 134,87 135,87 135,86 136,86 136,85 137,83 138,81 138,79 138,77 138,75 138,73 137,72 136,70 136,69 135,69 135,68 134,68 134,67 133,67 132,67 131,67 131,67 130,67 130,67 129,68 129,68 128,69 127,69 127,70 126,72 126,73 125,75 125,77 125,79 126,81 126,83 127,85" fill="#333333" stroke="#000000" stroke-width="1" fill-rule="evenodd" data-shape="63"/>
      <polygon points="129,80 129,81 130,81 130,81 130,81 130,82 131,82 131,82 131,82 131,82 132,82 132,82 132,81 133,81 133,81 133,81 133,80 134,80 134,79 134,78 134,77 134,76 134,75 134,74 133,73 133,73 133,73 133,73 132,72 132,72 132,72 131,72 131,72 131,72 131,72 130,72 130,72 130,73 130,73 129,73 129,73 129,74 128,75 128,76 128,77 128,78 128,79 129,80 129,80" fill="#eded00" stroke="#000000" stroke-width="1" fill-rule="evenodd" data-shape="64"/>
      <polygon points="193,75 188,76 187,75 186,74 186,73 185,72 185,71 184,71 183,70 183,70 182,69 182,69 181,69 181,68 180,68 180,68 179,68 178,68 178,69 177,69 177,69 176,69 176,70 175,70 175,71 174,71 174,71 173,72 173,72 172,73 172,74 171,75 171,76 170,76 141,76 140,75 139,74 139,73 138,72 137,72 137,71 136,71 135,70 135,70 134,70 133,69 133,69 132,69 131,69 131,69 130,70 130,70 129,70 129,70 128,71 127,71 127,71 126,72 126,72 125,73 125,73 125,74 124,74 124,75 124,76 124,76 123,77 111,76 110,75 110,74 110,73 110,71 110,69 111,68 111,66 112,64 112,62 113,61 114,59 115,58 116,57 117,56 118,55 120,55 136,51 138,45 140,50 171,51 172,42 173,43 174,43 175,44 177,45 178,45 179,46 180,46 181,47 182,47 183,48 184,48 184,49 185,50 186,50 187,51 188,52 189,52 190,53 190,54 191,55 191,56 192,57 192,58 192,60 193,61 193,63 193,65 193,67 193,69 193,71 193,73 193,75" fill="#dd0000" stroke="#000000" stroke-width="1" fill-rule="evenodd" data-shape="65"/>
      <polygon points="138,45 142,30 143,31 139,50 138,45" fill="#bababa" stroke="#000000" stroke-width="1" fill-rule="evenodd" data-shape="66"/>
      <polygon points="113,66 113,66 113,66 114,67 114,67 114,67 114,67 114,67 114,68 115,68 115,68 115,68 115,68 116,68 116,67 116,67 117,67 117,66 117,66 118,65 118,64 118,63 118,62 118,61 118,60 118,60 118,59 118,59 118,59 117,59 117,58 117,58 117,58 117,58 117,58 116,58 116,58 115,58 115,58 115,58 115,59 114,59 114,60 114,61 113,62 113,63 113,64 113,64 113,66" fill="#bababa" stroke="#000000" stroke-width="1" fill-rule="evenodd" data-shape="67"/>
      <polygon points="142,51 141,76 142,51" fill="#bababa" stroke="#000000" stroke-width="1" fill-rule="evenodd" data-shape="68"/>
      <polygon points="156,51 156,76 156,51" fill="#bababa" stroke="#000000" stroke-width="1" fill-rule="evenodd" data-shape="69"/>
      <polygon points="155,60 152,60 152,62 155,62 155,60" fill="#bababa" stroke="#000000" stroke-width="1" fill-rule="evenodd" data-shape="70"/>
      <polygon points="111,68 108,68 108,76 111,76 111,68" fill="#bababa" stroke="#000000" stroke-width="1" fill-rule="evenodd" data-shape="71"/>
      <polygon points="195,66 191,66 191,75 195,75 195,66" fill="#bababa" stroke="none" stroke-width="0" fill-rule="evenodd" data-shape="72"/>
    </g>
    <g data-mdcr="group" class="mdcr-region">
      <polygon points="274,48 274,48 274,48 274,48 274,48 274,48 274,48 275,48 275,48 275,47 276,47 276,47 277,47 277,47 278,47 279,47 279,47 280,47 281,47 282,47 282,48 283,48 284,48 285,48 286,49 287,49 288,50 289,50 290,51 291,52 292,53 293,54 294,55 294,52 293,51 292,50 291,50 290,49 290,48 289,48 288,48 287,47 286,47 286,46 285,46 284,46 283,46 283,45 282,45 281,45 280,45 280,45 279,45 279,45 278,45 278,45 277,45 276,45 276,45 275,45 275,45 274,45 274,45 273,45 273,46 272,46 274,48" fill="#000000" stroke="#000000" stroke-width="1" fill-rule="evenodd" data-shape="73"/>
      <polygon points="267,79 267,79 268,80 269,80 269,81 270,81 271,82 271,82 272,83 273,83 274,83 274,83 275,83 276,84 277,84 277,84 278,84 279,84 280,84 280,84 281,83 282,83 283,83 283,83 284,83 285,82 286,82 286,81 287,81 288,80 288,80 289,79 289,79 291,77 292,76 292,74 293,72 294,71 294,69 294,67 294,66 294,63 294,62 294,60 293,58 292,57 292,55 291,54 289,52 289,52 288,51 288,50 287,50 286,49 286,49 285,49 284,48 283,48 283,48 282,47 281,47 280,47 280,47 279,47 278,47 277,47 277,47 276,47 275,47 274,47 274,48 273,48 272,48 271,49 271,49 270,49 269,50 269,50 268,51 267,52 267,52 266,54 265,55 264,57 263,58 263,60 262,62 262,63 262,66 262,67 262,69 263,71 263,72 264,74 265,76 266,77 267,79" fill="#000000" stroke="#000000" stroke-width="1" fill-rule="evenodd" data-shape="74"/>
      <polygon points="269,75 269,76 270,77 270,77 271,77 272,78 272,78 273,79 273,79 274,79 274,79 275,79 276,80 276,80 277,80 277,80 278,80 279,80 279,80 280,80 281,80 281,79 282,79 282,79 283,79 284,79 284,78 285,78 285,77 286,77 286,77 287,76 287,75 288,74 289,73 290,72 290,71 291,69 291,68 291,66 291,65 291,63 291,62 291,61 290,59 290,58 289,57 288,55 287,54 287,54 286,53 286,53 285,52 285,52 284,52 284,51 283,51 282,51 282,51 281,50 281,50 280,50 279,50 279,50 278,50 277,50 277,50 276,50 276,50 275,50 274,51 274,51 273,51 273,51 272,52 272,52 271,52 270,53 270,53 269,54 269,54 268,55 267,57 267,58 266,59 266,61 265,62 265,63 265,65 265,66 265,68 266,69 266,71 267,72 267,73 268,74 269,75" fill="#000000" stroke="#000000" stroke-width="1" fill-rule="evenodd" data-shape="75"/>
      <polygon points="281,51 278,80 281,51" fill="#000000" stroke="#000000" stroke-width="1" fill-rule="evenodd" data-shape="76"/>
      <polygon points="292,67 266,62 292,67" fill="#000000" stroke="#000000" stroke-width="1" fill-rule="evenodd" data-shape="77"/>
      <polygon points="272,52 287,76 272,52" fill="#000000" stroke="#000000" stroke-width="1" fill-rule="evenodd" data-shape="78"/>
      <polygon points="289,56 268,74 289,56" fill="#000000" stroke="#000000" stroke-width="1" fill-rule="evenodd" data-shape="79"/>
      <polygon points="277,50 283,79 277,50" fill="#000000" stroke="#000000" stroke-width="1" fill-rule="evenodd" data-shape="80"/>
      <polygon points="291,71 269,56 291,71" fill="#000000" stroke="#000000" stroke-width="1" fill-rule="evenodd" data-shape="81"/>
      <polygon points="291,61 266,68 291,61" fill="#000000" stroke="#000000" stroke-width="1" fill-rule="evenodd" data-shape="82"/>
      <polygon points="285,53 272,78 285,53" fill="#000000" stroke="#000000" stroke-width="1" fill-rule="evenodd" data-shape="83"/>
      <polygon points="278,66 278,66 279,67 279,67 280,67 280,67 281,67 281,66 281,66 282,66 282,65 282,65 282,64 282,63 282,63 282,62 281,62 281,61 281,61 280,61 280,61 279,61 279,61 278,61 278,62 278,62 277,63 277,63 277,64 277,65 277,65 278,66 278,66" fill="#000000" stroke="#000000" stroke-width="1" fill-rule="evenodd" data-shape="84"/>
      <polygon points="278,65 262,31 264,30 280,64 280,64 280,65 280,65 280,66 279,66 279,66 278,65 278,65" fill="#000000" stroke="#000000" stroke-width="1" fill-rule="evenodd" data-shape="85"/>
      <polygon points="219,80 219,80 220,81 221,81 221,82 222,82 223,83 223,83 224,84 225,84 225,84 226,84 227,84 228,85 229,85 229,85 230,85 231,85 232,85 232,85 233,84 234,84 235,84 235,84 236,84 237,83 237,83 238,82 239,82 240,81 240,81 241,80 241,80 243,78 244,77 244,75 245,73 246,72 246,70 246,68 246,66 246,65 246,63 246,61 245,59 244,58 244,56 243,55 241,53 241,53 240,52 240,51 239,51 238,50 237,50 237,50 236,49 235,49 235,49 234,48 233,48 232,48 232,48 231,48 230,48 229,48 229,48 228,48 227,48 226,48 225,49 225,49 224,49 223,50 223,50 222,50 221,51 221,51 220,52 219,53 219,53 218,55 217,56 216,58 215,59 215,61 214,63 214,65 214,66 214,68 214,70 215,72 215,73 216,75 217,77 218,78 219,80" fill="#000000" stroke="#000000" stroke-width="1" fill-rule="evenodd" data-shape="86"/>
      <polygon points="221,76 221,77 222,78 223,78 223,78 223,79 224,79 225,80 225,80 226,80 226,80 227,80 228,81 228,81 229,81 230,81 230,81 231,81 231,81 232,81 233,81 233,80 234,80 234,80 235,80 236,80 236,79 237,79 237,78 238,78 238,78 239,77 239,76 240,75 241,74 242,73 242,72 243,70 243,69 243,67 243,66 243,64 243,63 243,62 242,60 242,59 241,58 240,56 239,55 239,55 238,54 238,54 237,53 237,53 236,53 236,52 235,52 234,52 234,52 233,51 233,51 232,51 231,51 231,51 230,51 230,51 229,51 228,51 228,51 227,51 226,52 226,52 225,52 225,52 224,53 223,53 223,53 223,54 222,54 221,55 221,55 220,56 219,58 219,59 218,60 218,62 217,63 217,64 217,66 217,67 217,69 218,70 218,72 219,73 219,74 220,75 221,76" fill="#000000" stroke="#000000" stroke-width="1" fill-rule="evenodd" data-shape="87"/>
      <polygon points="233,53 230,82 233,53" fill="#000000" stroke="#000000" stroke-width="1" fill-rule="evenodd" data-shape="88"/>
      <polygon points="243,69 217,64 243,69" fill="#000000" stroke="#000000" stroke-width="1" fill-rule="evenodd" data-shape="89"/>
      <polygon points="224,54 239,78 224,54" fill="#000000" stroke="#000000" stroke-width="1" fill-rule="evenodd" data-shape="90"/>
      <polygon points="241,57 220,75 241,57" fill="#000000" stroke="#000000" stroke-width="1" fill-rule="evenodd" data-shape="91"/>
      <polygon points="228,52 234,81 228,52" fill="#000000" stroke="#000000" stroke-width="1" fill-rule="evenodd" data-shape="92"/>
      <polygon points="242,73 220,58 242,73" fill="#000000" stroke="#000000" stroke-width="1" fill-rule="evenodd" data-shape="93"/>
      <polygon points="243,62 218,69 243,62" fill="#000000" stroke="#000000" stroke-width="1" fill-rule="evenodd" data-shape="94"/>
      <polygon points="237,54 224,79 237,54" fill="#000000" stroke="#000000" stroke-width="1" fill-rule="evenodd" data-shape="95"/>
      <polygon points="230,68 230,68 231,69 231,69 232,69 232,69 233,69 233,68 233,68 234,68 234,67 234,67 234,66 234,65 234,65 234,64 233,64 233,63 233,63 232,63 232,63 231,63 231,63 230,63 230,64 230,64 229,65 229,65 229,66 229,67 229,67 230,68 230,68" fill="#000000" stroke="#000000" stroke-width="1" fill-rule="evenodd" data-shape="96"/>
      <polygon points="230,65 240,40 243,41 231,66 230,65" fill="#000000" stroke="#000000" stroke-width="1" fill-rule="evenodd" data-shape="97"/>
      <polygon points="271,48 240,49 241,46 270,46 271,48" fill="#000000" stroke="#000000" stroke-width="1" fill-rule="evenodd" data-shape="98"/>
      <polygon points="269,28 261,33 261,34 260,34 260,35 260,35 260,35 261,36 261,36 261,37 262,37 262,38 263,38 263,39 264,39 264,39 264,40 265,40 262,42 262,41 261,41 261,40 260,39 260,39 260,39 259,38 259,38 258,37 258,37 258,37 257,36 257,35 257,34 257,33 257,32 270,25 271,25 271,26 271,27 271,28 271,29 272,30 272,31 273,32 271,32 271,32 270,32 270,31 270,31 269,31 269,30 269,29 269,28" fill="#000000" stroke="#000000" stroke-width="1" fill-rule="evenodd" data-shape="99"/>
      <polygon points="264,32 263,29 265,28 266,31 264,32" fill="#000000" stroke="#000000" stroke-width="1" fill-rule="evenodd" data-shape="100"/>
      <polygon points="249,43 233,39 234,33 234,33 235,33 235,33 235,33 236,34 236,34 237,34 237,35 238,36 239,36 240,37 241,38 243,38 244,39 246,39 249,40 249,43" fill="#000000" stroke="none" stroke-width="0" fill-rule="evenodd" data-shape="101"/>
      <polygon points="274,48 274,48 274,48 274,48 274,48 274,48 274,48 275,48 275,48 275,47 276,47 276,47 277,47 277,47 278,47 279,47 279,47 280,47 281,47 282,47 282,48 283,48 284,48 285,48 286,49 287,49 288,50 289,50 290,51 291,52 292,53 293,54 294,55 294,52 293,51 292,50 291,50 290,49 290,48 289,48 288,48 287,47 286,47 286,46 285,46 284,46 283,46 283,45 282,45 281,45 280,45 280,45 279,45 279,45 278,45 278,45 277,45 276,45 276,45 275,45 275,45 274,45 274,45 273,45 273,46 272,46 274,48" fill="#eded00" stroke="#000000" stroke-width="1" fill-rule="evenodd" data-shape="102"/>
      <polygon points="267,79 267,79 268,80 269,80 269,81 270,81 271,82 271,82 272,83 273,83 274,83 274,83 275,83 276,84 277,84 277,84 278,84 279,84 280,84 280,84 281,83 282,83 283,83 283,83 284,83 285,82 286,82 286,81 287,81 288,80 288,80 289,79 289,79 291,77 292,76 292,74 293,72 294,71 294,69 294,67 294,66 294,63 294,62 294,60 293,58 292,57 292,55 291,54 289,52 289,52 288,51 288,50 287,50 286,49 286,49 285,49 284,48 283,48 283,48 282,47 281,47 280,47 280,47 279,47 278,47 277,47 277,47 276,47 275,47 274,47 274,48 273,48 272,48 271,49 271,49 270,49 269,50 269,50 268,51 267,52 267,52 266,54 265,55 264,57 263,58 263,60 262,62 262,63 262,66 262,67 262,69 263,71 263,72 264,74 265,76 266,77 267,79" fill="#545454" stroke="#000000" stroke-width="1" fill-rule="evenodd" data-shape="103"/>
      <polygon points="269,75 269,76 270,77 270,77 271,77 272,78 272,78 273,79 273,79 274,79 274,79 275,79 276,80 276,80 277,80 277,80 278,80 279,80 279,80 280,80 281,80 281,79 282,79 282,79 283,79 284,79 284,78 285,78 285,77 286,77 286,77 287,76 287,75 288,74 289,73 290,72 290,71 291,69 291,68 291,66 291,65 291,63 291,62 291,61 290,59 290,58 289,57 288,55 287,54 287,54 286,53 286,53 285,52 285,52 284,52 284,51 283,51 282,51 282,51 281,50 281,50 280,50 279,50 279,50 278,50 277,50 277,50 276,50 276,50 275,50 274,51 274,51 273,51 273,51 272,52 272,52 271,52 270,53 270,53 269,54 269,54 268,55 267,57 267,58 266,59 266,61 265,62 265,63 265,65 265,66 265,68 266,69 266,71 267,72 267,73 268,74 269,75" fill="#ffffff" stroke="#000000" stroke-width="1" fill-rule="evenodd" data-shape="104"/>
      <polygon points="281,51 278,80 281,51" fill="#545454" stroke="#000000" stroke-width="1" fill-rule="evenodd" data-shape="105"/>
      <polygon points="292,67 266,62 292,67" fill="#545454" stroke="#000000" stroke-width="1" fill-rule="evenodd" data-shape="106"/>
      <polygon points="272,52 287,76 272,52" fill="#545454" stroke="#000000" stroke-width="1" fill-rule="evenodd" data-shape="107"/>
      <polygon points="289,56 268,74 289,56" fill="#545454" stroke="#000000" stroke-width="1" fill-rule="evenodd" data-shape="108"/>
      <polygon points="277,50 283,79 277,50" fill="#545454" stroke="#000000" stroke-width="1" fill-rule="evenodd" data-shape="109"/>
      <polygon points="291,71 269,56 291,71" fill="#545454" stroke="#000000" stroke-width="1" fill-rule="evenodd" data-shape="110"/>
      <polygon points="291,61 266,68 291,61" fill="#545454" stroke="#000000" stroke-width="1" fill-rule="evenodd" data-shape="111"/>
      <polygon points="285,53 272,78 285,53" fill="#545454" stroke="#000000" stroke-width="1" fill-rule="evenodd" data-shape="112"/>
      <polygon points="278,66 278,66 279,67 279,67 280,67 280,67 281,67 281,66 281,66 282,66 282,65 282,65 282,64 282,63 282,63 282,62 281,62 281,61 281,61 280,61 280,61 279,61 279,61 278,61 278,62 278,62 277,63 277,63 277,64 277,65 277,65 278,66 278,66" fill="#545454" stroke="#000000" stroke-width="1" fill-rule="evenodd" data-shape="113"/>
      <polygon points="278,65 262,31 264,30 280,64 280,64 280,65 280,65 280,66 279,66 279,66 278,65 278,65" fill="#eded00" stroke="#000000" stroke-width="1" fill-rule="evenodd" data-shape="114"/>
      <polygon points="219,80 219,80 220,81 221,81 221,82 222,82 223,83 223,83 224,84 225,84 225,84 226,84 227,84 228,85 229,85 229,85 230,85 231,85 232,85 232,85 233,84 234,84 235,84 235,84 236,84 237,83 237,83 238,82 239,82 240,81 240,81 241,80 241,80 243,78 244,77 244,75 245,73 246,72 246,70 246,68 246,66 246,65 246,63 246,61 245,59 244,58 244,56 243,55 241,53 241,53 240,52 240,51 239,51 238,50 237,50 237,50 236,49 235,49 235,49 234,48 233,48 232,48 232,48 231,48 230,48 229,48 229,48 228,48 227,48 226,48 225,49 225,49 224,49 223,50 223,50 222,50 221,51 221,51 220,52 219,53 219,53 218,55 217,56 216,58 215,59 215,61 214,63 214,65 214,66 214,68 214,70 215,72 215,73 216,75 217,77 218,78 219,80" fill="#545454" stroke="#000000" stroke-width="1" fill-rule="evenodd" data-shape="115"/>
      <polygon points="221,76 221,77 222,78 223,78 223,78 223,79 224,79 225,80 225,80 226,80 226,80 227,80 228,81 228,81 229,81 230,81 230,81 231,81 231,81 232,81 233,81 233,80 234,80 234,80 235,80 236,80 236,79 237,79 237,78 238,78 238,78 239,77 239,76 240,75 241,74 242,73 242,72 243,70 243,69 243,67 243,66 243,64 243,63 243,62 242,60 242,59 241,58 240,56 239,55 239,55 238,54 238,54 237,53 237,53 236,53 236,52 235,52 234,52 234,52 233,51 233,51 232,51 231,51 231,51 230,51 230,51 229,51 228,51 228,51 227,51 226,52 226,52 225,52 225,52 224,53 223,53 223,53 223,54 222,54 221,55 221,55 220,56 219,58 219,59 218,60 218,62 217,63 217,64 217,66 217,67 217,69 218,70 218,72 219,73 219,74 220,75 221,76" fill="#ffffff" stroke="#000000" stroke-width="1" fill-rule="evenodd" data-shape="116"/>
      <polygon points="233,53 230,82 233,53" fill="#545454" stroke="#000000" stroke-width="1" fill-rule="evenodd" data-shape="117"/>
      <polygon points="243,69 217,64 243,69" fill="#545454" stroke="#000000" stroke-width="1" fill-rule="evenodd" data-shape="118"/>
      <polygon points="224,54 239,78 224,54" fill="#545454" stroke="#000000" stroke-width="1" fill-rule="evenodd" data-shape="119"/>
      <polygon points="241,57 220,75 241,57" fill="#545454" stroke="#000000" stroke-width="1" fill-rule="evenodd" data-shape="120"/>
      <polygon points="228,52 234,81 228,52" fill="#545454" stroke="#000000" stroke-width="1" fill-rule="evenodd" data-shape="121"/>
      <polygon points="242,73 220,58 242,73" fill="#545454" stroke="#000000" stroke-width="1" fill-rule="evenodd" data-shape="122"/>
      <polygon points="243,62 218,69 243,62" fill="#545454" stroke="#000000" stroke-width="1" fill-rule="evenodd" data-shape="123"/>
      <polygon points="237,54 224,79 237,54" fill="#545454" stroke="#000000" stroke-width="1" fill-rule="evenodd" data-shape="124"/>
      <polygon points="230,68 230,68 231,69 231,69 232,69 232,69 233,69 233,68 233,68 234,68 234,67 234,67 234,66 234,65 234,65 234,64 233,64 233,63 233,63 232,63 232,63 231,63 231,63 230,63 230,64 230,64 229,65 229,65 229,66 229,67 229,67 230,68 230,68" fill="#545454" stroke="#000000" stroke-width="1" fill-rule="evenodd" data-shape="125"/>
      <polygon points="230,65 240,40 243,41 231,66 230,65" fill="#eded00" stroke="#000000" stroke-width="1" fill-rule="evenodd" data-shape="126"/>
      <polygon points="271,48 240,49 241,46 270,46 271,48" fill="#eded00" stroke="#000000" stroke-width="1" fill-rule="evenodd" data-shape="127"/>
      <polygon points="269,28 261,33 261,34 260,34 260,35 260,35 260,35 261,36 261,36 261,37 262,37 262,38 263,38 263,39 264,39 264,39 264,40 265,40 262,42 262,41 261,41 261,40 260,39 260,39 260,39 259,38 259,38 258,37 258,37 258,37 257,36 257,35 257,34 257,33 257,32 270,25 271,25 271,26 271,27 271,28 271,29 272,30 272,31 273,32 271,32 271,32 270,32 270,31 270,31 269,31 269,30 269,29 269,28" fill="#dd0000" stroke="#000000" stroke-width="1" fill-rule="evenodd" data-shape="128"/>
      <polygon points="264,32 263,29 265,28 266,31 264,32" fill="#999999" stroke="#000000" stroke-width="1" fill-rule="evenodd" data-shape="129"/>
      <polygon points="249,43 233,39 234,33 234,33 235,33 235,33 235,33 236,34 236,34 237,34 237,35 238,36 239,36 240,37 241,38 243,38 244,39 246,39 249,40 249,43" fill="#ba7c4c" stroke="none" stroke-width="0" fill-rule="evenodd" data-shape="130"/>
      <g data-mdcr="group" class="mdcr-region">
        <polygon points="323,85 323,86 324,86 324,86 324,87 324,87 325,87 325,87 325,87 325,87 325,87 325,87 326,87 326,86 326,86 327,86 327,85 327,84 328,84 328,83 328,81 328,80 328,79 327,79 327,78 327,77 326,77 326,77 326,76 325,76 325,76 325,76 325,76 325,76 325,76 324,76 324,76 324,77 324,77 323,77 323,78 323,79 322,79 322,80 322,81 322,83 322,84 323,84 323,85 323,85 323,85" fill="#ffffff" stroke="none" stroke-width="0" fill-rule="evenodd" data-shape="131"/>
        <polyline points="323,85 323,86 324,86 324,86 324,87 324,87 325,87 325,87 325,87 325,87 325,87 325,87 326,87 326,86 326,86 327,86 327,85 327,84 328,84 328,83 328,81 328,80 328,79 327,79 327,78 327,77 326,77 326,77 326,76 325,76 325,76 325,76 325,76 325,76 325,76 324,76 324,76 324,77 324,77 323,77 323,78 323,79 322,79 322,80 322,81 322,83 322,84 323,84 323,85 323,85" fill="none" stroke="#ffffff" stroke-width="1"/>
        <g data-mdcr="group" class="mdcr-region">
          <polygon points="378,78 378,53 371,46 370,11 370,11 369,10 368,10 368,10 366,10 364,10 363,9 361,9 359,9 356,9 355,9 352,9 350,9 348,9 345,9 343,9 340,9 337,9 335,9 333,9 330,9 329,10 326,10 324,10 322,10 321,11 319,11 318,11 317,11 316,11 315,11 315,12 316,51 316,51 316,52 317,53 317,53 317,53 317,53 317,54 318,54 318,55 319,56 319,58 319,61 319,63 319,67 319,72 319,78 319,77 320,76 320,76 321,76 321,75 321,74 321,74 321,73 322,73 322,72 322,72 323,71 323,71 324,71 324,71 325,71 325,71 325,71 325,71 326,71 326,71 327,71 327,71 328,72 328,72 329,73 329,74 329,75 330,76 330,76 331,77 332,78 360,78 360,77 360,77 360,76 360,76 361,75 361,75 361,74 362,74 362,73 362,72 363,72 363,72 364,71 364,71 364,71 364,71 365,71 365,71 366,71 366,71 367,71 367,71 368,71 368,71 368,72 368,73 369,73 369,74 370,75 371,76 371,77 372,78 378,78 378,78 378,78" fill="#dd0000" stroke="none" stroke-width="0" fill-rule="evenodd" data-shape="132"/>
          <polygon points="370,35 363,34 363,47 370,47 370,35 370,35 370,35" fill="#dd0000" stroke="none" stroke-width="0" fill-rule="evenodd" data-shape="133"/>
          <polygon points="331,46 331,34 321,34 321,46 331,46 331,46 331,46" fill="#dd0000" stroke="none" stroke-width="0" fill-rule="evenodd" data-shape="134"/>
          <polygon points="347,34 336,34 336,46 347,46 347,34 347,34 347,34" fill="#dd0000" stroke="none" stroke-width="0" fill-rule="evenodd" data-shape="135"/>
          <polygon points="361,46 350,46 350,34 361,34 361,46 361,46 361,46" fill="#dd0000" stroke="none" stroke-width="0" fill-rule="evenodd" data-shape="136"/>
          <polygon points="369,17 369,29 360,29 360,17 369,17 369,17 369,17" fill="#dd0000" stroke="none" stroke-width="0" fill-rule="evenodd" data-shape="137"/>
          <polygon points="358,17 349,17 349,29 358,29 358,17 358,17 358,17" fill="#dd0000" stroke="none" stroke-width="0" fill-rule="evenodd" data-shape="138"/>
          <polygon points="346,17 346,29 337,29 337,17 346,17 346,17 346,17" fill="#dd0000" stroke="none" stroke-width="0" fill-rule="evenodd" data-shape="139"/>
          <polygon points="323,17 317,17 317,29 323,29 323,17 323,17 323,17" fill="#dd0000" stroke="none" stroke-width="0" fill-rule="evenodd" data-shape="140"/>
          <polygon points="335,17 335,29 326,29 326,17 335,17 335,17 335,17" fill="#dd0000" stroke="none" stroke-width="0" fill-rule="evenodd" data-shape="141"/>
        </g>
        <polygon points="331,46 331,34 321,34 321,46 331,46 331,46 331,46" fill="#000000" stroke="none" stroke-width="0" fill-rule="evenodd" data-shape="142"/>
        <polygon points="347,34 336,34 336,46 347,46 347,34 347,34 347,34" fill="#000000" stroke="none" stroke-width="0" fill-rule="evenodd" data-shape="143"/>
        <polygon points="360,46 349,46 349,34 360,34 360,46 360,46 360,46" fill="#000000" stroke="none" stroke-width="0" fill-rule="evenodd" data-shape="144"/>
        <polygon points="368,17 368,29 359,29 359,17 368,17 368,17 368,17" fill="#000000" stroke="none" stroke-width="0" fill-rule="evenodd" data-shape="145"/>
        <polygon points="358,17 349,17 349,29 358,29 358,17 358,17 358,17" fill="#000000" stroke="none" stroke-width="0" fill-rule="evenodd" data-shape="146"/>
        <polygon points="347,17 347,29 338,29 338,17 347,17 347,17 347,17" fill="#000000" stroke="none" stroke-width="0" fill-rule="evenodd" data-shape="147"/>
        <polygon points="324,17 318,17 318,29 324,29 324,17 324,17 324,17" fill="#000000" stroke="none" stroke-width="0" fill-rule="evenodd" data-shape="148"/>
        <polygon points="379,57 377,57 377,63 379,63 379,57 379,57 379,57" fill="#545454" stroke="none" stroke-width="0" fill-rule="evenodd" data-shape="149"/>
        <polyline points="379,57 377,57 377,63 379,63 379,57 379,57" fill="none" stroke="#ffffff" stroke-width="1"/>
        <polygon points="379,57 377,57 377,63 379,63 379,57 379,57 379,57" fill="#000000" stroke="none" stroke-width="0" fill-rule="evenodd" data-shape="150"/>
        <polyline points="379,57 377,57 377,63 379,63 379,57" fill="none" stroke="#ffffff" stroke-width="1"/>
        <polyline points="363,73 363,35 370,35 370,75" fill="none" stroke="#ffffff" stroke-width="1"/>
        <polygon points="362,57 320,57 320,63 362,63 362,57 362,57 362,57" fill="#bababa" stroke="#ffffff" stroke-width="1" fill-rule="evenodd" data-shape="151"/>
        <polygon points="370,36 370,47 365,47 365,36 370,36 370,36" fill="#000000" stroke="none" stroke-width="0" fill-rule="evenodd" data-shape="152"/>
        <polygon points="336,29 336,17 326,17 326,29 336,29 336,29 336,29" fill="#000000" stroke="none" stroke-width="0" fill-rule="evenodd" data-shape="153"/>
        <ellipse cx="326" cy="82" rx="5" ry="9" fill="#000000" stroke="#000000" stroke-width="1" data-shape="154"/>
        <ellipse cx="366" cy="82" rx="5" ry="9" fill="#000000" stroke="#000000" stroke-width="1" data-shape="155"/>
      </g>
    </g>
  </g>
</svg>