<svg xmlns="http://www.w3.org/2000/svg" xmlns:mdcr="http://sensory.com/mdcr" viewBox="0 0 400 300" width="400" height="300">
  <metadata>
    <mdcr:info xmlns:mdcr="http://sensory.com/mdcr">
      <mdcr:source format="WMF" generator="wmf2svg.js"/>
      <mdcr:bounds left="0" top="0" right="6000" bottom="4500" inch="1440"/>
      <mdcr:records count="2">
        <mdcr:record tag="MDCR-{"/>
        <mdcr:record tag="MDCR-}"/>
      </mdcr:records>
    </mdcr:info>
  </metadata>
  <g data-mdcr="group" class="mdcr-region">
    <polygon points="216,170 212,147 230,152 210,141 225,130 204,139 205,120 199,142 185,130 198,149 180,152 203,153 194,170 209,153 216,170" fill="none" stroke="none" stroke-width="0" fill-rule="evenodd"/>
    <polygon points="32,170 40,144 20,145 43,139 32,120 48,140 58,120 50,146 70,145 47,151 58,170 42,150 32,170" fill="#000080" stroke="#0000ff" stroke-width="1" fill-rule="evenodd" data-shape="0"/>
    <polygon points="218,65 210,39 230,40 207,34 218,15 202,35 192,15 200,41 180,40 203,46 192,65 208,45 218,65" fill="#000080" stroke="#0000ff" stroke-width="1" fill-rule="evenodd" data-shape="1"/>
    <polygon points="358,170 350,144 370,145 347,139 358,120 342,140 332,120 340,146 320,145 343,151 332,170 348,150 358,170" fill="#000080" stroke="#0000ff" stroke-width="1" fill-rule="evenodd" data-shape="2"/>
    <polygon points="218,275 210,249 230,250 207,244 218,225 202,245 192,225 200,251 180,250 203,256 192,275 208,255 218,275" fill="#000080" stroke="#0000ff" stroke-width="1" fill-rule="evenodd" data-shape="3"/>
  </g>
</svg>