<svg xmlns="http://www.w3.org/2000/svg" xmlns:mdcr="http://sensory.com/mdcr" viewBox="0 0 400 300" width="400" height="300">
  <metadata>
    <mdcr:info xmlns:mdcr="http://sensory.com/mdcr">
      <mdcr:source format="WMF" generator="wmf2svg.js"/>
      <mdcr:bounds left="0" top="0" right="6000" bottom="4500" inch="1440"/>
      <mdcr:records count="2">
        <mdcr:record tag="MDCR-{"/>
        <mdcr:record tag="MDCR-}"/>
      </mdcr:records>
    </mdcr:info>
  </metadata>
  <g data-mdcr="group" class="mdcr-region">
    <polygon points="216,170 212,147 230,152 210,141 225,130 204,139 205,120 199,142 185,130 198,149 180,152 203,153 194,170 209,153 216,170" fill="none" stroke="none" stroke-width="0" fill-rule="evenodd"/>
    <polygon points="58,170 50,144 70,145 47,139 58,120 42,140 32,120 40,146 20,145 43,151 32,170 48,150 58,170" fill="#ff0000" stroke="#ff0000" stroke-width="1" fill-rule="evenodd" data-shape="0"/>
    <polygon points="192,65 200,39 180,40 203,34 192,15 208,35 218,15 210,41 230,40 207,46 218,65 202,45 192,65" fill="#ff0000" stroke="#ff0000" stroke-width="1" fill-rule="evenodd" data-shape="1"/>
    <polygon points="358,170 350,144 370,145 347,139 358,120 342,140 332,120 340,146 320,145 343,151 332,170 348,150 358,170" fill="#ff0000" stroke="#ff0000" stroke-width="1" fill-rule="evenodd" data-shape="2"/>
    <polygon points="218,275 210,249 230,250 207,244 218,225 202,245 192,225 200,251 180,250 203,256 192,275 208,255 218,275" fill="#ff0000" stroke="#ff0000" stroke-width="1" fill-rule="evenodd" data-shape="3"/>
  </g>
</svg>