<svg xmlns="http://www.w3.org/2000/svg" xmlns:mdcr="http://sensory.com/mdcr" viewBox="0 0 400 300" width="400" height="300">
  <metadata>
    <mdcr:info xmlns:mdcr="http://sensory.com/mdcr">
      <mdcr:source format="WMF" generator="wmf2svg.js"/>
      <mdcr:bounds left="0" top="0" right="6000" bottom="4500" inch="1440"/>
      <mdcr:records count="2">
        <mdcr:record tag="MDCR-{"/>
        <mdcr:record tag="MDCR-}"/>
      </mdcr:records>
    </mdcr:info>
  </metadata>
  <g data-mdcr="group" class="mdcr-region">
    <polygon points="216,170 212,147 230,152 210,141 225,130 204,139 205,120 199,142 185,130 198,149 180,152 203,153 194,170 209,153 216,170" fill="#ff0000" stroke="#ff0000" stroke-width="1" fill-rule="evenodd" data-shape="0"/>
    <polygon points="55,170 55,148 70,155 54,140 70,135 48,135 55,120 40,136 35,120 35,142 20,135 36,150 20,155 42,155 35,170 50,154 55,170" fill="#ff0000" stroke="#ff0000" stroke-width="1" fill-rule="evenodd" data-shape="1"/>
    <polygon points="216,65 212,42 230,47 210,36 225,25 204,34 205,15 199,37 185,25 198,44 180,47 203,48 194,65 209,48 216,65" fill="#ff0000" stroke="#ff0000" stroke-width="1" fill-rule="evenodd" data-shape="2"/>
    <polygon points="320,120 337,153 320,170 353,153 370,170 353,137 370,120 337,137 320,120" fill="#ff0000" stroke="#ff0000" stroke-width="1" fill-rule="evenodd" data-shape="3"/>
    <polygon points="218,275 210,249 230,250 207,244 218,225 202,245 192,225 200,251 180,250 203,256 192,275 208,255 218,275" fill="#ff0000" stroke="#ff0000" stroke-width="1" fill-rule="evenodd" data-shape="4"/>
  </g>
</svg>