<svg xmlns="http://www.w3.org/2000/svg" xmlns:mdcr="http://sensory.com/mdcr" viewBox="0 0 400 300" width="400" height="300">
  <metadata>
    <mdcr:info xmlns:mdcr="http://sensory.com/mdcr">
      <mdcr:source format="WMF" generator="wmf2svg.js"/>
      <mdcr:bounds left="0" top="0" right="6000" bottom="4500" inch="1440"/>
      <mdcr:records count="33">
        <mdcr:record tag="MDCR-{"/>
        <mdcr:record tag="MDCR-{"/>
        <mdcr:record tag="MDCR-{"/>
        <mdcr:record tag="MDCR-}"/>
        <mdcr:record tag="MDCR-{"/>
        <mdcr:record tag="MDCR-}"/>
        <mdcr:record tag="MDCR-}"/>
        <mdcr:record tag="MDCR-{"/>
        <mdcr:record tag="MDCR-{"/>
        <mdcr:record tag="MDCR-}"/>
        <mdcr:record tag="MDCR-{"/>
        <mdcr:record tag="MDCR-}"/>
        <mdcr:record tag="MDCR-}"/>
        <mdcr:record tag="MDCR-{"/>
        <mdcr:record tag="MDCR-{"/>
        <mdcr:record tag="MDCR-}"/>
        <mdcr:record tag="MDCR-{"/>
        <mdcr:record tag="MDCR-}"/>
        <mdcr:record tag="MDCR-}"/>
        <mdcr:record tag="MDCR-{"/>
        <mdcr:record tag="MDCR-{"/>
        <mdcr:record tag="MDCR-}"/>
        <mdcr:record tag="MDCR-{"/>
        <mdcr:record tag="MDCR-}"/>
        <mdcr:record tag="MDCR-}"/>
        <mdcr:record tag="MDCR-{"/>
        <mdcr:record tag="MDCR-{"/>
        <mdcr:record tag="MDCR-}"/>
        <mdcr:record tag="MDCR-{"/>
        <mdcr:record tag="MDCR-}"/>
        <mdcr:record tag="MDCR-}"/>
        <mdcr:record tag="MDCR-}"/>
        <mdcr:record tag="MDCR-S"/>
      </mdcr:records>
    </mdcr:info>
  </metadata>
  <g data-mdcr="group" class="mdcr-region">
    <g data-mdcr="group" class="mdcr-region">
      <g data-mdcr="group" class="mdcr-region">
        <polygon points="195,236 195,236 195,225 180,236 195,236" fill="#ff0000" stroke="none" stroke-width="0" fill-rule="evenodd" data-shape="0"/>
        <polygon points="195,258 195,258 195,247 180,258 195,258" fill="#ffff00" stroke="none" stroke-width="0" fill-rule="evenodd" data-shape="1"/>
        <polygon points="195,269 195,269 195,257 180,269 195,269" fill="#00ff00" stroke="none" stroke-width="0" fill-rule="evenodd" data-shape="2"/>
        <polygon points="195,247 195,247 195,235 180,247 195,247" fill="#0000ff" stroke="none" stroke-width="0" fill-rule="evenodd" data-shape="3"/>
        <polygon points="209,236 209,236 209,225 194,236 209,236" fill="#0000ff" stroke="none" stroke-width="0" fill-rule="evenodd" data-shape="4"/>
        <polygon points="209,258 209,258 209,247 194,258 209,258" fill="#00ff00" stroke="none" stroke-width="0" fill-rule="evenodd" data-shape="5"/>
        <polygon points="209,269 209,269 209,257 194,269 209,269" fill="#ff0000" stroke="none" stroke-width="0" fill-rule="evenodd" data-shape="6"/>
        <polygon points="209,247 209,247 209,235 194,247 209,247" fill="#ffff00" stroke="none" stroke-width="0" fill-rule="evenodd" data-shape="7"/>
        <polygon points="224,236 224,236 224,225 209,236 224,236" fill="#ffff00" stroke="none" stroke-width="0" fill-rule="evenodd" data-shape="8"/>
        <polygon points="224,258 224,258 224,247 209,258 224,258" fill="#ff0000" stroke="none" stroke-width="0" fill-rule="evenodd" data-shape="9"/>
        <polygon points="224,269 224,269 224,257 209,269 224,269" fill="#0000ff" stroke="none" stroke-width="0" fill-rule="evenodd" data-shape="10"/>
        <polygon points="224,247 224,247 224,235 209,247 224,247" fill="#00ff00" stroke="none" stroke-width="0" fill-rule="evenodd" data-shape="11"/>
        <polygon points="239,236 239,236 239,225 224,236 239,236" fill="#00ff00" stroke="none" stroke-width="0" fill-rule="evenodd" data-shape="12"/>
        <polygon points="239,258 239,258 239,247 224,258 239,258" fill="#0000ff" stroke="none" stroke-width="0" fill-rule="evenodd" data-shape="13"/>
        <polygon points="239,247 239,247 239,236 224,247 239,247" fill="#ff0000" stroke="none" stroke-width="0" fill-rule="evenodd" data-shape="14"/>
        <polygon points="239,269 239,269 239,258 224,269 239,269" fill="#ff0000" stroke="none" stroke-width="0" fill-rule="evenodd" data-shape="15"/>
      </g>
      <g data-mdcr="group" class="mdcr-region">
        <polygon points="180,225 180,225 180,236 195,225 180,225" fill="#00ff00" stroke="none" stroke-width="0" fill-rule="evenodd" data-shape="16"/>
        <polygon points="180,247 180,247 180,258 195,247 180,247" fill="#0000ff" stroke="none" stroke-width="0" fill-rule="evenodd" data-shape="17"/>
        <polygon points="180,258 180,258 180,269 195,258 180,258" fill="#ffff00" stroke="none" stroke-width="0" fill-rule="evenodd" data-shape="18"/>
        <polygon points="180,236 180,236 180,247 195,236 180,236" fill="#ff0000" stroke="none" stroke-width="0" fill-rule="evenodd" data-shape="19"/>
        <polygon points="194,225 194,225 194,236 209,225 194,225" fill="#ff0000" stroke="none" stroke-width="0" fill-rule="evenodd" data-shape="20"/>
        <polygon points="194,247 194,247 194,258 209,247 194,247" fill="#ffff00" stroke="none" stroke-width="0" fill-rule="evenodd" data-shape="21"/>
        <polygon points="194,258 194,258 194,269 209,258 194,258" fill="#00ff00" stroke="none" stroke-width="0" fill-rule="evenodd" data-shape="22"/>
        <polygon points="194,236 194,236 194,247 209,236 194,236" fill="#0000ff" stroke="none" stroke-width="0" fill-rule="evenodd" data-shape="23"/>
        <polygon points="209,225 209,225 209,236 224,225 209,225" fill="#ffff00" stroke="none" stroke-width="0" fill-rule="evenodd" data-shape="24"/>
        <polygon points="209,247 209,247 209,258 224,247 209,247" fill="#00ff00" stroke="none" stroke-width="0" fill-rule="evenodd" data-shape="25"/>
        <polygon points="209,258 209,258 209,269 224,258 209,258" fill="#ff0000" stroke="none" stroke-width="0" fill-rule="evenodd" data-shape="26"/>
        <polygon points="209,236 209,236 209,247 224,236 209,236" fill="#ffff00" stroke="none" stroke-width="0" fill-rule="evenodd" data-shape="27"/>
        <polygon points="224,225 224,225 224,236 239,225 224,225" fill="#ffff00" stroke="none" stroke-width="0" fill-rule="evenodd" data-shape="28"/>
        <polygon points="224,247 224,247 224,258 239,247 224,247" fill="#ff0000" stroke="none" stroke-width="0" fill-rule="evenodd" data-shape="29"/>
        <polygon points="224,236 224,236 224,247 239,236 224,236" fill="#00ff00" stroke="none" stroke-width="0" fill-rule="evenodd" data-shape="30"/>
        <polygon points="224,258 224,258 224,269 239,258 224,258" fill="#0000ff" stroke="none" stroke-width="0" fill-rule="evenodd" data-shape="31"/>
      </g>
    </g>
    <g data-mdcr="group" class="mdcr-region">
      <g data-mdcr="group" class="mdcr-region">
        <polygon points="35,41 35,41 35,30 20,41 35,41" fill="#ff0000" stroke="none" stroke-width="0" fill-rule="evenodd" data-shape="32"/>
        <polygon points="35,63 35,63 35,52 20,63 35,63" fill="#ffff00" stroke="none" stroke-width="0" fill-rule="evenodd" data-shape="33"/>
        <polygon points="35,74 35,74 35,62 20,74 35,74" fill="#00ff00" stroke="none" stroke-width="0" fill-rule="evenodd" data-shape="34"/>
        <polygon points="35,52 35,52 35,40 20,52 35,52" fill="#0000ff" stroke="none" stroke-width="0" fill-rule="evenodd" data-shape="35"/>
        <polygon points="49,41 49,41 49,30 34,41 49,41" fill="#0000ff" stroke="none" stroke-width="0" fill-rule="evenodd" data-shape="36"/>
        <polygon points="49,63 49,63 49,52 34,63 49,63" fill="#00ff00" stroke="none" stroke-width="0" fill-rule="evenodd" data-shape="37"/>
        <polygon points="49,74 49,74 49,62 34,74 49,74" fill="#ff0000" stroke="none" stroke-width="0" fill-rule="evenodd" data-shape="38"/>
        <polygon points="49,52 49,52 49,40 34,52 49,52" fill="#ffff00" stroke="none" stroke-width="0" fill-rule="evenodd" data-shape="39"/>
        <polygon points="64,41 64,41 64,30 49,41 64,41" fill="#ffff00" stroke="none" stroke-width="0" fill-rule="evenodd" data-shape="40"/>
        <polygon points="64,63 64,63 64,52 49,63 64,63" fill="#ff0000" stroke="none" stroke-width="0" fill-rule="evenodd" data-shape="41"/>
        <polygon points="64,74 64,74 64,62 49,74 64,74" fill="#0000ff" stroke="none" stroke-width="0" fill-rule="evenodd" data-shape="42"/>
        <polygon points="64,52 64,52 64,40 49,52 64,52" fill="#00ff00" stroke="none" stroke-width="0" fill-rule="evenodd" data-shape="43"/>
        <polygon points="79,41 79,41 79,30 64,41 79,41" fill="#00ff00" stroke="none" stroke-width="0" fill-rule="evenodd" data-shape="44"/>
        <polygon points="79,63 79,63 79,52 64,63 79,63" fill="#0000ff" stroke="none" stroke-width="0" fill-rule="evenodd" data-shape="45"/>
        <polygon points="79,52 79,52 79,41 64,52 79,52" fill="#ff0000" stroke="none" stroke-width="0" fill-rule="evenodd" data-shape="46"/>
        <polygon points="79,74 79,74 79,63 64,74 79,74" fill="#ffff00" stroke="none" stroke-width="0" fill-rule="evenodd" data-shape="47"/>
      </g>
      <g data-mdcr="group" class="mdcr-region">
        <polygon points="20,30 20,30 20,41 35,30 20,30" fill="#00ff00" stroke="none" stroke-width="0" fill-rule="evenodd" data-shape="48"/>
        <polygon points="20,52 20,52 20,63 35,52 20,52" fill="#0000ff" stroke="none" stroke-width="0" fill-rule="evenodd" data-shape="49"/>
        <polygon points="20,63 20,63 20,74 35,63 20,63" fill="#ffff00" stroke="none" stroke-width="0" fill-rule="evenodd" data-shape="50"/>
        <polygon points="20,41 20,41 20,52 35,41 20,41" fill="#ff0000" stroke="none" stroke-width="0" fill-rule="evenodd" data-shape="51"/>
        <polygon points="34,30 34,30 34,41 49,30 34,30" fill="#0000ff" stroke="none" stroke-width="0" fill-rule="evenodd" data-shape="52"/>
        <polygon points="34,52 34,52 34,63 49,52 34,52" fill="#ffff00" stroke="none" stroke-width="0" fill-rule="evenodd" data-shape="53"/>
        <polygon points="34,63 34,63 34,74 49,63 34,63" fill="#00ff00" stroke="none" stroke-width="0" fill-rule="evenodd" data-shape="54"/>
        <polygon points="34,41 34,41 34,52 49,41 34,41" fill="#0000ff" stroke="none" stroke-width="0" fill-rule="evenodd" data-shape="55"/>
        <polygon points="49,30 49,30 49,41 64,30 49,30" fill="#0000ff" stroke="none" stroke-width="0" fill-rule="evenodd" data-shape="56"/>
        <polygon points="49,52 49,52 49,63 64,52 49,52" fill="#00ff00" stroke="none" stroke-width="0" fill-rule="evenodd" data-shape="57"/>
        <polygon points="49,63 49,63 49,74 64,63 49,63" fill="#ff0000" stroke="none" stroke-width="0" fill-rule="evenodd" data-shape="58"/>
        <polygon points="49,41 49,41 49,52 64,41 49,41" fill="#ffff00" stroke="none" stroke-width="0" fill-rule="evenodd" data-shape="59"/>
        <polygon points="64,30 64,30 64,41 79,30 64,30" fill="#ffff00" stroke="none" stroke-width="0" fill-rule="evenodd" data-shape="60"/>
        <polygon points="64,52 64,52 64,63 79,52 64,52" fill="#ff0000" stroke="none" stroke-width="0" fill-rule="evenodd" data-shape="61"/>
        <polygon points="64,41 64,41 64,52 79,41 64,41" fill="#00ff00" stroke="none" stroke-width="0" fill-rule="evenodd" data-shape="62"/>
        <polygon points="64,63 64,63 64,74 79,63 64,63" fill="#0000ff" stroke="none" stroke-width="0" fill-rule="evenodd" data-shape="63"/>
      </g>
    </g>
    <g data-mdcr="group" class="mdcr-region">
      <g data-mdcr="group" class="mdcr-region">
        <polygon points="135,41 135,41 135,30 120,41 135,41" fill="#ff0000" stroke="none" stroke-width="0" fill-rule="evenodd" data-shape="64"/>
        <polygon points="135,63 135,63 135,52 120,63 135,63" fill="#ffff00" stroke="none" stroke-width="0" fill-rule="evenodd" data-shape="65"/>
        <polygon points="135,74 135,74 135,62 120,74 135,74" fill="#00ff00" stroke="none" stroke-width="0" fill-rule="evenodd" data-shape="66"/>
        <polygon points="135,52 135,52 135,40 120,52 135,52" fill="#0000ff" stroke="none" stroke-width="0" fill-rule="evenodd" data-shape="67"/>
        <polygon points="149,41 149,41 149,30 134,41 149,41" fill="#0000ff" stroke="none" stroke-width="0" fill-rule="evenodd" data-shape="68"/>
        <polygon points="149,63 149,63 149,52 134,63 149,63" fill="#00ff00" stroke="none" stroke-width="0" fill-rule="evenodd" data-shape="69"/>
        <polygon points="149,74 149,74 149,62 134,74 149,74" fill="#ff0000" stroke="none" stroke-width="0" fill-rule="evenodd" data-shape="70"/>
        <polygon points="149,52 149,52 149,40 134,52 149,52" fill="#ffff00" stroke="none" stroke-width="0" fill-rule="evenodd" data-shape="71"/>
        <polygon points="164,41 164,41 164,30 149,41 164,41" fill="#ffff00" stroke="none" stroke-width="0" fill-rule="evenodd" data-shape="72"/>
        <polygon points="164,63 164,63 164,52 149,63 164,63" fill="#ff0000" stroke="none" stroke-width="0" fill-rule="evenodd" data-shape="73"/>
        <polygon points="164,74 164,74 164,62 149,74 164,74" fill="#0000ff" stroke="none" stroke-width="0" fill-rule="evenodd" data-shape="74"/>
        <polygon points="164,52 164,52 164,40 149,52 164,52" fill="#00ff00" stroke="none" stroke-width="0" fill-rule="evenodd" data-shape="75"/>
        <polygon points="179,41 179,41 179,30 164,41 179,41" fill="#00ff00" stroke="none" stroke-width="0" fill-rule="evenodd" data-shape="76"/>
        <polygon points="179,63 179,63 179,52 164,63 179,63" fill="#0000ff" stroke="none" stroke-width="0" fill-rule="evenodd" data-shape="77"/>
        <polygon points="179,52 179,52 179,41 164,52 179,52" fill="#ff0000" stroke="none" stroke-width="0" fill-rule="evenodd" data-shape="78"/>
        <polygon points="179,74 179,74 179,63 164,74 179,74" fill="#ffff00" stroke="none" stroke-width="0" fill-rule="evenodd" data-shape="79"/>
      </g>
      <g data-mdcr="group" class="mdcr-region">
        <polygon points="120,30 120,30 120,41 135,30 120,30" fill="#00ff00" stroke="none" stroke-width="0" fill-rule="evenodd" data-shape="80"/>
        <polygon points="120,52 120,52 120,63 135,52 120,52" fill="#0000ff" stroke="none" stroke-width="0" fill-rule="evenodd" data-shape="81"/>
        <polygon points="120,63 120,63 120,74 135,63 120,63" fill="#ffff00" stroke="none" stroke-width="0" fill-rule="evenodd" data-shape="82"/>
        <polygon points="120,41 120,41 120,52 135,41 120,41" fill="#ff0000" stroke="none" stroke-width="0" fill-rule="evenodd" data-shape="83"/>
        <polygon points="134,30 134,30 134,41 149,30 134,30" fill="#ff0000" stroke="none" stroke-width="0" fill-rule="evenodd" data-shape="84"/>
        <polygon points="134,52 134,52 134,63 149,52 134,52" fill="#ffff00" stroke="none" stroke-width="0" fill-rule="evenodd" data-shape="85"/>
        <polygon points="134,63 134,63 134,74 149,63 134,63" fill="#00ff00" stroke="none" stroke-width="0" fill-rule="evenodd" data-shape="86"/>
        <polygon points="134,41 134,41 134,52 149,41 134,41" fill="#0000ff" stroke="none" stroke-width="0" fill-rule="evenodd" data-shape="87"/>
        <polygon points="149,30 149,30 149,41 164,30 149,30" fill="#ffff00" stroke="none" stroke-width="0" fill-rule="evenodd" data-shape="88"/>
        <polygon points="149,52 149,52 149,63 164,52 149,52" fill="#00ff00" stroke="none" stroke-width="0" fill-rule="evenodd" data-shape="89"/>
        <polygon points="149,63 149,63 149,74 164,63 149,63" fill="#ff0000" stroke="none" stroke-width="0" fill-rule="evenodd" data-shape="90"/>
        <polygon points="149,41 149,41 149,52 164,41 149,41" fill="#ffff00" stroke="none" stroke-width="0" fill-rule="evenodd" data-shape="91"/>
        <polygon points="164,30 164,30 164,41 179,30 164,30" fill="#ffff00" stroke="none" stroke-width="0" fill-rule="evenodd" data-shape="92"/>
        <polygon points="164,52 164,52 164,63 179,52 164,52" fill="#ff0000" stroke="none" stroke-width="0" fill-rule="evenodd" data-shape="93"/>
        <polygon points="164,41 164,41 164,52 179,41 164,41" fill="#00ff00" stroke="none" stroke-width="0" fill-rule="evenodd" data-shape="94"/>
        <polygon points="164,63 164,63 164,74 179,63 164,63" fill="#0000ff" stroke="none" stroke-width="0" fill-rule="evenodd" data-shape="95"/>
      </g>
    </g>
    <g data-mdcr="group" class="mdcr-region">
      <g data-mdcr="group" class="mdcr-region">
        <polygon points="235,41 235,41 235,30 220,41 235,41" fill="#ff0000" stroke="none" stroke-width="0" fill-rule="evenodd" data-shape="96"/>
        <polygon points="235,63 235,63 235,52 220,63 235,63" fill="#ffff00" stroke="none" stroke-width="0" fill-rule="evenodd" data-shape="97"/>
        <polygon points="235,74 235,74 235,62 220,74 235,74" fill="#00ff00" stroke="none" stroke-width="0" fill-rule="evenodd" data-shape="98"/>
        <polygon points="235,52 235,52 235,40 220,52 235,52" fill="#0000ff" stroke="none" stroke-width="0" fill-rule="evenodd" data-shape="99"/>
        <polygon points="249,41 249,41 249,30 234,41 249,41" fill="#0000ff" stroke="none" stroke-width="0" fill-rule="evenodd" data-shape="100"/>
        <polygon points="249,63 249,63 249,52 234,63 249,63" fill="#00ff00" stroke="none" stroke-width="0" fill-rule="evenodd" data-shape="101"/>
        <polygon points="249,74 249,74 249,62 234,74 249,74" fill="#ff0000" stroke="none" stroke-width="0" fill-rule="evenodd" data-shape="102"/>
        <polygon points="249,52 249,52 249,40 234,52 249,52" fill="#ffff00" stroke="none" stroke-width="0" fill-rule="evenodd" data-shape="103"/>
        <polygon points="264,41 264,41 264,30 249,41 264,41" fill="#ffff00" stroke="none" stroke-width="0" fill-rule="evenodd" data-shape="104"/>
        <polygon points="264,63 264,63 264,52 249,63 264,63" fill="#ff0000" stroke="none" stroke-width="0" fill-rule="evenodd" data-shape="105"/>
        <polygon points="264,74 264,74 264,62 249,74 264,74" fill="#0000ff" stroke="none" stroke-width="0" fill-rule="evenodd" data-shape="106"/>
        <polygon points="264,52 264,52 264,40 249,52 264,52" fill="#00ff00" stroke="none" stroke-width="0" fill-rule="evenodd" data-shape="107"/>
        <polygon points="279,41 279,41 279,30 264,41 279,41" fill="#00ff00" stroke="none" stroke-width="0" fill-rule="evenodd" data-shape="108"/>
        <polygon points="279,63 279,63 279,52 264,63 279,63" fill="#0000ff" stroke="none" stroke-width="0" fill-rule="evenodd" data-shape="109"/>
        <polygon points="279,52 279,52 279,41 264,52 279,52" fill="#ff0000" stroke="none" stroke-width="0" fill-rule="evenodd" data-shape="110"/>
        <polygon points="279,74 279,74 279,63 264,74 279,74" fill="#ffff00" stroke="none" stroke-width="0" fill-rule="evenodd" data-shape="111"/>
      </g>
      <g data-mdcr="group" class="mdcr-region">
        <polygon points="220,30 220,30 220,41 235,30 220,30" fill="#ff0000" stroke="none" stroke-width="0" fill-rule="evenodd" data-shape="112"/>
        <polygon points="220,52 220,52 220,63 235,52 220,52" fill="#0000ff" stroke="none" stroke-width="0" fill-rule="evenodd" data-shape="113"/>
        <polygon points="220,63 220,63 220,74 235,63 220,63" fill="#ffff00" stroke="none" stroke-width="0" fill-rule="evenodd" data-shape="114"/>
        <polygon points="220,41 220,41 220,52 235,41 220,41" fill="#ff0000" stroke="none" stroke-width="0" fill-rule="evenodd" data-shape="115"/>
        <polygon points="234,30 234,30 234,41 249,30 234,30" fill="#ff0000" stroke="none" stroke-width="0" fill-rule="evenodd" data-shape="116"/>
        <polygon points="234,52 234,52 234,63 249,52 234,52" fill="#ffff00" stroke="none" stroke-width="0" fill-rule="evenodd" data-shape="117"/>
        <polygon points="234,63 234,63 234,74 249,63 234,63" fill="#00ff00" stroke="none" stroke-width="0" fill-rule="evenodd" data-shape="118"/>
        <polygon points="234,41 234,41 234,52 249,41 234,41" fill="#0000ff" stroke="none" stroke-width="0" fill-rule="evenodd" data-shape="119"/>
        <polygon points="249,30 249,30 249,41 264,30 249,30" fill="#0000ff" stroke="none" stroke-width="0" fill-rule="evenodd" data-shape="120"/>
        <polygon points="249,52 249,52 249,63 264,52 249,52" fill="#00ff00" stroke="none" stroke-width="0" fill-rule="evenodd" data-shape="121"/>
        <polygon points="249,63 249,63 249,74 264,63 249,63" fill="#ff0000" stroke="none" stroke-width="0" fill-rule="evenodd" data-shape="122"/>
        <polygon points="249,41 249,41 249,52 264,41 249,41" fill="#ffff00" stroke="none" stroke-width="0" fill-rule="evenodd" data-shape="123"/>
        <polygon points="264,30 264,30 264,41 279,30 264,30" fill="#ffff00" stroke="none" stroke-width="0" fill-rule="evenodd" data-shape="124"/>
        <polygon points="264,52 264,52 264,63 279,52 264,52" fill="#ff0000" stroke="none" stroke-width="0" fill-rule="evenodd" data-shape="125"/>
        <polygon points="264,41 264,41 264,52 279,41 264,41" fill="#00ff00" stroke="none" stroke-width="0" fill-rule="evenodd" data-shape="126"/>
        <polygon points="264,63 264,63 264,74 279,63 264,63" fill="#0000ff" stroke="none" stroke-width="0" fill-rule="evenodd" data-shape="127"/>
      </g>
    </g>
    <g data-mdcr="group" class="mdcr-region">
      <g data-mdcr="group" class="mdcr-region">
        <polygon points="335,41 335,41 335,30 320,41 335,41" fill="#ff0000" stroke="none" stroke-width="0" fill-rule="evenodd" data-shape="128"/>
        <polygon points="335,63 335,63 335,52 320,63 335,63" fill="#ffff00" stroke="none" stroke-width="0" fill-rule="evenodd" data-shape="129"/>
        <polygon points="335,74 335,74 335,62 320,74 335,74" fill="#00ff00" stroke="none" stroke-width="0" fill-rule="evenodd" data-shape="130"/>
        <polygon points="335,52 335,52 335,40 320,52 335,52" fill="#0000ff" stroke="none" stroke-width="0" fill-rule="evenodd" data-shape="131"/>
        <polygon points="349,41 349,41 349,30 334,41 349,41" fill="#0000ff" stroke="none" stroke-width="0" fill-rule="evenodd" data-shape="132"/>
        <polygon points="349,63 349,63 349,52 334,63 349,63" fill="#00ff00" stroke="none" stroke-width="0" fill-rule="evenodd" data-shape="133"/>
        <polygon points="349,74 349,74 349,62 334,74 349,74" fill="#ff0000" stroke="none" stroke-width="0" fill-rule="evenodd" data-shape="134"/>
        <polygon points="349,52 349,52 349,40 334,52 349,52" fill="#ffff00" stroke="none" stroke-width="0" fill-rule="evenodd" data-shape="135"/>
        <polygon points="364,41 364,41 364,30 349,41 364,41" fill="#ffff00" stroke="none" stroke-width="0" fill-rule="evenodd" data-shape="136"/>
        <polygon points="364,63 364,63 364,52 349,63 364,63" fill="#ff0000" stroke="none" stroke-width="0" fill-rule="evenodd" data-shape="137"/>
        <polygon points="364,74 364,74 364,62 349,74 364,74" fill="#0000ff" stroke="none" stroke-width="0" fill-rule="evenodd" data-shape="138"/>
        <polygon points="364,52 364,52 364,40 349,52 364,52" fill="#00ff00" stroke="none" stroke-width="0" fill-rule="evenodd" data-shape="139"/>
        <polygon points="379,41 379,41 379,30 364,41 379,41" fill="#00ff00" stroke="none" stroke-width="0" fill-rule="evenodd" data-shape="140"/>
        <polygon points="379,63 379,63 379,52 364,63 379,63" fill="#0000ff" stroke="none" stroke-width="0" fill-rule="evenodd" data-shape="141"/>
        <polygon points="379,52 379,52 379,41 364,52 379,52" fill="#ff0000" stroke="none" stroke-width="0" fill-rule="evenodd" data-shape="142"/>
        <polygon points="379,74 379,74 379,63 364,74 379,74" fill="#ffff00" stroke="none" stroke-width="0" fill-rule="evenodd" data-shape="143"/>
      </g>
      <g data-mdcr="group" class="mdcr-region">
        <polygon points="320,30 320,30 320,41 335,30 320,30" fill="#00ff00" stroke="none" stroke-width="0" fill-rule="evenodd" data-shape="144"/>
        <polygon points="320,52 320,52 320,63 335,52 320,52" fill="#0000ff" stroke="none" stroke-width="0" fill-rule="evenodd" data-shape="145"/>
        <polygon points="320,63 320,63 320,75 335,63 320,63" fill="#ffff00" stroke="none" stroke-width="0" fill-rule="evenodd" data-shape="146"/>
        <polygon points="320,41 320,41 320,52 335,41 320,41" fill="#ff0000" stroke="none" stroke-width="0" fill-rule="evenodd" data-shape="147"/>
        <polygon points="334,30 334,30 334,41 349,30 334,30" fill="#ff0000" stroke="none" stroke-width="0" fill-rule="evenodd" data-shape="148"/>
        <polygon points="334,52 334,52 334,63 349,52 334,52" fill="#ffff00" stroke="none" stroke-width="0" fill-rule="evenodd" data-shape="149"/>
        <polygon points="334,63 334,63 334,74 349,63 334,63" fill="#00ff00" stroke="none" stroke-width="0" fill-rule="evenodd" data-shape="150"/>
        <polygon points="334,41 334,41 334,52 349,41 334,41" fill="#0000ff" stroke="none" stroke-width="0" fill-rule="evenodd" data-shape="151"/>
        <polygon points="349,30 349,30 349,41 364,30 349,30" fill="#0000ff" stroke="none" stroke-width="0" fill-rule="evenodd" data-shape="152"/>
        <polygon points="349,52 349,52 349,63 364,52 349,52" fill="#00ff00" stroke="none" stroke-width="0" fill-rule="evenodd" data-shape="153"/>
        <polygon points="349,63 349,63 349,74 364,63 349,63" fill="#ff0000" stroke="none" stroke-width="0" fill-rule="evenodd" data-shape="154"/>
        <polygon points="349,41 349,41 349,52 364,41 349,41" fill="#ffff00" stroke="none" stroke-width="0" fill-rule="evenodd" data-shape="155"/>
        <polygon points="364,30 364,30 364,41 379,30 364,30" fill="#00ff00" stroke="none" stroke-width="0" fill-rule="evenodd" data-shape="156"/>
        <polygon points="364,52 364,52 364,63 379,52 364,52" fill="#ff0000" stroke="none" stroke-width="0" fill-rule="evenodd" data-shape="157"/>
        <polygon points="364,41 364,41 364,52 379,41 364,41" fill="#00ff00" stroke="none" stroke-width="0" fill-rule="evenodd" data-shape="158"/>
        <polygon points="364,63 364,63 364,74 379,63 364,63" fill="#0000ff" stroke="none" stroke-width="0" fill-rule="evenodd" data-shape="159"/>
      </g>
    </g>
  </g>
</svg>