<svg xmlns="http://www.w3.org/2000/svg" xmlns:mdcr="http://sensory.com/mdcr" viewBox="0 0 400 300" width="400" height="300">
  <metadata>
    <mdcr:info xmlns:mdcr="http://sensory.com/mdcr">
      <mdcr:source format="WMF" generator="wmf2svg.js"/>
      <mdcr:bounds left="0" top="0" right="6000" bottom="4500" inch="1440"/>
      <mdcr:records count="32">
        <mdcr:record tag="MDCR-{"/>
        <mdcr:record tag="MDCR-{"/>
        <mdcr:record tag="MDCR-{"/>
        <mdcr:record tag="MDCR-}"/>
        <mdcr:record tag="MDCR-{"/>
        <mdcr:record tag="MDCR-}"/>
        <mdcr:record tag="MDCR-}"/>
        <mdcr:record tag="MDCR-{"/>
        <mdcr:record tag="MDCR-{"/>
        <mdcr:record tag="MDCR-}"/>
        <mdcr:record tag="MDCR-{"/>
        <mdcr:record tag="MDCR-}"/>
        <mdcr:record tag="MDCR-}"/>
        <mdcr:record tag="MDCR-{"/>
        <mdcr:record tag="MDCR-{"/>
        <mdcr:record tag="MDCR-}"/>
        <mdcr:record tag="MDCR-{"/>
        <mdcr:record tag="MDCR-}"/>
        <mdcr:record tag="MDCR-}"/>
        <mdcr:record tag="MDCR-{"/>
        <mdcr:record tag="MDCR-{"/>
        <mdcr:record tag="MDCR-}"/>
        <mdcr:record tag="MDCR-{"/>
        <mdcr:record tag="MDCR-}"/>
        <mdcr:record tag="MDCR-}"/>
        <mdcr:record tag="MDCR-{"/>
        <mdcr:record tag="MDCR-{"/>
        <mdcr:record tag="MDCR-}"/>
        <mdcr:record tag="MDCR-{"/>
        <mdcr:record tag="MDCR-}"/>
        <mdcr:record tag="MDCR-}"/>
        <mdcr:record tag="MDCR-}"/>
      </mdcr:records>
    </mdcr:info>
  </metadata>
  <g data-mdcr="group" class="mdcr-region">
    <g data-mdcr="group" class="mdcr-region">
      <g data-mdcr="group" class="mdcr-region">
        <polygon points="224,236 224,236 224,225 239,236 224,236" fill="#ff0000" stroke="none" stroke-width="0" fill-rule="evenodd" data-shape="0"/>
        <polygon points="224,258 224,258 224,247 239,258 224,258" fill="#ffff00" stroke="none" stroke-width="0" fill-rule="evenodd" data-shape="1"/>
        <polygon points="224,269 224,269 224,257 239,269 224,269" fill="#00ff00" stroke="none" stroke-width="0" fill-rule="evenodd" data-shape="2"/>
        <polygon points="224,247 224,247 224,235 239,247 224,247" fill="#0000ff" stroke="none" stroke-width="0" fill-rule="evenodd" data-shape="3"/>
        <polygon points="210,236 210,236 210,225 225,236 210,236" fill="#0000ff" stroke="none" stroke-width="0" fill-rule="evenodd" data-shape="4"/>
        <polygon points="210,258 210,258 210,247 225,258 210,258" fill="#00ff00" stroke="none" stroke-width="0" fill-rule="evenodd" data-shape="5"/>
        <polygon points="210,269 210,269 210,257 225,269 210,269" fill="#ff0000" stroke="none" stroke-width="0" fill-rule="evenodd" data-shape="6"/>
        <polygon points="210,247 210,247 210,235 225,247 210,247" fill="#ffff00" stroke="none" stroke-width="0" fill-rule="evenodd" data-shape="7"/>
        <polygon points="195,236 195,236 195,225 210,236 195,236" fill="#ffff00" stroke="none" stroke-width="0" fill-rule="evenodd" data-shape="8"/>
        <polygon points="195,258 195,258 195,247 210,258 195,258" fill="#ff0000" stroke="none" stroke-width="0" fill-rule="evenodd" data-shape="9"/>
        <polygon points="195,269 195,269 195,257 210,269 195,269" fill="#0000ff" stroke="none" stroke-width="0" fill-rule="evenodd" data-shape="10"/>
        <polygon points="195,247 195,247 195,235 210,247 195,247" fill="#00ff00" stroke="none" stroke-width="0" fill-rule="evenodd" data-shape="11"/>
        <polygon points="180,236 180,236 180,225 195,236 180,236" fill="#00ff00" stroke="none" stroke-width="0" fill-rule="evenodd" data-shape="12"/>
        <polygon points="180,258 180,258 180,247 195,258 180,258" fill="#0000ff" stroke="none" stroke-width="0" fill-rule="evenodd" data-shape="13"/>
        <polygon points="180,247 180,247 180,236 195,247 180,247" fill="#ff0000" stroke="none" stroke-width="0" fill-rule="evenodd" data-shape="14"/>
        <polygon points="180,269 180,269 180,258 195,269 180,269" fill="#ff0000" stroke="none" stroke-width="0" fill-rule="evenodd" data-shape="15"/>
      </g>
      <g data-mdcr="group" class="mdcr-region">
        <polygon points="239,225 239,225 239,236 224,225 239,225" fill="#00ff00" stroke="none" stroke-width="0" fill-rule="evenodd" data-shape="16"/>
        <polygon points="239,247 239,247 239,258 224,247 239,247" fill="#0000ff" stroke="none" stroke-width="0" fill-rule="evenodd" data-shape="17"/>
        <polygon points="239,258 239,258 239,269 224,258 239,258" fill="#ffff00" stroke="none" stroke-width="0" fill-rule="evenodd" data-shape="18"/>
        <polygon points="239,236 239,236 239,247 224,236 239,236" fill="#ff0000" stroke="none" stroke-width="0" fill-rule="evenodd" data-shape="19"/>
        <polygon points="225,225 225,225 225,236 210,225 225,225" fill="#ff0000" stroke="none" stroke-width="0" fill-rule="evenodd" data-shape="20"/>
        <polygon points="225,247 225,247 225,258 210,247 225,247" fill="#ffff00" stroke="none" stroke-width="0" fill-rule="evenodd" data-shape="21"/>
        <polygon points="225,258 225,258 225,269 210,258 225,258" fill="#00ff00" stroke="none" stroke-width="0" fill-rule="evenodd" data-shape="22"/>
        <polygon points="225,236 225,236 225,247 210,236 225,236" fill="#0000ff" stroke="none" stroke-width="0" fill-rule="evenodd" data-shape="23"/>
        <polygon points="210,225 210,225 210,236 195,225 210,225" fill="#0000ff" stroke="none" stroke-width="0" fill-rule="evenodd" data-shape="24"/>
        <polygon points="210,247 210,247 210,258 195,247 210,247" fill="#00ff00" stroke="none" stroke-width="0" fill-rule="evenodd" data-shape="25"/>
        <polygon points="210,258 210,258 210,269 195,258 210,258" fill="#ff0000" stroke="none" stroke-width="0" fill-rule="evenodd" data-shape="26"/>
        <polygon points="210,236 210,236 210,247 195,236 210,236" fill="#00ff00" stroke="none" stroke-width="0" fill-rule="evenodd" data-shape="27"/>
        <polygon points="195,225 195,225 195,236 180,225 195,225" fill="#ffff00" stroke="none" stroke-width="0" fill-rule="evenodd" data-shape="28"/>
        <polygon points="195,247 195,247 195,258 180,247 195,247" fill="#ff0000" stroke="none" stroke-width="0" fill-rule="evenodd" data-shape="29"/>
        <polygon points="195,236 195,236 195,247 180,236 195,236" fill="#00ff00" stroke="none" stroke-width="0" fill-rule="evenodd" data-shape="30"/>
        <polygon points="195,258 195,258 195,269 180,258 195,258" fill="#0000ff" stroke="none" stroke-width="0" fill-rule="evenodd" data-shape="31"/>
      </g>
    </g>
    <g data-mdcr="group" class="mdcr-region">
      <g data-mdcr="group" class="mdcr-region">
        <polygon points="64,41 64,41 64,30 79,41 64,41" fill="#ff0000" stroke="none" stroke-width="0" fill-rule="evenodd" data-shape="32"/>
        <polygon points="64,63 64,63 64,52 79,63 64,63" fill="#ffff00" stroke="none" stroke-width="0" fill-rule="evenodd" data-shape="33"/>
        <polygon points="64,74 64,74 64,62 79,74 64,74" fill="#00ff00" stroke="none" stroke-width="0" fill-rule="evenodd" data-shape="34"/>
        <polygon points="64,52 64,52 64,40 79,52 64,52" fill="#0000ff" stroke="none" stroke-width="0" fill-rule="evenodd" data-shape="35"/>
        <polygon points="50,41 50,41 50,30 65,41 50,41" fill="#0000ff" stroke="none" stroke-width="0" fill-rule="evenodd" data-shape="36"/>
        <polygon points="50,63 50,63 50,52 65,63 50,63" fill="#00ff00" stroke="none" stroke-width="0" fill-rule="evenodd" data-shape="37"/>
        <polygon points="50,74 50,74 50,62 65,74 50,74" fill="#ff0000" stroke="none" stroke-width="0" fill-rule="evenodd" data-shape="38"/>
        <polygon points="50,52 50,52 50,40 65,52 50,52" fill="#ffff00" stroke="none" stroke-width="0" fill-rule="evenodd" data-shape="39"/>
        <polygon points="35,41 35,41 35,30 50,41 35,41" fill="#ffff00" stroke="none" stroke-width="0" fill-rule="evenodd" data-shape="40"/>
        <polygon points="35,63 35,63 35,52 50,63 35,63" fill="#ff0000" stroke="none" stroke-width="0" fill-rule="evenodd" data-shape="41"/>
        <polygon points="35,74 35,74 35,62 50,74 35,74" fill="#0000ff" stroke="none" stroke-width="0" fill-rule="evenodd" data-shape="42"/>
        <polygon points="35,52 35,52 35,40 50,52 35,52" fill="#00ff00" stroke="none" stroke-width="0" fill-rule="evenodd" data-shape="43"/>
        <polygon points="20,41 20,41 20,30 35,41 20,41" fill="#00ff00" stroke="none" stroke-width="0" fill-rule="evenodd" data-shape="44"/>
        <polygon points="20,63 20,63 20,52 35,63 20,63" fill="#0000ff" stroke="none" stroke-width="0" fill-rule="evenodd" data-shape="45"/>
        <polygon points="20,52 20,52 20,41 35,52 20,52" fill="#ff0000" stroke="none" stroke-width="0" fill-rule="evenodd" data-shape="46"/>
        <polygon points="20,74 20,74 20,63 35,74 20,74" fill="#ffff00" stroke="none" stroke-width="0" fill-rule="evenodd" data-shape="47"/>
      </g>
      <g data-mdcr="group" class="mdcr-region">
        <polygon points="79,30 79,30 79,41 64,30 79,30" fill="#00ff00" stroke="none" stroke-width="0" fill-rule="evenodd" data-shape="48"/>
        <polygon points="79,52 79,52 79,63 64,52 79,52" fill="#0000ff" stroke="none" stroke-width="0" fill-rule="evenodd" data-shape="49"/>
        <polygon points="79,63 79,63 79,74 64,63 79,63" fill="#ffff00" stroke="none" stroke-width="0" fill-rule="evenodd" data-shape="50"/>
        <polygon points="79,41 79,41 79,52 64,41 79,41" fill="#ff0000" stroke="none" stroke-width="0" fill-rule="evenodd" data-shape="51"/>
        <polygon points="65,30 65,30 65,41 50,30 65,30" fill="#ff0000" stroke="none" stroke-width="0" fill-rule="evenodd" data-shape="52"/>
        <polygon points="65,52 65,52 65,63 50,52 65,52" fill="#ffff00" stroke="none" stroke-width="0" fill-rule="evenodd" data-shape="53"/>
        <polygon points="65,63 65,63 65,74 50,63 65,63" fill="#00ff00" stroke="none" stroke-width="0" fill-rule="evenodd" data-shape="54"/>
        <polygon points="65,41 65,41 65,52 50,41 65,41" fill="#0000ff" stroke="none" stroke-width="0" fill-rule="evenodd" data-shape="55"/>
        <polygon points="50,30 50,30 50,41 35,30 50,30" fill="#0000ff" stroke="none" stroke-width="0" fill-rule="evenodd" data-shape="56"/>
        <polygon points="50,52 50,52 50,63 35,52 50,52" fill="#ff0000" stroke="none" stroke-width="0" fill-rule="evenodd" data-shape="57"/>
        <polygon points="50,63 50,63 50,74 35,63 50,63" fill="#ff0000" stroke="none" stroke-width="0" fill-rule="evenodd" data-shape="58"/>
        <polygon points="50,41 50,41 50,52 35,41 50,41" fill="#ffff00" stroke="none" stroke-width="0" fill-rule="evenodd" data-shape="59"/>
        <polygon points="35,30 35,30 35,41 20,30 35,30" fill="#ffff00" stroke="none" stroke-width="0" fill-rule="evenodd" data-shape="60"/>
        <polygon points="35,52 35,52 35,63 20,52 35,52" fill="#ff0000" stroke="none" stroke-width="0" fill-rule="evenodd" data-shape="61"/>
        <polygon points="35,41 35,41 35,52 20,41 35,41" fill="#00ff00" stroke="none" stroke-width="0" fill-rule="evenodd" data-shape="62"/>
        <polygon points="35,63 35,63 35,74 20,63 35,63" fill="#0000ff" stroke="none" stroke-width="0" fill-rule="evenodd" data-shape="63"/>
      </g>
    </g>
    <g data-mdcr="group" class="mdcr-region">
      <g data-mdcr="group" class="mdcr-region">
        <polygon points="164,41 164,41 164,30 179,41 164,41" fill="#ff0000" stroke="none" stroke-width="0" fill-rule="evenodd" data-shape="64"/>
        <polygon points="164,63 164,63 164,52 179,63 164,63" fill="#ffff00" stroke="none" stroke-width="0" fill-rule="evenodd" data-shape="65"/>
        <polygon points="164,74 164,74 164,62 179,74 164,74" fill="#00ff00" stroke="none" stroke-width="0" fill-rule="evenodd" data-shape="66"/>
        <polygon points="164,52 164,52 164,40 179,52 164,52" fill="#0000ff" stroke="none" stroke-width="0" fill-rule="evenodd" data-shape="67"/>
        <polygon points="150,41 150,41 150,30 165,41 150,41" fill="#0000ff" stroke="none" stroke-width="0" fill-rule="evenodd" data-shape="68"/>
        <polygon points="150,63 150,63 150,52 165,63 150,63" fill="#00ff00" stroke="none" stroke-width="0" fill-rule="evenodd" data-shape="69"/>
        <polygon points="150,74 150,74 150,62 165,74 150,74" fill="#ff0000" stroke="none" stroke-width="0" fill-rule="evenodd" data-shape="70"/>
        <polygon points="150,52 150,52 150,40 165,52 150,52" fill="#0000ff" stroke="none" stroke-width="0" fill-rule="evenodd" data-shape="71"/>
        <polygon points="135,41 135,41 135,30 150,41 135,41" fill="#ffff00" stroke="none" stroke-width="0" fill-rule="evenodd" data-shape="72"/>
        <polygon points="135,63 135,63 135,52 150,63 135,63" fill="#ff0000" stroke="none" stroke-width="0" fill-rule="evenodd" data-shape="73"/>
        <polygon points="135,74 135,74 135,62 150,74 135,74" fill="#0000ff" stroke="none" stroke-width="0" fill-rule="evenodd" data-shape="74"/>
        <polygon points="135,52 135,52 135,40 150,52 135,52" fill="#00ff00" stroke="none" stroke-width="0" fill-rule="evenodd" data-shape="75"/>
        <polygon points="120,41 120,41 120,30 135,41 120,41" fill="#00ff00" stroke="none" stroke-width="0" fill-rule="evenodd" data-shape="76"/>
        <polygon points="120,63 120,63 120,52 135,63 120,63" fill="#0000ff" stroke="none" stroke-width="0" fill-rule="evenodd" data-shape="77"/>
        <polygon points="120,52 120,52 120,41 135,52 120,52" fill="#ff0000" stroke="none" stroke-width="0" fill-rule="evenodd" data-shape="78"/>
        <polygon points="120,74 120,74 120,63 135,74 120,74" fill="#ffff00" stroke="none" stroke-width="0" fill-rule="evenodd" data-shape="79"/>
      </g>
      <g data-mdcr="group" class="mdcr-region">
        <polygon points="179,30 179,30 179,41 164,30 179,30" fill="#00ff00" stroke="none" stroke-width="0" fill-rule="evenodd" data-shape="80"/>
        <polygon points="179,52 179,52 179,63 164,52 179,52" fill="#0000ff" stroke="none" stroke-width="0" fill-rule="evenodd" data-shape="81"/>
        <polygon points="179,63 179,63 179,74 164,63 179,63" fill="#ffff00" stroke="none" stroke-width="0" fill-rule="evenodd" data-shape="82"/>
        <polygon points="179,41 179,41 179,52 164,41 179,41" fill="#ff0000" stroke="none" stroke-width="0" fill-rule="evenodd" data-shape="83"/>
        <polygon points="165,30 165,30 165,41 150,30 165,30" fill="#ff0000" stroke="none" stroke-width="0" fill-rule="evenodd" data-shape="84"/>
        <polygon points="165,52 165,52 165,63 150,52 165,52" fill="#ffff00" stroke="none" stroke-width="0" fill-rule="evenodd" data-shape="85"/>
        <polygon points="165,63 165,63 165,74 150,63 165,63" fill="#00ff00" stroke="none" stroke-width="0" fill-rule="evenodd" data-shape="86"/>
        <polygon points="165,41 165,41 165,52 150,41 165,41" fill="#0000ff" stroke="none" stroke-width="0" fill-rule="evenodd" data-shape="87"/>
        <polygon points="150,30 150,30 150,41 135,30 150,30" fill="#0000ff" stroke="none" stroke-width="0" fill-rule="evenodd" data-shape="88"/>
        <polygon points="150,52 150,52 150,63 135,52 150,52" fill="#00ff00" stroke="none" stroke-width="0" fill-rule="evenodd" data-shape="89"/>
        <polygon points="150,63 150,63 150,74 135,63 150,63" fill="#ff0000" stroke="none" stroke-width="0" fill-rule="evenodd" data-shape="90"/>
        <polygon points="150,41 150,41 150,52 135,41 150,41" fill="#ffff00" stroke="none" stroke-width="0" fill-rule="evenodd" data-shape="91"/>
        <polygon points="135,30 135,30 135,41 120,30 135,30" fill="#ffff00" stroke="none" stroke-width="0" fill-rule="evenodd" data-shape="92"/>
        <polygon points="135,52 135,52 135,63 120,52 135,52" fill="#ff0000" stroke="none" stroke-width="0" fill-rule="evenodd" data-shape="93"/>
        <polygon points="135,41 135,41 135,52 120,41 135,41" fill="#00ff00" stroke="none" stroke-width="0" fill-rule="evenodd" data-shape="94"/>
        <polygon points="135,63 135,63 135,74 120,63 135,63" fill="#0000ff" stroke="none" stroke-width="0" fill-rule="evenodd" data-shape="95"/>
      </g>
    </g>
    <g data-mdcr="group" class="mdcr-region">
      <g data-mdcr="group" class="mdcr-region">
        <polygon points="264,41 264,41 264,30 279,41 264,41" fill="#ff0000" stroke="none" stroke-width="0" fill-rule="evenodd" data-shape="96"/>
        <polygon points="264,63 264,63 264,52 279,63 264,63" fill="#ffff00" stroke="none" stroke-width="0" fill-rule="evenodd" data-shape="97"/>
        <polygon points="264,74 264,74 264,62 279,74 264,74" fill="#00ff00" stroke="none" stroke-width="0" fill-rule="evenodd" data-shape="98"/>
        <polygon points="264,52 264,52 264,40 279,52 264,52" fill="#0000ff" stroke="none" stroke-width="0" fill-rule="evenodd" data-shape="99"/>
        <polygon points="250,41 250,41 250,30 265,41 250,41" fill="#0000ff" stroke="none" stroke-width="0" fill-rule="evenodd" data-shape="100"/>
        <polygon points="250,63 250,63 250,52 265,63 250,63" fill="#00ff00" stroke="none" stroke-width="0" fill-rule="evenodd" data-shape="101"/>
        <polygon points="250,74 250,74 250,62 265,74 250,74" fill="#ff0000" stroke="none" stroke-width="0" fill-rule="evenodd" data-shape="102"/>
        <polygon points="250,52 250,52 250,40 265,52 250,52" fill="#ffff00" stroke="none" stroke-width="0" fill-rule="evenodd" data-shape="103"/>
        <polygon points="235,41 235,41 235,30 250,41 235,41" fill="#ffff00" stroke="none" stroke-width="0" fill-rule="evenodd" data-shape="104"/>
        <polygon points="235,63 235,63 235,52 250,63 235,63" fill="#ff0000" stroke="none" stroke-width="0" fill-rule="evenodd" data-shape="105"/>
        <polygon points="235,74 235,74 235,62 250,74 235,74" fill="#0000ff" stroke="none" stroke-width="0" fill-rule="evenodd" data-shape="106"/>
        <polygon points="235,52 235,52 235,40 250,52 235,52" fill="#00ff00" stroke="none" stroke-width="0" fill-rule="evenodd" data-shape="107"/>
        <polygon points="220,41 220,41 220,30 235,41 220,41" fill="#00ff00" stroke="none" stroke-width="0" fill-rule="evenodd" data-shape="108"/>
        <polygon points="220,63 220,63 220,52 235,63 220,63" fill="#0000ff" stroke="none" stroke-width="0" fill-rule="evenodd" data-shape="109"/>
        <polygon points="220,52 220,52 220,41 235,52 220,52" fill="#ff0000" stroke="none" stroke-width="0" fill-rule="evenodd" data-shape="110"/>
        <polygon points="220,74 220,74 220,63 235,74 220,74" fill="#ffff00" stroke="none" stroke-width="0" fill-rule="evenodd" data-shape="111"/>
      </g>
      <g data-mdcr="group" class="mdcr-region">
        <polygon points="279,30 279,30 279,41 264,30 279,30" fill="#00ff00" stroke="none" stroke-width="0" fill-rule="evenodd" data-shape="112"/>
        <polygon points="279,52 279,52 279,63 264,52 279,52" fill="#0000ff" stroke="none" stroke-width="0" fill-rule="evenodd" data-shape="113"/>
        <polygon points="279,63 279,63 279,74 264,63 279,63" fill="#ffff00" stroke="none" stroke-width="0" fill-rule="evenodd" data-shape="114"/>
        <polygon points="279,41 279,41 279,52 264,41 279,41" fill="#ff0000" stroke="none" stroke-width="0" fill-rule="evenodd" data-shape="115"/>
        <polygon points="265,30 265,30 265,41 250,30 265,30" fill="#ff0000" stroke="none" stroke-width="0" fill-rule="evenodd" data-shape="116"/>
        <polygon points="265,52 265,52 265,63 250,52 265,52" fill="#ffff00" stroke="none" stroke-width="0" fill-rule="evenodd" data-shape="117"/>
        <polygon points="265,63 265,63 265,74 250,63 265,63" fill="#00ff00" stroke="none" stroke-width="0" fill-rule="evenodd" data-shape="118"/>
        <polygon points="265,41 265,41 265,52 250,41 265,41" fill="#0000ff" stroke="none" stroke-width="0" fill-rule="evenodd" data-shape="119"/>
        <polygon points="250,30 250,30 250,41 235,30 250,30" fill="#0000ff" stroke="none" stroke-width="0" fill-rule="evenodd" data-shape="120"/>
        <polygon points="250,52 250,52 250,63 235,52 250,52" fill="#00ff00" stroke="none" stroke-width="0" fill-rule="evenodd" data-shape="121"/>
        <polygon points="250,63 250,63 250,74 235,63 250,63" fill="#ff0000" stroke="none" stroke-width="0" fill-rule="evenodd" data-shape="122"/>
        <polygon points="250,41 250,41 250,52 235,41 250,41" fill="#00ff00" stroke="none" stroke-width="0" fill-rule="evenodd" data-shape="123"/>
        <polygon points="235,30 235,30 235,41 220,30 235,30" fill="#ffff00" stroke="none" stroke-width="0" fill-rule="evenodd" data-shape="124"/>
        <polygon points="235,52 235,52 235,63 220,52 235,52" fill="#ff0000" stroke="none" stroke-width="0" fill-rule="evenodd" data-shape="125"/>
        <polygon points="235,41 235,41 235,52 220,41 235,41" fill="#00ff00" stroke="none" stroke-width="0" fill-rule="evenodd" data-shape="126"/>
        <polygon points="235,63 235,63 235,74 220,63 235,63" fill="#0000ff" stroke="none" stroke-width="0" fill-rule="evenodd" data-shape="127"/>
      </g>
    </g>
    <g data-mdcr="group" class="mdcr-region">
      <g data-mdcr="group" class="mdcr-region">
        <polygon points="364,41 364,41 364,30 379,41 364,41" fill="#ff0000" stroke="none" stroke-width="0" fill-rule="evenodd" data-shape="128"/>
        <polygon points="364,63 364,63 364,52 379,63 364,63" fill="#ffff00" stroke="none" stroke-width="0" fill-rule="evenodd" data-shape="129"/>
        <polygon points="364,74 364,74 364,62 379,74 364,74" fill="#00ff00" stroke="none" stroke-width="0" fill-rule="evenodd" data-shape="130"/>
        <polygon points="364,52 364,52 364,40 379,52 364,52" fill="#0000ff" stroke="none" stroke-width="0" fill-rule="evenodd" data-shape="131"/>
        <polygon points="350,41 350,41 350,30 365,41 350,41" fill="#0000ff" stroke="none" stroke-width="0" fill-rule="evenodd" data-shape="132"/>
        <polygon points="350,63 350,63 350,52 365,63 350,63" fill="#ffff00" stroke="none" stroke-width="0" fill-rule="evenodd" data-shape="133"/>
        <polygon points="350,74 350,74 350,62 365,74 350,74" fill="#ff0000" stroke="none" stroke-width="0" fill-rule="evenodd" data-shape="134"/>
        <polygon points="350,52 350,52 350,40 365,52 350,52" fill="#ffff00" stroke="none" stroke-width="0" fill-rule="evenodd" data-shape="135"/>
        <polygon points="335,41 335,41 335,30 350,41 335,41" fill="#ffff00" stroke="none" stroke-width="0" fill-rule="evenodd" data-shape="136"/>
        <polygon points="335,63 335,63 335,52 350,63 335,63" fill="#ff0000" stroke="none" stroke-width="0" fill-rule="evenodd" data-shape="137"/>
        <polygon points="335,74 335,74 335,62 350,74 335,74" fill="#0000ff" stroke="none" stroke-width="0" fill-rule="evenodd" data-shape="138"/>
        <polygon points="335,52 335,52 335,40 350,52 335,52" fill="#00ff00" stroke="none" stroke-width="0" fill-rule="evenodd" data-shape="139"/>
        <polygon points="320,41 320,41 320,30 335,41 320,41" fill="#00ff00" stroke="none" stroke-width="0" fill-rule="evenodd" data-shape="140"/>
        <polygon points="320,63 320,63 320,52 335,63 320,63" fill="#0000ff" stroke="none" stroke-width="0" fill-rule="evenodd" data-shape="141"/>
        <polygon points="320,52 320,52 320,41 335,52 320,52" fill="#ff0000" stroke="none" stroke-width="0" fill-rule="evenodd" data-shape="142"/>
        <polygon points="320,74 320,74 320,63 335,74 320,74" fill="#ffff00" stroke="none" stroke-width="0" fill-rule="evenodd" data-shape="143"/>
      </g>
      <g data-mdcr="group" class="mdcr-region">
        <polygon points="379,30 379,30 379,41 364,30 379,30" fill="#00ff00" stroke="none" stroke-width="0" fill-rule="evenodd" data-shape="144"/>
        <polygon points="379,52 379,52 379,63 364,52 379,52" fill="#0000ff" stroke="none" stroke-width="0" fill-rule="evenodd" data-shape="145"/>
        <polygon points="379,63 379,63 379,75 364,63 379,63" fill="#ffff00" stroke="none" stroke-width="0" fill-rule="evenodd" data-shape="146"/>
        <polygon points="379,41 379,41 379,52 364,41 379,41" fill="#ff0000" stroke="none" stroke-width="0" fill-rule="evenodd" data-shape="147"/>
        <polygon points="365,30 365,30 365,41 350,30 365,30" fill="#ff0000" stroke="none" stroke-width="0" fill-rule="evenodd" data-shape="148"/>
        <polygon points="365,52 365,52 365,63 350,52 365,52" fill="#ffff00" stroke="none" stroke-width="0" fill-rule="evenodd" data-shape="149"/>
        <polygon points="365,63 365,63 365,74 350,63 365,63" fill="#00ff00" stroke="none" stroke-width="0" fill-rule="evenodd" data-shape="150"/>
        <polygon points="365,41 365,41 365,52 350,41 365,41" fill="#0000ff" stroke="none" stroke-width="0" fill-rule="evenodd" data-shape="151"/>
        <polygon points="350,30 350,30 350,41 335,30 350,30" fill="#0000ff" stroke="none" stroke-width="0" fill-rule="evenodd" data-shape="152"/>
        <polygon points="350,52 350,52 350,63 335,52 350,52" fill="#00ff00" stroke="none" stroke-width="0" fill-rule="evenodd" data-shape="153"/>
        <polygon points="350,63 350,63 350,74 335,63 350,63" fill="#ff0000" stroke="none" stroke-width="0" fill-rule="evenodd" data-shape="154"/>
        <polygon points="350,41 350,41 350,52 335,41 350,41" fill="#ffff00" stroke="none" stroke-width="0" fill-rule="evenodd" data-shape="155"/>
        <polygon points="335,30 335,30 335,41 320,30 335,30" fill="#ffff00" stroke="none" stroke-width="0" fill-rule="evenodd" data-shape="156"/>
        <polygon points="335,52 335,52 335,63 320,52 335,52" fill="#ff0000" stroke="none" stroke-width="0" fill-rule="evenodd" data-shape="157"/>
        <polygon points="335,41 335,41 335,52 320,41 335,41" fill="#00ff00" stroke="none" stroke-width="0" fill-rule="evenodd" data-shape="158"/>
        <polygon points="335,63 335,63 335,74 320,63 335,63" fill="#0000ff" stroke="none" stroke-width="0" fill-rule="evenodd" data-shape="159"/>
      </g>
    </g>
  </g>
</svg>