<svg xmlns="http://www.w3.org/2000/svg" xmlns:mdcr="http://sensory.com/mdcr" viewBox="0 0 400 300" width="400" height="300">
  <metadata>
    <mdcr:info xmlns:mdcr="http://sensory.com/mdcr">
      <mdcr:source format="WMF" generator="wmf2svg.js"/>
      <mdcr:bounds left="0" top="0" right="6000" bottom="4500" inch="1440"/>
      <mdcr:records count="28">
        <mdcr:record tag="MDCR-{"/>
        <mdcr:record tag="MDCR-{"/>
        <mdcr:record tag="MDCR-{"/>
        <mdcr:record tag="MDCR-}"/>
        <mdcr:record tag="MDCR-{"/>
        <mdcr:record tag="MDCR-}"/>
        <mdcr:record tag="MDCR-}"/>
        <mdcr:record tag="MDCR-{"/>
        <mdcr:record tag="MDCR-{"/>
        <mdcr:record tag="MDCR-}"/>
        <mdcr:record tag="MDCR-{"/>
        <mdcr:record tag="MDCR-}"/>
        <mdcr:record tag="MDCR-}"/>
        <mdcr:record tag="MDCR-{"/>
        <mdcr:record tag="MDCR-{"/>
        <mdcr:record tag="MDCR-}"/>
        <mdcr:record tag="MDCR-{"/>
        <mdcr:record tag="MDCR-}"/>
        <mdcr:record tag="MDCR-}"/>
        <mdcr:record tag="MDCR-S"/>
        <mdcr:record tag="MDCR-{"/>
        <mdcr:record tag="MDCR-{"/>
        <mdcr:record tag="MDCR-}"/>
        <mdcr:record tag="MDCR-{"/>
        <mdcr:record tag="MDCR-}"/>
        <mdcr:record tag="MDCR-}"/>
        <mdcr:record tag="MDCR-}"/>
        <mdcr:record tag="MDCR-S"/>
      </mdcr:records>
    </mdcr:info>
  </metadata>
  <g data-mdcr="group" class="mdcr-region">
    <rect x="160" y="225" width="101" height="46" fill="none" stroke="none" stroke-width="0"/>
    <g data-mdcr="group" class="mdcr-region">
      <g data-mdcr="group" class="mdcr-region">
        <polygon points="35,125 35,125 35,106 20,125 35,125" fill="#ff0000" stroke="none" stroke-width="0" fill-rule="evenodd" data-shape="0"/>
        <polygon points="35,162 35,162 35,143 20,162 35,162" fill="#ffff00" stroke="none" stroke-width="0" fill-rule="evenodd" data-shape="1"/>
        <polygon points="35,181 35,181 35,161 20,181 35,181" fill="#00ff00" stroke="none" stroke-width="0" fill-rule="evenodd" data-shape="2"/>
        <polygon points="35,143 35,143 35,123 20,143 35,143" fill="#0000ff" stroke="none" stroke-width="0" fill-rule="evenodd" data-shape="3"/>
        <polygon points="49,125 49,125 49,106 34,125 49,125" fill="#0000ff" stroke="none" stroke-width="0" fill-rule="evenodd" data-shape="4"/>
        <polygon points="49,162 49,162 49,143 34,162 49,162" fill="#00ff00" stroke="none" stroke-width="0" fill-rule="evenodd" data-shape="5"/>
        <polygon points="49,181 49,181 49,161 34,181 49,181" fill="#ff0000" stroke="none" stroke-width="0" fill-rule="evenodd" data-shape="6"/>
        <polygon points="49,143 49,143 49,123 34,143 49,143" fill="#ffff00" stroke="none" stroke-width="0" fill-rule="evenodd" data-shape="7"/>
        <polygon points="64,125 64,125 64,106 49,125 64,125" fill="#ffff00" stroke="none" stroke-width="0" fill-rule="evenodd" data-shape="8"/>
        <polygon points="64,162 64,162 64,143 49,162 64,162" fill="#ff0000" stroke="none" stroke-width="0" fill-rule="evenodd" data-shape="9"/>
        <polygon points="64,181 64,181 64,161 49,181 64,181" fill="#0000ff" stroke="none" stroke-width="0" fill-rule="evenodd" data-shape="10"/>
        <polygon points="64,143 64,143 64,123 49,143 64,143" fill="#00ff00" stroke="none" stroke-width="0" fill-rule="evenodd" data-shape="11"/>
        <polygon points="79,125 79,125 79,106 64,125 79,125" fill="#00ff00" stroke="none" stroke-width="0" fill-rule="evenodd" data-shape="12"/>
        <polygon points="79,162 79,162 79,143 64,162 79,162" fill="#0000ff" stroke="none" stroke-width="0" fill-rule="evenodd" data-shape="13"/>
        <polygon points="79,143 79,143 79,124 64,143 79,143" fill="#ff0000" stroke="none" stroke-width="0" fill-rule="evenodd" data-shape="14"/>
        <polygon points="79,181 79,181 79,162 64,181 79,181" fill="#ffff00" stroke="none" stroke-width="0" fill-rule="evenodd" data-shape="15"/>
      </g>
      <g data-mdcr="group" class="mdcr-region">
        <polygon points="20,106 20,106 20,125 35,106 20,106" fill="#00ff00" stroke="none" stroke-width="0" fill-rule="evenodd" data-shape="16"/>
        <polygon points="20,143 20,143 20,162 35,143 20,143" fill="#0000ff" stroke="none" stroke-width="0" fill-rule="evenodd" data-shape="17"/>
        <polygon points="20,162 20,162 20,181 35,162 20,162" fill="#ffff00" stroke="none" stroke-width="0" fill-rule="evenodd" data-shape="18"/>
        <polygon points="20,124 20,124 20,143 35,124 20,124" fill="#ff0000" stroke="none" stroke-width="0" fill-rule="evenodd" data-shape="19"/>
        <polygon points="34,106 34,106 34,125 49,106 34,106" fill="#ff0000" stroke="none" stroke-width="0" fill-rule="evenodd" data-shape="20"/>
        <polygon points="34,143 34,143 34,162 49,143 34,143" fill="#ffff00" stroke="none" stroke-width="0" fill-rule="evenodd" data-shape="21"/>
        <polygon points="34,162 34,162 34,181 49,162 34,162" fill="#00ff00" stroke="none" stroke-width="0" fill-rule="evenodd" data-shape="22"/>
        <polygon points="34,124 34,124 34,143 49,124 34,124" fill="#0000ff" stroke="none" stroke-width="0" fill-rule="evenodd" data-shape="23"/>
        <polygon points="49,106 49,106 49,125 64,106 49,106" fill="#0000ff" stroke="none" stroke-width="0" fill-rule="evenodd" data-shape="24"/>
        <polygon points="49,143 49,143 49,162 64,143 49,143" fill="#00ff00" stroke="none" stroke-width="0" fill-rule="evenodd" data-shape="25"/>
        <polygon points="49,162 49,162 49,181 64,162 49,162" fill="#ff0000" stroke="none" stroke-width="0" fill-rule="evenodd" data-shape="26"/>
        <polygon points="49,124 49,124 49,143 64,124 49,124" fill="#ffff00" stroke="none" stroke-width="0" fill-rule="evenodd" data-shape="27"/>
        <polygon points="64,106 64,106 64,125 79,106 64,106" fill="#ffff00" stroke="none" stroke-width="0" fill-rule="evenodd" data-shape="28"/>
        <polygon points="64,143 64,143 64,162 79,143 64,143" fill="#ff0000" stroke="none" stroke-width="0" fill-rule="evenodd" data-shape="29"/>
        <polygon points="64,124 64,124 64,143 79,124 64,124" fill="#00ff00" stroke="none" stroke-width="0" fill-rule="evenodd" data-shape="30"/>
        <polygon points="64,162 64,162 64,181 79,162 64,162" fill="#0000ff" stroke="none" stroke-width="0" fill-rule="evenodd" data-shape="31"/>
      </g>
    </g>
    <g data-mdcr="group" class="mdcr-region">
      <g data-mdcr="group" class="mdcr-region">
        <polygon points="135,125 135,125 135,106 120,125 135,125" fill="#ff0000" stroke="none" stroke-width="0" fill-rule="evenodd" data-shape="32"/>
        <polygon points="135,162 135,162 135,143 120,162 135,162" fill="#ffff00" stroke="none" stroke-width="0" fill-rule="evenodd" data-shape="33"/>
        <polygon points="135,181 135,181 135,161 120,181 135,181" fill="#00ff00" stroke="none" stroke-width="0" fill-rule="evenodd" data-shape="34"/>
        <polygon points="135,143 135,143 135,123 120,143 135,143" fill="#0000ff" stroke="none" stroke-width="0" fill-rule="evenodd" data-shape="35"/>
        <polygon points="149,125 149,125 149,106 134,125 149,125" fill="#0000ff" stroke="none" stroke-width="0" fill-rule="evenodd" data-shape="36"/>
        <polygon points="149,162 149,162 149,143 134,162 149,162" fill="#00ff00" stroke="none" stroke-width="0" fill-rule="evenodd" data-shape="37"/>
        <polygon points="149,181 149,181 149,161 134,181 149,181" fill="#ff0000" stroke="none" stroke-width="0" fill-rule="evenodd" data-shape="38"/>
        <polygon points="149,143 149,143 149,123 134,143 149,143" fill="#ffff00" stroke="none" stroke-width="0" fill-rule="evenodd" data-shape="39"/>
        <polygon points="164,125 164,125 164,106 149,125 164,125" fill="#ffff00" stroke="none" stroke-width="0" fill-rule="evenodd" data-shape="40"/>
        <polygon points="164,162 164,162 164,143 149,162 164,162" fill="#ff0000" stroke="none" stroke-width="0" fill-rule="evenodd" data-shape="41"/>
        <polygon points="164,181 164,181 164,161 149,181 164,181" fill="#0000ff" stroke="none" stroke-width="0" fill-rule="evenodd" data-shape="42"/>
        <polygon points="164,143 164,143 164,123 149,143 164,143" fill="#00ff00" stroke="none" stroke-width="0" fill-rule="evenodd" data-shape="43"/>
        <polygon points="179,125 179,125 179,106 164,125 179,125" fill="#00ff00" stroke="none" stroke-width="0" fill-rule="evenodd" data-shape="44"/>
        <polygon points="179,162 179,162 179,143 164,162 179,162" fill="#0000ff" stroke="none" stroke-width="0" fill-rule="evenodd" data-shape="45"/>
        <polygon points="179,143 179,143 179,124 164,143 179,143" fill="#ff0000" stroke="none" stroke-width="0" fill-rule="evenodd" data-shape="46"/>
        <polygon points="179,181 179,181 179,162 164,181 179,181" fill="#ffff00" stroke="none" stroke-width="0" fill-rule="evenodd" data-shape="47"/>
      </g>
      <g data-mdcr="group" class="mdcr-region">
        <polygon points="120,106 120,106 120,125 135,106 120,106" fill="#00ff00" stroke="none" stroke-width="0" fill-rule="evenodd" data-shape="48"/>
        <polygon points="120,143 120,143 120,162 135,143 120,143" fill="#0000ff" stroke="none" stroke-width="0" fill-rule="evenodd" data-shape="49"/>
        <polygon points="120,162 120,162 120,181 135,162 120,162" fill="#ffff00" stroke="none" stroke-width="0" fill-rule="evenodd" data-shape="50"/>
        <polygon points="120,124 120,124 120,143 135,124 120,124" fill="#ff0000" stroke="none" stroke-width="0" fill-rule="evenodd" data-shape="51"/>
        <polygon points="134,106 134,106 134,125 149,106 134,106" fill="#ff0000" stroke="none" stroke-width="0" fill-rule="evenodd" data-shape="52"/>
        <polygon points="134,143 134,143 134,162 149,143 134,143" fill="#ffff00" stroke="none" stroke-width="0" fill-rule="evenodd" data-shape="53"/>
        <polygon points="134,162 134,162 134,181 149,162 134,162" fill="#00ff00" stroke="none" stroke-width="0" fill-rule="evenodd" data-shape="54"/>
        <polygon points="134,124 134,124 134,143 149,124 134,124" fill="#0000ff" stroke="none" stroke-width="0" fill-rule="evenodd" data-shape="55"/>
        <polygon points="149,106 149,106 149,125 164,106 149,106" fill="#0000ff" stroke="none" stroke-width="0" fill-rule="evenodd" data-shape="56"/>
        <polygon points="149,143 149,143 149,162 164,143 149,143" fill="#00ff00" stroke="none" stroke-width="0" fill-rule="evenodd" data-shape="57"/>
        <polygon points="149,162 149,162 149,181 164,162 149,162" fill="#ff0000" stroke="none" stroke-width="0" fill-rule="evenodd" data-shape="58"/>
        <polygon points="149,124 149,124 149,143 164,124 149,124" fill="#ffff00" stroke="none" stroke-width="0" fill-rule="evenodd" data-shape="59"/>
        <polygon points="164,106 164,106 164,125 179,106 164,106" fill="#ffff00" stroke="none" stroke-width="0" fill-rule="evenodd" data-shape="60"/>
        <polygon points="164,143 164,143 164,162 179,143 164,143" fill="#ff0000" stroke="none" stroke-width="0" fill-rule="evenodd" data-shape="61"/>
        <polygon points="164,124 164,124 164,143 179,124 164,124" fill="#00ff00" stroke="none" stroke-width="0" fill-rule="evenodd" data-shape="62"/>
        <polygon points="164,162 164,162 164,181 179,162 164,162" fill="#0000ff" stroke="none" stroke-width="0" fill-rule="evenodd" data-shape="63"/>
      </g>
    </g>
    <g data-mdcr="group" class="mdcr-region">
      <g data-mdcr="group" class="mdcr-region">
        <polygon points="235,125 235,125 235,106 220,125 235,125" fill="#ff0000" stroke="none" stroke-width="0" fill-rule="evenodd" data-shape="64"/>
        <polygon points="235,162 235,162 235,143 220,162 235,162" fill="#ffff00" stroke="none" stroke-width="0" fill-rule="evenodd" data-shape="65"/>
        <polygon points="235,181 235,181 235,161 220,181 235,181" fill="#00ff00" stroke="none" stroke-width="0" fill-rule="evenodd" data-shape="66"/>
        <polygon points="235,143 235,143 235,123 220,143 235,143" fill="#0000ff" stroke="none" stroke-width="0" fill-rule="evenodd" data-shape="67"/>
        <polygon points="249,125 249,125 249,106 234,125 249,125" fill="#0000ff" stroke="none" stroke-width="0" fill-rule="evenodd" data-shape="68"/>
        <polygon points="249,162 249,162 249,143 234,162 249,162" fill="#00ff00" stroke="none" stroke-width="0" fill-rule="evenodd" data-shape="69"/>
        <polygon points="249,181 249,181 249,161 234,181 249,181" fill="#ff0000" stroke="none" stroke-width="0" fill-rule="evenodd" data-shape="70"/>
        <polygon points="249,143 249,143 249,123 234,143 249,143" fill="#ffff00" stroke="none" stroke-width="0" fill-rule="evenodd" data-shape="71"/>
        <polygon points="264,125 264,125 264,106 249,125 264,125" fill="#ffff00" stroke="none" stroke-width="0" fill-rule="evenodd" data-shape="72"/>
        <polygon points="264,162 264,162 264,143 249,162 264,162" fill="#ff0000" stroke="none" stroke-width="0" fill-rule="evenodd" data-shape="73"/>
        <polygon points="264,181 264,181 264,161 249,181 264,181" fill="#0000ff" stroke="none" stroke-width="0" fill-rule="evenodd" data-shape="74"/>
        <polygon points="264,143 264,143 264,123 249,143 264,143" fill="#00ff00" stroke="none" stroke-width="0" fill-rule="evenodd" data-shape="75"/>
        <polygon points="279,125 279,125 279,106 264,125 279,125" fill="#00ff00" stroke="none" stroke-width="0" fill-rule="evenodd" data-shape="76"/>
        <polygon points="279,162 279,162 279,143 264,162 279,162" fill="#0000ff" stroke="none" stroke-width="0" fill-rule="evenodd" data-shape="77"/>
        <polygon points="279,143 279,143 279,124 264,143 279,143" fill="#ff0000" stroke="none" stroke-width="0" fill-rule="evenodd" data-shape="78"/>
        <polygon points="279,181 279,181 279,162 264,181 279,181" fill="#ff0000" stroke="none" stroke-width="0" fill-rule="evenodd" data-shape="79"/>
      </g>
      <g data-mdcr="group" class="mdcr-region">
        <polygon points="220,106 220,106 220,125 235,106 220,106" fill="#00ff00" stroke="none" stroke-width="0" fill-rule="evenodd" data-shape="80"/>
        <polygon points="220,143 220,143 220,162 235,143 220,143" fill="#0000ff" stroke="none" stroke-width="0" fill-rule="evenodd" data-shape="81"/>
        <polygon points="220,162 220,162 220,181 235,162 220,162" fill="#ffff00" stroke="none" stroke-width="0" fill-rule="evenodd" data-shape="82"/>
        <polygon points="220,124 220,124 220,143 235,124 220,124" fill="#ff0000" stroke="none" stroke-width="0" fill-rule="evenodd" data-shape="83"/>
        <polygon points="234,106 234,106 234,125 249,106 234,106" fill="#ff0000" stroke="none" stroke-width="0" fill-rule="evenodd" data-shape="84"/>
        <polygon points="234,143 234,143 234,162 249,143 234,143" fill="#ffff00" stroke="none" stroke-width="0" fill-rule="evenodd" data-shape="85"/>
        <polygon points="234,162 234,162 234,181 249,162 234,162" fill="#00ff00" stroke="none" stroke-width="0" fill-rule="evenodd" data-shape="86"/>
        <polygon points="234,124 234,124 234,143 249,124 234,124" fill="#0000ff" stroke="none" stroke-width="0" fill-rule="evenodd" data-shape="87"/>
        <polygon points="249,106 249,106 249,125 264,106 249,106" fill="#0000ff" stroke="none" stroke-width="0" fill-rule="evenodd" data-shape="88"/>
        <polygon points="249,143 249,143 249,162 264,143 249,143" fill="#00ff00" stroke="none" stroke-width="0" fill-rule="evenodd" data-shape="89"/>
        <polygon points="249,162 249,162 249,181 264,162 249,162" fill="#ff0000" stroke="none" stroke-width="0" fill-rule="evenodd" data-shape="90"/>
        <polygon points="249,124 249,124 249,143 264,124 249,124" fill="#ffff00" stroke="none" stroke-width="0" fill-rule="evenodd" data-shape="91"/>
        <polygon points="264,106 264,106 264,125 279,106 264,106" fill="#ffff00" stroke="none" stroke-width="0" fill-rule="evenodd" data-shape="92"/>
        <polygon points="264,143 264,143 264,162 279,143 264,143" fill="#ff0000" stroke="none" stroke-width="0" fill-rule="evenodd" data-shape="93"/>
        <polygon points="264,124 264,124 264,143 279,124 264,124" fill="#00ff00" stroke="none" stroke-width="0" fill-rule="evenodd" data-shape="94"/>
        <polygon points="264,162 264,162 264,181 279,162 264,162" fill="#0000ff" stroke="none" stroke-width="0" fill-rule="evenodd" data-shape="95"/>
      </g>
    </g>
    <g data-mdcr="group" class="mdcr-region">
      <g data-mdcr="group" class="mdcr-region">
        <polygon points="335,125 335,125 335,106 320,125 335,125" fill="#ff0000" stroke="none" stroke-width="0" fill-rule="evenodd" data-shape="96"/>
        <polygon points="335,162 335,162 335,143 320,162 335,162" fill="#ffff00" stroke="none" stroke-width="0" fill-rule="evenodd" data-shape="97"/>
        <polygon points="335,181 335,181 335,161 320,181 335,181" fill="#00ff00" stroke="none" stroke-width="0" fill-rule="evenodd" data-shape="98"/>
        <polygon points="335,143 335,143 335,123 320,143 335,143" fill="#0000ff" stroke="none" stroke-width="0" fill-rule="evenodd" data-shape="99"/>
        <polygon points="349,125 349,125 349,106 334,125 349,125" fill="#0000ff" stroke="none" stroke-width="0" fill-rule="evenodd" data-shape="100"/>
        <polygon points="349,162 349,162 349,143 334,162 349,162" fill="#00ff00" stroke="none" stroke-width="0" fill-rule="evenodd" data-shape="101"/>
        <polygon points="349,181 349,181 349,161 334,181 349,181" fill="#ff0000" stroke="none" stroke-width="0" fill-rule="evenodd" data-shape="102"/>
        <polygon points="349,143 349,143 349,123 334,143 349,143" fill="#ffff00" stroke="none" stroke-width="0" fill-rule="evenodd" data-shape="103"/>
        <polygon points="364,125 364,125 364,106 349,125 364,125" fill="#ffff00" stroke="none" stroke-width="0" fill-rule="evenodd" data-shape="104"/>
        <polygon points="364,162 364,162 364,143 349,162 364,162" fill="#ff0000" stroke="none" stroke-width="0" fill-rule="evenodd" data-shape="105"/>
        <polygon points="364,181 364,181 364,161 349,181 364,181" fill="#0000ff" stroke="none" stroke-width="0" fill-rule="evenodd" data-shape="106"/>
        <polygon points="364,143 364,143 364,123 349,143 364,143" fill="#00ff00" stroke="none" stroke-width="0" fill-rule="evenodd" data-shape="107"/>
        <polygon points="379,125 379,125 379,106 364,125 379,125" fill="#00ff00" stroke="none" stroke-width="0" fill-rule="evenodd" data-shape="108"/>
        <polygon points="379,162 379,162 379,143 364,162 379,162" fill="#0000ff" stroke="none" stroke-width="0" fill-rule="evenodd" data-shape="109"/>
        <polygon points="379,143 379,143 379,124 364,143 379,143" fill="#ff0000" stroke="none" stroke-width="0" fill-rule="evenodd" data-shape="110"/>
        <polygon points="379,181 379,181 379,162 364,181 379,181" fill="#ffff00" stroke="none" stroke-width="0" fill-rule="evenodd" data-shape="111"/>
      </g>
      <g data-mdcr="group" class="mdcr-region">
        <polygon points="320,106 320,106 320,125 335,106 320,106" fill="#00ff00" stroke="none" stroke-width="0" fill-rule="evenodd" data-shape="112"/>
        <polygon points="320,143 320,143 320,162 335,143 320,143" fill="#0000ff" stroke="none" stroke-width="0" fill-rule="evenodd" data-shape="113"/>
        <polygon points="320,162 320,162 320,181 335,162 320,162" fill="#ffff00" stroke="none" stroke-width="0" fill-rule="evenodd" data-shape="114"/>
        <polygon points="320,124 320,124 320,143 335,124 320,124" fill="#ff0000" stroke="none" stroke-width="0" fill-rule="evenodd" data-shape="115"/>
        <polygon points="334,106 334,106 334,125 349,106 334,106" fill="#ff0000" stroke="none" stroke-width="0" fill-rule="evenodd" data-shape="116"/>
        <polygon points="334,143 334,143 334,162 349,143 334,143" fill="#ffff00" stroke="none" stroke-width="0" fill-rule="evenodd" data-shape="117"/>
        <polygon points="334,162 334,162 334,181 349,162 334,162" fill="#00ff00" stroke="none" stroke-width="0" fill-rule="evenodd" data-shape="118"/>
        <polygon points="334,124 334,124 334,143 349,124 334,124" fill="#0000ff" stroke="none" stroke-width="0" fill-rule="evenodd" data-shape="119"/>
        <polygon points="349,106 349,106 349,125 364,106 349,106" fill="#0000ff" stroke="none" stroke-width="0" fill-rule="evenodd" data-shape="120"/>
        <polygon points="349,143 349,143 349,162 364,143 349,143" fill="#00ff00" stroke="none" stroke-width="0" fill-rule="evenodd" data-shape="121"/>
        <polygon points="349,162 349,162 349,181 364,162 349,162" fill="#ff0000" stroke="none" stroke-width="0" fill-rule="evenodd" data-shape="122"/>
        <polygon points="349,124 349,124 349,143 364,124 349,124" fill="#ffff00" stroke="none" stroke-width="0" fill-rule="evenodd" data-shape="123"/>
        <polygon points="364,106 364,106 364,125 379,106 364,106" fill="#ffff00" stroke="none" stroke-width="0" fill-rule="evenodd" data-shape="124"/>
        <polygon points="364,143 364,143 364,162 379,143 364,143" fill="#ff0000" stroke="none" stroke-width="0" fill-rule="evenodd" data-shape="125"/>
        <polygon points="364,124 364,124 364,143 379,124 364,124" fill="#00ff00" stroke="none" stroke-width="0" fill-rule="evenodd" data-shape="126"/>
        <polygon points="364,162 364,162 364,181 379,162 364,162" fill="#0000ff" stroke="none" stroke-width="0" fill-rule="evenodd" data-shape="127"/>
      </g>
    </g>
  </g>
</svg>