<svg xmlns="http://www.w3.org/2000/svg" xmlns:mdcr="http://sensory.com/mdcr" viewBox="0 0 401 301" width="401" height="301">
  <metadata>
    <mdcr:info xmlns:mdcr="http://sensory.com/mdcr">
      <mdcr:source format="WMF" generator="wmf2svg.js"/>
      <mdcr:bounds left="0" top="0" right="6015" bottom="4515" inch="1440"/>
      <mdcr:records count="11">
        <mdcr:record tag="MDCR-{"/>
        <mdcr:record tag="MDCR-{"/>
        <mdcr:record tag="MDCR-}"/>
        <mdcr:record tag="MDCR-{"/>
        <mdcr:record tag="MDCR-}"/>
        <mdcr:record tag="MDCR-{"/>
        <mdcr:record tag="MDCR-}"/>
        <mdcr:record tag="MDCR-{"/>
        <mdcr:record tag="MDCR-}"/>
        <mdcr:record tag="MDCR-}"/>
        <mdcr:record tag="MDCR-S"/>
      </mdcr:records>
    </mdcr:info>
  </metadata>
  <g data-mdcr="group" class="mdcr-region">
    <g data-mdcr="group" class="mdcr-region">
      <path d="M178,261 C179.3,258.7 180.7,256.3 182,254 C183.3,251.7 184.7,249.3 186,247 C187.3,244.7 188.5,242.2 190,240 C191.5,237.9 193.2,235.8 195,234 C196.8,232.2 199.0,230.7 201,229 C203.0,227.3 205.0,225.7 207,224 L207,261 L178,261Z" fill="#bbbbbb" stroke="none" stroke-width="0" fill-rule="evenodd" data-shape="0"/>
      <path d="M178,261 C179.3,258.7 180.7,256.3 182,254 C183.3,251.7 184.7,249.3 186,247 C187.3,244.7 188.5,242.2 190,240 C191.5,237.9 193.2,235.8 195,234 C196.8,232.2 199.0,230.7 201,229 C203.0,227.3 205.0,225.7 207,224" fill="none" stroke="none" stroke-width="0"/>
      <path d="M178,261 C179.3,258.7 180.7,256.3 182,254 C183.3,251.7 184.7,249.3 186,247 C187.3,244.7 188.5,242.2 190,240 C191.5,237.9 193.2,235.8 195,234 C196.8,232.2 199.0,230.7 201,229 C203.0,227.3 205.0,225.7 207,224" fill="none" stroke="#000000" stroke-width="1"/>
      <path d="M183,258 C182.7,255.3 182.2,252.8 182,250 C181.8,247.1 181.8,243.9 182,241 C182.2,238.2 182.5,235.7 183,233 C183.5,230.3 183.9,227.5 185,225 C186.2,222.5 187.9,219.3 190,218 C191.9,216.8 195.1,216.2 197,217 C199.1,217.9 201.2,221.4 202,224 C202.9,226.7 202.2,230.2 202,233 C201.8,235.5 201.6,237.6 201,240 C200.3,242.6 199.0,245.3 198,248 L183,258Z" fill="#bbbbbb" stroke="#000000" stroke-width="1" fill-rule="evenodd" data-shape="1"/>
      <path d="M183,258 C182.7,255.3 182.2,252.8 182,250 C181.8,247.1 181.8,243.9 182,241 C182.2,238.2 182.5,235.7 183,233 C183.5,230.3 183.9,227.5 185,225 C186.2,222.5 187.9,219.3 190,218 C191.9,216.8 195.1,216.2 197,217 C199.1,217.9 201.2,221.4 202,224 C202.9,226.7 202.2,230.2 202,233 C201.8,235.5 201.6,237.6 201,240 C200.3,242.6 199.0,245.3 198,248 L183,258" fill="none" stroke="none" stroke-width="0"/>
      <path d="M183,258 C182.7,255.3 182.2,252.8 182,250 C181.8,247.1 181.8,243.9 182,241 C182.2,238.2 182.5,235.7 183,233 C183.5,230.3 183.9,227.5 185,225 C186.2,222.5 187.9,219.3 190,218 C191.9,216.8 195.1,216.2 197,217 C199.1,217.9 201.2,221.4 202,224 C202.9,226.7 202.2,230.2 202,233 C201.8,235.5 201.6,237.6 201,240 C200.3,242.6 199.0,245.3 198,248" fill="none" stroke="none" stroke-width="0"/>
    </g>
    <g data-mdcr="group" class="mdcr-region">
      <path d="M93,75 C94.3,75.3 96.7,73.4 98,72 C99.4,70.5 101.1,67.9 101,66 C100.9,64.2 99.3,61.8 98,61 C96.9,60.4 95.2,60.8 94,61 C92.9,61.2 91.7,61.2 91,62 C89.9,63.4 89.5,67.7 90,70 C90.4,71.9 91.7,74.7 93,75Z" fill="#dddddd" stroke="#000000" stroke-width="1" fill-rule="evenodd" data-shape="2"/>
      <path d="M93,75 C94.7,74.0 96.7,73.4 98,72 C99.4,70.5 101.1,67.9 101,66 C100.9,64.2 99.3,61.8 98,61 C96.9,60.4 95.2,60.8 94,61 C92.9,61.2 91.7,61.2 91,62 C89.9,63.4 89.5,67.7 90,70 C90.4,71.9 92.0,73.3 93,75" fill="none" stroke="#000000" stroke-width="1"/>
      <path d="M26,43 C27.3,44.4 30.7,45.7 32,45 C33.4,44.2 34.0,40.3 34,38 C34.0,35.7 32.9,33.2 32,31 C31.2,28.9 30.4,25.4 29,25 C27.7,24.6 24.9,26.4 24,28 C22.9,29.9 23.6,33.4 24,36 C24.3,38.4 24.6,41.5 26,43Z" fill="#dddddd" stroke="#000000" stroke-width="1" fill-rule="evenodd" data-shape="3"/>
      <path d="M26,43 L32,45 C32.7,42.7 34.0,40.3 34,38 C34.0,35.7 32.9,33.2 32,31 C31.2,28.9 30.0,27.0 29,25 C27.3,26.0 24.9,26.4 24,28 C22.9,29.9 23.6,33.4 24,36 C24.3,38.4 25.3,40.7 26,43" fill="none" stroke="#000000" stroke-width="1"/>
      <path d="M35,42 C35.8,43.6 38.6,45.3 40,45 C41.6,44.6 43.0,41.2 44,39 C45.0,36.8 46.0,34.3 46,32 C46.0,29.7 45.4,25.8 44,25 C42.7,24.3 39.3,25.6 38,27 C36.6,28.5 36.5,31.6 36,34 C35.5,36.6 34.1,40.1 35,42Z" fill="#dddddd" stroke="#000000" stroke-width="1" fill-rule="evenodd" data-shape="4"/>
      <path d="M35,42 C36.7,43.0 38.6,45.3 40,45 C41.6,44.6 43.0,41.2 44,39 C45.0,36.8 46.0,34.3 46,32 C46.0,29.7 44.7,27.3 44,25 C42.0,25.7 39.3,25.6 38,27 C36.6,28.5 36.5,31.6 36,34 C35.5,36.6 35.3,39.3 35,42" fill="none" stroke="#000000" stroke-width="1"/>
      <polyline points="32,81 34,79" fill="none" stroke="#000000" stroke-width="1"/>
      <path d="M23,63 C24.7,64.3 27.7,65.1 30,65 C32.4,64.9 34.6,63.0 37,62 C39.6,61.0 43.0,60.6 45,59 C46.9,57.5 48.6,55.2 49,53 C49.4,50.6 48.4,47.0 47,45 C45.7,43.1 43.3,41.8 41,41 C38.6,40.1 35.5,39.6 33,40 C30.5,40.3 27.8,41.4 26,43 C24.1,44.7 23.0,47.5 22,50 C21.0,52.5 19.7,55.7 20,58 C20.3,59.9 21.5,61.8 23,63Z" fill="#dddddd" stroke="#000000" stroke-width="1" fill-rule="evenodd" data-shape="5"/>
      <path d="M23,63 C25.3,63.7 27.7,65.1 30,65 C32.4,64.9 34.6,63.0 37,62 C39.6,61.0 43.0,60.6 45,59 C46.9,57.5 48.6,55.2 49,53 C49.4,50.6 48.4,47.0 47,45 C45.7,43.1 43.3,41.8 41,41 C38.6,40.1 35.5,39.6 33,40 C30.5,40.3 27.8,41.4 26,43 C24.1,44.7 23.0,47.5 22,50 C21.0,52.5 19.7,55.7 20,58 C20.3,59.9 22.0,61.3 23,63" fill="none" stroke="#000000" stroke-width="1"/>
      <path d="M93,82 L26,82 C26.7,78.3 26.8,74.4 28,71 C29.2,67.7 30.7,64.5 33,62 C35.3,59.5 38.7,57.5 42,56 C45.4,54.5 49.3,53.3 53,53 C56.6,52.7 60.4,53.5 64,54 C67.4,54.5 70.9,54.6 74,56 C77.3,57.5 80.3,60.3 83,63 C85.7,65.7 88.3,68.8 90,72 C91.6,75.1 92.0,78.7 93,82Z" fill="#dddddd" stroke="#000000" stroke-width="1" fill-rule="evenodd" data-shape="6"/>
      <path d="M93,82 L26,82 C26.7,78.3 26.8,74.4 28,71 C29.2,67.7 30.7,64.5 33,62 C35.3,59.5 38.7,57.5 42,56 C45.4,54.5 49.3,53.3 53,53 C56.6,52.7 60.4,53.5 64,54 C67.4,54.5 70.9,54.6 74,56 C77.3,57.5 80.3,60.3 83,63 C85.7,65.7 88.3,68.8 90,72 C91.6,75.1 92.0,78.7 93,82" fill="none" stroke="#000000" stroke-width="1"/>
      <path d="M29,50 L29,51 L30,51 L31,50 L31,49 L31,48 L31,47 L30,47 L29,47 L29,48 L28,48 L28,49 L28,50Z" fill="#000000" stroke="#000000" stroke-width="1" fill-rule="evenodd" data-shape="7"/>
      <path d="M29,50 L29,51 L30,51 L31,50 L31,49 L31,48 L31,47 L30,47 L29,47 L29,48 L28,48 L28,49 L28,50 L29,50" fill="none" stroke="#000000" stroke-width="1"/>
    </g>
    <g data-mdcr="group" class="mdcr-region">
      <path d="M229,53 L231,64 C233.3,63.3 235.8,62.9 238,62 C240.1,61.2 243.2,60.6 244,59 C244.8,57.5 244.2,54.2 243,53 C241.7,51.7 238.3,52.0 236,52 C233.7,52.0 231.3,52.7 229,53Z" fill="#00ff00" stroke="#000000" stroke-width="1" fill-rule="evenodd" data-shape="8"/>
      <path d="M164,46 L157,63 C154.3,63.0 151.4,63.7 149,63 C146.7,62.3 144.6,60.8 143,59 C141.3,57.1 139.3,54.4 139,52 C138.7,49.7 139.5,46.2 141,45 C142.5,43.9 145.6,44.7 148,45 C150.6,45.3 153.3,46.8 156,47 C158.7,47.2 161.3,46.3 164,46Z" fill="#00ff00" stroke="#000000" stroke-width="1" fill-rule="evenodd" data-shape="9"/>
      <path d="M146,55 L147,55 L147,56 L148,55 L149,55 L150,54 L150,53 L149,52 L148,52 L147,52 L146,52 L146,53 L145,53 L145,54 L146,54Z" fill="#000000" stroke="#000000" stroke-width="1" fill-rule="evenodd" data-shape="10"/>
      <path d="M224,63 C225.3,65.3 226.6,67.8 228,70 C229.3,72.1 231.8,73.9 232,76 C232.2,78.2 230.0,80.7 229,83 C227.0,81.3 224.5,80.1 223,78 C221.4,75.8 221.2,72.5 220,70 C218.8,67.5 217.3,65.3 216,63 L224,63Z" fill="#00ff00" stroke="#000000" stroke-width="1" fill-rule="evenodd" data-shape="11"/>
      <path d="M175,64 C175.0,66.7 175.8,69.5 175,72 C174.2,74.6 172.0,77.2 170,79 C168.0,80.8 165.3,81.7 163,83 C161.7,81.3 159.1,79.9 159,78 C158.8,75.9 162.2,73.4 163,71 C163.8,68.7 163.7,66.3 164,64 L175,64Z" fill="#00ff00" stroke="#000000" stroke-width="1" fill-rule="evenodd" data-shape="12"/>
      <path d="M232,64 L156,64 C157.3,59.7 158.1,55.0 160,51 C161.8,47.0 164.3,43.2 167,40 C169.6,36.9 172.7,34.2 176,32 C179.3,29.8 183.0,27.9 187,27 C191.3,26.1 196.6,26.1 201,27 C205.2,27.8 209.4,29.7 213,32 C216.7,34.3 220.1,37.7 223,41 C225.7,44.1 228.5,47.3 230,51 C231.6,54.9 231.3,59.7 232,64Z" fill="#008000" stroke="#000000" stroke-width="1" fill-rule="evenodd" data-shape="13"/>
    </g>
    <g data-mdcr="group" class="mdcr-region">
      <path d="M352,77 L271,77 C272.3,72.7 273.0,68.1 275,64 C277.0,59.8 280.3,56.0 283,52 C285.7,48.0 287.8,43.4 291,40 C294.1,36.7 298.0,34.0 302,32 C306.0,30.0 310.6,28.2 315,28 C319.3,27.8 323.9,29.4 328,31 C332.2,32.7 336.8,34.8 340,38 C343.2,41.2 345.3,45.8 347,50 C348.6,54.1 349.2,58.6 350,63 C350.9,67.6 351.3,72.3 352,77Z" fill="#bbbbbb" stroke="#000000" stroke-width="1" fill-rule="evenodd" data-shape="14"/>
      <path d="M352,77 L271,77 C272.3,72.7 273.0,68.1 275,64 C277.0,59.8 280.3,56.0 283,52 C285.7,48.0 287.8,43.4 291,40 C294.1,36.7 298.0,34.0 302,32 C306.0,30.0 310.6,28.2 315,28 C319.3,27.8 323.9,29.4 328,31 C332.2,32.7 336.8,34.8 340,38 C343.2,41.2 345.3,45.8 347,50 C348.6,54.1 349.2,58.6 350,63 C350.9,67.6 351.3,72.3 352,77" fill="none" stroke="#000000" stroke-width="1"/>
      <path d="M352,77 L271,77 C272.3,72.7 273.0,68.1 275,64 C277.0,59.8 280.3,56.0 283,52 C285.7,48.0 287.8,43.4 291,40 C294.1,36.7 298.0,34.0 302,32 C306.0,30.0 310.6,28.2 315,28 C319.3,27.8 323.9,29.4 328,31 C332.2,32.7 336.8,34.8 340,38 C343.2,41.2 345.3,45.8 347,50 C348.6,54.1 349.2,58.6 350,63 C350.9,67.6 351.3,72.3 352,77" fill="none" stroke="#000000" stroke-width="1"/>
      <path d="M286,50 C285.7,47.3 285.0,44.6 285,42 C285.0,39.6 285.4,37.3 286,35 C286.7,32.6 287.3,29.5 289,28 C290.7,26.5 293.8,25.7 296,26 C298.2,26.3 301.0,28.1 302,30 C303.1,32.0 302.7,35.6 302,38 C301.3,40.3 299.3,42.0 298,44 L286,50Z" fill="#bbbbbb" stroke="#000000" stroke-width="1" fill-rule="evenodd" data-shape="15"/>
      <path d="M286,50 C285.7,47.3 285.0,44.6 285,42 C285.0,39.6 285.4,37.3 286,35 C286.7,32.6 287.3,29.5 289,28 C290.7,26.5 293.8,25.7 296,26 C298.2,26.3 301.0,28.1 302,30 C303.1,32.0 302.7,35.6 302,38 C301.3,40.3 299.3,42.0 298,44 L286,50" fill="none" stroke="#000000" stroke-width="1"/>
      <path d="M286,50 C285.7,47.3 285.0,44.6 285,42 C285.0,39.6 285.4,37.3 286,35 C286.7,32.6 287.3,29.5 289,28 C290.7,26.5 293.8,25.7 296,26 C298.2,26.3 301.0,28.1 302,30 C303.1,32.0 302.7,35.6 302,38 C301.3,40.3 299.3,42.0 298,44" fill="none" stroke="#000000" stroke-width="1"/>
      <path d="M283,60 L284,60 L284,61 L285,61 L286,61 L287,60 L288,59 L288,58 L288,57 L288,56 L287,56 L287,55 L286,55 L285,55 L284,55 L283,56 L282,57 L282,58 L282,59 L283,59Z" fill="#000000" stroke="#000000" stroke-width="1" fill-rule="evenodd" data-shape="16"/>
      <path d="M283,60 L284,60 L284,61 L285,61 L286,61 L287,60 L288,59 L288,58 L288,57 L288,56 L287,56 L287,55 L286,55 L285,55 L284,55 L283,56 L282,57 L282,58 L282,59 L283,59 L283,60" fill="none" stroke="#000000" stroke-width="1"/>
      <path d="M283,60 L284,60 L284,61 L285,61 L286,61 L287,60 L288,59 L288,58 L288,57 L288,56 L287,56 L287,55 L286,55 L285,55 L284,55 L283,56 L282,57 L282,58 L282,59 L283,59 L283,60" fill="none" stroke="#000000" stroke-width="1"/>
      <path d="M351,69 C353.0,70.7 354.9,72.5 357,74 C359.2,75.5 362.0,78.4 364,78 C366.0,77.6 367.1,73.1 369,72 C370.5,71.1 372.6,70.4 374,71 C375.8,71.8 376.7,75.7 378,78" fill="none" stroke="#000000" stroke-width="1"/>
      <polyline points="278,77 280,74" fill="none" stroke="#000000" stroke-width="1"/>
      <polyline points="277,65 270,79" fill="none" stroke="#000000" stroke-width="1"/>
      <polyline points="282,73 278,84" fill="none" stroke="#000000" stroke-width="1"/>
    </g>
  </g>
</svg>