<svg xmlns="http://www.w3.org/2000/svg" xmlns:mdcr="http://sensory.com/mdcr" viewBox="0 0 401 301" width="401" height="301">
  <metadata>
    <mdcr:info xmlns:mdcr="http://sensory.com/mdcr">
      <mdcr:source format="WMF" generator="wmf2svg.js"/>
      <mdcr:bounds left="0" top="0" right="6015" bottom="4515" inch="1440"/>
      <mdcr:records count="11">
        <mdcr:record tag="MDCR-{"/>
        <mdcr:record tag="MDCR-{"/>
        <mdcr:record tag="MDCR-}"/>
        <mdcr:record tag="MDCR-S"/>
        <mdcr:record tag="MDCR-{"/>
        <mdcr:record tag="MDCR-}"/>
        <mdcr:record tag="MDCR-{"/>
        <mdcr:record tag="MDCR-}"/>
        <mdcr:record tag="MDCR-{"/>
        <mdcr:record tag="MDCR-}"/>
        <mdcr:record tag="MDCR-}"/>
      </mdcr:records>
    </mdcr:info>
  </metadata>
  <g data-mdcr="group" class="mdcr-region">
    <g data-mdcr="group" class="mdcr-region">
      <polygon points="199,265 196,257 218,243 214,265 199,265" fill="#eeeebb" stroke="#000000" stroke-width="1" fill-rule="evenodd" data-shape="0"/>
      <polyline points="199,265 196,257 218,243 214,265" fill="none" stroke="#000000" stroke-width="1"/>
      <polygon points="176,265 172,245 194,259 192,265 176,265" fill="#eeeebb" stroke="#000000" stroke-width="1" fill-rule="evenodd" data-shape="1"/>
      <polyline points="176,265 172,245 194,259 192,265" fill="none" stroke="#000000" stroke-width="1"/>
      <path d="M180,265 C180.7,262.3 180.6,258.4 182,257 C183.0,256.0 185.0,257.0 186,256 C187.4,254.6 187.3,250.7 188,248 C189.7,248.7 191.8,248.7 193,250 C194.4,251.6 194.3,255.3 195,258 C196.0,255.3 196.4,251.6 198,250 C199.3,248.7 201.3,248.7 203,248 C203.3,251.0 202.7,255.8 204,257 C204.9,257.8 207.0,256.2 208,257 C209.4,258.1 209.3,262.3 210,265 L180,265Z" fill="#777777" stroke="#000000" stroke-width="1" fill-rule="evenodd" data-shape="2"/>
      <path d="M180,265 C180.7,262.3 180.6,258.4 182,257 C183.0,256.0 185.0,257.0 186,256 C187.4,254.6 187.3,250.7 188,248 C189.7,248.7 191.8,248.7 193,250 C194.4,251.6 194.3,255.3 195,258 C196.0,255.3 196.4,251.6 198,250 C199.3,248.7 201.3,248.7 203,248 C203.3,251.0 202.7,255.8 204,257 C204.9,257.8 207.0,256.2 208,257 C209.4,258.1 209.3,262.3 210,265" fill="none" stroke="#000000" stroke-width="1"/>
    </g>
    <g data-mdcr="group" class="mdcr-region">
      <path d="M116,63 L119,66 C117.0,67.0 115.1,68.8 113,69 C110.8,69.2 108.0,68.2 106,67 C104.0,65.8 102.2,64.1 101,62 C99.7,59.8 99.3,56.7 99,54 C98.7,51.4 98.2,48.2 99,46 C99.7,44.0 101.7,42.7 103,41 C103.3,43.7 103.5,46.4 104,49 C104.5,51.4 105.0,53.7 106,56 C107.0,58.4 108.2,62.5 110,63 C111.6,63.5 114.0,61.0 116,60 L116,63Z" fill="#a0a0a4" stroke="#000000" stroke-width="1" fill-rule="evenodd" data-shape="3"/>
      <path d="M89,80 L89,105 C89.0,105.3 89.1,105.7 89,106 C88.8,106.4 88.3,106.7 88,107 C87.7,107.3 87.4,107.8 87,108 C86.7,108.1 86.3,108.0 86,108 C85.7,108.0 85.2,107.8 85,108 C84.8,108.2 85.2,108.8 85,109 C84.8,109.2 84.3,109.0 84,109 C83.7,109.0 83.3,109.1 83,109 C82.6,108.8 82.4,108.2 82,108 C81.7,107.9 81.3,108.1 81,108 C80.6,107.8 80.4,107.2 80,107 C79.7,106.9 79.2,107.2 79,107 C78.8,106.8 79.0,106.3 79,106 C79.0,105.7 79.0,105.3 79,105 L79,91 L89,80Z" fill="#a0a0a4" stroke="#000000" stroke-width="1" fill-rule="evenodd" data-shape="4"/>
      <path d="M49,84 L49,104 C49.0,104.3 49.0,104.7 49,105 C49.0,105.3 48.8,105.8 49,106 C49.2,106.2 49.7,106.0 50,106 C50.3,106.0 50.7,105.9 51,106 C51.4,106.2 51.6,106.8 52,107 C52.3,107.1 52.7,107.0 53,107 C53.3,107.0 53.8,107.2 54,107 C54.2,106.8 53.8,106.2 54,106 C54.2,105.8 54.7,106.0 55,106 C55.3,106.0 55.7,106.0 56,106 C56.3,106.0 56.8,106.2 57,106 C57.2,105.8 56.8,105.2 57,105 C57.2,104.8 57.8,105.2 58,105 C58.2,104.8 58.0,104.3 58,104 C58.0,103.7 58.0,103.3 58,103 L58,92 L49,84Z" fill="#a0a0a4" stroke="#000000" stroke-width="1" fill-rule="evenodd" data-shape="5"/>
      <path d="M44,62 C43.0,64.7 42.4,67.8 41,70 C39.7,72.0 37.0,73.3 36,75 C35.3,76.3 35.3,77.7 35,79 C37.0,78.0 39.4,77.5 41,76 C42.8,74.3 43.7,71.3 45,69 L44,62Z" fill="#a0a0a4" stroke="#000000" stroke-width="1" fill-rule="evenodd" data-shape="6"/>
      <path d="M85,91 C82.7,92.8 79.0,93.3 76,94 C73.0,94.7 70.1,95.1 67,95 C63.7,94.9 59.9,94.3 57,93 C54.3,91.8 52.0,90.1 50,88 C47.9,85.8 46.0,82.9 45,80 C44.0,77.2 44.0,74.0 44,71 C44.0,68.0 44.2,64.9 45,62 C45.8,58.9 47.4,55.7 49,53 C50.5,50.4 52.0,48.0 54,46 C56.0,44.0 58.4,42.0 61,41 C63.7,40.0 67.0,39.7 70,40 C73.0,40.3 76.4,41.6 79,43 C81.3,44.3 83.2,46.0 85,48 C86.9,50.2 88.7,53.2 90,56 C91.3,58.8 92.5,61.9 93,65 C93.5,68.2 93.6,71.9 93,75 C92.5,77.9 91.3,80.4 90,83 C88.6,85.7 87.3,89.2 85,91Z" fill="#a0a0a4" stroke="#000000" stroke-width="1" fill-rule="evenodd" data-shape="7"/>
      <path d="M100,58 C98.9,59.6 97.6,61.5 96,62 C94.3,62.5 91.9,61.9 90,61 C87.9,60.0 85.5,58.1 84,56 C82.4,53.8 81.7,50.7 81,48 C80.4,45.4 79.8,42.6 80,40 C80.2,37.6 81.1,35.2 82,33 C82.8,30.9 83.5,28.3 85,27 C86.5,25.7 88.9,24.9 91,25 C93.3,25.1 96.2,26.4 98,28 C99.9,29.7 101.0,32.5 102,35 C103.0,37.5 103.8,40.3 104,43 C104.2,45.7 103.7,48.5 103,51 C102.3,53.5 101.3,56.1 100,58Z" fill="#a0a0a4" stroke="#000000" stroke-width="1" fill-rule="evenodd" data-shape="8"/>
      <path d="M92,59 C91.0,60.9 89.6,63.6 88,64 C86.5,64.4 84.6,63.0 83,62 C81.2,60.8 79.3,59.0 78,57 C76.6,55.0 75.7,52.4 75,50 C74.4,47.7 74.2,45.4 74,43 C73.8,40.4 73.3,37.4 74,35 C74.7,32.7 76.3,30.5 78,29 C79.6,27.5 82.3,25.6 84,26 C85.6,26.4 86.7,29.2 88,31 C89.4,32.9 91.0,34.8 92,37 C93.0,39.2 93.7,41.6 94,44 C94.4,46.6 94.4,49.4 94,52 C93.7,54.4 93.1,57.0 92,59Z" fill="#a0a0a4" stroke="#000000" stroke-width="1" fill-rule="evenodd" data-shape="9"/>
      <path d="M101,45 L101,46 L100,46 L99,45 L99,44 L99,43 L99,42 L99,41 L99,40 L100,40 L101,40 L101,41 L102,41 L102,42 L102,43 L102,44Z" fill="#000000" stroke="#000000" stroke-width="1" fill-rule="evenodd" data-shape="10"/>
    </g>
    <g data-mdcr="group" class="mdcr-region">
      <path d="M185,94 L185,95 L184,95 L184,96 L183,97 L182,97 L181,97 L181,96 L180,96 L180,95 L180,94 L181,81 L186,81Z" fill="#999999" stroke="none" stroke-width="0" fill-rule="evenodd" data-shape="11"/>
      <path d="M185,94 L185,95 L184,95 L184,96 L183,97 L182,97 L181,97 L181,96 L180,96 L180,95 L180,94 L181,81 L186,81 L185,94" fill="none" stroke="#000000" stroke-width="1"/>
      <path d="M178,94 C178.0,94.3 178.2,94.8 178,95 C177.8,95.2 177.2,94.8 177,95 C176.8,95.2 177.1,95.7 177,96 C176.8,96.4 176.4,96.8 176,97 C175.7,97.1 175.3,97.0 175,97 C174.7,97.0 174.2,97.2 174,97 C173.8,96.8 174.2,96.2 174,96 C173.8,95.8 173.2,96.2 173,96 C172.8,95.8 173.0,95.3 173,95 C173.0,94.7 173.0,94.3 173,94 C173.0,93.7 173.0,93.3 173,93 L177,79 L182,80 L178,94Z" fill="#999999" stroke="none" stroke-width="0" fill-rule="evenodd" data-shape="12"/>
      <path d="M178,94 C178.0,94.3 178.2,94.8 178,95 C177.8,95.2 177.2,94.8 177,95 C176.8,95.2 177.1,95.7 177,96 C176.8,96.4 176.4,96.8 176,97 C175.7,97.1 175.3,97.0 175,97 C174.7,97.0 174.2,97.2 174,97 C173.8,96.8 174.2,96.2 174,96 C173.8,95.8 173.2,96.2 173,96 C172.8,95.8 173.0,95.3 173,95 C173.0,94.7 173.0,94.3 173,94 C173.0,93.7 173.0,93.3 173,93 L177,79 L182,80 L178,94" fill="none" stroke="#000000" stroke-width="1"/>
      <path d="M220,94 C220.0,94.3 220.1,94.7 220,95 C219.8,95.4 219.4,95.8 219,96 C218.7,96.1 218.2,95.8 218,96 C217.8,96.2 218.2,96.8 218,97 C217.8,97.2 217.3,97.0 217,97 C216.7,97.0 216.2,97.2 216,97 C215.8,96.8 216.2,96.2 216,96 C215.8,95.8 215.2,96.2 215,96 C214.8,95.8 215.0,95.3 215,95 C215.0,94.7 215.0,94.3 215,94 L218,79 L223,79 L220,94Z" fill="#999999" stroke="none" stroke-width="0" fill-rule="evenodd" data-shape="13"/>
      <path d="M220,94 C220.0,94.3 220.1,94.7 220,95 C219.8,95.4 219.4,95.8 219,96 C218.7,96.1 218.2,95.8 218,96 C217.8,96.2 218.2,96.8 218,97 C217.8,97.2 217.3,97.0 217,97 C216.7,97.0 216.2,97.2 216,97 C215.8,96.8 216.2,96.2 216,96 C215.8,95.8 215.2,96.2 215,96 C214.8,95.8 215.0,95.3 215,95 C215.0,94.7 215.0,94.3 215,94 L218,79 L223,79 L220,94" fill="none" stroke="#000000" stroke-width="1"/>
      <path d="M229,93 C229.0,93.3 229.1,93.7 229,94 C228.8,94.4 228.3,94.7 228,95 C227.7,95.3 227.4,95.8 227,96 C226.7,96.1 226.3,96.1 226,96 C225.6,95.8 225.4,95.2 225,95 C224.7,94.9 224.2,95.2 224,95 C223.8,94.8 224.0,94.3 224,94 C224.0,93.7 224.0,93.3 224,93 L222,78 L227,78 L229,93Z" fill="#999999" stroke="none" stroke-width="0" fill-rule="evenodd" data-shape="14"/>
      <path d="M229,93 C229.0,93.3 229.1,93.7 229,94 C228.8,94.4 228.3,94.7 228,95 C227.7,95.3 227.4,95.8 227,96 C226.7,96.1 226.3,96.1 226,96 C225.6,95.8 225.4,95.2 225,95 C224.7,94.9 224.2,95.2 224,95 C223.8,94.8 224.0,94.3 224,94 C224.0,93.7 224.0,93.3 224,93 L222,78 L227,78 L229,93" fill="none" stroke="#000000" stroke-width="1"/>
      <path d="M236,61 C236.3,61.0 236.8,60.8 237,61 C237.2,61.2 236.8,61.8 237,62 C237.2,62.2 237.7,62.0 238,62 C238.3,62.0 238.7,62.0 239,62 C239.3,62.0 239.8,61.8 240,62 C240.2,62.2 240.2,62.8 240,63 C239.8,63.2 239.2,62.8 239,63 C238.8,63.2 239.2,63.8 239,64 C238.8,64.2 238.3,64.0 238,64 L240,66 C238.0,66.0 235.5,66.8 234,66 C232.6,65.3 231.5,63.6 231,62 C230.4,60.3 231.0,58.0 231,56 C232.7,56.7 235.3,56.9 236,58 C236.5,58.8 236.0,60.0 236,61Z" fill="#777777" stroke="none" stroke-width="0" fill-rule="evenodd" data-shape="15"/>
      <path d="M230,58 C231.7,58.0 234.0,57.3 235,58 C235.8,58.6 235.7,60.0 236,61 C236.3,61.0 236.8,60.8 237,61 C237.2,61.2 236.8,61.8 237,62 C237.2,62.2 237.7,62.0 238,62 C238.3,62.0 238.7,62.0 239,62 C239.3,62.0 239.8,61.8 240,62 C240.2,62.2 240.2,62.8 240,63 C239.8,63.2 239.2,62.8 239,63 C238.8,63.2 239.2,63.8 239,64 C238.8,64.2 238.3,64.0 238,64 L240,66 C237.7,65.7 234.7,66.3 233,65 C231.3,63.7 231.0,60.3 230,58" fill="none" stroke="#000000" stroke-width="1"/>
      <path d="M186,58 C186.0,57.7 186.0,57.3 186,57 C186.0,56.7 185.9,56.3 186,56 C186.2,55.6 186.6,55.2 187,55 C187.3,54.9 187.8,55.2 188,55 C188.2,54.8 187.8,54.2 188,54 C188.2,53.8 188.7,54.0 189,54 C189.3,54.0 189.8,54.2 190,54 C190.2,53.8 189.8,53.2 190,53 C190.2,52.8 190.7,53.0 191,53 C191.3,53.0 191.7,53.0 192,53 C192.3,53.0 192.7,53.0 193,53 C193.3,53.0 193.8,52.8 194,53 C194.2,53.2 193.8,53.8 194,54 C194.2,54.2 194.8,53.8 195,54 C195.2,54.2 194.8,54.8 195,55 C195.2,55.2 195.8,54.8 196,55 C196.2,55.2 196.0,55.7 196,56 C196.0,56.3 196.0,56.7 196,57 C196.0,57.3 196.0,57.7 196,58 C196.0,57.7 195.9,57.3 196,57 C196.2,56.6 196.7,56.3 197,56 C197.3,55.7 197.7,55.3 198,55 C198.3,54.7 198.6,54.2 199,54 C199.3,53.9 199.8,54.2 200,54 C200.2,53.8 199.8,53.2 200,53 C200.2,52.8 200.7,53.0 201,53 C201.3,53.0 201.7,53.0 202,53 C202.3,53.0 202.7,52.9 203,53 C203.4,53.2 203.8,53.6 204,54 C204.1,54.3 203.8,54.8 204,55 C204.2,55.2 204.8,54.8 205,55 C205.2,55.2 204.9,55.7 205,56 C205.2,56.4 205.8,56.6 206,57 C206.1,57.3 206.0,57.7 206,58 C206.0,57.7 206.0,57.3 206,57 C206.0,56.7 205.9,56.3 206,56 C206.2,55.6 206.6,55.2 207,55 C207.3,54.9 207.8,55.2 208,55 C208.2,54.8 207.8,54.2 208,54 C208.2,53.8 208.7,54.1 209,54 C209.4,53.8 209.6,53.2 210,53 C210.3,52.9 210.7,53.0 211,53 C211.3,53.0 211.7,53.0 212,53 C212.3,53.0 212.7,53.0 213,53 C213.3,53.0 213.8,52.8 214,53 C214.2,53.2 213.8,53.8 214,54 C214.2,54.2 214.8,53.8 215,54 C215.2,54.2 214.8,54.8 215,55 C215.2,55.2 215.8,54.8 216,55 C216.2,55.2 216.0,55.7 216,56 C216.0,56.3 216.0,56.7 216,57 C216.0,57.3 216.0,57.7 216,58 C216.0,57.7 215.9,57.3 216,57 C216.2,56.6 216.7,56.3 217,56 C217.3,55.7 217.7,55.3 218,55 C218.3,54.7 218.6,54.2 219,54 C219.3,53.9 219.8,54.2 220,54 C220.2,53.8 219.8,53.2 220,53 C220.2,52.8 220.7,53.0 221,53 C221.3,53.0 221.7,53.0 222,53 C222.3,53.0 222.7,53.0 223,53 C223.3,53.0 223.8,52.8 224,53 C224.2,53.2 223.8,53.8 224,54 C224.2,54.2 224.8,53.8 225,54 C225.2,54.2 225.0,54.7 225,55 C225.0,55.3 225.0,55.7 225,56 C225.0,56.3 225.0,56.7 225,57 C225.0,57.3 225.0,57.7 225,58 C225.3,57.7 225.6,57.2 226,57 C226.3,56.9 226.8,57.2 227,57 C227.2,56.8 226.8,56.2 227,56 C227.2,55.8 227.7,56.0 228,56 C228.3,56.0 228.7,56.0 229,56 C229.3,56.0 229.7,56.0 230,56 C230.3,56.0 230.7,56.0 231,56 C231.3,56.0 231.7,55.9 232,56 C232.4,56.2 232.8,56.6 233,57 C233.1,57.3 233.0,57.7 233,58 C233.0,58.3 233.0,58.7 233,59 C233.0,59.3 233.2,59.8 233,60 C232.8,60.2 232.2,59.8 232,60 C231.8,60.2 232.2,60.8 232,61 C231.8,61.2 231.3,61.0 231,61 C231.3,61.0 231.8,60.8 232,61 C232.2,61.2 231.8,61.8 232,62 C232.2,62.2 232.7,61.9 233,62 C233.4,62.2 233.6,62.8 234,63 C234.3,63.1 234.7,62.9 235,63 C235.4,63.2 235.8,63.6 236,64 C236.1,64.3 235.8,64.8 236,65 C236.2,65.2 236.8,64.8 237,65 C237.2,65.2 237.0,65.7 237,66 C237.0,66.3 237.1,66.7 237,67 C236.8,67.4 236.4,67.8 236,68 C235.7,68.1 235.2,67.8 235,68 C234.8,68.2 235.2,68.8 235,69 C234.8,69.2 234.3,69.0 234,69 C233.7,69.0 233.3,69.0 233,69 C232.7,69.0 232.3,69.0 232,69 C231.7,69.0 231.3,69.0 231,69 C232.7,71.0 235.7,72.8 236,75 C236.3,77.2 234.8,81.1 233,82 C231.2,82.9 227.7,80.7 225,80 C225.0,80.3 225.0,80.7 225,81 C225.0,81.3 225.0,81.7 225,82 C225.0,82.3 225.0,82.7 225,83 C225.0,83.3 225.2,83.8 225,84 C224.8,84.2 224.2,83.8 224,84 C223.8,84.2 224.2,84.8 224,85 C223.8,85.2 223.3,85.0 223,85 C222.7,85.0 222.3,85.0 222,85 C221.7,85.0 221.2,85.2 221,85 C220.8,84.8 221.2,84.2 221,84 C220.8,83.8 220.3,84.0 220,84 C219.7,84.0 219.3,84.1 219,84 C218.6,83.8 218.2,83.4 218,83 C217.9,82.7 218.2,82.2 218,82 C217.8,81.8 217.3,82.1 217,82 C216.6,81.8 216.2,81.4 216,81 C215.9,80.7 216.0,80.3 216,80 C216.0,80.3 216.0,80.7 216,81 C216.0,81.3 216.1,81.7 216,82 C215.8,82.4 215.2,82.6 215,83 C214.9,83.3 215.2,83.8 215,84 C214.8,84.2 214.3,84.0 214,84 C213.7,84.0 213.2,83.8 213,84 C212.8,84.2 213.2,84.8 213,85 C212.8,85.2 212.3,85.0 212,85 C211.7,85.0 211.3,85.1 211,85 C210.6,84.8 210.4,84.2 210,84 C209.7,83.9 209.3,84.0 209,84 C208.7,84.0 208.2,84.2 208,84 C207.8,83.8 208.2,83.2 208,83 C207.8,82.8 207.2,83.2 207,83 C206.8,82.8 207.2,82.2 207,82 C206.8,81.8 206.2,82.2 206,82 C205.8,81.8 206.0,81.3 206,81 C206.0,80.7 206.0,80.3 206,80 C206.0,80.3 206.1,80.7 206,81 C205.8,81.4 205.3,81.7 205,82 C204.7,82.3 204.2,82.6 204,83 C203.9,83.3 204.2,83.8 204,84 C203.8,84.2 203.3,83.9 203,84 C202.6,84.2 202.4,84.8 202,85 C201.7,85.1 201.2,85.2 201,85 C200.8,84.8 201.2,84.2 201,84 C200.8,83.8 200.3,84.0 200,84 C199.7,84.0 199.3,84.1 199,84 C198.6,83.8 198.2,83.4 198,83 C197.9,82.7 198.2,82.2 198,82 C197.8,81.8 197.3,82.1 197,82 C196.6,81.8 196.2,81.4 196,81 C195.9,80.7 196.0,80.3 196,80 C196.0,80.3 196.0,80.7 196,81 C196.0,81.3 196.1,81.7 196,82 C195.8,82.4 195.2,82.6 195,83 C194.9,83.3 195.2,83.8 195,84 C194.8,84.2 194.3,83.9 194,84 C193.6,84.2 193.4,84.8 193,85 C192.7,85.1 192.3,85.0 192,85 C191.7,85.0 191.3,85.1 191,85 C190.6,84.8 190.4,84.2 190,84 C189.7,83.9 189.3,84.0 189,84 C188.7,84.0 188.2,84.2 188,84 C187.8,83.8 188.1,83.3 188,83 C187.8,82.6 187.4,82.2 187,82 C186.7,81.9 186.2,82.2 186,82 C185.8,81.8 186.0,81.3 186,81 C186.0,80.7 186.0,80.3 186,80 C186.0,80.3 186.2,80.8 186,81 C185.8,81.2 185.2,80.8 185,81 C184.8,81.2 185.1,81.7 185,82 C184.8,82.4 184.3,82.7 184,83 C183.7,83.3 183.4,83.8 183,84 C182.7,84.1 182.3,84.0 182,84 C181.7,84.0 181.2,83.8 181,84 C180.8,84.2 181.2,84.8 181,85 C180.8,85.2 180.3,85.0 180,85 C179.7,85.0 179.3,85.0 179,85 C178.7,85.0 178.2,85.2 178,85 C177.8,84.8 178.2,84.2 178,84 C177.8,83.8 177.2,84.2 177,84 C176.8,83.8 177.1,83.3 177,83 C176.8,82.6 176.2,82.4 176,82 C175.9,81.7 176.0,81.3 176,81 C176.0,80.7 176.0,80.3 176,80 C175.7,80.3 175.4,80.8 175,81 C174.7,81.1 174.2,80.8 174,81 C173.8,81.2 174.2,81.8 174,82 C173.8,82.2 173.3,82.0 173,82 C172.7,82.0 172.3,82.0 172,82 C171.7,82.0 171.3,82.0 171,82 C170.7,82.0 170.3,82.1 170,82 C169.6,81.8 169.2,81.4 169,81 C168.9,80.7 169.0,80.3 169,80 C169.0,79.7 169.0,79.3 169,79 C169.0,78.7 168.8,78.2 169,78 C169.2,77.8 169.8,78.2 170,78 C170.2,77.8 169.9,77.3 170,77 C170.2,76.6 170.7,76.3 171,76 C170.7,76.0 170.3,76.1 170,76 C169.6,75.8 169.4,75.2 169,75 C168.7,74.9 168.3,75.0 168,75 C167.7,75.0 167.2,75.2 167,75 C166.8,74.8 167.2,74.2 167,74 C166.8,73.8 166.2,74.2 166,74 C165.8,73.8 166.2,73.2 166,73 C165.8,72.8 165.2,73.2 165,73 C164.8,72.8 165.0,72.3 165,72 C165.0,71.7 165.0,71.3 165,71 C165.0,70.7 164.8,70.2 165,70 C165.2,69.8 165.8,70.2 166,70 C166.2,69.8 165.8,69.2 166,69 C166.2,68.8 166.7,69.0 167,69 C167.3,69.0 167.7,69.0 168,69 C168.3,69.0 168.7,69.0 169,69 C169.3,69.0 169.7,69.0 170,69 C170.3,69.0 170.7,69.0 171,69 C170.7,69.0 170.3,69.0 170,69 C169.7,69.0 169.3,69.1 169,69 C168.6,68.8 168.4,68.2 168,68 C167.7,67.9 167.2,68.2 167,68 C166.8,67.8 167.2,67.2 167,67 C166.8,66.8 166.3,67.1 166,67 C165.6,66.8 165.2,66.4 165,66 C164.9,65.7 165.0,65.3 165,65 C165.0,64.7 165.0,64.3 165,64 C165.0,63.7 164.8,63.2 165,63 C165.2,62.8 165.8,63.2 166,63 C166.2,62.8 165.8,62.2 166,62 C166.2,61.8 166.7,62.0 167,62 C167.3,62.0 167.7,62.0 168,62 C168.3,62.0 168.7,62.1 169,62 C169.4,61.8 169.6,61.2 170,61 C170.3,60.9 170.7,61.0 171,61 C173.0,59.7 174.7,57.6 177,57 C179.6,56.4 183.0,57.7 186,58Z" fill="#777777" stroke="none" stroke-width="0" fill-rule="evenodd" data-shape="16"/>
      <path d="M176,58 C176.3,57.7 176.8,57.4 177,57 C177.1,56.7 177.0,56.3 177,56 C177.0,55.7 176.8,55.2 177,55 C177.2,54.8 177.8,55.2 178,55 C178.2,54.8 177.8,54.2 178,54 C178.2,53.8 178.7,54.1 179,54 C179.4,53.8 179.6,53.2 180,53 C180.3,52.9 180.7,53.0 181,53 C181.3,53.0 181.7,53.0 182,53 C182.3,53.0 182.7,52.9 183,53 C183.4,53.2 183.7,53.7 184,54 C184.3,54.3 184.8,54.6 185,55 C185.1,55.3 184.9,55.7 185,56 C185.2,56.4 185.8,56.6 186,57 C186.1,57.3 186.0,57.7 186,58 C186.0,57.7 186.0,57.3 186,57 C186.0,56.7 185.9,56.3 186,56 C186.2,55.6 186.6,55.2 187,55 C187.3,54.9 187.8,55.2 188,55 C188.2,54.8 187.8,54.2 188,54 C188.2,53.8 188.7,54.0 189,54 C189.3,54.0 189.8,54.2 190,54 C190.2,53.8 189.8,53.2 190,53 C190.2,52.8 190.7,53.0 191,53 C191.3,53.0 191.7,53.0 192,53 C192.3,53.0 192.7,53.0 193,53 C193.3,53.0 193.8,52.8 194,53 C194.2,53.2 193.8,53.8 194,54 C194.2,54.2 194.8,53.8 195,54 C195.2,54.2 194.8,54.8 195,55 C195.2,55.2 195.8,54.8 196,55 C196.2,55.2 196.0,55.7 196,56 C196.0,56.3 196.0,56.7 196,57 C196.0,57.3 196.0,57.7 196,58 C196.0,57.7 195.9,57.3 196,57 C196.2,56.6 196.7,56.3 197,56 C197.3,55.7 197.7,55.3 198,55 C198.3,54.7 198.6,54.2 199,54 C199.3,53.9 199.8,54.2 200,54 C200.2,53.8 199.8,53.2 200,53 C200.2,52.8 200.7,53.0 201,53 C201.3,53.0 201.7,53.0 202,53 C202.3,53.0 202.7,52.9 203,53 C203.4,53.2 203.8,53.6 204,54 C204.1,54.3 203.8,54.8 204,55 C204.2,55.2 204.8,54.8 205,55 C205.2,55.2 204.9,55.7 205,56 C205.2,56.4 205.8,56.6 206,57 C206.1,57.3 206.0,57.7 206,58 C206.0,57.7 206.0,57.3 206,57 C206.0,56.7 205.9,56.3 206,56 C206.2,55.6 206.6,55.2 207,55 C207.3,54.9 207.8,55.2 208,55 C208.2,54.8 207.8,54.2 208,54 C208.2,53.8 208.7,54.1 209,54 C209.4,53.8 209.6,53.2 210,53 C210.3,52.9 210.7,53.0 211,53 C211.3,53.0 211.7,53.0 212,53 C212.3,53.0 212.7,53.0 213,53 C213.3,53.0 213.8,52.8 214,53 C214.2,53.2 213.8,53.8 214,54 C214.2,54.2 214.8,53.8 215,54 C215.2,54.2 214.8,54.8 215,55 C215.2,55.2 215.8,54.8 216,55 C216.2,55.2 216.0,55.7 216,56 C216.0,56.3 216.0,56.7 216,57 C216.0,57.3 216.0,57.7 216,58 C216.0,57.7 215.9,57.3 216,57 C216.2,56.6 216.7,56.3 217,56 C217.3,55.7 217.7,55.3 218,55 C218.3,54.7 218.6,54.2 219,54 C219.3,53.9 219.8,54.2 220,54 C220.2,53.8 219.8,53.2 220,53 C220.2,52.8 220.7,53.0 221,53 C221.3,53.0 221.7,53.0 222,53 C222.3,53.0 222.7,53.0 223,53 C223.3,53.0 223.8,52.8 224,53 C224.2,53.2 223.8,53.8 224,54 C224.2,54.2 224.8,53.8 225,54 C225.2,54.2 225.0,54.7 225,55 C225.0,55.3 225.0,55.7 225,56 C225.0,56.3 225.0,56.7 225,57 C225.0,57.3 225.0,57.7 225,58 C225.3,57.7 225.6,57.2 226,57 C226.3,56.9 226.8,57.2 227,57 C227.2,56.8 226.8,56.2 227,56 C227.2,55.8 227.7,56.0 228,56 C228.3,56.0 228.7,56.0 229,56 C229.3,56.0 229.7,56.0 230,56 C230.3,56.0 230.7,56.0 231,56 C231.3,56.0 231.7,55.9 232,56 C232.4,56.2 232.8,56.6 233,57 C233.1,57.3 233.0,57.7 233,58 C233.0,58.3 233.0,58.7 233,59 C233.0,59.3 233.2,59.8 233,60 C232.8,60.2 232.2,59.8 232,60 C231.8,60.2 232.2,60.8 232,61 C231.8,61.2 231.3,61.0 231,61 C231.3,61.0 231.8,60.8 232,61 C232.2,61.2 231.8,61.8 232,62 C232.2,62.2 232.7,61.9 233,62 C233.4,62.2 233.6,62.8 234,63 C234.3,63.1 234.7,62.9 235,63 C235.4,63.2 235.8,63.6 236,64 C236.1,64.3 235.8,64.8 236,65 C236.2,65.2 236.8,64.8 237,65 C237.2,65.2 237.0,65.7 237,66 C237.0,66.3 237.1,66.7 237,67 C236.8,67.4 236.4,67.8 236,68 C235.7,68.1 235.2,67.8 235,68 C234.8,68.2 235.2,68.8 235,69 C234.8,69.2 234.3,69.0 234,69 C233.7,69.0 233.3,69.0 233,69 C232.7,69.0 232.3,69.0 232,69 C231.7,69.0 231.3,69.0 231,69 C232.7,71.0 235.7,72.8 236,75 C236.3,77.2 234.8,81.1 233,82 C231.2,82.9 227.7,80.7 225,80 C225.0,80.3 225.0,80.7 225,81 C225.0,81.3 225.0,81.7 225,82 C225.0,82.3 225.0,82.7 225,83 C225.0,83.3 225.2,83.8 225,84 C224.8,84.2 224.2,83.8 224,84 C223.8,84.2 224.2,84.8 224,85 C223.8,85.2 223.3,85.0 223,85 C222.7,85.0 222.3,85.0 222,85 C221.7,85.0 221.2,85.2 221,85 C220.8,84.8 221.2,84.2 221,84 C220.8,83.8 220.3,84.0 220,84 C219.7,84.0 219.3,84.1 219,84 C218.6,83.8 218.2,83.4 218,83 C217.9,82.7 218.2,82.2 218,82 C217.8,81.8 217.3,82.1 217,82 C216.6,81.8 216.2,81.4 216,81 C215.9,80.7 216.0,80.3 216,80 C216.0,80.3 216.0,80.7 216,81 C216.0,81.3 216.1,81.7 216,82 C215.8,82.4 215.2,82.6 215,83 C214.9,83.3 215.2,83.8 215,84 C214.8,84.2 214.3,84.0 214,84 C213.7,84.0 213.2,83.8 213,84 C212.8,84.2 213.2,84.8 213,85 C212.8,85.2 212.3,85.0 212,85 C211.7,85.0 211.3,85.1 211,85 C210.6,84.8 210.4,84.2 210,84 C209.7,83.9 209.3,84.0 209,84 C208.7,84.0 208.2,84.2 208,84 C207.8,83.8 208.2,83.2 208,83 C207.8,82.8 207.2,83.2 207,83 C206.8,82.8 207.2,82.2 207,82 C206.8,81.8 206.2,82.2 206,82 C205.8,81.8 206.0,81.3 206,81 C206.0,80.7 206.0,80.3 206,80 C206.0,80.3 206.1,80.7 206,81 C205.8,81.4 205.3,81.7 205,82 C204.7,82.3 204.2,82.6 204,83 C203.9,83.3 204.2,83.8 204,84 C203.8,84.2 203.3,83.9 203,84 C202.6,84.2 202.4,84.8 202,85 C201.7,85.1 201.2,85.2 201,85 C200.8,84.8 201.2,84.2 201,84 C200.8,83.8 200.3,84.0 200,84 C199.7,84.0 199.3,84.1 199,84 C198.6,83.8 198.2,83.4 198,83 C197.9,82.7 198.2,82.2 198,82 C197.8,81.8 197.3,82.1 197,82 C196.6,81.8 196.2,81.4 196,81 C195.9,80.7 196.0,80.3 196,80 C196.0,80.3 196.0,80.7 196,81 C196.0,81.3 196.1,81.7 196,82 C195.8,82.4 195.2,82.6 195,83 C194.9,83.3 195.2,83.8 195,84 C194.8,84.2 194.3,83.9 194,84 C193.6,84.2 193.4,84.8 193,85 C192.7,85.1 192.3,85.0 192,85 C191.7,85.0 191.3,85.1 191,85 C190.6,84.8 190.4,84.2 190,84 C189.7,83.9 189.3,84.0 189,84 C188.7,84.0 188.2,84.2 188,84 C187.8,83.8 188.1,83.3 188,83 C187.8,82.6 187.4,82.2 187,82 C186.7,81.9 186.2,82.2 186,82 C185.8,81.8 186.0,81.3 186,81 C186.0,80.7 186.0,80.3 186,80 C186.0,80.3 186.2,80.8 186,81 C185.8,81.2 185.2,80.8 185,81 C184.8,81.2 185.1,81.7 185,82 C184.8,82.4 184.3,82.7 184,83 C183.7,83.3 183.4,83.8 183,84 C182.7,84.1 182.3,84.0 182,84 C181.7,84.0 181.2,83.8 181,84 C180.8,84.2 181.2,84.8 181,85 C180.8,85.2 180.3,85.0 180,85 C179.7,85.0 179.3,85.0 179,85 C178.7,85.0 178.2,85.2 178,85 C177.8,84.8 178.2,84.2 178,84 C177.8,83.8 177.2,84.2 177,84 C176.8,83.8 177.1,83.3 177,83 C176.8,82.6 176.2,82.4 176,82 C175.9,81.7 176.0,81.3 176,81 C176.0,80.7 176.0,80.3 176,80 C175.7,80.3 175.4,80.8 175,81 C174.7,81.1 174.2,80.8 174,81 C173.8,81.2 174.2,81.8 174,82 C173.8,82.2 173.3,82.0 173,82 C172.7,82.0 172.3,82.0 172,82 C171.7,82.0 171.3,82.0 171,82 C170.7,82.0 170.3,82.1 170,82 C169.6,81.8 169.2,81.4 169,81 C168.9,80.7 169.0,80.3 169,80 C169.0,79.7 169.0,79.3 169,79 C169.0,78.7 168.8,78.2 169,78 C169.2,77.8 169.8,78.2 170,78 C170.2,77.8 169.9,77.3 170,77 C170.2,76.6 170.7,76.3 171,76 C170.7,76.0 170.3,76.1 170,76 C169.6,75.8 169.4,75.2 169,75 C168.7,74.9 168.3,75.0 168,75 C167.7,75.0 167.2,75.2 167,75 C166.8,74.8 167.2,74.2 167,74 C166.8,73.8 166.2,74.2 166,74 C165.8,73.8 166.2,73.2 166,73 C165.8,72.8 165.2,73.2 165,73 C164.8,72.8 165.0,72.3 165,72 C165.0,71.7 165.0,71.3 165,71 C165.0,70.7 164.8,70.2 165,70 C165.2,69.8 165.8,70.2 166,70 C166.2,69.8 165.8,69.2 166,69 C166.2,68.8 166.7,69.0 167,69 C167.3,69.0 167.7,69.0 168,69 C168.3,69.0 168.7,69.0 169,69 C169.3,69.0 169.7,69.0 170,69 C170.3,69.0 170.7,69.0 171,69 C170.7,69.0 170.3,69.0 170,69 C169.7,69.0 169.3,69.1 169,69 C168.6,68.8 168.4,68.2 168,68 C167.7,67.9 167.2,68.2 167,68 C166.8,67.8 167.2,67.2 167,67 C166.8,66.8 166.3,67.1 166,67 C165.6,66.8 165.2,66.4 165,66 C164.9,65.7 165.0,65.3 165,65 C165.0,64.7 165.0,64.3 165,64 C165.0,63.7 164.8,63.2 165,63 C165.2,62.8 165.8,63.2 166,63 C166.2,62.8 165.8,62.2 166,62 C166.2,61.8 166.7,62.0 167,62 C167.3,62.0 167.7,62.0 168,62 C168.3,62.0 168.7,62.1 169,62 C169.4,61.8 169.6,61.2 170,61 C170.3,60.9 170.7,61.0 171,61 C170.7,61.0 170.2,61.2 170,61 C169.8,60.8 170.2,60.2 170,60 C169.8,59.8 169.2,60.2 169,60 C168.8,59.8 169.0,59.3 169,59 C169.0,58.7 169.0,58.3 169,58 C169.0,57.7 169.0,57.3 169,57 C169.0,56.7 168.8,56.2 169,56 C169.2,55.8 169.7,56.0 170,56 C170.3,56.0 170.7,56.0 171,56 C171.3,56.0 171.7,56.0 172,56 C172.3,56.0 172.7,56.0 173,56 C173.3,56.0 173.7,55.9 174,56 C174.4,56.2 174.7,56.7 175,57 C175.3,57.3 175.7,57.7 176,58" fill="none" stroke="#000000" stroke-width="1"/>
      <path d="M172,72 C170.5,73.6 168.1,75.7 166,76 C164.1,76.3 161.6,75.3 160,74 C158.3,72.7 156.4,70.2 156,68 C155.6,65.6 157.0,62.3 158,60 C158.8,58.1 159.5,55.9 161,55 C162.7,54.0 166.0,54.2 168,55 C170.0,55.8 171.8,58.0 173,60 C174.2,62.0 175.3,64.9 175,67 C174.8,68.9 173.4,70.6 172,72Z" fill="#eeeebb" stroke="none" stroke-width="0" fill-rule="evenodd" data-shape="17"/>
      <path d="M172,72 C170.0,73.3 168.1,75.7 166,76 C164.1,76.3 161.6,75.3 160,74 C158.3,72.7 156.4,70.2 156,68 C155.6,65.6 157.0,62.3 158,60 C158.8,58.1 159.5,55.9 161,55 C162.7,54.0 166.0,54.2 168,55 C170.0,55.8 171.8,58.0 173,60 C174.2,62.0 175.3,64.9 175,67 C174.8,68.9 173.0,70.3 172,72" fill="none" stroke="#000000" stroke-width="1"/>
      <path d="M163,63 L163,64 L162,64 L161,64 L161,63 L161,62 L161,61 L162,61 L163,61 L164,62 L164,63Z" fill="#000000" stroke="none" stroke-width="0" fill-rule="evenodd" data-shape="18"/>
      <path d="M163,63 L163,64 L162,64 L161,64 L161,63 L161,62 L161,61 L162,61 L163,61 L164,62 L164,63 L163,63" fill="none" stroke="#000000" stroke-width="1"/>
      <path d="M170,63 L170,64 L169,64 L168,64 L168,63 L168,62 L168,61 L169,61 L170,61 L171,62 L171,63Z" fill="#000000" stroke="none" stroke-width="0" fill-rule="evenodd" data-shape="19"/>
      <path d="M170,63 L170,64 L169,64 L168,64 L168,63 L168,62 L168,61 L169,61 L170,61 L171,62 L171,63 L170,63" fill="none" stroke="#000000" stroke-width="1"/>
      <polygon points="166,52 177,50 172,58 166,52 166,52" fill="#eeeebb" stroke="none" stroke-width="0" fill-rule="evenodd" data-shape="20"/>
      <polyline points="166,52 177,50 172,58 166,52 166,52" fill="none" stroke="#000000" stroke-width="1"/>
      <polygon points="166,52 155,50 159,58 166,52 166,52" fill="#eeeebb" stroke="none" stroke-width="0" fill-rule="evenodd" data-shape="21"/>
      <polyline points="166,52 155,50 159,58 166,52 166,52" fill="none" stroke="#000000" stroke-width="1"/>
      <path d="M166,53 C167.7,53.0 170.0,52.1 171,53 C172.1,54.0 171.7,57.0 172,59 L166,59 L159,59 C159.7,57.0 159.7,53.9 161,53 C162.2,52.2 164.3,53.0 166,53Z" fill="#777777" stroke="none" stroke-width="0" fill-rule="evenodd" data-shape="22"/>
      <path d="M161,53 C161.0,52.7 160.8,52.2 161,52 C161.2,51.8 161.8,52.2 162,52 C162.2,51.8 161.8,51.2 162,51 C162.2,50.8 162.7,51.0 163,51 C163.3,51.0 163.7,51.0 164,51 C164.3,51.0 164.8,50.8 165,51 C165.2,51.2 164.8,51.8 165,52 C165.2,52.2 165.8,51.8 166,52 C166.2,52.2 166.0,52.7 166,53 C167.7,53.0 170.0,52.1 171,53 C172.1,54.0 171.7,57.0 172,59 L166,59 C163.7,59.0 159.8,60.1 159,59 C158.3,58.0 160.3,55.0 161,53" fill="none" stroke="#000000" stroke-width="1"/>
      <path d="M169,73 C167.9,73.9 163.8,73.9 163,73 C162.3,72.1 162.9,68.9 164,68 C165.1,67.1 169.2,67.1 170,68 C170.7,68.9 170.1,72.1 169,73Z" fill="#dd0000" stroke="none" stroke-width="0" fill-rule="evenodd" data-shape="23"/>
      <path d="M169,73 L163,73 C163.3,71.3 162.9,68.9 164,68 C165.1,67.1 168.0,68.0 170,68 L169,73" fill="none" stroke="#000000" stroke-width="1"/>
    </g>
    <g data-mdcr="group" class="mdcr-region">
      <path d="M286,43 C285.1,43.1 284.5,47.6 284,50 C283.5,52.6 283.9,55.8 283,58 C282.2,60.0 280.7,62.0 279,63 C277.3,64.0 274.1,64.4 273,64 C272.5,63.8 272.4,63.0 272,63 C271.2,63.1 268.6,66.7 269,68 C269.4,69.4 272.9,70.7 275,71 C277.0,71.3 279.2,71.0 281,70 C283.0,68.9 284.8,66.2 286,64 C287.1,61.9 287.5,59.4 288,57 C288.5,54.4 289.4,51.4 289,49 C288.6,46.8 286.8,42.9 286,43Z" fill="#a0a0a4" stroke="#000000" stroke-width="1" fill-rule="evenodd" data-shape="24"/>
      <path d="M300,82 L300,107 C301.7,108.3 303.3,111.0 305,111 C306.7,111.0 308.3,108.3 310,107 L310,93 L300,82Z" fill="#a0a0a4" stroke="#000000" stroke-width="1" fill-rule="evenodd" data-shape="25"/>
      <path d="M341,86 L341,106 C341.0,106.3 341.2,106.8 341,107 C340.8,107.2 340.2,106.8 340,107 C339.8,107.2 340.2,107.8 340,108 C339.8,108.2 339.3,108.0 339,108 C338.7,108.0 338.3,107.9 338,108 C337.6,108.2 337.4,108.8 337,109 C336.7,109.1 336.3,109.1 336,109 C335.6,108.8 335.4,108.2 335,108 C334.7,107.9 334.3,108.0 334,108 C333.7,108.0 333.3,108.1 333,108 C332.6,107.8 332.2,107.4 332,107 C331.9,106.7 332.0,106.3 332,106 C332.0,105.7 332.0,105.3 332,105 L332,94 L341,86Z" fill="#a0a0a4" stroke="#000000" stroke-width="1" fill-rule="evenodd" data-shape="26"/>
      <path d="M344,64 C345.0,66.0 345.9,68.0 347,70 C348.2,72.0 349.3,74.7 351,76 C352.4,77.2 354.3,77.3 356,78 C354.7,78.7 353.4,80.1 352,80 C350.4,79.8 348.4,77.5 347,76 C345.7,74.5 345.0,72.7 344,71 L344,64Z" fill="#a0a0a4" stroke="#000000" stroke-width="1" fill-rule="evenodd" data-shape="27"/>
      <path d="M304,93 C306.2,94.9 309.9,95.3 313,96 C316.2,96.7 319.8,97.2 323,97 C326.1,96.8 329.2,96.2 332,95 C334.9,93.8 338.0,92.2 340,90 C342.0,87.8 343.0,84.8 344,82 C345.0,79.1 345.8,76.0 346,73 C346.2,70.0 345.7,66.9 345,64 C344.3,61.2 343.5,58.5 342,56 C340.3,53.2 337.3,50.3 335,48 C333.0,46.0 331.4,44.0 329,43 C326.4,41.9 323.0,41.8 320,42 C317.0,42.2 313.6,42.6 311,44 C308.3,45.5 305.9,48.5 304,51 C302.3,53.2 301.1,55.5 300,58 C298.8,60.8 297.5,64.0 297,67 C296.5,70.0 296.5,73.0 297,76 C297.5,79.0 298.8,82.1 300,85 C301.2,87.8 301.9,91.2 304,93Z" fill="#a0a0a4" stroke="#000000" stroke-width="1" fill-rule="evenodd" data-shape="28"/>
      <path d="M289,60 C290.3,61.7 292.1,63.5 294,64 C295.8,64.5 298.1,64.0 300,63 C302.2,61.9 304.5,59.2 306,57 C307.4,54.9 308.3,52.5 309,50 C309.7,47.5 310.2,44.6 310,42 C309.8,39.6 309.1,37.1 308,35 C306.8,32.8 305.0,30.3 303,29 C301.0,27.7 298.2,26.7 296,27 C293.8,27.3 291.7,29.3 290,31 C288.3,32.7 286.8,34.7 286,37 C285.1,39.4 285.0,42.3 285,45 C285.0,47.7 285.3,50.5 286,53 C286.7,55.5 287.6,58.1 289,60Z" fill="#a0a0a4" stroke="#000000" stroke-width="1" fill-rule="evenodd" data-shape="29"/>
      <path d="M296,61 C297.0,62.9 298.5,65.5 300,66 C301.2,66.4 302.7,65.8 304,65 C305.8,63.9 307.7,61.2 309,59 C310.3,56.8 311.2,54.4 312,52 C312.9,49.5 313.9,46.6 314,44 C314.1,41.6 313.6,39.3 313,37 C312.3,34.6 311.6,31.5 310,30 C308.5,28.6 305.7,27.6 304,28 C302.4,28.4 301.3,30.5 300,32 C298.6,33.7 297.0,35.8 296,38 C294.9,40.4 294.3,43.3 294,46 C293.7,48.6 293.6,51.4 294,54 C294.3,56.4 294.9,59.0 296,61Z" fill="#a0a0a4" stroke="#000000" stroke-width="1" fill-rule="evenodd" data-shape="30"/>
      <path d="M287,47 L288,47 L288,48 L289,48 L290,48 L290,47 L291,46 L291,45 L291,44 L291,43 L290,43 L290,42 L289,42 L288,42 L287,43 L287,44 L287,45 L287,46Z" fill="#000000" stroke="#000000" stroke-width="1" fill-rule="evenodd" data-shape="31"/>
    </g>
  </g>
</svg>