<svg xmlns="http://www.w3.org/2000/svg" xmlns:mdcr="http://sensory.com/mdcr" viewBox="0 0 401 301" width="401" height="301">
  <metadata>
    <mdcr:info xmlns:mdcr="http://sensory.com/mdcr">
      <mdcr:source format="WMF" generator="wmf2svg.js"/>
      <mdcr:bounds left="0" top="0" right="6015" bottom="4515" inch="1440"/>
      <mdcr:records count="16">
        <mdcr:record tag="MDCR-{"/>
        <mdcr:record tag="MDCR-{"/>
        <mdcr:record tag="MDCR-}"/>
        <mdcr:record tag="MDCR-S"/>
        <mdcr:record tag="MDCR-{"/>
        <mdcr:record tag="MDCR-}:"/>
        <mdcr:record tag="MDCR-{"/>
        <mdcr:record tag="MDCR-}"/>
        <mdcr:record tag="MDCR-{"/>
        <mdcr:record tag="MDCR-{"/>
        <mdcr:record tag="MDCR-}"/>
        <mdcr:record tag="MDCR-}"/>
        <mdcr:record tag="MDCR-{"/>
        <mdcr:record tag="MDCR-}"/>
        <mdcr:record tag="MDCR-}"/>
        <mdcr:record tag="MDCR-S"/>
      </mdcr:records>
    </mdcr:info>
  </metadata>
  <g data-mdcr="group" class="mdcr-region">
    <g data-mdcr="group" class="mdcr-region">
      <polygon points="209,273 202,258 213,253 221,273 209,273" fill="#eded00" stroke="#000000" stroke-width="1" fill-rule="evenodd" data-shape="0"/>
      <path d="M173,269 C173.3,265.0 172.0,259.7 174,257 C176.0,254.4 181.2,254.3 185,253 C188.9,251.6 193.1,250.5 197,249 C200.8,247.5 204.5,246.1 208,244 C211.6,241.8 214.8,238.7 218,236 C221.1,233.4 223.7,230.0 227,228 C230.1,226.1 233.7,225.3 237,224 L240,250 L173,269Z" fill="#ba7c4c" stroke="#000000" stroke-width="1" fill-rule="evenodd" data-shape="1"/>
    </g>
    <g data-mdcr="group" class="mdcr-region">
      <path d="M14,55 C15.3,53.0 16.4,50.5 18,49 C19.4,47.6 21.2,46.7 23,46 C24.8,45.3 26.9,45.0 29,45 C31.2,45.0 33.7,45.7 36,46 C33.7,46.3 31.4,46.5 29,47 C26.4,47.5 23.4,47.7 21,49 C18.4,50.3 16.3,53.0 14,55Z" fill="#000000" stroke="#000000" stroke-width="1" fill-rule="evenodd" data-shape="2"/>
      <path d="M41,79 C39.4,80.8 37.3,82.3 35,83 C32.6,83.7 29.4,83.4 27,83 C24.8,82.6 22.8,82.2 21,81 C19.0,79.7 17.2,77.3 16,75 C14.8,72.6 14.2,69.7 14,67 C13.8,64.3 14.2,61.5 15,59 C15.8,56.5 17.3,53.9 19,52 C20.6,50.2 22.8,48.8 25,48 C27.2,47.2 29.7,46.7 32,47 C34.4,47.3 37.0,48.5 39,50 C41.0,51.5 42.8,53.7 44,56 C45.2,58.4 45.8,61.3 46,64 C46.2,66.7 45.8,69.5 45,72 C44.2,74.5 42.7,77.1 41,79Z" fill="#000000" stroke="#000000" stroke-width="1" fill-rule="evenodd" data-shape="3"/>
      <path d="M38,75 C36.5,76.7 34.1,78.4 32,79 C30.1,79.6 27.9,79.5 26,79 C23.9,78.5 21.6,77.5 20,76 C18.3,74.5 16.7,72.3 16,70 C15.3,67.6 15.5,64.5 16,62 C16.5,59.5 17.5,56.8 19,55 C20.5,53.2 22.8,51.8 25,51 C27.2,50.2 29.8,49.5 32,50 C34.2,50.5 36.5,52.2 38,54 C39.5,55.8 40.5,58.5 41,61 C41.5,63.5 41.6,66.6 41,69 C40.5,71.2 39.5,73.4 38,75Z" fill="#000000" stroke="#000000" stroke-width="1" fill-rule="evenodd" data-shape="4"/>
      <polygon points="28,51 31,80 28,51" fill="#000000" stroke="#000000" stroke-width="1" fill-rule="evenodd" data-shape="5"/>
      <polygon points="16,67 42,62 16,67" fill="#000000" stroke="#000000" stroke-width="1" fill-rule="evenodd" data-shape="6"/>
      <polygon points="36,52 21,76 36,52" fill="#000000" stroke="#000000" stroke-width="1" fill-rule="evenodd" data-shape="7"/>
      <polygon points="19,56 40,74 19,56" fill="#000000" stroke="#000000" stroke-width="1" fill-rule="evenodd" data-shape="8"/>
      <polygon points="31,50 25,79 31,50" fill="#000000" stroke="#000000" stroke-width="1" fill-rule="evenodd" data-shape="9"/>
      <polygon points="17,71 39,56 17,71" fill="#000000" stroke="#000000" stroke-width="1" fill-rule="evenodd" data-shape="10"/>
      <polygon points="18,61 43,68 18,61" fill="#000000" stroke="#000000" stroke-width="1" fill-rule="evenodd" data-shape="11"/>
      <polygon points="23,53 36,78 23,53" fill="#000000" stroke="#000000" stroke-width="1" fill-rule="evenodd" data-shape="12"/>
      <path d="M31,66 L30,67 L29,67 L28,67 L28,66 L27,66 L27,65 L27,64 L27,63 L27,62 L28,62 L28,61 L29,61 L30,61 L31,61 L31,62 L32,63 L32,64 L32,65Z" fill="#000000" stroke="#000000" stroke-width="1" fill-rule="evenodd" data-shape="13"/>
      <path d="M30,65 L46,31 L44,30 L28,64 C28.0,64.3 28.0,64.7 28,65 C28.0,65.3 27.8,65.8 28,66 C28.2,66.2 28.7,66.1 29,66 C29.4,65.8 29.7,65.3 30,65Z" fill="#000000" stroke="#000000" stroke-width="1" fill-rule="evenodd" data-shape="14"/>
      <path d="M89,80 C87.4,81.8 85.2,83.2 83,84 C80.8,84.8 78.3,85.3 76,85 C73.6,84.7 71.0,83.6 69,82 C66.9,80.3 65.2,77.4 64,75 C62.9,72.8 62.2,70.4 62,68 C61.8,65.4 62.2,62.5 63,60 C63.8,57.5 65.4,54.9 67,53 C68.4,51.3 70.0,49.8 72,49 C74.2,48.1 77.5,47.6 80,48 C82.5,48.3 85.0,49.4 87,51 C89.1,52.7 90.8,55.6 92,58 C93.1,60.2 93.8,62.6 94,65 C94.2,67.6 93.8,70.5 93,73 C92.2,75.5 90.7,78.1 89,80Z" fill="#000000" stroke="#000000" stroke-width="1" fill-rule="evenodd" data-shape="15"/>
      <path d="M87,76 C85.6,77.7 83.9,79.3 82,80 C80.0,80.7 77.2,80.5 75,80 C72.9,79.5 70.6,78.5 69,77 C67.3,75.5 65.7,73.3 65,71 C64.3,68.6 64.5,65.5 65,63 C65.5,60.5 66.5,57.8 68,56 C69.5,54.2 71.8,52.8 74,52 C76.2,51.2 78.8,50.5 81,51 C83.2,51.5 85.5,53.2 87,55 C88.5,56.8 89.3,59.6 90,62 C90.6,64.3 91.4,66.7 91,69 C90.5,71.4 88.6,74.1 87,76Z" fill="#000000" stroke="#000000" stroke-width="1" fill-rule="evenodd" data-shape="16"/>
      <polygon points="76,53 79,82 76,53" fill="#000000" stroke="#000000" stroke-width="1" fill-rule="evenodd" data-shape="17"/>
      <polygon points="64,69 90,64 64,69" fill="#000000" stroke="#000000" stroke-width="1" fill-rule="evenodd" data-shape="18"/>
      <polygon points="85,54 70,78 85,54" fill="#000000" stroke="#000000" stroke-width="1" fill-rule="evenodd" data-shape="19"/>
      <polygon points="68,57 89,75 68,57" fill="#000000" stroke="#000000" stroke-width="1" fill-rule="evenodd" data-shape="20"/>
      <polygon points="80,52 74,81 80,52" fill="#000000" stroke="#000000" stroke-width="1" fill-rule="evenodd" data-shape="21"/>
      <polygon points="66,73 88,58 66,73" fill="#000000" stroke="#000000" stroke-width="1" fill-rule="evenodd" data-shape="22"/>
      <polygon points="66,62 91,69 66,62" fill="#000000" stroke="#000000" stroke-width="1" fill-rule="evenodd" data-shape="23"/>
      <polygon points="72,54 85,79 72,54" fill="#000000" stroke="#000000" stroke-width="1" fill-rule="evenodd" data-shape="24"/>
      <path d="M79,68 L78,69 L77,69 L76,69 L76,68 L75,68 L75,67 L75,66 L75,65 L75,64 L76,64 L76,63 L77,63 L78,63 L79,63 L79,64 L80,65 L80,66 L80,67Z" fill="#000000" stroke="#000000" stroke-width="1" fill-rule="evenodd" data-shape="25"/>
      <polygon points="79,65 69,40 66,41 78,66 79,65" fill="#000000" stroke="#000000" stroke-width="1" fill-rule="evenodd" data-shape="26"/>
      <polygon points="38,48 69,49 68,46 39,46 38,48" fill="#000000" stroke="#000000" stroke-width="1" fill-rule="evenodd" data-shape="27"/>
      <path d="M39,28 L47,33 C47.0,33.3 46.8,33.8 47,34 C47.2,34.2 47.8,33.8 48,34 C48.2,34.2 48.1,34.7 48,35 C47.8,35.4 47.2,35.6 47,36 C46.9,36.3 47.2,36.8 47,37 C46.8,37.2 46.2,36.8 46,37 C45.8,37.2 46.2,37.8 46,38 C45.8,38.2 45.2,37.8 45,38 C44.8,38.2 45.2,38.8 45,39 C44.8,39.2 44.2,38.8 44,39 C43.8,39.2 44.2,39.8 44,40 C43.8,40.2 43.3,40.0 43,40 L46,42 C46.0,41.7 45.8,41.2 46,41 C46.2,40.8 46.8,41.2 47,41 C47.2,40.8 46.9,40.3 47,40 C47.2,39.6 47.7,39.3 48,39 C48.3,38.7 48.7,38.3 49,38 C49.3,37.7 49.7,37.3 50,37 C50.3,36.7 50.8,36.4 51,36 C51.1,35.7 51.0,35.3 51,35 C51.0,34.7 51.0,34.3 51,34 C51.0,33.7 51.0,33.3 51,33 C51.0,32.7 51.0,32.3 51,32 L38,25 L35,32 C35.7,32.0 36.4,32.0 37,32 C37.4,32.0 37.8,32.2 38,32 C38.2,31.8 37.8,31.2 38,31 C38.2,30.8 38.8,31.2 39,31 C39.2,30.8 39.0,30.3 39,30 C39.0,29.7 39.0,29.3 39,29 C39.0,28.7 39.0,28.3 39,28Z" fill="#000000" stroke="#000000" stroke-width="1" fill-rule="evenodd" data-shape="28"/>
      <polygon points="45,32 46,29 44,28 43,31 45,32" fill="#000000" stroke="#000000" stroke-width="1" fill-rule="evenodd" data-shape="29"/>
      <path d="M58,43 L74,39 L73,33 C71.3,34.0 69.8,35.0 68,36 C66.1,37.0 63.7,37.8 62,39 C60.4,40.1 59.3,41.7 58,43Z" fill="#000000" stroke="none" stroke-width="0" fill-rule="evenodd" data-shape="30"/>
      <path d="M14,55 C15.3,53.0 16.4,50.5 18,49 C19.4,47.6 21.2,46.7 23,46 C24.8,45.3 26.9,45.0 29,45 C31.2,45.0 33.7,45.7 36,46 C33.7,46.3 31.4,46.5 29,47 C26.4,47.5 23.4,47.7 21,49 C18.4,50.3 16.3,53.0 14,55Z" fill="#eded00" stroke="#000000" stroke-width="1" fill-rule="evenodd" data-shape="31"/>
      <path d="M41,79 C39.4,80.8 37.3,82.3 35,83 C32.6,83.7 29.4,83.4 27,83 C24.8,82.6 22.8,82.2 21,81 C19.0,79.7 17.2,77.3 16,75 C14.8,72.6 14.2,69.7 14,67 C13.8,64.3 14.2,61.5 15,59 C15.8,56.5 17.3,53.9 19,52 C20.6,50.2 22.8,48.8 25,48 C27.2,47.2 29.7,46.7 32,47 C34.4,47.3 37.0,48.5 39,50 C41.0,51.5 42.8,53.7 44,56 C45.2,58.4 45.8,61.3 46,64 C46.2,66.7 45.8,69.5 45,72 C44.2,74.5 42.7,77.1 41,79Z" fill="#545454" stroke="#000000" stroke-width="1" fill-rule="evenodd" data-shape="32"/>
      <path d="M38,75 C36.5,76.7 34.1,78.4 32,79 C30.1,79.6 27.9,79.5 26,79 C23.9,78.5 21.6,77.5 20,76 C18.3,74.5 16.7,72.3 16,70 C15.3,67.6 15.5,64.5 16,62 C16.5,59.5 17.5,56.8 19,55 C20.5,53.2 22.8,51.8 25,51 C27.2,50.2 29.8,49.5 32,50 C34.2,50.5 36.5,52.2 38,54 C39.5,55.8 40.5,58.5 41,61 C41.5,63.5 41.6,66.6 41,69 C40.5,71.2 39.5,73.4 38,75Z" fill="#ffffff" stroke="#000000" stroke-width="1" fill-rule="evenodd" data-shape="33"/>
      <polygon points="28,51 31,80 28,51" fill="#545454" stroke="#000000" stroke-width="1" fill-rule="evenodd" data-shape="34"/>
      <polygon points="16,67 42,62 16,67" fill="#545454" stroke="#000000" stroke-width="1" fill-rule="evenodd" data-shape="35"/>
      <polygon points="36,52 21,76 36,52" fill="#545454" stroke="#000000" stroke-width="1" fill-rule="evenodd" data-shape="36"/>
      <polygon points="19,56 40,74 19,56" fill="#545454" stroke="#000000" stroke-width="1" fill-rule="evenodd" data-shape="37"/>
      <polygon points="31,50 25,79 31,50" fill="#545454" stroke="#000000" stroke-width="1" fill-rule="evenodd" data-shape="38"/>
      <polygon points="17,71 39,56 17,71" fill="#545454" stroke="#000000" stroke-width="1" fill-rule="evenodd" data-shape="39"/>
      <polygon points="18,61 43,68 18,61" fill="#545454" stroke="#000000" stroke-width="1" fill-rule="evenodd" data-shape="40"/>
      <polygon points="23,53 36,78 23,53" fill="#545454" stroke="#000000" stroke-width="1" fill-rule="evenodd" data-shape="41"/>
      <path d="M31,66 L30,67 L29,67 L28,67 L28,66 L27,66 L27,65 L27,64 L27,63 L27,62 L28,62 L28,61 L29,61 L30,61 L31,61 L31,62 L32,63 L32,64 L32,65Z" fill="#545454" stroke="#000000" stroke-width="1" fill-rule="evenodd" data-shape="42"/>
      <path d="M30,65 L46,31 L44,30 L28,64 C28.0,64.3 28.0,64.7 28,65 C28.0,65.3 27.8,65.8 28,66 C28.2,66.2 28.7,66.1 29,66 C29.4,65.8 29.7,65.3 30,65Z" fill="#eded00" stroke="#000000" stroke-width="1" fill-rule="evenodd" data-shape="43"/>
      <path d="M89,80 C87.4,81.8 85.2,83.2 83,84 C80.8,84.8 78.3,85.3 76,85 C73.6,84.7 71.0,83.6 69,82 C66.9,80.3 65.2,77.4 64,75 C62.9,72.8 62.2,70.4 62,68 C61.8,65.4 62.2,62.5 63,60 C63.8,57.5 65.4,54.9 67,53 C68.4,51.3 70.0,49.8 72,49 C74.2,48.1 77.5,47.6 80,48 C82.5,48.3 85.0,49.4 87,51 C89.1,52.7 90.8,55.6 92,58 C93.1,60.2 93.8,62.6 94,65 C94.2,67.6 93.8,70.5 93,73 C92.2,75.5 90.7,78.1 89,80Z" fill="#545454" stroke="#000000" stroke-width="1" fill-rule="evenodd" data-shape="44"/>
      <path d="M87,76 C85.6,77.7 83.9,79.3 82,80 C80.0,80.7 77.2,80.5 75,80 C72.9,79.5 70.6,78.5 69,77 C67.3,75.5 65.7,73.3 65,71 C64.3,68.6 64.5,65.5 65,63 C65.5,60.5 66.5,57.8 68,56 C69.5,54.2 71.8,52.8 74,52 C76.2,51.2 78.8,50.5 81,51 C83.2,51.5 85.5,53.2 87,55 C88.5,56.8 89.3,59.6 90,62 C90.6,64.3 91.4,66.7 91,69 C90.5,71.4 88.6,74.1 87,76Z" fill="#ffffff" stroke="#000000" stroke-width="1" fill-rule="evenodd" data-shape="45"/>
      <polygon points="76,53 79,82 76,53" fill="#545454" stroke="#000000" stroke-width="1" fill-rule="evenodd" data-shape="46"/>
      <polygon points="64,69 90,64 64,69" fill="#545454" stroke="#000000" stroke-width="1" fill-rule="evenodd" data-shape="47"/>
      <polygon points="85,54 70,78 85,54" fill="#545454" stroke="#000000" stroke-width="1" fill-rule="evenodd" data-shape="48"/>
      <polygon points="68,57 89,75 68,57" fill="#545454" stroke="#000000" stroke-width="1" fill-rule="evenodd" data-shape="49"/>
      <polygon points="80,52 74,81 80,52" fill="#545454" stroke="#000000" stroke-width="1" fill-rule="evenodd" data-shape="50"/>
      <polygon points="66,73 88,58 66,73" fill="#545454" stroke="#000000" stroke-width="1" fill-rule="evenodd" data-shape="51"/>
      <polygon points="66,62 91,69 66,62" fill="#545454" stroke="#000000" stroke-width="1" fill-rule="evenodd" data-shape="52"/>
      <polygon points="72,54 85,79 72,54" fill="#545454" stroke="#000000" stroke-width="1" fill-rule="evenodd" data-shape="53"/>
      <path d="M79,68 L78,69 L77,69 L76,69 L76,68 L75,68 L75,67 L75,66 L75,65 L75,64 L76,64 L76,63 L77,63 L78,63 L79,63 L79,64 L80,65 L80,66 L80,67Z" fill="#545454" stroke="#000000" stroke-width="1" fill-rule="evenodd" data-shape="54"/>
      <polygon points="79,65 69,40 66,41 78,66 79,65" fill="#eded00" stroke="#000000" stroke-width="1" fill-rule="evenodd" data-shape="55"/>
      <polygon points="38,48 69,49 68,46 39,46 38,48" fill="#eded00" stroke="#000000" stroke-width="1" fill-rule="evenodd" data-shape="56"/>
      <path d="M39,28 L47,33 C47.0,33.3 46.8,33.8 47,34 C47.2,34.2 47.8,33.8 48,34 C48.2,34.2 48.1,34.7 48,35 C47.8,35.4 47.2,35.6 47,36 C46.9,36.3 47.2,36.8 47,37 C46.8,37.2 46.2,36.8 46,37 C45.8,37.2 46.2,37.8 46,38 C45.8,38.2 45.2,37.8 45,38 C44.8,38.2 45.2,38.8 45,39 C44.8,39.2 44.2,38.8 44,39 C43.8,39.2 44.2,39.8 44,40 C43.8,40.2 43.3,40.0 43,40 L46,42 C46.0,41.7 45.8,41.2 46,41 C46.2,40.8 46.8,41.2 47,41 C47.2,40.8 46.9,40.3 47,40 C47.2,39.6 47.7,39.3 48,39 C48.3,38.7 48.7,38.3 49,38 C49.3,37.7 49.7,37.3 50,37 C50.3,36.7 50.8,36.4 51,36 C51.1,35.7 51.0,35.3 51,35 C51.0,34.7 51.0,34.3 51,34 C51.0,33.7 51.0,33.3 51,33 C51.0,32.7 51.0,32.3 51,32 L38,25 L35,32 C35.7,32.0 36.4,32.0 37,32 C37.4,32.0 37.8,32.2 38,32 C38.2,31.8 37.8,31.2 38,31 C38.2,30.8 38.8,31.2 39,31 C39.2,30.8 39.0,30.3 39,30 C39.0,29.7 39.0,29.3 39,29 C39.0,28.7 39.0,28.3 39,28Z" fill="#dd0000" stroke="#000000" stroke-width="1" fill-rule="evenodd" data-shape="57"/>
      <polygon points="45,32 46,29 44,28 43,31 45,32" fill="#999999" stroke="#000000" stroke-width="1" fill-rule="evenodd" data-shape="58"/>
      <path d="M58,43 L74,39 L73,33 C71.3,34.0 69.8,35.0 68,36 C66.1,37.0 63.7,37.8 62,39 C60.4,40.1 59.3,41.7 58,43Z" fill="#ba7c4c" stroke="none" stroke-width="0" fill-rule="evenodd" data-shape="59"/>
      <g data-mdcr="group" class="mdcr-region">
        <path d="M140,54 L139,36 L139,35 L139,34 L139,33 L140,33 L141,33 L141,34 L141,35 L142,36 L142,53Z" fill="#808000" stroke="#000000" stroke-width="1" fill-rule="evenodd" data-shape="60"/>
        <path d="M142,52 L142,35 L142,34 L142,33 L143,33 L143,32 L144,32 L144,33 L144,34 L145,35 L145,36 L144,53Z" fill="#808000" stroke="#000000" stroke-width="1" fill-rule="evenodd" data-shape="61"/>
        <path d="M139,45 L135,37 L135,36 L135,35 L135,34 L135,33 L136,33 L137,33 L137,34 L138,34 L138,35Z" fill="#808000" stroke="#000000" stroke-width="1" fill-rule="evenodd" data-shape="62"/>
        <path d="M137,84 C135.7,85.7 132.8,87.4 131,87 C129.1,86.6 126.8,83.3 126,81 C125.2,78.7 125.3,75.4 126,73 C126.7,70.7 128.2,67.8 130,67 C131.6,66.3 134.5,66.8 136,68 C137.7,69.4 138.8,73.3 139,76 C139.2,78.6 138.5,82.2 137,84Z" fill="#000000" stroke="#000000" stroke-width="1" fill-rule="evenodd" data-shape="63"/>
        <path d="M184,85 C182.7,86.7 179.6,88.4 178,88 C176.3,87.5 174.8,84.3 174,82 C173.1,79.6 172.4,76.4 173,74 C173.5,71.7 175.2,68.8 177,68 C178.8,67.2 182.5,67.6 184,69 C185.6,70.5 186.0,74.3 186,77 C186.0,79.7 185.5,83.2 184,85Z" fill="#000000" stroke="#000000" stroke-width="1" fill-rule="evenodd" data-shape="64"/>
        <path d="M141,76 L170,76 C170.3,75.7 170.7,75.3 171,75 C171.3,74.7 171.8,74.4 172,74 C172.1,73.7 171.9,73.3 172,73 C172.2,72.6 172.6,72.2 173,72 C173.3,71.9 173.8,72.2 174,72 C174.2,71.8 173.8,71.2 174,71 C174.2,70.8 174.7,71.1 175,71 C175.4,70.8 175.6,70.2 176,70 C176.3,69.9 176.7,70.1 177,70 C177.4,69.8 177.6,69.2 178,69 C178.3,68.9 178.7,69.0 179,69 C179.3,69.0 179.7,68.9 180,69 C180.4,69.2 180.6,69.8 181,70 C181.3,70.1 181.7,69.9 182,70 C182.4,70.2 182.6,70.8 183,71 C183.3,71.1 183.7,70.9 184,71 C184.4,71.2 184.7,71.7 185,72 C185.3,72.3 185.8,72.6 186,73 C186.1,73.3 185.8,73.8 186,74 C186.2,74.2 186.8,73.8 187,74 C187.2,74.2 187.0,74.7 187,75 C187.0,75.3 186.9,75.7 187,76 C187.2,76.4 187.7,76.7 188,77 L200,76 C200.3,75.7 200.8,75.4 201,75 C201.1,74.7 201.0,74.3 201,74 C201.0,73.7 201.0,73.4 201,73 C201.0,72.4 201.0,71.7 201,71 C201.0,70.3 201.2,69.5 201,69 C200.8,68.6 200.2,68.4 200,68 C199.8,67.5 200.2,66.6 200,66 C199.8,65.3 199.2,64.7 199,64 C198.8,63.4 199.2,62.5 199,62 C198.8,61.6 198.3,61.4 198,61 C197.6,60.5 197.4,59.5 197,59 C196.7,58.6 196.3,58.3 196,58 C195.7,57.7 195.3,57.3 195,57 C194.7,56.7 194.3,56.3 194,56 C193.7,55.7 193.4,55.2 193,55 C192.5,54.8 191.7,55.0 191,55 L175,51 L173,45 L171,50 L140,51 L139,42 C134.7,44.7 129.6,46.7 126,50 C122.6,53.1 119.0,56.9 118,61 C117.0,65.2 119.3,70.3 120,75 C123.7,72.7 127.5,67.8 131,68 C134.5,68.2 137.7,73.3 141,76Z" fill="#000000" stroke="#000000" stroke-width="1" fill-rule="evenodd" data-shape="65"/>
        <polygon points="173,45 169,30 168,31 172,50 173,45" fill="#000000" stroke="#000000" stroke-width="1" fill-rule="evenodd" data-shape="66"/>
        <polygon points="200,68 203,68 203,76 200,76 200,68" fill="#000000" stroke="#000000" stroke-width="1" fill-rule="evenodd" data-shape="67"/>
        <polygon points="115,66 119,66 119,75 115,75 115,66" fill="#000000" stroke="none" stroke-width="0" fill-rule="evenodd" data-shape="68"/>
        <path d="M140,54 L139,36 L139,35 L139,34 L139,33 L140,33 L141,33 L141,34 L141,35 L142,36 L142,53Z" fill="#808000" stroke="#000000" stroke-width="1" fill-rule="evenodd" data-shape="69"/>
        <path d="M142,52 L142,35 L142,34 L142,33 L143,33 L143,32 L144,32 L144,33 L144,34 L145,35 L145,36 L144,53Z" fill="#808000" stroke="#000000" stroke-width="1" fill-rule="evenodd" data-shape="70"/>
        <path d="M139,45 L135,37 L135,36 L135,35 L135,34 L135,33 L136,33 L137,33 L137,34 L138,34 L138,35Z" fill="#808000" stroke="#000000" stroke-width="1" fill-rule="evenodd" data-shape="71"/>
        <path d="M137,84 C135.7,85.7 132.8,87.4 131,87 C129.1,86.6 126.8,83.3 126,81 C125.2,78.7 125.3,75.4 126,73 C126.7,70.7 128.2,67.8 130,67 C131.6,66.3 134.5,66.8 136,68 C137.7,69.4 138.8,73.3 139,76 C139.2,78.6 138.5,82.2 137,84Z" fill="#333333" stroke="#000000" stroke-width="1" fill-rule="evenodd" data-shape="72"/>
        <path d="M133,80 L133,81 L132,81 L132,82 L131,82 L130,82 L130,81 L129,81 L129,80 L128,79 L128,77 L128,76 L128,75 L128,74 L128,73 L129,72 L130,71 L131,71 L132,71 L132,72 L133,72 L133,73 L134,74 L134,75 L134,76 L134,77 L134,79 L133,79Z" fill="#eded00" stroke="#000000" stroke-width="1" fill-rule="evenodd" data-shape="73"/>
        <path d="M184,85 C182.7,86.7 179.6,88.4 178,88 C176.3,87.5 174.8,84.3 174,82 C173.1,79.6 172.4,76.4 173,74 C173.5,71.7 175.2,68.8 177,68 C178.8,67.2 182.5,67.6 184,69 C185.6,70.5 186.0,74.3 186,77 C186.0,79.7 185.5,83.2 184,85Z" fill="#333333" stroke="#000000" stroke-width="1" fill-rule="evenodd" data-shape="74"/>
        <path d="M181,80 L181,81 L180,81 L180,82 L179,82 L178,82 L178,81 L177,81 L177,80 L176,80 L176,79 L176,78 L176,77 L176,76 L176,75 L176,74 L177,73 L178,72 L179,72 L180,72 L180,73 L181,73 L181,74 L182,75 L182,76 L182,77 L182,78 L182,79Z" fill="#eded00" stroke="#000000" stroke-width="1" fill-rule="evenodd" data-shape="75"/>
        <path d="M141,76 L170,76 C170.3,75.7 170.7,75.3 171,75 C171.3,74.7 171.8,74.4 172,74 C172.1,73.7 171.9,73.3 172,73 C172.2,72.6 172.6,72.2 173,72 C173.3,71.9 173.8,72.2 174,72 C174.2,71.8 173.8,71.2 174,71 C174.2,70.8 174.7,71.1 175,71 C175.4,70.8 175.6,70.2 176,70 C176.3,69.9 176.7,70.1 177,70 C177.4,69.8 177.6,69.2 178,69 C178.3,68.9 178.7,69.0 179,69 C179.3,69.0 179.7,68.9 180,69 C180.4,69.2 180.6,69.8 181,70 C181.3,70.1 181.7,69.9 182,70 C182.4,70.2 182.6,70.8 183,71 C183.3,71.1 183.7,70.9 184,71 C184.4,71.2 184.7,71.7 185,72 C185.3,72.3 185.8,72.6 186,73 C186.1,73.3 185.8,73.8 186,74 C186.2,74.2 186.8,73.8 187,74 C187.2,74.2 187.0,74.7 187,75 C187.0,75.3 186.9,75.7 187,76 C187.2,76.4 187.7,76.7 188,77 L200,76 C200.3,75.7 200.8,75.4 201,75 C201.1,74.7 201.0,74.3 201,74 C201.0,73.7 201.0,73.4 201,73 C201.0,72.4 201.0,71.7 201,71 C201.0,70.3 201.2,69.5 201,69 C200.8,68.6 200.2,68.4 200,68 C199.8,67.5 200.2,66.6 200,66 C199.8,65.3 199.2,64.7 199,64 C198.8,63.4 199.2,62.5 199,62 C198.8,61.6 198.3,61.4 198,61 C197.6,60.5 197.4,59.5 197,59 C196.7,58.6 196.3,58.3 196,58 C195.7,57.7 195.3,57.3 195,57 C194.7,56.7 194.3,56.3 194,56 C193.7,55.7 193.4,55.2 193,55 C192.5,54.8 191.7,55.0 191,55 L175,51 L173,45 L171,50 L140,51 L139,42 C134.7,44.7 129.6,46.7 126,50 C122.6,53.1 119.0,56.9 118,61 C117.0,65.2 119.3,70.3 120,75 C123.7,72.7 127.5,67.8 131,68 C134.5,68.2 137.7,73.3 141,76Z" fill="#dd0000" stroke="#000000" stroke-width="1" fill-rule="evenodd" data-shape="76"/>
        <polygon points="173,45 169,30 168,31 172,50 173,45" fill="#bababa" stroke="#000000" stroke-width="1" fill-rule="evenodd" data-shape="77"/>
        <path d="M198,66 L197,67 L197,68 L196,68 L195,68 L195,67 L194,67 L194,66 L193,65 L193,64 L193,63 L193,62 L193,61 L193,60 L193,59 L194,59 L194,58 L195,58 L196,58 L196,59 L197,59 L197,60 L197,61 L198,62 L198,63 L198,64Z" fill="#bababa" stroke="#000000" stroke-width="1" fill-rule="evenodd" data-shape="78"/>
        <polygon points="169,51 170,76 169,51" fill="#bababa" stroke="#000000" stroke-width="1" fill-rule="evenodd" data-shape="79"/>
        <polygon points="154,51 154,76 154,51" fill="#bababa" stroke="#000000" stroke-width="1" fill-rule="evenodd" data-shape="80"/>
        <polygon points="155,60 158,60 158,62 155,62 155,60" fill="#bababa" stroke="#000000" stroke-width="1" fill-rule="evenodd" data-shape="81"/>
        <polygon points="200,68 203,68 203,76 200,76 200,68" fill="#bababa" stroke="#000000" stroke-width="1" fill-rule="evenodd" data-shape="82"/>
        <polygon points="115,66 119,66 119,75 115,75 115,66" fill="#bababa" stroke="none" stroke-width="0" fill-rule="evenodd" data-shape="83"/>
      </g>
      <g data-mdcr="group" class="mdcr-region">
        <path d="M277,84 L277,85 L276,85 L276,86 L275,86 L274,86 L274,85 L273,85 L273,84 L273,83 L272,83 L272,82 L272,80 L272,79 L272,78 L273,78 L273,77 L273,76 L274,76 L274,75 L275,75 L276,75 L276,76 L277,76 L277,77 L277,78 L278,78 L278,79 L278,80 L278,82 L278,83 L277,83Z" fill="#ffffff" stroke="none" stroke-width="0" fill-rule="evenodd" data-shape="84"/>
        <path d="M277,84 L277,85 L276,85 L276,86 L275,86 L274,86 L274,85 L273,85 L273,84 L273,83 L272,83 L272,82 L272,80 L272,79 L272,78 L273,78 L273,77 L273,76 L274,76 L274,75 L275,75 L276,75 L276,76 L277,76 L277,77 L277,78 L278,78 L278,79 L278,80 L278,82 L278,83 L277,83 L277,84" fill="none" stroke="#ffffff" stroke-width="1"/>
        <g data-mdcr="group" class="mdcr-region">
          <path d="M223,77 L223,52 L230,45 L231,10 C234.7,9.3 238.3,8.3 242,8 C245.7,7.7 249.3,8.0 253,8 C256.9,8.0 261.1,7.8 265,8 C268.8,8.2 272.4,8.5 276,9 C279.4,9.5 282.7,10.3 286,11 L285,50 C285.0,50.3 285.1,50.7 285,51 C284.8,51.4 284.2,51.6 284,52 C283.9,52.3 284.2,52.8 284,53 C283.8,53.2 283.2,52.8 283,53 C282.8,53.2 283.1,53.7 283,54 C282.8,54.4 282.2,54.6 282,55 C281.8,55.5 282.0,56.3 282,57 C282.0,57.9 282.0,59.1 282,60 C282.0,60.7 282.0,61.2 282,62 C282.0,63.1 282.0,64.6 282,66 C282.0,67.6 282.0,69.3 282,71 L282,77 C282.0,76.7 282.1,76.3 282,76 C281.8,75.6 281.4,75.2 281,75 C280.7,74.9 280.2,75.2 280,75 C279.8,74.8 280.0,74.3 280,74 C280.0,73.7 280.0,73.3 280,73 C280.0,72.7 280.2,72.2 280,72 C279.8,71.8 279.2,72.2 279,72 C278.8,71.8 279.1,71.3 279,71 C278.8,70.6 278.4,70.2 278,70 C277.7,69.9 277.3,70.0 277,70 C276.7,70.0 276.3,70.0 276,70 C275.7,70.0 275.3,70.0 275,70 C274.7,70.0 274.3,69.9 274,70 C273.6,70.2 273.3,70.7 273,71 C272.7,71.3 272.2,71.6 272,72 C271.9,72.3 272.0,72.7 272,73 C272.0,73.3 272.1,73.7 272,74 C271.8,74.4 271.3,74.7 271,75 C270.7,75.3 270.3,75.7 270,76 C269.7,76.3 269.3,76.7 269,77 L241,77 C241.0,76.7 241.0,76.3 241,76 C241.0,75.7 241.1,75.3 241,75 C240.8,74.6 240.2,74.4 240,74 C239.9,73.7 240.2,73.2 240,73 C239.8,72.8 239.2,73.2 239,73 C238.8,72.8 239.0,72.3 239,72 C239.0,71.7 239.2,71.2 239,71 C238.8,70.8 238.3,71.1 238,71 C237.6,70.8 237.4,70.2 237,70 C236.7,69.9 236.3,70.0 236,70 C235.7,70.0 235.3,70.0 235,70 C234.7,70.0 234.3,70.0 234,70 C233.7,70.0 233.2,69.8 233,70 C232.8,70.2 233.0,70.7 233,71 C233.0,71.3 233.2,71.8 233,72 C232.8,72.2 232.2,71.8 232,72 C231.8,72.2 232.1,72.7 232,73 C231.8,73.4 231.3,73.7 231,74 C230.7,74.3 230.2,74.6 230,75 C229.9,75.3 230.1,75.7 230,76 C229.8,76.4 229.3,76.7 229,77 L223,77Z" fill="#dd0000" stroke="none" stroke-width="0" fill-rule="evenodd" data-shape="85"/>
          <path d="M238,33 C238.0,35.7 238.6,38.7 238,41 C237.5,42.9 236.0,44.3 235,46 C233.7,45.0 231.7,44.5 231,43 C230.1,41.1 229.7,36.7 231,35 C232.2,33.4 235.7,33.7 238,33Z" fill="#dd0000" stroke="none" stroke-width="0" fill-rule="evenodd" data-shape="86"/>
          <path d="M269,45 C267.8,43.8 268.4,40.1 269,38 C269.5,36.1 270.5,33.9 272,33 C273.7,32.0 277.8,31.8 279,33 C280.2,34.2 279.6,37.9 279,40 C278.5,41.9 277.5,44.1 276,45 C274.3,46.0 270.2,46.2 269,45Z" fill="#dd0000" stroke="none" stroke-width="0" fill-rule="evenodd" data-shape="87"/>
          <path d="M255,33 C256.3,31.7 261.1,32.1 263,33 C264.5,33.7 265.4,35.3 266,37 C266.7,39.1 267.3,43.7 266,45 C264.7,46.3 259.9,45.9 258,45 C256.5,44.3 255.6,42.7 255,41 C254.3,38.9 253.7,34.3 255,33Z" fill="#dd0000" stroke="none" stroke-width="0" fill-rule="evenodd" data-shape="88"/>
          <path d="M241,45 C242.3,46.3 247.1,45.9 249,45 C250.5,44.3 251.4,42.7 252,41 C252.7,38.9 253.3,34.3 252,33 C250.7,31.7 245.9,32.1 244,33 C242.5,33.7 241.6,35.3 241,37 C240.3,39.1 239.7,43.7 241,45Z" fill="#dd0000" stroke="none" stroke-width="0" fill-rule="evenodd" data-shape="89"/>
          <path d="M232,16 C230.7,17.3 231.0,22.0 232,24 C232.9,25.8 235.5,28.1 237,28 C238.4,27.9 240.4,25.7 241,24 C241.7,21.9 241.5,17.3 240,16 C238.5,14.7 233.3,14.7 232,16Z" fill="#dd0000" stroke="none" stroke-width="0" fill-rule="evenodd" data-shape="90"/>
          <path d="M244,16 C245.3,14.7 250.5,14.7 252,16 C253.5,17.3 253.7,21.9 253,24 C252.4,25.7 250.4,27.9 249,28 C247.5,28.1 244.9,25.8 244,24 C243.0,22.0 242.7,17.3 244,16Z" fill="#dd0000" stroke="none" stroke-width="0" fill-rule="evenodd" data-shape="91"/>
          <path d="M255,16 C253.7,17.3 254.0,22.0 255,24 C255.9,25.8 258.5,28.1 260,28 C261.4,27.9 263.4,25.7 264,24 C264.7,21.9 264.5,17.3 263,16 C261.5,14.7 256.3,14.7 255,16Z" fill="#dd0000" stroke="none" stroke-width="0" fill-rule="evenodd" data-shape="92"/>
          <path d="M277,16 L283,16 L283,28 L277,28Z" fill="#dd0000" stroke="none" stroke-width="0" fill-rule="evenodd" data-shape="93"/>
          <path d="M266,16 C264.7,17.3 265.0,22.0 266,24 C266.9,25.8 269.5,28.1 271,28 C272.4,27.9 274.4,25.7 275,24 C275.7,21.9 275.5,17.3 274,16 C272.5,14.7 267.3,14.7 266,16Z" fill="#dd0000" stroke="none" stroke-width="0" fill-rule="evenodd" data-shape="94"/>
        </g>
        <path d="M269,45 C267.8,43.8 268.4,40.1 269,38 C269.5,36.1 270.5,33.9 272,33 C273.7,32.0 277.8,31.8 279,33 C280.2,34.2 279.6,37.9 279,40 C278.5,41.9 277.5,44.1 276,45 C274.3,46.0 270.2,46.2 269,45Z" fill="#000000" stroke="none" stroke-width="0" fill-rule="evenodd" data-shape="95"/>
        <path d="M255,33 C256.3,31.7 261.1,32.1 263,33 C264.5,33.7 265.4,35.3 266,37 C266.7,39.1 267.3,43.7 266,45 C264.7,46.3 259.9,45.9 258,45 C256.5,44.3 255.6,42.7 255,41 C254.3,38.9 253.7,34.3 255,33Z" fill="#000000" stroke="none" stroke-width="0" fill-rule="evenodd" data-shape="96"/>
        <path d="M242,45 C243.3,46.3 248.1,45.9 250,45 C251.5,44.3 252.4,42.7 253,41 C253.7,38.9 254.3,34.3 253,33 C251.7,31.7 246.9,32.1 245,33 C243.5,33.7 242.6,35.3 242,37 C241.3,39.1 240.7,43.7 242,45Z" fill="#000000" stroke="none" stroke-width="0" fill-rule="evenodd" data-shape="97"/>
        <path d="M233,16 C231.7,17.3 232.0,22.0 233,24 C233.9,25.8 236.5,28.1 238,28 C239.4,27.9 241.4,25.7 242,24 C242.7,21.9 242.5,17.3 241,16 C239.5,14.7 234.3,14.7 233,16Z" fill="#000000" stroke="none" stroke-width="0" fill-rule="evenodd" data-shape="98"/>
        <path d="M244,16 C245.3,14.7 250.5,14.7 252,16 C253.5,17.3 253.7,21.9 253,24 C252.4,25.7 250.4,27.9 249,28 C247.5,28.1 244.9,25.8 244,24 C243.0,22.0 242.7,17.3 244,16Z" fill="#000000" stroke="none" stroke-width="0" fill-rule="evenodd" data-shape="99"/>
        <path d="M254,16 C252.7,17.3 253.0,22.0 254,24 C254.9,25.8 257.5,28.1 259,28 C260.4,27.9 262.4,25.7 263,24 C263.7,21.9 263.5,17.3 262,16 C260.5,14.7 255.3,14.7 254,16Z" fill="#000000" stroke="none" stroke-width="0" fill-rule="evenodd" data-shape="100"/>
        <path d="M276,16 L282,16 L282,28 L276,28Z" fill="#000000" stroke="none" stroke-width="0" fill-rule="evenodd" data-shape="101"/>
        <path d="M222,56 L224,56 L224,62 L222,62Z" fill="#545454" stroke="none" stroke-width="0" fill-rule="evenodd" data-shape="102"/>
        <path d="M222,56 L224,56 L224,62 L222,62 L222,56" fill="none" stroke="#ffffff" stroke-width="1"/>
        <path d="M222,56 L224,56 L224,62 L222,62Z" fill="#000000" stroke="none" stroke-width="0" fill-rule="evenodd" data-shape="103"/>
        <polyline points="222,56 224,56 224,62 222,62 222,56" fill="none" stroke="#ffffff" stroke-width="1"/>
        <polyline points="238,72 238,34 231,34 231,74" fill="none" stroke="#ffffff" stroke-width="1"/>
        <path d="M238,56 L280,56 L280,62 L238,62Z" fill="#bababa" stroke="#ffffff" stroke-width="1" fill-rule="evenodd" data-shape="104"/>
        <path d="M232,35 L232,46 L237,46 L237,35Z" fill="#000000" stroke="none" stroke-width="0" fill-rule="evenodd" data-shape="105"/>
        <path d="M264,28 C262.8,26.8 263.4,23.1 264,21 C264.5,19.1 265.5,16.9 267,16 C268.7,15.0 272.8,14.8 274,16 C275.2,17.2 274.6,20.9 274,23 C273.5,24.9 272.5,27.1 271,28 C269.3,29.0 265.2,29.2 264,28Z" fill="#000000" stroke="none" stroke-width="0" fill-rule="evenodd" data-shape="106"/>
        <ellipse cx="277" cy="81" rx="5" ry="9" fill="#000000" stroke="#000000" stroke-width="1" data-shape="107"/>
        <ellipse cx="236" cy="81" rx="5" ry="9" fill="#000000" stroke="#000000" stroke-width="1" data-shape="108"/>
      </g>
      <g data-mdcr="group" class="mdcr-region">
        <path d="M363,55 L364,37 L364,36 L364,35 L364,34 L363,34 L362,34 L362,35 L362,36 L361,37 L361,54Z" fill="#808000" stroke="#000000" stroke-width="1" fill-rule="evenodd" data-shape="109"/>
        <path d="M361,53 L361,36 L361,35 L361,34 L360,34 L360,33 L359,33 L359,34 L359,35 L358,36 L358,37 L359,54Z" fill="#808000" stroke="#000000" stroke-width="1" fill-rule="evenodd" data-shape="110"/>
        <path d="M364,46 L368,38 L368,37 L368,36 L368,35 L368,34 L367,34 L366,34 L366,35 L365,35 L365,36Z" fill="#808000" stroke="#000000" stroke-width="1" fill-rule="evenodd" data-shape="111"/>
        <path d="M366,85 C367.3,86.7 370.2,88.4 372,88 C373.9,87.6 376.2,84.3 377,82 C377.8,79.7 377.7,76.4 377,74 C376.3,71.7 374.8,68.8 373,68 C371.4,67.3 368.5,67.8 367,69 C365.3,70.4 364.2,74.3 364,77 C363.8,79.6 364.5,83.2 366,85Z" fill="#000000" stroke="#000000" stroke-width="1" fill-rule="evenodd" data-shape="112"/>
        <path d="M319,86 C320.3,87.7 323.4,89.4 325,89 C326.7,88.5 328.2,85.3 329,83 C329.9,80.6 330.6,77.4 330,75 C329.5,72.7 327.8,69.8 326,69 C324.2,68.2 320.5,68.6 319,70 C317.4,71.5 317.0,75.3 317,78 C317.0,80.7 317.5,84.2 319,86Z" fill="#000000" stroke="#000000" stroke-width="1" fill-rule="evenodd" data-shape="113"/>
        <path d="M362,77 L333,77 C332.7,76.7 332.3,76.3 332,76 C331.7,75.7 331.2,75.4 331,75 C330.9,74.7 331.1,74.3 331,74 C330.8,73.6 330.4,73.2 330,73 C329.7,72.9 329.2,73.2 329,73 C328.8,72.8 329.2,72.2 329,72 C328.8,71.8 328.3,72.1 328,72 C327.6,71.8 327.4,71.2 327,71 C326.7,70.9 326.3,71.1 326,71 C325.6,70.8 325.4,70.2 325,70 C324.7,69.9 324.3,70.0 324,70 C323.7,70.0 323.3,69.9 323,70 C322.6,70.2 322.4,70.8 322,71 C321.7,71.1 321.3,70.9 321,71 C320.6,71.2 320.4,71.8 320,72 C319.7,72.1 319.3,71.9 319,72 C318.6,72.2 318.3,72.7 318,73 C317.7,73.3 317.2,73.6 317,74 C316.9,74.3 317.2,74.8 317,75 C316.8,75.2 316.2,74.8 316,75 C315.8,75.2 316.0,75.7 316,76 C316.0,76.3 316.1,76.7 316,77 C315.8,77.4 315.3,77.7 315,78 L303,77 C302.7,76.7 302.2,76.4 302,76 C301.9,75.7 302.0,75.3 302,75 C302.0,74.7 302.0,74.4 302,74 C302.0,73.4 302.0,72.7 302,72 C302.0,71.3 301.8,70.5 302,70 C302.2,69.6 302.8,69.4 303,69 C303.2,68.5 302.8,67.6 303,67 C303.2,66.3 303.8,65.7 304,65 C304.2,64.4 303.8,63.5 304,63 C304.2,62.6 304.7,62.4 305,62 C305.4,61.5 305.6,60.5 306,60 C306.3,59.6 306.7,59.3 307,59 C307.3,58.7 307.7,58.3 308,58 C308.3,57.7 308.7,57.3 309,57 C309.3,56.7 309.6,56.2 310,56 C310.5,55.8 311.3,56.0 312,56 L328,52 L330,46 L332,51 L363,52 L364,43 C368.3,45.7 373.4,47.7 377,51 C380.4,54.1 384.0,57.9 385,62 C386.0,66.2 383.7,71.3 383,76 C379.3,73.7 375.5,68.8 372,69 C368.5,69.2 365.3,74.3 362,77Z" fill="#000000" stroke="#000000" stroke-width="1" fill-rule="evenodd" data-shape="114"/>
        <polygon points="330,46 334,31 335,32 331,51 330,46" fill="#000000" stroke="#000000" stroke-width="1" fill-rule="evenodd" data-shape="115"/>
        <polygon points="303,69 300,69 300,77 303,77 303,69" fill="#000000" stroke="#000000" stroke-width="1" fill-rule="evenodd" data-shape="116"/>
        <polygon points="388,67 384,67 384,76 388,76 388,67" fill="#000000" stroke="none" stroke-width="0" fill-rule="evenodd" data-shape="117"/>
        <path d="M363,55 L364,37 L364,36 L364,35 L364,34 L363,34 L362,34 L362,35 L362,36 L361,37 L361,54Z" fill="#808000" stroke="#000000" stroke-width="1" fill-rule="evenodd" data-shape="118"/>
        <path d="M361,53 L361,36 L361,35 L361,34 L360,34 L360,33 L359,33 L359,34 L359,35 L358,36 L358,37 L359,54Z" fill="#808000" stroke="#000000" stroke-width="1" fill-rule="evenodd" data-shape="119"/>
        <path d="M364,46 L368,38 L368,37 L368,36 L368,35 L368,34 L367,34 L366,34 L366,35 L365,35 L365,36Z" fill="#808000" stroke="#000000" stroke-width="1" fill-rule="evenodd" data-shape="120"/>
        <path d="M366,85 C367.3,86.7 370.2,88.4 372,88 C373.9,87.6 376.2,84.3 377,82 C377.8,79.7 377.7,76.4 377,74 C376.3,71.7 374.8,68.8 373,68 C371.4,67.3 368.5,67.8 367,69 C365.3,70.4 364.2,74.3 364,77 C363.8,79.6 364.5,83.2 366,85Z" fill="#333333" stroke="#000000" stroke-width="1" fill-rule="evenodd" data-shape="121"/>
        <path d="M370,81 L370,82 L371,82 L371,83 L372,83 L373,83 L373,82 L374,82 L374,81 L375,80 L375,78 L375,77 L375,76 L375,75 L375,74 L374,73 L373,72 L372,72 L371,72 L371,73 L370,73 L370,74 L369,75 L369,76 L369,77 L369,78 L369,80 L370,80Z" fill="#eded00" stroke="#000000" stroke-width="1" fill-rule="evenodd" data-shape="122"/>
        <path d="M319,86 C320.3,87.7 323.4,89.4 325,89 C326.7,88.5 328.2,85.3 329,83 C329.9,80.6 330.6,77.4 330,75 C329.5,72.7 327.8,69.8 326,69 C324.2,68.2 320.5,68.6 319,70 C317.4,71.5 317.0,75.3 317,78 C317.0,80.7 317.5,84.2 319,86Z" fill="#333333" stroke="#000000" stroke-width="1" fill-rule="evenodd" data-shape="123"/>
        <path d="M322,81 L322,82 L323,82 L323,83 L324,83 L325,83 L325,82 L326,82 L326,81 L327,81 L327,80 L327,79 L327,78 L327,77 L327,76 L327,75 L326,74 L325,73 L324,73 L323,73 L323,74 L322,74 L322,75 L321,76 L321,77 L321,78 L321,79 L321,80Z" fill="#eded00" stroke="#000000" stroke-width="1" fill-rule="evenodd" data-shape="124"/>
        <path d="M362,77 L333,77 C332.7,76.7 332.3,76.3 332,76 C331.7,75.7 331.2,75.4 331,75 C330.9,74.7 331.1,74.3 331,74 C330.8,73.6 330.4,73.2 330,73 C329.7,72.9 329.2,73.2 329,73 C328.8,72.8 329.2,72.2 329,72 C328.8,71.8 328.3,72.1 328,72 C327.6,71.8 327.4,71.2 327,71 C326.7,70.9 326.3,71.1 326,71 C325.6,70.8 325.4,70.2 325,70 C324.7,69.9 324.3,70.0 324,70 C323.7,70.0 323.3,69.9 323,70 C322.6,70.2 322.4,70.8 322,71 C321.7,71.1 321.3,70.9 321,71 C320.6,71.2 320.4,71.8 320,72 C319.7,72.1 319.3,71.9 319,72 C318.6,72.2 318.3,72.7 318,73 C317.7,73.3 317.2,73.6 317,74 C316.9,74.3 317.2,74.8 317,75 C316.8,75.2 316.2,74.8 316,75 C315.8,75.2 316.0,75.7 316,76 C316.0,76.3 316.1,76.7 316,77 C315.8,77.4 315.3,77.7 315,78 L303,77 C302.7,76.7 302.2,76.4 302,76 C301.9,75.7 302.0,75.3 302,75 C302.0,74.7 302.0,74.4 302,74 C302.0,73.4 302.0,72.7 302,72 C302.0,71.3 301.8,70.5 302,70 C302.2,69.6 302.8,69.4 303,69 C303.2,68.5 302.8,67.6 303,67 C303.2,66.3 303.8,65.7 304,65 C304.2,64.4 303.8,63.5 304,63 C304.2,62.6 304.7,62.4 305,62 C305.4,61.5 305.6,60.5 306,60 C306.3,59.6 306.7,59.3 307,59 C307.3,58.7 307.7,58.3 308,58 C308.3,57.7 308.7,57.3 309,57 C309.3,56.7 309.6,56.2 310,56 C310.5,55.8 311.3,56.0 312,56 L328,52 L330,46 L332,51 L363,52 L364,43 C368.3,45.7 373.4,47.7 377,51 C380.4,54.1 384.0,57.9 385,62 C386.0,66.2 383.7,71.3 383,76 C379.3,73.7 375.5,68.8 372,69 C368.5,69.2 365.3,74.3 362,77Z" fill="#dd0000" stroke="#000000" stroke-width="1" fill-rule="evenodd" data-shape="125"/>
        <polygon points="330,46 334,31 335,32 331,51 330,46" fill="#bababa" stroke="#000000" stroke-width="1" fill-rule="evenodd" data-shape="126"/>
        <path d="M305,67 L306,68 L306,69 L307,69 L308,69 L308,68 L309,68 L309,67 L310,66 L310,65 L310,64 L310,63 L310,62 L310,61 L310,60 L309,60 L309,59 L308,59 L307,59 L307,60 L306,60 L306,61 L306,62 L305,63 L305,64 L305,65Z" fill="#bababa" stroke="#000000" stroke-width="1" fill-rule="evenodd" data-shape="127"/>
        <polygon points="334,52 333,77 334,52" fill="#bababa" stroke="#000000" stroke-width="1" fill-rule="evenodd" data-shape="128"/>
        <polygon points="349,52 349,77 349,52" fill="#bababa" stroke="#000000" stroke-width="1" fill-rule="evenodd" data-shape="129"/>
        <polygon points="348,61 345,61 345,63 348,63 348,61" fill="#bababa" stroke="#000000" stroke-width="1" fill-rule="evenodd" data-shape="130"/>
        <polygon points="303,69 300,69 300,77 303,77 303,69" fill="#bababa" stroke="#000000" stroke-width="1" fill-rule="evenodd" data-shape="131"/>
        <polygon points="388,67 384,67 384,76 388,76 388,67" fill="#bababa" stroke="none" stroke-width="0" fill-rule="evenodd" data-shape="132"/>
      </g>
    </g>
  </g>
</svg>