<svg xmlns="http://www.w3.org/2000/svg" xmlns:mdcr="http://sensory.com/mdcr" viewBox="0 0 401 301" width="401" height="301">
  <metadata>
    <mdcr:info xmlns:mdcr="http://sensory.com/mdcr">
      <mdcr:source format="WMF" generator="wmf2svg.js"/>
      <mdcr:bounds left="0" top="0" right="6015" bottom="4515" inch="1440"/>
      <mdcr:records count="17">
        <mdcr:record tag="MDCR-{"/>
        <mdcr:record tag="MDCR-{"/>
        <mdcr:record tag="MDCR-}"/>
        <mdcr:record tag="MDCR-S"/>
        <mdcr:record tag="MDCR-{"/>
        <mdcr:record tag="MDCR-}:"/>
        <mdcr:record tag="MDCR-{"/>
        <mdcr:record tag="MDCR-}"/>
        <mdcr:record tag="MDCR-{"/>
        <mdcr:record tag="MDCR-{"/>
        <mdcr:record tag="MDCR-}"/>
        <mdcr:record tag="MDCR-}"/>
        <mdcr:record tag="MDCR-{"/>
        <mdcr:record tag="MDCR-S"/>
        <mdcr:record tag="MDCR-}:"/>
        <mdcr:record tag="MDCR-}"/>
        <mdcr:record tag="MDCR-S"/>
      </mdcr:records>
    </mdcr:info>
  </metadata>
  <g data-mdcr="group" class="mdcr-region">
    <g data-mdcr="group" class="mdcr-region">
      <path d="M213,279 C210.4,279.1 207.0,276.9 205,275 C203.1,273.2 202.0,270.6 201,268 C199.9,265.3 199.3,261.9 199,259 C198.7,256.3 198.8,253.7 199,251 C199.2,248.1 199.0,244.8 200,242 C201.0,239.1 202.9,236.0 205,234 C207.0,232.1 209.6,230.1 212,230 C214.6,229.9 217.8,232.1 220,234 C222.1,235.8 223.8,238.4 225,241 C226.2,243.7 226.7,247.1 227,250 C227.3,252.7 227.3,255.3 227,258 C226.7,260.9 226.2,264.2 225,267 C223.8,269.9 222.1,273.0 220,275 C218.0,276.9 215.4,278.9 213,279Z" fill="#000000" stroke="none" stroke-width="0" fill-rule="evenodd" data-shape="0"/>
      <path d="M238,250 C235.7,249.7 232.8,250.2 231,249 C229.1,247.7 228.4,244.2 227,242 C225.7,239.9 224.7,237.7 223,236 C221.3,234.3 219.2,232.7 217,232 C214.8,231.3 212.3,231.4 210,232 C207.6,232.6 204.9,234.4 203,236 C201.3,237.4 200.3,239.1 199,241 C197.6,243.1 196.3,245.7 195,248 L195,227 L238,227 L238,250Z" fill="#ff0000" stroke="#000000" stroke-width="1" fill-rule="evenodd" data-shape="1"/>
      <path d="M212,265 C210.3,265.0 208.2,262.8 207,261 C205.7,258.9 205.2,255.7 205,253 C204.8,250.3 204.9,247.0 206,245 C207.0,243.2 209.2,241.1 211,241 C212.9,240.9 215.7,243.1 217,245 C218.4,247.0 218.9,250.4 219,253 C219.1,255.4 219.1,258.0 218,260 C216.8,262.1 213.9,265.0 212,265Z" fill="#ffff00" stroke="#000000" stroke-width="1" fill-rule="evenodd" data-shape="2"/>
    </g>
    <g data-mdcr="group" class="mdcr-region">
      <path d="M94,55 C92.7,53.0 91.6,50.5 90,49 C88.6,47.6 86.8,46.7 85,46 C83.2,45.3 81.1,45.0 79,45 C76.8,45.0 74.3,45.7 72,46 C74.3,46.3 76.6,46.5 79,47 C81.6,47.5 84.6,47.7 87,49 C89.6,50.3 91.7,53.0 94,55Z" fill="#000000" stroke="#000000" stroke-width="1" fill-rule="evenodd" data-shape="3"/>
      <path d="M67,79 C68.6,80.8 70.7,82.3 73,83 C75.4,83.7 78.6,83.4 81,83 C83.2,82.6 85.2,82.2 87,81 C89.0,79.7 90.8,77.3 92,75 C93.2,72.6 93.8,69.7 94,67 C94.2,64.3 93.8,61.5 93,59 C92.2,56.5 90.7,53.9 89,52 C87.4,50.2 85.2,48.8 83,48 C80.8,47.2 78.3,46.7 76,47 C73.6,47.3 71.0,48.5 69,50 C67.0,51.5 65.2,53.7 64,56 C62.8,58.4 62.2,61.3 62,64 C61.8,66.7 62.2,69.5 63,72 C63.8,74.5 65.3,77.1 67,79Z" fill="#000000" stroke="#000000" stroke-width="1" fill-rule="evenodd" data-shape="4"/>
      <path d="M70,75 C71.5,76.7 73.9,78.4 76,79 C77.9,79.6 80.1,79.5 82,79 C84.1,78.5 86.4,77.5 88,76 C89.7,74.5 91.3,72.3 92,70 C92.7,67.6 92.5,64.5 92,62 C91.5,59.5 90.5,56.8 89,55 C87.5,53.2 85.2,51.8 83,51 C80.8,50.2 78.2,49.5 76,50 C73.8,50.5 71.5,52.2 70,54 C68.5,55.8 67.5,58.5 67,61 C66.5,63.5 66.4,66.6 67,69 C67.5,71.2 68.5,73.4 70,75Z" fill="#000000" stroke="#000000" stroke-width="1" fill-rule="evenodd" data-shape="5"/>
      <polygon points="80,51 77,80 80,51" fill="#000000" stroke="#000000" stroke-width="1" fill-rule="evenodd" data-shape="6"/>
      <polygon points="92,67 66,62 92,67" fill="#000000" stroke="#000000" stroke-width="1" fill-rule="evenodd" data-shape="7"/>
      <polygon points="72,52 87,76 72,52" fill="#000000" stroke="#000000" stroke-width="1" fill-rule="evenodd" data-shape="8"/>
      <polygon points="89,56 68,74 89,56" fill="#000000" stroke="#000000" stroke-width="1" fill-rule="evenodd" data-shape="9"/>
      <polygon points="77,50 83,79 77,50" fill="#000000" stroke="#000000" stroke-width="1" fill-rule="evenodd" data-shape="10"/>
      <polygon points="91,71 69,56 91,71" fill="#000000" stroke="#000000" stroke-width="1" fill-rule="evenodd" data-shape="11"/>
      <polygon points="90,61 65,68 90,61" fill="#000000" stroke="#000000" stroke-width="1" fill-rule="evenodd" data-shape="12"/>
      <polygon points="85,53 72,78 85,53" fill="#000000" stroke="#000000" stroke-width="1" fill-rule="evenodd" data-shape="13"/>
      <path d="M77,66 L78,67 L79,67 L80,67 L80,66 L81,66 L81,65 L81,64 L81,63 L81,62 L80,62 L80,61 L79,61 L78,61 L77,61 L77,62 L76,63 L76,64 L76,65Z" fill="#000000" stroke="#000000" stroke-width="1" fill-rule="evenodd" data-shape="14"/>
      <path d="M78,65 L62,31 L64,30 L80,64 C80.0,64.3 80.0,64.7 80,65 C80.0,65.3 80.2,65.8 80,66 C79.8,66.2 79.3,66.1 79,66 C78.6,65.8 78.3,65.3 78,65Z" fill="#000000" stroke="#000000" stroke-width="1" fill-rule="evenodd" data-shape="15"/>
      <path d="M19,80 C20.6,81.8 22.8,83.2 25,84 C27.2,84.8 29.7,85.3 32,85 C34.4,84.7 37.0,83.6 39,82 C41.1,80.3 42.8,77.4 44,75 C45.1,72.8 45.8,70.4 46,68 C46.2,65.4 45.8,62.5 45,60 C44.2,57.5 42.6,54.9 41,53 C39.6,51.3 38.0,49.8 36,49 C33.8,48.1 30.5,47.6 28,48 C25.5,48.3 23.0,49.4 21,51 C18.9,52.7 17.2,55.6 16,58 C14.9,60.2 14.2,62.6 14,65 C13.8,67.6 14.2,70.5 15,73 C15.8,75.5 17.3,78.1 19,80Z" fill="#000000" stroke="#000000" stroke-width="1" fill-rule="evenodd" data-shape="16"/>
      <path d="M21,76 C22.4,77.7 24.1,79.3 26,80 C28.0,80.7 30.8,80.5 33,80 C35.1,79.5 37.4,78.5 39,77 C40.7,75.5 42.3,73.3 43,71 C43.7,68.6 43.5,65.5 43,63 C42.5,60.5 41.5,57.8 40,56 C38.5,54.2 36.2,52.8 34,52 C31.8,51.2 29.2,50.5 27,51 C24.8,51.5 22.5,53.2 21,55 C19.5,56.8 18.7,59.6 18,62 C17.4,64.3 16.6,66.7 17,69 C17.5,71.4 19.4,74.1 21,76Z" fill="#000000" stroke="#000000" stroke-width="1" fill-rule="evenodd" data-shape="17"/>
      <polygon points="32,53 29,82 32,53" fill="#000000" stroke="#000000" stroke-width="1" fill-rule="evenodd" data-shape="18"/>
      <polygon points="44,69 18,64 44,69" fill="#000000" stroke="#000000" stroke-width="1" fill-rule="evenodd" data-shape="19"/>
      <polygon points="23,54 38,78 23,54" fill="#000000" stroke="#000000" stroke-width="1" fill-rule="evenodd" data-shape="20"/>
      <polygon points="40,57 19,75 40,57" fill="#000000" stroke="#000000" stroke-width="1" fill-rule="evenodd" data-shape="21"/>
      <polygon points="28,52 34,81 28,52" fill="#000000" stroke="#000000" stroke-width="1" fill-rule="evenodd" data-shape="22"/>
      <polygon points="42,73 20,58 42,73" fill="#000000" stroke="#000000" stroke-width="1" fill-rule="evenodd" data-shape="23"/>
      <polygon points="42,62 17,69 42,62" fill="#000000" stroke="#000000" stroke-width="1" fill-rule="evenodd" data-shape="24"/>
      <polygon points="36,54 23,79 36,54" fill="#000000" stroke="#000000" stroke-width="1" fill-rule="evenodd" data-shape="25"/>
      <path d="M29,68 L30,69 L31,69 L32,69 L32,68 L33,68 L33,67 L33,66 L33,65 L33,64 L32,64 L32,63 L31,63 L30,63 L29,63 L29,64 L28,65 L28,66 L28,67Z" fill="#000000" stroke="#000000" stroke-width="1" fill-rule="evenodd" data-shape="26"/>
      <polygon points="29,65 39,40 42,41 30,66 29,65" fill="#000000" stroke="#000000" stroke-width="1" fill-rule="evenodd" data-shape="27"/>
      <polygon points="70,48 39,49 40,46 69,46 70,48" fill="#000000" stroke="#000000" stroke-width="1" fill-rule="evenodd" data-shape="28"/>
      <path d="M69,28 L61,33 C61.0,33.3 61.2,33.8 61,34 C60.8,34.2 60.2,33.8 60,34 C59.8,34.2 59.9,34.7 60,35 C60.2,35.4 60.8,35.6 61,36 C61.1,36.3 60.8,36.8 61,37 C61.2,37.2 61.8,36.8 62,37 C62.2,37.2 61.8,37.8 62,38 C62.2,38.2 62.8,37.8 63,38 C63.2,38.2 62.8,38.8 63,39 C63.2,39.2 63.8,38.8 64,39 C64.2,39.2 63.8,39.8 64,40 C64.2,40.2 64.7,40.0 65,40 L62,42 C62.0,41.7 62.2,41.2 62,41 C61.8,40.8 61.2,41.2 61,41 C60.8,40.8 61.1,40.3 61,40 C60.8,39.6 60.3,39.3 60,39 C59.7,38.7 59.3,38.3 59,38 C58.7,37.7 58.3,37.3 58,37 C57.7,36.7 57.2,36.4 57,36 C56.9,35.7 57.0,35.3 57,35 C57.0,34.7 57.0,34.3 57,34 C57.0,33.7 57.0,33.3 57,33 C57.0,32.7 57.0,32.3 57,32 L70,25 L73,32 C72.3,32.0 71.6,32.0 71,32 C70.6,32.0 70.2,32.2 70,32 C69.8,31.8 70.2,31.2 70,31 C69.8,30.8 69.2,31.2 69,31 C68.8,30.8 69.0,30.3 69,30 C69.0,29.7 69.0,29.3 69,29 C69.0,28.7 69.0,28.3 69,28Z" fill="#000000" stroke="#000000" stroke-width="1" fill-rule="evenodd" data-shape="29"/>
      <polygon points="63,32 62,29 64,28 65,31 63,32" fill="#000000" stroke="#000000" stroke-width="1" fill-rule="evenodd" data-shape="30"/>
      <path d="M50,43 L34,39 L35,33 C36.7,34.0 38.2,35.0 40,36 C41.9,37.0 44.3,37.8 46,39 C47.6,40.1 48.7,41.7 50,43Z" fill="#000000" stroke="none" stroke-width="0" fill-rule="evenodd" data-shape="31"/>
      <path d="M94,55 C92.7,53.0 91.6,50.5 90,49 C88.6,47.6 86.8,46.7 85,46 C83.2,45.3 81.1,45.0 79,45 C76.8,45.0 74.3,45.7 72,46 C74.3,46.3 76.6,46.5 79,47 C81.6,47.5 84.6,47.7 87,49 C89.6,50.3 91.7,53.0 94,55Z" fill="#eded00" stroke="#000000" stroke-width="1" fill-rule="evenodd" data-shape="32"/>
      <path d="M67,79 C68.6,80.8 70.7,82.3 73,83 C75.4,83.7 78.6,83.4 81,83 C83.2,82.6 85.2,82.2 87,81 C89.0,79.7 90.8,77.3 92,75 C93.2,72.6 93.8,69.7 94,67 C94.2,64.3 93.8,61.5 93,59 C92.2,56.5 90.7,53.9 89,52 C87.4,50.2 85.2,48.8 83,48 C80.8,47.2 78.3,46.7 76,47 C73.6,47.3 71.0,48.5 69,50 C67.0,51.5 65.2,53.7 64,56 C62.8,58.4 62.2,61.3 62,64 C61.8,66.7 62.2,69.5 63,72 C63.8,74.5 65.3,77.1 67,79Z" fill="#545454" stroke="#000000" stroke-width="1" fill-rule="evenodd" data-shape="33"/>
      <path d="M70,75 C71.5,76.7 73.9,78.4 76,79 C77.9,79.6 80.1,79.5 82,79 C84.1,78.5 86.4,77.5 88,76 C89.7,74.5 91.3,72.3 92,70 C92.7,67.6 92.5,64.5 92,62 C91.5,59.5 90.5,56.8 89,55 C87.5,53.2 85.2,51.8 83,51 C80.8,50.2 78.2,49.5 76,50 C73.8,50.5 71.5,52.2 70,54 C68.5,55.8 67.5,58.5 67,61 C66.5,63.5 66.4,66.6 67,69 C67.5,71.2 68.5,73.4 70,75Z" fill="#ffffff" stroke="#000000" stroke-width="1" fill-rule="evenodd" data-shape="34"/>
      <polygon points="80,51 77,80 80,51" fill="#545454" stroke="#000000" stroke-width="1" fill-rule="evenodd" data-shape="35"/>
      <polygon points="92,67 66,62 92,67" fill="#545454" stroke="#000000" stroke-width="1" fill-rule="evenodd" data-shape="36"/>
      <polygon points="72,52 87,76 72,52" fill="#545454" stroke="#000000" stroke-width="1" fill-rule="evenodd" data-shape="37"/>
      <polygon points="89,56 68,74 89,56" fill="#545454" stroke="#000000" stroke-width="1" fill-rule="evenodd" data-shape="38"/>
      <polygon points="77,50 83,79 77,50" fill="#545454" stroke="#000000" stroke-width="1" fill-rule="evenodd" data-shape="39"/>
      <polygon points="91,71 69,56 91,71" fill="#545454" stroke="#000000" stroke-width="1" fill-rule="evenodd" data-shape="40"/>
      <polygon points="90,61 65,68 90,61" fill="#545454" stroke="#000000" stroke-width="1" fill-rule="evenodd" data-shape="41"/>
      <polygon points="85,53 72,78 85,53" fill="#545454" stroke="#000000" stroke-width="1" fill-rule="evenodd" data-shape="42"/>
      <path d="M77,66 L78,67 L79,67 L80,67 L80,66 L81,66 L81,65 L81,64 L81,63 L81,62 L80,62 L80,61 L79,61 L78,61 L77,61 L77,62 L76,63 L76,64 L76,65Z" fill="#545454" stroke="#000000" stroke-width="1" fill-rule="evenodd" data-shape="43"/>
      <path d="M78,65 L62,31 L64,30 L80,64 C80.0,64.3 80.0,64.7 80,65 C80.0,65.3 80.2,65.8 80,66 C79.8,66.2 79.3,66.1 79,66 C78.6,65.8 78.3,65.3 78,65Z" fill="#eded00" stroke="#000000" stroke-width="1" fill-rule="evenodd" data-shape="44"/>
      <path d="M19,80 C20.6,81.8 22.8,83.2 25,84 C27.2,84.8 29.7,85.3 32,85 C34.4,84.7 37.0,83.6 39,82 C41.1,80.3 42.8,77.4 44,75 C45.1,72.8 45.8,70.4 46,68 C46.2,65.4 45.8,62.5 45,60 C44.2,57.5 42.6,54.9 41,53 C39.6,51.3 38.0,49.8 36,49 C33.8,48.1 30.5,47.6 28,48 C25.5,48.3 23.0,49.4 21,51 C18.9,52.7 17.2,55.6 16,58 C14.9,60.2 14.2,62.6 14,65 C13.8,67.6 14.2,70.5 15,73 C15.8,75.5 17.3,78.1 19,80Z" fill="#545454" stroke="#000000" stroke-width="1" fill-rule="evenodd" data-shape="45"/>
      <path d="M21,76 C22.4,77.7 24.1,79.3 26,80 C28.0,80.7 30.8,80.5 33,80 C35.1,79.5 37.4,78.5 39,77 C40.7,75.5 42.3,73.3 43,71 C43.7,68.6 43.5,65.5 43,63 C42.5,60.5 41.5,57.8 40,56 C38.5,54.2 36.2,52.8 34,52 C31.8,51.2 29.2,50.5 27,51 C24.8,51.5 22.5,53.2 21,55 C19.5,56.8 18.7,59.6 18,62 C17.4,64.3 16.6,66.7 17,69 C17.5,71.4 19.4,74.1 21,76Z" fill="#ffffff" stroke="#000000" stroke-width="1" fill-rule="evenodd" data-shape="46"/>
      <polygon points="32,53 29,82 32,53" fill="#545454" stroke="#000000" stroke-width="1" fill-rule="evenodd" data-shape="47"/>
      <polygon points="44,69 18,64 44,69" fill="#545454" stroke="#000000" stroke-width="1" fill-rule="evenodd" data-shape="48"/>
      <polygon points="23,54 38,78 23,54" fill="#545454" stroke="#000000" stroke-width="1" fill-rule="evenodd" data-shape="49"/>
      <polygon points="40,57 19,75 40,57" fill="#545454" stroke="#000000" stroke-width="1" fill-rule="evenodd" data-shape="50"/>
      <polygon points="28,52 34,81 28,52" fill="#545454" stroke="#000000" stroke-width="1" fill-rule="evenodd" data-shape="51"/>
      <polygon points="42,73 20,58 42,73" fill="#545454" stroke="#000000" stroke-width="1" fill-rule="evenodd" data-shape="52"/>
      <polygon points="42,62 17,69 42,62" fill="#545454" stroke="#000000" stroke-width="1" fill-rule="evenodd" data-shape="53"/>
      <polygon points="36,54 23,79 36,54" fill="#545454" stroke="#000000" stroke-width="1" fill-rule="evenodd" data-shape="54"/>
      <path d="M29,68 L30,69 L31,69 L32,69 L32,68 L33,68 L33,67 L33,66 L33,65 L33,64 L32,64 L32,63 L31,63 L30,63 L29,63 L29,64 L28,65 L28,66 L28,67Z" fill="#545454" stroke="#000000" stroke-width="1" fill-rule="evenodd" data-shape="55"/>
      <polygon points="29,65 39,40 42,41 30,66 29,65" fill="#eded00" stroke="#000000" stroke-width="1" fill-rule="evenodd" data-shape="56"/>
      <polygon points="70,48 39,49 40,46 69,46 70,48" fill="#eded00" stroke="#000000" stroke-width="1" fill-rule="evenodd" data-shape="57"/>
      <path d="M69,28 L61,33 C61.0,33.3 61.2,33.8 61,34 C60.8,34.2 60.2,33.8 60,34 C59.8,34.2 59.9,34.7 60,35 C60.2,35.4 60.8,35.6 61,36 C61.1,36.3 60.8,36.8 61,37 C61.2,37.2 61.8,36.8 62,37 C62.2,37.2 61.8,37.8 62,38 C62.2,38.2 62.8,37.8 63,38 C63.2,38.2 62.8,38.8 63,39 C63.2,39.2 63.8,38.8 64,39 C64.2,39.2 63.8,39.8 64,40 C64.2,40.2 64.7,40.0 65,40 L62,42 C62.0,41.7 62.2,41.2 62,41 C61.8,40.8 61.2,41.2 61,41 C60.8,40.8 61.1,40.3 61,40 C60.8,39.6 60.3,39.3 60,39 C59.7,38.7 59.3,38.3 59,38 C58.7,37.7 58.3,37.3 58,37 C57.7,36.7 57.2,36.4 57,36 C56.9,35.7 57.0,35.3 57,35 C57.0,34.7 57.0,34.3 57,34 C57.0,33.7 57.0,33.3 57,33 C57.0,32.7 57.0,32.3 57,32 L70,25 L73,32 C72.3,32.0 71.6,32.0 71,32 C70.6,32.0 70.2,32.2 70,32 C69.8,31.8 70.2,31.2 70,31 C69.8,30.8 69.2,31.2 69,31 C68.8,30.8 69.0,30.3 69,30 C69.0,29.7 69.0,29.3 69,29 C69.0,28.7 69.0,28.3 69,28Z" fill="#dd0000" stroke="#000000" stroke-width="1" fill-rule="evenodd" data-shape="58"/>
      <polygon points="63,32 62,29 64,28 65,31 63,32" fill="#999999" stroke="#000000" stroke-width="1" fill-rule="evenodd" data-shape="59"/>
      <path d="M50,43 L34,39 L35,33 C36.7,34.0 38.2,35.0 40,36 C41.9,37.0 44.3,37.8 46,39 C47.6,40.1 48.7,41.7 50,43Z" fill="#ba7c4c" stroke="none" stroke-width="0" fill-rule="evenodd" data-shape="60"/>
      <g data-mdcr="group" class="mdcr-region">
        <path d="M140,54 L139,36 L139,35 L139,34 L139,33 L140,33 L141,33 L141,34 L141,35 L142,36 L142,53Z" fill="#808000" stroke="#000000" stroke-width="1" fill-rule="evenodd" data-shape="61"/>
        <path d="M142,52 L142,35 L142,34 L142,33 L143,33 L143,32 L144,32 L144,33 L144,34 L145,35 L145,36 L144,53Z" fill="#808000" stroke="#000000" stroke-width="1" fill-rule="evenodd" data-shape="62"/>
        <path d="M139,45 L135,37 L135,36 L135,35 L135,34 L135,33 L136,33 L137,33 L137,34 L138,34 L138,35Z" fill="#808000" stroke="#000000" stroke-width="1" fill-rule="evenodd" data-shape="63"/>
        <path d="M137,84 C135.7,85.7 132.8,87.4 131,87 C129.1,86.6 126.8,83.3 126,81 C125.2,78.7 125.3,75.4 126,73 C126.7,70.7 128.2,67.8 130,67 C131.6,66.3 134.5,66.8 136,68 C137.7,69.4 138.8,73.3 139,76 C139.2,78.6 138.5,82.2 137,84Z" fill="#000000" stroke="#000000" stroke-width="1" fill-rule="evenodd" data-shape="64"/>
        <path d="M184,85 C182.7,86.7 179.6,88.4 178,88 C176.3,87.5 174.8,84.3 174,82 C173.1,79.6 172.4,76.4 173,74 C173.5,71.7 175.2,68.8 177,68 C178.8,67.2 182.5,67.6 184,69 C185.6,70.5 186.0,74.3 186,77 C186.0,79.7 185.5,83.2 184,85Z" fill="#000000" stroke="#000000" stroke-width="1" fill-rule="evenodd" data-shape="65"/>
        <path d="M141,76 L170,76 C170.3,75.7 170.7,75.3 171,75 C171.3,74.7 171.8,74.4 172,74 C172.1,73.7 171.9,73.3 172,73 C172.2,72.6 172.6,72.2 173,72 C173.3,71.9 173.8,72.2 174,72 C174.2,71.8 173.8,71.2 174,71 C174.2,70.8 174.7,71.1 175,71 C175.4,70.8 175.6,70.2 176,70 C176.3,69.9 176.7,70.1 177,70 C177.4,69.8 177.6,69.2 178,69 C178.3,68.9 178.7,69.0 179,69 C179.3,69.0 179.7,68.9 180,69 C180.4,69.2 180.6,69.8 181,70 C181.3,70.1 181.7,69.9 182,70 C182.4,70.2 182.6,70.8 183,71 C183.3,71.1 183.7,70.9 184,71 C184.4,71.2 184.7,71.7 185,72 C185.3,72.3 185.8,72.6 186,73 C186.1,73.3 185.8,73.8 186,74 C186.2,74.2 186.8,73.8 187,74 C187.2,74.2 187.0,74.7 187,75 C187.0,75.3 186.9,75.7 187,76 C187.2,76.4 187.7,76.7 188,77 L200,76 C200.3,75.7 200.8,75.4 201,75 C201.1,74.7 201.0,74.3 201,74 C201.0,73.7 201.0,73.4 201,73 C201.0,72.4 201.0,71.7 201,71 C201.0,70.3 201.2,69.5 201,69 C200.8,68.6 200.2,68.4 200,68 C199.8,67.5 200.2,66.6 200,66 C199.8,65.3 199.2,64.7 199,64 C198.8,63.4 199.2,62.5 199,62 C198.8,61.6 198.3,61.4 198,61 C197.6,60.5 197.4,59.5 197,59 C196.7,58.6 196.3,58.3 196,58 C195.7,57.7 195.3,57.3 195,57 C194.7,56.7 194.3,56.3 194,56 C193.7,55.7 193.4,55.2 193,55 C192.5,54.8 191.7,55.0 191,55 L175,51 L173,45 L171,50 L140,51 L139,42 C134.7,44.7 129.6,46.7 126,50 C122.6,53.1 119.0,56.9 118,61 C117.0,65.2 119.3,70.3 120,75 C123.7,72.7 127.5,67.8 131,68 C134.5,68.2 137.7,73.3 141,76Z" fill="#000000" stroke="#000000" stroke-width="1" fill-rule="evenodd" data-shape="66"/>
        <polygon points="173,45 169,30 168,31 172,50 173,45" fill="#000000" stroke="#000000" stroke-width="1" fill-rule="evenodd" data-shape="67"/>
        <polygon points="200,68 203,68 203,76 200,76 200,68" fill="#000000" stroke="#000000" stroke-width="1" fill-rule="evenodd" data-shape="68"/>
        <polygon points="115,66 119,66 119,75 115,75 115,66" fill="#000000" stroke="none" stroke-width="0" fill-rule="evenodd" data-shape="69"/>
        <path d="M140,54 L139,36 L139,35 L139,34 L139,33 L140,33 L141,33 L141,34 L141,35 L142,36 L142,53Z" fill="#808000" stroke="#000000" stroke-width="1" fill-rule="evenodd" data-shape="70"/>
        <path d="M142,52 L142,35 L142,34 L142,33 L143,33 L143,32 L144,32 L144,33 L144,34 L145,35 L145,36 L144,53Z" fill="#808000" stroke="#000000" stroke-width="1" fill-rule="evenodd" data-shape="71"/>
        <path d="M139,45 L135,37 L135,36 L135,35 L135,34 L135,33 L136,33 L137,33 L137,34 L138,34 L138,35Z" fill="#808000" stroke="#000000" stroke-width="1" fill-rule="evenodd" data-shape="72"/>
        <path d="M137,84 C135.7,85.7 132.8,87.4 131,87 C129.1,86.6 126.8,83.3 126,81 C125.2,78.7 125.3,75.4 126,73 C126.7,70.7 128.2,67.8 130,67 C131.6,66.3 134.5,66.8 136,68 C137.7,69.4 138.8,73.3 139,76 C139.2,78.6 138.5,82.2 137,84Z" fill="#333333" stroke="#000000" stroke-width="1" fill-rule="evenodd" data-shape="73"/>
        <path d="M133,80 L133,81 L132,81 L132,82 L131,82 L130,82 L130,81 L129,81 L129,80 L128,79 L128,77 L128,76 L128,75 L128,74 L128,73 L129,72 L130,71 L131,71 L132,71 L132,72 L133,72 L133,73 L134,74 L134,75 L134,76 L134,77 L134,79 L133,79Z" fill="#eded00" stroke="#000000" stroke-width="1" fill-rule="evenodd" data-shape="74"/>
        <path d="M184,85 C182.7,86.7 179.6,88.4 178,88 C176.3,87.5 174.8,84.3 174,82 C173.1,79.6 172.4,76.4 173,74 C173.5,71.7 175.2,68.8 177,68 C178.8,67.2 182.5,67.6 184,69 C185.6,70.5 186.0,74.3 186,77 C186.0,79.7 185.5,83.2 184,85Z" fill="#333333" stroke="#000000" stroke-width="1" fill-rule="evenodd" data-shape="75"/>
        <path d="M181,80 L181,81 L180,81 L180,82 L179,82 L178,82 L178,81 L177,81 L177,80 L176,80 L176,79 L176,78 L176,77 L176,76 L176,75 L176,74 L177,73 L178,72 L179,72 L180,72 L180,73 L181,73 L181,74 L182,75 L182,76 L182,77 L182,78 L182,79Z" fill="#eded00" stroke="#000000" stroke-width="1" fill-rule="evenodd" data-shape="76"/>
        <path d="M141,76 L170,76 C170.3,75.7 170.7,75.3 171,75 C171.3,74.7 171.8,74.4 172,74 C172.1,73.7 171.9,73.3 172,73 C172.2,72.6 172.6,72.2 173,72 C173.3,71.9 173.8,72.2 174,72 C174.2,71.8 173.8,71.2 174,71 C174.2,70.8 174.7,71.1 175,71 C175.4,70.8 175.6,70.2 176,70 C176.3,69.9 176.7,70.1 177,70 C177.4,69.8 177.6,69.2 178,69 C178.3,68.9 178.7,69.0 179,69 C179.3,69.0 179.7,68.9 180,69 C180.4,69.2 180.6,69.8 181,70 C181.3,70.1 181.7,69.9 182,70 C182.4,70.2 182.6,70.8 183,71 C183.3,71.1 183.7,70.9 184,71 C184.4,71.2 184.7,71.7 185,72 C185.3,72.3 185.8,72.6 186,73 C186.1,73.3 185.8,73.8 186,74 C186.2,74.2 186.8,73.8 187,74 C187.2,74.2 187.0,74.7 187,75 C187.0,75.3 186.9,75.7 187,76 C187.2,76.4 187.7,76.7 188,77 L200,76 C200.3,75.7 200.8,75.4 201,75 C201.1,74.7 201.0,74.3 201,74 C201.0,73.7 201.0,73.4 201,73 C201.0,72.4 201.0,71.7 201,71 C201.0,70.3 201.2,69.5 201,69 C200.8,68.6 200.2,68.4 200,68 C199.8,67.5 200.2,66.6 200,66 C199.8,65.3 199.2,64.7 199,64 C198.8,63.4 199.2,62.5 199,62 C198.8,61.6 198.3,61.4 198,61 C197.6,60.5 197.4,59.5 197,59 C196.7,58.6 196.3,58.3 196,58 C195.7,57.7 195.3,57.3 195,57 C194.7,56.7 194.3,56.3 194,56 C193.7,55.7 193.4,55.2 193,55 C192.5,54.8 191.7,55.0 191,55 L175,51 L173,45 L171,50 L140,51 L139,42 C134.7,44.7 129.6,46.7 126,50 C122.6,53.1 119.0,56.9 118,61 C117.0,65.2 119.3,70.3 120,75 C123.7,72.7 127.5,67.8 131,68 C134.5,68.2 137.7,73.3 141,76Z" fill="#dd0000" stroke="#000000" stroke-width="1" fill-rule="evenodd" data-shape="77"/>
        <polygon points="173,45 169,30 168,31 172,50 173,45" fill="#bababa" stroke="#000000" stroke-width="1" fill-rule="evenodd" data-shape="78"/>
        <path d="M198,66 L197,67 L197,68 L196,68 L195,68 L195,67 L194,67 L194,66 L193,65 L193,64 L193,63 L193,62 L193,61 L193,60 L193,59 L194,59 L194,58 L195,58 L196,58 L196,59 L197,59 L197,60 L197,61 L198,62 L198,63 L198,64Z" fill="#bababa" stroke="#000000" stroke-width="1" fill-rule="evenodd" data-shape="79"/>
        <polygon points="169,51 170,76 169,51" fill="#bababa" stroke="#000000" stroke-width="1" fill-rule="evenodd" data-shape="80"/>
        <polygon points="154,51 154,76 154,51" fill="#bababa" stroke="#000000" stroke-width="1" fill-rule="evenodd" data-shape="81"/>
        <polygon points="155,60 158,60 158,62 155,62 155,60" fill="#bababa" stroke="#000000" stroke-width="1" fill-rule="evenodd" data-shape="82"/>
        <polygon points="200,68 203,68 203,76 200,76 200,68" fill="#bababa" stroke="#000000" stroke-width="1" fill-rule="evenodd" data-shape="83"/>
        <polygon points="115,66 119,66 119,75 115,75 115,66" fill="#bababa" stroke="none" stroke-width="0" fill-rule="evenodd" data-shape="84"/>
      </g>
      <g data-mdcr="group" class="mdcr-region">
        <path d="M277,84 L277,85 L276,85 L276,86 L275,86 L274,86 L274,85 L273,85 L273,84 L273,83 L272,83 L272,82 L272,80 L272,79 L272,78 L273,78 L273,77 L273,76 L274,76 L274,75 L275,75 L276,75 L276,76 L277,76 L277,77 L277,78 L278,78 L278,79 L278,80 L278,82 L278,83 L277,83Z" fill="#ffffff" stroke="none" stroke-width="0" fill-rule="evenodd" data-shape="85"/>
        <path d="M277,84 L277,85 L276,85 L276,86 L275,86 L274,86 L274,85 L273,85 L273,84 L273,83 L272,83 L272,82 L272,80 L272,79 L272,78 L273,78 L273,77 L273,76 L274,76 L274,75 L275,75 L276,75 L276,76 L277,76 L277,77 L277,78 L278,78 L278,79 L278,80 L278,82 L278,83 L277,83 L277,84" fill="none" stroke="#ffffff" stroke-width="1"/>
        <g data-mdcr="group" class="mdcr-region">
          <path d="M223,77 L223,52 L230,45 L231,10 C234.7,9.3 238.3,8.3 242,8 C245.7,7.7 249.3,8.0 253,8 C256.9,8.0 261.1,7.8 265,8 C268.8,8.2 272.4,8.5 276,9 C279.4,9.5 282.7,10.3 286,11 L285,50 C285.0,50.3 285.1,50.7 285,51 C284.8,51.4 284.2,51.6 284,52 C283.9,52.3 284.2,52.8 284,53 C283.8,53.2 283.2,52.8 283,53 C282.8,53.2 283.1,53.7 283,54 C282.8,54.4 282.2,54.6 282,55 C281.8,55.5 282.0,56.3 282,57 C282.0,57.9 282.0,59.1 282,60 C282.0,60.7 282.0,61.2 282,62 C282.0,63.1 282.0,64.6 282,66 C282.0,67.6 282.0,69.3 282,71 L282,77 C282.0,76.7 282.1,76.3 282,76 C281.8,75.6 281.4,75.2 281,75 C280.7,74.9 280.2,75.2 280,75 C279.8,74.8 280.0,74.3 280,74 C280.0,73.7 280.0,73.3 280,73 C280.0,72.7 280.2,72.2 280,72 C279.8,71.8 279.2,72.2 279,72 C278.8,71.8 279.1,71.3 279,71 C278.8,70.6 278.4,70.2 278,70 C277.7,69.9 277.3,70.0 277,70 C276.7,70.0 276.3,70.0 276,70 C275.7,70.0 275.3,70.0 275,70 C274.7,70.0 274.3,69.9 274,70 C273.6,70.2 273.3,70.7 273,71 C272.7,71.3 272.2,71.6 272,72 C271.9,72.3 272.0,72.7 272,73 C272.0,73.3 272.1,73.7 272,74 C271.8,74.4 271.3,74.7 271,75 C270.7,75.3 270.3,75.7 270,76 C269.7,76.3 269.3,76.7 269,77 L241,77 C241.0,76.7 241.0,76.3 241,76 C241.0,75.7 241.1,75.3 241,75 C240.8,74.6 240.2,74.4 240,74 C239.9,73.7 240.2,73.2 240,73 C239.8,72.8 239.2,73.2 239,73 C238.8,72.8 239.0,72.3 239,72 C239.0,71.7 239.2,71.2 239,71 C238.8,70.8 238.3,71.1 238,71 C237.6,70.8 237.4,70.2 237,70 C236.7,69.9 236.3,70.0 236,70 C235.7,70.0 235.3,70.0 235,70 C234.7,70.0 234.3,70.0 234,70 C233.7,70.0 233.2,69.8 233,70 C232.8,70.2 233.0,70.7 233,71 C233.0,71.3 233.2,71.8 233,72 C232.8,72.2 232.2,71.8 232,72 C231.8,72.2 232.1,72.7 232,73 C231.8,73.4 231.3,73.7 231,74 C230.7,74.3 230.2,74.6 230,75 C229.9,75.3 230.1,75.7 230,76 C229.8,76.4 229.3,76.7 229,77 L223,77Z" fill="#dd0000" stroke="none" stroke-width="0" fill-rule="evenodd" data-shape="86"/>
          <path d="M238,33 C238.0,35.7 238.6,38.7 238,41 C237.5,42.9 236.0,44.3 235,46 C233.7,45.0 231.7,44.5 231,43 C230.1,41.1 229.7,36.7 231,35 C232.2,33.4 235.7,33.7 238,33Z" fill="#dd0000" stroke="none" stroke-width="0" fill-rule="evenodd" data-shape="87"/>
          <path d="M269,45 C267.8,43.8 268.4,40.1 269,38 C269.5,36.1 270.5,33.9 272,33 C273.7,32.0 277.8,31.8 279,33 C280.2,34.2 279.6,37.9 279,40 C278.5,41.9 277.5,44.1 276,45 C274.3,46.0 270.2,46.2 269,45Z" fill="#dd0000" stroke="none" stroke-width="0" fill-rule="evenodd" data-shape="88"/>
          <path d="M255,33 C256.3,31.7 261.1,32.1 263,33 C264.5,33.7 265.4,35.3 266,37 C266.7,39.1 267.3,43.7 266,45 C264.7,46.3 259.9,45.9 258,45 C256.5,44.3 255.6,42.7 255,41 C254.3,38.9 253.7,34.3 255,33Z" fill="#dd0000" stroke="none" stroke-width="0" fill-rule="evenodd" data-shape="89"/>
          <path d="M241,45 C242.3,46.3 247.1,45.9 249,45 C250.5,44.3 251.4,42.7 252,41 C252.7,38.9 253.3,34.3 252,33 C250.7,31.7 245.9,32.1 244,33 C242.5,33.7 241.6,35.3 241,37 C240.3,39.1 239.7,43.7 241,45Z" fill="#dd0000" stroke="none" stroke-width="0" fill-rule="evenodd" data-shape="90"/>
          <path d="M232,16 C230.7,17.3 231.0,22.0 232,24 C232.9,25.8 235.5,28.1 237,28 C238.4,27.9 240.4,25.7 241,24 C241.7,21.9 241.5,17.3 240,16 C238.5,14.7 233.3,14.7 232,16Z" fill="#dd0000" stroke="none" stroke-width="0" fill-rule="evenodd" data-shape="91"/>
          <path d="M244,16 C245.3,14.7 250.5,14.7 252,16 C253.5,17.3 253.7,21.9 253,24 C252.4,25.7 250.4,27.9 249,28 C247.5,28.1 244.9,25.8 244,24 C243.0,22.0 242.7,17.3 244,16Z" fill="#dd0000" stroke="none" stroke-width="0" fill-rule="evenodd" data-shape="92"/>
          <path d="M255,16 C253.7,17.3 254.0,22.0 255,24 C255.9,25.8 258.5,28.1 260,28 C261.4,27.9 263.4,25.7 264,24 C264.7,21.9 264.5,17.3 263,16 C261.5,14.7 256.3,14.7 255,16Z" fill="#dd0000" stroke="none" stroke-width="0" fill-rule="evenodd" data-shape="93"/>
          <path d="M277,16 L283,16 L283,28 L277,28Z" fill="#dd0000" stroke="none" stroke-width="0" fill-rule="evenodd" data-shape="94"/>
          <path d="M266,16 C264.7,17.3 265.0,22.0 266,24 C266.9,25.8 269.5,28.1 271,28 C272.4,27.9 274.4,25.7 275,24 C275.7,21.9 275.5,17.3 274,16 C272.5,14.7 267.3,14.7 266,16Z" fill="#dd0000" stroke="none" stroke-width="0" fill-rule="evenodd" data-shape="95"/>
        </g>
        <path d="M269,45 C267.8,43.8 268.4,40.1 269,38 C269.5,36.1 270.5,33.9 272,33 C273.7,32.0 277.8,31.8 279,33 C280.2,34.2 279.6,37.9 279,40 C278.5,41.9 277.5,44.1 276,45 C274.3,46.0 270.2,46.2 269,45Z" fill="#000000" stroke="none" stroke-width="0" fill-rule="evenodd" data-shape="96"/>
        <path d="M255,33 C256.3,31.7 261.1,32.1 263,33 C264.5,33.7 265.4,35.3 266,37 C266.7,39.1 267.3,43.7 266,45 C264.7,46.3 259.9,45.9 258,45 C256.5,44.3 255.6,42.7 255,41 C254.3,38.9 253.7,34.3 255,33Z" fill="#000000" stroke="none" stroke-width="0" fill-rule="evenodd" data-shape="97"/>
        <path d="M242,45 C243.3,46.3 248.1,45.9 250,45 C251.5,44.3 252.4,42.7 253,41 C253.7,38.9 254.3,34.3 253,33 C251.7,31.7 246.9,32.1 245,33 C243.5,33.7 242.6,35.3 242,37 C241.3,39.1 240.7,43.7 242,45Z" fill="#000000" stroke="none" stroke-width="0" fill-rule="evenodd" data-shape="98"/>
        <path d="M233,16 C231.7,17.3 232.0,22.0 233,24 C233.9,25.8 236.5,28.1 238,28 C239.4,27.9 241.4,25.7 242,24 C242.7,21.9 242.5,17.3 241,16 C239.5,14.7 234.3,14.7 233,16Z" fill="#000000" stroke="none" stroke-width="0" fill-rule="evenodd" data-shape="99"/>
        <path d="M244,16 C245.3,14.7 250.5,14.7 252,16 C253.5,17.3 253.7,21.9 253,24 C252.4,25.7 250.4,27.9 249,28 C247.5,28.1 244.9,25.8 244,24 C243.0,22.0 242.7,17.3 244,16Z" fill="#000000" stroke="none" stroke-width="0" fill-rule="evenodd" data-shape="100"/>
        <path d="M254,16 C252.7,17.3 253.0,22.0 254,24 C254.9,25.8 257.5,28.1 259,28 C260.4,27.9 262.4,25.7 263,24 C263.7,21.9 263.5,17.3 262,16 C260.5,14.7 255.3,14.7 254,16Z" fill="#000000" stroke="none" stroke-width="0" fill-rule="evenodd" data-shape="101"/>
        <path d="M276,16 L282,16 L282,28 L276,28Z" fill="#000000" stroke="none" stroke-width="0" fill-rule="evenodd" data-shape="102"/>
        <path d="M222,56 L224,56 L224,62 L222,62Z" fill="#545454" stroke="none" stroke-width="0" fill-rule="evenodd" data-shape="103"/>
        <path d="M222,56 L224,56 L224,62 L222,62 L222,56" fill="none" stroke="#ffffff" stroke-width="1"/>
        <path d="M222,56 L224,56 L224,62 L222,62Z" fill="#000000" stroke="none" stroke-width="0" fill-rule="evenodd" data-shape="104"/>
        <polyline points="222,56 224,56 224,62 222,62 222,56" fill="none" stroke="#ffffff" stroke-width="1"/>
        <polyline points="238,72 238,34 231,34 231,74" fill="none" stroke="#ffffff" stroke-width="1"/>
        <path d="M238,56 L280,56 L280,62 L238,62Z" fill="#bababa" stroke="#ffffff" stroke-width="1" fill-rule="evenodd" data-shape="105"/>
        <path d="M232,35 L232,46 L237,46 L237,35Z" fill="#000000" stroke="none" stroke-width="0" fill-rule="evenodd" data-shape="106"/>
        <path d="M264,28 C262.8,26.8 263.4,23.1 264,21 C264.5,19.1 265.5,16.9 267,16 C268.7,15.0 272.8,14.8 274,16 C275.2,17.2 274.6,20.9 274,23 C273.5,24.9 272.5,27.1 271,28 C269.3,29.0 265.2,29.2 264,28Z" fill="#000000" stroke="none" stroke-width="0" fill-rule="evenodd" data-shape="107"/>
        <ellipse cx="277" cy="81" rx="5" ry="9" fill="#000000" stroke="#000000" stroke-width="1" data-shape="108"/>
        <ellipse cx="236" cy="81" rx="5" ry="9" fill="#000000" stroke="#000000" stroke-width="1" data-shape="109"/>
      </g>
      <g data-mdcr="group" class="mdcr-region">
        <path d="M302,61 C303.3,59.0 304.4,56.5 306,55 C307.4,53.6 309.2,52.7 311,52 C312.8,51.3 314.9,51.0 317,51 C319.2,51.0 321.7,51.7 324,52 C321.7,52.3 319.4,52.5 317,53 C314.4,53.5 311.4,53.7 309,55 C306.4,56.3 304.3,59.0 302,61Z" fill="#000000" stroke="#000000" stroke-width="1" fill-rule="evenodd" data-shape="110"/>
        <path d="M329,85 C327.4,86.8 325.3,88.3 323,89 C320.6,89.7 317.4,89.4 315,89 C312.8,88.6 310.8,88.2 309,87 C307.0,85.7 305.2,83.3 304,81 C302.8,78.6 302.2,75.7 302,73 C301.8,70.3 302.2,67.5 303,65 C303.8,62.5 305.3,59.9 307,58 C308.6,56.2 310.8,54.8 313,54 C315.2,53.2 317.7,52.7 320,53 C322.4,53.3 325.0,54.5 327,56 C329.0,57.5 330.8,59.7 332,62 C333.2,64.4 333.8,67.3 334,70 C334.2,72.7 333.8,75.5 333,78 C332.2,80.5 330.7,83.1 329,85Z" fill="#000000" stroke="#000000" stroke-width="1" fill-rule="evenodd" data-shape="111"/>
        <path d="M326,81 C324.5,82.7 322.1,84.4 320,85 C318.1,85.6 315.9,85.5 314,85 C311.9,84.5 309.6,83.5 308,82 C306.3,80.5 304.7,78.3 304,76 C303.3,73.6 303.5,70.5 304,68 C304.5,65.5 305.5,62.8 307,61 C308.5,59.2 310.8,57.8 313,57 C315.2,56.2 317.8,55.5 320,56 C322.2,56.5 324.5,58.2 326,60 C327.5,61.8 328.5,64.5 329,67 C329.5,69.5 329.6,72.6 329,75 C328.5,77.2 327.5,79.4 326,81Z" fill="#000000" stroke="#000000" stroke-width="1" fill-rule="evenodd" data-shape="112"/>
        <polygon points="316,57 319,86 316,57" fill="#000000" stroke="#000000" stroke-width="1" fill-rule="evenodd" data-shape="113"/>
        <polygon points="304,73 330,68 304,73" fill="#000000" stroke="#000000" stroke-width="1" fill-rule="evenodd" data-shape="114"/>
        <polygon points="324,58 309,82 324,58" fill="#000000" stroke="#000000" stroke-width="1" fill-rule="evenodd" data-shape="115"/>
        <polygon points="307,62 328,80 307,62" fill="#000000" stroke="#000000" stroke-width="1" fill-rule="evenodd" data-shape="116"/>
        <polygon points="319,56 313,85 319,56" fill="#000000" stroke="#000000" stroke-width="1" fill-rule="evenodd" data-shape="117"/>
        <polygon points="305,77 327,62 305,77" fill="#000000" stroke="#000000" stroke-width="1" fill-rule="evenodd" data-shape="118"/>
        <polygon points="306,67 331,74 306,67" fill="#000000" stroke="#000000" stroke-width="1" fill-rule="evenodd" data-shape="119"/>
        <polygon points="311,59 324,84 311,59" fill="#000000" stroke="#000000" stroke-width="1" fill-rule="evenodd" data-shape="120"/>
        <path d="M319,72 L318,73 L317,73 L316,73 L316,72 L315,72 L315,71 L315,70 L315,69 L315,68 L316,68 L316,67 L317,67 L318,67 L319,67 L319,68 L320,69 L320,70 L320,71Z" fill="#000000" stroke="#000000" stroke-width="1" fill-rule="evenodd" data-shape="121"/>
        <path d="M318,71 L334,37 L332,36 L316,70 C316.0,70.3 316.0,70.7 316,71 C316.0,71.3 315.8,71.8 316,72 C316.2,72.2 316.7,72.1 317,72 C317.4,71.8 317.7,71.3 318,71Z" fill="#000000" stroke="#000000" stroke-width="1" fill-rule="evenodd" data-shape="122"/>
        <path d="M377,86 C375.4,87.8 373.2,89.2 371,90 C368.8,90.8 366.3,91.3 364,91 C361.6,90.7 359.0,89.6 357,88 C354.9,86.3 353.2,83.4 352,81 C350.9,78.8 350.2,76.4 350,74 C349.8,71.4 350.2,68.5 351,66 C351.8,63.5 353.4,60.9 355,59 C356.4,57.3 358.0,55.8 360,55 C362.2,54.1 365.5,53.6 368,54 C370.5,54.3 373.0,55.4 375,57 C377.1,58.7 378.8,61.6 380,64 C381.1,66.2 381.8,68.6 382,71 C382.2,73.6 381.8,76.5 381,79 C380.2,81.5 378.7,84.1 377,86Z" fill="#000000" stroke="#000000" stroke-width="1" fill-rule="evenodd" data-shape="123"/>
        <path d="M375,82 C373.6,83.7 371.9,85.3 370,86 C368.0,86.7 365.2,86.5 363,86 C360.9,85.5 358.6,84.5 357,83 C355.3,81.5 353.7,79.3 353,77 C352.3,74.6 352.5,71.5 353,69 C353.5,66.5 354.5,63.8 356,62 C357.5,60.2 359.8,58.8 362,58 C364.2,57.2 366.8,56.5 369,57 C371.2,57.5 373.5,59.2 375,61 C376.5,62.8 377.3,65.6 378,68 C378.6,70.3 379.4,72.7 379,75 C378.5,77.4 376.6,80.1 375,82Z" fill="#000000" stroke="#000000" stroke-width="1" fill-rule="evenodd" data-shape="124"/>
        <polygon points="364,59 367,88 364,59" fill="#000000" stroke="#000000" stroke-width="1" fill-rule="evenodd" data-shape="125"/>
        <polygon points="352,75 378,70 352,75" fill="#000000" stroke="#000000" stroke-width="1" fill-rule="evenodd" data-shape="126"/>
        <polygon points="373,60 358,84 373,60" fill="#000000" stroke="#000000" stroke-width="1" fill-rule="evenodd" data-shape="127"/>
        <polygon points="356,63 377,81 356,63" fill="#000000" stroke="#000000" stroke-width="1" fill-rule="evenodd" data-shape="128"/>
        <polygon points="368,58 362,87 368,58" fill="#000000" stroke="#000000" stroke-width="1" fill-rule="evenodd" data-shape="129"/>
        <polygon points="354,79 376,64 354,79" fill="#000000" stroke="#000000" stroke-width="1" fill-rule="evenodd" data-shape="130"/>
        <polygon points="354,68 379,75 354,68" fill="#000000" stroke="#000000" stroke-width="1" fill-rule="evenodd" data-shape="131"/>
        <polygon points="360,60 373,85 360,60" fill="#000000" stroke="#000000" stroke-width="1" fill-rule="evenodd" data-shape="132"/>
        <path d="M367,74 L366,75 L365,75 L364,75 L364,74 L363,74 L363,73 L363,72 L363,71 L363,70 L364,70 L364,69 L365,69 L366,69 L367,69 L367,70 L368,71 L368,72 L368,73Z" fill="#000000" stroke="#000000" stroke-width="1" fill-rule="evenodd" data-shape="133"/>
        <polygon points="367,71 357,46 354,47 366,72 367,71" fill="#000000" stroke="#000000" stroke-width="1" fill-rule="evenodd" data-shape="134"/>
        <polygon points="326,54 357,55 356,52 327,52 326,54" fill="#000000" stroke="#000000" stroke-width="1" fill-rule="evenodd" data-shape="135"/>
        <path d="M327,34 L335,39 C335.0,39.3 334.8,39.8 335,40 C335.2,40.2 335.8,39.8 336,40 C336.2,40.2 336.1,40.7 336,41 C335.8,41.4 335.2,41.6 335,42 C334.9,42.3 335.2,42.8 335,43 C334.8,43.2 334.2,42.8 334,43 C333.8,43.2 334.2,43.8 334,44 C333.8,44.2 333.2,43.8 333,44 C332.8,44.2 333.2,44.8 333,45 C332.8,45.2 332.2,44.8 332,45 C331.8,45.2 332.2,45.8 332,46 C331.8,46.2 331.3,46.0 331,46 L334,48 C334.0,47.7 333.8,47.2 334,47 C334.2,46.8 334.8,47.2 335,47 C335.2,46.8 334.9,46.3 335,46 C335.2,45.6 335.7,45.3 336,45 C336.3,44.7 336.7,44.3 337,44 C337.3,43.7 337.7,43.3 338,43 C338.3,42.7 338.8,42.4 339,42 C339.1,41.7 339.0,41.3 339,41 C339.0,40.7 339.0,40.3 339,40 C339.0,39.7 339.0,39.3 339,39 C339.0,38.7 339.0,38.3 339,38 L326,31 L323,38 C323.7,38.0 324.4,38.0 325,38 C325.4,38.0 325.8,38.2 326,38 C326.2,37.8 325.8,37.2 326,37 C326.2,36.8 326.8,37.2 327,37 C327.2,36.8 327.0,36.3 327,36 C327.0,35.7 327.0,35.3 327,35 C327.0,34.7 327.0,34.3 327,34Z" fill="#000000" stroke="#000000" stroke-width="1" fill-rule="evenodd" data-shape="136"/>
        <polygon points="333,38 334,35 332,34 331,37 333,38" fill="#000000" stroke="#000000" stroke-width="1" fill-rule="evenodd" data-shape="137"/>
        <path d="M346,49 L362,45 L361,39 C359.3,40.0 357.8,41.0 356,42 C354.1,43.0 351.7,43.8 350,45 C348.4,46.1 347.3,47.7 346,49Z" fill="#000000" stroke="none" stroke-width="0" fill-rule="evenodd" data-shape="138"/>
        <path d="M302,61 C303.3,59.0 304.4,56.5 306,55 C307.4,53.6 309.2,52.7 311,52 C312.8,51.3 314.9,51.0 317,51 C319.2,51.0 321.7,51.7 324,52 C321.7,52.3 319.4,52.5 317,53 C314.4,53.5 311.4,53.7 309,55 C306.4,56.3 304.3,59.0 302,61Z" fill="#eded00" stroke="#000000" stroke-width="1" fill-rule="evenodd" data-shape="139"/>
        <path d="M329,85 C327.4,86.8 325.3,88.3 323,89 C320.6,89.7 317.4,89.4 315,89 C312.8,88.6 310.8,88.2 309,87 C307.0,85.7 305.2,83.3 304,81 C302.8,78.6 302.2,75.7 302,73 C301.8,70.3 302.2,67.5 303,65 C303.8,62.5 305.3,59.9 307,58 C308.6,56.2 310.8,54.8 313,54 C315.2,53.2 317.7,52.7 320,53 C322.4,53.3 325.0,54.5 327,56 C329.0,57.5 330.8,59.7 332,62 C333.2,64.4 333.8,67.3 334,70 C334.2,72.7 333.8,75.5 333,78 C332.2,80.5 330.7,83.1 329,85Z" fill="#545454" stroke="#000000" stroke-width="1" fill-rule="evenodd" data-shape="140"/>
        <path d="M326,81 C324.5,82.7 322.1,84.4 320,85 C318.1,85.6 315.9,85.5 314,85 C311.9,84.5 309.6,83.5 308,82 C306.3,80.5 304.7,78.3 304,76 C303.3,73.6 303.5,70.5 304,68 C304.5,65.5 305.5,62.8 307,61 C308.5,59.2 310.8,57.8 313,57 C315.2,56.2 317.8,55.5 320,56 C322.2,56.5 324.5,58.2 326,60 C327.5,61.8 328.5,64.5 329,67 C329.5,69.5 329.6,72.6 329,75 C328.5,77.2 327.5,79.4 326,81Z" fill="#ffffff" stroke="#000000" stroke-width="1" fill-rule="evenodd" data-shape="141"/>
        <polygon points="316,57 319,86 316,57" fill="#545454" stroke="#000000" stroke-width="1" fill-rule="evenodd" data-shape="142"/>
        <polygon points="304,73 330,68 304,73" fill="#545454" stroke="#000000" stroke-width="1" fill-rule="evenodd" data-shape="143"/>
        <polygon points="324,58 309,82 324,58" fill="#545454" stroke="#000000" stroke-width="1" fill-rule="evenodd" data-shape="144"/>
        <polygon points="307,62 328,80 307,62" fill="#545454" stroke="#000000" stroke-width="1" fill-rule="evenodd" data-shape="145"/>
        <polygon points="319,56 313,85 319,56" fill="#545454" stroke="#000000" stroke-width="1" fill-rule="evenodd" data-shape="146"/>
        <polygon points="305,77 327,62 305,77" fill="#545454" stroke="#000000" stroke-width="1" fill-rule="evenodd" data-shape="147"/>
        <polygon points="306,67 331,74 306,67" fill="#545454" stroke="#000000" stroke-width="1" fill-rule="evenodd" data-shape="148"/>
        <polygon points="311,59 324,84 311,59" fill="#545454" stroke="#000000" stroke-width="1" fill-rule="evenodd" data-shape="149"/>
        <path d="M319,72 L318,73 L317,73 L316,73 L316,72 L315,72 L315,71 L315,70 L315,69 L315,68 L316,68 L316,67 L317,67 L318,67 L319,67 L319,68 L320,69 L320,70 L320,71Z" fill="#545454" stroke="#000000" stroke-width="1" fill-rule="evenodd" data-shape="150"/>
        <path d="M318,71 L334,37 L332,36 L316,70 C316.0,70.3 316.0,70.7 316,71 C316.0,71.3 315.8,71.8 316,72 C316.2,72.2 316.7,72.1 317,72 C317.4,71.8 317.7,71.3 318,71Z" fill="#eded00" stroke="#000000" stroke-width="1" fill-rule="evenodd" data-shape="151"/>
        <path d="M377,86 C375.4,87.8 373.2,89.2 371,90 C368.8,90.8 366.3,91.3 364,91 C361.6,90.7 359.0,89.6 357,88 C354.9,86.3 353.2,83.4 352,81 C350.9,78.8 350.2,76.4 350,74 C349.8,71.4 350.2,68.5 351,66 C351.8,63.5 353.4,60.9 355,59 C356.4,57.3 358.0,55.8 360,55 C362.2,54.1 365.5,53.6 368,54 C370.5,54.3 373.0,55.4 375,57 C377.1,58.7 378.8,61.6 380,64 C381.1,66.2 381.8,68.6 382,71 C382.2,73.6 381.8,76.5 381,79 C380.2,81.5 378.7,84.1 377,86Z" fill="#545454" stroke="#000000" stroke-width="1" fill-rule="evenodd" data-shape="152"/>
        <path d="M375,82 C373.6,83.7 371.9,85.3 370,86 C368.0,86.7 365.2,86.5 363,86 C360.9,85.5 358.6,84.5 357,83 C355.3,81.5 353.7,79.3 353,77 C352.3,74.6 352.5,71.5 353,69 C353.5,66.5 354.5,63.8 356,62 C357.5,60.2 359.8,58.8 362,58 C364.2,57.2 366.8,56.5 369,57 C371.2,57.5 373.5,59.2 375,61 C376.5,62.8 377.3,65.6 378,68 C378.6,70.3 379.4,72.7 379,75 C378.5,77.4 376.6,80.1 375,82Z" fill="#ffffff" stroke="#000000" stroke-width="1" fill-rule="evenodd" data-shape="153"/>
        <polygon points="364,59 367,88 364,59" fill="#545454" stroke="#000000" stroke-width="1" fill-rule="evenodd" data-shape="154"/>
        <polygon points="352,75 378,70 352,75" fill="#545454" stroke="#000000" stroke-width="1" fill-rule="evenodd" data-shape="155"/>
        <polygon points="373,60 358,84 373,60" fill="#545454" stroke="#000000" stroke-width="1" fill-rule="evenodd" data-shape="156"/>
        <polygon points="356,63 377,81 356,63" fill="#545454" stroke="#000000" stroke-width="1" fill-rule="evenodd" data-shape="157"/>
        <polygon points="368,58 362,87 368,58" fill="#545454" stroke="#000000" stroke-width="1" fill-rule="evenodd" data-shape="158"/>
        <polygon points="354,79 376,64 354,79" fill="#545454" stroke="#000000" stroke-width="1" fill-rule="evenodd" data-shape="159"/>
        <polygon points="354,68 379,75 354,68" fill="#545454" stroke="#000000" stroke-width="1" fill-rule="evenodd" data-shape="160"/>
        <polygon points="360,60 373,85 360,60" fill="#545454" stroke="#000000" stroke-width="1" fill-rule="evenodd" data-shape="161"/>
        <path d="M367,74 L366,75 L365,75 L364,75 L364,74 L363,74 L363,73 L363,72 L363,71 L363,70 L364,70 L364,69 L365,69 L366,69 L367,69 L367,70 L368,71 L368,72 L368,73Z" fill="#545454" stroke="#000000" stroke-width="1" fill-rule="evenodd" data-shape="162"/>
        <polygon points="367,71 357,46 354,47 366,72 367,71" fill="#eded00" stroke="#000000" stroke-width="1" fill-rule="evenodd" data-shape="163"/>
        <polygon points="326,54 357,55 356,52 327,52 326,54" fill="#eded00" stroke="#000000" stroke-width="1" fill-rule="evenodd" data-shape="164"/>
        <path d="M327,34 L335,39 C335.0,39.3 334.8,39.8 335,40 C335.2,40.2 335.8,39.8 336,40 C336.2,40.2 336.1,40.7 336,41 C335.8,41.4 335.2,41.6 335,42 C334.9,42.3 335.2,42.8 335,43 C334.8,43.2 334.2,42.8 334,43 C333.8,43.2 334.2,43.8 334,44 C333.8,44.2 333.2,43.8 333,44 C332.8,44.2 333.2,44.8 333,45 C332.8,45.2 332.2,44.8 332,45 C331.8,45.2 332.2,45.8 332,46 C331.8,46.2 331.3,46.0 331,46 L334,48 C334.0,47.7 333.8,47.2 334,47 C334.2,46.8 334.8,47.2 335,47 C335.2,46.8 334.9,46.3 335,46 C335.2,45.6 335.7,45.3 336,45 C336.3,44.7 336.7,44.3 337,44 C337.3,43.7 337.7,43.3 338,43 C338.3,42.7 338.8,42.4 339,42 C339.1,41.7 339.0,41.3 339,41 C339.0,40.7 339.0,40.3 339,40 C339.0,39.7 339.0,39.3 339,39 C339.0,38.7 339.0,38.3 339,38 L326,31 L323,38 C323.7,38.0 324.4,38.0 325,38 C325.4,38.0 325.8,38.2 326,38 C326.2,37.8 325.8,37.2 326,37 C326.2,36.8 326.8,37.2 327,37 C327.2,36.8 327.0,36.3 327,36 C327.0,35.7 327.0,35.3 327,35 C327.0,34.7 327.0,34.3 327,34Z" fill="#dd0000" stroke="#000000" stroke-width="1" fill-rule="evenodd" data-shape="165"/>
        <polygon points="333,38 334,35 332,34 331,37 333,38" fill="#999999" stroke="#000000" stroke-width="1" fill-rule="evenodd" data-shape="166"/>
        <path d="M346,49 L362,45 L361,39 C359.3,40.0 357.8,41.0 356,42 C354.1,43.0 351.7,43.8 350,45 C348.4,46.1 347.3,47.7 346,49Z" fill="#ba7c4c" stroke="none" stroke-width="0" fill-rule="evenodd" data-shape="167"/>
      </g>
    </g>
  </g>
</svg>